<?xml version="1.0" encoding="UTF-8" standalone="no"?>
<!DOCTYPE svg PUBLIC "-//W3C//DTD SVG 1.1//EN"
 "http://www.w3.org/Graphics/SVG/1.1/DTD/svg11.dtd">
<!-- Generated by graphviz version 2.43.0 (0)
 -->
<!-- Title: discord_application Pages: 1 -->
<svg width="256pt" height="95pt"
 viewBox="0.00 0.00 255.50 95.00" xmlns="http://www.w3.org/2000/svg" xmlns:xlink="http://www.w3.org/1999/xlink">
<g id="graph0" class="graph" transform="scale(1 1) rotate(0) translate(4 91)">
<title>discord_application</title>
<!-- Node1 -->
<g id="node1" class="node">
<title>Node1</title>
<g id="a_node1"><a xlink:title=" ">
<polygon fill="#bfbfbf" stroke="black" points="51.5,-0.5 51.5,-19.5 162.5,-19.5 162.5,-0.5 51.5,-0.5"/>
<text text-anchor="middle" x="107" y="-7.5" font-family="Helvetica,sans-Serif" font-size="10.00">discord_application</text>
</a>
</g>
</g>
<!-- Node2 -->
<g id="node2" class="node">
<title>Node2</title>
<g id="a_node2"><a xlink:href="../../d0/dbd/structstrings.html" target="_top" xlink:title=" ">
<polygon fill="none" stroke="black" points="0,-67.5 0,-86.5 50,-86.5 50,-67.5 0,-67.5"/>
<text text-anchor="middle" x="25" y="-74.5" font-family="Helvetica,sans-Serif" font-size="10.00">strings</text>
</a>
</g>
</g>
<!-- Node2&#45;&gt;Node1 -->
<g id="edge1" class="edge">
<title>Node2&#45;&gt;Node1</title>
<path fill="none" stroke="#9a32cd" stroke-dasharray="5,2" d="M31.97,-58C35.36,-51.05 40.02,-43.47 46,-38 54.97,-29.79 66.84,-23.77 77.73,-19.53"/>
<polygon fill="#9a32cd" stroke="#9a32cd" points="28.65,-56.84 27.89,-67.41 35.08,-59.63 28.65,-56.84"/>
<text text-anchor="middle" x="74.5" y="-41" font-family="Helvetica,sans-Serif" font-size="10.00"> rpc_origins</text>
</g>
<!-- Node3 -->
<g id="node3" class="node">
<title>Node3</title>
<g id="a_node3"><a xlink:href="../../db/de3/structdiscord__user.html" target="_top" xlink:title=" ">
<polygon fill="none" stroke="black" points="68,-67.5 68,-86.5 146,-86.5 146,-67.5 68,-67.5"/>
<text text-anchor="middle" x="107" y="-74.5" font-family="Helvetica,sans-Serif" font-size="10.00">discord_user</text>
</a>
</g>
</g>
<!-- Node3&#45;&gt;Node1 -->
<g id="edge2" class="edge">
<title>Node3&#45;&gt;Node1</title>
<path fill="none" stroke="#9a32cd" stroke-dasharray="5,2" d="M107,-57.04C107,-44.67 107,-29.12 107,-19.63"/>
<polygon fill="#9a32cd" stroke="#9a32cd" points="103.5,-57.23 107,-67.23 110.5,-57.23 103.5,-57.23"/>
<text text-anchor="middle" x="124" y="-41" font-family="Helvetica,sans-Serif" font-size="10.00"> owner</text>
</g>
<!-- Node4 -->
<g id="node4" class="node">
<title>Node4</title>
<g id="a_node4"><a xlink:href="../../db/d19/structdiscord__team.html" target="_top" xlink:title=" ">
<polygon fill="none" stroke="red" points="164.5,-67.5 164.5,-86.5 247.5,-86.5 247.5,-67.5 164.5,-67.5"/>
<text text-anchor="middle" x="206" y="-74.5" font-family="Helvetica,sans-Serif" font-size="10.00">discord_team</text>
</a>
</g>
</g>
<!-- Node4&#45;&gt;Node1 -->
<g id="edge3" class="edge">
<title>Node4&#45;&gt;Node1</title>
<path fill="none" stroke="#9a32cd" stroke-dasharray="5,2" d="M184.06,-61.59C164.47,-48.74 136.44,-30.33 120.14,-19.63"/>
<polygon fill="#9a32cd" stroke="#9a32cd" points="182.37,-64.67 192.65,-67.23 186.21,-58.82 182.37,-64.67"/>
<text text-anchor="middle" x="176.5" y="-41" font-family="Helvetica,sans-Serif" font-size="10.00"> team</text>
</g>
</g>
</svg>
