<?xml version="1.0" encoding="UTF-8" standalone="no"?>
<!DOCTYPE svg PUBLIC "-//W3C//DTD SVG 1.1//EN"
 "http://www.w3.org/Graphics/SVG/1.1/DTD/svg11.dtd">
<!-- Generated by graphviz version 2.43.0 (0)
 -->
<!-- Title: discord_message_interaction Pages: 1 -->
<svg width="243pt" height="162pt"
 viewBox="0.00 0.00 242.50 162.00" xmlns="http://www.w3.org/2000/svg" xmlns:xlink="http://www.w3.org/1999/xlink">
<g id="graph0" class="graph" transform="scale(1 1) rotate(0) translate(4 158)">
<title>discord_message_interaction</title>
<!-- Node1 -->
<g id="node1" class="node">
<title>Node1</title>
<g id="a_node1"><a xlink:title=" ">
<polygon fill="#bfbfbf" stroke="black" points="0,-0.5 0,-19.5 159,-19.5 159,-0.5 0,-0.5"/>
<text text-anchor="middle" x="79.5" y="-7.5" font-family="Helvetica,sans-Serif" font-size="10.00">discord_message_interaction</text>
</a>
</g>
</g>
<!-- Node2 -->
<g id="node2" class="node">
<title>Node2</title>
<g id="a_node2"><a xlink:href="../../db/de3/structdiscord__user.html" target="_top" xlink:title=" ">
<polygon fill="none" stroke="black" points="40.5,-134.5 40.5,-153.5 118.5,-153.5 118.5,-134.5 40.5,-134.5"/>
<text text-anchor="middle" x="79.5" y="-141.5" font-family="Helvetica,sans-Serif" font-size="10.00">discord_user</text>
</a>
</g>
</g>
<!-- Node2&#45;&gt;Node1 -->
<g id="edge1" class="edge">
<title>Node2&#45;&gt;Node1</title>
<path fill="none" stroke="#9a32cd" stroke-dasharray="5,2" d="M76.1,-123.85C73.76,-108.5 71.29,-86.39 72.5,-67 73.55,-50.18 76.35,-30.68 78.07,-19.7"/>
<polygon fill="#9a32cd" stroke="#9a32cd" points="72.71,-124.82 77.79,-134.12 79.62,-123.68 72.71,-124.82"/>
<text text-anchor="middle" x="85" y="-74.5" font-family="Helvetica,sans-Serif" font-size="10.00"> user</text>
</g>
<!-- Node3 -->
<g id="node3" class="node">
<title>Node3</title>
<g id="a_node3"><a xlink:href="../../d5/de1/structdiscord__guild__member.html" target="_top" xlink:title=" ">
<polygon fill="none" stroke="red" points="106.5,-67.5 106.5,-86.5 234.5,-86.5 234.5,-67.5 106.5,-67.5"/>
<text text-anchor="middle" x="170.5" y="-74.5" font-family="Helvetica,sans-Serif" font-size="10.00">discord_guild_member</text>
</a>
</g>
</g>
<!-- Node2&#45;&gt;Node3 -->
<g id="edge3" class="edge">
<title>Node2&#45;&gt;Node3</title>
<path fill="none" stroke="#9a32cd" stroke-dasharray="5,2" d="M99.91,-128.42C117.9,-115.57 143.51,-97.28 158.42,-86.63"/>
<polygon fill="#9a32cd" stroke="#9a32cd" points="97.88,-125.57 91.77,-134.23 101.94,-131.27 97.88,-125.57"/>
<text text-anchor="middle" x="142" y="-108" font-family="Helvetica,sans-Serif" font-size="10.00"> user</text>
</g>
<!-- Node3&#45;&gt;Node1 -->
<g id="edge2" class="edge">
<title>Node3&#45;&gt;Node1</title>
<path fill="none" stroke="#9a32cd" stroke-dasharray="5,2" d="M150.09,-61.42C132.1,-48.57 106.49,-30.28 91.58,-19.63"/>
<polygon fill="#9a32cd" stroke="#9a32cd" points="148.06,-64.27 158.23,-67.23 152.12,-58.57 148.06,-64.27"/>
<text text-anchor="middle" x="152" y="-41" font-family="Helvetica,sans-Serif" font-size="10.00"> member</text>
</g>
</g>
</svg>
