<?xml version="1.0" encoding="UTF-8" standalone="no"?>
<!DOCTYPE svg PUBLIC "-//W3C//DTD SVG 1.1//EN"
 "http://www.w3.org/Graphics/SVG/1.1/DTD/svg11.dtd">
<!-- Generated by graphviz version 2.43.0 (0)
 -->
<!-- Title: REST API Pages: 1 -->
<svg width="352pt" height="38pt"
 viewBox="0.00 0.00 352.00 38.00" xmlns="http://www.w3.org/2000/svg" xmlns:xlink="http://www.w3.org/1999/xlink">
<g id="graph0" class="graph" transform="scale(1 1) rotate(0) translate(4 34)">
<title>REST API</title>
<!-- Node2 -->
<g id="node1" class="node">
<title>Node2</title>
<g id="a_node1"><a xlink:href="../../d1/d81/group__DiscordInternal.html" target="_top" xlink:title="Documentation useful when developing or debugging Concord itself.">
<polygon fill="none" stroke="black" points="135,-30 0,-30 0,0 135,0 135,-30"/>
<text text-anchor="start" x="8" y="-18" font-family="Helvetica,sans-Serif" font-size="10.00">Internal implementation</text>
<text text-anchor="middle" x="67.5" y="-7" font-family="Helvetica,sans-Serif" font-size="10.00"> details</text>
</a>
</g>
</g>
<!-- Node1 -->
<g id="node2" class="node">
<title>Node1</title>
<g id="a_node2"><a xlink:title="Wrapper to the Discord REST API.">
<polygon fill="#bfbfbf" stroke="black" points="231,-24.5 171,-24.5 171,-5.5 231,-5.5 231,-24.5"/>
<text text-anchor="middle" x="201" y="-12.5" font-family="Helvetica,sans-Serif" font-size="10.00">REST API</text>
</a>
</g>
</g>
<!-- Node2&#45;&gt;Node1 -->
<g id="edge1" class="edge">
<title>Node2&#45;&gt;Node1</title>
<path fill="none" stroke="black" d="M145.03,-15C154.18,-15 163.05,-15 170.89,-15"/>
<polygon fill="black" stroke="black" points="145.02,-11.5 135.02,-15 145.02,-18.5 145.02,-11.5"/>
</g>
<!-- Node3 -->
<g id="node3" class="node">
<title>Node3</title>
<g id="a_node3"><a xlink:href="../../d8/d52/group__DiscordInternalAdapterRatelimit.html" target="_top" xlink:title="Enforce ratelimiting per the official Discord Documentation.">
<polygon fill="none" stroke="black" points="344,-24.5 267,-24.5 267,-5.5 344,-5.5 344,-24.5"/>
<text text-anchor="middle" x="305.5" y="-12.5" font-family="Helvetica,sans-Serif" font-size="10.00">Ratelimiting</text>
</a>
</g>
</g>
<!-- Node1&#45;&gt;Node3 -->
<g id="edge2" class="edge">
<title>Node1&#45;&gt;Node3</title>
<path fill="none" stroke="black" d="M241.11,-15C249.57,-15 258.49,-15 266.89,-15"/>
<polygon fill="black" stroke="black" points="241.1,-11.5 231.1,-15 241.1,-18.5 241.1,-11.5"/>
</g>
</g>
</svg>
