<?xml version="1.0" encoding="UTF-8" standalone="no"?>
<!DOCTYPE svg PUBLIC "-//W3C//DTD SVG 1.1//EN"
 "http://www.w3.org/Graphics/SVG/1.1/DTD/svg11.dtd">
<!-- Generated by graphviz version 2.43.0 (0)
 -->
<!-- Title: Guild Pages: 1 -->
<svg width="275pt" height="27pt"
 viewBox="0.00 0.00 275.00 27.00" xmlns="http://www.w3.org/2000/svg" xmlns:xlink="http://www.w3.org/1999/xlink">
<g id="graph0" class="graph" transform="scale(1 1) rotate(0) translate(4 23)">
<title>Guild</title>
<!-- Node2 -->
<g id="node1" class="node">
<title>Node2</title>
<g id="a_node1"><a xlink:href="../../d3/de3/group__DiscordAPI.html" target="_top" xlink:title="The Discord public API supported by Concord.">
<polygon fill="none" stroke="black" points="32,-19 0,-19 0,0 32,0 32,-19"/>
<text text-anchor="middle" x="16" y="-7" font-family="Helvetica,sans-Serif" font-size="10.00">API</text>
</a>
</g>
</g>
<!-- Node1 -->
<g id="node2" class="node">
<title>Node1</title>
<g id="a_node2"><a xlink:title="Guild&#39;s public API supported by Concord.">
<polygon fill="#bfbfbf" stroke="black" points="110,-19 68,-19 68,0 110,0 110,-19"/>
<text text-anchor="middle" x="89" y="-7" font-family="Helvetica,sans-Serif" font-size="10.00">Guild</text>
</a>
</g>
</g>
<!-- Node2&#45;&gt;Node1 -->
<g id="edge1" class="edge">
<title>Node2&#45;&gt;Node1</title>
<path fill="none" stroke="black" d="M42.12,-9.5C50.55,-9.5 59.84,-9.5 67.84,-9.5"/>
<polygon fill="black" stroke="black" points="42.06,-6 32.06,-9.5 42.06,-13 42.06,-6"/>
</g>
<!-- Node3 -->
<g id="node3" class="node">
<title>Node3</title>
<g id="a_node3"><a xlink:href="../../d8/da6/group__DiscordAPIGuildSystemChannelFlags.html" target="_top" xlink:title=" ">
<polygon fill="none" stroke="black" points="267,-19 146,-19 146,0 267,0 267,-19"/>
<text text-anchor="middle" x="206.5" y="-7" font-family="Helvetica,sans-Serif" font-size="10.00">System channel flags</text>
</a>
</g>
</g>
<!-- Node1&#45;&gt;Node3 -->
<g id="edge2" class="edge">
<title>Node1&#45;&gt;Node3</title>
<path fill="none" stroke="black" d="M120.29,-9.5C128.21,-9.5 137.03,-9.5 145.91,-9.5"/>
<polygon fill="black" stroke="black" points="120.12,-6 110.12,-9.5 120.12,-13 120.12,-6"/>
</g>
</g>
</svg>
