<?xml version="1.0" encoding="UTF-8" standalone="no"?>
<!DOCTYPE svg PUBLIC "-//W3C//DTD SVG 1.1//EN"
 "http://www.w3.org/Graphics/SVG/1.1/DTD/svg11.dtd">
<!-- Generated by graphviz version 2.43.0 (0)
 -->
<!-- Title: _jsmnroot Pages: 1 -->
<svg width="108pt" height="95pt"
 viewBox="0.00 0.00 107.50 95.00" xmlns="http://www.w3.org/2000/svg" xmlns:xlink="http://www.w3.org/1999/xlink">
<g id="graph0" class="graph" transform="scale(1 1) rotate(0) translate(4 91)">
<title>_jsmnroot</title>
<!-- Node1 -->
<g id="node1" class="node">
<title>Node1</title>
<g id="a_node1"><a xlink:title=" ">
<polygon fill="#bfbfbf" stroke="black" points="0,-0.5 0,-19.5 65,-19.5 65,-0.5 0,-0.5"/>
<text text-anchor="middle" x="32.5" y="-7.5" font-family="Helvetica,sans-Serif" font-size="10.00">_jsmnroot</text>
</a>
</g>
</g>
<!-- Node2 -->
<g id="node2" class="node">
<title>Node2</title>
<g id="a_node2"><a xlink:href="../../d0/d8e/structjsmnf.html" target="_top" xlink:title="store key/value jsmn tokens in a hashtable">
<polygon fill="none" stroke="black" points="10.5,-67.5 10.5,-86.5 54.5,-86.5 54.5,-67.5 10.5,-67.5"/>
<text text-anchor="middle" x="32.5" y="-74.5" font-family="Helvetica,sans-Serif" font-size="10.00">jsmnf</text>
</a>
</g>
</g>
<!-- Node2&#45;&gt;Node1 -->
<g id="edge1" class="edge">
<title>Node2&#45;&gt;Node1</title>
<path fill="none" stroke="#9a32cd" stroke-dasharray="5,2" d="M32.5,-57.04C32.5,-44.67 32.5,-29.12 32.5,-19.63"/>
<polygon fill="#9a32cd" stroke="#9a32cd" points="29,-57.23 32.5,-67.23 36,-57.23 29,-57.23"/>
<text text-anchor="middle" x="44" y="-41" font-family="Helvetica,sans-Serif" font-size="10.00"> root</text>
</g>
<!-- Node2&#45;&gt;Node2 -->
<g id="edge2" class="edge">
<title>Node2&#45;&gt;Node2</title>
<path fill="none" stroke="#9a32cd" stroke-dasharray="5,2" d="M64.9,-82.37C69.45,-81.49 72.5,-79.7 72.5,-77 72.5,-72.56 64.3,-70.59 54.71,-71.07"/>
<polygon fill="#9a32cd" stroke="#9a32cd" points="64.51,-78.89 54.71,-82.93 64.89,-85.88 64.51,-78.89"/>
<text text-anchor="middle" x="86" y="-74.5" font-family="Helvetica,sans-Serif" font-size="10.00"> child</text>
</g>
</g>
</svg>
