<?xml version="1.0" encoding="UTF-8" standalone="no"?>
<!DOCTYPE svg PUBLIC "-//W3C//DTD SVG 1.1//EN"
 "http://www.w3.org/Graphics/SVG/1.1/DTD/svg11.dtd">
<!-- Generated by graphviz version 2.43.0 (0)
 -->
<!-- Title: docs/api/application_commands.h Pages: 1 -->
<svg width="648pt" height="151pt"
 viewBox="0.00 0.00 648.38 151.00" xmlns="http://www.w3.org/2000/svg" xmlns:xlink="http://www.w3.org/1999/xlink">
<g id="graph0" class="graph" transform="scale(1 1) rotate(0) translate(4 147)">
<title>docs/api/application_commands.h</title>
<!-- Node1 -->
<g id="node1" class="node">
<title>Node1</title>
<g id="a_node1"><a xlink:title="Generated code.">
<polygon fill="#bfbfbf" stroke="black" points="227.38,-112.5 227.38,-142.5 341.38,-142.5 341.38,-112.5 227.38,-112.5"/>
<text text-anchor="start" x="235.38" y="-130.5" font-family="Helvetica,sans-Serif" font-size="10.00">docs/api/application</text>
<text text-anchor="middle" x="284.38" y="-119.5" font-family="Helvetica,sans-Serif" font-size="10.00">_commands.h</text>
</a>
</g>
</g>
<!-- Node2 -->
<g id="node2" class="node">
<title>Node2</title>
<g id="a_node2"><a xlink:title=" ">
<polygon fill="none" stroke="#bfbfbf" points="370.38,-0.5 370.38,-19.5 426.38,-19.5 426.38,-0.5 370.38,-0.5"/>
<text text-anchor="middle" x="398.38" y="-7.5" font-family="Helvetica,sans-Serif" font-size="10.00">stddef.h</text>
</a>
</g>
</g>
<!-- Node1&#45;&gt;Node2 -->
<g id="edge1" class="edge">
<title>Node1&#45;&gt;Node2</title>
<path fill="none" stroke="midnightblue" d="M227.3,-124.54C153.8,-120.68 32.22,-109.31 4.38,-76 -1.32,-69.18 -1.53,-62.63 4.38,-56 27.83,-29.72 265.5,-16.7 359.97,-12.54"/>
<polygon fill="midnightblue" stroke="midnightblue" points="360.39,-16.02 370.23,-12.09 360.09,-9.03 360.39,-16.02"/>
</g>
<!-- Node3 -->
<g id="node3" class="node">
<title>Node3</title>
<g id="a_node3"><a xlink:title=" ">
<polygon fill="none" stroke="#bfbfbf" points="13.38,-56.5 13.38,-75.5 75.38,-75.5 75.38,-56.5 13.38,-56.5"/>
<text text-anchor="middle" x="44.38" y="-63.5" font-family="Helvetica,sans-Serif" font-size="10.00">stdbool.h</text>
</a>
</g>
</g>
<!-- Node1&#45;&gt;Node3 -->
<g id="edge2" class="edge">
<title>Node1&#45;&gt;Node3</title>
<path fill="none" stroke="midnightblue" d="M227.81,-112.47C184.08,-101.63 124.59,-86.88 85.37,-77.16"/>
<polygon fill="midnightblue" stroke="midnightblue" points="86.16,-73.75 75.61,-74.74 84.47,-80.54 86.16,-73.75"/>
</g>
<!-- Node4 -->
<g id="node4" class="node">
<title>Node4</title>
<g id="a_node4"><a xlink:title=" ">
<polygon fill="none" stroke="#bfbfbf" points="93.88,-56.5 93.88,-75.5 158.88,-75.5 158.88,-56.5 93.88,-56.5"/>
<text text-anchor="middle" x="126.38" y="-63.5" font-family="Helvetica,sans-Serif" font-size="10.00">inttypes.h</text>
</a>
</g>
</g>
<!-- Node1&#45;&gt;Node4 -->
<g id="edge3" class="edge">
<title>Node1&#45;&gt;Node4</title>
<path fill="none" stroke="midnightblue" d="M246.94,-112.4C220.19,-102.33 184.56,-88.91 158.98,-79.28"/>
<polygon fill="midnightblue" stroke="midnightblue" points="159.97,-75.91 149.37,-75.66 157.5,-82.46 159.97,-75.91"/>
</g>
<!-- Node5 -->
<g id="node5" class="node">
<title>Node5</title>
<g id="a_node5"><a xlink:href="carray_8h.html" target="_top" xlink:title=" ">
<polygon fill="none" stroke="black" points="176.88,-56.5 176.88,-75.5 231.88,-75.5 231.88,-56.5 176.88,-56.5"/>
<text text-anchor="middle" x="204.38" y="-63.5" font-family="Helvetica,sans-Serif" font-size="10.00">carray.h</text>
</a>
</g>
</g>
<!-- Node1&#45;&gt;Node5 -->
<g id="edge4" class="edge">
<title>Node1&#45;&gt;Node5</title>
<path fill="none" stroke="midnightblue" d="M265.43,-112.4C252.96,-103.13 236.69,-91.03 224.08,-81.65"/>
<polygon fill="midnightblue" stroke="midnightblue" points="226.14,-78.82 216.02,-75.66 221.96,-84.43 226.14,-78.82"/>
</g>
<!-- Node6 -->
<g id="node6" class="node">
<title>Node6</title>
<g id="a_node6"><a xlink:href="cog-utils_8h.html" target="_top" xlink:title=" ">
<polygon fill="none" stroke="red" points="250.38,-56.5 250.38,-75.5 318.38,-75.5 318.38,-56.5 250.38,-56.5"/>
<text text-anchor="middle" x="284.38" y="-63.5" font-family="Helvetica,sans-Serif" font-size="10.00">cog&#45;utils.h</text>
</a>
</g>
</g>
<!-- Node1&#45;&gt;Node6 -->
<g id="edge5" class="edge">
<title>Node1&#45;&gt;Node6</title>
<path fill="none" stroke="midnightblue" d="M284.38,-112.4C284.38,-104.47 284.38,-94.46 284.38,-85.86"/>
<polygon fill="midnightblue" stroke="midnightblue" points="287.88,-85.66 284.38,-75.66 280.88,-85.66 287.88,-85.66"/>
</g>
<!-- Node9 -->
<g id="node7" class="node">
<title>Node9</title>
<g id="a_node7"><a xlink:href="types_8h.html" target="_top" xlink:title=" ">
<polygon fill="none" stroke="red" points="336.88,-56.5 336.88,-75.5 389.88,-75.5 389.88,-56.5 336.88,-56.5"/>
<text text-anchor="middle" x="363.38" y="-63.5" font-family="Helvetica,sans-Serif" font-size="10.00">types.h</text>
</a>
</g>
</g>
<!-- Node1&#45;&gt;Node9 -->
<g id="edge6" class="edge">
<title>Node1&#45;&gt;Node9</title>
<path fill="none" stroke="midnightblue" d="M303.11,-112.4C315.3,-103.22 331.18,-91.26 343.58,-81.92"/>
<polygon fill="midnightblue" stroke="midnightblue" points="346.01,-84.47 351.89,-75.66 341.8,-78.88 346.01,-84.47"/>
</g>
<!-- Node10 -->
<g id="node8" class="node">
<title>Node10</title>
<g id="a_node8"><a xlink:href="jsmn_8h.html" target="_top" xlink:title=" ">
<polygon fill="none" stroke="black" points="408.38,-56.5 408.38,-75.5 458.38,-75.5 458.38,-56.5 408.38,-56.5"/>
<text text-anchor="middle" x="433.38" y="-63.5" font-family="Helvetica,sans-Serif" font-size="10.00">jsmn.h</text>
</a>
</g>
</g>
<!-- Node1&#45;&gt;Node10 -->
<g id="edge8" class="edge">
<title>Node1&#45;&gt;Node10</title>
<path fill="none" stroke="midnightblue" d="M319.7,-112.4C344.81,-102.37 378.22,-89.03 402.32,-79.4"/>
<polygon fill="midnightblue" stroke="midnightblue" points="403.71,-82.62 411.7,-75.66 401.12,-76.12 403.71,-82.62"/>
</g>
<!-- Node11 -->
<g id="node9" class="node">
<title>Node11</title>
<g id="a_node9"><a xlink:href="jsmn-find_8h.html" target="_top" xlink:title=" ">
<polygon fill="none" stroke="red" points="476.88,-56.5 476.88,-75.5 547.88,-75.5 547.88,-56.5 476.88,-56.5"/>
<text text-anchor="middle" x="512.38" y="-63.5" font-family="Helvetica,sans-Serif" font-size="10.00">jsmn&#45;find.h</text>
</a>
</g>
</g>
<!-- Node1&#45;&gt;Node11 -->
<g id="edge10" class="edge">
<title>Node1&#45;&gt;Node11</title>
<path fill="none" stroke="midnightblue" d="M338.13,-112.47C378.32,-101.99 432.54,-87.84 469.77,-78.12"/>
<polygon fill="midnightblue" stroke="midnightblue" points="471,-81.42 479.79,-75.51 469.23,-74.64 471,-81.42"/>
</g>
<!-- Node15 -->
<g id="node10" class="node">
<title>Node15</title>
<g id="a_node10"><a xlink:href="json-build_8h.html" target="_top" xlink:title=" ">
<polygon fill="none" stroke="red" points="566.38,-56.5 566.38,-75.5 640.38,-75.5 640.38,-56.5 566.38,-56.5"/>
<text text-anchor="middle" x="603.38" y="-63.5" font-family="Helvetica,sans-Serif" font-size="10.00">json&#45;build.h</text>
</a>
</g>
</g>
<!-- Node1&#45;&gt;Node15 -->
<g id="edge11" class="edge">
<title>Node1&#45;&gt;Node15</title>
<path fill="none" stroke="midnightblue" d="M341.41,-116.13C394.39,-106.45 475.79,-91.48 555.96,-76.26"/>
<polygon fill="midnightblue" stroke="midnightblue" points="557.06,-79.61 566.23,-74.3 555.76,-72.73 557.06,-79.61"/>
</g>
<!-- Node9&#45;&gt;Node2 -->
<g id="edge7" class="edge">
<title>Node9&#45;&gt;Node2</title>
<path fill="none" stroke="midnightblue" d="M369.16,-56.08C374.06,-48.53 381.21,-37.49 387.22,-28.23"/>
<polygon fill="midnightblue" stroke="midnightblue" points="390.21,-30.05 392.71,-19.75 384.34,-26.24 390.21,-30.05"/>
</g>
<!-- Node10&#45;&gt;Node2 -->
<g id="edge9" class="edge">
<title>Node10&#45;&gt;Node2</title>
<path fill="none" stroke="midnightblue" d="M427.6,-56.08C422.71,-48.53 415.56,-37.49 409.55,-28.23"/>
<polygon fill="midnightblue" stroke="midnightblue" points="412.43,-26.24 404.06,-19.75 406.56,-30.05 412.43,-26.24"/>
</g>
<!-- Node15&#45;&gt;Node2 -->
<g id="edge12" class="edge">
<title>Node15&#45;&gt;Node2</title>
<path fill="none" stroke="midnightblue" d="M570.9,-56.44C534.32,-46.81 474.94,-31.17 436.27,-20.98"/>
<polygon fill="midnightblue" stroke="midnightblue" points="436.99,-17.55 426.43,-18.39 435.21,-24.32 436.99,-17.55"/>
</g>
</g>
</svg>
