<?xml version="1.0" encoding="UTF-8" standalone="no"?>
<!DOCTYPE svg PUBLIC "-//W3C//DTD SVG 1.1//EN"
 "http://www.w3.org/Graphics/SVG/1.1/DTD/svg11.dtd">
<!-- Generated by graphviz version 2.43.0 (0)
 -->
<!-- Title: core/attributes.h Pages: 1 -->
<svg width="346pt" height="140pt"
 viewBox="0.00 0.00 346.00 140.00" xmlns="http://www.w3.org/2000/svg" xmlns:xlink="http://www.w3.org/1999/xlink">
<g id="graph0" class="graph" transform="scale(1 1) rotate(0) translate(4 136)">
<title>core/attributes.h</title>
<!-- Node1 -->
<g id="node1" class="node">
<title>Node1</title>
<g id="a_node1"><a xlink:title=" ">
<polygon fill="#bfbfbf" stroke="black" points="106.5,-112.5 106.5,-131.5 203.5,-131.5 203.5,-112.5 106.5,-112.5"/>
<text text-anchor="middle" x="155" y="-119.5" font-family="Helvetica,sans-Serif" font-size="10.00">core/attributes.h</text>
</a>
</g>
</g>
<!-- Node2 -->
<g id="node2" class="node">
<title>Node2</title>
<g id="a_node2"><a xlink:href="cog-utils_8h.html" target="_top" xlink:title=" ">
<polygon fill="none" stroke="red" points="0,-56.5 0,-75.5 92,-75.5 92,-56.5 0,-56.5"/>
<text text-anchor="middle" x="46" y="-63.5" font-family="Helvetica,sans-Serif" font-size="10.00">core/cog&#45;utils.h</text>
</a>
</g>
</g>
<!-- Node1&#45;&gt;Node2 -->
<g id="edge1" class="edge">
<title>Node1&#45;&gt;Node2</title>
<path fill="none" stroke="midnightblue" d="M128.48,-107.86C108.27,-97.85 81.01,-84.35 63.47,-75.65"/>
<polygon fill="midnightblue" stroke="midnightblue" points="126.97,-111.02 137.49,-112.32 130.08,-104.75 126.97,-111.02"/>
</g>
<!-- Node26 -->
<g id="node3" class="node">
<title>Node26</title>
<g id="a_node3"><a xlink:href="discord-internal_8h.html" target="_top" xlink:title="Internal functions and datatypes.">
<polygon fill="none" stroke="black" points="50,-0.5 50,-19.5 190,-19.5 190,-0.5 50,-0.5"/>
<text text-anchor="middle" x="120" y="-7.5" font-family="Helvetica,sans-Serif" font-size="10.00">include/discord&#45;internal.h</text>
</a>
</g>
</g>
<!-- Node1&#45;&gt;Node26 -->
<g id="edge6" class="edge">
<title>Node1&#45;&gt;Node26</title>
<path fill="none" stroke="midnightblue" d="M148.82,-102.78C146.07,-94.61 142.83,-84.83 140,-76 133.59,-55.99 126.42,-32.38 122.65,-19.85"/>
<polygon fill="midnightblue" stroke="midnightblue" points="145.55,-104.04 152.06,-112.39 152.18,-101.8 145.55,-104.04"/>
</g>
<!-- Node27 -->
<g id="node4" class="node">
<title>Node27</title>
<g id="a_node4"><a xlink:href="logconf_8h.html" target="_top" xlink:title=" ">
<polygon fill="none" stroke="red" points="148.5,-56.5 148.5,-75.5 233.5,-75.5 233.5,-56.5 148.5,-56.5"/>
<text text-anchor="middle" x="191" y="-63.5" font-family="Helvetica,sans-Serif" font-size="10.00">core/logconf.h</text>
</a>
</g>
</g>
<!-- Node1&#45;&gt;Node27 -->
<g id="edge3" class="edge">
<title>Node1&#45;&gt;Node27</title>
<path fill="none" stroke="midnightblue" d="M166.62,-103.57C172.82,-94.27 180.17,-83.25 185.17,-75.75"/>
<polygon fill="midnightblue" stroke="midnightblue" points="163.58,-101.82 160.94,-112.08 169.4,-105.7 163.58,-101.82"/>
</g>
<!-- Node29 -->
<g id="node5" class="node">
<title>Node29</title>
<g id="a_node5"><a xlink:href="queriec_8h.html" target="_top" xlink:title=" ">
<polygon fill="none" stroke="black" points="252,-56.5 252,-75.5 338,-75.5 338,-56.5 252,-56.5"/>
<text text-anchor="middle" x="295" y="-63.5" font-family="Helvetica,sans-Serif" font-size="10.00">core/queriec.h</text>
</a>
</g>
</g>
<!-- Node1&#45;&gt;Node29 -->
<g id="edge5" class="edge">
<title>Node1&#45;&gt;Node29</title>
<path fill="none" stroke="midnightblue" d="M186.7,-108.77C213,-98.63 249.72,-84.47 272.92,-75.52"/>
<polygon fill="midnightblue" stroke="midnightblue" points="185.25,-105.58 177.18,-112.44 187.77,-112.11 185.25,-105.58"/>
</g>
<!-- Node2&#45;&gt;Node26 -->
<g id="edge2" class="edge">
<title>Node2&#45;&gt;Node26</title>
<path fill="none" stroke="midnightblue" d="M66.03,-50.38C79.41,-40.62 96.56,-28.11 107.89,-19.83"/>
<polygon fill="midnightblue" stroke="midnightblue" points="63.9,-47.6 57.89,-56.32 68.03,-53.26 63.9,-47.6"/>
</g>
<!-- Node27&#45;&gt;Node26 -->
<g id="edge4" class="edge">
<title>Node27&#45;&gt;Node26</title>
<path fill="none" stroke="midnightblue" d="M171.41,-50.1C158.63,-40.38 142.39,-28.03 131.61,-19.83"/>
<polygon fill="midnightblue" stroke="midnightblue" points="169.51,-53.06 179.59,-56.32 173.75,-47.48 169.51,-53.06"/>
</g>
</g>
</svg>
