<?xml version="1.0" encoding="UTF-8" standalone="no"?>
<!DOCTYPE svg PUBLIC "-//W3C//DTD SVG 1.1//EN"
 "http://www.w3.org/Graphics/SVG/1.1/DTD/svg11.dtd">
<!-- Generated by graphviz version 2.43.0 (0)
 -->
<!-- Title: core/carray.h Pages: 1 -->
<svg width="3139pt" height="95pt"
 viewBox="0.00 0.00 3139.00 95.00" xmlns="http://www.w3.org/2000/svg" xmlns:xlink="http://www.w3.org/1999/xlink">
<g id="graph0" class="graph" transform="scale(1 1) rotate(0) translate(4 91)">
<title>core/carray.h</title>
<!-- Node1 -->
<g id="node1" class="node">
<title>Node1</title>
<g id="a_node1"><a xlink:title=" ">
<polygon fill="#bfbfbf" stroke="black" points="1521,-67.5 1521,-86.5 1600,-86.5 1600,-67.5 1521,-67.5"/>
<text text-anchor="middle" x="1560.5" y="-74.5" font-family="Helvetica,sans-Serif" font-size="10.00">core/carray.h</text>
</a>
</g>
</g>
<!-- Node2 -->
<g id="node2" class="node">
<title>Node2</title>
<g id="a_node2"><a xlink:href="application_8h.html" target="_top" xlink:title="Generated code.">
<polygon fill="none" stroke="black" points="0,-6 0,-25 123,-25 123,-6 0,-6"/>
<text text-anchor="middle" x="61.5" y="-13" font-family="Helvetica,sans-Serif" font-size="10.00">docs/api/application.h</text>
</a>
</g>
</g>
<!-- Node1&#45;&gt;Node2 -->
<g id="edge1" class="edge">
<title>Node1&#45;&gt;Node2</title>
<path fill="none" stroke="midnightblue" d="M1510.51,-75.56C1290.56,-73.48 407.76,-63.21 132.5,-31 121,-29.65 108.6,-27.4 97.43,-25.07"/>
<polygon fill="midnightblue" stroke="midnightblue" points="1510.74,-79.07 1520.77,-75.66 1510.81,-72.07 1510.74,-79.07"/>
</g>
<!-- Node3 -->
<g id="node3" class="node">
<title>Node3</title>
<g id="a_node3"><a xlink:href="application__commands_8h.html" target="_top" xlink:title="Generated code.">
<polygon fill="none" stroke="black" points="141.5,-0.5 141.5,-30.5 255.5,-30.5 255.5,-0.5 141.5,-0.5"/>
<text text-anchor="start" x="149.5" y="-18.5" font-family="Helvetica,sans-Serif" font-size="10.00">docs/api/application</text>
<text text-anchor="middle" x="198.5" y="-7.5" font-family="Helvetica,sans-Serif" font-size="10.00">_commands.h</text>
</a>
</g>
</g>
<!-- Node1&#45;&gt;Node3 -->
<g id="edge2" class="edge">
<title>Node1&#45;&gt;Node3</title>
<path fill="none" stroke="midnightblue" d="M1510.47,-75.48C1303.32,-73.13 512.18,-62.24 264.5,-31 261.59,-30.63 258.62,-30.2 255.63,-29.72"/>
<polygon fill="midnightblue" stroke="midnightblue" points="1510.7,-78.98 1520.74,-75.59 1510.78,-71.98 1510.7,-78.98"/>
</g>
<!-- Node4 -->
<g id="node4" class="node">
<title>Node4</title>
<g id="a_node4"><a xlink:href="docs_2api_2audit__log_8h.html" target="_top" xlink:title="Generated code.">
<polygon fill="none" stroke="black" points="273.5,-6 273.5,-25 387.5,-25 387.5,-6 273.5,-6"/>
<text text-anchor="middle" x="330.5" y="-13" font-family="Helvetica,sans-Serif" font-size="10.00">docs/api/audit_log.h</text>
</a>
</g>
</g>
<!-- Node1&#45;&gt;Node4 -->
<g id="edge3" class="edge">
<title>Node1&#45;&gt;Node4</title>
<path fill="none" stroke="midnightblue" d="M1510.56,-75.25C1317.12,-72.17 616.98,-59.25 396.5,-31 385.79,-29.63 374.26,-27.37 363.87,-25.04"/>
<polygon fill="midnightblue" stroke="midnightblue" points="1510.66,-78.75 1520.72,-75.41 1510.77,-71.75 1510.66,-78.75"/>
</g>
<!-- Node5 -->
<g id="node5" class="node">
<title>Node5</title>
<g id="a_node5"><a xlink:href="docs_2api_2auto__moderation_8h.html" target="_top" xlink:title="Generated code.">
<polygon fill="none" stroke="black" points="405.5,-6 405.5,-25 557.5,-25 557.5,-6 405.5,-6"/>
<text text-anchor="middle" x="481.5" y="-13" font-family="Helvetica,sans-Serif" font-size="10.00">docs/api/auto_moderation.h</text>
</a>
</g>
</g>
<!-- Node1&#45;&gt;Node5 -->
<g id="edge4" class="edge">
<title>Node1&#45;&gt;Node5</title>
<path fill="none" stroke="midnightblue" d="M1510.17,-75.92C1363.96,-75.2 926.76,-69.73 566.5,-31 553.1,-29.56 538.62,-27.34 525.47,-25.07"/>
<polygon fill="midnightblue" stroke="midnightblue" points="1510.58,-79.42 1520.59,-75.96 1510.61,-72.42 1510.58,-79.42"/>
</g>
<!-- Node6 -->
<g id="node6" class="node">
<title>Node6</title>
<g id="a_node6"><a xlink:href="docs_2api_2channel_8h.html" target="_top" xlink:title="Generated code.">
<polygon fill="none" stroke="black" points="576,-6 576,-25 683,-25 683,-6 576,-6"/>
<text text-anchor="middle" x="629.5" y="-13" font-family="Helvetica,sans-Serif" font-size="10.00">docs/api/channel.h</text>
</a>
</g>
</g>
<!-- Node1&#45;&gt;Node6 -->
<g id="edge5" class="edge">
<title>Node1&#45;&gt;Node6</title>
<path fill="none" stroke="midnightblue" d="M1510.54,-76.51C1376.94,-77.21 1000.61,-74.79 691.5,-31 681.54,-29.59 670.83,-27.35 661.15,-25.05"/>
<polygon fill="midnightblue" stroke="midnightblue" points="1510.87,-80.01 1520.85,-76.45 1510.83,-73.01 1510.87,-80.01"/>
</g>
<!-- Node7 -->
<g id="node7" class="node">
<title>Node7</title>
<g id="a_node7"><a xlink:href="custom_8h.html" target="_top" xlink:title="Generated code.">
<polygon fill="none" stroke="black" points="701,-6 701,-25 806,-25 806,-6 701,-6"/>
<text text-anchor="middle" x="753.5" y="-13" font-family="Helvetica,sans-Serif" font-size="10.00">docs/api/custom.h</text>
</a>
</g>
</g>
<!-- Node1&#45;&gt;Node7 -->
<g id="edge6" class="edge">
<title>Node1&#45;&gt;Node7</title>
<path fill="none" stroke="midnightblue" d="M1510.6,-75.96C1390.21,-75.23 1074.54,-69.45 814.5,-31 804.7,-29.55 794.16,-27.3 784.64,-25"/>
<polygon fill="midnightblue" stroke="midnightblue" points="1510.6,-79.46 1520.62,-76.01 1510.64,-72.46 1510.6,-79.46"/>
</g>
<!-- Node8 -->
<g id="node8" class="node">
<title>Node8</title>
<g id="a_node8"><a xlink:href="docs_2api_2emoji_8h.html" target="_top" xlink:title="Generated code.">
<polygon fill="none" stroke="black" points="824,-6 824,-25 921,-25 921,-6 824,-6"/>
<text text-anchor="middle" x="872.5" y="-13" font-family="Helvetica,sans-Serif" font-size="10.00">docs/api/emoji.h</text>
</a>
</g>
</g>
<!-- Node1&#45;&gt;Node8 -->
<g id="edge7" class="edge">
<title>Node1&#45;&gt;Node8</title>
<path fill="none" stroke="midnightblue" d="M1510.62,-75.37C1403.65,-73.38 1144.55,-65.13 930.5,-31 921.28,-29.53 911.37,-27.3 902.4,-25.03"/>
<polygon fill="midnightblue" stroke="midnightblue" points="1510.73,-78.87 1520.79,-75.55 1510.85,-71.88 1510.73,-78.87"/>
</g>
<!-- Node9 -->
<g id="node9" class="node">
<title>Node9</title>
<g id="a_node9"><a xlink:href="docs_2api_2gateway_8h.html" target="_top" xlink:title="Generated code.">
<polygon fill="none" stroke="black" points="939.5,-6 939.5,-25 1049.5,-25 1049.5,-6 939.5,-6"/>
<text text-anchor="middle" x="994.5" y="-13" font-family="Helvetica,sans-Serif" font-size="10.00">docs/api/gateway.h</text>
</a>
</g>
</g>
<!-- Node1&#45;&gt;Node9 -->
<g id="edge8" class="edge">
<title>Node1&#45;&gt;Node9</title>
<path fill="none" stroke="midnightblue" d="M1510.67,-73.74C1420.16,-69.14 1222.92,-56.88 1058.5,-31 1048.6,-29.44 1037.94,-27.24 1028.22,-25.02"/>
<polygon fill="midnightblue" stroke="midnightblue" points="1510.74,-77.25 1520.91,-74.25 1511.09,-70.26 1510.74,-77.25"/>
</g>
<!-- Node10 -->
<g id="node10" class="node">
<title>Node10</title>
<g id="a_node10"><a xlink:href="docs_2api_2guild_8h.html" target="_top" xlink:title="Generated code.">
<polygon fill="none" stroke="black" points="1068,-6 1068,-25 1161,-25 1161,-6 1068,-6"/>
<text text-anchor="middle" x="1114.5" y="-13" font-family="Helvetica,sans-Serif" font-size="10.00">docs/api/guild.h</text>
</a>
</g>
</g>
<!-- Node1&#45;&gt;Node10 -->
<g id="edge9" class="edge">
<title>Node1&#45;&gt;Node10</title>
<path fill="none" stroke="midnightblue" d="M1510.76,-72.57C1436.15,-66.91 1291.03,-53.89 1169.5,-31 1161.06,-29.41 1152,-27.23 1143.72,-25.04"/>
<polygon fill="midnightblue" stroke="midnightblue" points="1510.58,-76.07 1520.81,-73.32 1511.1,-69.09 1510.58,-76.07"/>
</g>
<!-- Node11 -->
<g id="node11" class="node">
<title>Node11</title>
<g id="a_node11"><a xlink:href="docs_2api_2guild__scheduled__event_8h.html" target="_top" xlink:title="Generated code.">
<polygon fill="none" stroke="black" points="1179,-0.5 1179,-30.5 1318,-30.5 1318,-0.5 1179,-0.5"/>
<text text-anchor="start" x="1187" y="-18.5" font-family="Helvetica,sans-Serif" font-size="10.00">docs/api/guild_scheduled</text>
<text text-anchor="middle" x="1248.5" y="-7.5" font-family="Helvetica,sans-Serif" font-size="10.00">_event.h</text>
</a>
</g>
</g>
<!-- Node1&#45;&gt;Node11 -->
<g id="edge10" class="edge">
<title>Node1&#45;&gt;Node11</title>
<path fill="none" stroke="midnightblue" d="M1511,-66.56C1459,-56.64 1376.79,-40.97 1318.24,-29.8"/>
<polygon fill="midnightblue" stroke="midnightblue" points="1510.51,-70.03 1520.98,-68.46 1511.82,-63.15 1510.51,-70.03"/>
</g>
<!-- Node12 -->
<g id="node12" class="node">
<title>Node12</title>
<g id="a_node12"><a xlink:href="docs_2api_2guild__template_8h.html" target="_top" xlink:title="Generated code.">
<polygon fill="none" stroke="black" points="1336,-6 1336,-25 1479,-25 1479,-6 1336,-6"/>
<text text-anchor="middle" x="1407.5" y="-13" font-family="Helvetica,sans-Serif" font-size="10.00">docs/api/guild_template.h</text>
</a>
</g>
</g>
<!-- Node1&#45;&gt;Node12 -->
<g id="edge11" class="edge">
<title>Node1&#45;&gt;Node12</title>
<path fill="none" stroke="midnightblue" d="M1529.08,-63.78C1499.35,-52.22 1455.49,-35.16 1429.38,-25.01"/>
<polygon fill="midnightblue" stroke="midnightblue" points="1527.99,-67.11 1538.58,-67.48 1530.53,-60.59 1527.99,-67.11"/>
</g>
<!-- Node13 -->
<g id="node13" class="node">
<title>Node13</title>
<g id="a_node13"><a xlink:href="interactions_8h.html" target="_top" xlink:title="Generated code.">
<polygon fill="none" stroke="black" points="1497,-6 1497,-25 1624,-25 1624,-6 1497,-6"/>
<text text-anchor="middle" x="1560.5" y="-13" font-family="Helvetica,sans-Serif" font-size="10.00">docs/api/interactions.h</text>
</a>
</g>
</g>
<!-- Node1&#45;&gt;Node13 -->
<g id="edge12" class="edge">
<title>Node1&#45;&gt;Node13</title>
<path fill="none" stroke="midnightblue" d="M1560.5,-57.32C1560.5,-46.5 1560.5,-33.4 1560.5,-25.01"/>
<polygon fill="midnightblue" stroke="midnightblue" points="1557,-57.48 1560.5,-67.48 1564,-57.48 1557,-57.48"/>
</g>
<!-- Node14 -->
<g id="node14" class="node">
<title>Node14</title>
<g id="a_node14"><a xlink:href="docs_2api_2invite_8h.html" target="_top" xlink:title="Generated code.">
<polygon fill="none" stroke="black" points="1642,-6 1642,-25 1739,-25 1739,-6 1642,-6"/>
<text text-anchor="middle" x="1690.5" y="-13" font-family="Helvetica,sans-Serif" font-size="10.00">docs/api/invite.h</text>
</a>
</g>
</g>
<!-- Node1&#45;&gt;Node14 -->
<g id="edge13" class="edge">
<title>Node1&#45;&gt;Node14</title>
<path fill="none" stroke="midnightblue" d="M1588.52,-63.17C1613.75,-51.63 1650.11,-34.99 1671.91,-25.01"/>
<polygon fill="midnightblue" stroke="midnightblue" points="1586.76,-60.13 1579.13,-67.48 1589.68,-66.5 1586.76,-60.13"/>
</g>
<!-- Node15 -->
<g id="node15" class="node">
<title>Node15</title>
<g id="a_node15"><a xlink:href="message__components_8h.html" target="_top" xlink:title="Generated code.">
<polygon fill="none" stroke="black" points="1757,-6 1757,-25 1936,-25 1936,-6 1757,-6"/>
<text text-anchor="middle" x="1846.5" y="-13" font-family="Helvetica,sans-Serif" font-size="10.00">docs/api/message_components.h</text>
</a>
</g>
</g>
<!-- Node1&#45;&gt;Node15 -->
<g id="edge14" class="edge">
<title>Node1&#45;&gt;Node15</title>
<path fill="none" stroke="midnightblue" d="M1610.18,-65.66C1665.42,-54.17 1753.63,-35.82 1805.22,-25.09"/>
<polygon fill="midnightblue" stroke="midnightblue" points="1609.34,-62.26 1600.27,-67.73 1610.77,-69.12 1609.34,-62.26"/>
</g>
<!-- Node16 -->
<g id="node16" class="node">
<title>Node16</title>
<g id="a_node16"><a xlink:href="docs_2api_2oauth2_8h.html" target="_top" xlink:title="Generated code.">
<polygon fill="none" stroke="black" points="1954,-6 1954,-25 2057,-25 2057,-6 1954,-6"/>
<text text-anchor="middle" x="2005.5" y="-13" font-family="Helvetica,sans-Serif" font-size="10.00">docs/api/oauth2.h</text>
</a>
</g>
</g>
<!-- Node1&#45;&gt;Node16 -->
<g id="edge15" class="edge">
<title>Node1&#45;&gt;Node16</title>
<path fill="none" stroke="midnightblue" d="M1610.45,-72.1C1684.14,-65.91 1826.16,-52.31 1945.5,-31 1954.57,-29.38 1964.32,-27.21 1973.27,-25.05"/>
<polygon fill="midnightblue" stroke="midnightblue" points="1609.76,-68.65 1600.08,-72.96 1610.34,-75.62 1609.76,-68.65"/>
</g>
<!-- Node17 -->
<g id="node17" class="node">
<title>Node17</title>
<g id="a_node17"><a xlink:href="permissions_8h.html" target="_top" xlink:title="Generated code.">
<polygon fill="none" stroke="black" points="2075.5,-6 2075.5,-25 2203.5,-25 2203.5,-6 2075.5,-6"/>
<text text-anchor="middle" x="2139.5" y="-13" font-family="Helvetica,sans-Serif" font-size="10.00">docs/api/permissions.h</text>
</a>
</g>
</g>
<!-- Node1&#45;&gt;Node17 -->
<g id="edge16" class="edge">
<title>Node1&#45;&gt;Node17</title>
<path fill="none" stroke="midnightblue" d="M1610.04,-73.36C1700.88,-68.14 1900.06,-54.86 2066.5,-31 2077.63,-29.4 2089.62,-27.22 2100.61,-25.03"/>
<polygon fill="midnightblue" stroke="midnightblue" points="1609.82,-69.87 1600.03,-73.93 1610.21,-76.86 1609.82,-69.87"/>
</g>
<!-- Node18 -->
<g id="node18" class="node">
<title>Node18</title>
<g id="a_node18"><a xlink:href="docs_2api_2stage__instance_8h.html" target="_top" xlink:title="Generated code.">
<polygon fill="none" stroke="black" points="2222,-6 2222,-25 2365,-25 2365,-6 2222,-6"/>
<text text-anchor="middle" x="2293.5" y="-13" font-family="Helvetica,sans-Serif" font-size="10.00">docs/api/stage_instance.h</text>
</a>
</g>
</g>
<!-- Node1&#45;&gt;Node18 -->
<g id="edge17" class="edge">
<title>Node1&#45;&gt;Node18</title>
<path fill="none" stroke="midnightblue" d="M1610.42,-74.4C1719.83,-70.48 1988.87,-58.65 2212.5,-31 2224.98,-29.46 2238.45,-27.26 2250.75,-25.04"/>
<polygon fill="midnightblue" stroke="midnightblue" points="1610.21,-70.9 1600.33,-74.75 1610.45,-77.9 1610.21,-70.9"/>
</g>
<!-- Node19 -->
<g id="node19" class="node">
<title>Node19</title>
<g id="a_node19"><a xlink:href="docs_2api_2sticker_8h.html" target="_top" xlink:title="Generated code.">
<polygon fill="none" stroke="black" points="2383,-6 2383,-25 2484,-25 2484,-6 2383,-6"/>
<text text-anchor="middle" x="2433.5" y="-13" font-family="Helvetica,sans-Serif" font-size="10.00">docs/api/sticker.h</text>
</a>
</g>
</g>
<!-- Node1&#45;&gt;Node19 -->
<g id="edge18" class="edge">
<title>Node1&#45;&gt;Node19</title>
<path fill="none" stroke="midnightblue" d="M1610.4,-76.45C1738.23,-76.92 2087.55,-73.81 2374.5,-31 2383.99,-29.58 2394.19,-27.34 2403.4,-25.04"/>
<polygon fill="midnightblue" stroke="midnightblue" points="1610.17,-72.95 1600.15,-76.4 1610.14,-79.95 1610.17,-72.95"/>
</g>
<!-- Node20 -->
<g id="node20" class="node">
<title>Node20</title>
<g id="a_node20"><a xlink:href="teams_8h.html" target="_top" xlink:title="Generated code.">
<polygon fill="none" stroke="black" points="2502.5,-6 2502.5,-25 2602.5,-25 2602.5,-6 2502.5,-6"/>
<text text-anchor="middle" x="2552.5" y="-13" font-family="Helvetica,sans-Serif" font-size="10.00">docs/api/teams.h</text>
</a>
</g>
</g>
<!-- Node1&#45;&gt;Node20 -->
<g id="edge19" class="edge">
<title>Node1&#45;&gt;Node20</title>
<path fill="none" stroke="midnightblue" d="M1610.21,-74.87C1777.7,-70.85 2320.6,-56.18 2493.5,-31 2503.1,-29.6 2513.42,-27.34 2522.71,-25.01"/>
<polygon fill="midnightblue" stroke="midnightblue" points="1610.1,-71.37 1600.19,-75.11 1610.27,-78.37 1610.1,-71.37"/>
</g>
<!-- Node21 -->
<g id="node21" class="node">
<title>Node21</title>
<g id="a_node21"><a xlink:href="docs_2api_2user_8h.html" target="_top" xlink:title="Generated code.">
<polygon fill="none" stroke="black" points="2621,-6 2621,-25 2710,-25 2710,-6 2621,-6"/>
<text text-anchor="middle" x="2665.5" y="-13" font-family="Helvetica,sans-Serif" font-size="10.00">docs/api/user.h</text>
</a>
</g>
</g>
<!-- Node1&#45;&gt;Node21 -->
<g id="edge20" class="edge">
<title>Node1&#45;&gt;Node21</title>
<path fill="none" stroke="midnightblue" d="M1610.05,-75.32C1790.84,-72.62 2414.73,-61.25 2611.5,-31 2620.33,-29.64 2629.78,-27.39 2638.28,-25.06"/>
<polygon fill="midnightblue" stroke="midnightblue" points="1609.97,-71.82 1600.03,-75.47 1610.08,-78.82 1609.97,-71.82"/>
</g>
<!-- Node22 -->
<g id="node22" class="node">
<title>Node22</title>
<g id="a_node22"><a xlink:href="docs_2api_2voice_8h.html" target="_top" xlink:title="Generated code.">
<polygon fill="none" stroke="black" points="2728,-6 2728,-25 2823,-25 2823,-6 2728,-6"/>
<text text-anchor="middle" x="2775.5" y="-13" font-family="Helvetica,sans-Serif" font-size="10.00">docs/api/voice.h</text>
</a>
</g>
</g>
<!-- Node1&#45;&gt;Node22 -->
<g id="edge21" class="edge">
<title>Node1&#45;&gt;Node22</title>
<path fill="none" stroke="midnightblue" d="M1610.26,-75.49C1802.99,-73.29 2500.52,-63.22 2719.5,-31 2728.64,-29.66 2738.44,-27.4 2747.25,-25.07"/>
<polygon fill="midnightblue" stroke="midnightblue" points="1610.1,-71.99 1600.14,-75.6 1610.18,-78.99 1610.1,-71.99"/>
</g>
<!-- Node23 -->
<g id="node23" class="node">
<title>Node23</title>
<g id="a_node23"><a xlink:href="voice__connections_8h.html" target="_top" xlink:title="Generated code.">
<polygon fill="none" stroke="black" points="2841,-6 2841,-25 3000,-25 3000,-6 2841,-6"/>
<text text-anchor="middle" x="2920.5" y="-13" font-family="Helvetica,sans-Serif" font-size="10.00">docs/api/voice_connections.h</text>
</a>
</g>
</g>
<!-- Node1&#45;&gt;Node23 -->
<g id="edge22" class="edge">
<title>Node1&#45;&gt;Node23</title>
<path fill="none" stroke="midnightblue" d="M1610.38,-76.52C1781.27,-77.83 2358.68,-78.22 2832.5,-31 2846.52,-29.6 2861.69,-27.37 2875.43,-25.06"/>
<polygon fill="midnightblue" stroke="midnightblue" points="1610.22,-73.02 1600.19,-76.44 1610.16,-80.02 1610.22,-73.02"/>
</g>
<!-- Node24 -->
<g id="node24" class="node">
<title>Node24</title>
<g id="a_node24"><a xlink:href="docs_2api_2webhook_8h.html" target="_top" xlink:title="Generated code.">
<polygon fill="none" stroke="black" points="3018,-6 3018,-25 3131,-25 3131,-6 3018,-6"/>
<text text-anchor="middle" x="3074.5" y="-13" font-family="Helvetica,sans-Serif" font-size="10.00">docs/api/webhook.h</text>
</a>
</g>
</g>
<!-- Node1&#45;&gt;Node24 -->
<g id="edge23" class="edge">
<title>Node1&#45;&gt;Node24</title>
<path fill="none" stroke="midnightblue" d="M1610.18,-75.71C1831.62,-74.24 2730.04,-66.19 3009.5,-31 3020.17,-29.66 3031.66,-27.38 3041.98,-25.02"/>
<polygon fill="midnightblue" stroke="midnightblue" points="1610.13,-72.21 1600.15,-75.78 1610.17,-79.21 1610.13,-72.21"/>
</g>
</g>
</svg>
