<?xml version="1.0" encoding="UTF-8" standalone="no"?>
<!DOCTYPE svg PUBLIC "-//W3C//DTD SVG 1.1//EN"
 "http://www.w3.org/Graphics/SVG/1.1/DTD/svg11.dtd">
<!-- Generated by graphviz version 2.43.0 (0)
 -->
<!-- Title: include/discord&#45;internal.h Pages: 1 -->
<svg width="918pt" height="140pt"
 viewBox="0.00 0.00 917.50 140.00" xmlns="http://www.w3.org/2000/svg" xmlns:xlink="http://www.w3.org/1999/xlink">
<g id="graph0" class="graph" transform="scale(1 1) rotate(0) translate(4 136)">
<title>include/discord&#45;internal.h</title>
<!-- Node1 -->
<g id="node1" class="node">
<title>Node1</title>
<g id="a_node1"><a xlink:title="Internal functions and datatypes.">
<polygon fill="#bfbfbf" stroke="black" points="338.5,-112.5 338.5,-131.5 478.5,-131.5 478.5,-112.5 338.5,-112.5"/>
<text text-anchor="middle" x="408.5" y="-119.5" font-family="Helvetica,sans-Serif" font-size="10.00">include/discord&#45;internal.h</text>
</a>
</g>
</g>
<!-- Node2 -->
<g id="node2" class="node">
<title>Node2</title>
<g id="a_node2"><a xlink:title=" ">
<polygon fill="none" stroke="#bfbfbf" points="0,-56.5 0,-75.5 63,-75.5 63,-56.5 0,-56.5"/>
<text text-anchor="middle" x="31.5" y="-63.5" font-family="Helvetica,sans-Serif" font-size="10.00">pthread.h</text>
</a>
</g>
</g>
<!-- Node1&#45;&gt;Node2 -->
<g id="edge1" class="edge">
<title>Node1&#45;&gt;Node2</title>
<path fill="none" stroke="midnightblue" d="M338.42,-113.33C272.53,-105.73 170.95,-93.01 73.28,-76.01"/>
<polygon fill="midnightblue" stroke="midnightblue" points="73.69,-72.52 63.23,-74.24 72.48,-79.42 73.69,-72.52"/>
</g>
<!-- Node3 -->
<g id="node3" class="node">
<title>Node3</title>
<g id="a_node3"><a xlink:title=" ">
<polygon fill="none" stroke="#bfbfbf" points="81.5,-56.5 81.5,-75.5 155.5,-75.5 155.5,-56.5 81.5,-56.5"/>
<text text-anchor="middle" x="118.5" y="-63.5" font-family="Helvetica,sans-Serif" font-size="10.00">json&#45;build.h</text>
</a>
</g>
</g>
<!-- Node1&#45;&gt;Node3 -->
<g id="edge2" class="edge">
<title>Node1&#45;&gt;Node3</title>
<path fill="none" stroke="midnightblue" d="M361.24,-112.44C314.18,-103.88 239.6,-90.22 165.61,-76.2"/>
<polygon fill="midnightblue" stroke="midnightblue" points="166.13,-72.73 155.65,-74.3 164.82,-79.61 166.13,-72.73"/>
</g>
<!-- Node4 -->
<g id="node4" class="node">
<title>Node4</title>
<g id="a_node4"><a xlink:title=" ">
<polygon fill="none" stroke="#bfbfbf" points="173.5,-56.5 173.5,-75.5 223.5,-75.5 223.5,-56.5 173.5,-56.5"/>
<text text-anchor="middle" x="198.5" y="-63.5" font-family="Helvetica,sans-Serif" font-size="10.00">jsmn.h</text>
</a>
</g>
</g>
<!-- Node1&#45;&gt;Node4 -->
<g id="edge3" class="edge">
<title>Node1&#45;&gt;Node4</title>
<path fill="none" stroke="midnightblue" d="M375.22,-112.44C336.5,-102.49 272.84,-86.12 233.42,-75.98"/>
<polygon fill="midnightblue" stroke="midnightblue" points="234.27,-72.58 223.71,-73.48 232.52,-79.36 234.27,-72.58"/>
</g>
<!-- Node5 -->
<g id="node5" class="node">
<title>Node5</title>
<g id="a_node5"><a xlink:title=" ">
<polygon fill="none" stroke="#bfbfbf" points="242,-56.5 242,-75.5 313,-75.5 313,-56.5 242,-56.5"/>
<text text-anchor="middle" x="277.5" y="-63.5" font-family="Helvetica,sans-Serif" font-size="10.00">jsmn&#45;find.h</text>
</a>
</g>
</g>
<!-- Node1&#45;&gt;Node5 -->
<g id="edge4" class="edge">
<title>Node1&#45;&gt;Node5</title>
<path fill="none" stroke="midnightblue" d="M387.74,-112.44C366.18,-103.56 332.24,-89.56 307.71,-79.45"/>
<polygon fill="midnightblue" stroke="midnightblue" points="308.74,-76.09 298.16,-75.52 306.07,-82.56 308.74,-76.09"/>
</g>
<!-- Node6 -->
<g id="node6" class="node">
<title>Node6</title>
<g id="a_node6"><a xlink:title=" ">
<polygon fill="none" stroke="#bfbfbf" points="394,-0.5 394,-19.5 455,-19.5 455,-0.5 394,-0.5"/>
<text text-anchor="middle" x="424.5" y="-7.5" font-family="Helvetica,sans-Serif" font-size="10.00">logconf.h</text>
</a>
</g>
</g>
<!-- Node1&#45;&gt;Node6 -->
<g id="edge5" class="edge">
<title>Node1&#45;&gt;Node6</title>
<path fill="none" stroke="midnightblue" d="M394.03,-112.34C376.08,-100.42 349.12,-77.91 360.5,-56 367.65,-42.23 381.17,-31.78 393.95,-24.44"/>
<polygon fill="midnightblue" stroke="midnightblue" points="395.82,-27.41 403.02,-19.64 392.54,-21.23 395.82,-27.41"/>
</g>
<!-- Node7 -->
<g id="node7" class="node">
<title>Node7</title>
<g id="a_node7"><a xlink:title=" ">
<polygon fill="none" stroke="#bfbfbf" points="369.5,-56.5 369.5,-75.5 447.5,-75.5 447.5,-56.5 369.5,-56.5"/>
<text text-anchor="middle" x="408.5" y="-63.5" font-family="Helvetica,sans-Serif" font-size="10.00">user&#45;agent.h</text>
</a>
</g>
</g>
<!-- Node1&#45;&gt;Node7 -->
<g id="edge6" class="edge">
<title>Node1&#45;&gt;Node7</title>
<path fill="none" stroke="midnightblue" d="M408.5,-112.08C408.5,-105.01 408.5,-94.86 408.5,-85.99"/>
<polygon fill="midnightblue" stroke="midnightblue" points="412,-85.75 408.5,-75.75 405,-85.75 412,-85.75"/>
</g>
<!-- Node8 -->
<g id="node8" class="node">
<title>Node8</title>
<g id="a_node8"><a xlink:href="websockets_8h.html" target="_top" xlink:title=" ">
<polygon fill="none" stroke="red" points="466,-56.5 466,-75.5 549,-75.5 549,-56.5 466,-56.5"/>
<text text-anchor="middle" x="507.5" y="-63.5" font-family="Helvetica,sans-Serif" font-size="10.00">websockets.h</text>
</a>
</g>
</g>
<!-- Node1&#45;&gt;Node8 -->
<g id="edge7" class="edge">
<title>Node1&#45;&gt;Node8</title>
<path fill="none" stroke="midnightblue" d="M424.41,-112.32C440.14,-103.74 464.44,-90.49 482.71,-80.52"/>
<polygon fill="midnightblue" stroke="midnightblue" points="484.53,-83.52 491.63,-75.65 481.18,-77.37 484.53,-83.52"/>
</g>
<!-- Node11 -->
<g id="node9" class="node">
<title>Node11</title>
<g id="a_node9"><a xlink:title=" ">
<polygon fill="none" stroke="#bfbfbf" points="567.5,-56.5 567.5,-75.5 635.5,-75.5 635.5,-56.5 567.5,-56.5"/>
<text text-anchor="middle" x="601.5" y="-63.5" font-family="Helvetica,sans-Serif" font-size="10.00">cog&#45;utils.h</text>
</a>
</g>
</g>
<!-- Node1&#45;&gt;Node11 -->
<g id="edge9" class="edge">
<title>Node1&#45;&gt;Node11</title>
<path fill="none" stroke="midnightblue" d="M439.08,-112.44C472.11,-103.2 524.89,-88.44 561.27,-78.26"/>
<polygon fill="midnightblue" stroke="midnightblue" points="562.37,-81.58 571.06,-75.52 560.49,-74.84 562.37,-81.58"/>
</g>
<!-- Node12 -->
<g id="node10" class="node">
<title>Node12</title>
<g id="a_node10"><a xlink:href="io__poller_8h_source.html" target="_top" xlink:title=" ">
<polygon fill="none" stroke="red" points="654,-56.5 654,-75.5 721,-75.5 721,-56.5 654,-56.5"/>
<text text-anchor="middle" x="687.5" y="-63.5" font-family="Helvetica,sans-Serif" font-size="10.00">io_poller.h</text>
</a>
</g>
</g>
<!-- Node1&#45;&gt;Node12 -->
<g id="edge10" class="edge">
<title>Node1&#45;&gt;Node12</title>
<path fill="none" stroke="midnightblue" d="M454.67,-112.45C500.14,-103.97 571.85,-90.45 643.59,-76.15"/>
<polygon fill="midnightblue" stroke="midnightblue" points="644.59,-79.52 653.71,-74.13 643.22,-72.66 644.59,-79.52"/>
</g>
<!-- Node14 -->
<g id="node11" class="node">
<title>Node14</title>
<g id="a_node11"><a xlink:title=" ">
<polygon fill="none" stroke="#bfbfbf" points="739.5,-56.5 739.5,-75.5 795.5,-75.5 795.5,-56.5 739.5,-56.5"/>
<text text-anchor="middle" x="767.5" y="-63.5" font-family="Helvetica,sans-Serif" font-size="10.00">queue.h</text>
</a>
</g>
</g>
<!-- Node1&#45;&gt;Node14 -->
<g id="edge11" class="edge">
<title>Node1&#45;&gt;Node14</title>
<path fill="none" stroke="midnightblue" d="M478.55,-113.25C541.7,-105.8 637.28,-93.38 729.24,-76.08"/>
<polygon fill="midnightblue" stroke="midnightblue" points="730.11,-79.48 739.28,-74.17 728.8,-72.6 730.11,-79.48"/>
</g>
<!-- Node15 -->
<g id="node12" class="node">
<title>Node15</title>
<g id="a_node12"><a xlink:title=" ">
<polygon fill="none" stroke="#bfbfbf" points="813.5,-56.5 813.5,-75.5 909.5,-75.5 909.5,-56.5 813.5,-56.5"/>
<text text-anchor="middle" x="861.5" y="-63.5" font-family="Helvetica,sans-Serif" font-size="10.00">priority_queue.h</text>
</a>
</g>
</g>
<!-- Node1&#45;&gt;Node15 -->
<g id="edge12" class="edge">
<title>Node1&#45;&gt;Node15</title>
<path fill="none" stroke="midnightblue" d="M478.72,-113.95C555.8,-106 683.47,-92.22 803.24,-76.12"/>
<polygon fill="midnightblue" stroke="midnightblue" points="803.88,-79.57 813.32,-74.76 802.94,-72.63 803.88,-79.57"/>
</g>
<!-- Node8&#45;&gt;Node6 -->
<g id="edge8" class="edge">
<title>Node8&#45;&gt;Node6</title>
<path fill="none" stroke="midnightblue" d="M494.16,-56.32C481.34,-47.98 461.72,-35.21 446.56,-25.35"/>
<polygon fill="midnightblue" stroke="midnightblue" points="448.09,-22.17 437.8,-19.65 444.28,-28.04 448.09,-22.17"/>
</g>
</g>
</svg>
