<?xml version="1.0" encoding="UTF-8" standalone="no"?>
<!DOCTYPE svg PUBLIC "-//W3C//DTD SVG 1.1//EN"
 "http://www.w3.org/Graphics/SVG/1.1/DTD/svg11.dtd">
<!-- Generated by graphviz version 2.43.0 (0)
 -->
<!-- Title: include/discord.h Pages: 1 -->
<svg width="1945pt" height="140pt"
 viewBox="0.00 0.00 1944.50 140.00" xmlns="http://www.w3.org/2000/svg" xmlns:xlink="http://www.w3.org/1999/xlink">
<g id="graph0" class="graph" transform="scale(1 1) rotate(0) translate(4 136)">
<title>include/discord.h</title>
<!-- Node1 -->
<g id="node1" class="node">
<title>Node1</title>
<g id="a_node1"><a xlink:title="Public functions and datatypes.">
<polygon fill="#bfbfbf" stroke="black" points="888,-112.5 888,-131.5 987,-131.5 987,-112.5 888,-112.5"/>
<text text-anchor="middle" x="937.5" y="-119.5" font-family="Helvetica,sans-Serif" font-size="10.00">include/discord.h</text>
</a>
</g>
</g>
<!-- Node2 -->
<g id="node2" class="node">
<title>Node2</title>
<g id="a_node2"><a xlink:title=" ">
<polygon fill="none" stroke="#bfbfbf" points="0,-56.5 0,-75.5 65,-75.5 65,-56.5 0,-56.5"/>
<text text-anchor="middle" x="32.5" y="-63.5" font-family="Helvetica,sans-Serif" font-size="10.00">inttypes.h</text>
</a>
</g>
</g>
<!-- Node1&#45;&gt;Node2 -->
<g id="edge1" class="edge">
<title>Node1&#45;&gt;Node2</title>
<path fill="none" stroke="midnightblue" d="M887.97,-120.77C756.02,-119.63 385.28,-113.12 79.5,-76 78.03,-75.82 76.54,-75.62 75.03,-75.41"/>
<polygon fill="midnightblue" stroke="midnightblue" points="75.45,-71.93 65.03,-73.83 74.35,-78.85 75.45,-71.93"/>
</g>
<!-- Node3 -->
<g id="node3" class="node">
<title>Node3</title>
<g id="a_node3"><a xlink:title=" ">
<polygon fill="none" stroke="#bfbfbf" points="256.5,-0.5 256.5,-19.5 318.5,-19.5 318.5,-0.5 256.5,-0.5"/>
<text text-anchor="middle" x="287.5" y="-7.5" font-family="Helvetica,sans-Serif" font-size="10.00">stdbool.h</text>
</a>
</g>
</g>
<!-- Node1&#45;&gt;Node3 -->
<g id="edge2" class="edge">
<title>Node1&#45;&gt;Node3</title>
<path fill="none" stroke="midnightblue" d="M887.76,-120.15C713.43,-116.94 139.25,-104.25 112.5,-76 71.02,-32.2 182.38,-17.73 246.25,-13.09"/>
<polygon fill="midnightblue" stroke="midnightblue" points="246.7,-16.57 256.44,-12.41 246.22,-9.59 246.7,-16.57"/>
</g>
<!-- Node4 -->
<g id="node4" class="node">
<title>Node4</title>
<g id="a_node4"><a xlink:title=" ">
<polygon fill="none" stroke="#bfbfbf" points="122,-56.5 122,-75.5 183,-75.5 183,-56.5 122,-56.5"/>
<text text-anchor="middle" x="152.5" y="-63.5" font-family="Helvetica,sans-Serif" font-size="10.00">logconf.h</text>
</a>
</g>
</g>
<!-- Node1&#45;&gt;Node4 -->
<g id="edge3" class="edge">
<title>Node1&#45;&gt;Node4</title>
<path fill="none" stroke="midnightblue" d="M887.97,-120.76C769.54,-119.58 460.59,-113.04 193.69,-75.92"/>
<polygon fill="midnightblue" stroke="midnightblue" points="193.81,-72.4 183.42,-74.47 192.83,-79.33 193.81,-72.4"/>
</g>
<!-- Node5 -->
<g id="node5" class="node">
<title>Node5</title>
<g id="a_node5"><a xlink:href="error_8h.html" target="_top" xlink:title=" ">
<polygon fill="none" stroke="black" points="201.5,-56.5 201.5,-75.5 249.5,-75.5 249.5,-56.5 201.5,-56.5"/>
<text text-anchor="middle" x="225.5" y="-63.5" font-family="Helvetica,sans-Serif" font-size="10.00">error.h</text>
</a>
</g>
</g>
<!-- Node1&#45;&gt;Node5 -->
<g id="edge4" class="edge">
<title>Node1&#45;&gt;Node5</title>
<path fill="none" stroke="midnightblue" d="M887.79,-120.96C775.18,-120.17 492.33,-114.18 259.5,-76 259.4,-75.98 259.3,-75.97 259.19,-75.95"/>
<polygon fill="midnightblue" stroke="midnightblue" points="260.02,-72.55 249.52,-73.97 258.62,-79.4 260.02,-72.55"/>
</g>
<!-- Node6 -->
<g id="node6" class="node">
<title>Node6</title>
<g id="a_node6"><a xlink:href="types_8h.html" target="_top" xlink:title=" ">
<polygon fill="none" stroke="black" points="268,-56.5 268,-75.5 321,-75.5 321,-56.5 268,-56.5"/>
<text text-anchor="middle" x="294.5" y="-63.5" font-family="Helvetica,sans-Serif" font-size="10.00">types.h</text>
</a>
</g>
</g>
<!-- Node1&#45;&gt;Node6 -->
<g id="edge5" class="edge">
<title>Node1&#45;&gt;Node6</title>
<path fill="none" stroke="midnightblue" d="M887.99,-120.19C785.68,-117.9 543.49,-109.29 331.22,-75.81"/>
<polygon fill="midnightblue" stroke="midnightblue" points="331.56,-72.32 321.13,-74.2 330.45,-79.23 331.56,-72.32"/>
</g>
<!-- Node7 -->
<g id="node7" class="node">
<title>Node7</title>
<g id="a_node7"><a xlink:href="concord-once_8h.html" target="_top" xlink:title="Initialized once.">
<polygon fill="none" stroke="black" points="339,-56.5 339,-75.5 430,-75.5 430,-56.5 339,-56.5"/>
<text text-anchor="middle" x="384.5" y="-63.5" font-family="Helvetica,sans-Serif" font-size="10.00">concord&#45;once.h</text>
</a>
</g>
</g>
<!-- Node1&#45;&gt;Node7 -->
<g id="edge6" class="edge">
<title>Node1&#45;&gt;Node7</title>
<path fill="none" stroke="midnightblue" d="M887.89,-117.71C799.94,-111.61 610.71,-97.33 440.25,-76"/>
<polygon fill="midnightblue" stroke="midnightblue" points="440.44,-72.5 430.08,-74.72 439.56,-79.44 440.44,-72.5"/>
</g>
<!-- Node8 -->
<g id="node8" class="node">
<title>Node8</title>
<g id="a_node8"><a xlink:href="io__poller_8h_source.html" target="_top" xlink:title=" ">
<polygon fill="none" stroke="red" points="448,-56.5 448,-75.5 515,-75.5 515,-56.5 448,-56.5"/>
<text text-anchor="middle" x="481.5" y="-63.5" font-family="Helvetica,sans-Serif" font-size="10.00">io_poller.h</text>
</a>
</g>
</g>
<!-- Node1&#45;&gt;Node8 -->
<g id="edge7" class="edge">
<title>Node1&#45;&gt;Node8</title>
<path fill="none" stroke="midnightblue" d="M887.7,-117.16C811.79,-110.95 662.38,-97.38 525.5,-76.01"/>
<polygon fill="midnightblue" stroke="midnightblue" points="525.67,-72.49 515.24,-74.39 524.58,-79.41 525.67,-72.49"/>
</g>
<!-- Node10 -->
<g id="node9" class="node">
<title>Node10</title>
<g id="a_node9"><a xlink:title=" ">
<polygon fill="none" stroke="#bfbfbf" points="533.5,-56.5 533.5,-75.5 633.5,-75.5 633.5,-56.5 533.5,-56.5"/>
<text text-anchor="middle" x="583.5" y="-63.5" font-family="Helvetica,sans-Serif" font-size="10.00">discord_codecs.h</text>
</a>
</g>
</g>
<!-- Node1&#45;&gt;Node10 -->
<g id="edge9" class="edge">
<title>Node1&#45;&gt;Node10</title>
<path fill="none" stroke="midnightblue" d="M887.91,-113.43C823.92,-103.67 712.69,-86.71 643.87,-76.21"/>
<polygon fill="midnightblue" stroke="midnightblue" points="644.03,-72.69 633.62,-74.64 642.97,-79.61 644.03,-72.69"/>
</g>
<!-- Node11 -->
<g id="node10" class="node">
<title>Node11</title>
<g id="a_node10"><a xlink:href="discord-templates_8h.html" target="_top" xlink:title="Macro template for generating type&#45;safe return handles for async requests.">
<polygon fill="none" stroke="black" points="651.5,-56.5 651.5,-75.5 765.5,-75.5 765.5,-56.5 651.5,-56.5"/>
<text text-anchor="middle" x="708.5" y="-63.5" font-family="Helvetica,sans-Serif" font-size="10.00">discord&#45;templates.h</text>
</a>
</g>
</g>
<!-- Node1&#45;&gt;Node11 -->
<g id="edge10" class="edge">
<title>Node1&#45;&gt;Node11</title>
<path fill="none" stroke="midnightblue" d="M901.21,-112.44C861.52,-103.08 797.79,-88.06 754.59,-77.87"/>
<polygon fill="midnightblue" stroke="midnightblue" points="755.15,-74.41 744.62,-75.52 753.55,-81.22 755.15,-74.41"/>
</g>
<!-- Node12 -->
<g id="node11" class="node">
<title>Node12</title>
<g id="a_node11"><a xlink:href="include_2audit__log_8h.html" target="_top" xlink:title="Audit Log public functions and datatypes.">
<polygon fill="none" stroke="black" points="784,-56.5 784,-75.5 855,-75.5 855,-56.5 784,-56.5"/>
<text text-anchor="middle" x="819.5" y="-63.5" font-family="Helvetica,sans-Serif" font-size="10.00">audit_log.h</text>
</a>
</g>
</g>
<!-- Node1&#45;&gt;Node12 -->
<g id="edge11" class="edge">
<title>Node1&#45;&gt;Node12</title>
<path fill="none" stroke="midnightblue" d="M918.8,-112.44C899.56,-103.64 869.35,-89.81 847.3,-79.72"/>
<polygon fill="midnightblue" stroke="midnightblue" points="848.66,-76.5 838.11,-75.52 845.75,-82.86 848.66,-76.5"/>
</g>
<!-- Node13 -->
<g id="node12" class="node">
<title>Node13</title>
<g id="a_node12"><a xlink:href="include_2invite_8h.html" target="_top" xlink:title="Invite public functions and datatypes.">
<polygon fill="none" stroke="black" points="873,-56.5 873,-75.5 926,-75.5 926,-56.5 873,-56.5"/>
<text text-anchor="middle" x="899.5" y="-63.5" font-family="Helvetica,sans-Serif" font-size="10.00">invite.h</text>
</a>
</g>
</g>
<!-- Node1&#45;&gt;Node13 -->
<g id="edge12" class="edge">
<title>Node1&#45;&gt;Node13</title>
<path fill="none" stroke="midnightblue" d="M931.23,-112.08C925.86,-104.46 917.98,-93.26 911.42,-83.94"/>
<polygon fill="midnightblue" stroke="midnightblue" points="914.28,-81.91 905.66,-75.75 908.55,-85.94 914.28,-81.91"/>
</g>
<!-- Node14 -->
<g id="node13" class="node">
<title>Node14</title>
<g id="a_node13"><a xlink:href="include_2channel_8h.html" target="_top" xlink:title="Channel public functions and datatypes.">
<polygon fill="none" stroke="black" points="944.5,-56.5 944.5,-75.5 1008.5,-75.5 1008.5,-56.5 944.5,-56.5"/>
<text text-anchor="middle" x="976.5" y="-63.5" font-family="Helvetica,sans-Serif" font-size="10.00">channel.h</text>
</a>
</g>
</g>
<!-- Node1&#45;&gt;Node14 -->
<g id="edge13" class="edge">
<title>Node1&#45;&gt;Node14</title>
<path fill="none" stroke="midnightblue" d="M943.94,-112.08C949.45,-104.46 957.53,-93.26 964.26,-83.94"/>
<polygon fill="midnightblue" stroke="midnightblue" points="967.16,-85.91 970.18,-75.75 961.49,-81.81 967.16,-85.91"/>
</g>
<!-- Node15 -->
<g id="node14" class="node">
<title>Node15</title>
<g id="a_node14"><a xlink:href="include_2emoji_8h.html" target="_top" xlink:title="Emoji public functions and datatypes.">
<polygon fill="none" stroke="black" points="1027,-56.5 1027,-75.5 1080,-75.5 1080,-56.5 1027,-56.5"/>
<text text-anchor="middle" x="1053.5" y="-63.5" font-family="Helvetica,sans-Serif" font-size="10.00">emoji.h</text>
</a>
</g>
</g>
<!-- Node1&#45;&gt;Node15 -->
<g id="edge14" class="edge">
<title>Node1&#45;&gt;Node15</title>
<path fill="none" stroke="midnightblue" d="M955.88,-112.44C974.72,-103.68 1004.23,-89.94 1025.88,-79.86"/>
<polygon fill="midnightblue" stroke="midnightblue" points="1027.62,-82.91 1035.21,-75.52 1024.66,-76.56 1027.62,-82.91"/>
</g>
<!-- Node16 -->
<g id="node15" class="node">
<title>Node16</title>
<g id="a_node15"><a xlink:href="include_2guild_8h.html" target="_top" xlink:title="Guild public functions and datatypes.">
<polygon fill="none" stroke="black" points="1098.5,-56.5 1098.5,-75.5 1148.5,-75.5 1148.5,-56.5 1098.5,-56.5"/>
<text text-anchor="middle" x="1123.5" y="-63.5" font-family="Helvetica,sans-Serif" font-size="10.00">guild.h</text>
</a>
</g>
</g>
<!-- Node1&#45;&gt;Node16 -->
<g id="edge15" class="edge">
<title>Node1&#45;&gt;Node16</title>
<path fill="none" stroke="midnightblue" d="M966.97,-112.44C999.98,-102.86 1053.43,-87.34 1088.52,-77.15"/>
<polygon fill="midnightblue" stroke="midnightblue" points="1089.71,-80.45 1098.34,-74.3 1087.76,-73.73 1089.71,-80.45"/>
</g>
<!-- Node17 -->
<g id="node16" class="node">
<title>Node17</title>
<g id="a_node16"><a xlink:href="include_2guild__template_8h.html" target="_top" xlink:title="Guild Template public functions and datatypes.">
<polygon fill="none" stroke="black" points="1167,-56.5 1167,-75.5 1266,-75.5 1266,-56.5 1167,-56.5"/>
<text text-anchor="middle" x="1216.5" y="-63.5" font-family="Helvetica,sans-Serif" font-size="10.00">guild_template.h</text>
</a>
</g>
</g>
<!-- Node1&#45;&gt;Node17 -->
<g id="edge16" class="edge">
<title>Node1&#45;&gt;Node17</title>
<path fill="none" stroke="midnightblue" d="M981.71,-112.44C1030.79,-102.94 1110.01,-87.61 1162.66,-77.42"/>
<polygon fill="midnightblue" stroke="midnightblue" points="1163.35,-80.85 1172.5,-75.52 1162.02,-73.98 1163.35,-80.85"/>
</g>
<!-- Node18 -->
<g id="node17" class="node">
<title>Node18</title>
<g id="a_node17"><a xlink:href="include_2user_8h.html" target="_top" xlink:title="User public functions and datatypes.">
<polygon fill="none" stroke="black" points="1284.5,-56.5 1284.5,-75.5 1330.5,-75.5 1330.5,-56.5 1284.5,-56.5"/>
<text text-anchor="middle" x="1307.5" y="-63.5" font-family="Helvetica,sans-Serif" font-size="10.00">user.h</text>
</a>
</g>
</g>
<!-- Node1&#45;&gt;Node18 -->
<g id="edge17" class="edge">
<title>Node1&#45;&gt;Node18</title>
<path fill="none" stroke="midnightblue" d="M987.13,-116.62C1051.34,-110.45 1166.78,-97.71 1274.15,-76.03"/>
<polygon fill="midnightblue" stroke="midnightblue" points="1275.08,-79.41 1284.18,-73.97 1273.68,-72.55 1275.08,-79.41"/>
</g>
<!-- Node19 -->
<g id="node18" class="node">
<title>Node19</title>
<g id="a_node18"><a xlink:href="include_2voice_8h.html" target="_top" xlink:title="Voice public functions and datatypes.">
<polygon fill="none" stroke="black" points="1348.5,-56.5 1348.5,-75.5 1400.5,-75.5 1400.5,-56.5 1348.5,-56.5"/>
<text text-anchor="middle" x="1374.5" y="-63.5" font-family="Helvetica,sans-Serif" font-size="10.00">voice.h</text>
</a>
</g>
</g>
<!-- Node1&#45;&gt;Node19 -->
<g id="edge18" class="edge">
<title>Node1&#45;&gt;Node19</title>
<path fill="none" stroke="midnightblue" d="M987.02,-117.7C1061.37,-112.26 1206.32,-99.74 1338.33,-75.99"/>
<polygon fill="midnightblue" stroke="midnightblue" points="1339.01,-79.42 1348.21,-74.18 1337.75,-72.53 1339.01,-79.42"/>
</g>
<!-- Node20 -->
<g id="node19" class="node">
<title>Node20</title>
<g id="a_node19"><a xlink:href="include_2webhook_8h.html" target="_top" xlink:title="Webhook public functions and datatypes.">
<polygon fill="none" stroke="black" points="1418.5,-56.5 1418.5,-75.5 1488.5,-75.5 1488.5,-56.5 1418.5,-56.5"/>
<text text-anchor="middle" x="1453.5" y="-63.5" font-family="Helvetica,sans-Serif" font-size="10.00">webhook.h</text>
</a>
</g>
</g>
<!-- Node1&#45;&gt;Node20 -->
<g id="edge19" class="edge">
<title>Node1&#45;&gt;Node20</title>
<path fill="none" stroke="midnightblue" d="M987.32,-118.01C1071.87,-112.54 1248.99,-99.43 1408.5,-76"/>
<polygon fill="midnightblue" stroke="midnightblue" points="1409.12,-79.44 1418.5,-74.51 1408.09,-72.52 1409.12,-79.44"/>
</g>
<!-- Node21 -->
<g id="node20" class="node">
<title>Node21</title>
<g id="a_node20"><a xlink:href="include_2gateway_8h.html" target="_top" xlink:title="Gateway public functions and datatypes.">
<polygon fill="none" stroke="black" points="1506.5,-56.5 1506.5,-75.5 1572.5,-75.5 1572.5,-56.5 1506.5,-56.5"/>
<text text-anchor="middle" x="1539.5" y="-63.5" font-family="Helvetica,sans-Serif" font-size="10.00">gateway.h</text>
</a>
</g>
</g>
<!-- Node1&#45;&gt;Node21 -->
<g id="edge20" class="edge">
<title>Node1&#45;&gt;Node21</title>
<path fill="none" stroke="midnightblue" d="M987.19,-119.19C1083.55,-115.21 1302.63,-103.86 1496.04,-76.04"/>
<polygon fill="midnightblue" stroke="midnightblue" points="1496.71,-79.47 1506.1,-74.57 1495.7,-72.55 1496.71,-79.47"/>
</g>
<!-- Node22 -->
<g id="node21" class="node">
<title>Node22</title>
<g id="a_node21"><a xlink:href="application__command_8h.html" target="_top" xlink:title="Application Command public functions and datatypes.">
<polygon fill="none" stroke="black" points="1590.5,-56.5 1590.5,-75.5 1724.5,-75.5 1724.5,-56.5 1590.5,-56.5"/>
<text text-anchor="middle" x="1657.5" y="-63.5" font-family="Helvetica,sans-Serif" font-size="10.00">application_command.h</text>
</a>
</g>
</g>
<!-- Node1&#45;&gt;Node22 -->
<g id="edge21" class="edge">
<title>Node1&#45;&gt;Node22</title>
<path fill="none" stroke="midnightblue" d="M987.26,-118.34C1093.89,-112.47 1352.56,-97.27 1580.25,-76.07"/>
<polygon fill="midnightblue" stroke="midnightblue" points="1580.75,-79.54 1590.38,-75.13 1580.1,-72.57 1580.75,-79.54"/>
</g>
<!-- Node23 -->
<g id="node22" class="node">
<title>Node23</title>
<g id="a_node22"><a xlink:href="interaction_8h.html" target="_top" xlink:title="Interaciton public functions and datatypes.">
<polygon fill="none" stroke="black" points="1742.5,-56.5 1742.5,-75.5 1820.5,-75.5 1820.5,-56.5 1742.5,-56.5"/>
<text text-anchor="middle" x="1781.5" y="-63.5" font-family="Helvetica,sans-Serif" font-size="10.00">interaction.h</text>
</a>
</g>
</g>
<!-- Node1&#45;&gt;Node23 -->
<g id="edge22" class="edge">
<title>Node1&#45;&gt;Node23</title>
<path fill="none" stroke="midnightblue" d="M987.07,-120.41C1111.03,-118.48 1444.57,-110.34 1732.06,-76.01"/>
<polygon fill="midnightblue" stroke="midnightblue" points="1732.76,-79.45 1742.27,-74.78 1731.92,-72.51 1732.76,-79.45"/>
</g>
<!-- Node24 -->
<g id="node23" class="node">
<title>Node24</title>
<g id="a_node23"><a xlink:href="discord-events_8h.html" target="_top" xlink:title="Listen and react to Discord events.">
<polygon fill="none" stroke="black" points="1838.5,-56.5 1838.5,-75.5 1936.5,-75.5 1936.5,-56.5 1838.5,-56.5"/>
<text text-anchor="middle" x="1887.5" y="-63.5" font-family="Helvetica,sans-Serif" font-size="10.00">discord&#45;events.h</text>
</a>
</g>
</g>
<!-- Node1&#45;&gt;Node24 -->
<g id="edge23" class="edge">
<title>Node1&#45;&gt;Node24</title>
<path fill="none" stroke="midnightblue" d="M987.44,-120.29C1121.73,-118 1501.91,-108.97 1828.37,-76"/>
<polygon fill="midnightblue" stroke="midnightblue" points="1828.9,-79.46 1838.5,-74.97 1828.2,-72.5 1828.9,-79.46"/>
</g>
<!-- Node8&#45;&gt;Node3 -->
<g id="edge8" class="edge">
<title>Node8&#45;&gt;Node3</title>
<path fill="none" stroke="midnightblue" d="M450.76,-56.44C417.56,-47.2 364.51,-32.44 327.94,-22.26"/>
<polygon fill="midnightblue" stroke="midnightblue" points="328.67,-18.83 318.1,-19.52 326.79,-25.57 328.67,-18.83"/>
</g>
</g>
</svg>
