<?xml version="1.0" encoding="UTF-8" standalone="no"?>
<!DOCTYPE svg PUBLIC "-//W3C//DTD SVG 1.1//EN"
 "http://www.w3.org/Graphics/SVG/1.1/DTD/svg11.dtd">
<!-- Generated by graphviz version 2.43.0 (0)
 -->
<!-- Title: include/discord&#45;internal.h Pages: 1 -->
<svg width="908pt" height="196pt"
 viewBox="0.00 0.00 907.50 196.00" xmlns="http://www.w3.org/2000/svg" xmlns:xlink="http://www.w3.org/1999/xlink">
<g id="graph0" class="graph" transform="scale(1 1) rotate(0) translate(4 192)">
<title>include/discord&#45;internal.h</title>
<!-- Node1 -->
<g id="node1" class="node">
<title>Node1</title>
<g id="a_node1"><a xlink:title="Internal functions and datatypes.">
<polygon fill="#bfbfbf" stroke="black" points="342.5,-168.5 342.5,-187.5 482.5,-187.5 482.5,-168.5 342.5,-168.5"/>
<text text-anchor="middle" x="412.5" y="-175.5" font-family="Helvetica,sans-Serif" font-size="10.00">include/discord&#45;internal.h</text>
</a>
</g>
</g>
<!-- Node2 -->
<g id="node2" class="node">
<title>Node2</title>
<g id="a_node2"><a xlink:title=" ">
<polygon fill="none" stroke="#bfbfbf" points="0,-112.5 0,-131.5 63,-131.5 63,-112.5 0,-112.5"/>
<text text-anchor="middle" x="31.5" y="-119.5" font-family="Helvetica,sans-Serif" font-size="10.00">pthread.h</text>
</a>
</g>
</g>
<!-- Node1&#45;&gt;Node2 -->
<g id="edge1" class="edge">
<title>Node1&#45;&gt;Node2</title>
<path fill="none" stroke="midnightblue" d="M342.23,-169.46C275.52,-161.89 172.23,-149.15 73.12,-131.97"/>
<polygon fill="midnightblue" stroke="midnightblue" points="73.69,-128.52 63.23,-130.24 72.48,-135.42 73.69,-128.52"/>
</g>
<!-- Node3 -->
<g id="node3" class="node">
<title>Node3</title>
<g id="a_node3"><a xlink:href="json-build_8h.html" target="_top" xlink:title=" ">
<polygon fill="none" stroke="red" points="81.5,-112.5 81.5,-131.5 155.5,-131.5 155.5,-112.5 81.5,-112.5"/>
<text text-anchor="middle" x="118.5" y="-119.5" font-family="Helvetica,sans-Serif" font-size="10.00">json&#45;build.h</text>
</a>
</g>
</g>
<!-- Node1&#45;&gt;Node3 -->
<g id="edge2" class="edge">
<title>Node1&#45;&gt;Node3</title>
<path fill="none" stroke="midnightblue" d="M364.46,-168.48C316.62,-159.96 240.81,-146.33 165.75,-132.22"/>
<polygon fill="midnightblue" stroke="midnightblue" points="166.12,-128.73 155.65,-130.31 164.83,-135.6 166.12,-128.73"/>
</g>
<!-- Node6 -->
<g id="node4" class="node">
<title>Node6</title>
<g id="a_node4"><a xlink:href="jsmn_8h.html" target="_top" xlink:title=" ">
<polygon fill="none" stroke="red" points="173.5,-112.5 173.5,-131.5 223.5,-131.5 223.5,-112.5 173.5,-112.5"/>
<text text-anchor="middle" x="198.5" y="-119.5" font-family="Helvetica,sans-Serif" font-size="10.00">jsmn.h</text>
</a>
</g>
</g>
<!-- Node1&#45;&gt;Node6 -->
<g id="edge3" class="edge">
<title>Node1&#45;&gt;Node6</title>
<path fill="none" stroke="midnightblue" d="M377.62,-168.43C343.32,-159.97 289.21,-146.54 233.43,-132.22"/>
<polygon fill="midnightblue" stroke="midnightblue" points="234.3,-128.82 223.74,-129.72 232.55,-135.6 234.3,-128.82"/>
</g>
<!-- Node7 -->
<g id="node5" class="node">
<title>Node7</title>
<g id="a_node5"><a xlink:href="jsmn-find_8h.html" target="_top" xlink:title=" ">
<polygon fill="none" stroke="black" points="242,-112.5 242,-131.5 313,-131.5 313,-112.5 242,-112.5"/>
<text text-anchor="middle" x="277.5" y="-119.5" font-family="Helvetica,sans-Serif" font-size="10.00">jsmn&#45;find.h</text>
</a>
</g>
</g>
<!-- Node1&#45;&gt;Node7 -->
<g id="edge4" class="edge">
<title>Node1&#45;&gt;Node7</title>
<path fill="none" stroke="midnightblue" d="M391.11,-168.44C368.79,-159.52 333.6,-145.44 308.29,-135.32"/>
<polygon fill="midnightblue" stroke="midnightblue" points="309.38,-131.98 298.79,-131.52 306.78,-138.48 309.38,-131.98"/>
</g>
<!-- Node8 -->
<g id="node6" class="node">
<title>Node8</title>
<g id="a_node6"><a xlink:href="logconf_8h.html" target="_top" xlink:title=" ">
<polygon fill="none" stroke="red" points="436,-56.5 436,-75.5 497,-75.5 497,-56.5 436,-56.5"/>
<text text-anchor="middle" x="466.5" y="-63.5" font-family="Helvetica,sans-Serif" font-size="10.00">logconf.h</text>
</a>
</g>
</g>
<!-- Node1&#45;&gt;Node8 -->
<g id="edge5" class="edge">
<title>Node1&#45;&gt;Node8</title>
<path fill="none" stroke="midnightblue" d="M407.17,-168.49C399.83,-155.55 388.56,-130.51 398.5,-112 406.12,-97.82 420.4,-87.35 433.91,-80.1"/>
<polygon fill="midnightblue" stroke="midnightblue" points="435.63,-83.16 443.05,-75.59 432.53,-76.88 435.63,-83.16"/>
</g>
<!-- Node10 -->
<g id="node7" class="node">
<title>Node10</title>
<g id="a_node7"><a xlink:href="attributes_8h.html" target="_top" xlink:title=" ">
<polygon fill="none" stroke="black" points="430,-0.5 430,-19.5 503,-19.5 503,-0.5 430,-0.5"/>
<text text-anchor="middle" x="466.5" y="-7.5" font-family="Helvetica,sans-Serif" font-size="10.00">attributes.h</text>
</a>
</g>
</g>
<!-- Node1&#45;&gt;Node10 -->
<g id="edge15" class="edge">
<title>Node1&#45;&gt;Node10</title>
<path fill="none" stroke="midnightblue" d="M406.22,-168.23C398.11,-155.79 385.68,-132.29 391.5,-112 401.51,-77.1 430.15,-44.93 449,-26.67"/>
<polygon fill="midnightblue" stroke="midnightblue" points="451.5,-29.12 456.4,-19.72 446.71,-24.02 451.5,-29.12"/>
</g>
<!-- Node15 -->
<g id="node8" class="node">
<title>Node15</title>
<g id="a_node8"><a xlink:title=" ">
<polygon fill="none" stroke="#bfbfbf" points="407.5,-112.5 407.5,-131.5 485.5,-131.5 485.5,-112.5 407.5,-112.5"/>
<text text-anchor="middle" x="446.5" y="-119.5" font-family="Helvetica,sans-Serif" font-size="10.00">user&#45;agent.h</text>
</a>
</g>
</g>
<!-- Node1&#45;&gt;Node15 -->
<g id="edge7" class="edge">
<title>Node1&#45;&gt;Node15</title>
<path fill="none" stroke="midnightblue" d="M418.11,-168.08C422.87,-160.53 429.82,-149.49 435.65,-140.23"/>
<polygon fill="midnightblue" stroke="midnightblue" points="438.62,-142.08 440.99,-131.75 432.7,-138.35 438.62,-142.08"/>
</g>
<!-- Node16 -->
<g id="node9" class="node">
<title>Node16</title>
<g id="a_node9"><a xlink:href="websockets_8h.html" target="_top" xlink:title=" ">
<polygon fill="none" stroke="red" points="504,-112.5 504,-131.5 587,-131.5 587,-112.5 504,-112.5"/>
<text text-anchor="middle" x="545.5" y="-119.5" font-family="Helvetica,sans-Serif" font-size="10.00">websockets.h</text>
</a>
</g>
</g>
<!-- Node1&#45;&gt;Node16 -->
<g id="edge8" class="edge">
<title>Node1&#45;&gt;Node16</title>
<path fill="none" stroke="midnightblue" d="M433.57,-168.44C455.56,-159.52 490.23,-145.44 515.16,-135.32"/>
<polygon fill="midnightblue" stroke="midnightblue" points="516.58,-138.52 524.52,-131.52 513.94,-132.04 516.58,-138.52"/>
</g>
<!-- Node19 -->
<g id="node10" class="node">
<title>Node19</title>
<g id="a_node10"><a xlink:href="cog-utils_8h.html" target="_top" xlink:title=" ">
<polygon fill="none" stroke="red" points="548.5,-56.5 548.5,-75.5 616.5,-75.5 616.5,-56.5 548.5,-56.5"/>
<text text-anchor="middle" x="582.5" y="-63.5" font-family="Helvetica,sans-Serif" font-size="10.00">cog&#45;utils.h</text>
</a>
</g>
</g>
<!-- Node1&#45;&gt;Node19 -->
<g id="edge10" class="edge">
<title>Node1&#45;&gt;Node19</title>
<path fill="none" stroke="midnightblue" d="M482.85,-168.81C528.59,-161.87 582.29,-150.11 596.5,-132 607.16,-118.42 600.59,-98.54 593.29,-84.34"/>
<polygon fill="midnightblue" stroke="midnightblue" points="596.29,-82.54 588.31,-75.57 590.2,-85.99 596.29,-82.54"/>
</g>
<!-- Node20 -->
<g id="node11" class="node">
<title>Node20</title>
<g id="a_node11"><a xlink:href="io__poller_8h.html" target="_top" xlink:title=" ">
<polygon fill="none" stroke="red" points="644,-112.5 644,-131.5 711,-131.5 711,-112.5 644,-112.5"/>
<text text-anchor="middle" x="677.5" y="-119.5" font-family="Helvetica,sans-Serif" font-size="10.00">io_poller.h</text>
</a>
</g>
</g>
<!-- Node1&#45;&gt;Node20 -->
<g id="edge12" class="edge">
<title>Node1&#45;&gt;Node20</title>
<path fill="none" stroke="midnightblue" d="M454.49,-168.44C503.51,-158.46 584.18,-142.02 633.88,-131.89"/>
<polygon fill="midnightblue" stroke="midnightblue" points="634.59,-135.31 643.69,-129.89 633.2,-128.46 634.59,-135.31"/>
</g>
<!-- Node21 -->
<g id="node12" class="node">
<title>Node21</title>
<g id="a_node12"><a xlink:href="queue_8h.html" target="_top" xlink:title=" ">
<polygon fill="none" stroke="red" points="729.5,-112.5 729.5,-131.5 785.5,-131.5 785.5,-112.5 729.5,-112.5"/>
<text text-anchor="middle" x="757.5" y="-119.5" font-family="Helvetica,sans-Serif" font-size="10.00">queue.h</text>
</a>
</g>
</g>
<!-- Node1&#45;&gt;Node21 -->
<g id="edge13" class="edge">
<title>Node1&#45;&gt;Node21</title>
<path fill="none" stroke="midnightblue" d="M482.54,-168.66C542.85,-161.05 632.39,-148.72 719.25,-132.09"/>
<polygon fill="midnightblue" stroke="midnightblue" points="720.13,-135.49 729.28,-130.15 718.8,-128.62 720.13,-135.49"/>
</g>
<!-- Node22 -->
<g id="node13" class="node">
<title>Node22</title>
<g id="a_node13"><a xlink:href="priority__queue_8h.html" target="_top" xlink:title=" ">
<polygon fill="none" stroke="red" points="803.5,-112.5 803.5,-131.5 899.5,-131.5 899.5,-112.5 803.5,-112.5"/>
<text text-anchor="middle" x="851.5" y="-119.5" font-family="Helvetica,sans-Serif" font-size="10.00">priority_queue.h</text>
</a>
</g>
</g>
<!-- Node1&#45;&gt;Node22 -->
<g id="edge14" class="edge">
<title>Node1&#45;&gt;Node22</title>
<path fill="none" stroke="midnightblue" d="M482.66,-169.57C557.19,-161.49 678.72,-147.78 793.32,-132.12"/>
<polygon fill="midnightblue" stroke="midnightblue" points="793.89,-135.57 803.32,-130.74 792.93,-128.64 793.89,-135.57"/>
</g>
<!-- Node8&#45;&gt;Node10 -->
<g id="edge6" class="edge">
<title>Node8&#45;&gt;Node10</title>
<path fill="none" stroke="midnightblue" d="M466.5,-56.08C466.5,-49.01 466.5,-38.86 466.5,-29.99"/>
<polygon fill="midnightblue" stroke="midnightblue" points="470,-29.75 466.5,-19.75 463,-29.75 470,-29.75"/>
</g>
<!-- Node16&#45;&gt;Node8 -->
<g id="edge9" class="edge">
<title>Node16&#45;&gt;Node8</title>
<path fill="none" stroke="midnightblue" d="M532.81,-112.32C520.6,-103.98 501.92,-91.21 487.5,-81.35"/>
<polygon fill="midnightblue" stroke="midnightblue" points="489.39,-78.41 479.16,-75.65 485.44,-84.19 489.39,-78.41"/>
</g>
<!-- Node19&#45;&gt;Node10 -->
<g id="edge11" class="edge">
<title>Node19&#45;&gt;Node10</title>
<path fill="none" stroke="midnightblue" d="M564.12,-56.44C545.28,-47.68 515.77,-33.94 494.12,-23.86"/>
<polygon fill="midnightblue" stroke="midnightblue" points="495.34,-20.56 484.79,-19.52 492.38,-26.91 495.34,-20.56"/>
</g>
</g>
</svg>
