<?xml version="1.0" encoding="UTF-8" standalone="no"?>
<!DOCTYPE svg PUBLIC "-//W3C//DTD SVG 1.1//EN"
 "http://www.w3.org/Graphics/SVG/1.1/DTD/svg11.dtd">
<!-- Generated by graphviz version 2.43.0 (0)
 -->
<!-- Title: include/discord.h Pages: 1 -->
<svg width="2412pt" height="140pt"
 viewBox="0.00 0.00 2411.50 140.00" xmlns="http://www.w3.org/2000/svg" xmlns:xlink="http://www.w3.org/1999/xlink">
<g id="graph0" class="graph" transform="scale(1 1) rotate(0) translate(4 136)">
<title>include/discord.h</title>
<!-- Node1 -->
<g id="node1" class="node">
<title>Node1</title>
<g id="a_node1"><a xlink:title="Public functions and datatypes.">
<polygon fill="#bfbfbf" stroke="black" points="1081,-112.5 1081,-131.5 1180,-131.5 1180,-112.5 1081,-112.5"/>
<text text-anchor="middle" x="1130.5" y="-119.5" font-family="Helvetica,sans-Serif" font-size="10.00">include/discord.h</text>
</a>
</g>
</g>
<!-- Node2 -->
<g id="node2" class="node">
<title>Node2</title>
<g id="a_node2"><a xlink:title=" ">
<polygon fill="none" stroke="#bfbfbf" points="0,-56.5 0,-75.5 65,-75.5 65,-56.5 0,-56.5"/>
<text text-anchor="middle" x="32.5" y="-63.5" font-family="Helvetica,sans-Serif" font-size="10.00">inttypes.h</text>
</a>
</g>
</g>
<!-- Node1&#45;&gt;Node2 -->
<g id="edge1" class="edge">
<title>Node1&#45;&gt;Node2</title>
<path fill="none" stroke="midnightblue" d="M1080.78,-121.45C929.7,-122.26 462.95,-120.68 79.5,-76 78.03,-75.83 76.54,-75.64 75.03,-75.43"/>
<polygon fill="midnightblue" stroke="midnightblue" points="75.44,-71.95 65.02,-73.87 74.36,-78.87 75.44,-71.95"/>
</g>
<!-- Node3 -->
<g id="node3" class="node">
<title>Node3</title>
<g id="a_node3"><a xlink:title=" ">
<polygon fill="none" stroke="#bfbfbf" points="216.5,-0.5 216.5,-19.5 278.5,-19.5 278.5,-0.5 216.5,-0.5"/>
<text text-anchor="middle" x="247.5" y="-7.5" font-family="Helvetica,sans-Serif" font-size="10.00">stdbool.h</text>
</a>
</g>
</g>
<!-- Node1&#45;&gt;Node3 -->
<g id="edge2" class="edge">
<title>Node1&#45;&gt;Node3</title>
<path fill="none" stroke="midnightblue" d="M1080.85,-120.69C881.24,-119.2 146.3,-111.33 112.5,-76 80.96,-43.03 156.03,-24.72 206.41,-16.47"/>
<polygon fill="midnightblue" stroke="midnightblue" points="207.09,-19.9 216.43,-14.9 206.01,-12.99 207.09,-19.9"/>
</g>
<!-- Node4 -->
<g id="node4" class="node">
<title>Node4</title>
<g id="a_node4"><a xlink:href="error_8h.html" target="_top" xlink:title=" ">
<polygon fill="none" stroke="black" points="121.5,-56.5 121.5,-75.5 169.5,-75.5 169.5,-56.5 121.5,-56.5"/>
<text text-anchor="middle" x="145.5" y="-63.5" font-family="Helvetica,sans-Serif" font-size="10.00">error.h</text>
</a>
</g>
</g>
<!-- Node1&#45;&gt;Node4 -->
<g id="edge3" class="edge">
<title>Node1&#45;&gt;Node4</title>
<path fill="none" stroke="midnightblue" d="M1080.73,-120.03C911.02,-116.52 355.82,-103.19 179.5,-76 179.4,-75.98 179.3,-75.97 179.19,-75.95"/>
<polygon fill="midnightblue" stroke="midnightblue" points="180,-72.54 169.51,-74.03 178.64,-79.41 180,-72.54"/>
</g>
<!-- Node5 -->
<g id="node5" class="node">
<title>Node5</title>
<g id="a_node5"><a xlink:href="types_8h.html" target="_top" xlink:title=" ">
<polygon fill="none" stroke="red" points="188,-56.5 188,-75.5 241,-75.5 241,-56.5 188,-56.5"/>
<text text-anchor="middle" x="214.5" y="-63.5" font-family="Helvetica,sans-Serif" font-size="10.00">types.h</text>
</a>
</g>
</g>
<!-- Node1&#45;&gt;Node5 -->
<g id="edge4" class="edge">
<title>Node1&#45;&gt;Node5</title>
<path fill="none" stroke="midnightblue" d="M1080.85,-119.73C922.81,-115.49 431.77,-100.75 251.28,-75.73"/>
<polygon fill="midnightblue" stroke="midnightblue" points="251.52,-72.23 241.12,-74.27 250.52,-79.16 251.52,-72.23"/>
</g>
<!-- Node8 -->
<g id="node6" class="node">
<title>Node8</title>
<g id="a_node6"><a xlink:href="concord-once_8h.html" target="_top" xlink:title="Initialized once.">
<polygon fill="none" stroke="black" points="259,-56.5 259,-75.5 350,-75.5 350,-56.5 259,-56.5"/>
<text text-anchor="middle" x="304.5" y="-63.5" font-family="Helvetica,sans-Serif" font-size="10.00">concord&#45;once.h</text>
</a>
</g>
</g>
<!-- Node1&#45;&gt;Node8 -->
<g id="edge5" class="edge">
<title>Node1&#45;&gt;Node8</title>
<path fill="none" stroke="midnightblue" d="M1080.74,-119.89C959.43,-116.79 638.66,-106.28 360.37,-75.96"/>
<polygon fill="midnightblue" stroke="midnightblue" points="360.39,-72.45 350.07,-74.83 359.63,-79.4 360.39,-72.45"/>
</g>
<!-- Node9 -->
<g id="node7" class="node">
<title>Node9</title>
<g id="a_node7"><a xlink:href="io__poller_8h.html" target="_top" xlink:title=" ">
<polygon fill="none" stroke="red" points="368,-56.5 368,-75.5 435,-75.5 435,-56.5 368,-56.5"/>
<text text-anchor="middle" x="401.5" y="-63.5" font-family="Helvetica,sans-Serif" font-size="10.00">io_poller.h</text>
</a>
</g>
</g>
<!-- Node1&#45;&gt;Node9 -->
<g id="edge6" class="edge">
<title>Node1&#45;&gt;Node9</title>
<path fill="none" stroke="midnightblue" d="M1080.76,-120.13C968.94,-117.67 689.09,-108.64 445.34,-75.9"/>
<polygon fill="midnightblue" stroke="midnightblue" points="445.6,-72.41 435.22,-74.53 444.66,-79.34 445.6,-72.41"/>
</g>
<!-- Node11 -->
<g id="node8" class="node">
<title>Node11</title>
<g id="a_node8"><a xlink:title=" ">
<polygon fill="none" stroke="#bfbfbf" points="453.5,-56.5 453.5,-75.5 553.5,-75.5 553.5,-56.5 453.5,-56.5"/>
<text text-anchor="middle" x="503.5" y="-63.5" font-family="Helvetica,sans-Serif" font-size="10.00">discord_codecs.h</text>
</a>
</g>
</g>
<!-- Node1&#45;&gt;Node11 -->
<g id="edge8" class="edge">
<title>Node1&#45;&gt;Node11</title>
<path fill="none" stroke="midnightblue" d="M1080.71,-118.22C981.89,-112.44 754.07,-97.83 563.5,-76 563.4,-75.99 563.3,-75.98 563.2,-75.97"/>
<polygon fill="midnightblue" stroke="midnightblue" points="563.91,-72.53 553.56,-74.77 563.05,-79.47 563.91,-72.53"/>
</g>
<!-- Node12 -->
<g id="node9" class="node">
<title>Node12</title>
<g id="a_node9"><a xlink:href="discord-response_8h.html" target="_top" xlink:title="Generic macros for initializing a discord_response and return handles.">
<polygon fill="none" stroke="black" points="572,-56.5 572,-75.5 681,-75.5 681,-56.5 572,-56.5"/>
<text text-anchor="middle" x="626.5" y="-63.5" font-family="Helvetica,sans-Serif" font-size="10.00">discord&#45;response.h</text>
</a>
</g>
</g>
<!-- Node1&#45;&gt;Node12 -->
<g id="edge9" class="edge">
<title>Node1&#45;&gt;Node12</title>
<path fill="none" stroke="midnightblue" d="M1080.94,-116.55C1001.24,-109.25 839.38,-93.88 691.47,-76.08"/>
<polygon fill="midnightblue" stroke="midnightblue" points="691.64,-72.57 681.29,-74.84 690.8,-79.52 691.64,-72.57"/>
</g>
<!-- Node13 -->
<g id="node10" class="node">
<title>Node13</title>
<g id="a_node10"><a xlink:href="include_2audit__log_8h.html" target="_top" xlink:title="Audit Log public functions and datatypes.">
<polygon fill="none" stroke="black" points="699,-56.5 699,-75.5 770,-75.5 770,-56.5 699,-56.5"/>
<text text-anchor="middle" x="734.5" y="-63.5" font-family="Helvetica,sans-Serif" font-size="10.00">audit_log.h</text>
</a>
</g>
</g>
<!-- Node1&#45;&gt;Node13 -->
<g id="edge10" class="edge">
<title>Node1&#45;&gt;Node13</title>
<path fill="none" stroke="midnightblue" d="M1080.93,-115.75C1014.74,-108.49 893.61,-94.37 780.21,-76.01"/>
<polygon fill="midnightblue" stroke="midnightblue" points="780.75,-72.56 770.32,-74.4 779.63,-79.46 780.75,-72.56"/>
</g>
<!-- Node14 -->
<g id="node11" class="node">
<title>Node14</title>
<g id="a_node11"><a xlink:href="include_2auto__moderation_8h.html" target="_top" xlink:title="Auto Moderation public functions and datatypes.">
<polygon fill="none" stroke="black" points="788,-56.5 788,-75.5 897,-75.5 897,-56.5 788,-56.5"/>
<text text-anchor="middle" x="842.5" y="-63.5" font-family="Helvetica,sans-Serif" font-size="10.00">auto_moderation.h</text>
</a>
</g>
</g>
<!-- Node1&#45;&gt;Node14 -->
<g id="edge11" class="edge">
<title>Node1&#45;&gt;Node14</title>
<path fill="none" stroke="midnightblue" d="M1084.87,-112.44C1034.2,-102.94 952.43,-87.61 898.07,-77.42"/>
<polygon fill="midnightblue" stroke="midnightblue" points="898.39,-73.92 887.92,-75.52 897.1,-80.8 898.39,-73.92"/>
</g>
<!-- Node15 -->
<g id="node12" class="node">
<title>Node15</title>
<g id="a_node12"><a xlink:href="include_2invite_8h.html" target="_top" xlink:title="Invite public functions and datatypes.">
<polygon fill="none" stroke="black" points="915,-56.5 915,-75.5 968,-75.5 968,-56.5 915,-56.5"/>
<text text-anchor="middle" x="941.5" y="-63.5" font-family="Helvetica,sans-Serif" font-size="10.00">invite.h</text>
</a>
</g>
</g>
<!-- Node1&#45;&gt;Node15 -->
<g id="edge12" class="edge">
<title>Node1&#45;&gt;Node15</title>
<path fill="none" stroke="midnightblue" d="M1100.55,-112.44C1067.39,-102.97 1013.93,-87.69 978.26,-77.5"/>
<polygon fill="midnightblue" stroke="midnightblue" points="978.83,-74.03 968.25,-74.64 976.91,-80.76 978.83,-74.03"/>
</g>
<!-- Node16 -->
<g id="node13" class="node">
<title>Node16</title>
<g id="a_node13"><a xlink:href="include_2channel_8h.html" target="_top" xlink:title="Channel public functions and datatypes.">
<polygon fill="none" stroke="black" points="986.5,-56.5 986.5,-75.5 1050.5,-75.5 1050.5,-56.5 986.5,-56.5"/>
<text text-anchor="middle" x="1018.5" y="-63.5" font-family="Helvetica,sans-Serif" font-size="10.00">channel.h</text>
</a>
</g>
</g>
<!-- Node1&#45;&gt;Node16 -->
<g id="edge13" class="edge">
<title>Node1&#45;&gt;Node16</title>
<path fill="none" stroke="midnightblue" d="M1112.51,-112.32C1094.46,-103.62 1066.45,-90.12 1045.7,-80.11"/>
<polygon fill="midnightblue" stroke="midnightblue" points="1046.98,-76.84 1036.45,-75.65 1043.94,-83.15 1046.98,-76.84"/>
</g>
<!-- Node17 -->
<g id="node14" class="node">
<title>Node17</title>
<g id="a_node14"><a xlink:href="include_2emoji_8h.html" target="_top" xlink:title="Emoji public functions and datatypes.">
<polygon fill="none" stroke="black" points="1069,-56.5 1069,-75.5 1122,-75.5 1122,-56.5 1069,-56.5"/>
<text text-anchor="middle" x="1095.5" y="-63.5" font-family="Helvetica,sans-Serif" font-size="10.00">emoji.h</text>
</a>
</g>
</g>
<!-- Node1&#45;&gt;Node17 -->
<g id="edge14" class="edge">
<title>Node1&#45;&gt;Node17</title>
<path fill="none" stroke="midnightblue" d="M1124.72,-112.08C1119.83,-104.53 1112.67,-93.49 1106.67,-84.23"/>
<polygon fill="midnightblue" stroke="midnightblue" points="1109.55,-82.24 1101.17,-75.75 1103.67,-86.05 1109.55,-82.24"/>
</g>
<!-- Node18 -->
<g id="node15" class="node">
<title>Node18</title>
<g id="a_node15"><a xlink:href="include_2guild_8h.html" target="_top" xlink:title="Guild public functions and datatypes.">
<polygon fill="none" stroke="black" points="1140.5,-56.5 1140.5,-75.5 1190.5,-75.5 1190.5,-56.5 1140.5,-56.5"/>
<text text-anchor="middle" x="1165.5" y="-63.5" font-family="Helvetica,sans-Serif" font-size="10.00">guild.h</text>
</a>
</g>
</g>
<!-- Node1&#45;&gt;Node18 -->
<g id="edge15" class="edge">
<title>Node1&#45;&gt;Node18</title>
<path fill="none" stroke="midnightblue" d="M1136.28,-112.08C1141.17,-104.53 1148.33,-93.49 1154.33,-84.23"/>
<polygon fill="midnightblue" stroke="midnightblue" points="1157.33,-86.05 1159.83,-75.75 1151.45,-82.24 1157.33,-86.05"/>
</g>
<!-- Node19 -->
<g id="node16" class="node">
<title>Node19</title>
<g id="a_node16"><a xlink:href="include_2guild__scheduled__event_8h.html" target="_top" xlink:title="Guild Scheduled Event public functions and datatypes.">
<polygon fill="none" stroke="black" points="1209,-56.5 1209,-75.5 1346,-75.5 1346,-56.5 1209,-56.5"/>
<text text-anchor="middle" x="1277.5" y="-63.5" font-family="Helvetica,sans-Serif" font-size="10.00">guild_scheduled_event.h</text>
</a>
</g>
</g>
<!-- Node1&#45;&gt;Node19 -->
<g id="edge16" class="edge">
<title>Node1&#45;&gt;Node19</title>
<path fill="none" stroke="midnightblue" d="M1153.79,-112.44C1178.31,-103.44 1217.1,-89.19 1244.7,-79.05"/>
<polygon fill="midnightblue" stroke="midnightblue" points="1246.14,-82.25 1254.32,-75.52 1243.72,-75.68 1246.14,-82.25"/>
</g>
<!-- Node20 -->
<g id="node17" class="node">
<title>Node20</title>
<g id="a_node17"><a xlink:href="include_2guild__template_8h.html" target="_top" xlink:title="Guild Template public functions and datatypes.">
<polygon fill="none" stroke="black" points="1364,-56.5 1364,-75.5 1463,-75.5 1463,-56.5 1364,-56.5"/>
<text text-anchor="middle" x="1413.5" y="-63.5" font-family="Helvetica,sans-Serif" font-size="10.00">guild_template.h</text>
</a>
</g>
</g>
<!-- Node1&#45;&gt;Node20 -->
<g id="edge17" class="edge">
<title>Node1&#45;&gt;Node20</title>
<path fill="none" stroke="midnightblue" d="M1175.34,-112.44C1225.12,-102.94 1305.48,-87.61 1358.89,-77.42"/>
<polygon fill="midnightblue" stroke="midnightblue" points="1359.7,-80.83 1368.87,-75.52 1358.39,-73.95 1359.7,-80.83"/>
</g>
<!-- Node21 -->
<g id="node18" class="node">
<title>Node21</title>
<g id="a_node18"><a xlink:href="include_2stage__instance_8h.html" target="_top" xlink:title="Stage Instance public functions and datatypes.">
<polygon fill="none" stroke="black" points="1481,-56.5 1481,-75.5 1580,-75.5 1580,-56.5 1481,-56.5"/>
<text text-anchor="middle" x="1530.5" y="-63.5" font-family="Helvetica,sans-Serif" font-size="10.00">stage_instance.h</text>
</a>
</g>
</g>
<!-- Node1&#45;&gt;Node21 -->
<g id="edge18" class="edge">
<title>Node1&#45;&gt;Node21</title>
<path fill="none" stroke="midnightblue" d="M1180.11,-114.84C1244.67,-106.74 1361.28,-91.83 1470.62,-76.25"/>
<polygon fill="midnightblue" stroke="midnightblue" points="1471.43,-79.66 1480.84,-74.78 1470.44,-72.73 1471.43,-79.66"/>
</g>
<!-- Node22 -->
<g id="node19" class="node">
<title>Node22</title>
<g id="a_node19"><a xlink:href="include_2sticker_8h.html" target="_top" xlink:title="Sticker public functions and datatypes.">
<polygon fill="none" stroke="black" points="1598,-56.5 1598,-75.5 1655,-75.5 1655,-56.5 1598,-56.5"/>
<text text-anchor="middle" x="1626.5" y="-63.5" font-family="Helvetica,sans-Serif" font-size="10.00">sticker.h</text>
</a>
</g>
</g>
<!-- Node1&#45;&gt;Node22 -->
<g id="edge19" class="edge">
<title>Node1&#45;&gt;Node22</title>
<path fill="none" stroke="midnightblue" d="M1180.05,-118.44C1262.72,-113.66 1434.12,-101.63 1587.8,-76.08"/>
<polygon fill="midnightblue" stroke="midnightblue" points="1588.62,-79.49 1597.9,-74.38 1587.46,-72.59 1588.62,-79.49"/>
</g>
<!-- Node23 -->
<g id="node20" class="node">
<title>Node23</title>
<g id="a_node20"><a xlink:href="include_2user_8h.html" target="_top" xlink:title="User public functions and datatypes.">
<polygon fill="none" stroke="black" points="1673.5,-56.5 1673.5,-75.5 1719.5,-75.5 1719.5,-56.5 1673.5,-56.5"/>
<text text-anchor="middle" x="1696.5" y="-63.5" font-family="Helvetica,sans-Serif" font-size="10.00">user.h</text>
</a>
</g>
</g>
<!-- Node1&#45;&gt;Node23 -->
<g id="edge20" class="edge">
<title>Node1&#45;&gt;Node23</title>
<path fill="none" stroke="midnightblue" d="M1180.24,-119.96C1273.42,-117.32 1480.61,-108.24 1663.15,-75.91"/>
<polygon fill="midnightblue" stroke="midnightblue" points="1663.98,-79.32 1673.2,-74.11 1662.74,-72.43 1663.98,-79.32"/>
</g>
<!-- Node24 -->
<g id="node21" class="node">
<title>Node24</title>
<g id="a_node21"><a xlink:href="include_2voice_8h.html" target="_top" xlink:title="Voice public functions and datatypes.">
<polygon fill="none" stroke="black" points="1737.5,-56.5 1737.5,-75.5 1789.5,-75.5 1789.5,-56.5 1737.5,-56.5"/>
<text text-anchor="middle" x="1763.5" y="-63.5" font-family="Helvetica,sans-Serif" font-size="10.00">voice.h</text>
</a>
</g>
</g>
<!-- Node1&#45;&gt;Node24 -->
<g id="edge21" class="edge">
<title>Node1&#45;&gt;Node24</title>
<path fill="none" stroke="midnightblue" d="M1180.08,-120.22C1281.35,-118 1519.31,-109.51 1727.35,-75.9"/>
<polygon fill="midnightblue" stroke="midnightblue" points="1727.93,-79.36 1737.23,-74.28 1726.8,-72.45 1727.93,-79.36"/>
</g>
<!-- Node25 -->
<g id="node22" class="node">
<title>Node25</title>
<g id="a_node22"><a xlink:href="include_2webhook_8h.html" target="_top" xlink:title="Webhook public functions and datatypes.">
<polygon fill="none" stroke="black" points="1807.5,-56.5 1807.5,-75.5 1877.5,-75.5 1877.5,-56.5 1807.5,-56.5"/>
<text text-anchor="middle" x="1842.5" y="-63.5" font-family="Helvetica,sans-Serif" font-size="10.00">webhook.h</text>
</a>
</g>
</g>
<!-- Node1&#45;&gt;Node25 -->
<g id="edge22" class="edge">
<title>Node1&#45;&gt;Node25</title>
<path fill="none" stroke="midnightblue" d="M1180.17,-119.94C1289.81,-117.1 1560.89,-107.38 1796.88,-76.05"/>
<polygon fill="midnightblue" stroke="midnightblue" points="1797.58,-79.48 1807.03,-74.68 1796.65,-72.55 1797.58,-79.48"/>
</g>
<!-- Node26 -->
<g id="node23" class="node">
<title>Node26</title>
<g id="a_node23"><a xlink:href="include_2gateway_8h.html" target="_top" xlink:title="Gateway public functions and datatypes.">
<polygon fill="none" stroke="black" points="1895.5,-56.5 1895.5,-75.5 1961.5,-75.5 1961.5,-56.5 1895.5,-56.5"/>
<text text-anchor="middle" x="1928.5" y="-63.5" font-family="Helvetica,sans-Serif" font-size="10.00">gateway.h</text>
</a>
</g>
</g>
<!-- Node1&#45;&gt;Node26 -->
<g id="edge23" class="edge">
<title>Node1&#45;&gt;Node26</title>
<path fill="none" stroke="midnightblue" d="M1180.29,-120.64C1300.14,-119.22 1614.24,-112.17 1885.09,-75.99"/>
<polygon fill="midnightblue" stroke="midnightblue" points="1885.67,-79.44 1895.11,-74.63 1884.73,-72.5 1885.67,-79.44"/>
</g>
<!-- Node27 -->
<g id="node24" class="node">
<title>Node27</title>
<g id="a_node24"><a xlink:href="include_2oauth2_8h.html" target="_top" xlink:title="OAuth2 public functions and datatypes.">
<polygon fill="none" stroke="black" points="1980,-56.5 1980,-75.5 2039,-75.5 2039,-56.5 1980,-56.5"/>
<text text-anchor="middle" x="2009.5" y="-63.5" font-family="Helvetica,sans-Serif" font-size="10.00">oauth2.h</text>
</a>
</g>
</g>
<!-- Node1&#45;&gt;Node27 -->
<g id="edge24" class="edge">
<title>Node1&#45;&gt;Node27</title>
<path fill="none" stroke="midnightblue" d="M1180.02,-121.33C1308.82,-121.55 1664.84,-118.1 1969.87,-75.81"/>
<polygon fill="midnightblue" stroke="midnightblue" points="1970.37,-79.27 1979.79,-74.42 1969.4,-72.34 1970.37,-79.27"/>
</g>
<!-- Node28 -->
<g id="node25" class="node">
<title>Node28</title>
<g id="a_node25"><a xlink:href="application__command_8h.html" target="_top" xlink:title="Application Command public functions and datatypes.">
<polygon fill="none" stroke="black" points="2057.5,-56.5 2057.5,-75.5 2191.5,-75.5 2191.5,-56.5 2057.5,-56.5"/>
<text text-anchor="middle" x="2124.5" y="-63.5" font-family="Helvetica,sans-Serif" font-size="10.00">application_command.h</text>
</a>
</g>
</g>
<!-- Node1&#45;&gt;Node28 -->
<g id="edge25" class="edge">
<title>Node1&#45;&gt;Node28</title>
<path fill="none" stroke="midnightblue" d="M1180.33,-119.76C1317.1,-116.11 1709.98,-103.9 2047.42,-76.03"/>
<polygon fill="midnightblue" stroke="midnightblue" points="2047.71,-79.52 2057.39,-75.2 2047.13,-72.54 2047.71,-79.52"/>
</g>
<!-- Node29 -->
<g id="node26" class="node">
<title>Node29</title>
<g id="a_node26"><a xlink:href="interaction_8h.html" target="_top" xlink:title="Interaciton public functions and datatypes.">
<polygon fill="none" stroke="black" points="2209.5,-56.5 2209.5,-75.5 2287.5,-75.5 2287.5,-56.5 2209.5,-56.5"/>
<text text-anchor="middle" x="2248.5" y="-63.5" font-family="Helvetica,sans-Serif" font-size="10.00">interaction.h</text>
</a>
</g>
</g>
<!-- Node1&#45;&gt;Node29 -->
<g id="edge26" class="edge">
<title>Node1&#45;&gt;Node29</title>
<path fill="none" stroke="midnightblue" d="M1180.02,-121.43C1331.38,-122.22 1801.22,-120.72 2199.3,-75.96"/>
<polygon fill="midnightblue" stroke="midnightblue" points="2199.74,-79.43 2209.28,-74.83 2198.95,-72.48 2199.74,-79.43"/>
</g>
<!-- Node30 -->
<g id="node27" class="node">
<title>Node30</title>
<g id="a_node27"><a xlink:href="discord-events_8h.html" target="_top" xlink:title="Listen, react and trigger Discord Gateway events.">
<polygon fill="none" stroke="black" points="2305.5,-56.5 2305.5,-75.5 2403.5,-75.5 2403.5,-56.5 2305.5,-56.5"/>
<text text-anchor="middle" x="2354.5" y="-63.5" font-family="Helvetica,sans-Serif" font-size="10.00">discord&#45;events.h</text>
</a>
</g>
</g>
<!-- Node1&#45;&gt;Node30 -->
<g id="edge27" class="edge">
<title>Node1&#45;&gt;Node30</title>
<path fill="none" stroke="midnightblue" d="M1180.08,-121.13C1340.12,-121.11 1857.57,-117.67 2295.19,-76.01"/>
<polygon fill="midnightblue" stroke="midnightblue" points="2295.57,-79.49 2305.19,-75.05 2294.9,-72.52 2295.57,-79.49"/>
</g>
<!-- Node9&#45;&gt;Node3 -->
<g id="edge7" class="edge">
<title>Node9&#45;&gt;Node3</title>
<path fill="none" stroke="midnightblue" d="M377.1,-56.44C351.3,-47.4 310.42,-33.06 281.48,-22.92"/>
<polygon fill="midnightblue" stroke="midnightblue" points="282.38,-19.52 271.79,-19.52 280.07,-26.13 282.38,-19.52"/>
</g>
</g>
</svg>
