<?xml version="1.0" encoding="UTF-8" standalone="no"?>
<!DOCTYPE svg PUBLIC "-//W3C//DTD SVG 1.1//EN"
 "http://www.w3.org/Graphics/SVG/1.1/DTD/svg11.dtd">
<!-- Generated by graphviz version 2.43.0 (0)
 -->
<!-- Title: include/discord.h Pages: 1 -->
<svg width="1940pt" height="140pt"
 viewBox="0.00 0.00 1939.50 140.00" xmlns="http://www.w3.org/2000/svg" xmlns:xlink="http://www.w3.org/1999/xlink">
<g id="graph0" class="graph" transform="scale(1 1) rotate(0) translate(4 136)">
<title>include/discord.h</title>
<!-- Node1 -->
<g id="node1" class="node">
<title>Node1</title>
<g id="a_node1"><a xlink:title="Public functions and datatypes.">
<polygon fill="#bfbfbf" stroke="black" points="883,-112.5 883,-131.5 982,-131.5 982,-112.5 883,-112.5"/>
<text text-anchor="middle" x="932.5" y="-119.5" font-family="Helvetica,sans-Serif" font-size="10.00">include/discord.h</text>
</a>
</g>
</g>
<!-- Node2 -->
<g id="node2" class="node">
<title>Node2</title>
<g id="a_node2"><a xlink:title=" ">
<polygon fill="none" stroke="#bfbfbf" points="0,-56.5 0,-75.5 65,-75.5 65,-56.5 0,-56.5"/>
<text text-anchor="middle" x="32.5" y="-63.5" font-family="Helvetica,sans-Serif" font-size="10.00">inttypes.h</text>
</a>
</g>
</g>
<!-- Node1&#45;&gt;Node2 -->
<g id="edge1" class="edge">
<title>Node1&#45;&gt;Node2</title>
<path fill="none" stroke="midnightblue" d="M882.78,-120.74C751.19,-119.55 383.13,-112.9 79.5,-76 78.03,-75.82 76.54,-75.62 75.03,-75.41"/>
<polygon fill="midnightblue" stroke="midnightblue" points="75.45,-71.93 65.03,-73.82 74.35,-78.85 75.45,-71.93"/>
</g>
<!-- Node3 -->
<g id="node3" class="node">
<title>Node3</title>
<g id="a_node3"><a xlink:title=" ">
<polygon fill="none" stroke="#bfbfbf" points="256.5,-0.5 256.5,-19.5 318.5,-19.5 318.5,-0.5 256.5,-0.5"/>
<text text-anchor="middle" x="287.5" y="-7.5" font-family="Helvetica,sans-Serif" font-size="10.00">stdbool.h</text>
</a>
</g>
</g>
<!-- Node1&#45;&gt;Node3 -->
<g id="edge2" class="edge">
<title>Node1&#45;&gt;Node3</title>
<path fill="none" stroke="midnightblue" d="M882.76,-120.13C709.13,-116.88 139.07,-104.07 112.5,-76 71.03,-32.19 182.38,-17.72 246.25,-13.09"/>
<polygon fill="midnightblue" stroke="midnightblue" points="246.7,-16.57 256.44,-12.41 246.23,-9.59 246.7,-16.57"/>
</g>
<!-- Node4 -->
<g id="node4" class="node">
<title>Node4</title>
<g id="a_node4"><a xlink:title=" ">
<polygon fill="none" stroke="#bfbfbf" points="122,-56.5 122,-75.5 183,-75.5 183,-56.5 122,-56.5"/>
<text text-anchor="middle" x="152.5" y="-63.5" font-family="Helvetica,sans-Serif" font-size="10.00">logconf.h</text>
</a>
</g>
</g>
<!-- Node1&#45;&gt;Node4 -->
<g id="edge3" class="edge">
<title>Node1&#45;&gt;Node4</title>
<path fill="none" stroke="midnightblue" d="M882.86,-120.73C764.9,-119.48 458.46,-112.81 193.61,-75.91"/>
<polygon fill="midnightblue" stroke="midnightblue" points="193.81,-72.4 183.42,-74.47 192.83,-79.33 193.81,-72.4"/>
</g>
<!-- Node5 -->
<g id="node5" class="node">
<title>Node5</title>
<g id="a_node5"><a xlink:href="error_8h.html" target="_top" xlink:title=" ">
<polygon fill="none" stroke="black" points="201.5,-56.5 201.5,-75.5 249.5,-75.5 249.5,-56.5 201.5,-56.5"/>
<text text-anchor="middle" x="225.5" y="-63.5" font-family="Helvetica,sans-Serif" font-size="10.00">error.h</text>
</a>
</g>
</g>
<!-- Node1&#45;&gt;Node5 -->
<g id="edge4" class="edge">
<title>Node1&#45;&gt;Node5</title>
<path fill="none" stroke="midnightblue" d="M882.73,-120.93C770.67,-120.05 490.32,-113.91 259.5,-76 259.4,-75.98 259.3,-75.97 259.19,-75.95"/>
<polygon fill="midnightblue" stroke="midnightblue" points="260.02,-72.55 249.52,-73.97 258.62,-79.4 260.02,-72.55"/>
</g>
<!-- Node6 -->
<g id="node6" class="node">
<title>Node6</title>
<g id="a_node6"><a xlink:href="types_8h.html" target="_top" xlink:title=" ">
<polygon fill="none" stroke="black" points="268,-56.5 268,-75.5 321,-75.5 321,-56.5 268,-56.5"/>
<text text-anchor="middle" x="294.5" y="-63.5" font-family="Helvetica,sans-Serif" font-size="10.00">types.h</text>
</a>
</g>
</g>
<!-- Node1&#45;&gt;Node6 -->
<g id="edge5" class="edge">
<title>Node1&#45;&gt;Node6</title>
<path fill="none" stroke="midnightblue" d="M882.61,-120.14C780.69,-117.76 541.2,-109.01 331.11,-75.8"/>
<polygon fill="midnightblue" stroke="midnightblue" points="331.56,-72.32 321.13,-74.19 330.45,-79.23 331.56,-72.32"/>
</g>
<!-- Node7 -->
<g id="node7" class="node">
<title>Node7</title>
<g id="a_node7"><a xlink:href="concord-once_8h.html" target="_top" xlink:title="Initialized once.">
<polygon fill="none" stroke="black" points="339,-56.5 339,-75.5 430,-75.5 430,-56.5 339,-56.5"/>
<text text-anchor="middle" x="384.5" y="-63.5" font-family="Helvetica,sans-Serif" font-size="10.00">concord&#45;once.h</text>
</a>
</g>
</g>
<!-- Node1&#45;&gt;Node7 -->
<g id="edge6" class="edge">
<title>Node1&#45;&gt;Node7</title>
<path fill="none" stroke="midnightblue" d="M882.69,-117.63C795.32,-111.47 608.54,-97.14 440.12,-75.99"/>
<polygon fill="midnightblue" stroke="midnightblue" points="440.44,-72.5 430.08,-74.72 439.56,-79.44 440.44,-72.5"/>
</g>
<!-- Node8 -->
<g id="node8" class="node">
<title>Node8</title>
<g id="a_node8"><a xlink:href="io__poller_8h_source.html" target="_top" xlink:title=" ">
<polygon fill="none" stroke="red" points="448,-56.5 448,-75.5 515,-75.5 515,-56.5 448,-56.5"/>
<text text-anchor="middle" x="481.5" y="-63.5" font-family="Helvetica,sans-Serif" font-size="10.00">io_poller.h</text>
</a>
</g>
</g>
<!-- Node1&#45;&gt;Node8 -->
<g id="edge7" class="edge">
<title>Node1&#45;&gt;Node8</title>
<path fill="none" stroke="midnightblue" d="M882.99,-117.09C807.9,-110.82 660.53,-97.19 525.37,-75.99"/>
<polygon fill="midnightblue" stroke="midnightblue" points="525.67,-72.49 515.24,-74.38 524.57,-79.41 525.67,-72.49"/>
</g>
<!-- Node10 -->
<g id="node9" class="node">
<title>Node10</title>
<g id="a_node9"><a xlink:title=" ">
<polygon fill="none" stroke="#bfbfbf" points="533.5,-56.5 533.5,-75.5 633.5,-75.5 633.5,-56.5 533.5,-56.5"/>
<text text-anchor="middle" x="583.5" y="-63.5" font-family="Helvetica,sans-Serif" font-size="10.00">discord_codecs.h</text>
</a>
</g>
</g>
<!-- Node1&#45;&gt;Node10 -->
<g id="edge9" class="edge">
<title>Node1&#45;&gt;Node10</title>
<path fill="none" stroke="midnightblue" d="M882.87,-113.32C819.86,-103.57 711.24,-86.76 643.61,-76.3"/>
<polygon fill="midnightblue" stroke="midnightblue" points="643.94,-72.81 633.53,-74.74 642.87,-79.73 643.94,-72.81"/>
</g>
<!-- Node11 -->
<g id="node10" class="node">
<title>Node11</title>
<g id="a_node10"><a xlink:href="discord-response_8h.html" target="_top" xlink:title="Generic macros for initializing a discord_response and return handles.">
<polygon fill="none" stroke="black" points="652,-56.5 652,-75.5 761,-75.5 761,-56.5 652,-56.5"/>
<text text-anchor="middle" x="706.5" y="-63.5" font-family="Helvetica,sans-Serif" font-size="10.00">discord&#45;response.h</text>
</a>
</g>
</g>
<!-- Node1&#45;&gt;Node11 -->
<g id="edge10" class="edge">
<title>Node1&#45;&gt;Node11</title>
<path fill="none" stroke="midnightblue" d="M896.69,-112.44C857.51,-103.08 794.62,-88.06 751.98,-77.87"/>
<polygon fill="midnightblue" stroke="midnightblue" points="752.68,-74.44 742.14,-75.52 751.06,-81.24 752.68,-74.44"/>
</g>
<!-- Node12 -->
<g id="node11" class="node">
<title>Node12</title>
<g id="a_node11"><a xlink:href="include_2audit__log_8h.html" target="_top" xlink:title="Audit Log public functions and datatypes.">
<polygon fill="none" stroke="black" points="779,-56.5 779,-75.5 850,-75.5 850,-56.5 779,-56.5"/>
<text text-anchor="middle" x="814.5" y="-63.5" font-family="Helvetica,sans-Serif" font-size="10.00">audit_log.h</text>
</a>
</g>
</g>
<!-- Node1&#45;&gt;Node12 -->
<g id="edge11" class="edge">
<title>Node1&#45;&gt;Node12</title>
<path fill="none" stroke="midnightblue" d="M913.8,-112.44C894.56,-103.64 864.35,-89.81 842.3,-79.72"/>
<polygon fill="midnightblue" stroke="midnightblue" points="843.66,-76.5 833.11,-75.52 840.75,-82.86 843.66,-76.5"/>
</g>
<!-- Node13 -->
<g id="node12" class="node">
<title>Node13</title>
<g id="a_node12"><a xlink:href="include_2invite_8h.html" target="_top" xlink:title="Invite public functions and datatypes.">
<polygon fill="none" stroke="black" points="868,-56.5 868,-75.5 921,-75.5 921,-56.5 868,-56.5"/>
<text text-anchor="middle" x="894.5" y="-63.5" font-family="Helvetica,sans-Serif" font-size="10.00">invite.h</text>
</a>
</g>
</g>
<!-- Node1&#45;&gt;Node13 -->
<g id="edge12" class="edge">
<title>Node1&#45;&gt;Node13</title>
<path fill="none" stroke="midnightblue" d="M926.23,-112.08C920.86,-104.46 912.98,-93.26 906.42,-83.94"/>
<polygon fill="midnightblue" stroke="midnightblue" points="909.28,-81.91 900.66,-75.75 903.55,-85.94 909.28,-81.91"/>
</g>
<!-- Node14 -->
<g id="node13" class="node">
<title>Node14</title>
<g id="a_node13"><a xlink:href="include_2channel_8h.html" target="_top" xlink:title="Channel public functions and datatypes.">
<polygon fill="none" stroke="black" points="939.5,-56.5 939.5,-75.5 1003.5,-75.5 1003.5,-56.5 939.5,-56.5"/>
<text text-anchor="middle" x="971.5" y="-63.5" font-family="Helvetica,sans-Serif" font-size="10.00">channel.h</text>
</a>
</g>
</g>
<!-- Node1&#45;&gt;Node14 -->
<g id="edge13" class="edge">
<title>Node1&#45;&gt;Node14</title>
<path fill="none" stroke="midnightblue" d="M938.94,-112.08C944.45,-104.46 952.53,-93.26 959.26,-83.94"/>
<polygon fill="midnightblue" stroke="midnightblue" points="962.16,-85.91 965.18,-75.75 956.49,-81.81 962.16,-85.91"/>
</g>
<!-- Node15 -->
<g id="node14" class="node">
<title>Node15</title>
<g id="a_node14"><a xlink:href="include_2emoji_8h.html" target="_top" xlink:title="Emoji public functions and datatypes.">
<polygon fill="none" stroke="black" points="1022,-56.5 1022,-75.5 1075,-75.5 1075,-56.5 1022,-56.5"/>
<text text-anchor="middle" x="1048.5" y="-63.5" font-family="Helvetica,sans-Serif" font-size="10.00">emoji.h</text>
</a>
</g>
</g>
<!-- Node1&#45;&gt;Node15 -->
<g id="edge14" class="edge">
<title>Node1&#45;&gt;Node15</title>
<path fill="none" stroke="midnightblue" d="M950.88,-112.44C969.72,-103.68 999.23,-89.94 1020.88,-79.86"/>
<polygon fill="midnightblue" stroke="midnightblue" points="1022.62,-82.91 1030.21,-75.52 1019.66,-76.56 1022.62,-82.91"/>
</g>
<!-- Node16 -->
<g id="node15" class="node">
<title>Node16</title>
<g id="a_node15"><a xlink:href="include_2guild_8h.html" target="_top" xlink:title="Guild public functions and datatypes.">
<polygon fill="none" stroke="black" points="1093.5,-56.5 1093.5,-75.5 1143.5,-75.5 1143.5,-56.5 1093.5,-56.5"/>
<text text-anchor="middle" x="1118.5" y="-63.5" font-family="Helvetica,sans-Serif" font-size="10.00">guild.h</text>
</a>
</g>
</g>
<!-- Node1&#45;&gt;Node16 -->
<g id="edge15" class="edge">
<title>Node1&#45;&gt;Node16</title>
<path fill="none" stroke="midnightblue" d="M961.97,-112.44C994.98,-102.86 1048.43,-87.34 1083.52,-77.15"/>
<polygon fill="midnightblue" stroke="midnightblue" points="1084.71,-80.45 1093.34,-74.3 1082.76,-73.73 1084.71,-80.45"/>
</g>
<!-- Node17 -->
<g id="node16" class="node">
<title>Node17</title>
<g id="a_node16"><a xlink:href="include_2guild__template_8h.html" target="_top" xlink:title="Guild Template public functions and datatypes.">
<polygon fill="none" stroke="black" points="1162,-56.5 1162,-75.5 1261,-75.5 1261,-56.5 1162,-56.5"/>
<text text-anchor="middle" x="1211.5" y="-63.5" font-family="Helvetica,sans-Serif" font-size="10.00">guild_template.h</text>
</a>
</g>
</g>
<!-- Node1&#45;&gt;Node17 -->
<g id="edge16" class="edge">
<title>Node1&#45;&gt;Node17</title>
<path fill="none" stroke="midnightblue" d="M976.71,-112.44C1025.79,-102.94 1105.01,-87.61 1157.66,-77.42"/>
<polygon fill="midnightblue" stroke="midnightblue" points="1158.35,-80.85 1167.5,-75.52 1157.02,-73.98 1158.35,-80.85"/>
</g>
<!-- Node18 -->
<g id="node17" class="node">
<title>Node18</title>
<g id="a_node17"><a xlink:href="include_2user_8h.html" target="_top" xlink:title="User public functions and datatypes.">
<polygon fill="none" stroke="black" points="1279.5,-56.5 1279.5,-75.5 1325.5,-75.5 1325.5,-56.5 1279.5,-56.5"/>
<text text-anchor="middle" x="1302.5" y="-63.5" font-family="Helvetica,sans-Serif" font-size="10.00">user.h</text>
</a>
</g>
</g>
<!-- Node1&#45;&gt;Node18 -->
<g id="edge17" class="edge">
<title>Node1&#45;&gt;Node18</title>
<path fill="none" stroke="midnightblue" d="M982.13,-116.62C1046.34,-110.45 1161.78,-97.71 1269.15,-76.03"/>
<polygon fill="midnightblue" stroke="midnightblue" points="1270.08,-79.41 1279.18,-73.97 1268.68,-72.55 1270.08,-79.41"/>
</g>
<!-- Node19 -->
<g id="node18" class="node">
<title>Node19</title>
<g id="a_node18"><a xlink:href="include_2voice_8h.html" target="_top" xlink:title="Voice public functions and datatypes.">
<polygon fill="none" stroke="black" points="1343.5,-56.5 1343.5,-75.5 1395.5,-75.5 1395.5,-56.5 1343.5,-56.5"/>
<text text-anchor="middle" x="1369.5" y="-63.5" font-family="Helvetica,sans-Serif" font-size="10.00">voice.h</text>
</a>
</g>
</g>
<!-- Node1&#45;&gt;Node19 -->
<g id="edge18" class="edge">
<title>Node1&#45;&gt;Node19</title>
<path fill="none" stroke="midnightblue" d="M982.02,-117.7C1056.37,-112.26 1201.32,-99.74 1333.33,-75.99"/>
<polygon fill="midnightblue" stroke="midnightblue" points="1334.01,-79.42 1343.21,-74.18 1332.75,-72.53 1334.01,-79.42"/>
</g>
<!-- Node20 -->
<g id="node19" class="node">
<title>Node20</title>
<g id="a_node19"><a xlink:href="include_2webhook_8h.html" target="_top" xlink:title="Webhook public functions and datatypes.">
<polygon fill="none" stroke="black" points="1413.5,-56.5 1413.5,-75.5 1483.5,-75.5 1483.5,-56.5 1413.5,-56.5"/>
<text text-anchor="middle" x="1448.5" y="-63.5" font-family="Helvetica,sans-Serif" font-size="10.00">webhook.h</text>
</a>
</g>
</g>
<!-- Node1&#45;&gt;Node20 -->
<g id="edge19" class="edge">
<title>Node1&#45;&gt;Node20</title>
<path fill="none" stroke="midnightblue" d="M982.32,-118.01C1066.87,-112.54 1243.99,-99.43 1403.5,-76"/>
<polygon fill="midnightblue" stroke="midnightblue" points="1404.12,-79.44 1413.5,-74.51 1403.09,-72.52 1404.12,-79.44"/>
</g>
<!-- Node21 -->
<g id="node20" class="node">
<title>Node21</title>
<g id="a_node20"><a xlink:href="include_2gateway_8h.html" target="_top" xlink:title="Gateway public functions and datatypes.">
<polygon fill="none" stroke="black" points="1501.5,-56.5 1501.5,-75.5 1567.5,-75.5 1567.5,-56.5 1501.5,-56.5"/>
<text text-anchor="middle" x="1534.5" y="-63.5" font-family="Helvetica,sans-Serif" font-size="10.00">gateway.h</text>
</a>
</g>
</g>
<!-- Node1&#45;&gt;Node21 -->
<g id="edge20" class="edge">
<title>Node1&#45;&gt;Node21</title>
<path fill="none" stroke="midnightblue" d="M982.19,-119.19C1078.55,-115.21 1297.63,-103.86 1491.04,-76.04"/>
<polygon fill="midnightblue" stroke="midnightblue" points="1491.71,-79.47 1501.1,-74.57 1490.7,-72.55 1491.71,-79.47"/>
</g>
<!-- Node22 -->
<g id="node21" class="node">
<title>Node22</title>
<g id="a_node21"><a xlink:href="application__command_8h.html" target="_top" xlink:title="Application Command public functions and datatypes.">
<polygon fill="none" stroke="black" points="1585.5,-56.5 1585.5,-75.5 1719.5,-75.5 1719.5,-56.5 1585.5,-56.5"/>
<text text-anchor="middle" x="1652.5" y="-63.5" font-family="Helvetica,sans-Serif" font-size="10.00">application_command.h</text>
</a>
</g>
</g>
<!-- Node1&#45;&gt;Node22 -->
<g id="edge21" class="edge">
<title>Node1&#45;&gt;Node22</title>
<path fill="none" stroke="midnightblue" d="M982.26,-118.34C1088.89,-112.47 1347.56,-97.27 1575.25,-76.07"/>
<polygon fill="midnightblue" stroke="midnightblue" points="1575.75,-79.54 1585.38,-75.13 1575.1,-72.57 1575.75,-79.54"/>
</g>
<!-- Node23 -->
<g id="node22" class="node">
<title>Node23</title>
<g id="a_node22"><a xlink:href="interaction_8h.html" target="_top" xlink:title="Interaciton public functions and datatypes.">
<polygon fill="none" stroke="black" points="1737.5,-56.5 1737.5,-75.5 1815.5,-75.5 1815.5,-56.5 1737.5,-56.5"/>
<text text-anchor="middle" x="1776.5" y="-63.5" font-family="Helvetica,sans-Serif" font-size="10.00">interaction.h</text>
</a>
</g>
</g>
<!-- Node1&#45;&gt;Node23 -->
<g id="edge22" class="edge">
<title>Node1&#45;&gt;Node23</title>
<path fill="none" stroke="midnightblue" d="M982.07,-120.41C1106.03,-118.48 1439.57,-110.34 1727.06,-76.01"/>
<polygon fill="midnightblue" stroke="midnightblue" points="1727.76,-79.45 1737.27,-74.78 1726.92,-72.51 1727.76,-79.45"/>
</g>
<!-- Node24 -->
<g id="node23" class="node">
<title>Node24</title>
<g id="a_node23"><a xlink:href="discord-events_8h.html" target="_top" xlink:title="Listen and react to Discord events.">
<polygon fill="none" stroke="black" points="1833.5,-56.5 1833.5,-75.5 1931.5,-75.5 1931.5,-56.5 1833.5,-56.5"/>
<text text-anchor="middle" x="1882.5" y="-63.5" font-family="Helvetica,sans-Serif" font-size="10.00">discord&#45;events.h</text>
</a>
</g>
</g>
<!-- Node1&#45;&gt;Node24 -->
<g id="edge23" class="edge">
<title>Node1&#45;&gt;Node24</title>
<path fill="none" stroke="midnightblue" d="M982.44,-120.29C1116.73,-118 1496.91,-108.97 1823.37,-76"/>
<polygon fill="midnightblue" stroke="midnightblue" points="1823.9,-79.46 1833.5,-74.97 1823.2,-72.5 1823.9,-79.46"/>
</g>
<!-- Node8&#45;&gt;Node3 -->
<g id="edge8" class="edge">
<title>Node8&#45;&gt;Node3</title>
<path fill="none" stroke="midnightblue" d="M450.76,-56.44C417.56,-47.2 364.51,-32.44 327.94,-22.26"/>
<polygon fill="midnightblue" stroke="midnightblue" points="328.67,-18.83 318.1,-19.52 326.79,-25.57 328.67,-18.83"/>
</g>
</g>
</svg>
