<?xml version="1.0" encoding="UTF-8" standalone="no"?>
<!DOCTYPE svg PUBLIC "-//W3C//DTD SVG 1.1//EN"
 "http://www.w3.org/Graphics/SVG/1.1/DTD/svg11.dtd">
<!-- Generated by graphviz version 2.43.0 (0)
 -->
<!-- Title: include/discord.h Pages: 1 -->
<svg width="2524pt" height="140pt"
 viewBox="0.00 0.00 2523.50 140.00" xmlns="http://www.w3.org/2000/svg" xmlns:xlink="http://www.w3.org/1999/xlink">
<g id="graph0" class="graph" transform="scale(1 1) rotate(0) translate(4 136)">
<title>include/discord.h</title>
<!-- Node1 -->
<g id="node1" class="node">
<title>Node1</title>
<g id="a_node1"><a xlink:title="Public functions and datatypes.">
<polygon fill="#bfbfbf" stroke="black" points="1116,-112.5 1116,-131.5 1215,-131.5 1215,-112.5 1116,-112.5"/>
<text text-anchor="middle" x="1165.5" y="-119.5" font-family="Helvetica,sans-Serif" font-size="10.00">include/discord.h</text>
</a>
</g>
</g>
<!-- Node2 -->
<g id="node2" class="node">
<title>Node2</title>
<g id="a_node2"><a xlink:title=" ">
<polygon fill="none" stroke="#bfbfbf" points="0,-56.5 0,-75.5 65,-75.5 65,-56.5 0,-56.5"/>
<text text-anchor="middle" x="32.5" y="-63.5" font-family="Helvetica,sans-Serif" font-size="10.00">inttypes.h</text>
</a>
</g>
</g>
<!-- Node1&#45;&gt;Node2 -->
<g id="edge1" class="edge">
<title>Node1&#45;&gt;Node2</title>
<path fill="none" stroke="midnightblue" d="M1115.77,-121.55C961.44,-122.68 477.13,-122.05 79.5,-76 78.03,-75.83 76.54,-75.64 75.03,-75.43"/>
<polygon fill="midnightblue" stroke="midnightblue" points="75.44,-71.95 65.02,-73.87 74.36,-78.87 75.44,-71.95"/>
</g>
<!-- Node3 -->
<g id="node3" class="node">
<title>Node3</title>
<g id="a_node3"><a xlink:title=" ">
<polygon fill="none" stroke="#bfbfbf" points="216.5,-0.5 216.5,-19.5 278.5,-19.5 278.5,-0.5 216.5,-0.5"/>
<text text-anchor="middle" x="247.5" y="-7.5" font-family="Helvetica,sans-Serif" font-size="10.00">stdbool.h</text>
</a>
</g>
</g>
<!-- Node1&#45;&gt;Node3 -->
<g id="edge2" class="edge">
<title>Node1&#45;&gt;Node3</title>
<path fill="none" stroke="midnightblue" d="M1115.88,-120.77C911.98,-119.56 147.59,-112.62 112.5,-76 80.93,-43.05 156.01,-24.74 206.41,-16.47"/>
<polygon fill="midnightblue" stroke="midnightblue" points="207.09,-19.91 216.43,-14.91 206.01,-12.99 207.09,-19.91"/>
</g>
<!-- Node4 -->
<g id="node4" class="node">
<title>Node4</title>
<g id="a_node4"><a xlink:href="error_8h.html" target="_top" xlink:title=" ">
<polygon fill="none" stroke="black" points="121.5,-56.5 121.5,-75.5 169.5,-75.5 169.5,-56.5 121.5,-56.5"/>
<text text-anchor="middle" x="145.5" y="-63.5" font-family="Helvetica,sans-Serif" font-size="10.00">error.h</text>
</a>
</g>
</g>
<!-- Node1&#45;&gt;Node4 -->
<g id="edge3" class="edge">
<title>Node1&#45;&gt;Node4</title>
<path fill="none" stroke="midnightblue" d="M1115.72,-120.13C941.95,-116.88 362.96,-104.14 179.5,-76 179.4,-75.98 179.3,-75.97 179.19,-75.95"/>
<polygon fill="midnightblue" stroke="midnightblue" points="180,-72.54 169.51,-74.03 178.64,-79.41 180,-72.54"/>
</g>
<!-- Node5 -->
<g id="node5" class="node">
<title>Node5</title>
<g id="a_node5"><a xlink:href="types_8h.html" target="_top" xlink:title=" ">
<polygon fill="none" stroke="red" points="188,-56.5 188,-75.5 241,-75.5 241,-56.5 188,-56.5"/>
<text text-anchor="middle" x="214.5" y="-63.5" font-family="Helvetica,sans-Serif" font-size="10.00">types.h</text>
</a>
</g>
</g>
<!-- Node1&#45;&gt;Node5 -->
<g id="edge4" class="edge">
<title>Node1&#45;&gt;Node5</title>
<path fill="none" stroke="midnightblue" d="M1115.91,-119.84C953.66,-115.86 438.79,-101.6 251.14,-75.71"/>
<polygon fill="midnightblue" stroke="midnightblue" points="251.52,-72.23 241.12,-74.27 250.52,-79.16 251.52,-72.23"/>
</g>
<!-- Node8 -->
<g id="node6" class="node">
<title>Node8</title>
<g id="a_node6"><a xlink:href="concord-once_8h.html" target="_top" xlink:title="Initialized once.">
<polygon fill="none" stroke="black" points="259,-56.5 259,-75.5 350,-75.5 350,-56.5 259,-56.5"/>
<text text-anchor="middle" x="304.5" y="-63.5" font-family="Helvetica,sans-Serif" font-size="10.00">concord&#45;once.h</text>
</a>
</g>
</g>
<!-- Node1&#45;&gt;Node8 -->
<g id="edge5" class="edge">
<title>Node1&#45;&gt;Node8</title>
<path fill="none" stroke="midnightblue" d="M1115.82,-120.06C990.72,-117.31 652.46,-107.44 360.01,-75.92"/>
<polygon fill="midnightblue" stroke="midnightblue" points="360.39,-72.44 350.07,-74.84 359.63,-79.4 360.39,-72.44"/>
</g>
<!-- Node9 -->
<g id="node7" class="node">
<title>Node9</title>
<g id="a_node7"><a xlink:href="io__poller_8h.html" target="_top" xlink:title=" ">
<polygon fill="none" stroke="red" points="368,-56.5 368,-75.5 435,-75.5 435,-56.5 368,-56.5"/>
<text text-anchor="middle" x="401.5" y="-63.5" font-family="Helvetica,sans-Serif" font-size="10.00">io_poller.h</text>
</a>
</g>
</g>
<!-- Node1&#45;&gt;Node9 -->
<g id="edge6" class="edge">
<title>Node1&#45;&gt;Node9</title>
<path fill="none" stroke="midnightblue" d="M1115.87,-120.36C1000.06,-118.34 702.92,-110.1 445.15,-75.87"/>
<polygon fill="midnightblue" stroke="midnightblue" points="445.6,-72.4 435.22,-74.54 444.67,-79.34 445.6,-72.4"/>
</g>
<!-- Node11 -->
<g id="node8" class="node">
<title>Node11</title>
<g id="a_node8"><a xlink:title=" ">
<polygon fill="none" stroke="#bfbfbf" points="453.5,-56.5 453.5,-75.5 553.5,-75.5 553.5,-56.5 453.5,-56.5"/>
<text text-anchor="middle" x="503.5" y="-63.5" font-family="Helvetica,sans-Serif" font-size="10.00">discord_codecs.h</text>
</a>
</g>
</g>
<!-- Node1&#45;&gt;Node11 -->
<g id="edge8" class="edge">
<title>Node1&#45;&gt;Node11</title>
<path fill="none" stroke="midnightblue" d="M1115.83,-118.54C1012.69,-113.15 767.9,-98.94 563.5,-76 563.4,-75.99 563.3,-75.98 563.2,-75.97"/>
<polygon fill="midnightblue" stroke="midnightblue" points="563.9,-72.53 553.55,-74.79 563.06,-79.47 563.9,-72.53"/>
</g>
<!-- Node12 -->
<g id="node9" class="node">
<title>Node12</title>
<g id="a_node9"><a xlink:href="discord-response_8h.html" target="_top" xlink:title="Generic macros for initializing a discord_response and return handles.">
<polygon fill="none" stroke="black" points="572,-56.5 572,-75.5 681,-75.5 681,-56.5 572,-56.5"/>
<text text-anchor="middle" x="626.5" y="-63.5" font-family="Helvetica,sans-Serif" font-size="10.00">discord&#45;response.h</text>
</a>
</g>
</g>
<!-- Node1&#45;&gt;Node12 -->
<g id="edge9" class="edge">
<title>Node1&#45;&gt;Node12</title>
<path fill="none" stroke="midnightblue" d="M1115.84,-117.04C1031.1,-110.12 852.87,-94.86 691.41,-76.06"/>
<polygon fill="midnightblue" stroke="midnightblue" points="691.63,-72.56 681.29,-74.87 690.82,-79.51 691.63,-72.56"/>
</g>
<!-- Node13 -->
<g id="node10" class="node">
<title>Node13</title>
<g id="a_node10"><a xlink:href="include_2audit__log_8h.html" target="_top" xlink:title="Audit Log public functions and datatypes.">
<polygon fill="none" stroke="black" points="699,-56.5 699,-75.5 770,-75.5 770,-56.5 699,-56.5"/>
<text text-anchor="middle" x="734.5" y="-63.5" font-family="Helvetica,sans-Serif" font-size="10.00">audit_log.h</text>
</a>
</g>
</g>
<!-- Node1&#45;&gt;Node13 -->
<g id="edge10" class="edge">
<title>Node1&#45;&gt;Node13</title>
<path fill="none" stroke="midnightblue" d="M1115.97,-116.53C1044.21,-109.76 906.98,-95.74 780.2,-75.99"/>
<polygon fill="midnightblue" stroke="midnightblue" points="780.74,-72.53 770.31,-74.44 779.65,-79.45 780.74,-72.53"/>
</g>
<!-- Node14 -->
<g id="node11" class="node">
<title>Node14</title>
<g id="a_node11"><a xlink:href="include_2auto__moderation_8h.html" target="_top" xlink:title="Auto Moderation public functions and datatypes.">
<polygon fill="none" stroke="black" points="788,-56.5 788,-75.5 897,-75.5 897,-56.5 788,-56.5"/>
<text text-anchor="middle" x="842.5" y="-63.5" font-family="Helvetica,sans-Serif" font-size="10.00">auto_moderation.h</text>
</a>
</g>
</g>
<!-- Node1&#45;&gt;Node14 -->
<g id="edge11" class="edge">
<title>Node1&#45;&gt;Node14</title>
<path fill="none" stroke="midnightblue" d="M1115.74,-112.68C1058.58,-103.12 964.79,-87.44 903.33,-77.17"/>
<polygon fill="midnightblue" stroke="midnightblue" points="903.82,-73.7 893.38,-75.51 902.67,-80.61 903.82,-73.7"/>
</g>
<!-- Node15 -->
<g id="node12" class="node">
<title>Node15</title>
<g id="a_node12"><a xlink:href="include_2invite_8h.html" target="_top" xlink:title="Invite public functions and datatypes.">
<polygon fill="none" stroke="black" points="915,-56.5 915,-75.5 968,-75.5 968,-56.5 915,-56.5"/>
<text text-anchor="middle" x="941.5" y="-63.5" font-family="Helvetica,sans-Serif" font-size="10.00">invite.h</text>
</a>
</g>
</g>
<!-- Node1&#45;&gt;Node15 -->
<g id="edge12" class="edge">
<title>Node1&#45;&gt;Node15</title>
<path fill="none" stroke="midnightblue" d="M1129.43,-112.48C1093.56,-103.98 1036.71,-90.44 978.04,-76.11"/>
<polygon fill="midnightblue" stroke="midnightblue" points="978.77,-72.69 968.23,-73.71 977.11,-79.49 978.77,-72.69"/>
</g>
<!-- Node16 -->
<g id="node13" class="node">
<title>Node16</title>
<g id="a_node13"><a xlink:href="include_2channel_8h.html" target="_top" xlink:title="Channel public functions and datatypes.">
<polygon fill="none" stroke="black" points="986.5,-56.5 986.5,-75.5 1050.5,-75.5 1050.5,-56.5 986.5,-56.5"/>
<text text-anchor="middle" x="1018.5" y="-63.5" font-family="Helvetica,sans-Serif" font-size="10.00">channel.h</text>
</a>
</g>
</g>
<!-- Node1&#45;&gt;Node16 -->
<g id="edge13" class="edge">
<title>Node1&#45;&gt;Node16</title>
<path fill="none" stroke="midnightblue" d="M1142.21,-112.44C1117.69,-103.44 1078.9,-89.19 1051.3,-79.05"/>
<polygon fill="midnightblue" stroke="midnightblue" points="1052.28,-75.68 1041.68,-75.52 1049.86,-82.25 1052.28,-75.68"/>
</g>
<!-- Node17 -->
<g id="node14" class="node">
<title>Node17</title>
<g id="a_node14"><a xlink:href="include_2emoji_8h.html" target="_top" xlink:title="Emoji public functions and datatypes.">
<polygon fill="none" stroke="black" points="1069,-56.5 1069,-75.5 1122,-75.5 1122,-56.5 1069,-56.5"/>
<text text-anchor="middle" x="1095.5" y="-63.5" font-family="Helvetica,sans-Serif" font-size="10.00">emoji.h</text>
</a>
</g>
</g>
<!-- Node1&#45;&gt;Node17 -->
<g id="edge14" class="edge">
<title>Node1&#45;&gt;Node17</title>
<path fill="none" stroke="midnightblue" d="M1154.25,-112.32C1143.7,-104.18 1127.7,-91.84 1115.06,-82.09"/>
<polygon fill="midnightblue" stroke="midnightblue" points="1117.01,-79.17 1106.95,-75.83 1112.73,-84.71 1117.01,-79.17"/>
</g>
<!-- Node18 -->
<g id="node15" class="node">
<title>Node18</title>
<g id="a_node15"><a xlink:href="include_2guild_8h.html" target="_top" xlink:title="Guild public functions and datatypes.">
<polygon fill="none" stroke="black" points="1140.5,-56.5 1140.5,-75.5 1190.5,-75.5 1190.5,-56.5 1140.5,-56.5"/>
<text text-anchor="middle" x="1165.5" y="-63.5" font-family="Helvetica,sans-Serif" font-size="10.00">guild.h</text>
</a>
</g>
</g>
<!-- Node1&#45;&gt;Node18 -->
<g id="edge15" class="edge">
<title>Node1&#45;&gt;Node18</title>
<path fill="none" stroke="midnightblue" d="M1165.5,-112.08C1165.5,-105.01 1165.5,-94.86 1165.5,-85.99"/>
<polygon fill="midnightblue" stroke="midnightblue" points="1169,-85.75 1165.5,-75.75 1162,-85.75 1169,-85.75"/>
</g>
<!-- Node19 -->
<g id="node16" class="node">
<title>Node19</title>
<g id="a_node16"><a xlink:href="include_2guild__scheduled__event_8h.html" target="_top" xlink:title="Guild Scheduled Event public functions and datatypes.">
<polygon fill="none" stroke="black" points="1209,-56.5 1209,-75.5 1346,-75.5 1346,-56.5 1209,-56.5"/>
<text text-anchor="middle" x="1277.5" y="-63.5" font-family="Helvetica,sans-Serif" font-size="10.00">guild_scheduled_event.h</text>
</a>
</g>
</g>
<!-- Node1&#45;&gt;Node19 -->
<g id="edge16" class="edge">
<title>Node1&#45;&gt;Node19</title>
<path fill="none" stroke="midnightblue" d="M1183.49,-112.32C1201.54,-103.62 1229.55,-90.12 1250.3,-80.11"/>
<polygon fill="midnightblue" stroke="midnightblue" points="1252.06,-83.15 1259.55,-75.65 1249.02,-76.84 1252.06,-83.15"/>
</g>
<!-- Node20 -->
<g id="node17" class="node">
<title>Node20</title>
<g id="a_node17"><a xlink:href="include_2guild__template_8h.html" target="_top" xlink:title="Guild Template public functions and datatypes.">
<polygon fill="none" stroke="black" points="1364,-56.5 1364,-75.5 1463,-75.5 1463,-56.5 1364,-56.5"/>
<text text-anchor="middle" x="1413.5" y="-63.5" font-family="Helvetica,sans-Serif" font-size="10.00">guild_template.h</text>
</a>
</g>
</g>
<!-- Node1&#45;&gt;Node20 -->
<g id="edge17" class="edge">
<title>Node1&#45;&gt;Node20</title>
<path fill="none" stroke="midnightblue" d="M1204.8,-112.44C1248.06,-103.02 1317.67,-87.87 1364.47,-77.68"/>
<polygon fill="midnightblue" stroke="midnightblue" points="1365.36,-81.06 1374.39,-75.52 1363.87,-74.22 1365.36,-81.06"/>
</g>
<!-- Node21 -->
<g id="node18" class="node">
<title>Node21</title>
<g id="a_node18"><a xlink:href="include_2stage__instance_8h.html" target="_top" xlink:title="Stage Instance public functions and datatypes.">
<polygon fill="none" stroke="black" points="1481,-56.5 1481,-75.5 1580,-75.5 1580,-56.5 1481,-56.5"/>
<text text-anchor="middle" x="1530.5" y="-63.5" font-family="Helvetica,sans-Serif" font-size="10.00">stage_instance.h</text>
</a>
</g>
</g>
<!-- Node1&#45;&gt;Node21 -->
<g id="edge18" class="edge">
<title>Node1&#45;&gt;Node21</title>
<path fill="none" stroke="midnightblue" d="M1215.24,-113.84C1273.89,-105.37 1374.63,-90.73 1470.66,-76.27"/>
<polygon fill="midnightblue" stroke="midnightblue" points="1471.46,-79.69 1480.83,-74.74 1470.42,-72.77 1471.46,-79.69"/>
</g>
<!-- Node22 -->
<g id="node19" class="node">
<title>Node22</title>
<g id="a_node19"><a xlink:href="include_2sticker_8h.html" target="_top" xlink:title="Sticker public functions and datatypes.">
<polygon fill="none" stroke="black" points="1598,-56.5 1598,-75.5 1655,-75.5 1655,-56.5 1598,-56.5"/>
<text text-anchor="middle" x="1626.5" y="-63.5" font-family="Helvetica,sans-Serif" font-size="10.00">sticker.h</text>
</a>
</g>
</g>
<!-- Node1&#45;&gt;Node22 -->
<g id="edge19" class="edge">
<title>Node1&#45;&gt;Node22</title>
<path fill="none" stroke="midnightblue" d="M1215.08,-117.88C1292.68,-112.54 1447.64,-99.97 1587.83,-76.09"/>
<polygon fill="midnightblue" stroke="midnightblue" points="1588.64,-79.51 1597.9,-74.36 1587.45,-72.61 1588.64,-79.51"/>
</g>
<!-- Node23 -->
<g id="node20" class="node">
<title>Node23</title>
<g id="a_node20"><a xlink:href="include_2user_8h.html" target="_top" xlink:title="User public functions and datatypes.">
<polygon fill="none" stroke="black" points="1673.5,-56.5 1673.5,-75.5 1719.5,-75.5 1719.5,-56.5 1673.5,-56.5"/>
<text text-anchor="middle" x="1696.5" y="-63.5" font-family="Helvetica,sans-Serif" font-size="10.00">user.h</text>
</a>
</g>
</g>
<!-- Node1&#45;&gt;Node23 -->
<g id="edge20" class="edge">
<title>Node1&#45;&gt;Node23</title>
<path fill="none" stroke="midnightblue" d="M1215.13,-119.55C1303.54,-116.31 1494.12,-106.36 1663.12,-75.93"/>
<polygon fill="midnightblue" stroke="midnightblue" points="1663.99,-79.33 1673.2,-74.09 1662.73,-72.45 1663.99,-79.33"/>
</g>
<!-- Node24 -->
<g id="node21" class="node">
<title>Node24</title>
<g id="a_node21"><a xlink:href="include_2voice_8h.html" target="_top" xlink:title="Voice public functions and datatypes.">
<polygon fill="none" stroke="black" points="1737.5,-56.5 1737.5,-75.5 1789.5,-75.5 1789.5,-56.5 1737.5,-56.5"/>
<text text-anchor="middle" x="1763.5" y="-63.5" font-family="Helvetica,sans-Serif" font-size="10.00">voice.h</text>
</a>
</g>
</g>
<!-- Node1&#45;&gt;Node24 -->
<g id="edge21" class="edge">
<title>Node1&#45;&gt;Node24</title>
<path fill="none" stroke="midnightblue" d="M1215.18,-119.89C1312.03,-117.12 1532.92,-107.75 1727.13,-75.95"/>
<polygon fill="midnightblue" stroke="midnightblue" points="1727.94,-79.36 1737.23,-74.27 1726.79,-72.46 1727.94,-79.36"/>
</g>
<!-- Node25 -->
<g id="node22" class="node">
<title>Node25</title>
<g id="a_node22"><a xlink:href="include_2webhook_8h.html" target="_top" xlink:title="Webhook public functions and datatypes.">
<polygon fill="none" stroke="black" points="1807.5,-56.5 1807.5,-75.5 1877.5,-75.5 1877.5,-56.5 1807.5,-56.5"/>
<text text-anchor="middle" x="1842.5" y="-63.5" font-family="Helvetica,sans-Serif" font-size="10.00">webhook.h</text>
</a>
</g>
</g>
<!-- Node1&#45;&gt;Node25 -->
<g id="edge22" class="edge">
<title>Node1&#45;&gt;Node25</title>
<path fill="none" stroke="midnightblue" d="M1215.38,-119.67C1320.94,-116.38 1574.82,-105.94 1796.81,-76.06"/>
<polygon fill="midnightblue" stroke="midnightblue" points="1797.59,-79.49 1807.03,-74.67 1796.65,-72.55 1797.59,-79.49"/>
</g>
<!-- Node26 -->
<g id="node23" class="node">
<title>Node26</title>
<g id="a_node23"><a xlink:href="include_2gateway_8h.html" target="_top" xlink:title="Gateway public functions and datatypes.">
<polygon fill="none" stroke="black" points="1895.5,-56.5 1895.5,-75.5 1961.5,-75.5 1961.5,-56.5 1895.5,-56.5"/>
<text text-anchor="middle" x="1928.5" y="-63.5" font-family="Helvetica,sans-Serif" font-size="10.00">gateway.h</text>
</a>
</g>
</g>
<!-- Node1&#45;&gt;Node26 -->
<g id="edge23" class="edge">
<title>Node1&#45;&gt;Node26</title>
<path fill="none" stroke="midnightblue" d="M1215.14,-120.44C1330.91,-118.59 1627.87,-110.7 1884.83,-76.03"/>
<polygon fill="midnightblue" stroke="midnightblue" points="1885.67,-79.45 1895.11,-74.62 1884.73,-72.51 1885.67,-79.45"/>
</g>
<!-- Node27 -->
<g id="node24" class="node">
<title>Node27</title>
<g id="a_node24"><a xlink:href="include_2oauth2_8h.html" target="_top" xlink:title="OAuth2 public functions and datatypes.">
<polygon fill="none" stroke="black" points="1980,-56.5 1980,-75.5 2039,-75.5 2039,-56.5 1980,-56.5"/>
<text text-anchor="middle" x="2009.5" y="-63.5" font-family="Helvetica,sans-Serif" font-size="10.00">oauth2.h</text>
</a>
</g>
</g>
<!-- Node1&#45;&gt;Node27 -->
<g id="edge24" class="edge">
<title>Node1&#45;&gt;Node27</title>
<path fill="none" stroke="midnightblue" d="M1215.26,-121.17C1340.46,-120.95 1678.71,-116.47 1969.47,-75.87"/>
<polygon fill="midnightblue" stroke="midnightblue" points="1970.38,-79.27 1979.79,-74.41 1969.4,-72.34 1970.38,-79.27"/>
</g>
<!-- Node28 -->
<g id="node25" class="node">
<title>Node28</title>
<g id="a_node25"><a xlink:href="application__command_8h.html" target="_top" xlink:title="Application Command public functions and datatypes.">
<polygon fill="none" stroke="black" points="2057.5,-56.5 2057.5,-75.5 2191.5,-75.5 2191.5,-56.5 2057.5,-56.5"/>
<text text-anchor="middle" x="2124.5" y="-63.5" font-family="Helvetica,sans-Serif" font-size="10.00">application_command.h</text>
</a>
</g>
</g>
<!-- Node1&#45;&gt;Node28 -->
<g id="edge25" class="edge">
<title>Node1&#45;&gt;Node28</title>
<path fill="none" stroke="midnightblue" d="M1215.37,-119.63C1348.59,-115.72 1724.08,-103.05 2047.36,-76.04"/>
<polygon fill="midnightblue" stroke="midnightblue" points="2047.72,-79.52 2057.39,-75.19 2047.13,-72.55 2047.72,-79.52"/>
</g>
<!-- Node29 -->
<g id="node26" class="node">
<title>Node29</title>
<g id="a_node26"><a xlink:href="interaction_8h.html" target="_top" xlink:title="Interaciton public functions and datatypes.">
<polygon fill="none" stroke="black" points="2209.5,-56.5 2209.5,-75.5 2287.5,-75.5 2287.5,-56.5 2209.5,-56.5"/>
<text text-anchor="middle" x="2248.5" y="-63.5" font-family="Helvetica,sans-Serif" font-size="10.00">interaction.h</text>
</a>
</g>
</g>
<!-- Node1&#45;&gt;Node29 -->
<g id="edge26" class="edge">
<title>Node1&#45;&gt;Node29</title>
<path fill="none" stroke="midnightblue" d="M1215.25,-121.33C1363.53,-121.8 1815.44,-119.36 2199.09,-75.99"/>
<polygon fill="midnightblue" stroke="midnightblue" points="2199.74,-79.44 2209.28,-74.82 2198.94,-72.48 2199.74,-79.44"/>
</g>
<!-- Node30 -->
<g id="node27" class="node">
<title>Node30</title>
<g id="a_node27"><a xlink:href="discord-cache_8h.html" target="_top" xlink:title="Caching of Discord resources.">
<polygon fill="none" stroke="black" points="2306,-56.5 2306,-75.5 2399,-75.5 2399,-56.5 2306,-56.5"/>
<text text-anchor="middle" x="2352.5" y="-63.5" font-family="Helvetica,sans-Serif" font-size="10.00">discord&#45;cache.h</text>
</a>
</g>
</g>
<!-- Node1&#45;&gt;Node30 -->
<g id="edge27" class="edge">
<title>Node1&#45;&gt;Node30</title>
<path fill="none" stroke="midnightblue" d="M1215.26,-121.14C1372.38,-121.13 1872.12,-117.66 2295.81,-75.93"/>
<polygon fill="midnightblue" stroke="midnightblue" points="2296.2,-79.4 2305.8,-74.93 2295.51,-72.44 2296.2,-79.4"/>
</g>
<!-- Node31 -->
<g id="node28" class="node">
<title>Node31</title>
<g id="a_node28"><a xlink:href="discord-events_8h.html" target="_top" xlink:title="Listen, react and trigger Discord Gateway events.">
<polygon fill="none" stroke="black" points="2417.5,-56.5 2417.5,-75.5 2515.5,-75.5 2515.5,-56.5 2417.5,-56.5"/>
<text text-anchor="middle" x="2466.5" y="-63.5" font-family="Helvetica,sans-Serif" font-size="10.00">discord&#45;events.h</text>
</a>
</g>
</g>
<!-- Node1&#45;&gt;Node31 -->
<g id="edge28" class="edge">
<title>Node1&#45;&gt;Node31</title>
<path fill="none" stroke="midnightblue" d="M1215.08,-121.3C1381.88,-121.85 1938.1,-120.12 2407.17,-76.01"/>
<polygon fill="midnightblue" stroke="midnightblue" points="2407.56,-79.48 2417.19,-75.06 2406.9,-72.52 2407.56,-79.48"/>
</g>
<!-- Node9&#45;&gt;Node3 -->
<g id="edge7" class="edge">
<title>Node9&#45;&gt;Node3</title>
<path fill="none" stroke="midnightblue" d="M377.1,-56.44C351.3,-47.4 310.42,-33.06 281.48,-22.92"/>
<polygon fill="midnightblue" stroke="midnightblue" points="282.38,-19.52 271.79,-19.52 280.07,-26.13 282.38,-19.52"/>
</g>
</g>
</svg>
