<?xml version="1.0" encoding="UTF-8" standalone="no"?>
<!DOCTYPE svg PUBLIC "-//W3C//DTD SVG 1.1//EN"
 "http://www.w3.org/Graphics/SVG/1.1/DTD/svg11.dtd">
<!-- Generated by graphviz version 2.43.0 (0)
 -->
<!-- Title: include/discord&#45;internal.h Pages: 1 -->
<svg width="1115pt" height="140pt"
 viewBox="0.00 0.00 1115.00 140.00" xmlns="http://www.w3.org/2000/svg" xmlns:xlink="http://www.w3.org/1999/xlink">
<g id="graph0" class="graph" transform="scale(1 1) rotate(0) translate(4 136)">
<title>include/discord&#45;internal.h</title>
<!-- Node1 -->
<g id="node1" class="node">
<title>Node1</title>
<g id="a_node1"><a xlink:title="Internal functions and datatypes.">
<polygon fill="#bfbfbf" stroke="black" points="470.5,-112.5 470.5,-131.5 610.5,-131.5 610.5,-112.5 470.5,-112.5"/>
<text text-anchor="middle" x="540.5" y="-119.5" font-family="Helvetica,sans-Serif" font-size="10.00">include/discord&#45;internal.h</text>
</a>
</g>
</g>
<!-- Node2 -->
<g id="node2" class="node">
<title>Node2</title>
<g id="a_node2"><a xlink:title=" ">
<polygon fill="none" stroke="#bfbfbf" points="0,-56.5 0,-75.5 65,-75.5 65,-56.5 0,-56.5"/>
<text text-anchor="middle" x="32.5" y="-63.5" font-family="Helvetica,sans-Serif" font-size="10.00">inttypes.h</text>
</a>
</g>
</g>
<!-- Node1&#45;&gt;Node2 -->
<g id="edge1" class="edge">
<title>Node1&#45;&gt;Node2</title>
<path fill="none" stroke="midnightblue" d="M470.15,-116.86C380.52,-111 220.68,-98.57 75.12,-76.09"/>
<polygon fill="midnightblue" stroke="midnightblue" points="75.53,-72.61 65.11,-74.53 74.45,-79.53 75.53,-72.61"/>
</g>
<!-- Node3 -->
<g id="node3" class="node">
<title>Node3</title>
<g id="a_node3"><a xlink:title=" ">
<polygon fill="none" stroke="#bfbfbf" points="83,-56.5 83,-75.5 146,-75.5 146,-56.5 83,-56.5"/>
<text text-anchor="middle" x="114.5" y="-63.5" font-family="Helvetica,sans-Serif" font-size="10.00">pthread.h</text>
</a>
</g>
</g>
<!-- Node1&#45;&gt;Node3 -->
<g id="edge2" class="edge">
<title>Node1&#45;&gt;Node3</title>
<path fill="none" stroke="midnightblue" d="M470.3,-114.92C395.09,-107.92 272.05,-95.1 156.32,-75.98"/>
<polygon fill="midnightblue" stroke="midnightblue" points="156.66,-72.49 146.22,-74.29 155.51,-79.39 156.66,-72.49"/>
</g>
<!-- Node4 -->
<g id="node4" class="node">
<title>Node4</title>
<g id="a_node4"><a xlink:title=" ">
<polygon fill="none" stroke="#bfbfbf" points="164.5,-56.5 164.5,-75.5 238.5,-75.5 238.5,-56.5 164.5,-56.5"/>
<text text-anchor="middle" x="201.5" y="-63.5" font-family="Helvetica,sans-Serif" font-size="10.00">json&#45;build.h</text>
</a>
</g>
</g>
<!-- Node1&#45;&gt;Node4 -->
<g id="edge3" class="edge">
<title>Node1&#45;&gt;Node4</title>
<path fill="none" stroke="midnightblue" d="M480.34,-112.49C423.23,-104.25 334.72,-91.05 248.58,-76.13"/>
<polygon fill="midnightblue" stroke="midnightblue" points="249.09,-72.67 238.63,-74.4 247.88,-79.56 249.09,-72.67"/>
</g>
<!-- Node5 -->
<g id="node5" class="node">
<title>Node5</title>
<g id="a_node5"><a xlink:title=" ">
<polygon fill="none" stroke="#bfbfbf" points="256.5,-56.5 256.5,-75.5 306.5,-75.5 306.5,-56.5 256.5,-56.5"/>
<text text-anchor="middle" x="281.5" y="-63.5" font-family="Helvetica,sans-Serif" font-size="10.00">jsmn.h</text>
</a>
</g>
</g>
<!-- Node1&#45;&gt;Node5 -->
<g id="edge4" class="edge">
<title>Node1&#45;&gt;Node5</title>
<path fill="none" stroke="midnightblue" d="M494.44,-112.49C449.05,-103.93 377.79,-90.03 316.5,-76 316.4,-75.98 316.3,-75.95 316.2,-75.93"/>
<polygon fill="midnightblue" stroke="midnightblue" points="317.24,-72.58 306.7,-73.65 315.6,-79.39 317.24,-72.58"/>
</g>
<!-- Node6 -->
<g id="node6" class="node">
<title>Node6</title>
<g id="a_node6"><a xlink:title=" ">
<polygon fill="none" stroke="#bfbfbf" points="325,-56.5 325,-75.5 396,-75.5 396,-56.5 325,-56.5"/>
<text text-anchor="middle" x="360.5" y="-63.5" font-family="Helvetica,sans-Serif" font-size="10.00">jsmn&#45;find.h</text>
</a>
</g>
</g>
<!-- Node1&#45;&gt;Node6 -->
<g id="edge5" class="edge">
<title>Node1&#45;&gt;Node6</title>
<path fill="none" stroke="midnightblue" d="M511.98,-112.44C481.43,-103.28 432.79,-88.69 398.9,-78.52"/>
<polygon fill="midnightblue" stroke="midnightblue" points="399.47,-75.04 388.89,-75.52 397.46,-81.74 399.47,-75.04"/>
</g>
<!-- Node7 -->
<g id="node7" class="node">
<title>Node7</title>
<g id="a_node7"><a xlink:title=" ">
<polygon fill="none" stroke="#bfbfbf" points="477,-0.5 477,-19.5 538,-19.5 538,-0.5 477,-0.5"/>
<text text-anchor="middle" x="507.5" y="-7.5" font-family="Helvetica,sans-Serif" font-size="10.00">logconf.h</text>
</a>
</g>
</g>
<!-- Node1&#45;&gt;Node7 -->
<g id="edge6" class="edge">
<title>Node1&#45;&gt;Node7</title>
<path fill="none" stroke="midnightblue" d="M498.11,-112.45C477.92,-106.02 455.59,-94.93 443.5,-76 430.47,-55.59 455.84,-36.37 478.39,-24.2"/>
<polygon fill="midnightblue" stroke="midnightblue" points="480.12,-27.24 487.44,-19.59 476.94,-21.01 480.12,-27.24"/>
</g>
<!-- Node8 -->
<g id="node8" class="node">
<title>Node8</title>
<g id="a_node8"><a xlink:title=" ">
<polygon fill="none" stroke="#bfbfbf" points="452.5,-56.5 452.5,-75.5 530.5,-75.5 530.5,-56.5 452.5,-56.5"/>
<text text-anchor="middle" x="491.5" y="-63.5" font-family="Helvetica,sans-Serif" font-size="10.00">user&#45;agent.h</text>
</a>
</g>
</g>
<!-- Node1&#45;&gt;Node8 -->
<g id="edge7" class="edge">
<title>Node1&#45;&gt;Node8</title>
<path fill="none" stroke="midnightblue" d="M532.41,-112.08C525.34,-104.3 514.91,-92.8 506.35,-83.37"/>
<polygon fill="midnightblue" stroke="midnightblue" points="508.75,-80.8 499.44,-75.75 503.57,-85.51 508.75,-80.8"/>
</g>
<!-- Node9 -->
<g id="node9" class="node">
<title>Node9</title>
<g id="a_node9"><a xlink:href="websockets_8h.html" target="_top" xlink:title=" ">
<polygon fill="none" stroke="red" points="549,-56.5 549,-75.5 632,-75.5 632,-56.5 549,-56.5"/>
<text text-anchor="middle" x="590.5" y="-63.5" font-family="Helvetica,sans-Serif" font-size="10.00">websockets.h</text>
</a>
</g>
</g>
<!-- Node1&#45;&gt;Node9 -->
<g id="edge8" class="edge">
<title>Node1&#45;&gt;Node9</title>
<path fill="none" stroke="midnightblue" d="M548.76,-112.08C555.96,-104.3 566.61,-92.8 575.35,-83.37"/>
<polygon fill="midnightblue" stroke="midnightblue" points="578.17,-85.47 582.4,-75.75 573.03,-80.71 578.17,-85.47"/>
</g>
<!-- Node12 -->
<g id="node10" class="node">
<title>Node12</title>
<g id="a_node10"><a xlink:href="work_8h.html" target="_top" xlink:title=" ">
<polygon fill="none" stroke="black" points="650.5,-56.5 650.5,-75.5 700.5,-75.5 700.5,-56.5 650.5,-56.5"/>
<text text-anchor="middle" x="675.5" y="-63.5" font-family="Helvetica,sans-Serif" font-size="10.00">work.h</text>
</a>
</g>
</g>
<!-- Node1&#45;&gt;Node12 -->
<g id="edge10" class="edge">
<title>Node1&#45;&gt;Node12</title>
<path fill="none" stroke="midnightblue" d="M561.89,-112.44C584.21,-103.52 619.4,-89.44 644.71,-79.32"/>
<polygon fill="midnightblue" stroke="midnightblue" points="646.22,-82.48 654.21,-75.52 643.62,-75.98 646.22,-82.48"/>
</g>
<!-- Node13 -->
<g id="node11" class="node">
<title>Node13</title>
<g id="a_node11"><a xlink:title=" ">
<polygon fill="none" stroke="#bfbfbf" points="718.5,-56.5 718.5,-75.5 786.5,-75.5 786.5,-56.5 718.5,-56.5"/>
<text text-anchor="middle" x="752.5" y="-63.5" font-family="Helvetica,sans-Serif" font-size="10.00">cog&#45;utils.h</text>
</a>
</g>
</g>
<!-- Node1&#45;&gt;Node13 -->
<g id="edge11" class="edge">
<title>Node1&#45;&gt;Node13</title>
<path fill="none" stroke="midnightblue" d="M574.09,-112.44C610.69,-103.12 669.34,-88.18 709.33,-78"/>
<polygon fill="midnightblue" stroke="midnightblue" points="710.24,-81.38 719.07,-75.52 708.51,-74.59 710.24,-81.38"/>
</g>
<!-- Node14 -->
<g id="node12" class="node">
<title>Node14</title>
<g id="a_node12"><a xlink:href="io__poller_8h_source.html" target="_top" xlink:title=" ">
<polygon fill="none" stroke="red" points="805,-56.5 805,-75.5 872,-75.5 872,-56.5 805,-56.5"/>
<text text-anchor="middle" x="838.5" y="-63.5" font-family="Helvetica,sans-Serif" font-size="10.00">io_poller.h</text>
</a>
</g>
</g>
<!-- Node1&#45;&gt;Node14 -->
<g id="edge12" class="edge">
<title>Node1&#45;&gt;Node14</title>
<path fill="none" stroke="midnightblue" d="M591.87,-112.43C641.22,-104.08 718.13,-90.78 794.45,-76.15"/>
<polygon fill="midnightblue" stroke="midnightblue" points="795.56,-79.5 804.72,-74.18 794.24,-72.63 795.56,-79.5"/>
</g>
<!-- Node16 -->
<g id="node13" class="node">
<title>Node16</title>
<g id="a_node13"><a xlink:title=" ">
<polygon fill="none" stroke="#bfbfbf" points="890,-56.5 890,-75.5 949,-75.5 949,-56.5 890,-56.5"/>
<text text-anchor="middle" x="919.5" y="-63.5" font-family="Helvetica,sans-Serif" font-size="10.00">uthash.h</text>
</a>
</g>
</g>
<!-- Node1&#45;&gt;Node16 -->
<g id="edge13" class="edge">
<title>Node1&#45;&gt;Node16</title>
<path fill="none" stroke="midnightblue" d="M610.71,-113.84C677.58,-106.54 781.25,-93.99 879.58,-76.21"/>
<polygon fill="midnightblue" stroke="midnightblue" points="880.48,-79.6 889.69,-74.36 879.22,-72.72 880.48,-79.6"/>
</g>
<!-- Node17 -->
<g id="node14" class="node">
<title>Node17</title>
<g id="a_node14"><a xlink:title=" ">
<polygon fill="none" stroke="#bfbfbf" points="967.5,-56.5 967.5,-75.5 1023.5,-75.5 1023.5,-56.5 967.5,-56.5"/>
<text text-anchor="middle" x="995.5" y="-63.5" font-family="Helvetica,sans-Serif" font-size="10.00">queue.h</text>
</a>
</g>
</g>
<!-- Node1&#45;&gt;Node17 -->
<g id="edge14" class="edge">
<title>Node1&#45;&gt;Node17</title>
<path fill="none" stroke="midnightblue" d="M610.79,-116.27C692.05,-110.16 829.95,-97.84 957.36,-75.99"/>
<polygon fill="midnightblue" stroke="midnightblue" points="958.05,-79.42 967.3,-74.26 956.85,-72.53 958.05,-79.42"/>
</g>
<!-- Node18 -->
<g id="node15" class="node">
<title>Node18</title>
<g id="a_node15"><a xlink:title=" ">
<polygon fill="none" stroke="#bfbfbf" points="1042,-56.5 1042,-75.5 1107,-75.5 1107,-56.5 1042,-56.5"/>
<text text-anchor="middle" x="1074.5" y="-63.5" font-family="Helvetica,sans-Serif" font-size="10.00">heap&#45;inl.h</text>
</a>
</g>
</g>
<!-- Node1&#45;&gt;Node18 -->
<g id="edge15" class="edge">
<title>Node1&#45;&gt;Node18</title>
<path fill="none" stroke="midnightblue" d="M610.89,-117.22C704.62,-111.6 875.71,-99.28 1031.33,-76"/>
<polygon fill="midnightblue" stroke="midnightblue" points="1032.19,-79.41 1041.55,-74.45 1031.14,-72.49 1032.19,-79.41"/>
</g>
<!-- Node9&#45;&gt;Node7 -->
<g id="edge9" class="edge">
<title>Node9&#45;&gt;Node7</title>
<path fill="none" stroke="midnightblue" d="M577.16,-56.32C564.34,-47.98 544.72,-35.21 529.56,-25.35"/>
<polygon fill="midnightblue" stroke="midnightblue" points="531.09,-22.17 520.8,-19.65 527.28,-28.04 531.09,-22.17"/>
</g>
</g>
</svg>
