<?xml version="1.0" encoding="UTF-8" standalone="no"?>
<!DOCTYPE svg PUBLIC "-//W3C//DTD SVG 1.1//EN"
 "http://www.w3.org/Graphics/SVG/1.1/DTD/svg11.dtd">
<!-- Generated by graphviz version 2.43.0 (0)
 -->
<!-- Title: include/discord&#45;internal.h Pages: 1 -->
<svg width="986pt" height="140pt"
 viewBox="0.00 0.00 985.50 140.00" xmlns="http://www.w3.org/2000/svg" xmlns:xlink="http://www.w3.org/1999/xlink">
<g id="graph0" class="graph" transform="scale(1 1) rotate(0) translate(4 136)">
<title>include/discord&#45;internal.h</title>
<!-- Node1 -->
<g id="node1" class="node">
<title>Node1</title>
<g id="a_node1"><a xlink:title="Internal functions and datatypes.">
<polygon fill="#bfbfbf" stroke="black" points="387.5,-112.5 387.5,-131.5 527.5,-131.5 527.5,-112.5 387.5,-112.5"/>
<text text-anchor="middle" x="457.5" y="-119.5" font-family="Helvetica,sans-Serif" font-size="10.00">include/discord&#45;internal.h</text>
</a>
</g>
</g>
<!-- Node2 -->
<g id="node2" class="node">
<title>Node2</title>
<g id="a_node2"><a xlink:title=" ">
<polygon fill="none" stroke="#bfbfbf" points="0,-56.5 0,-75.5 63,-75.5 63,-56.5 0,-56.5"/>
<text text-anchor="middle" x="31.5" y="-63.5" font-family="Helvetica,sans-Serif" font-size="10.00">pthread.h</text>
</a>
</g>
</g>
<!-- Node1&#45;&gt;Node2 -->
<g id="edge1" class="edge">
<title>Node1&#45;&gt;Node2</title>
<path fill="none" stroke="midnightblue" d="M387.3,-114.92C312.09,-107.92 189.05,-95.1 73.32,-75.98"/>
<polygon fill="midnightblue" stroke="midnightblue" points="73.66,-72.49 63.22,-74.29 72.51,-79.39 73.66,-72.49"/>
</g>
<!-- Node3 -->
<g id="node3" class="node">
<title>Node3</title>
<g id="a_node3"><a xlink:title=" ">
<polygon fill="none" stroke="#bfbfbf" points="81.5,-56.5 81.5,-75.5 155.5,-75.5 155.5,-56.5 81.5,-56.5"/>
<text text-anchor="middle" x="118.5" y="-63.5" font-family="Helvetica,sans-Serif" font-size="10.00">json&#45;build.h</text>
</a>
</g>
</g>
<!-- Node1&#45;&gt;Node3 -->
<g id="edge2" class="edge">
<title>Node1&#45;&gt;Node3</title>
<path fill="none" stroke="midnightblue" d="M397.34,-112.49C340.23,-104.25 251.72,-91.05 165.58,-76.13"/>
<polygon fill="midnightblue" stroke="midnightblue" points="166.09,-72.67 155.63,-74.4 164.88,-79.56 166.09,-72.67"/>
</g>
<!-- Node4 -->
<g id="node4" class="node">
<title>Node4</title>
<g id="a_node4"><a xlink:title=" ">
<polygon fill="none" stroke="#bfbfbf" points="173.5,-56.5 173.5,-75.5 223.5,-75.5 223.5,-56.5 173.5,-56.5"/>
<text text-anchor="middle" x="198.5" y="-63.5" font-family="Helvetica,sans-Serif" font-size="10.00">jsmn.h</text>
</a>
</g>
</g>
<!-- Node1&#45;&gt;Node4 -->
<g id="edge3" class="edge">
<title>Node1&#45;&gt;Node4</title>
<path fill="none" stroke="midnightblue" d="M411.44,-112.49C366.05,-103.93 294.79,-90.03 233.5,-76 233.4,-75.98 233.3,-75.95 233.2,-75.93"/>
<polygon fill="midnightblue" stroke="midnightblue" points="234.24,-72.58 223.7,-73.65 232.6,-79.39 234.24,-72.58"/>
</g>
<!-- Node5 -->
<g id="node5" class="node">
<title>Node5</title>
<g id="a_node5"><a xlink:title=" ">
<polygon fill="none" stroke="#bfbfbf" points="242,-56.5 242,-75.5 313,-75.5 313,-56.5 242,-56.5"/>
<text text-anchor="middle" x="277.5" y="-63.5" font-family="Helvetica,sans-Serif" font-size="10.00">jsmn&#45;find.h</text>
</a>
</g>
</g>
<!-- Node1&#45;&gt;Node5 -->
<g id="edge4" class="edge">
<title>Node1&#45;&gt;Node5</title>
<path fill="none" stroke="midnightblue" d="M428.98,-112.44C398.43,-103.28 349.79,-88.69 315.9,-78.52"/>
<polygon fill="midnightblue" stroke="midnightblue" points="316.47,-75.04 305.89,-75.52 314.46,-81.74 316.47,-75.04"/>
</g>
<!-- Node6 -->
<g id="node6" class="node">
<title>Node6</title>
<g id="a_node6"><a xlink:title=" ">
<polygon fill="none" stroke="#bfbfbf" points="394,-0.5 394,-19.5 455,-19.5 455,-0.5 394,-0.5"/>
<text text-anchor="middle" x="424.5" y="-7.5" font-family="Helvetica,sans-Serif" font-size="10.00">logconf.h</text>
</a>
</g>
</g>
<!-- Node1&#45;&gt;Node6 -->
<g id="edge5" class="edge">
<title>Node1&#45;&gt;Node6</title>
<path fill="none" stroke="midnightblue" d="M415.11,-112.45C394.92,-106.02 372.59,-94.93 360.5,-76 347.47,-55.59 372.84,-36.37 395.39,-24.2"/>
<polygon fill="midnightblue" stroke="midnightblue" points="397.12,-27.24 404.44,-19.59 393.94,-21.01 397.12,-27.24"/>
</g>
<!-- Node7 -->
<g id="node7" class="node">
<title>Node7</title>
<g id="a_node7"><a xlink:title=" ">
<polygon fill="none" stroke="#bfbfbf" points="369.5,-56.5 369.5,-75.5 447.5,-75.5 447.5,-56.5 369.5,-56.5"/>
<text text-anchor="middle" x="408.5" y="-63.5" font-family="Helvetica,sans-Serif" font-size="10.00">user&#45;agent.h</text>
</a>
</g>
</g>
<!-- Node1&#45;&gt;Node7 -->
<g id="edge6" class="edge">
<title>Node1&#45;&gt;Node7</title>
<path fill="none" stroke="midnightblue" d="M449.41,-112.08C442.34,-104.3 431.91,-92.8 423.35,-83.37"/>
<polygon fill="midnightblue" stroke="midnightblue" points="425.75,-80.8 416.44,-75.75 420.57,-85.51 425.75,-80.8"/>
</g>
<!-- Node8 -->
<g id="node8" class="node">
<title>Node8</title>
<g id="a_node8"><a xlink:href="websockets_8h.html" target="_top" xlink:title=" ">
<polygon fill="none" stroke="red" points="466,-56.5 466,-75.5 549,-75.5 549,-56.5 466,-56.5"/>
<text text-anchor="middle" x="507.5" y="-63.5" font-family="Helvetica,sans-Serif" font-size="10.00">websockets.h</text>
</a>
</g>
</g>
<!-- Node1&#45;&gt;Node8 -->
<g id="edge7" class="edge">
<title>Node1&#45;&gt;Node8</title>
<path fill="none" stroke="midnightblue" d="M465.76,-112.08C472.96,-104.3 483.61,-92.8 492.35,-83.37"/>
<polygon fill="midnightblue" stroke="midnightblue" points="495.17,-85.47 499.4,-75.75 490.03,-80.71 495.17,-85.47"/>
</g>
<!-- Node11 -->
<g id="node9" class="node">
<title>Node11</title>
<g id="a_node9"><a xlink:href="work_8h.html" target="_top" xlink:title=" ">
<polygon fill="none" stroke="black" points="567.5,-56.5 567.5,-75.5 617.5,-75.5 617.5,-56.5 567.5,-56.5"/>
<text text-anchor="middle" x="592.5" y="-63.5" font-family="Helvetica,sans-Serif" font-size="10.00">work.h</text>
</a>
</g>
</g>
<!-- Node1&#45;&gt;Node11 -->
<g id="edge9" class="edge">
<title>Node1&#45;&gt;Node11</title>
<path fill="none" stroke="midnightblue" d="M478.89,-112.44C501.21,-103.52 536.4,-89.44 561.71,-79.32"/>
<polygon fill="midnightblue" stroke="midnightblue" points="563.22,-82.48 571.21,-75.52 560.62,-75.98 563.22,-82.48"/>
</g>
<!-- Node12 -->
<g id="node10" class="node">
<title>Node12</title>
<g id="a_node10"><a xlink:title=" ">
<polygon fill="none" stroke="#bfbfbf" points="635.5,-56.5 635.5,-75.5 703.5,-75.5 703.5,-56.5 635.5,-56.5"/>
<text text-anchor="middle" x="669.5" y="-63.5" font-family="Helvetica,sans-Serif" font-size="10.00">cog&#45;utils.h</text>
</a>
</g>
</g>
<!-- Node1&#45;&gt;Node12 -->
<g id="edge10" class="edge">
<title>Node1&#45;&gt;Node12</title>
<path fill="none" stroke="midnightblue" d="M491.09,-112.44C527.69,-103.12 586.34,-88.18 626.33,-78"/>
<polygon fill="midnightblue" stroke="midnightblue" points="627.24,-81.38 636.07,-75.52 625.51,-74.59 627.24,-81.38"/>
</g>
<!-- Node13 -->
<g id="node11" class="node">
<title>Node13</title>
<g id="a_node11"><a xlink:href="io__poller_8h_source.html" target="_top" xlink:title=" ">
<polygon fill="none" stroke="red" points="722,-56.5 722,-75.5 789,-75.5 789,-56.5 722,-56.5"/>
<text text-anchor="middle" x="755.5" y="-63.5" font-family="Helvetica,sans-Serif" font-size="10.00">io_poller.h</text>
</a>
</g>
</g>
<!-- Node1&#45;&gt;Node13 -->
<g id="edge11" class="edge">
<title>Node1&#45;&gt;Node13</title>
<path fill="none" stroke="midnightblue" d="M508.87,-112.43C558.22,-104.08 635.13,-90.78 711.45,-76.15"/>
<polygon fill="midnightblue" stroke="midnightblue" points="712.56,-79.5 721.72,-74.18 711.24,-72.63 712.56,-79.5"/>
</g>
<!-- Node15 -->
<g id="node12" class="node">
<title>Node15</title>
<g id="a_node12"><a xlink:title=" ">
<polygon fill="none" stroke="#bfbfbf" points="807.5,-56.5 807.5,-75.5 863.5,-75.5 863.5,-56.5 807.5,-56.5"/>
<text text-anchor="middle" x="835.5" y="-63.5" font-family="Helvetica,sans-Serif" font-size="10.00">queue.h</text>
</a>
</g>
</g>
<!-- Node1&#45;&gt;Node15 -->
<g id="edge12" class="edge">
<title>Node1&#45;&gt;Node15</title>
<path fill="none" stroke="midnightblue" d="M527.73,-113.96C594.69,-106.75 698.51,-94.24 797.42,-76.03"/>
<polygon fill="midnightblue" stroke="midnightblue" points="798.1,-79.47 807.29,-74.19 796.81,-72.58 798.1,-79.47"/>
</g>
<!-- Node16 -->
<g id="node13" class="node">
<title>Node16</title>
<g id="a_node13"><a xlink:title=" ">
<polygon fill="none" stroke="#bfbfbf" points="881.5,-56.5 881.5,-75.5 977.5,-75.5 977.5,-56.5 881.5,-56.5"/>
<text text-anchor="middle" x="929.5" y="-63.5" font-family="Helvetica,sans-Serif" font-size="10.00">priority_queue.h</text>
</a>
</g>
</g>
<!-- Node1&#45;&gt;Node16 -->
<g id="edge13" class="edge">
<title>Node1&#45;&gt;Node16</title>
<path fill="none" stroke="midnightblue" d="M527.75,-114.43C608.2,-106.68 744.23,-92.84 871.04,-76.14"/>
<polygon fill="midnightblue" stroke="midnightblue" points="871.87,-79.56 881.32,-74.78 870.95,-72.62 871.87,-79.56"/>
</g>
<!-- Node8&#45;&gt;Node6 -->
<g id="edge8" class="edge">
<title>Node8&#45;&gt;Node6</title>
<path fill="none" stroke="midnightblue" d="M494.16,-56.32C481.34,-47.98 461.72,-35.21 446.56,-25.35"/>
<polygon fill="midnightblue" stroke="midnightblue" points="448.09,-22.17 437.8,-19.65 444.28,-28.04 448.09,-22.17"/>
</g>
</g>
</svg>
