<?xml version="1.0" encoding="UTF-8" standalone="no"?>
<!DOCTYPE svg PUBLIC "-//W3C//DTD SVG 1.1//EN"
 "http://www.w3.org/Graphics/SVG/1.1/DTD/svg11.dtd">
<!-- Generated by graphviz version 2.43.0 (0)
 -->
<!-- Title: docs/api/webhook.h Pages: 1 -->
<svg width="648pt" height="140pt"
 viewBox="0.00 0.00 648.40 140.00" xmlns="http://www.w3.org/2000/svg" xmlns:xlink="http://www.w3.org/1999/xlink">
<g id="graph0" class="graph" transform="scale(1 1) rotate(0) translate(4 136)">
<title>docs/api/webhook.h</title>
<!-- Node1 -->
<g id="node1" class="node">
<title>Node1</title>
<g id="a_node1"><a xlink:title="Generated code.">
<polygon fill="#bfbfbf" stroke="black" points="227.9,-112.5 227.9,-131.5 340.9,-131.5 340.9,-112.5 227.9,-112.5"/>
<text text-anchor="middle" x="284.4" y="-119.5" font-family="Helvetica,sans-Serif" font-size="10.00">docs/api/webhook.h</text>
</a>
</g>
</g>
<!-- Node2 -->
<g id="node2" class="node">
<title>Node2</title>
<g id="a_node2"><a xlink:title=" ">
<polygon fill="none" stroke="#bfbfbf" points="370.4,-0.5 370.4,-19.5 426.4,-19.5 426.4,-0.5 370.4,-0.5"/>
<text text-anchor="middle" x="398.4" y="-7.5" font-family="Helvetica,sans-Serif" font-size="10.00">stddef.h</text>
</a>
</g>
</g>
<!-- Node1&#45;&gt;Node2 -->
<g id="edge1" class="edge">
<title>Node1&#45;&gt;Node2</title>
<path fill="none" stroke="midnightblue" d="M227.69,-120.22C154.31,-117.88 32.5,-108.98 4.4,-76 -1.36,-69.23 -1.52,-62.63 4.4,-56 27.85,-29.72 265.52,-16.7 359.98,-12.54"/>
<polygon fill="midnightblue" stroke="midnightblue" points="360.41,-16.02 370.25,-12.09 360.11,-9.03 360.41,-16.02"/>
</g>
<!-- Node3 -->
<g id="node3" class="node">
<title>Node3</title>
<g id="a_node3"><a xlink:title=" ">
<polygon fill="none" stroke="#bfbfbf" points="13.4,-56.5 13.4,-75.5 75.4,-75.5 75.4,-56.5 13.4,-56.5"/>
<text text-anchor="middle" x="44.4" y="-63.5" font-family="Helvetica,sans-Serif" font-size="10.00">stdbool.h</text>
</a>
</g>
</g>
<!-- Node1&#45;&gt;Node3 -->
<g id="edge2" class="edge">
<title>Node1&#45;&gt;Node3</title>
<path fill="none" stroke="midnightblue" d="M246.37,-112.44C202.5,-102.57 130.64,-86.4 85.51,-76.25"/>
<polygon fill="midnightblue" stroke="midnightblue" points="86.27,-72.83 75.75,-74.05 84.74,-79.66 86.27,-72.83"/>
</g>
<!-- Node4 -->
<g id="node4" class="node">
<title>Node4</title>
<g id="a_node4"><a xlink:title=" ">
<polygon fill="none" stroke="#bfbfbf" points="93.9,-56.5 93.9,-75.5 158.9,-75.5 158.9,-56.5 93.9,-56.5"/>
<text text-anchor="middle" x="126.4" y="-63.5" font-family="Helvetica,sans-Serif" font-size="10.00">inttypes.h</text>
</a>
</g>
</g>
<!-- Node1&#45;&gt;Node4 -->
<g id="edge3" class="edge">
<title>Node1&#45;&gt;Node4</title>
<path fill="none" stroke="midnightblue" d="M259.36,-112.44C232.78,-103.36 190.59,-88.94 160.88,-78.78"/>
<polygon fill="midnightblue" stroke="midnightblue" points="161.91,-75.44 151.32,-75.52 159.65,-82.06 161.91,-75.44"/>
</g>
<!-- Node5 -->
<g id="node5" class="node">
<title>Node5</title>
<g id="a_node5"><a xlink:href="carray_8h.html" target="_top" xlink:title=" ">
<polygon fill="none" stroke="black" points="176.9,-56.5 176.9,-75.5 231.9,-75.5 231.9,-56.5 176.9,-56.5"/>
<text text-anchor="middle" x="204.4" y="-63.5" font-family="Helvetica,sans-Serif" font-size="10.00">carray.h</text>
</a>
</g>
</g>
<!-- Node1&#45;&gt;Node5 -->
<g id="edge4" class="edge">
<title>Node1&#45;&gt;Node5</title>
<path fill="none" stroke="midnightblue" d="M271.55,-112.32C259.18,-103.98 240.27,-91.21 225.66,-81.35"/>
<polygon fill="midnightblue" stroke="midnightblue" points="227.47,-78.35 217.22,-75.65 223.55,-84.15 227.47,-78.35"/>
</g>
<!-- Node6 -->
<g id="node6" class="node">
<title>Node6</title>
<g id="a_node6"><a xlink:href="cog-utils_8h.html" target="_top" xlink:title=" ">
<polygon fill="none" stroke="red" points="250.4,-56.5 250.4,-75.5 318.4,-75.5 318.4,-56.5 250.4,-56.5"/>
<text text-anchor="middle" x="284.4" y="-63.5" font-family="Helvetica,sans-Serif" font-size="10.00">cog&#45;utils.h</text>
</a>
</g>
</g>
<!-- Node1&#45;&gt;Node6 -->
<g id="edge5" class="edge">
<title>Node1&#45;&gt;Node6</title>
<path fill="none" stroke="midnightblue" d="M284.4,-112.08C284.4,-105.01 284.4,-94.86 284.4,-85.99"/>
<polygon fill="midnightblue" stroke="midnightblue" points="287.9,-85.75 284.4,-75.75 280.9,-85.75 287.9,-85.75"/>
</g>
<!-- Node9 -->
<g id="node7" class="node">
<title>Node9</title>
<g id="a_node7"><a xlink:href="types_8h.html" target="_top" xlink:title=" ">
<polygon fill="none" stroke="red" points="336.9,-56.5 336.9,-75.5 389.9,-75.5 389.9,-56.5 336.9,-56.5"/>
<text text-anchor="middle" x="363.4" y="-63.5" font-family="Helvetica,sans-Serif" font-size="10.00">types.h</text>
</a>
</g>
</g>
<!-- Node1&#45;&gt;Node9 -->
<g id="edge6" class="edge">
<title>Node1&#45;&gt;Node9</title>
<path fill="none" stroke="midnightblue" d="M297.09,-112.32C309.3,-103.98 327.98,-91.21 342.4,-81.35"/>
<polygon fill="midnightblue" stroke="midnightblue" points="344.46,-84.19 350.74,-75.65 340.51,-78.41 344.46,-84.19"/>
</g>
<!-- Node10 -->
<g id="node8" class="node">
<title>Node10</title>
<g id="a_node8"><a xlink:href="jsmn_8h.html" target="_top" xlink:title=" ">
<polygon fill="none" stroke="black" points="408.4,-56.5 408.4,-75.5 458.4,-75.5 458.4,-56.5 408.4,-56.5"/>
<text text-anchor="middle" x="433.4" y="-63.5" font-family="Helvetica,sans-Serif" font-size="10.00">jsmn.h</text>
</a>
</g>
</g>
<!-- Node1&#45;&gt;Node10 -->
<g id="edge8" class="edge">
<title>Node1&#45;&gt;Node10</title>
<path fill="none" stroke="midnightblue" d="M308.01,-112.44C332.86,-103.44 372.17,-89.19 400.15,-79.05"/>
<polygon fill="midnightblue" stroke="midnightblue" points="401.69,-82.21 409.9,-75.52 399.31,-75.63 401.69,-82.21"/>
</g>
<!-- Node11 -->
<g id="node9" class="node">
<title>Node11</title>
<g id="a_node9"><a xlink:href="jsmn-find_8h.html" target="_top" xlink:title=" ">
<polygon fill="none" stroke="red" points="476.9,-56.5 476.9,-75.5 547.9,-75.5 547.9,-56.5 476.9,-56.5"/>
<text text-anchor="middle" x="512.4" y="-63.5" font-family="Helvetica,sans-Serif" font-size="10.00">jsmn&#45;find.h</text>
</a>
</g>
</g>
<!-- Node1&#45;&gt;Node11 -->
<g id="edge10" class="edge">
<title>Node1&#45;&gt;Node11</title>
<path fill="none" stroke="midnightblue" d="M320.53,-112.44C360.17,-103.06 423.87,-87.97 466.89,-77.78"/>
<polygon fill="midnightblue" stroke="midnightblue" points="467.89,-81.14 476.82,-75.43 466.28,-74.33 467.89,-81.14"/>
</g>
<!-- Node15 -->
<g id="node10" class="node">
<title>Node15</title>
<g id="a_node10"><a xlink:href="json-build_8h.html" target="_top" xlink:title=" ">
<polygon fill="none" stroke="red" points="566.4,-56.5 566.4,-75.5 640.4,-75.5 640.4,-56.5 566.4,-56.5"/>
<text text-anchor="middle" x="603.4" y="-63.5" font-family="Helvetica,sans-Serif" font-size="10.00">json&#45;build.h</text>
</a>
</g>
</g>
<!-- Node1&#45;&gt;Node15 -->
<g id="edge11" class="edge">
<title>Node1&#45;&gt;Node15</title>
<path fill="none" stroke="midnightblue" d="M339.13,-112.47C392.15,-104.1 475.09,-90.71 556.36,-76.15"/>
<polygon fill="midnightblue" stroke="midnightblue" points="557.04,-79.58 566.26,-74.37 555.8,-72.69 557.04,-79.58"/>
</g>
<!-- Node9&#45;&gt;Node2 -->
<g id="edge7" class="edge">
<title>Node9&#45;&gt;Node2</title>
<path fill="none" stroke="midnightblue" d="M369.18,-56.08C374.07,-48.53 381.23,-37.49 387.23,-28.23"/>
<polygon fill="midnightblue" stroke="midnightblue" points="390.23,-30.05 392.73,-19.75 384.35,-26.24 390.23,-30.05"/>
</g>
<!-- Node10&#45;&gt;Node2 -->
<g id="edge9" class="edge">
<title>Node10&#45;&gt;Node2</title>
<path fill="none" stroke="midnightblue" d="M427.62,-56.08C422.73,-48.53 415.57,-37.49 409.57,-28.23"/>
<polygon fill="midnightblue" stroke="midnightblue" points="412.45,-26.24 404.07,-19.75 406.57,-30.05 412.45,-26.24"/>
</g>
<!-- Node15&#45;&gt;Node2 -->
<g id="edge12" class="edge">
<title>Node15&#45;&gt;Node2</title>
<path fill="none" stroke="midnightblue" d="M570.92,-56.44C534.33,-46.81 474.95,-31.17 436.29,-20.98"/>
<polygon fill="midnightblue" stroke="midnightblue" points="437.01,-17.55 426.45,-18.39 435.23,-24.32 437.01,-17.55"/>
</g>
</g>
</svg>
