<?xml version="1.0" encoding="UTF-8" standalone="no"?>
<!DOCTYPE svg PUBLIC "-//W3C//DTD SVG 1.1//EN"
 "http://www.w3.org/Graphics/SVG/1.1/DTD/svg11.dtd">
<!-- Generated by graphviz version 2.43.0 (0)
 -->
<!-- Title: core/error.h Pages: 1 -->
<svg width="385pt" height="84pt"
 viewBox="0.00 0.00 385.00 84.00" xmlns="http://www.w3.org/2000/svg" xmlns:xlink="http://www.w3.org/1999/xlink">
<g id="graph0" class="graph" transform="scale(1 1) rotate(0) translate(4 80)">
<title>core/error.h</title>
<!-- Node1 -->
<g id="node1" class="node">
<title>Node1</title>
<g id="a_node1"><a xlink:title=" ">
<polygon fill="#bfbfbf" stroke="black" points="156.5,-56.5 156.5,-75.5 228.5,-75.5 228.5,-56.5 156.5,-56.5"/>
<text text-anchor="middle" x="192.5" y="-63.5" font-family="Helvetica,sans-Serif" font-size="10.00">core/error.h</text>
</a>
</g>
</g>
<!-- Node2 -->
<g id="node2" class="node">
<title>Node2</title>
<g id="a_node2"><a xlink:href="websockets_8h.html" target="_top" xlink:title=" ">
<polygon fill="none" stroke="red" points="0,-0.5 0,-19.5 107,-19.5 107,-0.5 0,-0.5"/>
<text text-anchor="middle" x="53.5" y="-7.5" font-family="Helvetica,sans-Serif" font-size="10.00">core/websockets.h</text>
</a>
</g>
</g>
<!-- Node1&#45;&gt;Node2 -->
<g id="edge1" class="edge">
<title>Node1&#45;&gt;Node2</title>
<path fill="none" stroke="midnightblue" d="M161.02,-52.77C134.91,-42.63 98.46,-28.47 75.42,-19.52"/>
<polygon fill="midnightblue" stroke="midnightblue" points="159.89,-56.08 170.48,-56.44 162.42,-49.56 159.89,-56.08"/>
</g>
<!-- Node4 -->
<g id="node3" class="node">
<title>Node4</title>
<g id="a_node3"><a xlink:href="discord-worker_8h.html" target="_top" xlink:title="Global threadpool.">
<polygon fill="none" stroke="black" points="125,-0.5 125,-19.5 260,-19.5 260,-0.5 125,-0.5"/>
<text text-anchor="middle" x="192.5" y="-7.5" font-family="Helvetica,sans-Serif" font-size="10.00">include/discord&#45;worker.h</text>
</a>
</g>
</g>
<!-- Node1&#45;&gt;Node4 -->
<g id="edge2" class="edge">
<title>Node1&#45;&gt;Node4</title>
<path fill="none" stroke="midnightblue" d="M192.5,-45.8C192.5,-36.91 192.5,-26.78 192.5,-19.75"/>
<polygon fill="midnightblue" stroke="midnightblue" points="189,-46.08 192.5,-56.08 196,-46.08 189,-46.08"/>
</g>
<!-- Node5 -->
<g id="node4" class="node">
<title>Node5</title>
<g id="a_node4"><a xlink:href="discord_8h.html" target="_top" xlink:title="Public functions and datatypes.">
<polygon fill="none" stroke="black" points="278,-0.5 278,-19.5 377,-19.5 377,-0.5 278,-0.5"/>
<text text-anchor="middle" x="327.5" y="-7.5" font-family="Helvetica,sans-Serif" font-size="10.00">include/discord.h</text>
</a>
</g>
</g>
<!-- Node1&#45;&gt;Node5 -->
<g id="edge3" class="edge">
<title>Node1&#45;&gt;Node5</title>
<path fill="none" stroke="midnightblue" d="M223.41,-52.64C248.74,-42.5 283.93,-28.43 306.21,-19.52"/>
<polygon fill="midnightblue" stroke="midnightblue" points="221.88,-49.48 213.89,-56.44 224.48,-55.98 221.88,-49.48"/>
</g>
</g>
</svg>
