<?xml version="1.0" encoding="UTF-8" standalone="no"?>
<!DOCTYPE svg PUBLIC "-//W3C//DTD SVG 1.1//EN"
 "http://www.w3.org/Graphics/SVG/1.1/DTD/svg11.dtd">
<!-- Generated by graphviz version 2.43.0 (0)
 -->
<!-- Title: Request&apos;s handling Pages: 1 -->
<svg width="327pt" height="27pt"
 viewBox="0.00 0.00 327.00 27.00" xmlns="http://www.w3.org/2000/svg" xmlns:xlink="http://www.w3.org/1999/xlink">
<g id="graph0" class="graph" transform="scale(1 1) rotate(0) translate(4 23)">
<title>Request&apos;s handling</title>
<!-- Node2 -->
<g id="node1" class="node">
<title>Node2</title>
<g id="a_node1"><a xlink:href="group__DiscordInternalREST.html" target="_top" xlink:title="Wrapper to the Discord REST API.">
<polygon fill="none" stroke="black" points="60,-19 0,-19 0,0 60,0 60,-19"/>
<text text-anchor="middle" x="30" y="-7" font-family="Helvetica,sans-Serif" font-size="10.00">REST API</text>
</a>
</g>
</g>
<!-- Node1 -->
<g id="node2" class="node">
<title>Node1</title>
<g id="a_node2"><a xlink:title="Store, manage and dispatch individual requests.">
<polygon fill="#bfbfbf" stroke="black" points="206,-19 96,-19 96,0 206,0 206,-19"/>
<text text-anchor="middle" x="151" y="-7" font-family="Helvetica,sans-Serif" font-size="10.00">Request&#39;s handling</text>
</a>
</g>
</g>
<!-- Node2&#45;&gt;Node1 -->
<g id="edge1" class="edge">
<title>Node2&#45;&gt;Node1</title>
<path fill="none" stroke="black" d="M70.37,-9.5C78.46,-9.5 87.11,-9.5 95.63,-9.5"/>
<polygon fill="black" stroke="black" points="70.11,-6 60.11,-9.5 70.11,-13 70.11,-6"/>
</g>
<!-- Node3 -->
<g id="node3" class="node">
<title>Node3</title>
<g id="a_node3"><a xlink:href="group__DiscordInternalRESTRequestRatelimit.html" target="_top" xlink:title="Enforce ratelimiting per the official Discord Documentation.">
<polygon fill="none" stroke="black" points="319,-19 242,-19 242,0 319,0 319,-19"/>
<text text-anchor="middle" x="280.5" y="-7" font-family="Helvetica,sans-Serif" font-size="10.00">Ratelimiting</text>
</a>
</g>
</g>
<!-- Node1&#45;&gt;Node3 -->
<g id="edge2" class="edge">
<title>Node1&#45;&gt;Node3</title>
<path fill="none" stroke="black" d="M216.34,-9.5C225.11,-9.5 233.87,-9.5 241.95,-9.5"/>
<polygon fill="black" stroke="black" points="216.07,-6 206.07,-9.5 216.07,-13 216.07,-6"/>
</g>
</g>
</svg>
