<?xml version="1.0" encoding="UTF-8" standalone="no"?>
<!DOCTYPE svg PUBLIC "-//W3C//DTD SVG 1.1//EN"
 "http://www.w3.org/Graphics/SVG/1.1/DTD/svg11.dtd">
<!-- Generated by graphviz version 2.43.0 (0)
 -->
<!-- Title: Internal implementation details Pages: 1 -->
<svg width="352pt" height="286pt"
 viewBox="0.00 0.00 352.00 286.00" xmlns="http://www.w3.org/2000/svg" xmlns:xlink="http://www.w3.org/1999/xlink">
<g id="graph0" class="graph" transform="scale(1 1) rotate(0) translate(4 282)">
<title>Internal implementation details</title>
<!-- Node9 -->
<g id="node1" class="node">
<title>Node9</title>
<g id="a_node1"><a xlink:href="group__DiscordClient.html" target="_top" xlink:title="Client functions and datatypes.">
<polygon fill="none" stroke="black" points="298,-278 253,-278 253,-259 298,-259 298,-278"/>
<text text-anchor="middle" x="275.5" y="-266" font-family="Helvetica,sans-Serif" font-size="10.00">Client</text>
</a>
</g>
</g>
<!-- Node1 -->
<g id="node2" class="node">
<title>Node1</title>
<g id="a_node2"><a xlink:title="Documentation useful when developing or debugging Concord itself.">
<polygon fill="#bfbfbf" stroke="black" points="135,-153.5 0,-153.5 0,-123.5 135,-123.5 135,-153.5"/>
<text text-anchor="start" x="8" y="-141.5" font-family="Helvetica,sans-Serif" font-size="10.00">Internal implementation</text>
<text text-anchor="middle" x="67.5" y="-130.5" font-family="Helvetica,sans-Serif" font-size="10.00"> details</text>
</a>
</g>
</g>
<!-- Node1&#45;&gt;Node9 -->
<g id="edge8" class="edge">
<title>Node1&#45;&gt;Node9</title>
<path fill="none" stroke="orange" stroke-dasharray="5,2" d="M82.66,-153.84C106.08,-178.23 155.46,-225.66 207,-250.5 221.53,-257.5 239.18,-262.09 252.79,-264.88"/>
<text text-anchor="middle" x="171" y="-241.5" font-family="Helvetica,sans-Serif" font-size="10.00">discord</text>
</g>
<!-- Node7 -->
<g id="node3" class="node">
<title>Node7</title>
<g id="a_node3"><a xlink:href="group__DiscordInternalCache.html" target="_top" xlink:title="The Cache API for storage and retrieval of Discord data.">
<polygon fill="none" stroke="black" points="308,-241 243,-241 243,-222 308,-222 308,-241"/>
<text text-anchor="middle" x="275.5" y="-229" font-family="Helvetica,sans-Serif" font-size="10.00">Cache API</text>
</a>
</g>
</g>
<!-- Node1&#45;&gt;Node7 -->
<g id="edge6" class="edge">
<title>Node1&#45;&gt;Node7</title>
<path fill="none" stroke="black" d="M100.94,-158.92C128.36,-175.47 169.1,-198.43 207,-213.5 218.38,-218.03 231.29,-221.78 242.75,-224.67"/>
<polygon fill="black" stroke="black" points="102.54,-155.79 92.18,-153.57 98.89,-161.77 102.54,-155.79"/>
</g>
<!-- Node4 -->
<g id="node4" class="node">
<title>Node4</title>
<g id="a_node4"><a xlink:href="group__DiscordInternalGateway.html" target="_top" xlink:title="Wrapper to the Discord Gateway API.">
<polygon fill="none" stroke="black" points="322.5,-204 228.5,-204 228.5,-185 322.5,-185 322.5,-204"/>
<text text-anchor="middle" x="275.5" y="-192" font-family="Helvetica,sans-Serif" font-size="10.00">WebSockets API</text>
</a>
</g>
</g>
<!-- Node1&#45;&gt;Node4 -->
<g id="edge3" class="edge">
<title>Node1&#45;&gt;Node4</title>
<path fill="none" stroke="black" d="M132.86,-156.26C156.2,-162.68 182.78,-169.95 207,-176.5 217.19,-179.26 228.24,-182.22 238.41,-184.93"/>
<polygon fill="black" stroke="black" points="133.64,-152.85 123.07,-153.57 131.79,-159.6 133.64,-152.85"/>
</g>
<!-- Node6 -->
<g id="node5" class="node">
<title>Node6</title>
<g id="a_node5"><a xlink:href="group__DiscordInternalMessageCommands.html" target="_top" xlink:title="The Message Commands API for registering and parsing user commands.">
<polygon fill="none" stroke="black" points="344,-167 207,-167 207,-148 344,-148 344,-167"/>
<text text-anchor="middle" x="275.5" y="-155" font-family="Helvetica,sans-Serif" font-size="10.00">Message Commands API</text>
</a>
</g>
</g>
<!-- Node1&#45;&gt;Node6 -->
<g id="edge5" class="edge">
<title>Node1&#45;&gt;Node6</title>
<path fill="none" stroke="black" d="M145.19,-145.57C165.39,-147.44 187.03,-149.43 206.72,-151.25"/>
<polygon fill="black" stroke="black" points="145.38,-142.08 135.1,-144.64 144.73,-149.05 145.38,-142.08"/>
</g>
<!-- Node3 -->
<g id="node6" class="node">
<title>Node3</title>
<g id="a_node6"><a xlink:href="group__DiscordInternalREST.html" target="_top" xlink:title="Wrapper to the Discord REST API.">
<polygon fill="none" stroke="black" points="305.5,-130 245.5,-130 245.5,-111 305.5,-111 305.5,-130"/>
<text text-anchor="middle" x="275.5" y="-118" font-family="Helvetica,sans-Serif" font-size="10.00">REST API</text>
</a>
</g>
</g>
<!-- Node1&#45;&gt;Node3 -->
<g id="edge2" class="edge">
<title>Node1&#45;&gt;Node3</title>
<path fill="none" stroke="black" d="M145.3,-131.79C180.24,-128.74 219.48,-125.31 245.46,-123.04"/>
<polygon fill="black" stroke="black" points="144.76,-128.32 135.1,-132.68 145.36,-135.3 144.76,-128.32"/>
</g>
<!-- Node5 -->
<g id="node7" class="node">
<title>Node5</title>
<g id="a_node7"><a xlink:href="group__DiscordInternalRefcount.html" target="_top" xlink:title="Handle automatic cleanup of user&#39;s data.">
<polygon fill="none" stroke="black" points="328.5,-93 222.5,-93 222.5,-74 328.5,-74 328.5,-93"/>
<text text-anchor="middle" x="275.5" y="-81" font-family="Helvetica,sans-Serif" font-size="10.00">Reference counter</text>
</a>
</g>
</g>
<!-- Node1&#45;&gt;Node5 -->
<g id="edge4" class="edge">
<title>Node1&#45;&gt;Node5</title>
<path fill="none" stroke="black" d="M134.8,-120.8C169.3,-111.59 210.12,-100.69 238.69,-93.06"/>
<polygon fill="black" stroke="black" points="133.55,-117.51 124.79,-123.47 135.35,-124.27 133.55,-117.51"/>
</g>
<!-- Node2 -->
<g id="node8" class="node">
<title>Node2</title>
<g id="a_node8"><a xlink:href="group__DiscordInternalTimer.html" target="_top" xlink:title="Callback scheduling API.">
<polygon fill="none" stroke="black" points="307.5,-56 243.5,-56 243.5,-37 307.5,-37 307.5,-56"/>
<text text-anchor="middle" x="275.5" y="-44" font-family="Helvetica,sans-Serif" font-size="10.00">Timer API</text>
</a>
</g>
</g>
<!-- Node1&#45;&gt;Node2 -->
<g id="edge1" class="edge">
<title>Node1&#45;&gt;Node2</title>
<path fill="none" stroke="black" d="M102.07,-118.23C129.54,-102.28 169.8,-80.34 207,-65.5 218.65,-60.85 231.85,-56.87 243.47,-53.77"/>
<polygon fill="black" stroke="black" points="100.12,-115.32 93.26,-123.39 103.66,-121.36 100.12,-115.32"/>
</g>
<!-- Node8 -->
<g id="node9" class="node">
<title>Node8</title>
<g id="a_node9"><a xlink:href="group__DiscordInternalWorker.html" target="_top" xlink:title="A global threadpool for worker&#45;threads handling.">
<polygon fill="none" stroke="black" points="327.5,-19 223.5,-19 223.5,0 327.5,0 327.5,-19"/>
<text text-anchor="middle" x="275.5" y="-7" font-family="Helvetica,sans-Serif" font-size="10.00">Global threadpool</text>
</a>
</g>
</g>
<!-- Node1&#45;&gt;Node8 -->
<g id="edge7" class="edge">
<title>Node1&#45;&gt;Node8</title>
<path fill="none" stroke="black" d="M90.55,-116.03C116.28,-91.08 161.16,-51.32 207,-28.5 214.63,-24.7 223.13,-21.56 231.46,-19"/>
<polygon fill="black" stroke="black" points="87.87,-113.76 83.2,-123.27 92.78,-118.75 87.87,-113.76"/>
</g>
</g>
</svg>
