<?xml version="1.0" encoding="UTF-8" standalone="no"?>
<!DOCTYPE svg PUBLIC "-//W3C//DTD SVG 1.1//EN"
 "http://www.w3.org/Graphics/SVG/1.1/DTD/svg11.dtd">
<!-- Generated by graphviz version 2.43.0 (0)
 -->
<!-- Title: REST API Pages: 1 -->
<svg width="381pt" height="64pt"
 viewBox="0.00 0.00 381.00 64.00" xmlns="http://www.w3.org/2000/svg" xmlns:xlink="http://www.w3.org/1999/xlink">
<g id="graph0" class="graph" transform="scale(1 1) rotate(0) translate(4 60)">
<title>REST API</title>
<!-- Node2 -->
<g id="node1" class="node">
<title>Node2</title>
<g id="a_node1"><a xlink:href="group__DiscordInternal.html" target="_top" xlink:title="Documentation useful when developing or debugging Concord itself.">
<polygon fill="none" stroke="black" points="135,-42.5 0,-42.5 0,-12.5 135,-12.5 135,-42.5"/>
<text text-anchor="start" x="8" y="-30.5" font-family="Helvetica,sans-Serif" font-size="10.00">Internal implementation</text>
<text text-anchor="middle" x="67.5" y="-19.5" font-family="Helvetica,sans-Serif" font-size="10.00"> details</text>
</a>
</g>
</g>
<!-- Node1 -->
<g id="node2" class="node">
<title>Node1</title>
<g id="a_node2"><a xlink:title="Wrapper to the Discord REST API.">
<polygon fill="#bfbfbf" stroke="black" points="231,-37 171,-37 171,-18 231,-18 231,-37"/>
<text text-anchor="middle" x="201" y="-25" font-family="Helvetica,sans-Serif" font-size="10.00">REST API</text>
</a>
</g>
</g>
<!-- Node2&#45;&gt;Node1 -->
<g id="edge1" class="edge">
<title>Node2&#45;&gt;Node1</title>
<path fill="none" stroke="black" d="M145.03,-27.5C154.18,-27.5 163.05,-27.5 170.89,-27.5"/>
<polygon fill="black" stroke="black" points="145.02,-24 135.02,-27.5 145.02,-31 145.02,-24"/>
</g>
<!-- Node4 -->
<g id="node3" class="node">
<title>Node4</title>
<g id="a_node3"><a xlink:href="group__DiscordInternalAdapterRatelimit.html" target="_top" xlink:title="Enforce ratelimiting per the official Discord Documentation.">
<polygon fill="none" stroke="black" points="358.5,-56 281.5,-56 281.5,-37 358.5,-37 358.5,-56"/>
<text text-anchor="middle" x="320" y="-44" font-family="Helvetica,sans-Serif" font-size="10.00">Ratelimiting</text>
</a>
</g>
</g>
<!-- Node1&#45;&gt;Node4 -->
<g id="edge3" class="edge">
<title>Node1&#45;&gt;Node4</title>
<path fill="none" stroke="black" d="M241.23,-33.87C254.16,-35.97 268.5,-38.3 281.32,-40.38"/>
<polygon fill="black" stroke="black" points="241.65,-30.39 231.22,-32.25 240.53,-37.3 241.65,-30.39"/>
</g>
<!-- Node3 -->
<g id="node4" class="node">
<title>Node3</title>
<g id="a_node4"><a xlink:href="group__DiscordInternalAdapterRefcount.html" target="_top" xlink:title="Handle automatic cleanup of user&#39;s data.">
<polygon fill="none" stroke="black" points="373,-19 267,-19 267,0 373,0 373,-19"/>
<text text-anchor="middle" x="320" y="-7" font-family="Helvetica,sans-Serif" font-size="10.00">Reference counter</text>
</a>
</g>
</g>
<!-- Node1&#45;&gt;Node3 -->
<g id="edge2" class="edge">
<title>Node1&#45;&gt;Node3</title>
<path fill="none" stroke="black" d="M241.29,-21.46C249.52,-20.19 258.32,-18.84 266.94,-17.51"/>
<polygon fill="black" stroke="black" points="240.57,-18.02 231.22,-23 241.64,-24.94 240.57,-18.02"/>
</g>
</g>
</svg>
