<?xml version="1.0" encoding="UTF-8" standalone="no"?>
<!DOCTYPE svg PUBLIC "-//W3C//DTD SVG 1.1//EN"
 "http://www.w3.org/Graphics/SVG/1.1/DTD/svg11.dtd">
<!-- Generated by graphviz version 2.43.0 (0)
 -->
<!-- Title: Channel Pages: 1 -->
<svg width="268pt" height="175pt"
 viewBox="0.00 0.00 268.00 175.00" xmlns="http://www.w3.org/2000/svg" xmlns:xlink="http://www.w3.org/1999/xlink">
<g id="graph0" class="graph" transform="scale(1 1) rotate(0) translate(4 171)">
<title>Channel</title>
<!-- Node2 -->
<g id="node1" class="node">
<title>Node2</title>
<g id="a_node1"><a xlink:href="group__DiscordAPI.html" target="_top" xlink:title="The Discord public API supported by Concord.">
<polygon fill="none" stroke="black" points="32,-93 0,-93 0,-74 32,-74 32,-93"/>
<text text-anchor="middle" x="16" y="-81" font-family="Helvetica,sans-Serif" font-size="10.00">API</text>
</a>
</g>
</g>
<!-- Node1 -->
<g id="node2" class="node">
<title>Node1</title>
<g id="a_node2"><a xlink:title="Channel&#39;s public API supported by Concord.">
<polygon fill="#bfbfbf" stroke="black" points="124,-93 68,-93 68,-74 124,-74 124,-93"/>
<text text-anchor="middle" x="96" y="-81" font-family="Helvetica,sans-Serif" font-size="10.00">Channel</text>
</a>
</g>
</g>
<!-- Node2&#45;&gt;Node1 -->
<g id="edge1" class="edge">
<title>Node2&#45;&gt;Node1</title>
<path fill="none" stroke="black" d="M42.09,-83.5C50.26,-83.5 59.37,-83.5 67.69,-83.5"/>
<polygon fill="black" stroke="black" points="42.04,-80 32.04,-83.5 42.04,-87 42.04,-80"/>
</g>
<!-- Node7 -->
<g id="node3" class="node">
<title>Node7</title>
<g id="a_node3"><a xlink:href="group__DiscordAPIChannelAttachmentFlags.html" target="_top" xlink:title=" ">
<polygon fill="none" stroke="black" points="260,-167 160,-167 160,-148 260,-148 260,-167"/>
<text text-anchor="middle" x="210" y="-155" font-family="Helvetica,sans-Serif" font-size="10.00">Attachment flags</text>
</a>
</g>
</g>
<!-- Node1&#45;&gt;Node7 -->
<g id="edge6" class="edge">
<title>Node1&#45;&gt;Node7</title>
<path fill="none" stroke="black" d="M112.56,-100.39C124.56,-112.6 142.08,-128.77 160,-139.5 165.44,-142.76 171.57,-145.58 177.61,-147.96"/>
<polygon fill="black" stroke="black" points="114.97,-97.84 105.53,-93.03 109.91,-102.68 114.97,-97.84"/>
</g>
<!-- Node3 -->
<g id="node4" class="node">
<title>Node3</title>
<g id="a_node4"><a xlink:href="group__DiscordAPIChannelEmbed.html" target="_top" xlink:title="Dynamic embed builder functions.">
<polygon fill="none" stroke="black" points="253.5,-130 166.5,-130 166.5,-111 253.5,-111 253.5,-130"/>
<text text-anchor="middle" x="210" y="-118" font-family="Helvetica,sans-Serif" font-size="10.00">Embed builder</text>
</a>
</g>
</g>
<!-- Node1&#45;&gt;Node3 -->
<g id="edge2" class="edge">
<title>Node1&#45;&gt;Node3</title>
<path fill="none" stroke="black" d="M133.67,-95.62C148.77,-100.6 166.01,-106.3 180.18,-110.98"/>
<polygon fill="black" stroke="black" points="134.71,-92.27 124.11,-92.46 132.51,-98.92 134.71,-92.27"/>
</g>
<!-- Node5 -->
<g id="node5" class="node">
<title>Node5</title>
<g id="a_node5"><a xlink:href="group__DiscordAPIChannelFlags.html" target="_top" xlink:title=" ">
<polygon fill="none" stroke="black" points="253,-93 167,-93 167,-74 253,-74 253,-93"/>
<text text-anchor="middle" x="210" y="-81" font-family="Helvetica,sans-Serif" font-size="10.00">Message flags</text>
</a>
</g>
</g>
<!-- Node1&#45;&gt;Node5 -->
<g id="edge4" class="edge">
<title>Node1&#45;&gt;Node5</title>
<path fill="none" stroke="black" d="M134.18,-83.5C144.65,-83.5 156.11,-83.5 166.84,-83.5"/>
<polygon fill="black" stroke="black" points="134.11,-80 124.11,-83.5 134.11,-87 134.11,-80"/>
</g>
<!-- Node4 -->
<g id="node6" class="node">
<title>Node4</title>
<g id="a_node6"><a xlink:href="group__DiscordAPIChannelHelper.html" target="_top" xlink:title="Custom helper functions.">
<polygon fill="none" stroke="black" points="258.5,-56 161.5,-56 161.5,-37 258.5,-37 258.5,-56"/>
<text text-anchor="middle" x="210" y="-44" font-family="Helvetica,sans-Serif" font-size="10.00">Helper functions</text>
</a>
</g>
</g>
<!-- Node1&#45;&gt;Node4 -->
<g id="edge3" class="edge">
<title>Node1&#45;&gt;Node4</title>
<path fill="none" stroke="black" d="M133.67,-71.38C148.77,-66.4 166.01,-60.7 180.18,-56.02"/>
<polygon fill="black" stroke="black" points="132.51,-68.08 124.11,-74.54 134.71,-74.73 132.51,-68.08"/>
</g>
<!-- Node6 -->
<g id="node7" class="node">
<title>Node6</title>
<g id="a_node7"><a xlink:href="group__DiscordAPIChannelMessageFlags.html" target="_top" xlink:title=" ">
<polygon fill="none" stroke="black" points="253,-19 167,-19 167,0 253,0 253,-19"/>
<text text-anchor="middle" x="210" y="-7" font-family="Helvetica,sans-Serif" font-size="10.00">Message flags</text>
</a>
</g>
</g>
<!-- Node1&#45;&gt;Node6 -->
<g id="edge5" class="edge">
<title>Node1&#45;&gt;Node6</title>
<path fill="none" stroke="black" d="M113.09,-66.61C125.13,-54.72 142.47,-39.1 160,-28.5 166.01,-24.87 172.84,-21.7 179.45,-19.05"/>
<polygon fill="black" stroke="black" points="110.53,-64.22 105.99,-73.79 115.51,-69.14 110.53,-64.22"/>
</g>
</g>
</svg>
