<?xml version="1.0" encoding="UTF-8" standalone="no"?>
<!DOCTYPE svg PUBLIC "-//W3C//DTD SVG 1.1//EN"
 "http://www.w3.org/Graphics/SVG/1.1/DTD/svg11.dtd">
<!-- Generated by graphviz version 2.43.0 (0)
 -->
<!-- Title: Client Pages: 1 -->
<svg width="260pt" height="187pt"
 viewBox="0.00 0.00 260.00 187.00" xmlns="http://www.w3.org/2000/svg" xmlns:xlink="http://www.w3.org/1999/xlink">
<g id="graph0" class="graph" transform="scale(1 1) rotate(0) translate(4 183)">
<title>Client</title>
<!-- Node1 -->
<g id="node1" class="node">
<title>Node1</title>
<g id="a_node1"><a xlink:title="Client functions and datatypes.">
<polygon fill="#bfbfbf" stroke="black" points="45,-105 0,-105 0,-86 45,-86 45,-105"/>
<text text-anchor="middle" x="22.5" y="-93" font-family="Helvetica,sans-Serif" font-size="10.00">Client</text>
</a>
</g>
</g>
<!-- Node2 -->
<g id="node2" class="node">
<title>Node2</title>
<g id="a_node2"><a xlink:href="group__DiscordClientCache.html" target="_top" xlink:title="Caching API supported by Concord.">
<polygon fill="none" stroke="black" points="212.5,-179 156.5,-179 156.5,-160 212.5,-160 212.5,-179"/>
<text text-anchor="middle" x="184.5" y="-167" font-family="Helvetica,sans-Serif" font-size="10.00">Caching</text>
</a>
</g>
</g>
<!-- Node1&#45;&gt;Node2 -->
<g id="edge1" class="edge">
<title>Node1&#45;&gt;Node2</title>
<path fill="none" stroke="black" d="M42.36,-111.75C48.7,-116.81 55.95,-122.18 63,-126.5 85.55,-140.31 92.15,-142.46 117,-151.5 129.7,-156.12 144.15,-160.17 156.32,-163.25"/>
<polygon fill="black" stroke="black" points="44.34,-108.85 34.4,-105.18 39.89,-114.25 44.34,-108.85"/>
</g>
<!-- Node3 -->
<g id="node3" class="node">
<title>Node3</title>
<g id="a_node3"><a xlink:href="group__DiscordCommands.html" target="_top" xlink:title="Requests made by the client to the Gateway socket.">
<polygon fill="none" stroke="black" points="220.5,-142 148.5,-142 148.5,-123 220.5,-123 220.5,-142"/>
<text text-anchor="middle" x="184.5" y="-130" font-family="Helvetica,sans-Serif" font-size="10.00">Commands</text>
</a>
</g>
</g>
<!-- Node1&#45;&gt;Node3 -->
<g id="edge2" class="edge">
<title>Node1&#45;&gt;Node3</title>
<path fill="none" stroke="black" d="M54.54,-107C57.39,-107.9 60.23,-108.75 63,-109.5 91.37,-117.19 124.17,-123.27 148.38,-127.24"/>
<polygon fill="black" stroke="black" points="55.64,-103.67 45.04,-103.8 53.41,-110.31 55.64,-103.67"/>
</g>
<!-- Node4 -->
<g id="node4" class="node">
<title>Node4</title>
<g id="a_node4"><a xlink:href="group__DiscordEvents.html" target="_top" xlink:title="Events sent over the Gateway socket to the client.">
<polygon fill="none" stroke="black" points="209.5,-105 159.5,-105 159.5,-86 209.5,-86 209.5,-105"/>
<text text-anchor="middle" x="184.5" y="-93" font-family="Helvetica,sans-Serif" font-size="10.00">Events</text>
</a>
</g>
</g>
<!-- Node1&#45;&gt;Node4 -->
<g id="edge3" class="edge">
<title>Node1&#45;&gt;Node4</title>
<path fill="none" stroke="black" d="M55.24,-95.5C85.88,-95.5 131.62,-95.5 159.4,-95.5"/>
<polygon fill="black" stroke="black" points="55.08,-92 45.08,-95.5 55.08,-99 55.08,-92"/>
</g>
<!-- Node6 -->
<g id="node5" class="node">
<title>Node6</title>
<g id="a_node5"><a xlink:href="group__DiscordInternal.html" target="_top" xlink:title="Documentation useful when developing or debugging Concord itself.">
<polygon fill="none" stroke="black" points="252,-67.5 117,-67.5 117,-37.5 252,-37.5 252,-67.5"/>
<text text-anchor="start" x="125" y="-55.5" font-family="Helvetica,sans-Serif" font-size="10.00">Internal implementation</text>
<text text-anchor="middle" x="184.5" y="-44.5" font-family="Helvetica,sans-Serif" font-size="10.00"> details</text>
</a>
</g>
</g>
<!-- Node1&#45;&gt;Node6 -->
<g id="edge5" class="edge">
<title>Node1&#45;&gt;Node6</title>
<path fill="none" stroke="orange" stroke-dasharray="5,2" d="M45.05,-86.72C50.83,-84.53 57.11,-82.3 63,-80.5 80.26,-75.24 99.16,-70.42 116.78,-66.32"/>
<text text-anchor="middle" x="81" y="-83.5" font-family="Helvetica,sans-Serif" font-size="10.00">discord</text>
</g>
<!-- Node5 -->
<g id="node6" class="node">
<title>Node5</title>
<g id="a_node6"><a xlink:href="group__DiscordTimer.html" target="_top" xlink:title="Schedule callbacks to be called in the future.">
<polygon fill="none" stroke="black" points="207,-19 162,-19 162,0 207,0 207,-19"/>
<text text-anchor="middle" x="184.5" y="-7" font-family="Helvetica,sans-Serif" font-size="10.00">Timer</text>
</a>
</g>
</g>
<!-- Node1&#45;&gt;Node5 -->
<g id="edge4" class="edge">
<title>Node1&#45;&gt;Node5</title>
<path fill="none" stroke="black" d="M44.76,-79.77C50.65,-75.44 57.06,-70.77 63,-66.5 86.83,-49.37 90.52,-41.15 117,-28.5 131.3,-21.67 148.53,-16.83 161.87,-13.75"/>
<polygon fill="black" stroke="black" points="42.59,-77.02 36.62,-85.77 46.75,-82.65 42.59,-77.02"/>
</g>
</g>
</svg>
