<?xml version="1.0" encoding="UTF-8" standalone="no"?>
<!DOCTYPE svg PUBLIC "-//W3C//DTD SVG 1.1//EN"
 "http://www.w3.org/Graphics/SVG/1.1/DTD/svg11.dtd">
<!-- Generated by graphviz version 2.43.0 (0)
 -->
<!-- Title: Constants Pages: 1 -->
<svg width="235pt" height="249pt"
 viewBox="0.00 0.00 235.00 249.00" xmlns="http://www.w3.org/2000/svg" xmlns:xlink="http://www.w3.org/1999/xlink">
<g id="graph0" class="graph" transform="scale(1 1) rotate(0) translate(4 245)">
<title>Constants</title>
<!-- Node6 -->
<g id="node1" class="node">
<title>Node6</title>
<g id="a_node1"><a xlink:href="group__DiscordActivityFlags.html" target="_top" xlink:title="Describe user activities.">
<polygon fill="none" stroke="black" points="227,-241 101,-241 101,-222 227,-222 227,-241"/>
<text text-anchor="middle" x="164" y="-229" font-family="Helvetica,sans-Serif" font-size="10.00">Gateway activity flags</text>
</a>
</g>
</g>
<!-- Node5 -->
<g id="node2" class="node">
<title>Node5</title>
<g id="a_node2"><a xlink:href="group__DiscordApplicationFlags.html" target="_top" xlink:title=" ">
<polygon fill="none" stroke="black" points="213,-204 115,-204 115,-185 213,-185 213,-204"/>
<text text-anchor="middle" x="164" y="-192" font-family="Helvetica,sans-Serif" font-size="10.00">Application flags</text>
</a>
</g>
</g>
<!-- Node1 -->
<g id="node3" class="node">
<title>Node1</title>
<g id="a_node3"><a xlink:title="Macros for constants defined by Discord.">
<polygon fill="#bfbfbf" stroke="black" points="65,-130 0,-130 0,-111 65,-111 65,-130"/>
<text text-anchor="middle" x="32.5" y="-118" font-family="Helvetica,sans-Serif" font-size="10.00">Constants</text>
</a>
</g>
</g>
<!-- Node1&#45;&gt;Node6 -->
<g id="edge5" class="edge">
<title>Node1&#45;&gt;Node6</title>
<path fill="none" stroke="black" d="M42.31,-139.24C53.18,-160.37 73.65,-194.27 101,-213.5 105.86,-216.92 111.36,-219.69 117.04,-221.94"/>
<polygon fill="black" stroke="black" points="45.32,-137.43 37.75,-130.01 39.04,-140.53 45.32,-137.43"/>
</g>
<!-- Node1&#45;&gt;Node5 -->
<g id="edge4" class="edge">
<title>Node1&#45;&gt;Node5</title>
<path fill="none" stroke="black" d="M49.81,-137.35C62.67,-149.77 81.62,-166.22 101,-176.5 107.34,-179.86 114.38,-182.67 121.38,-184.98"/>
<polygon fill="black" stroke="black" points="52.2,-134.8 42.64,-130.24 47.27,-139.76 52.2,-134.8"/>
</g>
<!-- Node3 -->
<g id="node4" class="node">
<title>Node3</title>
<g id="a_node4"><a xlink:href="group__DiscordConstantsEmbed.html" target="_top" xlink:title="Max length for embed fields.">
<polygon fill="none" stroke="black" points="208.5,-167 119.5,-167 119.5,-148 208.5,-148 208.5,-167"/>
<text text-anchor="middle" x="164" y="-155" font-family="Helvetica,sans-Serif" font-size="10.00">Embed lengths</text>
</a>
</g>
</g>
<!-- Node1&#45;&gt;Node3 -->
<g id="edge2" class="edge">
<title>Node1&#45;&gt;Node3</title>
<path fill="none" stroke="black" d="M75.16,-132.4C92.69,-137.41 112.82,-143.16 129.38,-147.9"/>
<polygon fill="black" stroke="black" points="75.76,-128.93 65.18,-129.55 73.83,-135.66 75.76,-128.93"/>
</g>
<!-- Node2 -->
<g id="node5" class="node">
<title>Node2</title>
<g id="a_node5"><a xlink:href="group__DiscordConstantsGeneral.html" target="_top" xlink:title="Max length for general fields.">
<polygon fill="none" stroke="black" points="211,-130 117,-130 117,-111 211,-111 211,-130"/>
<text text-anchor="middle" x="164" y="-118" font-family="Helvetica,sans-Serif" font-size="10.00">General lengths</text>
</a>
</g>
</g>
<!-- Node1&#45;&gt;Node2 -->
<g id="edge1" class="edge">
<title>Node1&#45;&gt;Node2</title>
<path fill="none" stroke="black" d="M75.45,-120.5C88.71,-120.5 103.44,-120.5 116.97,-120.5"/>
<polygon fill="black" stroke="black" points="75.18,-117 65.18,-120.5 75.18,-124 75.18,-117"/>
</g>
<!-- Node4 -->
<g id="node6" class="node">
<title>Node4</title>
<g id="a_node6"><a xlink:href="group__DiscordConstantsWebhook.html" target="_top" xlink:title="Max length for embed fields.">
<polygon fill="none" stroke="black" points="214.5,-93 113.5,-93 113.5,-74 214.5,-74 214.5,-93"/>
<text text-anchor="middle" x="164" y="-81" font-family="Helvetica,sans-Serif" font-size="10.00">Webhook lengths</text>
</a>
</g>
</g>
<!-- Node1&#45;&gt;Node4 -->
<g id="edge3" class="edge">
<title>Node1&#45;&gt;Node4</title>
<path fill="none" stroke="black" d="M75.16,-108.6C92.69,-103.59 112.82,-97.84 129.38,-93.1"/>
<polygon fill="black" stroke="black" points="73.83,-105.34 65.18,-111.45 75.76,-112.07 73.83,-105.34"/>
</g>
<!-- Node7 -->
<g id="node7" class="node">
<title>Node7</title>
<g id="a_node7"><a xlink:href="group__DiscordPermissions.html" target="_top" xlink:title=" ">
<polygon fill="none" stroke="black" points="222,-56 106,-56 106,-37 222,-37 222,-56"/>
<text text-anchor="middle" x="164" y="-44" font-family="Helvetica,sans-Serif" font-size="10.00">Discord permissions</text>
</a>
</g>
</g>
<!-- Node1&#45;&gt;Node7 -->
<g id="edge6" class="edge">
<title>Node1&#45;&gt;Node7</title>
<path fill="none" stroke="black" d="M50.35,-103.62C63.25,-91.53 82.01,-75.64 101,-65.5 108.05,-61.73 115.96,-58.6 123.71,-56.03"/>
<polygon fill="black" stroke="black" points="47.9,-101.12 43.13,-110.58 52.76,-106.16 47.9,-101.12"/>
</g>
<!-- Node8 -->
<g id="node8" class="node">
<title>Node8</title>
<g id="a_node8"><a xlink:href="group__DiscordVoiceSpeakingFlags.html" target="_top" xlink:title=" ">
<polygon fill="none" stroke="black" points="222,-19 106,-19 106,0 222,0 222,-19"/>
<text text-anchor="middle" x="164" y="-7" font-family="Helvetica,sans-Serif" font-size="10.00">Voice speaking flags</text>
</a>
</g>
</g>
<!-- Node1&#45;&gt;Node8 -->
<g id="edge7" class="edge">
<title>Node1&#45;&gt;Node8</title>
<path fill="none" stroke="black" d="M42.58,-101.71C53.59,-80.86 74.07,-47.63 101,-28.5 106.42,-24.65 112.63,-21.57 118.98,-19.1"/>
<polygon fill="black" stroke="black" points="39.35,-100.34 37.95,-110.84 45.59,-103.51 39.35,-100.34"/>
</g>
</g>
</svg>
