<?xml version="1.0" encoding="UTF-8" standalone="no"?>
<!DOCTYPE svg PUBLIC "-//W3C//DTD SVG 1.1//EN"
 "http://www.w3.org/Graphics/SVG/1.1/DTD/svg11.dtd">
<!-- Generated by graphviz version 2.43.0 (0)
 -->
<!-- Title: Client Pages: 1 -->
<svg width="260pt" height="113pt"
 viewBox="0.00 0.00 260.00 113.00" xmlns="http://www.w3.org/2000/svg" xmlns:xlink="http://www.w3.org/1999/xlink">
<g id="graph0" class="graph" transform="scale(1 1) rotate(0) translate(4 109)">
<title>Client</title>
<!-- Node1 -->
<g id="node1" class="node">
<title>Node1</title>
<g id="a_node1"><a xlink:title="Functions and datatypes for the client.">
<polygon fill="#bfbfbf" stroke="black" points="45,-62 0,-62 0,-43 45,-43 45,-62"/>
<text text-anchor="middle" x="22.5" y="-50" font-family="Helvetica,sans-Serif" font-size="10.00">Client</text>
</a>
</g>
</g>
<!-- Node2 -->
<g id="node2" class="node">
<title>Node2</title>
<g id="a_node2"><a xlink:href="group__DiscordEvent.html" target="_top" xlink:title="The Discord public Events API supported by Concord.">
<polygon fill="none" stroke="black" points="209.5,-105 159.5,-105 159.5,-86 209.5,-86 209.5,-105"/>
<text text-anchor="middle" x="184.5" y="-93" font-family="Helvetica,sans-Serif" font-size="10.00">Events</text>
</a>
</g>
</g>
<!-- Node1&#45;&gt;Node2 -->
<g id="edge1" class="edge">
<title>Node1&#45;&gt;Node2</title>
<path fill="none" stroke="black" d="M54.55,-64.74C57.39,-65.72 60.24,-66.66 63,-67.5 95.87,-77.51 134.73,-85.95 159.24,-90.86"/>
<polygon fill="black" stroke="black" points="55.64,-61.41 45.05,-61.28 53.25,-67.99 55.64,-61.41"/>
</g>
<!-- Node4 -->
<g id="node3" class="node">
<title>Node4</title>
<g id="a_node3"><a xlink:href="group__DiscordInternal.html" target="_top" xlink:title="Documentation useful when developing or debugging Concord itself.">
<polygon fill="none" stroke="black" points="252,-67.5 117,-67.5 117,-37.5 252,-37.5 252,-67.5"/>
<text text-anchor="start" x="125" y="-55.5" font-family="Helvetica,sans-Serif" font-size="10.00">Internal implementation</text>
<text text-anchor="middle" x="184.5" y="-44.5" font-family="Helvetica,sans-Serif" font-size="10.00"> details</text>
</a>
</g>
</g>
<!-- Node1&#45;&gt;Node4 -->
<g id="edge3" class="edge">
<title>Node1&#45;&gt;Node4</title>
<path fill="none" stroke="orange" stroke-dasharray="5,2" d="M45.08,-52.5C63.5,-52.5 91.02,-52.5 116.67,-52.5"/>
<text text-anchor="middle" x="81" y="-55.5" font-family="Helvetica,sans-Serif" font-size="10.00">discord</text>
</g>
<!-- Node3 -->
<g id="node4" class="node">
<title>Node3</title>
<g id="a_node4"><a xlink:href="group__DiscordTimer.html" target="_top" xlink:title="Schedule callbacks to be called in the future.">
<polygon fill="none" stroke="black" points="207,-19 162,-19 162,0 207,0 207,-19"/>
<text text-anchor="middle" x="184.5" y="-7" font-family="Helvetica,sans-Serif" font-size="10.00">Timer</text>
</a>
</g>
</g>
<!-- Node1&#45;&gt;Node3 -->
<g id="edge2" class="edge">
<title>Node1&#45;&gt;Node3</title>
<path fill="none" stroke="black" d="M55.1,-44.01C86.63,-35.53 134.23,-22.74 161.75,-15.34"/>
<polygon fill="black" stroke="black" points="53.83,-40.73 45.08,-46.7 55.64,-47.49 53.83,-40.73"/>
</g>
</g>
</svg>
