<?xml version="1.0" encoding="UTF-8" standalone="no"?>
<!DOCTYPE svg PUBLIC "-//W3C//DTD SVG 1.1//EN"
 "http://www.w3.org/Graphics/SVG/1.1/DTD/svg11.dtd">
<!-- Generated by graphviz version 2.43.0 (0)
 -->
<!-- Title: Channel Pages: 1 -->
<svg width="265pt" height="101pt"
 viewBox="0.00 0.00 265.00 101.00" xmlns="http://www.w3.org/2000/svg" xmlns:xlink="http://www.w3.org/1999/xlink">
<g id="graph0" class="graph" transform="scale(1 1) rotate(0) translate(4 97)">
<title>Channel</title>
<!-- Node2 -->
<g id="node1" class="node">
<title>Node2</title>
<g id="a_node1"><a xlink:href="group__DiscordAPI.html" target="_top" xlink:title="The Discord public API supported by Concord.">
<polygon fill="none" stroke="black" points="32,-56 0,-56 0,-37 32,-37 32,-56"/>
<text text-anchor="middle" x="16" y="-44" font-family="Helvetica,sans-Serif" font-size="10.00">API</text>
</a>
</g>
</g>
<!-- Node1 -->
<g id="node2" class="node">
<title>Node1</title>
<g id="a_node2"><a xlink:title="Channel&#39;s public API supported by Concord.">
<polygon fill="#bfbfbf" stroke="black" points="124,-56 68,-56 68,-37 124,-37 124,-56"/>
<text text-anchor="middle" x="96" y="-44" font-family="Helvetica,sans-Serif" font-size="10.00">Channel</text>
</a>
</g>
</g>
<!-- Node2&#45;&gt;Node1 -->
<g id="edge1" class="edge">
<title>Node2&#45;&gt;Node1</title>
<path fill="none" stroke="black" d="M42.09,-46.5C50.26,-46.5 59.37,-46.5 67.69,-46.5"/>
<polygon fill="black" stroke="black" points="42.04,-43 32.04,-46.5 42.04,-50 42.04,-43"/>
</g>
<!-- Node3 -->
<g id="node3" class="node">
<title>Node3</title>
<g id="a_node3"><a xlink:href="group__DiscordAPIChannelEmbed.html" target="_top" xlink:title="Dynamic embed builder functions.">
<polygon fill="none" stroke="black" points="252,-93 165,-93 165,-74 252,-74 252,-93"/>
<text text-anchor="middle" x="208.5" y="-81" font-family="Helvetica,sans-Serif" font-size="10.00">Embed builder</text>
</a>
</g>
</g>
<!-- Node1&#45;&gt;Node3 -->
<g id="edge2" class="edge">
<title>Node1&#45;&gt;Node3</title>
<path fill="none" stroke="black" d="M133.81,-58.82C148.46,-63.73 165.08,-69.3 178.82,-73.9"/>
<polygon fill="black" stroke="black" points="134.63,-55.41 124.03,-55.55 132.4,-62.05 134.63,-55.41"/>
</g>
<!-- Node4 -->
<g id="node4" class="node">
<title>Node4</title>
<g id="a_node4"><a xlink:href="group__DiscordAPIChannelHelper.html" target="_top" xlink:title="Custom helper functions.">
<polygon fill="none" stroke="black" points="257,-56 160,-56 160,-37 257,-37 257,-56"/>
<text text-anchor="middle" x="208.5" y="-44" font-family="Helvetica,sans-Serif" font-size="10.00">Helper functions</text>
</a>
</g>
</g>
<!-- Node1&#45;&gt;Node4 -->
<g id="edge3" class="edge">
<title>Node1&#45;&gt;Node4</title>
<path fill="none" stroke="black" d="M134.04,-46.5C142.25,-46.5 151.06,-46.5 159.63,-46.5"/>
<polygon fill="black" stroke="black" points="134.03,-43 124.03,-46.5 134.03,-50 134.03,-43"/>
</g>
<!-- Node5 -->
<g id="node5" class="node">
<title>Node5</title>
<g id="a_node5"><a xlink:href="group__DiscordAPIChannelMessageFlags.html" target="_top" xlink:title=" ">
<polygon fill="none" stroke="black" points="251.5,-19 165.5,-19 165.5,0 251.5,0 251.5,-19"/>
<text text-anchor="middle" x="208.5" y="-7" font-family="Helvetica,sans-Serif" font-size="10.00">Message flags</text>
</a>
</g>
</g>
<!-- Node1&#45;&gt;Node5 -->
<g id="edge4" class="edge">
<title>Node1&#45;&gt;Node5</title>
<path fill="none" stroke="black" d="M133.81,-34.18C148.46,-29.27 165.08,-23.7 178.82,-19.1"/>
<polygon fill="black" stroke="black" points="132.4,-30.95 124.03,-37.45 134.63,-37.59 132.4,-30.95"/>
</g>
</g>
</svg>
