<?xml version="1.0" encoding="UTF-8" standalone="no"?>
<!DOCTYPE svg PUBLIC "-//W3C//DTD SVG 1.1//EN"
 "http://www.w3.org/Graphics/SVG/1.1/DTD/svg11.dtd">
<!-- Generated by graphviz version 2.43.0 (0)
 -->
<!-- Title: WebSockets API Pages: 1 -->
<svg width="435pt" height="64pt"
 viewBox="0.00 0.00 435.00 64.00" xmlns="http://www.w3.org/2000/svg" xmlns:xlink="http://www.w3.org/1999/xlink">
<g id="graph0" class="graph" transform="scale(1 1) rotate(0) translate(4 60)">
<title>WebSockets API</title>
<!-- Node2 -->
<g id="node1" class="node">
<title>Node2</title>
<g id="a_node1"><a xlink:href="group__DiscordInternal.html" target="_top" xlink:title="Documentation useful when developing or debugging Concord itself.">
<polygon fill="none" stroke="black" points="135,-42.5 0,-42.5 0,-12.5 135,-12.5 135,-42.5"/>
<text text-anchor="start" x="8" y="-30.5" font-family="Helvetica,sans-Serif" font-size="10.00">Internal implementation</text>
<text text-anchor="middle" x="67.5" y="-19.5" font-family="Helvetica,sans-Serif" font-size="10.00"> details</text>
</a>
</g>
</g>
<!-- Node1 -->
<g id="node2" class="node">
<title>Node1</title>
<g id="a_node2"><a xlink:title="Wrapper to the Discord Gateway API.">
<polygon fill="#bfbfbf" stroke="black" points="265,-37 171,-37 171,-18 265,-18 265,-37"/>
<text text-anchor="middle" x="218" y="-25" font-family="Helvetica,sans-Serif" font-size="10.00">WebSockets API</text>
</a>
</g>
</g>
<!-- Node2&#45;&gt;Node1 -->
<g id="edge1" class="edge">
<title>Node2&#45;&gt;Node1</title>
<path fill="none" stroke="black" d="M145.53,-27.5C154.2,-27.5 162.81,-27.5 170.9,-27.5"/>
<polygon fill="black" stroke="black" points="145.36,-24 135.36,-27.5 145.36,-31 145.36,-24"/>
</g>
<!-- Node4 -->
<g id="node3" class="node">
<title>Node4</title>
<g id="a_node3"><a xlink:href="group__DiscordInternalGatewayIntents.html" target="_top" xlink:title="Events user is interested on listening to.">
<polygon fill="none" stroke="black" points="412.5,-56 315.5,-56 315.5,-37 412.5,-37 412.5,-56"/>
<text text-anchor="middle" x="364" y="-44" font-family="Helvetica,sans-Serif" font-size="10.00">Gateway intents</text>
</a>
</g>
</g>
<!-- Node1&#45;&gt;Node4 -->
<g id="edge3" class="edge">
<title>Node1&#45;&gt;Node4</title>
<path fill="none" stroke="black" d="M275.28,-34.93C288.49,-36.67 302.45,-38.51 315.25,-40.2"/>
<polygon fill="black" stroke="black" points="275.73,-31.45 265.36,-33.62 274.81,-38.39 275.73,-31.45"/>
</g>
<!-- Node3 -->
<g id="node4" class="node">
<title>Node3</title>
<g id="a_node4"><a xlink:href="group__DiscordInternalGatewaySessionStatus.html" target="_top" xlink:title="Client&#39;s session status.">
<polygon fill="none" stroke="black" points="427,-19 301,-19 301,0 427,0 427,-19"/>
<text text-anchor="middle" x="364" y="-7" font-family="Helvetica,sans-Serif" font-size="10.00">Client&#39;s session status</text>
</a>
</g>
</g>
<!-- Node1&#45;&gt;Node3 -->
<g id="edge2" class="edge">
<title>Node1&#45;&gt;Node3</title>
<path fill="none" stroke="black" d="M275.41,-20.45C283.79,-19.4 292.48,-18.32 300.97,-17.25"/>
<polygon fill="black" stroke="black" points="274.84,-16.99 265.36,-21.71 275.71,-23.94 274.84,-16.99"/>
</g>
</g>
</svg>
