<?xml version="1.0" encoding="UTF-8" standalone="no"?>
<!DOCTYPE svg PUBLIC "-//W3C//DTD SVG 1.1//EN"
 "http://www.w3.org/Graphics/SVG/1.1/DTD/svg11.dtd">
<!-- Generated by graphviz version 2.43.0 (0)
 -->
<!-- Title: Internal implementation details Pages: 1 -->
<svg width="352pt" height="249pt"
 viewBox="0.00 0.00 352.00 249.00" xmlns="http://www.w3.org/2000/svg" xmlns:xlink="http://www.w3.org/1999/xlink">
<g id="graph0" class="graph" transform="scale(1 1) rotate(0) translate(4 245)">
<title>Internal implementation details</title>
<!-- Node8 -->
<g id="node1" class="node">
<title>Node8</title>
<g id="a_node1"><a xlink:href="group__DiscordClient.html" target="_top" xlink:title="Client functions and datatypes.">
<polygon fill="none" stroke="black" points="298,-241 253,-241 253,-222 298,-222 298,-241"/>
<text text-anchor="middle" x="275.5" y="-229" font-family="Helvetica,sans-Serif" font-size="10.00">Client</text>
</a>
</g>
</g>
<!-- Node1 -->
<g id="node2" class="node">
<title>Node1</title>
<g id="a_node2"><a xlink:title="Documentation useful when developing or debugging Concord itself.">
<polygon fill="#bfbfbf" stroke="black" points="135,-135.5 0,-135.5 0,-105.5 135,-105.5 135,-135.5"/>
<text text-anchor="start" x="8" y="-123.5" font-family="Helvetica,sans-Serif" font-size="10.00">Internal implementation</text>
<text text-anchor="middle" x="67.5" y="-112.5" font-family="Helvetica,sans-Serif" font-size="10.00"> details</text>
</a>
</g>
</g>
<!-- Node1&#45;&gt;Node8 -->
<g id="edge7" class="edge">
<title>Node1&#45;&gt;Node8</title>
<path fill="none" stroke="orange" stroke-dasharray="5,2" d="M86.59,-135.55C111.98,-155.97 160.32,-192.32 207,-213.5 221.69,-220.17 239.33,-224.76 252.9,-227.64"/>
<text text-anchor="middle" x="171" y="-205.5" font-family="Helvetica,sans-Serif" font-size="10.00">discord</text>
</g>
<!-- Node4 -->
<g id="node3" class="node">
<title>Node4</title>
<g id="a_node3"><a xlink:href="group__DiscordInternalGateway.html" target="_top" xlink:title="Wrapper to the Discord Gateway API.">
<polygon fill="none" stroke="black" points="322.5,-204 228.5,-204 228.5,-185 322.5,-185 322.5,-204"/>
<text text-anchor="middle" x="275.5" y="-192" font-family="Helvetica,sans-Serif" font-size="10.00">WebSockets API</text>
</a>
</g>
</g>
<!-- Node1&#45;&gt;Node4 -->
<g id="edge3" class="edge">
<title>Node1&#45;&gt;Node4</title>
<path fill="none" stroke="black" d="M111.68,-139.57C138.75,-151.11 174.54,-165.66 207,-176.5 216.09,-179.54 225.99,-182.41 235.35,-184.94"/>
<polygon fill="black" stroke="black" points="113.06,-136.35 102.49,-135.62 110.3,-142.78 113.06,-136.35"/>
</g>
<!-- Node6 -->
<g id="node4" class="node">
<title>Node6</title>
<g id="a_node4"><a xlink:href="group__DiscordInternalMessageCommands.html" target="_top" xlink:title="The Message Commands API for registering and parsing user commands.">
<polygon fill="none" stroke="black" points="344,-167 207,-167 207,-148 344,-148 344,-167"/>
<text text-anchor="middle" x="275.5" y="-155" font-family="Helvetica,sans-Serif" font-size="10.00">Message Commands API</text>
</a>
</g>
</g>
<!-- Node1&#45;&gt;Node6 -->
<g id="edge5" class="edge">
<title>Node1&#45;&gt;Node6</title>
<path fill="none" stroke="black" d="M145.09,-134.26C170.52,-138.82 198.25,-143.8 221.5,-147.98"/>
<polygon fill="black" stroke="black" points="145.56,-130.78 135.1,-132.46 144.32,-137.67 145.56,-130.78"/>
</g>
<!-- Node3 -->
<g id="node5" class="node">
<title>Node3</title>
<g id="a_node5"><a xlink:href="group__DiscordInternalREST.html" target="_top" xlink:title="Wrapper to the Discord REST API.">
<polygon fill="none" stroke="black" points="305.5,-130 245.5,-130 245.5,-111 305.5,-111 305.5,-130"/>
<text text-anchor="middle" x="275.5" y="-118" font-family="Helvetica,sans-Serif" font-size="10.00">REST API</text>
</a>
</g>
</g>
<!-- Node1&#45;&gt;Node3 -->
<g id="edge2" class="edge">
<title>Node1&#45;&gt;Node3</title>
<path fill="none" stroke="black" d="M145.3,-120.5C180.24,-120.5 219.48,-120.5 245.46,-120.5"/>
<polygon fill="black" stroke="black" points="145.1,-117 135.1,-120.5 145.1,-124 145.1,-117"/>
</g>
<!-- Node5 -->
<g id="node6" class="node">
<title>Node5</title>
<g id="a_node6"><a xlink:href="group__DiscordInternalRefcount.html" target="_top" xlink:title="Handle automatic cleanup of user&#39;s data.">
<polygon fill="none" stroke="black" points="328.5,-93 222.5,-93 222.5,-74 328.5,-74 328.5,-93"/>
<text text-anchor="middle" x="275.5" y="-81" font-family="Helvetica,sans-Serif" font-size="10.00">Reference counter</text>
</a>
</g>
</g>
<!-- Node1&#45;&gt;Node5 -->
<g id="edge4" class="edge">
<title>Node1&#45;&gt;Node5</title>
<path fill="none" stroke="black" d="M145.21,-106.72C170.97,-102.09 199.08,-97.05 222.49,-92.84"/>
<polygon fill="black" stroke="black" points="144.32,-103.33 135.1,-108.54 145.56,-110.22 144.32,-103.33"/>
</g>
<!-- Node2 -->
<g id="node7" class="node">
<title>Node2</title>
<g id="a_node7"><a xlink:href="group__DiscordInternalTimer.html" target="_top" xlink:title="Callback scheduling API.">
<polygon fill="none" stroke="black" points="307.5,-56 243.5,-56 243.5,-37 307.5,-37 307.5,-56"/>
<text text-anchor="middle" x="275.5" y="-44" font-family="Helvetica,sans-Serif" font-size="10.00">Timer API</text>
</a>
</g>
</g>
<!-- Node1&#45;&gt;Node2 -->
<g id="edge1" class="edge">
<title>Node1&#45;&gt;Node2</title>
<path fill="none" stroke="black" d="M112.95,-101.49C139.91,-90.3 175.13,-76.28 207,-65.5 218.76,-61.52 231.87,-57.7 243.38,-54.53"/>
<polygon fill="black" stroke="black" points="111.3,-98.38 103.42,-105.47 114,-104.84 111.3,-98.38"/>
</g>
<!-- Node7 -->
<g id="node8" class="node">
<title>Node7</title>
<g id="a_node8"><a xlink:href="group__DiscordInternalWorker.html" target="_top" xlink:title="A global threadpool for worker&#45;threads handling.">
<polygon fill="none" stroke="black" points="327.5,-19 223.5,-19 223.5,0 327.5,0 327.5,-19"/>
<text text-anchor="middle" x="275.5" y="-7" font-family="Helvetica,sans-Serif" font-size="10.00">Global threadpool</text>
</a>
</g>
</g>
<!-- Node1&#45;&gt;Node7 -->
<g id="edge6" class="edge">
<title>Node1&#45;&gt;Node7</title>
<path fill="none" stroke="black" d="M95.21,-99.06C122.06,-78.43 165.34,-47.63 207,-28.5 215.08,-24.79 224.04,-21.65 232.72,-19.06"/>
<polygon fill="black" stroke="black" points="92.84,-96.47 87.1,-105.37 97.14,-102 92.84,-96.47"/>
</g>
</g>
</svg>
