<?xml version="1.0" encoding="UTF-8" standalone="no"?>
<!DOCTYPE svg PUBLIC "-//W3C//DTD SVG 1.1//EN"
 "http://www.w3.org/Graphics/SVG/1.1/DTD/svg11.dtd">
<!-- Generated by graphviz version 2.43.0 (0)
 -->
<!-- Title: Internal implementation details Pages: 1 -->
<svg width="309pt" height="138pt"
 viewBox="0.00 0.00 309.00 138.00" xmlns="http://www.w3.org/2000/svg" xmlns:xlink="http://www.w3.org/1999/xlink">
<g id="graph0" class="graph" transform="scale(1 1) rotate(0) translate(4 134)">
<title>Internal implementation details</title>
<!-- Node5 -->
<g id="node1" class="node">
<title>Node5</title>
<g id="a_node1"><a xlink:href="group__Discord.html" target="_top" xlink:title="Functions and datatypes for the client.">
<polygon fill="none" stroke="black" points="276.5,-130 231.5,-130 231.5,-111 276.5,-111 276.5,-130"/>
<text text-anchor="middle" x="254" y="-118" font-family="Helvetica,sans-Serif" font-size="10.00">Client</text>
</a>
</g>
</g>
<!-- Node1 -->
<g id="node2" class="node">
<title>Node1</title>
<g id="a_node2"><a xlink:title="Documentation useful when developing or debugging Concord itself.">
<polygon fill="#bfbfbf" stroke="black" points="135,-79.5 0,-79.5 0,-49.5 135,-49.5 135,-79.5"/>
<text text-anchor="start" x="8" y="-67.5" font-family="Helvetica,sans-Serif" font-size="10.00">Internal implementation</text>
<text text-anchor="middle" x="67.5" y="-56.5" font-family="Helvetica,sans-Serif" font-size="10.00"> details</text>
</a>
</g>
</g>
<!-- Node1&#45;&gt;Node5 -->
<g id="edge4" class="edge">
<title>Node1&#45;&gt;Node5</title>
<path fill="none" stroke="orange" stroke-dasharray="5,2" d="M117.94,-79.51C154.87,-90.72 203.57,-105.5 231.26,-113.9"/>
<text text-anchor="middle" x="171" y="-103.5" font-family="Helvetica,sans-Serif" font-size="10.00">discord</text>
</g>
<!-- Node2 -->
<g id="node3" class="node">
<title>Node2</title>
<g id="a_node3"><a xlink:href="group__DiscordInternalAdapter.html" target="_top" xlink:title="Wrapper to the Discord REST API.">
<polygon fill="none" stroke="black" points="284,-93 224,-93 224,-74 284,-74 284,-93"/>
<text text-anchor="middle" x="254" y="-81" font-family="Helvetica,sans-Serif" font-size="10.00">REST API</text>
</a>
</g>
</g>
<!-- Node1&#45;&gt;Node2 -->
<g id="edge1" class="edge">
<title>Node1&#45;&gt;Node2</title>
<path fill="none" stroke="black" d="M145.19,-72.4C172.85,-75.25 202.42,-78.29 223.59,-80.47"/>
<polygon fill="black" stroke="black" points="145.41,-68.9 135.11,-71.36 144.7,-75.87 145.41,-68.9"/>
</g>
<!-- Node3 -->
<g id="node4" class="node">
<title>Node3</title>
<g id="a_node4"><a xlink:href="group__DiscordInternalGateway.html" target="_top" xlink:title="Wrapper to the Discord Gateway API.">
<polygon fill="none" stroke="black" points="301,-56 207,-56 207,-37 301,-37 301,-56"/>
<text text-anchor="middle" x="254" y="-44" font-family="Helvetica,sans-Serif" font-size="10.00">WebSockets API</text>
</a>
</g>
</g>
<!-- Node1&#45;&gt;Node3 -->
<g id="edge2" class="edge">
<title>Node1&#45;&gt;Node3</title>
<path fill="none" stroke="black" d="M145.3,-57.01C166.27,-54.96 188.33,-52.81 206.99,-50.99"/>
<polygon fill="black" stroke="black" points="144.72,-53.55 135.11,-58 145.4,-60.51 144.72,-53.55"/>
</g>
<!-- Node4 -->
<g id="node5" class="node">
<title>Node4</title>
<g id="a_node5"><a xlink:href="group__DiscordInternalTimer.html" target="_top" xlink:title="Callback scheduling API.">
<polygon fill="none" stroke="black" points="286,-19 222,-19 222,0 286,0 286,-19"/>
<text text-anchor="middle" x="254" y="-7" font-family="Helvetica,sans-Serif" font-size="10.00">Timer API</text>
</a>
</g>
</g>
<!-- Node1&#45;&gt;Node4 -->
<g id="edge3" class="edge">
<title>Node1&#45;&gt;Node4</title>
<path fill="none" stroke="black" d="M128.78,-46.53C159.82,-37.28 196.37,-26.38 221.75,-18.81"/>
<polygon fill="black" stroke="black" points="127.5,-43.26 118.92,-49.47 129.5,-49.97 127.5,-43.26"/>
</g>
</g>
</svg>
