<?xml version="1.0" encoding="UTF-8" standalone="no"?>
<!DOCTYPE svg PUBLIC "-//W3C//DTD SVG 1.1//EN"
 "http://www.w3.org/Graphics/SVG/1.1/DTD/svg11.dtd">
<!-- Generated by graphviz version 2.43.0 (0)
 -->
<!-- Title: API Pages: 1 -->
<svg width="166pt" height="397pt"
 viewBox="0.00 0.00 166.00 397.00" xmlns="http://www.w3.org/2000/svg" xmlns:xlink="http://www.w3.org/1999/xlink">
<g id="graph0" class="graph" transform="scale(1 1) rotate(0) translate(4 393)">
<title>API</title>
<!-- Node1 -->
<g id="node1" class="node">
<title>Node1</title>
<g id="a_node1"><a xlink:title="The Discord public API supported by Concord.">
<polygon fill="#bfbfbf" stroke="black" points="32,-204 0,-204 0,-185 32,-185 32,-204"/>
<text text-anchor="middle" x="16" y="-192" font-family="Helvetica,sans-Serif" font-size="10.00">API</text>
</a>
</g>
</g>
<!-- Node3 -->
<g id="node2" class="node">
<title>Node3</title>
<g id="a_node2"><a xlink:href="group__DiscordAPIAuditLog.html" target="_top" xlink:title="Audit Log&#39;s public API supported by Concord.">
<polygon fill="none" stroke="black" points="144,-389 82,-389 82,-370 144,-370 144,-389"/>
<text text-anchor="middle" x="113" y="-377" font-family="Helvetica,sans-Serif" font-size="10.00">Audit Log</text>
</a>
</g>
</g>
<!-- Node1&#45;&gt;Node3 -->
<g id="edge2" class="edge">
<title>Node1&#45;&gt;Node3</title>
<path fill="none" stroke="black" d="M17.73,-214.31C20.03,-248.56 29.46,-319.24 68,-361.5 71.78,-365.65 76.66,-368.86 81.78,-371.34"/>
<polygon fill="black" stroke="black" points="21.22,-213.98 17.19,-204.18 14.23,-214.35 21.22,-213.98"/>
</g>
<!-- Node4 -->
<g id="node3" class="node">
<title>Node4</title>
<g id="a_node3"><a xlink:href="group__DiscordAPIChannel.html" target="_top" xlink:title="Channel&#39;s public API supported by Concord.">
<polygon fill="none" stroke="black" points="141,-352 85,-352 85,-333 141,-333 141,-352"/>
<text text-anchor="middle" x="113" y="-340" font-family="Helvetica,sans-Serif" font-size="10.00">Channel</text>
</a>
</g>
</g>
<!-- Node1&#45;&gt;Node4 -->
<g id="edge3" class="edge">
<title>Node1&#45;&gt;Node4</title>
<path fill="none" stroke="black" d="M19.77,-214.18C24.7,-242.18 37.49,-293.54 68,-324.5 72.63,-329.2 78.67,-332.72 84.78,-335.34"/>
<polygon fill="black" stroke="black" points="23.19,-213.38 18.16,-204.05 16.28,-214.48 23.19,-213.38"/>
</g>
<!-- Node5 -->
<g id="node4" class="node">
<title>Node5</title>
<g id="a_node4"><a xlink:href="group__DiscordAPIEmoji.html" target="_top" xlink:title="Emoji&#39;s public API supported by Concord.">
<polygon fill="none" stroke="black" points="135,-315 91,-315 91,-296 135,-296 135,-315"/>
<text text-anchor="middle" x="113" y="-303" font-family="Helvetica,sans-Serif" font-size="10.00">Emoji</text>
</a>
</g>
</g>
<!-- Node1&#45;&gt;Node5 -->
<g id="edge4" class="edge">
<title>Node1&#45;&gt;Node5</title>
<path fill="none" stroke="black" d="M23.13,-213.65C30.66,-234.4 45.31,-267.24 68,-287.5 74.4,-293.22 82.87,-297.26 90.66,-300.04"/>
<polygon fill="black" stroke="black" points="26.39,-212.36 19.84,-204.04 19.77,-214.63 26.39,-212.36"/>
</g>
<!-- Node6 -->
<g id="node5" class="node">
<title>Node6</title>
<g id="a_node5"><a xlink:href="group__DiscordAPIGateway.html" target="_top" xlink:title="Gateway&#39;s public API supported by Concord.">
<polygon fill="none" stroke="black" points="143,-278 83,-278 83,-259 143,-259 143,-278"/>
<text text-anchor="middle" x="113" y="-266" font-family="Helvetica,sans-Serif" font-size="10.00">Gateway</text>
</a>
</g>
</g>
<!-- Node1&#45;&gt;Node6 -->
<g id="edge5" class="edge">
<title>Node1&#45;&gt;Node6</title>
<path fill="none" stroke="black" d="M29.63,-212.07C39.07,-224.19 52.91,-239.95 68,-250.5 72.6,-253.72 77.86,-256.49 83.11,-258.84"/>
<polygon fill="black" stroke="black" points="32.38,-209.91 23.57,-204.02 26.79,-214.12 32.38,-209.91"/>
</g>
<!-- Node7 -->
<g id="node6" class="node">
<title>Node7</title>
<g id="a_node6"><a xlink:href="group__DiscordAPIGuild.html" target="_top" xlink:title="Guild&#39;s public API supported by Concord.">
<polygon fill="none" stroke="black" points="134,-241 92,-241 92,-222 134,-222 134,-241"/>
<text text-anchor="middle" x="113" y="-229" font-family="Helvetica,sans-Serif" font-size="10.00">Guild</text>
</a>
</g>
</g>
<!-- Node1&#45;&gt;Node7 -->
<g id="edge6" class="edge">
<title>Node1&#45;&gt;Node7</title>
<path fill="none" stroke="black" d="M41.78,-204.15C57.36,-210.22 77.19,-217.94 91.81,-223.63"/>
<polygon fill="black" stroke="black" points="42.85,-200.81 32.26,-200.44 40.31,-207.34 42.85,-200.81"/>
</g>
<!-- Node8 -->
<g id="node7" class="node">
<title>Node8</title>
<g id="a_node7"><a xlink:href="group__DiscordAPIGuildTemplate.html" target="_top" xlink:title="Guild Template&#39;s public API supported by Concord.">
<polygon fill="none" stroke="black" points="158,-204 68,-204 68,-185 158,-185 158,-204"/>
<text text-anchor="middle" x="113" y="-192" font-family="Helvetica,sans-Serif" font-size="10.00">Guild Template</text>
</a>
</g>
</g>
<!-- Node1&#45;&gt;Node8 -->
<g id="edge7" class="edge">
<title>Node1&#45;&gt;Node8</title>
<path fill="none" stroke="black" d="M42.45,-194.5C50.22,-194.5 59,-194.5 67.64,-194.5"/>
<polygon fill="black" stroke="black" points="42.26,-191 32.26,-194.5 42.26,-198 42.26,-191"/>
</g>
<!-- Node2 -->
<g id="node8" class="node">
<title>Node2</title>
<g id="a_node8"><a xlink:href="group__DiscordAPIInteractions.html" target="_top" xlink:title="Interactions public API supported by Concord.">
<polygon fill="none" stroke="black" points="150,-167 76,-167 76,-148 150,-148 150,-167"/>
<text text-anchor="middle" x="113" y="-155" font-family="Helvetica,sans-Serif" font-size="10.00">Interactions</text>
</a>
</g>
</g>
<!-- Node1&#45;&gt;Node2 -->
<g id="edge1" class="edge">
<title>Node1&#45;&gt;Node2</title>
<path fill="none" stroke="black" d="M41.81,-184.84C55.9,-179.35 73.47,-172.51 87.51,-167.04"/>
<polygon fill="black" stroke="black" points="40.31,-181.66 32.26,-188.56 42.85,-188.19 40.31,-181.66"/>
</g>
<!-- Node9 -->
<g id="node9" class="node">
<title>Node9</title>
<g id="a_node9"><a xlink:href="group__DiscordAPIInvite.html" target="_top" xlink:title="Invite&#39;s public API supported by Concord.">
<polygon fill="none" stroke="black" points="135,-130 91,-130 91,-111 135,-111 135,-130"/>
<text text-anchor="middle" x="113" y="-118" font-family="Helvetica,sans-Serif" font-size="10.00">Invite</text>
</a>
</g>
</g>
<!-- Node1&#45;&gt;Node9 -->
<g id="edge8" class="edge">
<title>Node1&#45;&gt;Node9</title>
<path fill="none" stroke="black" d="M30.36,-176.59C39.84,-164.84 53.43,-149.8 68,-139.5 74.93,-134.6 83.32,-130.59 90.91,-127.54"/>
<polygon fill="black" stroke="black" points="27.35,-174.76 23.96,-184.8 32.87,-179.06 27.35,-174.76"/>
</g>
<!-- Node10 -->
<g id="node10" class="node">
<title>Node10</title>
<g id="a_node10"><a xlink:href="group__DiscordAPIUser.html" target="_top" xlink:title="User&#39;s public API supported by Concord.">
<polygon fill="none" stroke="black" points="132.5,-93 93.5,-93 93.5,-74 132.5,-74 132.5,-93"/>
<text text-anchor="middle" x="113" y="-81" font-family="Helvetica,sans-Serif" font-size="10.00">User</text>
</a>
</g>
</g>
<!-- Node1&#45;&gt;Node10 -->
<g id="edge9" class="edge">
<title>Node1&#45;&gt;Node10</title>
<path fill="none" stroke="black" d="M23.38,-175.32C31.05,-154.85 45.76,-122.65 68,-102.5 75.15,-96.02 84.86,-91.51 93.33,-88.52"/>
<polygon fill="black" stroke="black" points="20.05,-174.23 20,-184.83 26.64,-176.57 20.05,-174.23"/>
</g>
<!-- Node11 -->
<g id="node11" class="node">
<title>Node11</title>
<g id="a_node11"><a xlink:href="group__DiscordAPIVoice.html" target="_top" xlink:title="Voice&#39;s public API supported by Concord.">
<polygon fill="none" stroke="black" points="134.5,-56 91.5,-56 91.5,-37 134.5,-37 134.5,-56"/>
<text text-anchor="middle" x="113" y="-44" font-family="Helvetica,sans-Serif" font-size="10.00">Voice</text>
</a>
</g>
</g>
<!-- Node1&#45;&gt;Node11 -->
<g id="edge10" class="edge">
<title>Node1&#45;&gt;Node11</title>
<path fill="none" stroke="black" d="M19.97,-174.64C25.1,-146.86 38.09,-96.35 68,-65.5 74.25,-59.05 83.06,-54.66 91.16,-51.74"/>
<polygon fill="black" stroke="black" points="16.49,-174.27 18.28,-184.72 23.39,-175.43 16.49,-174.27"/>
</g>
<!-- Node12 -->
<g id="node12" class="node">
<title>Node12</title>
<g id="a_node12"><a xlink:href="group__DiscordAPIWebhook.html" target="_top" xlink:title="Webhook&#39;s public API supported by Concord.">
<polygon fill="none" stroke="black" points="144,-19 82,-19 82,0 144,0 144,-19"/>
<text text-anchor="middle" x="113" y="-7" font-family="Helvetica,sans-Serif" font-size="10.00">Webhook</text>
</a>
</g>
</g>
<!-- Node1&#45;&gt;Node12 -->
<g id="edge11" class="edge">
<title>Node1&#45;&gt;Node12</title>
<path fill="none" stroke="black" d="M17.85,-174.88C20.33,-140.95 30.04,-70.86 68,-28.5 71.78,-24.29 76.65,-20.97 81.77,-18.37"/>
<polygon fill="black" stroke="black" points="14.35,-174.72 17.26,-184.91 21.34,-175.14 14.35,-174.72"/>
</g>
</g>
</svg>
