<?xml version="1.0" encoding="UTF-8" standalone="no"?>
<!DOCTYPE svg PUBLIC "-//W3C//DTD SVG 1.1//EN"
 "http://www.w3.org/Graphics/SVG/1.1/DTD/svg11.dtd">
<!-- Generated by graphviz version 2.43.0 (0)
 -->
<!-- Title: WebSockets API Pages: 1 -->
<svg width="481pt" height="76pt"
 viewBox="0.00 0.00 481.00 75.50" xmlns="http://www.w3.org/2000/svg" xmlns:xlink="http://www.w3.org/1999/xlink">
<g id="graph0" class="graph" transform="scale(1 1) rotate(0) translate(4 71.5)">
<title>WebSockets API</title>
<!-- Node2 -->
<g id="node1" class="node">
<title>Node2</title>
<g id="a_node1"><a xlink:href="group__DiscordInternal.html" target="_top" xlink:title="Documentation useful when developing or debugging Concord itself.">
<polygon fill="none" stroke="black" points="135,-51 0,-51 0,-21 135,-21 135,-51"/>
<text text-anchor="start" x="8" y="-39" font-family="Helvetica,sans-Serif" font-size="10.00">Internal implementation</text>
<text text-anchor="middle" x="67.5" y="-28" font-family="Helvetica,sans-Serif" font-size="10.00"> details</text>
</a>
</g>
</g>
<!-- Node1 -->
<g id="node2" class="node">
<title>Node1</title>
<g id="a_node2"><a xlink:title="Wrapper to the Discord Gateway API.">
<polygon fill="#bfbfbf" stroke="black" points="265,-45.5 171,-45.5 171,-26.5 265,-26.5 265,-45.5"/>
<text text-anchor="middle" x="218" y="-33.5" font-family="Helvetica,sans-Serif" font-size="10.00">WebSockets API</text>
</a>
</g>
</g>
<!-- Node2&#45;&gt;Node1 -->
<g id="edge1" class="edge">
<title>Node2&#45;&gt;Node1</title>
<path fill="none" stroke="black" d="M145.53,-36C154.2,-36 162.81,-36 170.9,-36"/>
<polygon fill="black" stroke="black" points="145.36,-32.5 135.36,-36 145.36,-39.5 145.36,-32.5"/>
</g>
<!-- Node4 -->
<g id="node3" class="node">
<title>Node4</title>
<g id="a_node3"><a xlink:href="group__DiscordInternalGatewayIntents.html" target="_top" xlink:title="Events user is interested on listening to.">
<polygon fill="none" stroke="black" points="435.5,-67.5 338.5,-67.5 338.5,-48.5 435.5,-48.5 435.5,-67.5"/>
<text text-anchor="middle" x="387" y="-55.5" font-family="Helvetica,sans-Serif" font-size="10.00">Gateway intents</text>
</a>
</g>
</g>
<!-- Node1&#45;&gt;Node4 -->
<g id="edge3" class="edge">
<title>Node1&#45;&gt;Node4</title>
<path fill="none" stroke="black" d="M275.22,-43.41C295.71,-46.11 318.66,-49.13 338.33,-51.72"/>
<polygon fill="black" stroke="black" points="275.45,-39.91 265.08,-42.07 274.53,-46.85 275.45,-39.91"/>
</g>
<!-- Node3 -->
<g id="node4" class="node">
<title>Node3</title>
<g id="a_node4"><a xlink:href="group__DiscordInternalGatewaySessionStatus.html" target="_top" xlink:title="Client&#39;s session status.">
<polygon fill="none" stroke="black" points="473,-30 301,-30 301,0 473,0 473,-30"/>
<text text-anchor="start" x="309" y="-18" font-family="Helvetica,sans-Serif" font-size="10.00">DiscordInternalGatewaySession</text>
<text text-anchor="middle" x="387" y="-7" font-family="Helvetica,sans-Serif" font-size="10.00">Status</text>
</a>
</g>
</g>
<!-- Node1&#45;&gt;Node3 -->
<g id="edge2" class="edge">
<title>Node1&#45;&gt;Node3</title>
<path fill="none" stroke="black" d="M275.04,-28.95C283.41,-27.9 292.18,-26.8 300.98,-25.69"/>
<polygon fill="black" stroke="black" points="274.56,-25.49 265.08,-30.21 275.43,-32.43 274.56,-25.49"/>
</g>
</g>
</svg>
