<?xml version="1.0" encoding="UTF-8" standalone="no"?>
<!DOCTYPE svg PUBLIC "-//W3C//DTD SVG 1.1//EN"
 "http://www.w3.org/Graphics/SVG/1.1/DTD/svg11.dtd">
<!-- Generated by graphviz version 2.43.0 (0)
 -->
<!-- Title: Interactions Pages: 1 -->
<svg width="313pt" height="64pt"
 viewBox="0.00 0.00 313.00 64.00" xmlns="http://www.w3.org/2000/svg" xmlns:xlink="http://www.w3.org/1999/xlink">
<g id="graph0" class="graph" transform="scale(1 1) rotate(0) translate(4 60)">
<title>Interactions</title>
<!-- Node2 -->
<g id="node1" class="node">
<title>Node2</title>
<g id="a_node1"><a xlink:href="group__DiscordAPI.html" target="_top" xlink:title="The Discord public API supported by Concord.">
<polygon fill="none" stroke="black" points="32,-37 0,-37 0,-18 32,-18 32,-37"/>
<text text-anchor="middle" x="16" y="-25" font-family="Helvetica,sans-Serif" font-size="10.00">API</text>
</a>
</g>
</g>
<!-- Node1 -->
<g id="node2" class="node">
<title>Node1</title>
<g id="a_node2"><a xlink:title="Interactions public API supported by Concord.">
<polygon fill="#bfbfbf" stroke="black" points="142,-37 68,-37 68,-18 142,-18 142,-37"/>
<text text-anchor="middle" x="105" y="-25" font-family="Helvetica,sans-Serif" font-size="10.00">Interactions</text>
</a>
</g>
</g>
<!-- Node2&#45;&gt;Node1 -->
<g id="edge1" class="edge">
<title>Node2&#45;&gt;Node1</title>
<path fill="none" stroke="black" d="M42.25,-27.5C50.2,-27.5 59.14,-27.5 67.69,-27.5"/>
<polygon fill="black" stroke="black" points="42.15,-24 32.15,-27.5 42.15,-31 42.15,-24"/>
</g>
<!-- Node3 -->
<g id="node3" class="node">
<title>Node3</title>
<g id="a_node3"><a xlink:href="group__DiscordAPIInteractionsApplicationCommand.html" target="_top" xlink:title="Receiving and registering slash commands.">
<polygon fill="none" stroke="black" points="291.5,-56 191.5,-56 191.5,-37 291.5,-37 291.5,-56"/>
<text text-anchor="middle" x="241.5" y="-44" font-family="Helvetica,sans-Serif" font-size="10.00">Slash commands</text>
</a>
</g>
</g>
<!-- Node1&#45;&gt;Node3 -->
<g id="edge2" class="edge">
<title>Node1&#45;&gt;Node3</title>
<path fill="none" stroke="black" d="M151.97,-33.99C164.7,-35.79 178.56,-37.75 191.46,-39.57"/>
<polygon fill="black" stroke="black" points="152.43,-30.52 142.04,-32.59 151.46,-37.46 152.43,-30.52"/>
</g>
<!-- Node4 -->
<g id="node4" class="node">
<title>Node4</title>
<g id="a_node4"><a xlink:href="group__DiscordAPIInteractionsReact.html" target="_top" xlink:title="Receiving and sending interactions.">
<polygon fill="none" stroke="black" points="305,-19 178,-19 178,0 305,0 305,-19"/>
<text text-anchor="middle" x="241.5" y="-7" font-family="Helvetica,sans-Serif" font-size="10.00">Receiving and sending</text>
</a>
</g>
</g>
<!-- Node1&#45;&gt;Node4 -->
<g id="edge3" class="edge">
<title>Node1&#45;&gt;Node4</title>
<path fill="none" stroke="black" d="M152.22,-21.31C160.49,-20.21 169.23,-19.04 177.87,-17.88"/>
<polygon fill="black" stroke="black" points="151.49,-17.88 142.04,-22.68 152.42,-24.82 151.49,-17.88"/>
</g>
</g>
</svg>
