<?xml version="1.0" encoding="UTF-8" standalone="no"?>
<!DOCTYPE svg PUBLIC "-//W3C//DTD SVG 1.1//EN"
 "http://www.w3.org/Graphics/SVG/1.1/DTD/svg11.dtd">
<!-- Generated by graphviz version 2.43.0 (0)
 -->
<!-- Title: Constants Pages: 1 -->
<svg width="235pt" height="212pt"
 viewBox="0.00 0.00 235.00 212.00" xmlns="http://www.w3.org/2000/svg" xmlns:xlink="http://www.w3.org/1999/xlink">
<g id="graph0" class="graph" transform="scale(1 1) rotate(0) translate(4 208)">
<title>Constants</title>
<!-- Node5 -->
<g id="node1" class="node">
<title>Node5</title>
<g id="a_node1"><a xlink:href="group__DiscordActivityFlags.html" target="_top" xlink:title="Describe user activities.">
<polygon fill="none" stroke="black" points="227,-204 101,-204 101,-185 227,-185 227,-204"/>
<text text-anchor="middle" x="164" y="-192" font-family="Helvetica,sans-Serif" font-size="10.00">Gateway activity flags</text>
</a>
</g>
</g>
<!-- Node1 -->
<g id="node2" class="node">
<title>Node1</title>
<g id="a_node2"><a xlink:title="Macros for constants defined by Discord.">
<polygon fill="#bfbfbf" stroke="black" points="65,-111 0,-111 0,-92 65,-92 65,-111"/>
<text text-anchor="middle" x="32.5" y="-99" font-family="Helvetica,sans-Serif" font-size="10.00">Constants</text>
</a>
</g>
</g>
<!-- Node1&#45;&gt;Node5 -->
<g id="edge4" class="edge">
<title>Node1&#45;&gt;Node5</title>
<path fill="none" stroke="black" d="M45.34,-119.66C57.39,-136.74 77.59,-161.81 101,-176.5 106.41,-179.9 112.49,-182.67 118.66,-184.93"/>
<polygon fill="black" stroke="black" points="48.04,-117.41 39.52,-111.11 42.26,-121.35 48.04,-117.41"/>
</g>
<!-- Node3 -->
<g id="node3" class="node">
<title>Node3</title>
<g id="a_node3"><a xlink:href="group__DiscordConstantsEmbed.html" target="_top" xlink:title="Max length for embed fields.">
<polygon fill="none" stroke="black" points="208.5,-167 119.5,-167 119.5,-148 208.5,-148 208.5,-167"/>
<text text-anchor="middle" x="164" y="-155" font-family="Helvetica,sans-Serif" font-size="10.00">Embed lengths</text>
</a>
</g>
</g>
<!-- Node1&#45;&gt;Node3 -->
<g id="edge2" class="edge">
<title>Node1&#45;&gt;Node3</title>
<path fill="none" stroke="black" d="M56.84,-116.4C69.54,-124.05 85.73,-133.09 101,-139.5 108.54,-142.67 116.83,-145.49 124.81,-147.91"/>
<polygon fill="black" stroke="black" points="58.63,-113.39 48.28,-111.13 54.96,-119.36 58.63,-113.39"/>
</g>
<!-- Node2 -->
<g id="node4" class="node">
<title>Node2</title>
<g id="a_node4"><a xlink:href="group__DiscordConstantsGeneral.html" target="_top" xlink:title="Max length for general fields.">
<polygon fill="none" stroke="black" points="211,-130 117,-130 117,-111 211,-111 211,-130"/>
<text text-anchor="middle" x="164" y="-118" font-family="Helvetica,sans-Serif" font-size="10.00">General lengths</text>
</a>
</g>
</g>
<!-- Node1&#45;&gt;Node2 -->
<g id="edge1" class="edge">
<title>Node1&#45;&gt;Node2</title>
<path fill="none" stroke="black" d="M75.45,-107.65C88.71,-109.6 103.44,-111.76 116.97,-113.75"/>
<polygon fill="black" stroke="black" points="75.58,-104.14 65.18,-106.15 74.57,-111.06 75.58,-104.14"/>
</g>
<!-- Node4 -->
<g id="node5" class="node">
<title>Node4</title>
<g id="a_node5"><a xlink:href="group__DiscordConstantsWebhook.html" target="_top" xlink:title="Max length for embed fields.">
<polygon fill="none" stroke="black" points="214.5,-93 113.5,-93 113.5,-74 214.5,-74 214.5,-93"/>
<text text-anchor="middle" x="164" y="-81" font-family="Helvetica,sans-Serif" font-size="10.00">Webhook lengths</text>
</a>
</g>
</g>
<!-- Node1&#45;&gt;Node4 -->
<g id="edge3" class="edge">
<title>Node1&#45;&gt;Node4</title>
<path fill="none" stroke="black" d="M75.1,-95.72C87.32,-94.02 100.81,-92.14 113.48,-90.38"/>
<polygon fill="black" stroke="black" points="74.6,-92.25 65.18,-97.1 75.57,-99.19 74.6,-92.25"/>
</g>
<!-- Node6 -->
<g id="node6" class="node">
<title>Node6</title>
<g id="a_node6"><a xlink:href="group__DiscordPermissions.html" target="_top" xlink:title=" ">
<polygon fill="none" stroke="black" points="222,-56 106,-56 106,-37 222,-37 222,-56"/>
<text text-anchor="middle" x="164" y="-44" font-family="Helvetica,sans-Serif" font-size="10.00">Discord permissions</text>
</a>
</g>
</g>
<!-- Node1&#45;&gt;Node6 -->
<g id="edge5" class="edge">
<title>Node1&#45;&gt;Node6</title>
<path fill="none" stroke="black" d="M58.35,-86.77C70.86,-79.73 86.44,-71.55 101,-65.5 109.42,-62 118.72,-58.82 127.5,-56.09"/>
<polygon fill="black" stroke="black" points="56.38,-83.86 49.44,-91.87 59.86,-89.93 56.38,-83.86"/>
</g>
<!-- Node7 -->
<g id="node7" class="node">
<title>Node7</title>
<g id="a_node7"><a xlink:href="group__DiscordVoiceSpeakingFlags.html" target="_top" xlink:title=" ">
<polygon fill="none" stroke="black" points="222,-19 106,-19 106,0 222,0 222,-19"/>
<text text-anchor="middle" x="164" y="-7" font-family="Helvetica,sans-Serif" font-size="10.00">Voice speaking flags</text>
</a>
</g>
</g>
<!-- Node1&#45;&gt;Node7 -->
<g id="edge6" class="edge">
<title>Node1&#45;&gt;Node7</title>
<path fill="none" stroke="black" d="M45.7,-83.64C57.88,-67.09 78.06,-42.91 101,-28.5 107.1,-24.67 114.03,-21.56 120.98,-19.06"/>
<polygon fill="black" stroke="black" points="42.73,-81.77 39.78,-91.94 48.44,-85.83 42.73,-81.77"/>
</g>
</g>
</svg>
