<?xml version="1.0" encoding="UTF-8" standalone="no"?>
<!DOCTYPE svg PUBLIC "-//W3C//DTD SVG 1.1//EN"
 "http://www.w3.org/Graphics/SVG/1.1/DTD/svg11.dtd">
<!-- Generated by graphviz version 2.43.0 (0)
 -->
<!-- Title: API Pages: 1 -->
<svg width="169pt" height="397pt"
 viewBox="0.00 0.00 169.00 397.00" xmlns="http://www.w3.org/2000/svg" xmlns:xlink="http://www.w3.org/1999/xlink">
<g id="graph0" class="graph" transform="scale(1 1) rotate(0) translate(4 393)">
<title>API</title>
<!-- Node1 -->
<g id="node1" class="node">
<title>Node1</title>
<g id="a_node1"><a xlink:title="The Discord public API supported by Concord.">
<polygon fill="#bfbfbf" stroke="black" points="32,-204 0,-204 0,-185 32,-185 32,-204"/>
<text text-anchor="middle" x="16" y="-192" font-family="Helvetica,sans-Serif" font-size="10.00">API</text>
</a>
</g>
</g>
<!-- Node2 -->
<g id="node2" class="node">
<title>Node2</title>
<g id="a_node2"><a xlink:href="group__DiscordAPIAuditLog.html" target="_top" xlink:title="Audit Log&#39;s public API supported by Concord.">
<polygon fill="none" stroke="black" points="145.5,-389 83.5,-389 83.5,-370 145.5,-370 145.5,-389"/>
<text text-anchor="middle" x="114.5" y="-377" font-family="Helvetica,sans-Serif" font-size="10.00">Audit Log</text>
</a>
</g>
</g>
<!-- Node1&#45;&gt;Node2 -->
<g id="edge1" class="edge">
<title>Node1&#45;&gt;Node2</title>
<path fill="none" stroke="black" d="M17.68,-214.36C19.9,-248.68 29.21,-319.47 68,-361.5 72.15,-366 77.56,-369.39 83.2,-371.94"/>
<polygon fill="black" stroke="black" points="21.17,-214.02 17.17,-204.21 14.18,-214.37 21.17,-214.02"/>
</g>
<!-- Node3 -->
<g id="node3" class="node">
<title>Node3</title>
<g id="a_node3"><a xlink:href="group__DiscordAPIChannel.html" target="_top" xlink:title="Channel&#39;s public API supported by Concord.">
<polygon fill="none" stroke="black" points="142.5,-352 86.5,-352 86.5,-333 142.5,-333 142.5,-352"/>
<text text-anchor="middle" x="114.5" y="-340" font-family="Helvetica,sans-Serif" font-size="10.00">Channel</text>
</a>
</g>
</g>
<!-- Node1&#45;&gt;Node3 -->
<g id="edge2" class="edge">
<title>Node1&#45;&gt;Node3</title>
<path fill="none" stroke="black" d="M19.73,-214.23C24.59,-242.29 37.31,-293.72 68,-324.5 73.04,-329.55 79.67,-333.23 86.31,-335.89"/>
<polygon fill="black" stroke="black" points="23.14,-213.42 18.14,-204.08 16.23,-214.5 23.14,-213.42"/>
</g>
<!-- Node5 -->
<g id="node4" class="node">
<title>Node5</title>
<g id="a_node4"><a xlink:href="group__DiscordAPIEmoji.html" target="_top" xlink:title="Emoji&#39;s public API supported by Concord.">
<polygon fill="none" stroke="black" points="136.5,-315 92.5,-315 92.5,-296 136.5,-296 136.5,-315"/>
<text text-anchor="middle" x="114.5" y="-303" font-family="Helvetica,sans-Serif" font-size="10.00">Emoji</text>
</a>
</g>
</g>
<!-- Node1&#45;&gt;Node5 -->
<g id="edge4" class="edge">
<title>Node1&#45;&gt;Node5</title>
<path fill="none" stroke="black" d="M23.09,-213.7C30.58,-234.49 45.19,-267.37 68,-287.5 74.88,-293.57 84.05,-297.72 92.36,-300.49"/>
<polygon fill="black" stroke="black" points="26.34,-212.41 19.81,-204.06 19.72,-214.66 26.34,-212.41"/>
</g>
<!-- Node6 -->
<g id="node5" class="node">
<title>Node6</title>
<g id="a_node5"><a xlink:href="group__DiscordAPIGateway.html" target="_top" xlink:title="Gateway&#39;s public API supported by Concord.">
<polygon fill="none" stroke="black" points="144.5,-278 84.5,-278 84.5,-259 144.5,-259 144.5,-278"/>
<text text-anchor="middle" x="114.5" y="-266" font-family="Helvetica,sans-Serif" font-size="10.00">Gateway</text>
</a>
</g>
</g>
<!-- Node1&#45;&gt;Node6 -->
<g id="edge5" class="edge">
<title>Node1&#45;&gt;Node6</title>
<path fill="none" stroke="black" d="M29.59,-212.13C39.02,-224.27 52.85,-240.04 68,-250.5 72.89,-253.88 78.51,-256.76 84.09,-259.15"/>
<polygon fill="black" stroke="black" points="32.34,-209.96 23.55,-204.05 26.74,-214.16 32.34,-209.96"/>
</g>
<!-- Node7 -->
<g id="node6" class="node">
<title>Node7</title>
<g id="a_node6"><a xlink:href="group__DiscordAPIGuild.html" target="_top" xlink:title="Guild&#39;s public API supported by Concord.">
<polygon fill="none" stroke="black" points="135.5,-241 93.5,-241 93.5,-222 135.5,-222 135.5,-241"/>
<text text-anchor="middle" x="114.5" y="-229" font-family="Helvetica,sans-Serif" font-size="10.00">Guild</text>
</a>
</g>
</g>
<!-- Node1&#45;&gt;Node7 -->
<g id="edge6" class="edge">
<title>Node1&#45;&gt;Node7</title>
<path fill="none" stroke="black" d="M41.8,-204.01C57.73,-210.12 78.17,-217.96 93.15,-223.7"/>
<polygon fill="black" stroke="black" points="42.67,-200.59 32.08,-200.28 40.16,-207.13 42.67,-200.59"/>
</g>
<!-- Node8 -->
<g id="node7" class="node">
<title>Node8</title>
<g id="a_node7"><a xlink:href="group__DiscordAPIGuildTemplate.html" target="_top" xlink:title="Guild Template&#39;s public API supported by Concord.">
<polygon fill="none" stroke="black" points="159.5,-204 69.5,-204 69.5,-185 159.5,-185 159.5,-204"/>
<text text-anchor="middle" x="114.5" y="-192" font-family="Helvetica,sans-Serif" font-size="10.00">Guild Template</text>
</a>
</g>
</g>
<!-- Node1&#45;&gt;Node8 -->
<g id="edge7" class="edge">
<title>Node1&#45;&gt;Node8</title>
<path fill="none" stroke="black" d="M42.21,-194.5C50.53,-194.5 60.04,-194.5 69.34,-194.5"/>
<polygon fill="black" stroke="black" points="42.08,-191 32.08,-194.5 42.08,-198 42.08,-191"/>
</g>
<!-- Node4 -->
<g id="node8" class="node">
<title>Node4</title>
<g id="a_node8"><a xlink:href="group__DiscordAPIInteractions.html" target="_top" xlink:title="Interactions public API supported by Concord.">
<polygon fill="none" stroke="black" points="161,-167 68,-167 68,-148 161,-148 161,-167"/>
<text text-anchor="middle" x="114.5" y="-155" font-family="Helvetica,sans-Serif" font-size="10.00">Interactions API</text>
</a>
</g>
</g>
<!-- Node1&#45;&gt;Node4 -->
<g id="edge3" class="edge">
<title>Node1&#45;&gt;Node4</title>
<path fill="none" stroke="black" d="M41.75,-185.01C56.06,-179.52 74.03,-172.64 88.4,-167.12"/>
<polygon fill="black" stroke="black" points="40.16,-181.87 32.08,-188.72 42.67,-188.41 40.16,-181.87"/>
</g>
<!-- Node9 -->
<g id="node9" class="node">
<title>Node9</title>
<g id="a_node9"><a xlink:href="group__DiscordAPIInvite.html" target="_top" xlink:title="Invite&#39;s public API supported by Concord.">
<polygon fill="none" stroke="black" points="136.5,-130 92.5,-130 92.5,-111 136.5,-111 136.5,-130"/>
<text text-anchor="middle" x="114.5" y="-118" font-family="Helvetica,sans-Serif" font-size="10.00">Invite</text>
</a>
</g>
</g>
<!-- Node1&#45;&gt;Node9 -->
<g id="edge8" class="edge">
<title>Node1&#45;&gt;Node9</title>
<path fill="none" stroke="black" d="M30.32,-176.53C39.78,-164.76 53.36,-149.72 68,-139.5 75.3,-134.4 84.18,-130.31 92.15,-127.25"/>
<polygon fill="black" stroke="black" points="27.3,-174.71 23.94,-184.76 32.83,-179 27.3,-174.71"/>
</g>
<!-- Node10 -->
<g id="node10" class="node">
<title>Node10</title>
<g id="a_node10"><a xlink:href="group__DiscordAPIUser.html" target="_top" xlink:title="User&#39;s public API supported by Concord.">
<polygon fill="none" stroke="black" points="134,-93 95,-93 95,-74 134,-74 134,-93"/>
<text text-anchor="middle" x="114.5" y="-81" font-family="Helvetica,sans-Serif" font-size="10.00">User</text>
</a>
</g>
</g>
<!-- Node1&#45;&gt;Node10 -->
<g id="edge9" class="edge">
<title>Node1&#45;&gt;Node10</title>
<path fill="none" stroke="black" d="M23.33,-175.27C30.97,-154.75 45.64,-122.52 68,-102.5 75.53,-95.76 85.78,-91.2 94.65,-88.24"/>
<polygon fill="black" stroke="black" points="19.99,-174.2 19.97,-184.8 26.6,-176.53 19.99,-174.2"/>
</g>
<!-- Node11 -->
<g id="node11" class="node">
<title>Node11</title>
<g id="a_node11"><a xlink:href="group__DiscordAPIVoice.html" target="_top" xlink:title="Voice&#39;s public API supported by Concord.">
<polygon fill="none" stroke="black" points="136,-56 93,-56 93,-37 136,-37 136,-56"/>
<text text-anchor="middle" x="114.5" y="-44" font-family="Helvetica,sans-Serif" font-size="10.00">Voice</text>
</a>
</g>
</g>
<!-- Node1&#45;&gt;Node11 -->
<g id="edge10" class="edge">
<title>Node1&#45;&gt;Node11</title>
<path fill="none" stroke="black" d="M19.92,-174.59C24.99,-146.75 37.91,-96.17 68,-65.5 74.71,-58.66 84.26,-54.16 92.88,-51.28"/>
<polygon fill="black" stroke="black" points="16.43,-174.25 18.25,-184.69 23.34,-175.39 16.43,-174.25"/>
</g>
<!-- Node12 -->
<g id="node12" class="node">
<title>Node12</title>
<g id="a_node12"><a xlink:href="group__DiscordAPIWebhook.html" target="_top" xlink:title="Webhook&#39;s public API supported by Concord.">
<polygon fill="none" stroke="black" points="145.5,-19 83.5,-19 83.5,0 145.5,0 145.5,-19"/>
<text text-anchor="middle" x="114.5" y="-7" font-family="Helvetica,sans-Serif" font-size="10.00">Webhook</text>
</a>
</g>
</g>
<!-- Node1&#45;&gt;Node12 -->
<g id="edge11" class="edge">
<title>Node1&#45;&gt;Node12</title>
<path fill="none" stroke="black" d="M17.8,-174.84C20.2,-140.83 29.79,-70.63 68,-28.5 72.14,-23.93 77.55,-20.43 83.19,-17.76"/>
<polygon fill="black" stroke="black" points="14.3,-174.71 17.23,-184.89 21.29,-175.1 14.3,-174.71"/>
</g>
</g>
</svg>
