<?xml version="1.0" encoding="UTF-8" standalone="no"?>
<!DOCTYPE svg PUBLIC "-//W3C//DTD SVG 1.1//EN"
 "http://www.w3.org/Graphics/SVG/1.1/DTD/svg11.dtd">
<!-- Generated by graphviz version 2.43.0 (0)
 -->
<!-- Title: API Pages: 1 -->
<svg width="202pt" height="582pt"
 viewBox="0.00 0.00 202.00 582.00" xmlns="http://www.w3.org/2000/svg" xmlns:xlink="http://www.w3.org/1999/xlink">
<g id="graph0" class="graph" transform="scale(1 1) rotate(0) translate(4 578)">
<title>API</title>
<!-- Node1 -->
<g id="node1" class="node">
<title>Node1</title>
<g id="a_node1"><a xlink:title="The Discord public API supported by Concord.">
<polygon fill="#bfbfbf" stroke="black" points="32,-296 0,-296 0,-277 32,-277 32,-296"/>
<text text-anchor="middle" x="16" y="-284" font-family="Helvetica,sans-Serif" font-size="10.00">API</text>
</a>
</g>
</g>
<!-- Node3 -->
<g id="node2" class="node">
<title>Node3</title>
<g id="a_node2"><a xlink:href="group__DiscordAPIAuditLog.html" target="_top" xlink:title="Audit Log&#39;s public API supported by Concord.">
<polygon fill="none" stroke="black" points="162,-574 100,-574 100,-555 162,-555 162,-574"/>
<text text-anchor="middle" x="131" y="-562" font-family="Helvetica,sans-Serif" font-size="10.00">Audit Log</text>
</a>
</g>
</g>
<!-- Node1&#45;&gt;Node3 -->
<g id="edge2" class="edge">
<title>Node1&#45;&gt;Node3</title>
<path fill="none" stroke="black" d="M18.26,-306.25C22.14,-360.68 35.61,-511.09 68,-546.5 76.17,-555.43 88.48,-560.03 99.99,-562.36"/>
<polygon fill="black" stroke="black" points="21.75,-305.91 17.58,-296.17 14.76,-306.39 21.75,-305.91"/>
</g>
<!-- Node4 -->
<g id="node3" class="node">
<title>Node4</title>
<g id="a_node3"><a xlink:href="group__DiscordAPIAutoModeration.html" target="_top" xlink:title="Auto Moderation public API supported by Concord.">
<polygon fill="none" stroke="black" points="180,-537 82,-537 82,-518 180,-518 180,-537"/>
<text text-anchor="middle" x="131" y="-525" font-family="Helvetica,sans-Serif" font-size="10.00">Auto Moderation</text>
</a>
</g>
</g>
<!-- Node1&#45;&gt;Node4 -->
<g id="edge3" class="edge">
<title>Node1&#45;&gt;Node4</title>
<path fill="none" stroke="black" d="M18.97,-306.29C24.23,-355.2 40.11,-479.95 68,-509.5 71.92,-513.66 76.74,-516.87 81.95,-519.36"/>
<polygon fill="black" stroke="black" points="22.42,-305.66 17.91,-296.08 15.46,-306.38 22.42,-305.66"/>
</g>
<!-- Node5 -->
<g id="node4" class="node">
<title>Node5</title>
<g id="a_node4"><a xlink:href="group__DiscordAPIChannel.html" target="_top" xlink:title="Channel&#39;s public API supported by Concord.">
<polygon fill="none" stroke="black" points="159,-500 103,-500 103,-481 159,-481 159,-500"/>
<text text-anchor="middle" x="131" y="-488" font-family="Helvetica,sans-Serif" font-size="10.00">Channel</text>
</a>
</g>
</g>
<!-- Node1&#45;&gt;Node5 -->
<g id="edge4" class="edge">
<title>Node1&#45;&gt;Node5</title>
<path fill="none" stroke="black" d="M16.51,-306.37C16.69,-344.1 22.64,-426.46 68,-472.5 77.12,-481.76 90.71,-486.33 102.84,-488.55"/>
<polygon fill="black" stroke="black" points="20.01,-306.21 16.6,-296.18 13.01,-306.15 20.01,-306.21"/>
</g>
<!-- Node6 -->
<g id="node5" class="node">
<title>Node6</title>
<g id="a_node5"><a xlink:href="group__DiscordAPIEmoji.html" target="_top" xlink:title="Emoji&#39;s public API supported by Concord.">
<polygon fill="none" stroke="black" points="153,-463 109,-463 109,-444 153,-444 153,-463"/>
<text text-anchor="middle" x="131" y="-451" font-family="Helvetica,sans-Serif" font-size="10.00">Emoji</text>
</a>
</g>
</g>
<!-- Node1&#45;&gt;Node6 -->
<g id="edge5" class="edge">
<title>Node1&#45;&gt;Node6</title>
<path fill="none" stroke="black" d="M18.13,-306.34C21.04,-338.15 31.35,-400.54 68,-435.5 78.95,-445.94 95.59,-450.38 108.88,-452.24"/>
<polygon fill="black" stroke="black" points="21.61,-305.82 17.37,-296.11 14.63,-306.34 21.61,-305.82"/>
</g>
<!-- Node7 -->
<g id="node6" class="node">
<title>Node7</title>
<g id="a_node6"><a xlink:href="group__DiscordAPIGateway.html" target="_top" xlink:title="Gateway&#39;s public API supported by Concord.">
<polygon fill="none" stroke="black" points="161,-426 101,-426 101,-407 161,-407 161,-426"/>
<text text-anchor="middle" x="131" y="-414" font-family="Helvetica,sans-Serif" font-size="10.00">Gateway</text>
</a>
</g>
</g>
<!-- Node1&#45;&gt;Node7 -->
<g id="edge6" class="edge">
<title>Node1&#45;&gt;Node7</title>
<path fill="none" stroke="black" d="M20.67,-306.03C26.39,-331.07 39.85,-374.15 68,-398.5 77.16,-406.42 89.62,-410.86 100.97,-413.35"/>
<polygon fill="black" stroke="black" points="24.09,-305.29 18.61,-296.22 17.24,-306.73 24.09,-305.29"/>
</g>
<!-- Node8 -->
<g id="node7" class="node">
<title>Node8</title>
<g id="a_node7"><a xlink:href="group__DiscordAPIGuild.html" target="_top" xlink:title="Guild&#39;s public API supported by Concord.">
<polygon fill="none" stroke="black" points="152,-389 110,-389 110,-370 152,-370 152,-389"/>
<text text-anchor="middle" x="131" y="-377" font-family="Helvetica,sans-Serif" font-size="10.00">Guild</text>
</a>
</g>
</g>
<!-- Node1&#45;&gt;Node8 -->
<g id="edge7" class="edge">
<title>Node1&#45;&gt;Node8</title>
<path fill="none" stroke="black" d="M25.35,-305.66C33.75,-322.73 48.27,-347.17 68,-361.5 80.24,-370.39 96.82,-374.91 109.75,-377.2"/>
<polygon fill="black" stroke="black" points="28.31,-303.73 20.93,-296.14 21.97,-306.68 28.31,-303.73"/>
</g>
<!-- Node9 -->
<g id="node8" class="node">
<title>Node9</title>
<g id="a_node8"><a xlink:href="group__DiscordAPIGuildScheduledEvent.html" target="_top" xlink:title="Guild Scheduled Event&#39;s public API supported by Concord.">
<polygon fill="none" stroke="black" points="194,-352 68,-352 68,-333 194,-333 194,-352"/>
<text text-anchor="middle" x="131" y="-340" font-family="Helvetica,sans-Serif" font-size="10.00">Guild Scheduled Event</text>
</a>
</g>
</g>
<!-- Node1&#45;&gt;Node9 -->
<g id="edge8" class="edge">
<title>Node1&#45;&gt;Node9</title>
<path fill="none" stroke="black" d="M35.33,-302.68C44.61,-310.19 56.34,-318.7 68,-324.5 74.62,-327.79 81.95,-330.59 89.18,-332.92"/>
<polygon fill="black" stroke="black" points="37.5,-299.93 27.59,-296.18 33,-305.29 37.5,-299.93"/>
</g>
<!-- Node10 -->
<g id="node9" class="node">
<title>Node10</title>
<g id="a_node9"><a xlink:href="group__DiscordAPIGuildTemplate.html" target="_top" xlink:title="Guild Template&#39;s public API supported by Concord.">
<polygon fill="none" stroke="black" points="176,-315 86,-315 86,-296 176,-296 176,-315"/>
<text text-anchor="middle" x="131" y="-303" font-family="Helvetica,sans-Serif" font-size="10.00">Guild Template</text>
</a>
</g>
</g>
<!-- Node1&#45;&gt;Node10 -->
<g id="edge9" class="edge">
<title>Node1&#45;&gt;Node10</title>
<path fill="none" stroke="black" d="M42.19,-290.73C55.02,-292.89 71.01,-295.58 85.81,-298.07"/>
<polygon fill="black" stroke="black" points="42.68,-287.27 32.24,-289.06 41.52,-294.17 42.68,-287.27"/>
</g>
<!-- Node2 -->
<g id="node10" class="node">
<title>Node2</title>
<g id="a_node10"><a xlink:href="group__DiscordAPIInteractions.html" target="_top" xlink:title="Interactions public API supported by Concord.">
<polygon fill="none" stroke="black" points="168,-278 94,-278 94,-259 168,-259 168,-278"/>
<text text-anchor="middle" x="131" y="-266" font-family="Helvetica,sans-Serif" font-size="10.00">Interactions</text>
</a>
</g>
</g>
<!-- Node1&#45;&gt;Node2 -->
<g id="edge1" class="edge">
<title>Node1&#45;&gt;Node2</title>
<path fill="none" stroke="black" d="M42.38,-282.46C57.5,-280.05 76.93,-276.95 93.65,-274.29"/>
<polygon fill="black" stroke="black" points="41.56,-279.04 32.24,-284.07 42.67,-285.96 41.56,-279.04"/>
</g>
<!-- Node11 -->
<g id="node11" class="node">
<title>Node11</title>
<g id="a_node11"><a xlink:href="group__DiscordAPIInvite.html" target="_top" xlink:title="Invite&#39;s public API supported by Concord.">
<polygon fill="none" stroke="black" points="153,-241 109,-241 109,-222 153,-222 153,-241"/>
<text text-anchor="middle" x="131" y="-229" font-family="Helvetica,sans-Serif" font-size="10.00">Invite</text>
</a>
</g>
</g>
<!-- Node1&#45;&gt;Node11 -->
<g id="edge10" class="edge">
<title>Node1&#45;&gt;Node11</title>
<path fill="none" stroke="black" d="M36.51,-270.52C45.65,-263.63 56.94,-255.93 68,-250.5 81.04,-244.1 96.68,-239.33 108.99,-236.17"/>
<polygon fill="black" stroke="black" points="34.22,-267.87 28.48,-276.78 38.52,-273.39 34.22,-267.87"/>
</g>
<!-- Node12 -->
<g id="node12" class="node">
<title>Node12</title>
<g id="a_node12"><a xlink:href="group__DiscordAPIOAuth2.html" target="_top" xlink:title="OAuth2&#39;s public API supported by Concord.">
<polygon fill="none" stroke="black" points="157.5,-204 104.5,-204 104.5,-185 157.5,-185 157.5,-204"/>
<text text-anchor="middle" x="131" y="-192" font-family="Helvetica,sans-Serif" font-size="10.00">OAuth2</text>
</a>
</g>
</g>
<!-- Node1&#45;&gt;Node12 -->
<g id="edge11" class="edge">
<title>Node1&#45;&gt;Node12</title>
<path fill="none" stroke="black" d="M25.66,-267.65C34.2,-251.09 48.75,-227.51 68,-213.5 78.65,-205.75 92.52,-201.11 104.43,-198.37"/>
<polygon fill="black" stroke="black" points="22.39,-266.39 21.14,-276.91 28.68,-269.46 22.39,-266.39"/>
</g>
<!-- Node13 -->
<g id="node13" class="node">
<title>Node13</title>
<g id="a_node13"><a xlink:href="group__DiscordAPIStageInstance.html" target="_top" xlink:title="Stage Instance&#39;s public API supported by Concord.">
<polygon fill="none" stroke="black" points="175.5,-167 86.5,-167 86.5,-148 175.5,-148 175.5,-167"/>
<text text-anchor="middle" x="131" y="-155" font-family="Helvetica,sans-Serif" font-size="10.00">Stage Instance</text>
</a>
</g>
</g>
<!-- Node1&#45;&gt;Node13 -->
<g id="edge12" class="edge">
<title>Node1&#45;&gt;Node13</title>
<path fill="none" stroke="black" d="M20.91,-267.04C26.84,-242.46 40.48,-200.49 68,-176.5 73.26,-171.91 79.61,-168.43 86.21,-165.79"/>
<polygon fill="black" stroke="black" points="17.45,-266.46 18.7,-276.98 24.28,-267.98 17.45,-266.46"/>
</g>
<!-- Node14 -->
<g id="node14" class="node">
<title>Node14</title>
<g id="a_node14"><a xlink:href="group__DiscordAPISticker.html" target="_top" xlink:title="Sticker&#39;s public API supported by Concord.">
<polygon fill="none" stroke="black" points="156,-130 106,-130 106,-111 156,-111 156,-130"/>
<text text-anchor="middle" x="131" y="-118" font-family="Helvetica,sans-Serif" font-size="10.00">Sticker</text>
</a>
</g>
</g>
<!-- Node1&#45;&gt;Node14 -->
<g id="edge13" class="edge">
<title>Node1&#45;&gt;Node14</title>
<path fill="none" stroke="black" d="M18.32,-266.53C21.48,-235.08 32.15,-174.06 68,-139.5 78.13,-129.73 93.15,-124.97 105.87,-122.66"/>
<polygon fill="black" stroke="black" points="14.82,-266.41 17.47,-276.67 21.8,-267 14.82,-266.41"/>
</g>
<!-- Node15 -->
<g id="node15" class="node">
<title>Node15</title>
<g id="a_node15"><a xlink:href="group__DiscordAPIUser.html" target="_top" xlink:title="User&#39;s public API supported by Concord.">
<polygon fill="none" stroke="black" points="150.5,-93 111.5,-93 111.5,-74 150.5,-74 150.5,-93"/>
<text text-anchor="middle" x="131" y="-81" font-family="Helvetica,sans-Serif" font-size="10.00">User</text>
</a>
</g>
</g>
<!-- Node1&#45;&gt;Node15 -->
<g id="edge14" class="edge">
<title>Node1&#45;&gt;Node15</title>
<path fill="none" stroke="black" d="M16.64,-266.9C17.05,-229.67 23.37,-148.35 68,-102.5 79.31,-90.88 97.51,-86.32 111.28,-84.56"/>
<polygon fill="black" stroke="black" points="13.14,-266.96 16.66,-276.95 20.14,-266.94 13.14,-266.96"/>
</g>
<!-- Node16 -->
<g id="node16" class="node">
<title>Node16</title>
<g id="a_node16"><a xlink:href="group__DiscordAPIVoice.html" target="_top" xlink:title="Voice&#39;s public API supported by Concord.">
<polygon fill="none" stroke="black" points="152.5,-56 109.5,-56 109.5,-37 152.5,-37 152.5,-56"/>
<text text-anchor="middle" x="131" y="-44" font-family="Helvetica,sans-Serif" font-size="10.00">Voice</text>
</a>
</g>
</g>
<!-- Node1&#45;&gt;Node16 -->
<g id="edge15" class="edge">
<title>Node1&#45;&gt;Node16</title>
<path fill="none" stroke="black" d="M19.06,-266.58C24.47,-217.94 40.6,-94.9 68,-65.5 78.59,-54.13 95.78,-49.5 109.38,-47.64"/>
<polygon fill="black" stroke="black" points="15.55,-266.44 17.96,-276.76 22.51,-267.19 15.55,-266.44"/>
</g>
<!-- Node17 -->
<g id="node17" class="node">
<title>Node17</title>
<g id="a_node17"><a xlink:href="group__DiscordAPIWebhook.html" target="_top" xlink:title="Webhook&#39;s public API supported by Concord.">
<polygon fill="none" stroke="black" points="162,-19 100,-19 100,0 162,0 162,-19"/>
<text text-anchor="middle" x="131" y="-7" font-family="Helvetica,sans-Serif" font-size="10.00">Webhook</text>
</a>
</g>
</g>
<!-- Node1&#45;&gt;Node17 -->
<g id="edge16" class="edge">
<title>Node1&#45;&gt;Node17</title>
<path fill="none" stroke="black" d="M18.31,-266.92C22.31,-212.98 36.08,-63.86 68,-28.5 76.15,-19.47 88.45,-14.68 99.96,-12.16"/>
<polygon fill="black" stroke="black" points="14.82,-266.69 17.6,-276.91 21.8,-267.19 14.82,-266.69"/>
</g>
</g>
</svg>
