<?xml version="1.0" encoding="UTF-8" standalone="no"?>
<!DOCTYPE svg PUBLIC "-//W3C//DTD SVG 1.1//EN"
 "http://www.w3.org/Graphics/SVG/1.1/DTD/svg11.dtd">
<!-- Generated by graphviz version 2.43.0 (0)
 -->
<!-- Title: Client Pages: 1 -->
<svg width="260pt" height="150pt"
 viewBox="0.00 0.00 260.00 150.00" xmlns="http://www.w3.org/2000/svg" xmlns:xlink="http://www.w3.org/1999/xlink">
<g id="graph0" class="graph" transform="scale(1 1) rotate(0) translate(4 146)">
<title>Client</title>
<!-- Node1 -->
<g id="node1" class="node">
<title>Node1</title>
<g id="a_node1"><a xlink:title="Client functions and datatypes.">
<polygon fill="#bfbfbf" stroke="black" points="45,-83 0,-83 0,-64 45,-64 45,-83"/>
<text text-anchor="middle" x="22.5" y="-71" font-family="Helvetica,sans-Serif" font-size="10.00">Client</text>
</a>
</g>
</g>
<!-- Node2 -->
<g id="node2" class="node">
<title>Node2</title>
<g id="a_node2"><a xlink:href="group__DiscordCommands.html" target="_top" xlink:title="Requests made by the client to the Gateway socket.">
<polygon fill="none" stroke="black" points="220.5,-142 148.5,-142 148.5,-123 220.5,-123 220.5,-142"/>
<text text-anchor="middle" x="184.5" y="-130" font-family="Helvetica,sans-Serif" font-size="10.00">Commands</text>
</a>
</g>
</g>
<!-- Node1&#45;&gt;Node2 -->
<g id="edge1" class="edge">
<title>Node1&#45;&gt;Node2</title>
<path fill="none" stroke="black" d="M45.93,-88.41C51.38,-91.67 57.29,-94.91 63,-97.5 90.58,-110 123.74,-119.24 148.28,-125.08"/>
<polygon fill="black" stroke="black" points="47.64,-85.35 37.31,-83.02 43.94,-91.29 47.64,-85.35"/>
</g>
<!-- Node3 -->
<g id="node3" class="node">
<title>Node3</title>
<g id="a_node3"><a xlink:href="group__DiscordEvents.html" target="_top" xlink:title="Events sent over the Gateway socket to the client.">
<polygon fill="none" stroke="black" points="209.5,-105 159.5,-105 159.5,-86 209.5,-86 209.5,-105"/>
<text text-anchor="middle" x="184.5" y="-93" font-family="Helvetica,sans-Serif" font-size="10.00">Events</text>
</a>
</g>
</g>
<!-- Node1&#45;&gt;Node3 -->
<g id="edge2" class="edge">
<title>Node1&#45;&gt;Node3</title>
<path fill="none" stroke="black" d="M55.2,-80.16C57.84,-80.64 60.46,-81.1 63,-81.5 96.28,-86.79 135.03,-90.94 159.41,-93.3"/>
<polygon fill="black" stroke="black" points="55.65,-76.69 45.17,-78.23 54.33,-83.56 55.65,-76.69"/>
</g>
<!-- Node5 -->
<g id="node4" class="node">
<title>Node5</title>
<g id="a_node4"><a xlink:href="group__DiscordInternal.html" target="_top" xlink:title="Documentation useful when developing or debugging Concord itself.">
<polygon fill="none" stroke="black" points="252,-67.5 117,-67.5 117,-37.5 252,-37.5 252,-67.5"/>
<text text-anchor="start" x="125" y="-55.5" font-family="Helvetica,sans-Serif" font-size="10.00">Internal implementation</text>
<text text-anchor="middle" x="184.5" y="-44.5" font-family="Helvetica,sans-Serif" font-size="10.00"> details</text>
</a>
</g>
</g>
<!-- Node1&#45;&gt;Node5 -->
<g id="edge4" class="edge">
<title>Node1&#45;&gt;Node5</title>
<path fill="none" stroke="orange" stroke-dasharray="5,2" d="M45.08,-70.67C63.5,-68.25 91.02,-64.64 116.67,-61.27"/>
<text text-anchor="middle" x="81" y="-70.5" font-family="Helvetica,sans-Serif" font-size="10.00">discord</text>
</g>
<!-- Node4 -->
<g id="node5" class="node">
<title>Node4</title>
<g id="a_node5"><a xlink:href="group__DiscordTimer.html" target="_top" xlink:title="Schedule callbacks to be called in the future.">
<polygon fill="none" stroke="black" points="207,-19 162,-19 162,0 207,0 207,-19"/>
<text text-anchor="middle" x="184.5" y="-7" font-family="Helvetica,sans-Serif" font-size="10.00">Timer</text>
</a>
</g>
</g>
<!-- Node1&#45;&gt;Node4 -->
<g id="edge3" class="edge">
<title>Node1&#45;&gt;Node4</title>
<path fill="none" stroke="black" d="M49.99,-59.25C68.43,-49.72 93.77,-37.33 117,-28.5 131.7,-22.91 148.77,-18.06 161.93,-14.67"/>
<polygon fill="black" stroke="black" points="48.26,-56.21 41.03,-63.95 51.51,-62.41 48.26,-56.21"/>
</g>
</g>
</svg>
