<?xml version="1.0" encoding="UTF-8" standalone="no"?>
<!DOCTYPE svg PUBLIC "-//W3C//DTD SVG 1.1//EN"
 "http://www.w3.org/Graphics/SVG/1.1/DTD/svg11.dtd">
<!-- Generated by graphviz version 2.43.0 (0)
 -->
<!-- Title: Gateway Pages: 1 -->
<svg width="269pt" height="27pt"
 viewBox="0.00 0.00 269.00 27.00" xmlns="http://www.w3.org/2000/svg" xmlns:xlink="http://www.w3.org/1999/xlink">
<g id="graph0" class="graph" transform="scale(1 1) rotate(0) translate(4 23)">
<title>Gateway</title>
<!-- Node2 -->
<g id="node1" class="node">
<title>Node2</title>
<g id="a_node1"><a xlink:href="group__DiscordAPI.html" target="_top" xlink:title="The Discord public API supported by Concord.">
<polygon fill="none" stroke="black" points="32,-19 0,-19 0,0 32,0 32,-19"/>
<text text-anchor="middle" x="16" y="-7" font-family="Helvetica,sans-Serif" font-size="10.00">API</text>
</a>
</g>
</g>
<!-- Node1 -->
<g id="node2" class="node">
<title>Node1</title>
<g id="a_node2"><a xlink:title="Gateway&#39;s public API supported by Concord.">
<polygon fill="#bfbfbf" stroke="black" points="128,-19 68,-19 68,0 128,0 128,-19"/>
<text text-anchor="middle" x="98" y="-7" font-family="Helvetica,sans-Serif" font-size="10.00">Gateway</text>
</a>
</g>
</g>
<!-- Node2&#45;&gt;Node1 -->
<g id="edge1" class="edge">
<title>Node2&#45;&gt;Node1</title>
<path fill="none" stroke="black" d="M42.07,-9.5C50.22,-9.5 59.33,-9.5 67.76,-9.5"/>
<polygon fill="black" stroke="black" points="42.05,-6 32.05,-9.5 42.05,-13 42.05,-6"/>
</g>
<!-- Node3 -->
<g id="node3" class="node">
<title>Node3</title>
<g id="a_node3"><a xlink:href="group__DiscordAPIGatewayHelper.html" target="_top" xlink:title="Custom helper functions.">
<polygon fill="none" stroke="black" points="261,-19 164,-19 164,0 261,0 261,-19"/>
<text text-anchor="middle" x="212.5" y="-7" font-family="Helvetica,sans-Serif" font-size="10.00">Helper functions</text>
</a>
</g>
</g>
<!-- Node1&#45;&gt;Node3 -->
<g id="edge2" class="edge">
<title>Node1&#45;&gt;Node3</title>
<path fill="none" stroke="black" d="M138.29,-9.5C146.48,-9.5 155.19,-9.5 163.65,-9.5"/>
<polygon fill="black" stroke="black" points="138.26,-6 128.26,-9.5 138.26,-13 138.26,-6"/>
</g>
</g>
</svg>
