<?xml version="1.0" encoding="UTF-8" standalone="no"?>
<!DOCTYPE svg PUBLIC "-//W3C//DTD SVG 1.1//EN"
 "http://www.w3.org/Graphics/SVG/1.1/DTD/svg11.dtd">
<!-- Generated by graphviz version 2.43.0 (0)
 -->
<!-- Title: Data Wrap Pages: 1 -->
<svg width="291pt" height="27pt"
 viewBox="0.00 0.00 291.00 27.00" xmlns="http://www.w3.org/2000/svg" xmlns:xlink="http://www.w3.org/1999/xlink">
<g id="graph0" class="graph" transform="scale(1 1) rotate(0) translate(4 23)">
<title>Data Wrap</title>
<!-- Node2 -->
<g id="node1" class="node">
<title>Node2</title>
<g id="a_node1"><a xlink:href="group__DiscordClient.html" target="_top" xlink:title="Client functions and datatypes.">
<polygon fill="none" stroke="black" points="45,-19 0,-19 0,0 45,0 45,-19"/>
<text text-anchor="middle" x="22.5" y="-7" font-family="Helvetica,sans-Serif" font-size="10.00">Client</text>
</a>
</g>
</g>
<!-- Node1 -->
<g id="node2" class="node">
<title>Node1</title>
<g id="a_node2"><a xlink:title="Helpers for wrapping Discord data types for easier management.">
<polygon fill="#bfbfbf" stroke="black" points="149,-19 81,-19 81,0 149,0 149,-19"/>
<text text-anchor="middle" x="115" y="-7" font-family="Helvetica,sans-Serif" font-size="10.00">Data Wrap</text>
</a>
</g>
</g>
<!-- Node2&#45;&gt;Node1 -->
<g id="edge1" class="edge">
<title>Node2&#45;&gt;Node1</title>
<path fill="none" stroke="black" d="M55.45,-9.5C63.73,-9.5 72.65,-9.5 80.98,-9.5"/>
<polygon fill="black" stroke="black" points="55.41,-6 45.41,-9.5 55.41,-13 55.41,-6"/>
</g>
<!-- Node3 -->
<g id="node3" class="node">
<title>Node3</title>
<g id="a_node3"><a xlink:href="group__DiscordDataWrapJSON.html" target="_top" xlink:title="Helpers for converting Discord data types to/from JSON.">
<polygon fill="none" stroke="black" points="283,-19 185,-19 185,0 283,0 283,-19"/>
<text text-anchor="middle" x="234" y="-7" font-family="Helvetica,sans-Serif" font-size="10.00">JSON Conversion</text>
</a>
</g>
</g>
<!-- Node1&#45;&gt;Node3 -->
<g id="edge2" class="edge">
<title>Node1&#45;&gt;Node3</title>
<path fill="none" stroke="black" d="M159.42,-9.5C167.71,-9.5 176.43,-9.5 184.85,-9.5"/>
<polygon fill="black" stroke="black" points="159.21,-6 149.21,-9.5 159.21,-13 159.21,-6"/>
</g>
</g>
</svg>
