<?xml version="1.0" encoding="UTF-8" standalone="no"?>
<!DOCTYPE svg PUBLIC "-//W3C//DTD SVG 1.1//EN"
 "http://www.w3.org/Graphics/SVG/1.1/DTD/svg11.dtd">
<!-- Generated by graphviz version 2.43.0 (0)
 -->
<!-- Title: Client Pages: 1 -->
<svg width="260pt" height="76pt"
 viewBox="0.00 0.00 260.00 75.50" xmlns="http://www.w3.org/2000/svg" xmlns:xlink="http://www.w3.org/1999/xlink">
<g id="graph0" class="graph" transform="scale(1 1) rotate(0) translate(4 71.5)">
<title>Client</title>
<!-- Node1 -->
<g id="node1" class="node">
<title>Node1</title>
<g id="a_node1"><a xlink:title="Functions and datatypes for the client.">
<polygon fill="#bfbfbf" stroke="black" points="45,-45.5 0,-45.5 0,-26.5 45,-26.5 45,-45.5"/>
<text text-anchor="middle" x="22.5" y="-33.5" font-family="Helvetica,sans-Serif" font-size="10.00">Client</text>
</a>
</g>
</g>
<!-- Node2 -->
<g id="node2" class="node">
<title>Node2</title>
<g id="a_node2"><a xlink:href="group__DiscordEvent.html" target="_top" xlink:title="The Discord public Events API supported by Concord.">
<polygon fill="none" stroke="black" points="209.5,-67.5 159.5,-67.5 159.5,-48.5 209.5,-48.5 209.5,-67.5"/>
<text text-anchor="middle" x="184.5" y="-55.5" font-family="Helvetica,sans-Serif" font-size="10.00">Events</text>
</a>
</g>
</g>
<!-- Node1&#45;&gt;Node2 -->
<g id="edge1" class="edge">
<title>Node1&#45;&gt;Node2</title>
<path fill="none" stroke="black" d="M55.2,-42.66C57.84,-43.14 60.46,-43.6 63,-44 96.28,-49.29 135.03,-53.44 159.41,-55.8"/>
<polygon fill="black" stroke="black" points="55.65,-39.19 45.17,-40.73 54.33,-46.06 55.65,-39.19"/>
</g>
<!-- Node3 -->
<g id="node3" class="node">
<title>Node3</title>
<g id="a_node3"><a xlink:href="group__DiscordInternal.html" target="_top" xlink:title="Documentation useful when developing or debugging Concord itself.">
<polygon fill="none" stroke="black" points="252,-30 117,-30 117,0 252,0 252,-30"/>
<text text-anchor="start" x="125" y="-18" font-family="Helvetica,sans-Serif" font-size="10.00">Internal implementation</text>
<text text-anchor="middle" x="184.5" y="-7" font-family="Helvetica,sans-Serif" font-size="10.00"> details</text>
</a>
</g>
</g>
<!-- Node1&#45;&gt;Node3 -->
<g id="edge2" class="edge">
<title>Node1&#45;&gt;Node3</title>
<path fill="none" stroke="orange" stroke-dasharray="5,2" d="M45.08,-33.17C63.5,-30.75 91.02,-27.14 116.67,-23.77"/>
<text text-anchor="middle" x="81" y="-34" font-family="Helvetica,sans-Serif" font-size="10.00">discord</text>
</g>
</g>
</svg>
