<?xml version="1.0" encoding="UTF-8" standalone="no"?>
<!DOCTYPE svg PUBLIC "-//W3C//DTD SVG 1.1//EN"
 "http://www.w3.org/Graphics/SVG/1.1/DTD/svg11.dtd">
<!-- Generated by graphviz version 2.43.0 (0)
 -->
<!-- Title: core/io_poller.h Pages: 1 -->
<svg width="266pt" height="84pt"
 viewBox="0.00 0.00 265.50 84.00" xmlns="http://www.w3.org/2000/svg" xmlns:xlink="http://www.w3.org/1999/xlink">
<g id="graph0" class="graph" transform="scale(1 1) rotate(0) translate(4 80)">
<title>core/io_poller.h</title>
<!-- Node1 -->
<g id="node1" class="node">
<title>Node1</title>
<g id="a_node1"><a xlink:title=" ">
<polygon fill="#bfbfbf" stroke="black" points="93.5,-56.5 93.5,-75.5 184.5,-75.5 184.5,-56.5 93.5,-56.5"/>
<text text-anchor="middle" x="139" y="-63.5" font-family="Helvetica,sans-Serif" font-size="10.00">core/io_poller.h</text>
</a>
</g>
</g>
<!-- Node2 -->
<g id="node2" class="node">
<title>Node2</title>
<g id="a_node2"><a xlink:href="discord-internal_8h.html" target="_top" xlink:title="Internal functions and datatypes.">
<polygon fill="none" stroke="black" points="0,-0.5 0,-19.5 140,-19.5 140,-0.5 0,-0.5"/>
<text text-anchor="middle" x="70" y="-7.5" font-family="Helvetica,sans-Serif" font-size="10.00">include/discord&#45;internal.h</text>
</a>
</g>
</g>
<!-- Node1&#45;&gt;Node2 -->
<g id="edge1" class="edge">
<title>Node1&#45;&gt;Node2</title>
<path fill="none" stroke="midnightblue" d="M119.96,-50.1C107.54,-40.38 91.76,-28.03 81.29,-19.83"/>
<polygon fill="midnightblue" stroke="midnightblue" points="117.88,-52.92 127.91,-56.32 122.2,-47.4 117.88,-52.92"/>
</g>
<!-- Node3 -->
<g id="node3" class="node">
<title>Node3</title>
<g id="a_node3"><a xlink:href="discord_8h.html" target="_top" xlink:title="Public functions and datatypes.">
<polygon fill="none" stroke="black" points="158.5,-0.5 158.5,-19.5 257.5,-19.5 257.5,-0.5 158.5,-0.5"/>
<text text-anchor="middle" x="208" y="-7.5" font-family="Helvetica,sans-Serif" font-size="10.00">include/discord.h</text>
</a>
</g>
</g>
<!-- Node1&#45;&gt;Node3 -->
<g id="edge2" class="edge">
<title>Node1&#45;&gt;Node3</title>
<path fill="none" stroke="midnightblue" d="M158.04,-50.1C170.46,-40.38 186.24,-28.03 196.71,-19.83"/>
<polygon fill="midnightblue" stroke="midnightblue" points="155.8,-47.4 150.09,-56.32 160.12,-52.92 155.8,-47.4"/>
</g>
</g>
</svg>
