<?xml version="1.0" encoding="UTF-8" standalone="no"?>
<!DOCTYPE svg PUBLIC "-//W3C//DTD SVG 1.1//EN"
 "http://www.w3.org/Graphics/SVG/1.1/DTD/svg11.dtd">
<!-- Generated by graphviz version 2.43.0 (0)
 -->
<!-- Title: core/jsmn.h Pages: 1 -->
<svg width="3298pt" height="95pt"
 viewBox="0.00 0.00 3297.50 95.00" xmlns="http://www.w3.org/2000/svg" xmlns:xlink="http://www.w3.org/1999/xlink">
<g id="graph0" class="graph" transform="scale(1 1) rotate(0) translate(4 91)">
<title>core/jsmn.h</title>
<!-- Node1 -->
<g id="node1" class="node">
<title>Node1</title>
<g id="a_node1"><a xlink:title=" ">
<polygon fill="#bfbfbf" stroke="black" points="1588.5,-67.5 1588.5,-86.5 1662.5,-86.5 1662.5,-67.5 1588.5,-67.5"/>
<text text-anchor="middle" x="1625.5" y="-74.5" font-family="Helvetica,sans-Serif" font-size="10.00">core/jsmn.h</text>
</a>
</g>
</g>
<!-- Node2 -->
<g id="node2" class="node">
<title>Node2</title>
<g id="a_node2"><a xlink:href="application_8h.html" target="_top" xlink:title="Generated code.">
<polygon fill="none" stroke="black" points="0,-6 0,-25 123,-25 123,-6 0,-6"/>
<text text-anchor="middle" x="61.5" y="-13" font-family="Helvetica,sans-Serif" font-size="10.00">docs/api/application.h</text>
</a>
</g>
</g>
<!-- Node1&#45;&gt;Node2 -->
<g id="edge1" class="edge">
<title>Node1&#45;&gt;Node2</title>
<path fill="none" stroke="midnightblue" d="M1578.06,-75.66C1356.52,-73.93 422.36,-64.72 132.5,-31 120.88,-29.65 108.33,-27.36 97.06,-25.01"/>
<polygon fill="midnightblue" stroke="midnightblue" points="1578.34,-79.17 1588.37,-75.74 1578.39,-72.17 1578.34,-79.17"/>
</g>
<!-- Node3 -->
<g id="node3" class="node">
<title>Node3</title>
<g id="a_node3"><a xlink:href="application__commands_8h.html" target="_top" xlink:title="Generated code.">
<polygon fill="none" stroke="black" points="141.5,-0.5 141.5,-30.5 255.5,-30.5 255.5,-0.5 141.5,-0.5"/>
<text text-anchor="start" x="149.5" y="-18.5" font-family="Helvetica,sans-Serif" font-size="10.00">docs/api/application</text>
<text text-anchor="middle" x="198.5" y="-7.5" font-family="Helvetica,sans-Serif" font-size="10.00">_commands.h</text>
</a>
</g>
</g>
<!-- Node1&#45;&gt;Node3 -->
<g id="edge2" class="edge">
<title>Node1&#45;&gt;Node3</title>
<path fill="none" stroke="midnightblue" d="M1578.22,-75.6C1369.18,-73.65 526.76,-63.86 264.5,-31 261.59,-30.64 258.62,-30.2 255.63,-29.72"/>
<polygon fill="midnightblue" stroke="midnightblue" points="1578.23,-79.1 1588.26,-75.69 1578.29,-72.1 1578.23,-79.1"/>
</g>
<!-- Node4 -->
<g id="node4" class="node">
<title>Node4</title>
<g id="a_node4"><a xlink:href="docs_2api_2audit__log_8h.html" target="_top" xlink:title="Generated code.">
<polygon fill="none" stroke="black" points="273.5,-6 273.5,-25 387.5,-25 387.5,-6 273.5,-6"/>
<text text-anchor="middle" x="330.5" y="-13" font-family="Helvetica,sans-Serif" font-size="10.00">docs/api/audit_log.h</text>
</a>
</g>
</g>
<!-- Node1&#45;&gt;Node4 -->
<g id="edge3" class="edge">
<title>Node1&#45;&gt;Node4</title>
<path fill="none" stroke="midnightblue" d="M1578.12,-75.4C1381.78,-72.76 631.39,-60.86 396.5,-31 385.79,-29.64 374.26,-27.38 363.87,-25.05"/>
<polygon fill="midnightblue" stroke="midnightblue" points="1578.34,-78.91 1588.39,-75.54 1578.43,-71.91 1578.34,-78.91"/>
</g>
<!-- Node5 -->
<g id="node5" class="node">
<title>Node5</title>
<g id="a_node5"><a xlink:href="docs_2api_2auto__moderation_8h.html" target="_top" xlink:title="Generated code.">
<polygon fill="none" stroke="black" points="405.5,-6 405.5,-25 557.5,-25 557.5,-6 405.5,-6"/>
<text text-anchor="middle" x="481.5" y="-13" font-family="Helvetica,sans-Serif" font-size="10.00">docs/api/auto_moderation.h</text>
</a>
</g>
</g>
<!-- Node1&#45;&gt;Node5 -->
<g id="edge4" class="edge">
<title>Node1&#45;&gt;Node5</title>
<path fill="none" stroke="midnightblue" d="M1578.15,-76.12C1428.99,-76.03 955.63,-72.29 566.5,-31 552.95,-29.56 538.3,-27.31 525.03,-25.01"/>
<polygon fill="midnightblue" stroke="midnightblue" points="1578.33,-79.62 1588.33,-76.12 1578.33,-72.62 1578.33,-79.62"/>
</g>
<!-- Node6 -->
<g id="node6" class="node">
<title>Node6</title>
<g id="a_node6"><a xlink:href="docs_2api_2channel_8h.html" target="_top" xlink:title="Generated code.">
<polygon fill="none" stroke="black" points="576,-6 576,-25 683,-25 683,-6 576,-6"/>
<text text-anchor="middle" x="629.5" y="-13" font-family="Helvetica,sans-Serif" font-size="10.00">docs/api/channel.h</text>
</a>
</g>
</g>
<!-- Node1&#45;&gt;Node6 -->
<g id="edge5" class="edge">
<title>Node1&#45;&gt;Node6</title>
<path fill="none" stroke="midnightblue" d="M1578.08,-74.85C1413.2,-70.69 865.54,-55.34 691.5,-31 681.54,-29.61 670.82,-27.37 661.15,-25.07"/>
<polygon fill="midnightblue" stroke="midnightblue" points="1578.29,-78.36 1588.37,-75.11 1578.47,-71.36 1578.29,-78.36"/>
</g>
<!-- Node7 -->
<g id="node7" class="node">
<title>Node7</title>
<g id="a_node7"><a xlink:href="custom_8h.html" target="_top" xlink:title="Generated code.">
<polygon fill="none" stroke="black" points="701,-6 701,-25 806,-25 806,-6 701,-6"/>
<text text-anchor="middle" x="753.5" y="-13" font-family="Helvetica,sans-Serif" font-size="10.00">docs/api/custom.h</text>
</a>
</g>
</g>
<!-- Node1&#45;&gt;Node7 -->
<g id="edge6" class="edge">
<title>Node1&#45;&gt;Node7</title>
<path fill="none" stroke="midnightblue" d="M1578.49,-76.3C1453.45,-76.48 1102.59,-72.89 814.5,-31 804.7,-29.57 794.16,-27.33 784.64,-25.03"/>
<polygon fill="midnightblue" stroke="midnightblue" points="1578.5,-79.8 1588.49,-76.28 1578.48,-72.8 1578.5,-79.8"/>
</g>
<!-- Node8 -->
<g id="node8" class="node">
<title>Node8</title>
<g id="a_node8"><a xlink:href="docs_2api_2emoji_8h.html" target="_top" xlink:title="Generated code.">
<polygon fill="none" stroke="black" points="824,-6 824,-25 921,-25 921,-6 824,-6"/>
<text text-anchor="middle" x="872.5" y="-13" font-family="Helvetica,sans-Serif" font-size="10.00">docs/api/emoji.h</text>
</a>
</g>
</g>
<!-- Node1&#45;&gt;Node8 -->
<g id="edge7" class="edge">
<title>Node1&#45;&gt;Node8</title>
<path fill="none" stroke="midnightblue" d="M1578.3,-75.87C1465.57,-74.92 1172.05,-68.7 930.5,-31 921.27,-29.56 911.36,-27.34 902.39,-25.07"/>
<polygon fill="midnightblue" stroke="midnightblue" points="1578.3,-79.37 1588.32,-75.94 1578.35,-72.37 1578.3,-79.37"/>
</g>
<!-- Node9 -->
<g id="node9" class="node">
<title>Node9</title>
<g id="a_node9"><a xlink:href="docs_2api_2gateway_8h.html" target="_top" xlink:title="Generated code.">
<polygon fill="none" stroke="black" points="939.5,-6 939.5,-25 1049.5,-25 1049.5,-6 939.5,-6"/>
<text text-anchor="middle" x="994.5" y="-13" font-family="Helvetica,sans-Serif" font-size="10.00">docs/api/gateway.h</text>
</a>
</g>
</g>
<!-- Node1&#45;&gt;Node9 -->
<g id="edge8" class="edge">
<title>Node1&#45;&gt;Node9</title>
<path fill="none" stroke="midnightblue" d="M1578.35,-74.55C1480.8,-71.04 1249.94,-60.13 1058.5,-31 1048.48,-29.47 1037.69,-27.26 1027.88,-25.01"/>
<polygon fill="midnightblue" stroke="midnightblue" points="1578.36,-78.05 1588.47,-74.9 1578.6,-71.05 1578.36,-78.05"/>
</g>
<!-- Node10 -->
<g id="node10" class="node">
<title>Node10</title>
<g id="a_node10"><a xlink:href="docs_2api_2guild_8h.html" target="_top" xlink:title="Generated code.">
<polygon fill="none" stroke="black" points="1068,-6 1068,-25 1161,-25 1161,-6 1068,-6"/>
<text text-anchor="middle" x="1114.5" y="-13" font-family="Helvetica,sans-Serif" font-size="10.00">docs/api/guild.h</text>
</a>
</g>
</g>
<!-- Node1&#45;&gt;Node10 -->
<g id="edge9" class="edge">
<title>Node1&#45;&gt;Node10</title>
<path fill="none" stroke="midnightblue" d="M1578.13,-73.82C1494.9,-69.43 1317.22,-57.59 1169.5,-31 1160.95,-29.46 1151.78,-27.27 1143.42,-25.05"/>
<polygon fill="midnightblue" stroke="midnightblue" points="1578.12,-77.32 1588.28,-74.34 1578.48,-70.33 1578.12,-77.32"/>
</g>
<!-- Node11 -->
<g id="node11" class="node">
<title>Node11</title>
<g id="a_node11"><a xlink:href="docs_2api_2guild__scheduled__event_8h.html" target="_top" xlink:title="Generated code.">
<polygon fill="none" stroke="black" points="1179,-0.5 1179,-30.5 1318,-30.5 1318,-0.5 1179,-0.5"/>
<text text-anchor="start" x="1187" y="-18.5" font-family="Helvetica,sans-Serif" font-size="10.00">docs/api/guild_scheduled</text>
<text text-anchor="middle" x="1248.5" y="-7.5" font-family="Helvetica,sans-Serif" font-size="10.00">_event.h</text>
</a>
</g>
</g>
<!-- Node1&#45;&gt;Node11 -->
<g id="edge10" class="edge">
<title>Node1&#45;&gt;Node11</title>
<path fill="none" stroke="midnightblue" d="M1578.01,-69.37C1518.96,-61 1415.14,-45.9 1326.5,-31 1323.78,-30.54 1321.02,-30.07 1318.22,-29.58"/>
<polygon fill="midnightblue" stroke="midnightblue" points="1577.75,-72.87 1588.14,-70.8 1578.73,-65.93 1577.75,-72.87"/>
</g>
<!-- Node12 -->
<g id="node12" class="node">
<title>Node12</title>
<g id="a_node12"><a xlink:href="docs_2api_2guild__template_8h.html" target="_top" xlink:title="Generated code.">
<polygon fill="none" stroke="black" points="1336,-6 1336,-25 1479,-25 1479,-6 1336,-6"/>
<text text-anchor="middle" x="1407.5" y="-13" font-family="Helvetica,sans-Serif" font-size="10.00">docs/api/guild_template.h</text>
</a>
</g>
</g>
<!-- Node1&#45;&gt;Node12 -->
<g id="edge11" class="edge">
<title>Node1&#45;&gt;Node12</title>
<path fill="none" stroke="midnightblue" d="M1584.55,-64.82C1542.2,-53.26 1477.02,-35.47 1438.68,-25.01"/>
<polygon fill="midnightblue" stroke="midnightblue" points="1583.7,-68.22 1594.27,-67.48 1585.54,-61.47 1583.7,-68.22"/>
</g>
<!-- Node13 -->
<g id="node13" class="node">
<title>Node13</title>
<g id="a_node13"><a xlink:href="interactions_8h.html" target="_top" xlink:title="Generated code.">
<polygon fill="none" stroke="black" points="1497,-6 1497,-25 1624,-25 1624,-6 1497,-6"/>
<text text-anchor="middle" x="1560.5" y="-13" font-family="Helvetica,sans-Serif" font-size="10.00">docs/api/interactions.h</text>
</a>
</g>
</g>
<!-- Node1&#45;&gt;Node13 -->
<g id="edge12" class="edge">
<title>Node1&#45;&gt;Node13</title>
<path fill="none" stroke="midnightblue" d="M1608.73,-60.65C1596.34,-49.31 1579.92,-34.28 1569.8,-25.01"/>
<polygon fill="midnightblue" stroke="midnightblue" points="1606.45,-63.3 1616.19,-67.48 1611.17,-58.14 1606.45,-63.3"/>
</g>
<!-- Node14 -->
<g id="node14" class="node">
<title>Node14</title>
<g id="a_node14"><a xlink:href="docs_2api_2invite_8h.html" target="_top" xlink:title="Generated code.">
<polygon fill="none" stroke="black" points="1642,-6 1642,-25 1739,-25 1739,-6 1642,-6"/>
<text text-anchor="middle" x="1690.5" y="-13" font-family="Helvetica,sans-Serif" font-size="10.00">docs/api/invite.h</text>
</a>
</g>
</g>
<!-- Node1&#45;&gt;Node14 -->
<g id="edge13" class="edge">
<title>Node1&#45;&gt;Node14</title>
<path fill="none" stroke="midnightblue" d="M1642.27,-60.65C1654.66,-49.31 1671.08,-34.28 1681.2,-25.01"/>
<polygon fill="midnightblue" stroke="midnightblue" points="1639.83,-58.14 1634.81,-67.48 1644.55,-63.3 1639.83,-58.14"/>
</g>
<!-- Node15 -->
<g id="node15" class="node">
<title>Node15</title>
<g id="a_node15"><a xlink:href="message__components_8h.html" target="_top" xlink:title="Generated code.">
<polygon fill="none" stroke="black" points="1757,-6 1757,-25 1936,-25 1936,-6 1757,-6"/>
<text text-anchor="middle" x="1846.5" y="-13" font-family="Helvetica,sans-Serif" font-size="10.00">docs/api/message_components.h</text>
</a>
</g>
</g>
<!-- Node1&#45;&gt;Node15 -->
<g id="edge14" class="edge">
<title>Node1&#45;&gt;Node15</title>
<path fill="none" stroke="midnightblue" d="M1667.02,-64.82C1709.95,-53.26 1776.03,-35.47 1814.89,-25.01"/>
<polygon fill="midnightblue" stroke="midnightblue" points="1665.91,-61.5 1657.16,-67.48 1667.73,-68.25 1665.91,-61.5"/>
</g>
<!-- Node16 -->
<g id="node16" class="node">
<title>Node16</title>
<g id="a_node16"><a xlink:href="docs_2api_2oauth2_8h.html" target="_top" xlink:title="Generated code.">
<polygon fill="none" stroke="black" points="1954,-6 1954,-25 2057,-25 2057,-6 1954,-6"/>
<text text-anchor="middle" x="2005.5" y="-13" font-family="Helvetica,sans-Serif" font-size="10.00">docs/api/oauth2.h</text>
</a>
</g>
</g>
<!-- Node1&#45;&gt;Node16 -->
<g id="edge15" class="edge">
<title>Node1&#45;&gt;Node16</title>
<path fill="none" stroke="midnightblue" d="M1672.62,-70.83C1735.23,-63.63 1849.19,-49.36 1945.5,-31 1954.34,-29.31 1963.84,-27.17 1972.62,-25.06"/>
<polygon fill="midnightblue" stroke="midnightblue" points="1672.19,-67.36 1662.65,-71.97 1672.98,-74.31 1672.19,-67.36"/>
</g>
<!-- Node17 -->
<g id="node17" class="node">
<title>Node17</title>
<g id="a_node17"><a xlink:href="permissions_8h.html" target="_top" xlink:title="Generated code.">
<polygon fill="none" stroke="black" points="2075.5,-6 2075.5,-25 2203.5,-25 2203.5,-6 2075.5,-6"/>
<text text-anchor="middle" x="2139.5" y="-13" font-family="Helvetica,sans-Serif" font-size="10.00">docs/api/permissions.h</text>
</a>
</g>
</g>
<!-- Node1&#45;&gt;Node17 -->
<g id="edge16" class="edge">
<title>Node1&#45;&gt;Node17</title>
<path fill="none" stroke="midnightblue" d="M1672.88,-72.64C1753.85,-66.57 1923.92,-52.39 2066.5,-31 2077.49,-29.35 2089.33,-27.17 2100.22,-25.01"/>
<polygon fill="midnightblue" stroke="midnightblue" points="1672.24,-69.18 1662.53,-73.41 1672.76,-76.16 1672.24,-69.18"/>
</g>
<!-- Node18 -->
<g id="node18" class="node">
<title>Node18</title>
<g id="a_node18"><a xlink:href="docs_2api_2stage__instance_8h.html" target="_top" xlink:title="Generated code.">
<polygon fill="none" stroke="black" points="2222,-6 2222,-25 2365,-25 2365,-6 2222,-6"/>
<text text-anchor="middle" x="2293.5" y="-13" font-family="Helvetica,sans-Serif" font-size="10.00">docs/api/stage_instance.h</text>
</a>
</g>
</g>
<!-- Node1&#45;&gt;Node18 -->
<g id="edge17" class="edge">
<title>Node1&#45;&gt;Node18</title>
<path fill="none" stroke="midnightblue" d="M1672.8,-73.99C1772.76,-69.39 2012.74,-56.47 2212.5,-31 2224.83,-29.43 2238.13,-27.25 2250.33,-25.06"/>
<polygon fill="midnightblue" stroke="midnightblue" points="1672.55,-70.5 1662.72,-74.45 1672.87,-77.49 1672.55,-70.5"/>
</g>
<!-- Node19 -->
<g id="node19" class="node">
<title>Node19</title>
<g id="a_node19"><a xlink:href="docs_2api_2sticker_8h.html" target="_top" xlink:title="Generated code.">
<polygon fill="none" stroke="black" points="2383,-6 2383,-25 2484,-25 2484,-6 2383,-6"/>
<text text-anchor="middle" x="2433.5" y="-13" font-family="Helvetica,sans-Serif" font-size="10.00">docs/api/sticker.h</text>
</a>
</g>
</g>
<!-- Node1&#45;&gt;Node19 -->
<g id="edge18" class="edge">
<title>Node1&#45;&gt;Node19</title>
<path fill="none" stroke="midnightblue" d="M1672.98,-76.12C1791.85,-75.77 2111.64,-70.86 2374.5,-31 2383.99,-29.56 2394.19,-27.31 2403.39,-25.01"/>
<polygon fill="midnightblue" stroke="midnightblue" points="1672.76,-72.62 1662.77,-76.14 1672.78,-79.62 1672.76,-72.62"/>
</g>
<!-- Node20 -->
<g id="node20" class="node">
<title>Node20</title>
<g id="a_node20"><a xlink:href="teams_8h.html" target="_top" xlink:title="Generated code.">
<polygon fill="none" stroke="black" points="2502.5,-6 2502.5,-25 2602.5,-25 2602.5,-6 2502.5,-6"/>
<text text-anchor="middle" x="2552.5" y="-13" font-family="Helvetica,sans-Serif" font-size="10.00">docs/api/teams.h</text>
</a>
</g>
</g>
<!-- Node1&#45;&gt;Node20 -->
<g id="edge19" class="edge">
<title>Node1&#45;&gt;Node20</title>
<path fill="none" stroke="midnightblue" d="M1672.64,-76.67C1803.63,-77.88 2182.82,-76.81 2493.5,-31 2503,-29.6 2513.2,-27.36 2522.4,-25.06"/>
<polygon fill="midnightblue" stroke="midnightblue" points="1672.58,-73.17 1662.55,-76.57 1672.51,-80.17 1672.58,-73.17"/>
</g>
<!-- Node21 -->
<g id="node21" class="node">
<title>Node21</title>
<g id="a_node21"><a xlink:href="docs_2api_2user_8h.html" target="_top" xlink:title="Generated code.">
<polygon fill="none" stroke="black" points="2621,-6 2621,-25 2710,-25 2710,-6 2621,-6"/>
<text text-anchor="middle" x="2665.5" y="-13" font-family="Helvetica,sans-Serif" font-size="10.00">docs/api/user.h</text>
</a>
</g>
</g>
<!-- Node1&#45;&gt;Node21 -->
<g id="edge20" class="edge">
<title>Node1&#45;&gt;Node21</title>
<path fill="none" stroke="midnightblue" d="M1672.75,-75.2C1843.35,-72.1 2427.19,-59.6 2611.5,-31 2620.32,-29.63 2629.78,-27.37 2638.27,-25.04"/>
<polygon fill="midnightblue" stroke="midnightblue" points="1672.52,-71.7 1662.58,-75.38 1672.64,-78.7 1672.52,-71.7"/>
</g>
<!-- Node22 -->
<g id="node22" class="node">
<title>Node22</title>
<g id="a_node22"><a xlink:href="docs_2api_2voice_8h.html" target="_top" xlink:title="Generated code.">
<polygon fill="none" stroke="black" points="2728,-6 2728,-25 2823,-25 2823,-6 2728,-6"/>
<text text-anchor="middle" x="2775.5" y="-13" font-family="Helvetica,sans-Serif" font-size="10.00">docs/api/voice.h</text>
</a>
</g>
</g>
<!-- Node1&#45;&gt;Node22 -->
<g id="edge21" class="edge">
<title>Node1&#45;&gt;Node22</title>
<path fill="none" stroke="midnightblue" d="M1672.71,-75.39C1854.97,-72.83 2512.91,-61.64 2719.5,-31 2728.64,-29.64 2738.44,-27.39 2747.25,-25.06"/>
<polygon fill="midnightblue" stroke="midnightblue" points="1672.59,-71.89 1662.64,-75.53 1672.68,-78.89 1672.59,-71.89"/>
</g>
<!-- Node23 -->
<g id="node23" class="node">
<title>Node23</title>
<g id="a_node23"><a xlink:href="voice__connections_8h.html" target="_top" xlink:title="Generated code.">
<polygon fill="none" stroke="black" points="2841,-6 2841,-25 3000,-25 3000,-6 2841,-6"/>
<text text-anchor="middle" x="2920.5" y="-13" font-family="Helvetica,sans-Serif" font-size="10.00">docs/api/voice_connections.h</text>
</a>
</g>
</g>
<!-- Node1&#45;&gt;Node23 -->
<g id="edge22" class="edge">
<title>Node1&#45;&gt;Node23</title>
<path fill="none" stroke="midnightblue" d="M1672.77,-76.37C1834.84,-77.2 2382.84,-76.25 2832.5,-31 2846.52,-29.59 2861.69,-27.35 2875.43,-25.05"/>
<polygon fill="midnightblue" stroke="midnightblue" points="1672.68,-72.87 1662.66,-76.32 1672.64,-79.87 1672.68,-72.87"/>
</g>
<!-- Node24 -->
<g id="node24" class="node">
<title>Node24</title>
<g id="a_node24"><a xlink:href="docs_2api_2webhook_8h.html" target="_top" xlink:title="Generated code.">
<polygon fill="none" stroke="black" points="3018,-6 3018,-25 3131,-25 3131,-6 3018,-6"/>
<text text-anchor="middle" x="3074.5" y="-13" font-family="Helvetica,sans-Serif" font-size="10.00">docs/api/webhook.h</text>
</a>
</g>
</g>
<!-- Node1&#45;&gt;Node24 -->
<g id="edge23" class="edge">
<title>Node1&#45;&gt;Node24</title>
<path fill="none" stroke="midnightblue" d="M1672.88,-75.65C1884.28,-73.9 2742.56,-64.81 3009.5,-31 3020.17,-29.65 3031.66,-27.37 3041.98,-25.01"/>
<polygon fill="midnightblue" stroke="midnightblue" points="1672.71,-72.15 1662.74,-75.73 1672.76,-79.15 1672.71,-72.15"/>
</g>
<!-- Node25 -->
<g id="node25" class="node">
<title>Node25</title>
<g id="a_node25"><a xlink:href="discord-internal_8h.html" target="_top" xlink:title="Internal functions and datatypes.">
<polygon fill="none" stroke="black" points="3149.5,-6 3149.5,-25 3289.5,-25 3289.5,-6 3149.5,-6"/>
<text text-anchor="middle" x="3219.5" y="-13" font-family="Helvetica,sans-Serif" font-size="10.00">include/discord&#45;internal.h</text>
</a>
</g>
</g>
<!-- Node1&#45;&gt;Node25 -->
<g id="edge24" class="edge">
<title>Node1&#45;&gt;Node25</title>
<path fill="none" stroke="midnightblue" d="M1672.56,-75.57C1895.35,-73.36 2845.57,-62.26 3140.5,-31 3153.26,-29.65 3167.05,-27.39 3179.48,-25.06"/>
<polygon fill="midnightblue" stroke="midnightblue" points="1672.47,-72.07 1662.5,-75.66 1672.54,-79.07 1672.47,-72.07"/>
</g>
</g>
</svg>
