<?xml version="1.0" encoding="UTF-8" standalone="no"?>
<!DOCTYPE svg PUBLIC "-//W3C//DTD SVG 1.1//EN"
 "http://www.w3.org/Graphics/SVG/1.1/DTD/svg11.dtd">
<!-- Generated by graphviz version 2.43.0 (0)
 -->
<!-- Title: core/logconf.h Pages: 1 -->
<svg width="173pt" height="140pt"
 viewBox="0.00 0.00 172.50 140.00" xmlns="http://www.w3.org/2000/svg" xmlns:xlink="http://www.w3.org/1999/xlink">
<g id="graph0" class="graph" transform="scale(1 1) rotate(0) translate(4 136)">
<title>core/logconf.h</title>
<!-- Node1 -->
<g id="node1" class="node">
<title>Node1</title>
<g id="a_node1"><a xlink:title=" ">
<polygon fill="#bfbfbf" stroke="black" points="52,-112.5 52,-131.5 137,-131.5 137,-112.5 52,-112.5"/>
<text text-anchor="middle" x="94.5" y="-119.5" font-family="Helvetica,sans-Serif" font-size="10.00">core/logconf.h</text>
</a>
</g>
</g>
<!-- Node2 -->
<g id="node2" class="node">
<title>Node2</title>
<g id="a_node2"><a xlink:href="websockets_8h.html" target="_top" xlink:title=" ">
<polygon fill="none" stroke="black" points="0,-56.5 0,-75.5 107,-75.5 107,-56.5 0,-56.5"/>
<text text-anchor="middle" x="53.5" y="-63.5" font-family="Helvetica,sans-Serif" font-size="10.00">core/websockets.h</text>
</a>
</g>
</g>
<!-- Node1&#45;&gt;Node2 -->
<g id="edge1" class="edge">
<title>Node1&#45;&gt;Node2</title>
<path fill="none" stroke="midnightblue" d="M81.48,-103.86C74.38,-94.5 65.9,-83.33 60.14,-75.75"/>
<polygon fill="midnightblue" stroke="midnightblue" points="78.89,-106.24 87.73,-112.08 84.47,-102 78.89,-106.24"/>
</g>
<!-- Node3 -->
<g id="node3" class="node">
<title>Node3</title>
<g id="a_node3"><a xlink:href="discord-internal_8h.html" target="_top" xlink:title="Internal functions and datatypes.">
<polygon fill="none" stroke="black" points="24.5,-0.5 24.5,-19.5 164.5,-19.5 164.5,-0.5 24.5,-0.5"/>
<text text-anchor="middle" x="94.5" y="-7.5" font-family="Helvetica,sans-Serif" font-size="10.00">include/discord&#45;internal.h</text>
</a>
</g>
</g>
<!-- Node1&#45;&gt;Node3 -->
<g id="edge3" class="edge">
<title>Node1&#45;&gt;Node3</title>
<path fill="none" stroke="midnightblue" d="M104.78,-103.63C108.99,-95.52 113.38,-85.57 115.5,-76 120.07,-55.39 108.13,-32.02 100.43,-19.69"/>
<polygon fill="midnightblue" stroke="midnightblue" points="101.68,-102 99.88,-112.44 107.8,-105.4 101.68,-102"/>
</g>
<!-- Node2&#45;&gt;Node3 -->
<g id="edge2" class="edge">
<title>Node2&#45;&gt;Node3</title>
<path fill="none" stroke="midnightblue" d="M66.52,-47.86C73.62,-38.5 82.1,-27.33 87.86,-19.75"/>
<polygon fill="midnightblue" stroke="midnightblue" points="63.53,-46 60.27,-56.08 69.11,-50.24 63.53,-46"/>
</g>
</g>
</svg>
