<?xml version="1.0" encoding="UTF-8" standalone="no"?>
<!DOCTYPE svg PUBLIC "-//W3C//DTD SVG 1.1//EN"
 "http://www.w3.org/Graphics/SVG/1.1/DTD/svg11.dtd">
<!-- Generated by graphviz version 2.43.0 (0)
 -->
<!-- Title: discord_bucket Pages: 1 -->
<svg width="103pt" height="95pt"
 viewBox="0.00 0.00 103.00 95.00" xmlns="http://www.w3.org/2000/svg" xmlns:xlink="http://www.w3.org/1999/xlink">
<g id="graph0" class="graph" transform="scale(1 1) rotate(0) translate(4 91)">
<title>discord_bucket</title>
<!-- Node1 -->
<g id="node1" class="node">
<title>Node1</title>
<g id="a_node1"><a xlink:title="The Discord bucket for handling per&#45;group ratelimits.">
<polygon fill="#bfbfbf" stroke="black" points="2.5,-67.5 2.5,-86.5 91.5,-86.5 91.5,-67.5 2.5,-67.5"/>
<text text-anchor="middle" x="47" y="-74.5" font-family="Helvetica,sans-Serif" font-size="10.00">discord_bucket</text>
</a>
</g>
</g>
<!-- Node2 -->
<g id="node2" class="node">
<title>Node2</title>
<g id="a_node2"><a xlink:href="structdiscord__request.html" target="_top" xlink:title="Individual requests that are scheduled to run asynchronously.">
<polygon fill="none" stroke="red" points="0,-0.5 0,-19.5 94,-19.5 94,-0.5 0,-0.5"/>
<text text-anchor="middle" x="47" y="-7.5" font-family="Helvetica,sans-Serif" font-size="10.00">discord_request</text>
</a>
</g>
</g>
<!-- Node1&#45;&gt;Node2 -->
<g id="edge2" class="edge">
<title>Node1&#45;&gt;Node2</title>
<path fill="none" stroke="#9a32cd" stroke-dasharray="5,2" d="M36.4,-58.46C35,-55.4 33.78,-52.18 33,-49 30.47,-38.62 35.88,-27.17 40.69,-19.58"/>
<polygon fill="#9a32cd" stroke="#9a32cd" points="33.39,-60.26 41.2,-67.42 39.57,-56.96 33.39,-60.26"/>
<text text-anchor="middle" x="38" y="-41" font-family="Helvetica,sans-Serif" font-size="10.00"> b</text>
</g>
<!-- Node2&#45;&gt;Node1 -->
<g id="edge1" class="edge">
<title>Node2&#45;&gt;Node1</title>
<path fill="none" stroke="#9a32cd" stroke-dasharray="5,2" d="M47,-29.78C47,-42.12 47,-57.68 47,-67.23"/>
<polygon fill="#9a32cd" stroke="#9a32cd" points="50.5,-29.63 47,-19.63 43.5,-29.63 50.5,-29.63"/>
<text text-anchor="middle" x="71" y="-41" font-family="Helvetica,sans-Serif" font-size="10.00"> busy_req</text>
</g>
</g>
</svg>
