<?xml version="1.0" encoding="UTF-8" standalone="no"?>
<!DOCTYPE svg PUBLIC "-//W3C//DTD SVG 1.1//EN"
 "http://www.w3.org/Graphics/SVG/1.1/DTD/svg11.dtd">
<!-- Generated by graphviz version 2.43.0 (0)
 -->
<!-- Title: discord_rest Pages: 1 -->
<svg width="273pt" height="162pt"
 viewBox="0.00 0.00 273.00 162.00" xmlns="http://www.w3.org/2000/svg" xmlns:xlink="http://www.w3.org/1999/xlink">
<g id="graph0" class="graph" transform="scale(1 1) rotate(0) translate(4 158)">
<title>discord_rest</title>
<!-- Node1 -->
<g id="node1" class="node">
<title>Node1</title>
<g id="a_node1"><a xlink:title="The handle used for interfacing with Discord&#39;s REST API.">
<polygon fill="#bfbfbf" stroke="black" points="67.5,-0.5 67.5,-19.5 143.5,-19.5 143.5,-0.5 67.5,-0.5"/>
<text text-anchor="middle" x="105.5" y="-7.5" font-family="Helvetica,sans-Serif" font-size="10.00">discord_rest</text>
</a>
</g>
</g>
<!-- Node2 -->
<g id="node2" class="node">
<title>Node2</title>
<g id="a_node2"><a xlink:href="structlogconf.html" target="_top" xlink:title="A stackful and modularized wrapper over the popular &#39;log.c&#39; facilities.">
<polygon fill="none" stroke="red" points="0,-134.5 0,-153.5 53,-153.5 53,-134.5 0,-134.5"/>
<text text-anchor="middle" x="26.5" y="-141.5" font-family="Helvetica,sans-Serif" font-size="10.00">logconf</text>
</a>
</g>
</g>
<!-- Node2&#45;&gt;Node1 -->
<g id="edge1" class="edge">
<title>Node2&#45;&gt;Node1</title>
<path fill="none" stroke="#9a32cd" stroke-dasharray="5,2" d="M19.29,-124.57C14.21,-108.41 9.85,-84.79 19.5,-67 32.32,-43.35 59.94,-28.12 80.44,-19.6"/>
<polygon fill="#9a32cd" stroke="#9a32cd" points="16.14,-126.13 22.77,-134.4 22.74,-123.8 16.14,-126.13"/>
<text text-anchor="middle" x="32" y="-74.5" font-family="Helvetica,sans-Serif" font-size="10.00"> conf</text>
</g>
<!-- Node7 -->
<g id="node3" class="node">
<title>Node7</title>
<g id="a_node3"><a xlink:href="structdiscord__requestor.html" target="_top" xlink:title="The handle used for handling asynchronous requests.">
<polygon fill="none" stroke="red" points="53.5,-67.5 53.5,-86.5 157.5,-86.5 157.5,-67.5 53.5,-67.5"/>
<text text-anchor="middle" x="105.5" y="-74.5" font-family="Helvetica,sans-Serif" font-size="10.00">discord_requestor</text>
</a>
</g>
</g>
<!-- Node2&#45;&gt;Node7 -->
<g id="edge3" class="edge">
<title>Node2&#45;&gt;Node7</title>
<path fill="none" stroke="#9a32cd" stroke-dasharray="5,2" d="M45.08,-127.71C60.64,-114.91 82.3,-97.09 95.01,-86.63"/>
<polygon fill="#9a32cd" stroke="#9a32cd" points="42.65,-125.18 37.15,-134.23 47.1,-130.58 42.65,-125.18"/>
<text text-anchor="middle" x="84" y="-108" font-family="Helvetica,sans-Serif" font-size="10.00"> conf</text>
</g>
<!-- Node7&#45;&gt;Node1 -->
<g id="edge2" class="edge">
<title>Node7&#45;&gt;Node1</title>
<path fill="none" stroke="#9a32cd" stroke-dasharray="5,2" d="M105.5,-57.04C105.5,-44.67 105.5,-29.12 105.5,-19.63"/>
<polygon fill="#9a32cd" stroke="#9a32cd" points="102,-57.23 105.5,-67.23 109,-57.23 102,-57.23"/>
<text text-anchor="middle" x="130.5" y="-41" font-family="Helvetica,sans-Serif" font-size="10.00"> requestor</text>
</g>
<!-- Node16 -->
<g id="node4" class="node">
<title>Node16</title>
<g id="a_node4"><a xlink:href="structdiscord__timers.html" target="_top" xlink:title=" ">
<polygon fill="none" stroke="red" points="176,-67.5 176,-86.5 265,-86.5 265,-67.5 176,-67.5"/>
<text text-anchor="middle" x="220.5" y="-74.5" font-family="Helvetica,sans-Serif" font-size="10.00">discord_timers</text>
</a>
</g>
</g>
<!-- Node16&#45;&gt;Node1 -->
<g id="edge4" class="edge">
<title>Node16&#45;&gt;Node1</title>
<path fill="none" stroke="#9a32cd" stroke-dasharray="5,2" d="M199.08,-61.97C187.52,-54.58 172.9,-45.5 159.5,-38 147.79,-31.45 134.29,-24.7 123.72,-19.58"/>
<polygon fill="#9a32cd" stroke="#9a32cd" points="197.32,-65 207.62,-67.49 201.12,-59.12 197.32,-65"/>
<text text-anchor="middle" x="195" y="-41" font-family="Helvetica,sans-Serif" font-size="10.00"> timers</text>
</g>
</g>
</svg>
