<?xml version="1.0" encoding="UTF-8" standalone="no"?>
<!DOCTYPE svg PUBLIC "-//W3C//DTD SVG 1.1//EN"
 "http://www.w3.org/Graphics/SVG/1.1/DTD/svg11.dtd">
<!-- Generated by graphviz version 2.43.0 (0)
 -->
<!-- Title: discord_component Pages: 1 -->
<svg width="561pt" height="149pt"
 viewBox="0.00 0.00 561.00 149.00" xmlns="http://www.w3.org/2000/svg" xmlns:xlink="http://www.w3.org/1999/xlink">
<g id="graph0" class="graph" transform="scale(1 1) rotate(0) translate(4 145)">
<title>discord_component</title>
<!-- Node1 -->
<g id="node1" class="node">
<title>Node1</title>
<g id="a_node1"><a xlink:title=" ">
<polygon fill="#bfbfbf" stroke="black" points="224,-60.5 224,-79.5 336,-79.5 336,-60.5 224,-60.5"/>
<text text-anchor="middle" x="280" y="-67.5" font-family="Helvetica,sans-Serif" font-size="10.00">discord_component</text>
</a>
</g>
</g>
<!-- Node1&#45;&gt;Node1 -->
<g id="edge5" class="edge">
<title>Node1&#45;&gt;Node1</title>
<path fill="none" stroke="#9a32cd" stroke-dasharray="5,2" d="M262.59,-89.4C263.76,-94.31 269.56,-98 280,-98 296.71,-98 301.54,-88.57 294.49,-79.76"/>
<polygon fill="#9a32cd" stroke="#9a32cd" points="265.97,-90.34 265.51,-79.76 259.27,-88.31 265.97,-90.34"/>
<text text-anchor="middle" x="280" y="-101" font-family="Helvetica,sans-Serif" font-size="10.00"> accessory</text>
</g>
<!-- Node7 -->
<g id="node4" class="node">
<title>Node7</title>
<g id="a_node4"><a xlink:href="structdiscord__components.html" target="_top" xlink:title=" ">
<polygon fill="none" stroke="black" points="436,-60.5 436,-79.5 553,-79.5 553,-60.5 436,-60.5"/>
<text text-anchor="middle" x="494.5" y="-67.5" font-family="Helvetica,sans-Serif" font-size="10.00">discord_components</text>
</a>
</g>
</g>
<!-- Node1&#45;&gt;Node7 -->
<g id="edge4" class="edge">
<title>Node1&#45;&gt;Node7</title>
<path fill="none" stroke="#9a32cd" stroke-dasharray="5,2" d="M346.3,-70C374.87,-70 408.11,-70 435.76,-70"/>
<polygon fill="#9a32cd" stroke="#9a32cd" points="346,-66.5 336,-70 346,-73.5 346,-66.5"/>
<text text-anchor="middle" x="386" y="-73" font-family="Helvetica,sans-Serif" font-size="10.00"> array</text>
</g>
<!-- Node2 -->
<g id="node2" class="node">
<title>Node2</title>
<g id="a_node2"><a xlink:href="structdiscord__emoji.html" target="_top" xlink:title=" ">
<polygon fill="none" stroke="red" points="31.5,-121.5 31.5,-140.5 116.5,-140.5 116.5,-121.5 31.5,-121.5"/>
<text text-anchor="middle" x="74" y="-128.5" font-family="Helvetica,sans-Serif" font-size="10.00">discord_emoji</text>
</a>
</g>
</g>
<!-- Node2&#45;&gt;Node1 -->
<g id="edge1" class="edge">
<title>Node2&#45;&gt;Node1</title>
<path fill="none" stroke="#9a32cd" stroke-dasharray="5,2" d="M125.79,-119.08C150.21,-113.03 179.79,-105.22 206,-97 222.5,-91.82 240.75,-85.07 254.88,-79.62"/>
<polygon fill="#9a32cd" stroke="#9a32cd" points="124.89,-115.69 116.01,-121.48 126.56,-122.49 124.89,-115.69"/>
<text text-anchor="middle" x="186" y="-111" font-family="Helvetica,sans-Serif" font-size="10.00"> emoji</text>
</g>
<!-- Node5 -->
<g id="node3" class="node">
<title>Node5</title>
<g id="a_node3"><a xlink:href="structdiscord__select__options.html" target="_top" xlink:title=" ">
<polygon fill="none" stroke="red" points="10,-83.5 10,-102.5 138,-102.5 138,-83.5 10,-83.5"/>
<text text-anchor="middle" x="74" y="-90.5" font-family="Helvetica,sans-Serif" font-size="10.00">discord_select_options</text>
</a>
</g>
</g>
<!-- Node5&#45;&gt;Node1 -->
<g id="edge2" class="edge">
<title>Node5&#45;&gt;Node1</title>
<path fill="none" stroke="#9a32cd" stroke-dasharray="5,2" d="M148.27,-84.74C173.15,-81.93 200.51,-78.85 223.74,-76.23"/>
<polygon fill="#9a32cd" stroke="#9a32cd" points="147.69,-81.28 138.15,-85.88 148.48,-88.24 147.69,-81.28"/>
<text text-anchor="middle" x="186" y="-85" font-family="Helvetica,sans-Serif" font-size="10.00"> options</text>
</g>
<!-- Node7&#45;&gt;Node1 -->
<g id="edge3" class="edge">
<title>Node7&#45;&gt;Node1</title>
<path fill="none" stroke="#9a32cd" stroke-dasharray="5,2" d="M446.23,-58.41C436.93,-56.57 427.2,-54.96 418,-54 389.71,-51.04 382.28,-50.94 354,-54 341.87,-55.31 328.81,-57.82 317.13,-60.47"/>
<polygon fill="#9a32cd" stroke="#9a32cd" points="445.61,-61.85 456.11,-60.46 447.04,-55 445.61,-61.85"/>
<text text-anchor="middle" x="386" y="-57" font-family="Helvetica,sans-Serif" font-size="10.00"> components</text>
</g>
<!-- Node8 -->
<g id="node5" class="node">
<title>Node8</title>
<g id="a_node5"><a xlink:href="structdiscord__component__media.html" target="_top" xlink:title=" ">
<polygon fill="none" stroke="black" points="0,-38.5 0,-57.5 148,-57.5 148,-38.5 0,-38.5"/>
<text text-anchor="middle" x="74" y="-45.5" font-family="Helvetica,sans-Serif" font-size="10.00">discord_component_media</text>
</a>
</g>
</g>
<!-- Node8&#45;&gt;Node1 -->
<g id="edge6" class="edge">
<title>Node8&#45;&gt;Node1</title>
<path fill="none" stroke="#9a32cd" stroke-dasharray="5,2" d="M158.36,-45.24C174.23,-45.67 190.67,-46.78 206,-49 221.66,-51.27 238.68,-56.02 252.34,-60.44"/>
<polygon fill="#9a32cd" stroke="#9a32cd" points="158.09,-41.73 148.02,-45.04 157.96,-48.73 158.09,-41.73"/>
<text text-anchor="middle" x="186" y="-63" font-family="Helvetica,sans-Serif" font-size="10.00"> file</text>
<text text-anchor="middle" x="186" y="-52" font-family="Helvetica,sans-Serif" font-size="10.00">media</text>
</g>
<!-- Node9 -->
<g id="node6" class="node">
<title>Node9</title>
<g id="a_node6"><a xlink:href="structdiscord__component__items.html" target="_top" xlink:title=" ">
<polygon fill="none" stroke="red" points="1.5,-0.5 1.5,-19.5 146.5,-19.5 146.5,-0.5 1.5,-0.5"/>
<text text-anchor="middle" x="74" y="-7.5" font-family="Helvetica,sans-Serif" font-size="10.00">discord_component_items</text>
</a>
</g>
</g>
<!-- Node9&#45;&gt;Node1 -->
<g id="edge7" class="edge">
<title>Node9&#45;&gt;Node1</title>
<path fill="none" stroke="#9a32cd" stroke-dasharray="5,2" d="M156.97,-18.01C173.46,-20.87 190.48,-24.75 206,-30 227.9,-37.41 250.94,-51.19 265.14,-60.47"/>
<polygon fill="#9a32cd" stroke="#9a32cd" points="157.22,-14.5 146.79,-16.35 156.1,-21.41 157.22,-14.5"/>
<text text-anchor="middle" x="186" y="-33" font-family="Helvetica,sans-Serif" font-size="10.00"> items</text>
</g>
</g>
</svg>
