<?xml version="1.0" encoding="UTF-8" standalone="no"?>
<!DOCTYPE svg PUBLIC "-//W3C//DTD SVG 1.1//EN"
 "http://www.w3.org/Graphics/SVG/1.1/DTD/svg11.dtd">
<!-- Generated by graphviz version 2.43.0 (0)
 -->
<!-- Title: discord_execute_webhook Pages: 1 -->
<svg width="536pt" height="95pt"
 viewBox="0.00 0.00 535.50 95.00" xmlns="http://www.w3.org/2000/svg" xmlns:xlink="http://www.w3.org/1999/xlink">
<g id="graph0" class="graph" transform="scale(1 1) rotate(0) translate(4 91)">
<title>discord_execute_webhook</title>
<!-- Node1 -->
<g id="node1" class="node">
<title>Node1</title>
<g id="a_node1"><a xlink:title=" ">
<polygon fill="#bfbfbf" stroke="black" points="185.5,-0.5 185.5,-19.5 330.5,-19.5 330.5,-0.5 185.5,-0.5"/>
<text text-anchor="middle" x="258" y="-7.5" font-family="Helvetica,sans-Serif" font-size="10.00">discord_execute_webhook</text>
</a>
</g>
</g>
<!-- Node2 -->
<g id="node2" class="node">
<title>Node2</title>
<g id="a_node2"><a xlink:href="structdiscord__embeds.html" target="_top" xlink:title=" ">
<polygon fill="none" stroke="red" points="0,-67.5 0,-86.5 96,-86.5 96,-67.5 0,-67.5"/>
<text text-anchor="middle" x="48" y="-74.5" font-family="Helvetica,sans-Serif" font-size="10.00">discord_embeds</text>
</a>
</g>
</g>
<!-- Node2&#45;&gt;Node1 -->
<g id="edge1" class="edge">
<title>Node2&#45;&gt;Node1</title>
<path fill="none" stroke="#9a32cd" stroke-dasharray="5,2" d="M81.2,-64.02C103.16,-56.24 132.66,-46.09 159,-38 180.63,-31.36 205.16,-24.66 224.4,-19.6"/>
<polygon fill="#9a32cd" stroke="#9a32cd" points="79.92,-60.76 71.68,-67.41 82.27,-67.35 79.92,-60.76"/>
<text text-anchor="middle" x="180.5" y="-41" font-family="Helvetica,sans-Serif" font-size="10.00"> embeds</text>
</g>
<!-- Node12 -->
<g id="node3" class="node">
<title>Node12</title>
<g id="a_node3"><a xlink:href="structdiscord__allowed__mention.html" target="_top" xlink:title=" ">
<polygon fill="none" stroke="red" points="114.5,-67.5 114.5,-86.5 255.5,-86.5 255.5,-67.5 114.5,-67.5"/>
<text text-anchor="middle" x="185" y="-74.5" font-family="Helvetica,sans-Serif" font-size="10.00">discord_allowed_mention</text>
</a>
</g>
</g>
<!-- Node12&#45;&gt;Node1 -->
<g id="edge2" class="edge">
<title>Node12&#45;&gt;Node1</title>
<path fill="none" stroke="#9a32cd" stroke-dasharray="5,2" d="M197.48,-59.11C203.04,-52.16 209.93,-44.29 217,-38 224.9,-30.98 234.77,-24.42 242.84,-19.53"/>
<polygon fill="#9a32cd" stroke="#9a32cd" points="194.56,-57.17 191.23,-67.23 200.1,-61.44 194.56,-57.17"/>
<text text-anchor="middle" x="263.5" y="-41" font-family="Helvetica,sans-Serif" font-size="10.00"> allowed_mentions</text>
</g>
<!-- Node15 -->
<g id="node4" class="node">
<title>Node15</title>
<g id="a_node4"><a xlink:href="structdiscord__components.html" target="_top" xlink:title=" ">
<polygon fill="none" stroke="red" points="273.5,-67.5 273.5,-86.5 390.5,-86.5 390.5,-67.5 273.5,-67.5"/>
<text text-anchor="middle" x="332" y="-74.5" font-family="Helvetica,sans-Serif" font-size="10.00">discord_components</text>
</a>
</g>
</g>
<!-- Node15&#45;&gt;Node1 -->
<g id="edge3" class="edge">
<title>Node15&#45;&gt;Node1</title>
<path fill="none" stroke="#9a32cd" stroke-dasharray="5,2" d="M324.23,-57.93C320.63,-51.08 315.85,-43.59 310,-38 301.76,-30.13 290.78,-23.98 281.03,-19.55"/>
<polygon fill="#9a32cd" stroke="#9a32cd" points="321.18,-59.68 328.63,-67.21 327.51,-56.68 321.18,-59.68"/>
<text text-anchor="middle" x="350" y="-41" font-family="Helvetica,sans-Serif" font-size="10.00"> components</text>
</g>
<!-- Node21 -->
<g id="node5" class="node">
<title>Node21</title>
<g id="a_node5"><a xlink:href="structdiscord__attachments.html" target="_top" xlink:title=" ">
<polygon fill="none" stroke="red" points="408.5,-67.5 408.5,-86.5 527.5,-86.5 527.5,-67.5 408.5,-67.5"/>
<text text-anchor="middle" x="468" y="-74.5" font-family="Helvetica,sans-Serif" font-size="10.00">discord_attachments</text>
</a>
</g>
</g>
<!-- Node21&#45;&gt;Node1 -->
<g id="edge4" class="edge">
<title>Node21&#45;&gt;Node1</title>
<path fill="none" stroke="#9a32cd" stroke-dasharray="5,2" d="M443.23,-62.73C427.27,-54.63 405.85,-44.6 386,-38 362.08,-30.05 334.84,-23.92 311.65,-19.52"/>
<polygon fill="#9a32cd" stroke="#9a32cd" points="441.92,-65.99 452.41,-67.48 445.13,-59.77 441.92,-65.99"/>
<text text-anchor="middle" x="445.5" y="-41" font-family="Helvetica,sans-Serif" font-size="10.00"> attachments</text>
</g>
</g>
</svg>
