<?xml version="1.0" encoding="UTF-8" standalone="no"?>
<!DOCTYPE svg PUBLIC "-//W3C//DTD SVG 1.1//EN"
 "http://www.w3.org/Graphics/SVG/1.1/DTD/svg11.dtd">
<!-- Generated by graphviz version 2.43.0 (0)
 -->
<!-- Title: discord_message Pages: 1 -->
<svg width="1077pt" height="600pt"
 viewBox="0.00 0.00 1076.50 600.04" xmlns="http://www.w3.org/2000/svg" xmlns:xlink="http://www.w3.org/1999/xlink">
<g id="graph0" class="graph" transform="scale(1 1) rotate(0) translate(4 596.04)">
<title>discord_message</title>
<!-- Node1 -->
<g id="node1" class="node">
<title>Node1</title>
<g id="a_node1"><a xlink:title=" ">
<polygon fill="#bfbfbf" stroke="black" points="965,-274.54 965,-293.54 1066,-293.54 1066,-274.54 965,-274.54"/>
<text text-anchor="middle" x="1015.5" y="-281.54" font-family="Helvetica,sans-Serif" font-size="10.00">discord_message</text>
</a>
</g>
</g>
<!-- Node1&#45;&gt;Node1 -->
<g id="edge17" class="edge">
<title>Node1&#45;&gt;Node1</title>
<path fill="none" stroke="#9a32cd" stroke-dasharray="5,2" d="M993.55,-303.07C994.75,-308.16 1002.06,-312.04 1015.5,-312.04 1036.47,-312.04 1042.54,-302.6 1033.69,-293.79"/>
<polygon fill="#9a32cd" stroke="#9a32cd" points="996.8,-304.38 997.31,-293.79 990.31,-301.74 996.8,-304.38"/>
<text text-anchor="middle" x="1015.5" y="-315.04" font-family="Helvetica,sans-Serif" font-size="10.00"> referenced_message</text>
</g>
<!-- Node2 -->
<g id="node2" class="node">
<title>Node2</title>
<g id="a_node2"><a xlink:href="structdiscord__user.html" target="_top" xlink:title=" ">
<polygon fill="none" stroke="black" points="0,-479.54 0,-498.54 78,-498.54 78,-479.54 0,-479.54"/>
<text text-anchor="middle" x="39" y="-486.54" font-family="Helvetica,sans-Serif" font-size="10.00">discord_user</text>
</a>
</g>
</g>
<!-- Node2&#45;&gt;Node1 -->
<g id="edge1" class="edge">
<title>Node2&#45;&gt;Node1</title>
<path fill="none" stroke="#9a32cd" stroke-dasharray="5,2" d="M57.45,-506.05C86.66,-532.64 148.41,-581.04 211,-581.04 211,-581.04 211,-581.04 753.5,-581.04 842.91,-581.04 883.94,-589.41 947,-526.04 1014.07,-458.64 1015.86,-330.54 1014.91,-294"/>
<polygon fill="#9a32cd" stroke="#9a32cd" points="59.48,-503.16 49.79,-498.88 54.7,-508.27 59.48,-503.16"/>
<text text-anchor="middle" x="502.5" y="-584.04" font-family="Helvetica,sans-Serif" font-size="10.00"> author</text>
</g>
<!-- Node3 -->
<g id="node3" class="node">
<title>Node3</title>
<g id="a_node3"><a xlink:href="structdiscord__guild__member.html" target="_top" xlink:title=" ">
<polygon fill="none" stroke="red" points="148,-479.54 148,-498.54 276,-498.54 276,-479.54 148,-479.54"/>
<text text-anchor="middle" x="212" y="-486.54" font-family="Helvetica,sans-Serif" font-size="10.00">discord_guild_member</text>
</a>
</g>
</g>
<!-- Node2&#45;&gt;Node3 -->
<g id="edge3" class="edge">
<title>Node2&#45;&gt;Node3</title>
<path fill="none" stroke="#9a32cd" stroke-dasharray="5,2" d="M88.59,-489.04C107.04,-489.04 128.32,-489.04 147.92,-489.04"/>
<polygon fill="#9a32cd" stroke="#9a32cd" points="88.38,-485.54 78.38,-489.04 88.38,-492.54 88.38,-485.54"/>
<text text-anchor="middle" x="113" y="-492.04" font-family="Helvetica,sans-Serif" font-size="10.00"> user</text>
</g>
<!-- Node5 -->
<g id="node4" class="node">
<title>Node5</title>
<g id="a_node4"><a xlink:href="structdiscord__users.html" target="_top" xlink:title=" ">
<polygon fill="none" stroke="black" points="170.5,-397.54 170.5,-416.54 253.5,-416.54 253.5,-397.54 170.5,-397.54"/>
<text text-anchor="middle" x="212" y="-404.54" font-family="Helvetica,sans-Serif" font-size="10.00">discord_users</text>
</a>
</g>
</g>
<!-- Node2&#45;&gt;Node5 -->
<g id="edge5" class="edge">
<title>Node2&#45;&gt;Node5</title>
<path fill="none" stroke="#9a32cd" stroke-dasharray="5,2" d="M69.12,-475.07C103.9,-458.39 161.13,-430.95 191.18,-416.54"/>
<polygon fill="#9a32cd" stroke="#9a32cd" points="67.45,-471.99 59.95,-479.47 70.48,-478.3 67.45,-471.99"/>
<text text-anchor="middle" x="113" y="-463.04" font-family="Helvetica,sans-Serif" font-size="10.00"> array</text>
</g>
<!-- Node31 -->
<g id="node12" class="node">
<title>Node31</title>
<g id="a_node12"><a xlink:href="structdiscord__application.html" target="_top" xlink:title=" ">
<polygon fill="none" stroke="red" points="294,-205.54 294,-224.54 405,-224.54 405,-205.54 294,-205.54"/>
<text text-anchor="middle" x="349.5" y="-212.54" font-family="Helvetica,sans-Serif" font-size="10.00">discord_application</text>
</a>
</g>
</g>
<!-- Node2&#45;&gt;Node31 -->
<g id="edge15" class="edge">
<title>Node2&#45;&gt;Node31</title>
<path fill="none" stroke="#9a32cd" stroke-dasharray="5,2" d="M56.55,-471.85C67.54,-460.6 82.39,-445.7 96,-433.04 185.89,-349.4 300.06,-254.79 336.65,-224.73"/>
<polygon fill="#9a32cd" stroke="#9a32cd" points="53.76,-469.7 49.31,-479.31 58.79,-474.58 53.76,-469.7"/>
<text text-anchor="middle" x="113" y="-436.04" font-family="Helvetica,sans-Serif" font-size="10.00"> owner</text>
</g>
<!-- Node38 -->
<g id="node14" class="node">
<title>Node38</title>
<g id="a_node14"><a xlink:href="structdiscord__message__interaction.html" target="_top" xlink:title=" ">
<polygon fill="none" stroke="black" points="423,-519.54 423,-538.54 582,-538.54 582,-519.54 423,-519.54"/>
<text text-anchor="middle" x="502.5" y="-526.54" font-family="Helvetica,sans-Serif" font-size="10.00">discord_message_interaction</text>
</a>
</g>
</g>
<!-- Node2&#45;&gt;Node38 -->
<g id="edge19" class="edge">
<title>Node2&#45;&gt;Node38</title>
<path fill="none" stroke="#9a32cd" stroke-dasharray="5,2" d="M82.33,-501.05C86.92,-502.15 91.54,-503.17 96,-504.04 183.03,-520.88 205.53,-522.48 294,-528.04 336.43,-530.7 383.83,-531.12 422.6,-530.8"/>
<polygon fill="#9a32cd" stroke="#9a32cd" points="82.95,-497.6 72.39,-498.54 81.23,-504.38 82.95,-497.6"/>
<text text-anchor="middle" x="212" y="-529.04" font-family="Helvetica,sans-Serif" font-size="10.00"> user</text>
</g>
<!-- Node3&#45;&gt;Node1 -->
<g id="edge2" class="edge">
<title>Node3&#45;&gt;Node1</title>
<path fill="none" stroke="#9a32cd" stroke-dasharray="5,2" d="M286.44,-491.31C461.81,-496.11 894.36,-503.9 947,-466.04 1005.55,-423.93 1013.38,-325.04 1014.37,-293.73"/>
<polygon fill="#9a32cd" stroke="#9a32cd" points="286.36,-487.81 276.27,-491.03 286.17,-494.81 286.36,-487.81"/>
<text text-anchor="middle" x="629" y="-498.04" font-family="Helvetica,sans-Serif" font-size="10.00"> member</text>
</g>
<!-- Node3&#45;&gt;Node38 -->
<g id="edge20" class="edge">
<title>Node3&#45;&gt;Node38</title>
<path fill="none" stroke="#9a32cd" stroke-dasharray="5,2" d="M286.31,-499.2C331.33,-505.44 388.64,-513.39 432.79,-519.51"/>
<polygon fill="#9a32cd" stroke="#9a32cd" points="286.7,-495.72 276.31,-497.82 285.74,-502.66 286.7,-495.72"/>
<text text-anchor="middle" x="349.5" y="-517.04" font-family="Helvetica,sans-Serif" font-size="10.00"> member</text>
</g>
<!-- Node5&#45;&gt;Node1 -->
<g id="edge4" class="edge">
<title>Node5&#45;&gt;Node1</title>
<path fill="none" stroke="#9a32cd" stroke-dasharray="5,2" d="M263.73,-409.24C369.52,-412.96 621.12,-417.34 829,-386.04 882.73,-377.95 900.23,-381.7 947,-354.04 973.74,-338.22 996.91,-308.98 1007.83,-293.78"/>
<polygon fill="#9a32cd" stroke="#9a32cd" points="263.78,-405.74 253.66,-408.87 263.52,-412.73 263.78,-405.74"/>
<text text-anchor="middle" x="629" y="-410.04" font-family="Helvetica,sans-Serif" font-size="10.00"> mentions</text>
</g>
<!-- Node10 -->
<g id="node7" class="node">
<title>Node10</title>
<g id="a_node7"><a xlink:href="structdiscord__channel.html" target="_top" xlink:title=" ">
<polygon fill="none" stroke="red" points="455,-358.54 455,-377.54 550,-377.54 550,-358.54 455,-358.54"/>
<text text-anchor="middle" x="502.5" y="-365.54" font-family="Helvetica,sans-Serif" font-size="10.00">discord_channel</text>
</a>
</g>
</g>
<!-- Node5&#45;&gt;Node10 -->
<g id="edge9" class="edge">
<title>Node5&#45;&gt;Node10</title>
<path fill="none" stroke="#9a32cd" stroke-dasharray="5,2" d="M248.27,-394.2C262.32,-389.6 278.75,-384.87 294,-382.04 348.67,-371.9 412.66,-368.89 454.96,-368.1"/>
<polygon fill="#9a32cd" stroke="#9a32cd" points="246.87,-390.98 238.52,-397.49 249.11,-397.61 246.87,-390.98"/>
<text text-anchor="middle" x="349.5" y="-385.04" font-family="Helvetica,sans-Serif" font-size="10.00"> recipients</text>
</g>
<!-- Node6 -->
<g id="node5" class="node">
<title>Node6</title>
<g id="a_node5"><a xlink:href="structdiscord__roles.html" target="_top" xlink:title=" ">
<polygon fill="none" stroke="red" points="712,-435.54 712,-454.54 793,-454.54 793,-435.54 712,-435.54"/>
<text text-anchor="middle" x="752.5" y="-442.54" font-family="Helvetica,sans-Serif" font-size="10.00">discord_roles</text>
</a>
</g>
</g>
<!-- Node6&#45;&gt;Node1 -->
<g id="edge6" class="edge">
<title>Node6&#45;&gt;Node1</title>
<path fill="none" stroke="#9a32cd" stroke-dasharray="5,2" d="M803.39,-451.19C845.47,-453.69 905.33,-450.67 947,-421.04 991.73,-389.23 1008.26,-319.29 1012.94,-293.68"/>
<polygon fill="#9a32cd" stroke="#9a32cd" points="803.59,-447.69 793.37,-450.46 803.09,-454.67 803.59,-447.69"/>
<text text-anchor="middle" x="897" y="-454.04" font-family="Helvetica,sans-Serif" font-size="10.00"> mention_roles</text>
</g>
<!-- Node9 -->
<g id="node6" class="node">
<title>Node9</title>
<g id="a_node6"><a xlink:href="structdiscord__channels.html" target="_top" xlink:title=" ">
<polygon fill="none" stroke="black" points="702,-160.54 702,-179.54 803,-179.54 803,-160.54 702,-160.54"/>
<text text-anchor="middle" x="752.5" y="-167.54" font-family="Helvetica,sans-Serif" font-size="10.00">discord_channels</text>
</a>
</g>
</g>
<!-- Node9&#45;&gt;Node1 -->
<g id="edge7" class="edge">
<title>Node9&#45;&gt;Node1</title>
<path fill="none" stroke="#9a32cd" stroke-dasharray="5,2" d="M813.46,-168.34C853.69,-169.73 906.52,-176.65 947,-200.04 978.1,-218 1000.52,-256.27 1009.78,-274.28"/>
<polygon fill="#9a32cd" stroke="#9a32cd" points="813.34,-164.84 803.25,-168.09 813.17,-171.83 813.34,-164.84"/>
<text text-anchor="middle" x="897" y="-203.04" font-family="Helvetica,sans-Serif" font-size="10.00"> mention_channels</text>
</g>
<!-- Node10&#45;&gt;Node1 -->
<g id="edge21" class="edge">
<title>Node10&#45;&gt;Node1</title>
<path fill="none" stroke="#9a32cd" stroke-dasharray="5,2" d="M560.23,-371.6C646.47,-375.09 814.55,-374.28 947,-327.04 968.46,-319.38 990.13,-303.89 1002.93,-293.74"/>
<polygon fill="#9a32cd" stroke="#9a32cd" points="560.26,-368.1 550.12,-371.16 559.96,-375.09 560.26,-368.1"/>
<text text-anchor="middle" x="752.5" y="-374.04" font-family="Helvetica,sans-Serif" font-size="10.00"> thread</text>
</g>
<!-- Node10&#45;&gt;Node9 -->
<g id="edge8" class="edge">
<title>Node10&#45;&gt;Node9</title>
<path fill="none" stroke="#9a32cd" stroke-dasharray="5,2" d="M515.61,-349.87C540.88,-313.45 602.99,-231.35 676,-189.04 683.84,-184.5 692.74,-181.03 701.62,-178.39"/>
<polygon fill="#9a32cd" stroke="#9a32cd" points="512.48,-348.25 509.73,-358.48 518.26,-352.2 512.48,-348.25"/>
<text text-anchor="middle" x="629" y="-250.04" font-family="Helvetica,sans-Serif" font-size="10.00"> array</text>
</g>
<!-- Node15 -->
<g id="node8" class="node">
<title>Node15</title>
<g id="a_node8"><a xlink:href="structdiscord__attachments.html" target="_top" xlink:title=" ">
<polygon fill="none" stroke="red" points="693,-312.54 693,-331.54 812,-331.54 812,-312.54 693,-312.54"/>
<text text-anchor="middle" x="752.5" y="-319.54" font-family="Helvetica,sans-Serif" font-size="10.00">discord_attachments</text>
</a>
</g>
</g>
<!-- Node15&#45;&gt;Node1 -->
<g id="edge10" class="edge">
<title>Node15&#45;&gt;Node1</title>
<path fill="none" stroke="#9a32cd" stroke-dasharray="5,2" d="M822.34,-315.55C859.41,-311.63 905.85,-306.04 947,-299.04 955.99,-297.51 965.6,-295.56 974.65,-293.59"/>
<polygon fill="#9a32cd" stroke="#9a32cd" points="821.73,-312.1 812.15,-316.61 822.45,-319.06 821.73,-312.1"/>
<text text-anchor="middle" x="897" y="-315.04" font-family="Helvetica,sans-Serif" font-size="10.00"> attachments</text>
</g>
<!-- Node17 -->
<g id="node9" class="node">
<title>Node17</title>
<g id="a_node9"><a xlink:href="structdiscord__embeds.html" target="_top" xlink:title=" ">
<polygon fill="none" stroke="red" points="704.5,-274.54 704.5,-293.54 800.5,-293.54 800.5,-274.54 704.5,-274.54"/>
<text text-anchor="middle" x="752.5" y="-281.54" font-family="Helvetica,sans-Serif" font-size="10.00">discord_embeds</text>
</a>
</g>
</g>
<!-- Node17&#45;&gt;Node1 -->
<g id="edge11" class="edge">
<title>Node17&#45;&gt;Node1</title>
<path fill="none" stroke="#9a32cd" stroke-dasharray="5,2" d="M810.9,-284.04C856.99,-284.04 921.04,-284.04 964.92,-284.04"/>
<polygon fill="#9a32cd" stroke="#9a32cd" points="810.77,-280.54 800.77,-284.04 810.77,-287.54 810.77,-280.54"/>
<text text-anchor="middle" x="897" y="-287.04" font-family="Helvetica,sans-Serif" font-size="10.00"> embeds</text>
</g>
<!-- Node27 -->
<g id="node10" class="node">
<title>Node27</title>
<g id="a_node10"><a xlink:href="structdiscord__reactions.html" target="_top" xlink:title=" ">
<polygon fill="none" stroke="red" points="701.5,-236.54 701.5,-255.54 803.5,-255.54 803.5,-236.54 701.5,-236.54"/>
<text text-anchor="middle" x="752.5" y="-243.54" font-family="Helvetica,sans-Serif" font-size="10.00">discord_reactions</text>
</a>
</g>
</g>
<!-- Node27&#45;&gt;Node1 -->
<g id="edge12" class="edge">
<title>Node27&#45;&gt;Node1</title>
<path fill="none" stroke="#9a32cd" stroke-dasharray="5,2" d="M813.77,-251.63C852.07,-255.57 902.61,-261.49 947,-269.04 955.99,-270.57 965.6,-272.51 974.65,-274.49"/>
<polygon fill="#9a32cd" stroke="#9a32cd" points="814.12,-248.15 803.81,-250.62 813.41,-255.11 814.12,-248.15"/>
<text text-anchor="middle" x="897" y="-272.04" font-family="Helvetica,sans-Serif" font-size="10.00"> reactions</text>
</g>
<!-- Node30 -->
<g id="node11" class="node">
<title>Node30</title>
<g id="a_node11"><a xlink:href="structdiscord__message__activity.html" target="_top" xlink:title=" ">
<polygon fill="none" stroke="black" points="681,-198.54 681,-217.54 824,-217.54 824,-198.54 681,-198.54"/>
<text text-anchor="middle" x="752.5" y="-205.54" font-family="Helvetica,sans-Serif" font-size="10.00">discord_message_activity</text>
</a>
</g>
</g>
<!-- Node30&#45;&gt;Node1 -->
<g id="edge13" class="edge">
<title>Node30&#45;&gt;Node1</title>
<path fill="none" stroke="#9a32cd" stroke-dasharray="5,2" d="M834.6,-213.91C870.01,-218.37 911.47,-226.22 947,-240.04 968.38,-248.35 990.07,-264.07 1002.9,-274.29"/>
<polygon fill="#9a32cd" stroke="#9a32cd" points="834.65,-210.39 824.31,-212.69 833.82,-217.34 834.65,-210.39"/>
<text text-anchor="middle" x="897" y="-243.04" font-family="Helvetica,sans-Serif" font-size="10.00"> activity</text>
</g>
<!-- Node31&#45;&gt;Node1 -->
<g id="edge14" class="edge">
<title>Node31&#45;&gt;Node1</title>
<path fill="none" stroke="#9a32cd" stroke-dasharray="5,2" d="M382.06,-201.59C439.34,-178 564.77,-130.06 676,-113.04 743.22,-102.75 761.05,-110.45 829,-113.04 881.56,-115.04 904.38,-91.22 947,-122.04 999.1,-159.71 1011.17,-245.33 1013.81,-274.27"/>
<polygon fill="#9a32cd" stroke="#9a32cd" points="380.72,-198.36 372.82,-205.43 383.4,-204.82 380.72,-198.36"/>
<text text-anchor="middle" x="629" y="-131.04" font-family="Helvetica,sans-Serif" font-size="10.00"> application</text>
</g>
<!-- Node37 -->
<g id="node13" class="node">
<title>Node37</title>
<g id="a_node13"><a xlink:href="structdiscord__message__reference.html" target="_top" xlink:title=" ">
<polygon fill="none" stroke="black" points="676,-122.54 676,-141.54 829,-141.54 829,-122.54 676,-122.54"/>
<text text-anchor="middle" x="752.5" y="-129.54" font-family="Helvetica,sans-Serif" font-size="10.00">discord_message_reference</text>
</a>
</g>
</g>
<!-- Node37&#45;&gt;Node1 -->
<g id="edge16" class="edge">
<title>Node37&#45;&gt;Node1</title>
<path fill="none" stroke="#9a32cd" stroke-dasharray="5,2" d="M839.15,-125.84C875.22,-127.27 915.94,-134.58 947,-156.04 989.38,-185.31 1007.17,-249.78 1012.58,-274.31"/>
<polygon fill="#9a32cd" stroke="#9a32cd" points="839.2,-122.34 829.12,-125.59 839.03,-129.34 839.2,-122.34"/>
<text text-anchor="middle" x="897" y="-159.04" font-family="Helvetica,sans-Serif" font-size="10.00"> message_reference</text>
</g>
<!-- Node38&#45;&gt;Node1 -->
<g id="edge18" class="edge">
<title>Node38&#45;&gt;Node1</title>
<path fill="none" stroke="#9a32cd" stroke-dasharray="5,2" d="M592.26,-534C705.74,-538.47 893.91,-538.93 947,-497.04 1013.09,-444.9 1015.64,-328.11 1014.88,-293.73"/>
<polygon fill="#9a32cd" stroke="#9a32cd" points="592.34,-530.5 582.2,-533.59 592.05,-537.5 592.34,-530.5"/>
<text text-anchor="middle" x="752.5" y="-538.04" font-family="Helvetica,sans-Serif" font-size="10.00"> interaction</text>
</g>
<!-- Node39 -->
<g id="node15" class="node">
<title>Node39</title>
<g id="a_node15"><a xlink:href="structdiscord__components.html" target="_top" xlink:title=" ">
<polygon fill="none" stroke="red" points="694,-46.54 694,-65.54 811,-65.54 811,-46.54 694,-46.54"/>
<text text-anchor="middle" x="752.5" y="-53.54" font-family="Helvetica,sans-Serif" font-size="10.00">discord_components</text>
</a>
</g>
</g>
<!-- Node39&#45;&gt;Node1 -->
<g id="edge22" class="edge">
<title>Node39&#45;&gt;Node1</title>
<path fill="none" stroke="#9a32cd" stroke-dasharray="5,2" d="M804.37,-44.92C846.98,-38.72 907.08,-37.61 947,-69.04 1013.71,-121.55 1015.83,-239.52 1014.92,-274.24"/>
<polygon fill="#9a32cd" stroke="#9a32cd" points="803.81,-41.47 794.48,-46.5 804.91,-48.38 803.81,-41.47"/>
<text text-anchor="middle" x="897" y="-72.04" font-family="Helvetica,sans-Serif" font-size="10.00"> components</text>
</g>
<!-- Node43 -->
<g id="node16" class="node">
<title>Node43</title>
<g id="a_node16"><a xlink:href="structdiscord__sticker__items.html" target="_top" xlink:title=" ">
<polygon fill="none" stroke="red" points="691.5,-8.54 691.5,-27.54 813.5,-27.54 813.5,-8.54 691.5,-8.54"/>
<text text-anchor="middle" x="752.5" y="-15.54" font-family="Helvetica,sans-Serif" font-size="10.00">discord_sticker_items</text>
</a>
</g>
</g>
<!-- Node43&#45;&gt;Node1 -->
<g id="edge23" class="edge">
<title>Node43&#45;&gt;Node1</title>
<path fill="none" stroke="#9a32cd" stroke-dasharray="5,2" d="M798.07,-6.41C841.04,1.93 905.49,6.55 947,-27.04 987.17,-59.53 1008.72,-231.93 1013.48,-274.52"/>
<polygon fill="#9a32cd" stroke="#9a32cd" points="797.25,-3.01 788.17,-8.47 798.68,-9.86 797.25,-3.01"/>
<text text-anchor="middle" x="897" y="-30.04" font-family="Helvetica,sans-Serif" font-size="10.00"> sticker_items</text>
</g>
</g>
</svg>
