<?xml version="1.0" encoding="UTF-8" standalone="no"?>
<!DOCTYPE svg PUBLIC "-//W3C//DTD SVG 1.1//EN"
 "http://www.w3.org/Graphics/SVG/1.1/DTD/svg11.dtd">
<!-- Generated by graphviz version 2.43.0 (0)
 -->
<!-- Title: discord_component Pages: 1 -->
<svg width="240pt" height="162pt"
 viewBox="0.00 0.00 239.50 162.00" xmlns="http://www.w3.org/2000/svg" xmlns:xlink="http://www.w3.org/1999/xlink">
<g id="graph0" class="graph" transform="scale(1 1) rotate(0) translate(4 158)">
<title>discord_component</title>
<!-- Node1 -->
<g id="node1" class="node">
<title>Node1</title>
<g id="a_node1"><a xlink:title=" ">
<polygon fill="#bfbfbf" stroke="black" points="48.5,-67.5 48.5,-86.5 160.5,-86.5 160.5,-67.5 48.5,-67.5"/>
<text text-anchor="middle" x="104.5" y="-74.5" font-family="Helvetica,sans-Serif" font-size="10.00">discord_component</text>
</a>
</g>
</g>
<!-- Node7 -->
<g id="node4" class="node">
<title>Node7</title>
<g id="a_node4"><a xlink:href="structdiscord__components.html" target="_top" xlink:title=" ">
<polygon fill="none" stroke="black" points="46,-0.5 46,-19.5 163,-19.5 163,-0.5 46,-0.5"/>
<text text-anchor="middle" x="104.5" y="-7.5" font-family="Helvetica,sans-Serif" font-size="10.00">discord_components</text>
</a>
</g>
</g>
<!-- Node1&#45;&gt;Node7 -->
<g id="edge4" class="edge">
<title>Node1&#45;&gt;Node7</title>
<path fill="none" stroke="#9a32cd" stroke-dasharray="5,2" d="M83.6,-60.68C80.31,-57.23 77.37,-53.3 75.5,-49 70.6,-37.74 81.06,-26.8 90.75,-19.57"/>
<polygon fill="#9a32cd" stroke="#9a32cd" points="81.34,-63.35 91.13,-67.41 86.01,-58.13 81.34,-63.35"/>
<text text-anchor="middle" x="90" y="-41" font-family="Helvetica,sans-Serif" font-size="10.00"> array</text>
</g>
<!-- Node2 -->
<g id="node2" class="node">
<title>Node2</title>
<g id="a_node2"><a xlink:href="structdiscord__emoji.html" target="_top" xlink:title=" ">
<polygon fill="none" stroke="red" points="0,-134.5 0,-153.5 85,-153.5 85,-134.5 0,-134.5"/>
<text text-anchor="middle" x="42.5" y="-141.5" font-family="Helvetica,sans-Serif" font-size="10.00">discord_emoji</text>
</a>
</g>
</g>
<!-- Node2&#45;&gt;Node1 -->
<g id="edge1" class="edge">
<title>Node2&#45;&gt;Node1</title>
<path fill="none" stroke="#9a32cd" stroke-dasharray="5,2" d="M57.76,-127C69.92,-114.25 86.48,-96.89 96.27,-86.63"/>
<polygon fill="#9a32cd" stroke="#9a32cd" points="55.23,-124.58 50.86,-134.23 60.3,-129.41 55.23,-124.58"/>
<text text-anchor="middle" x="93" y="-108" font-family="Helvetica,sans-Serif" font-size="10.00"> emoji</text>
</g>
<!-- Node5 -->
<g id="node3" class="node">
<title>Node5</title>
<g id="a_node3"><a xlink:href="structdiscord__select__options.html" target="_top" xlink:title=" ">
<polygon fill="none" stroke="red" points="103.5,-134.5 103.5,-153.5 231.5,-153.5 231.5,-134.5 103.5,-134.5"/>
<text text-anchor="middle" x="167.5" y="-141.5" font-family="Helvetica,sans-Serif" font-size="10.00">discord_select_options</text>
</a>
</g>
</g>
<!-- Node5&#45;&gt;Node1 -->
<g id="edge2" class="edge">
<title>Node5&#45;&gt;Node1</title>
<path fill="none" stroke="#9a32cd" stroke-dasharray="5,2" d="M151.99,-127C139.63,-114.25 122.81,-96.89 112.86,-86.63"/>
<polygon fill="#9a32cd" stroke="#9a32cd" points="149.53,-129.49 159,-134.23 154.56,-124.62 149.53,-129.49"/>
<text text-anchor="middle" x="159.5" y="-108" font-family="Helvetica,sans-Serif" font-size="10.00"> options</text>
</g>
<!-- Node7&#45;&gt;Node1 -->
<g id="edge3" class="edge">
<title>Node7&#45;&gt;Node1</title>
<path fill="none" stroke="#9a32cd" stroke-dasharray="5,2" d="M107.81,-29.73C108.53,-35.86 108.96,-42.72 108.5,-49 108.05,-55.05 107.05,-61.8 106.17,-67.04"/>
<polygon fill="#9a32cd" stroke="#9a32cd" points="111.25,-29.11 106.31,-19.74 104.33,-30.15 111.25,-29.11"/>
<text text-anchor="middle" x="141.5" y="-41" font-family="Helvetica,sans-Serif" font-size="10.00"> components</text>
</g>
</g>
</svg>
