<?xml version="1.0" encoding="UTF-8" standalone="no"?>
<!DOCTYPE svg PUBLIC "-//W3C//DTD SVG 1.1//EN"
 "http://www.w3.org/Graphics/SVG/1.1/DTD/svg11.dtd">
<!-- Generated by graphviz version 2.43.0 (0)
 -->
<!-- Title: jsmnf_pair Pages: 1 -->
<svg width="124pt" height="106pt"
 viewBox="0.00 0.00 124.00 106.00" xmlns="http://www.w3.org/2000/svg" xmlns:xlink="http://www.w3.org/1999/xlink">
<g id="graph0" class="graph" transform="scale(1 1) rotate(0) translate(4 102)">
<title>jsmnf_pair</title>
<!-- Node1 -->
<g id="node1" class="node">
<title>Node1</title>
<g id="a_node1"><a xlink:title="JSON object.">
<polygon fill="#bfbfbf" stroke="black" points="0,-0.5 0,-19.5 68,-19.5 68,-0.5 0,-0.5"/>
<text text-anchor="middle" x="34" y="-7.5" font-family="Helvetica,sans-Serif" font-size="10.00">jsmnf_pair</text>
</a>
</g>
</g>
<!-- Node1&#45;&gt;Node1 -->
<g id="edge1" class="edge">
<title>Node1&#45;&gt;Node1</title>
<path fill="none" stroke="#9a32cd" stroke-dasharray="5,2" d="M78.15,-15.96C82.92,-14.82 86,-12.83 86,-10 86,-5.47 78.13,-3.1 68.01,-2.89"/>
<polygon fill="#9a32cd" stroke="#9a32cd" points="77.55,-12.51 68.01,-17.11 78.34,-19.46 77.55,-12.51"/>
<text text-anchor="middle" x="101" y="-7.5" font-family="Helvetica,sans-Serif" font-size="10.00"> fields</text>
</g>
<!-- Node2 -->
<g id="node2" class="node">
<title>Node2</title>
<g id="a_node2"><a xlink:href="structjsmnftok.html" target="_top" xlink:title="JSON token description.">
<polygon fill="none" stroke="black" points="4.5,-78.5 4.5,-97.5 63.5,-97.5 63.5,-78.5 4.5,-78.5"/>
<text text-anchor="middle" x="34" y="-85.5" font-family="Helvetica,sans-Serif" font-size="10.00">jsmnftok</text>
</a>
</g>
</g>
<!-- Node2&#45;&gt;Node1 -->
<g id="edge2" class="edge">
<title>Node2&#45;&gt;Node1</title>
<path fill="none" stroke="#9a32cd" stroke-dasharray="5,2" d="M34,-68.22C34,-52.7 34,-31.36 34,-19.62"/>
<polygon fill="#9a32cd" stroke="#9a32cd" points="30.5,-68.28 34,-78.28 37.5,-68.28 30.5,-68.28"/>
<text text-anchor="middle" x="39" y="-52" font-family="Helvetica,sans-Serif" font-size="10.00"> k</text>
<text text-anchor="middle" x="39" y="-41" font-family="Helvetica,sans-Serif" font-size="10.00">v</text>
</g>
</g>
</svg>
