<?xml version="1.0" encoding="UTF-8" standalone="no"?>
<!DOCTYPE svg PUBLIC "-//W3C//DTD SVG 1.1//EN"
 "http://www.w3.org/Graphics/SVG/1.1/DTD/svg11.dtd">
<!-- Generated by graphviz version 2.43.0 (0)
 -->
<!-- Title: discord_ratelimiter Pages: 1 -->
<svg width="168pt" height="106pt"
 viewBox="0.00 0.00 168.00 106.00" xmlns="http://www.w3.org/2000/svg" xmlns:xlink="http://www.w3.org/1999/xlink">
<g id="graph0" class="graph" transform="scale(1 1) rotate(0) translate(4 102)">
<title>discord_ratelimiter</title>
<!-- Node1 -->
<g id="node1" class="node">
<title>Node1</title>
<g id="a_node1"><a xlink:title="The ratelimiter struct for handling ratelimiting.">
<polygon fill="#bfbfbf" stroke="black" points="16,-0.5 16,-19.5 125,-19.5 125,-0.5 16,-0.5"/>
<text text-anchor="middle" x="70.5" y="-7.5" font-family="Helvetica,sans-Serif" font-size="10.00">discord_ratelimiter</text>
</a>
</g>
</g>
<!-- Node2 -->
<g id="node2" class="node">
<title>Node2</title>
<g id="a_node2"><a xlink:href="structlogconf.html" target="_top" xlink:title="A stackful and modularized wrapper over the popular &#39;log.c&#39; facilities.">
<polygon fill="none" stroke="red" points="0,-78.5 0,-97.5 53,-97.5 53,-78.5 0,-78.5"/>
<text text-anchor="middle" x="26.5" y="-85.5" font-family="Helvetica,sans-Serif" font-size="10.00">logconf</text>
</a>
</g>
</g>
<!-- Node2&#45;&gt;Node1 -->
<g id="edge1" class="edge">
<title>Node2&#45;&gt;Node1</title>
<path fill="none" stroke="#9a32cd" stroke-dasharray="5,2" d="M36.59,-69.57C45.64,-53.95 58.52,-31.7 65.51,-19.62"/>
<polygon fill="#9a32cd" stroke="#9a32cd" points="33.53,-67.87 31.55,-78.28 39.59,-71.38 33.53,-67.87"/>
<text text-anchor="middle" x="67" y="-46.5" font-family="Helvetica,sans-Serif" font-size="10.00"> conf</text>
</g>
<!-- Node7 -->
<g id="node3" class="node">
<title>Node7</title>
<g id="a_node3"><a xlink:href="structdiscord__bucket.html" target="_top" xlink:title="The Discord bucket for handling per&#45;group ratelimits.">
<polygon fill="none" stroke="red" points="71,-78.5 71,-97.5 160,-97.5 160,-78.5 71,-78.5"/>
<text text-anchor="middle" x="115.5" y="-85.5" font-family="Helvetica,sans-Serif" font-size="10.00">discord_bucket</text>
</a>
</g>
</g>
<!-- Node7&#45;&gt;Node1 -->
<g id="edge2" class="edge">
<title>Node7&#45;&gt;Node1</title>
<path fill="none" stroke="#9a32cd" stroke-dasharray="5,2" d="M105.18,-69.57C95.93,-53.95 82.76,-31.7 75.6,-19.62"/>
<polygon fill="#9a32cd" stroke="#9a32cd" points="102.23,-71.46 110.34,-78.28 108.25,-67.89 102.23,-71.46"/>
<text text-anchor="middle" x="111" y="-52" font-family="Helvetica,sans-Serif" font-size="10.00"> miss</text>
<text text-anchor="middle" x="111" y="-41" font-family="Helvetica,sans-Serif" font-size="10.00">null</text>
</g>
</g>
</svg>
