<?xml version="1.0" encoding="UTF-8" standalone="no"?>
<!DOCTYPE svg PUBLIC "-//W3C//DTD SVG 1.1//EN"
 "http://www.w3.org/Graphics/SVG/1.1/DTD/svg11.dtd">
<!-- Generated by graphviz version 2.43.0 (0)
 -->
<!-- Title: discord_message Pages: 1 -->
<svg width="1022pt" height="596pt"
 viewBox="0.00 0.00 1021.50 596.05" xmlns="http://www.w3.org/2000/svg" xmlns:xlink="http://www.w3.org/1999/xlink">
<g id="graph0" class="graph" transform="scale(1 1) rotate(0) translate(4 592.05)">
<title>discord_message</title>
<!-- Node1 -->
<g id="node1" class="node">
<title>Node1</title>
<g id="a_node1"><a xlink:title=" ">
<polygon fill="#bfbfbf" stroke="black" points="910,-275.55 910,-294.55 1011,-294.55 1011,-275.55 910,-275.55"/>
<text text-anchor="middle" x="960.5" y="-282.55" font-family="Helvetica,sans-Serif" font-size="10.00">discord_message</text>
</a>
</g>
</g>
<!-- Node1&#45;&gt;Node1 -->
<g id="edge18" class="edge">
<title>Node1&#45;&gt;Node1</title>
<path fill="none" stroke="#9a32cd" stroke-dasharray="5,2" d="M938.55,-304.08C939.75,-309.18 947.06,-313.05 960.5,-313.05 981.47,-313.05 987.54,-303.62 978.69,-294.81"/>
<polygon fill="#9a32cd" stroke="#9a32cd" points="941.8,-305.39 942.31,-294.81 935.31,-302.76 941.8,-305.39"/>
<text text-anchor="middle" x="960.5" y="-316.05" font-family="Helvetica,sans-Serif" font-size="10.00"> referenced_message</text>
</g>
<!-- Node2 -->
<g id="node2" class="node">
<title>Node2</title>
<g id="a_node2"><a xlink:href="structdiscord__user.html" target="_top" xlink:title=" ">
<polygon fill="none" stroke="black" points="0,-418.55 0,-437.55 78,-437.55 78,-418.55 0,-418.55"/>
<text text-anchor="middle" x="39" y="-425.55" font-family="Helvetica,sans-Serif" font-size="10.00">discord_user</text>
</a>
</g>
</g>
<!-- Node2&#45;&gt;Node1 -->
<g id="edge1" class="edge">
<title>Node2&#45;&gt;Node1</title>
<path fill="none" stroke="#9a32cd" stroke-dasharray="5,2" d="M48.08,-447.1C66.55,-487.29 115.93,-577.05 188.5,-577.05 188.5,-577.05 188.5,-577.05 695.5,-577.05 786.07,-577.05 827.7,-586.83 892,-523.05 958.48,-457.12 960.68,-330.89 959.87,-294.87"/>
<polygon fill="#9a32cd" stroke="#9a32cd" points="51.22,-445.55 43.97,-437.83 44.82,-448.39 51.22,-445.55"/>
<text text-anchor="middle" x="442" y="-580.05" font-family="Helvetica,sans-Serif" font-size="10.00"> author</text>
</g>
<!-- Node3 -->
<g id="node3" class="node">
<title>Node3</title>
<g id="a_node3"><a xlink:href="structdiscord__guild__member.html" target="_top" xlink:title=" ">
<polygon fill="none" stroke="black" points="378,-367.55 378,-386.55 506,-386.55 506,-367.55 378,-367.55"/>
<text text-anchor="middle" x="442" y="-374.55" font-family="Helvetica,sans-Serif" font-size="10.00">discord_guild_member</text>
</a>
</g>
</g>
<!-- Node2&#45;&gt;Node3 -->
<g id="edge3" class="edge">
<title>Node2&#45;&gt;Node3</title>
<path fill="none" stroke="#9a32cd" stroke-dasharray="5,2" d="M84.52,-416.08C103.89,-411.31 126.93,-406.21 148,-403.05 226.79,-391.27 318.36,-384.19 377.87,-380.46"/>
<polygon fill="#9a32cd" stroke="#9a32cd" points="83.6,-412.7 74.75,-418.54 85.3,-419.49 83.6,-412.7"/>
<text text-anchor="middle" x="189.5" y="-406.05" font-family="Helvetica,sans-Serif" font-size="10.00"> user</text>
</g>
<!-- Node5 -->
<g id="node5" class="node">
<title>Node5</title>
<g id="a_node5"><a xlink:href="structdiscord__users.html" target="_top" xlink:title=" ">
<polygon fill="none" stroke="black" points="148,-469.55 148,-488.55 231,-488.55 231,-469.55 148,-469.55"/>
<text text-anchor="middle" x="189.5" y="-476.55" font-family="Helvetica,sans-Serif" font-size="10.00">discord_users</text>
</a>
</g>
</g>
<!-- Node2&#45;&gt;Node5 -->
<g id="edge6" class="edge">
<title>Node2&#45;&gt;Node5</title>
<path fill="none" stroke="#9a32cd" stroke-dasharray="5,2" d="M77.42,-440.91C103.31,-449.8 137.19,-461.43 160.69,-469.5"/>
<polygon fill="#9a32cd" stroke="#9a32cd" points="78.53,-437.58 67.93,-437.65 76.25,-444.2 78.53,-437.58"/>
<text text-anchor="middle" x="113" y="-461.05" font-family="Helvetica,sans-Serif" font-size="10.00"> array</text>
</g>
<!-- Node28 -->
<g id="node12" class="node">
<title>Node28</title>
<g id="a_node12"><a xlink:href="structdiscord__application.html" target="_top" xlink:title=" ">
<polygon fill="none" stroke="red" points="249,-282.55 249,-301.55 360,-301.55 360,-282.55 249,-282.55"/>
<text text-anchor="middle" x="304.5" y="-289.55" font-family="Helvetica,sans-Serif" font-size="10.00">discord_application</text>
</a>
</g>
</g>
<!-- Node2&#45;&gt;Node28 -->
<g id="edge16" class="edge">
<title>Node2&#45;&gt;Node28</title>
<path fill="none" stroke="#9a32cd" stroke-dasharray="5,2" d="M51.71,-409.98C69.22,-384.73 104.83,-339.79 148,-320.05 179.68,-305.57 218.2,-298.57 248.97,-295.18"/>
<polygon fill="#9a32cd" stroke="#9a32cd" points="48.79,-408.06 46.1,-418.31 54.59,-411.97 48.79,-408.06"/>
<text text-anchor="middle" x="113" y="-358.05" font-family="Helvetica,sans-Serif" font-size="10.00"> owner</text>
</g>
<!-- Node35 -->
<g id="node14" class="node">
<title>Node35</title>
<g id="a_node14"><a xlink:href="structdiscord__message__interaction.html" target="_top" xlink:title=" ">
<polygon fill="none" stroke="black" points="615,-398.55 615,-417.55 774,-417.55 774,-398.55 615,-398.55"/>
<text text-anchor="middle" x="694.5" y="-405.55" font-family="Helvetica,sans-Serif" font-size="10.00">discord_message_interaction</text>
</a>
</g>
</g>
<!-- Node2&#45;&gt;Node35 -->
<g id="edge20" class="edge">
<title>Node2&#45;&gt;Node35</title>
<path fill="none" stroke="#9a32cd" stroke-dasharray="5,2" d="M88.77,-426.56C200.99,-423.13 478.3,-414.64 614.89,-410.46"/>
<polygon fill="#9a32cd" stroke="#9a32cd" points="88.33,-423.07 78.44,-426.88 88.54,-430.07 88.33,-423.07"/>
<text text-anchor="middle" x="304.5" y="-424.05" font-family="Helvetica,sans-Serif" font-size="10.00"> user</text>
</g>
<!-- Node3&#45;&gt;Node1 -->
<g id="edge2" class="edge">
<title>Node3&#45;&gt;Node1</title>
<path fill="none" stroke="#9a32cd" stroke-dasharray="5,2" d="M516.57,-375.48C625.91,-372.3 825.54,-363.03 892,-337.05 915.97,-327.68 938.54,-307.03 950.54,-294.76"/>
<polygon fill="#9a32cd" stroke="#9a32cd" points="516.18,-371.99 506.28,-375.77 516.38,-378.98 516.18,-371.99"/>
<text text-anchor="middle" x="694.5" y="-374.05" font-family="Helvetica,sans-Serif" font-size="10.00"> member</text>
</g>
<!-- Node3&#45;&gt;Node35 -->
<g id="edge21" class="edge">
<title>Node3&#45;&gt;Node35</title>
<path fill="none" stroke="#9a32cd" stroke-dasharray="5,2" d="M516.23,-386.12C547.72,-390.01 584.54,-394.57 616.44,-398.52"/>
<polygon fill="#9a32cd" stroke="#9a32cd" points="516.57,-382.63 506.21,-384.88 515.71,-389.58 516.57,-382.63"/>
<text text-anchor="middle" x="560.5" y="-398.05" font-family="Helvetica,sans-Serif" font-size="10.00"> member</text>
</g>
<!-- Node4 -->
<g id="node4" class="node">
<title>Node4</title>
<g id="a_node4"><a xlink:href="structsnowflakes.html" target="_top" xlink:title=" ">
<polygon fill="none" stroke="black" points="154,-329.55 154,-348.55 225,-348.55 225,-329.55 154,-329.55"/>
<text text-anchor="middle" x="189.5" y="-336.55" font-family="Helvetica,sans-Serif" font-size="10.00">snowflakes</text>
</a>
</g>
</g>
<!-- Node4&#45;&gt;Node1 -->
<g id="edge7" class="edge">
<title>Node4&#45;&gt;Node1</title>
<path fill="none" stroke="#9a32cd" stroke-dasharray="5,2" d="M235.59,-339.09C347.34,-338.62 645.89,-334.01 892,-300.05 901.75,-298.71 912.18,-296.69 921.85,-294.56"/>
<polygon fill="#9a32cd" stroke="#9a32cd" points="235.35,-335.59 225.36,-339.12 235.38,-342.59 235.35,-335.59"/>
<text text-anchor="middle" x="560.5" y="-334.05" font-family="Helvetica,sans-Serif" font-size="10.00"> mention_roles</text>
</g>
<!-- Node4&#45;&gt;Node3 -->
<g id="edge4" class="edge">
<title>Node4&#45;&gt;Node3</title>
<path fill="none" stroke="#9a32cd" stroke-dasharray="5,2" d="M235.45,-344.55C269.66,-348.88 317.88,-355.3 360,-362.05 370.31,-363.71 381.32,-365.64 391.81,-367.55"/>
<polygon fill="#9a32cd" stroke="#9a32cd" points="235.67,-341.05 225.31,-343.28 234.79,-348 235.67,-341.05"/>
<text text-anchor="middle" x="304.5" y="-365.05" font-family="Helvetica,sans-Serif" font-size="10.00"> roles</text>
</g>
<!-- Node5&#45;&gt;Node1 -->
<g id="edge5" class="edge">
<title>Node5&#45;&gt;Node1</title>
<path fill="none" stroke="#9a32cd" stroke-dasharray="5,2" d="M232.5,-490.95C238.02,-492.18 243.62,-493.26 249,-494.05 390.37,-514.84 783.28,-582.78 892,-490.05 953.58,-437.53 959.3,-327.7 959.58,-294.66"/>
<polygon fill="#9a32cd" stroke="#9a32cd" points="233.28,-487.53 222.74,-488.61 231.65,-494.34 233.28,-487.53"/>
<text text-anchor="middle" x="560.5" y="-538.05" font-family="Helvetica,sans-Serif" font-size="10.00"> mentions</text>
</g>
<!-- Node7 -->
<g id="node7" class="node">
<title>Node7</title>
<g id="a_node7"><a xlink:href="structdiscord__channel.html" target="_top" xlink:title=" ">
<polygon fill="none" stroke="red" points="394.5,-469.55 394.5,-488.55 489.5,-488.55 489.5,-469.55 394.5,-469.55"/>
<text text-anchor="middle" x="442" y="-476.55" font-family="Helvetica,sans-Serif" font-size="10.00">discord_channel</text>
</a>
</g>
</g>
<!-- Node5&#45;&gt;Node7 -->
<g id="edge10" class="edge">
<title>Node5&#45;&gt;Node7</title>
<path fill="none" stroke="#9a32cd" stroke-dasharray="5,2" d="M241.1,-479.05C285.83,-479.05 350.56,-479.05 394.13,-479.05"/>
<polygon fill="#9a32cd" stroke="#9a32cd" points="241.03,-475.55 231.03,-479.05 241.03,-482.55 241.03,-475.55"/>
<text text-anchor="middle" x="304.5" y="-482.05" font-family="Helvetica,sans-Serif" font-size="10.00"> recipients</text>
</g>
<!-- Node6 -->
<g id="node6" class="node">
<title>Node6</title>
<g id="a_node6"><a xlink:href="structdiscord__channels.html" target="_top" xlink:title=" ">
<polygon fill="none" stroke="black" points="644,-436.55 644,-455.55 745,-455.55 745,-436.55 644,-436.55"/>
<text text-anchor="middle" x="694.5" y="-443.55" font-family="Helvetica,sans-Serif" font-size="10.00">discord_channels</text>
</a>
</g>
</g>
<!-- Node6&#45;&gt;Node1 -->
<g id="edge8" class="edge">
<title>Node6&#45;&gt;Node1</title>
<path fill="none" stroke="#9a32cd" stroke-dasharray="5,2" d="M755.43,-450.92C797.35,-451.27 852.65,-445.28 892,-417.05 935.08,-386.15 952.54,-319.51 957.71,-294.66"/>
<polygon fill="#9a32cd" stroke="#9a32cd" points="755.42,-447.42 745.35,-450.71 755.28,-454.42 755.42,-447.42"/>
<text text-anchor="middle" x="842" y="-451.05" font-family="Helvetica,sans-Serif" font-size="10.00"> mention_channels</text>
</g>
<!-- Node7&#45;&gt;Node1 -->
<g id="edge22" class="edge">
<title>Node7&#45;&gt;Node1</title>
<path fill="none" stroke="#9a32cd" stroke-dasharray="5,2" d="M500.02,-484.67C606.69,-493.95 831.14,-507.39 892,-463.05 948.9,-421.6 957.84,-325.9 959.24,-294.92"/>
<polygon fill="#9a32cd" stroke="#9a32cd" points="500.04,-481.15 489.77,-483.75 499.42,-488.13 500.04,-481.15"/>
<text text-anchor="middle" x="694.5" y="-497.05" font-family="Helvetica,sans-Serif" font-size="10.00"> thread</text>
</g>
<!-- Node7&#45;&gt;Node6 -->
<g id="edge9" class="edge">
<title>Node7&#45;&gt;Node6</title>
<path fill="none" stroke="#9a32cd" stroke-dasharray="5,2" d="M499.82,-470.46C507.93,-469.28 516.18,-468.12 524,-467.05 564.25,-461.58 609.97,-455.95 643.77,-451.9"/>
<polygon fill="#9a32cd" stroke="#9a32cd" points="499.05,-467.04 489.66,-471.95 500.06,-473.96 499.05,-467.04"/>
<text text-anchor="middle" x="560.5" y="-470.05" font-family="Helvetica,sans-Serif" font-size="10.00"> array</text>
</g>
<!-- Node12 -->
<g id="node8" class="node">
<title>Node12</title>
<g id="a_node8"><a xlink:href="structdiscord__attachments.html" target="_top" xlink:title=" ">
<polygon fill="none" stroke="red" points="635,-237.55 635,-256.55 754,-256.55 754,-237.55 635,-237.55"/>
<text text-anchor="middle" x="694.5" y="-244.55" font-family="Helvetica,sans-Serif" font-size="10.00">discord_attachments</text>
</a>
</g>
</g>
<!-- Node12&#45;&gt;Node1 -->
<g id="edge11" class="edge">
<title>Node12&#45;&gt;Node1</title>
<path fill="none" stroke="#9a32cd" stroke-dasharray="5,2" d="M764.58,-246.78C802.55,-247.83 850.28,-251.14 892,-260.05 908.01,-263.47 925.31,-269.94 938.39,-275.44"/>
<polygon fill="#9a32cd" stroke="#9a32cd" points="764.22,-243.27 754.14,-246.54 764.06,-250.27 764.22,-243.27"/>
<text text-anchor="middle" x="842" y="-263.05" font-family="Helvetica,sans-Serif" font-size="10.00"> attachments</text>
</g>
<!-- Node14 -->
<g id="node9" class="node">
<title>Node14</title>
<g id="a_node9"><a xlink:href="structdiscord__embeds.html" target="_top" xlink:title=" ">
<polygon fill="none" stroke="red" points="646.5,-199.55 646.5,-218.55 742.5,-218.55 742.5,-199.55 646.5,-199.55"/>
<text text-anchor="middle" x="694.5" y="-206.55" font-family="Helvetica,sans-Serif" font-size="10.00">discord_embeds</text>
</a>
</g>
</g>
<!-- Node14&#45;&gt;Node1 -->
<g id="edge12" class="edge">
<title>Node14&#45;&gt;Node1</title>
<path fill="none" stroke="#9a32cd" stroke-dasharray="5,2" d="M753.06,-208.63C793.32,-210.17 847.61,-215.97 892,-234.05 915.4,-243.58 937.82,-263.33 950.02,-275.26"/>
<polygon fill="#9a32cd" stroke="#9a32cd" points="752.98,-205.13 742.88,-208.33 752.77,-212.13 752.98,-205.13"/>
<text text-anchor="middle" x="842" y="-237.05" font-family="Helvetica,sans-Serif" font-size="10.00"> embeds</text>
</g>
<!-- Node24 -->
<g id="node10" class="node">
<title>Node24</title>
<g id="a_node10"><a xlink:href="structdiscord__reactions.html" target="_top" xlink:title=" ">
<polygon fill="none" stroke="red" points="643.5,-161.55 643.5,-180.55 745.5,-180.55 745.5,-161.55 643.5,-161.55"/>
<text text-anchor="middle" x="694.5" y="-168.55" font-family="Helvetica,sans-Serif" font-size="10.00">discord_reactions</text>
</a>
</g>
</g>
<!-- Node24&#45;&gt;Node1 -->
<g id="edge13" class="edge">
<title>Node24&#45;&gt;Node1</title>
<path fill="none" stroke="#9a32cd" stroke-dasharray="5,2" d="M755.8,-167.39C796.78,-167.57 850.8,-173.24 892,-197.05 924.34,-215.74 946.43,-256.64 955.23,-275.36"/>
<polygon fill="#9a32cd" stroke="#9a32cd" points="755.66,-163.89 745.68,-167.45 755.7,-170.89 755.66,-163.89"/>
<text text-anchor="middle" x="842" y="-200.05" font-family="Helvetica,sans-Serif" font-size="10.00"> reactions</text>
</g>
<!-- Node27 -->
<g id="node11" class="node">
<title>Node27</title>
<g id="a_node11"><a xlink:href="structdiscord__message__activity.html" target="_top" xlink:title=" ">
<polygon fill="none" stroke="black" points="623,-123.55 623,-142.55 766,-142.55 766,-123.55 623,-123.55"/>
<text text-anchor="middle" x="694.5" y="-130.55" font-family="Helvetica,sans-Serif" font-size="10.00">discord_message_activity</text>
</a>
</g>
</g>
<!-- Node27&#45;&gt;Node1 -->
<g id="edge14" class="edge">
<title>Node27&#45;&gt;Node1</title>
<path fill="none" stroke="#9a32cd" stroke-dasharray="5,2" d="M776.17,-125.35C814.28,-125.66 858.62,-132.13 892,-155.05 935.19,-184.71 952.58,-250.81 957.72,-275.51"/>
<polygon fill="#9a32cd" stroke="#9a32cd" points="776.09,-121.85 766.11,-125.41 776.13,-128.85 776.09,-121.85"/>
<text text-anchor="middle" x="842" y="-158.05" font-family="Helvetica,sans-Serif" font-size="10.00"> activity</text>
</g>
<!-- Node28&#45;&gt;Node1 -->
<g id="edge15" class="edge">
<title>Node28&#45;&gt;Node1</title>
<path fill="none" stroke="#9a32cd" stroke-dasharray="5,2" d="M370.39,-291.36C501.04,-289.96 793.28,-286.83 909.98,-285.58"/>
<polygon fill="#9a32cd" stroke="#9a32cd" points="370.1,-287.86 360.13,-291.47 370.17,-294.86 370.1,-287.86"/>
<text text-anchor="middle" x="560.5" y="-292.05" font-family="Helvetica,sans-Serif" font-size="10.00"> application</text>
</g>
<!-- Node34 -->
<g id="node13" class="node">
<title>Node34</title>
<g id="a_node13"><a xlink:href="structdiscord__message__reference.html" target="_top" xlink:title=" ">
<polygon fill="none" stroke="black" points="618,-85.55 618,-104.55 771,-104.55 771,-85.55 618,-85.55"/>
<text text-anchor="middle" x="694.5" y="-92.55" font-family="Helvetica,sans-Serif" font-size="10.00">discord_message_reference</text>
</a>
</g>
</g>
<!-- Node34&#45;&gt;Node1 -->
<g id="edge17" class="edge">
<title>Node34&#45;&gt;Node1</title>
<path fill="none" stroke="#9a32cd" stroke-dasharray="5,2" d="M757.62,-84.55C799.57,-80.99 854.01,-83.62 892,-112.05 946.98,-153.2 957.2,-245.64 959.08,-275.53"/>
<polygon fill="#9a32cd" stroke="#9a32cd" points="757.13,-81.09 747.52,-85.55 757.82,-88.05 757.13,-81.09"/>
<text text-anchor="middle" x="842" y="-115.05" font-family="Helvetica,sans-Serif" font-size="10.00"> message_reference</text>
</g>
<!-- Node35&#45;&gt;Node1 -->
<g id="edge19" class="edge">
<title>Node35&#45;&gt;Node1</title>
<path fill="none" stroke="#9a32cd" stroke-dasharray="5,2" d="M784.23,-403.78C827.4,-400.32 873.85,-394.11 892,-383.05 926.93,-361.77 948.21,-314.79 956.06,-294.59"/>
<polygon fill="#9a32cd" stroke="#9a32cd" points="783.92,-400.3 774.21,-404.54 784.45,-407.28 783.92,-400.3"/>
<text text-anchor="middle" x="842" y="-405.05" font-family="Helvetica,sans-Serif" font-size="10.00"> interaction</text>
</g>
<!-- Node36 -->
<g id="node15" class="node">
<title>Node36</title>
<g id="a_node15"><a xlink:href="structdiscord__components.html" target="_top" xlink:title=" ">
<polygon fill="none" stroke="red" points="636,-47.55 636,-66.55 753,-66.55 753,-47.55 636,-47.55"/>
<text text-anchor="middle" x="694.5" y="-54.55" font-family="Helvetica,sans-Serif" font-size="10.00">discord_components</text>
</a>
</g>
</g>
<!-- Node36&#45;&gt;Node1 -->
<g id="edge23" class="edge">
<title>Node36&#45;&gt;Node1</title>
<path fill="none" stroke="#9a32cd" stroke-dasharray="5,2" d="M744.76,-45.75C788.13,-38.84 850.65,-36.67 892,-69.05 959.12,-121.62 960.95,-240.27 959.95,-275.2"/>
<polygon fill="#9a32cd" stroke="#9a32cd" points="743.98,-42.33 734.72,-47.49 745.17,-49.23 743.98,-42.33"/>
<text text-anchor="middle" x="842" y="-72.05" font-family="Helvetica,sans-Serif" font-size="10.00"> components</text>
</g>
<!-- Node40 -->
<g id="node16" class="node">
<title>Node40</title>
<g id="a_node16"><a xlink:href="structdiscord__sticker__items.html" target="_top" xlink:title=" ">
<polygon fill="none" stroke="red" points="633.5,-9.55 633.5,-28.55 755.5,-28.55 755.5,-9.55 633.5,-9.55"/>
<text text-anchor="middle" x="694.5" y="-16.55" font-family="Helvetica,sans-Serif" font-size="10.00">discord_sticker_items</text>
</a>
</g>
</g>
<!-- Node40&#45;&gt;Node1 -->
<g id="edge24" class="edge">
<title>Node40&#45;&gt;Node1</title>
<path fill="none" stroke="#9a32cd" stroke-dasharray="5,2" d="M738.84,-7.31C782.43,1.69 849.16,7.44 892,-27.05 932.39,-59.57 953.78,-232.71 958.49,-275.49"/>
<polygon fill="#9a32cd" stroke="#9a32cd" points="737.83,-3.95 728.82,-9.52 739.34,-10.79 737.83,-3.95"/>
<text text-anchor="middle" x="842" y="-30.05" font-family="Helvetica,sans-Serif" font-size="10.00"> sticker_items</text>
</g>
</g>
</svg>
