<?xml version="1.0" encoding="UTF-8" standalone="no"?>
<!DOCTYPE svg PUBLIC "-//W3C//DTD SVG 1.1//EN"
 "http://www.w3.org/Graphics/SVG/1.1/DTD/svg11.dtd">
<!-- Generated by graphviz version 2.43.0 (0)
 -->
<!-- Title: discord_reaction Pages: 1 -->
<svg width="240pt" height="106pt"
 viewBox="0.00 0.00 240.00 106.00" xmlns="http://www.w3.org/2000/svg" xmlns:xlink="http://www.w3.org/1999/xlink">
<g id="graph0" class="graph" transform="scale(1 1) rotate(0) translate(4 102)">
<title>discord_reaction</title>
<!-- Node1 -->
<g id="node1" class="node">
<title>Node1</title>
<g id="a_node1"><a xlink:title=" ">
<polygon fill="#bfbfbf" stroke="black" points="78,-0.5 78,-19.5 175,-19.5 175,-0.5 78,-0.5"/>
<text text-anchor="middle" x="126.5" y="-7.5" font-family="Helvetica,sans-Serif" font-size="10.00">discord_reaction</text>
</a>
</g>
</g>
<!-- Node2 -->
<g id="node2" class="node">
<title>Node2</title>
<g id="a_node2"><a xlink:href="structdiscord__reaction__count__details.html" target="_top" xlink:title=" ">
<polygon fill="none" stroke="black" points="0,-67.5 0,-97.5 129,-97.5 129,-67.5 0,-67.5"/>
<text text-anchor="start" x="8" y="-85.5" font-family="Helvetica,sans-Serif" font-size="10.00">discord_reaction_count</text>
<text text-anchor="middle" x="64.5" y="-74.5" font-family="Helvetica,sans-Serif" font-size="10.00">_details</text>
</a>
</g>
</g>
<!-- Node2&#45;&gt;Node1 -->
<g id="edge1" class="edge">
<title>Node2&#45;&gt;Node1</title>
<path fill="none" stroke="#9a32cd" stroke-dasharray="5,2" d="M81.07,-59.06C86.44,-52.14 92.54,-44.61 98.5,-38 104.29,-31.58 111.29,-24.83 116.84,-19.68"/>
<polygon fill="#9a32cd" stroke="#9a32cd" points="78.01,-57.31 74.74,-67.38 83.58,-61.55 78.01,-57.31"/>
<text text-anchor="middle" x="133" y="-41" font-family="Helvetica,sans-Serif" font-size="10.00"> count_details</text>
</g>
<!-- Node3 -->
<g id="node3" class="node">
<title>Node3</title>
<g id="a_node3"><a xlink:href="structdiscord__emoji.html" target="_top" xlink:title=" ">
<polygon fill="none" stroke="red" points="147,-73 147,-92 232,-92 232,-73 147,-73"/>
<text text-anchor="middle" x="189.5" y="-80" font-family="Helvetica,sans-Serif" font-size="10.00">discord_emoji</text>
</a>
</g>
</g>
<!-- Node3&#45;&gt;Node1 -->
<g id="edge2" class="edge">
<title>Node3&#45;&gt;Node1</title>
<path fill="none" stroke="#9a32cd" stroke-dasharray="5,2" d="M182.88,-63.4C179.22,-55.04 174.07,-45.36 167.5,-38 160.81,-30.49 151.57,-24.17 143.56,-19.54"/>
<polygon fill="#9a32cd" stroke="#9a32cd" points="179.63,-64.71 186.6,-72.7 186.13,-62.11 179.63,-64.71"/>
<text text-anchor="middle" x="190" y="-41" font-family="Helvetica,sans-Serif" font-size="10.00"> emoji</text>
</g>
</g>
</svg>
