<?xml version="1.0" encoding="UTF-8" standalone="no"?>
<!DOCTYPE svg PUBLIC "-//W3C//DTD SVG 1.1//EN"
 "http://www.w3.org/Graphics/SVG/1.1/DTD/svg11.dtd">
<!-- Generated by graphviz version 2.43.0 (0)
 -->
<!-- Title: discord_create_group_dm Pages: 1 -->
<svg width="166pt" height="95pt"
 viewBox="0.00 0.00 165.50 95.00" xmlns="http://www.w3.org/2000/svg" xmlns:xlink="http://www.w3.org/1999/xlink">
<g id="graph0" class="graph" transform="scale(1 1) rotate(0) translate(4 91)">
<title>discord_create_group_dm</title>
<!-- Node1 -->
<g id="node1" class="node">
<title>Node1</title>
<g id="a_node1"><a xlink:title=" ">
<polygon fill="#bfbfbf" stroke="black" points="12.5,-0.5 12.5,-19.5 154.5,-19.5 154.5,-0.5 12.5,-0.5"/>
<text text-anchor="middle" x="83.5" y="-7.5" font-family="Helvetica,sans-Serif" font-size="10.00">discord_create_group_dm</text>
</a>
</g>
</g>
<!-- Node2 -->
<g id="node2" class="node">
<title>Node2</title>
<g id="a_node2"><a xlink:href="structsnowflakes.html" target="_top" xlink:title=" ">
<polygon fill="none" stroke="black" points="0,-67.5 0,-86.5 71,-86.5 71,-67.5 0,-67.5"/>
<text text-anchor="middle" x="35.5" y="-74.5" font-family="Helvetica,sans-Serif" font-size="10.00">snowflakes</text>
</a>
</g>
</g>
<!-- Node2&#45;&gt;Node1 -->
<g id="edge1" class="edge">
<title>Node2&#45;&gt;Node1</title>
<path fill="none" stroke="#9a32cd" stroke-dasharray="5,2" d="M32.4,-57.42C32.21,-50.88 33.08,-43.74 36.5,-38 41.42,-29.76 49.88,-23.8 58.28,-19.61"/>
<polygon fill="#9a32cd" stroke="#9a32cd" points="28.94,-57.92 33.48,-67.49 35.9,-57.18 28.94,-57.92"/>
<text text-anchor="middle" x="73.5" y="-41" font-family="Helvetica,sans-Serif" font-size="10.00"> access_tokens</text>
</g>
<!-- Node3 -->
<g id="node3" class="node">
<title>Node3</title>
<g id="a_node3"><a xlink:href="structstrings.html" target="_top" xlink:title=" ">
<polygon fill="none" stroke="black" points="107.5,-67.5 107.5,-86.5 157.5,-86.5 157.5,-67.5 107.5,-67.5"/>
<text text-anchor="middle" x="132.5" y="-74.5" font-family="Helvetica,sans-Serif" font-size="10.00">strings</text>
</a>
</g>
</g>
<!-- Node3&#45;&gt;Node1 -->
<g id="edge2" class="edge">
<title>Node3&#45;&gt;Node1</title>
<path fill="none" stroke="#9a32cd" stroke-dasharray="5,2" d="M123.64,-58.52C119.94,-51.85 115.37,-44.34 110.5,-38 105.41,-31.38 98.79,-24.73 93.38,-19.69"/>
<polygon fill="#9a32cd" stroke="#9a32cd" points="120.59,-60.25 128.37,-67.45 126.78,-56.98 120.59,-60.25"/>
<text text-anchor="middle" x="132" y="-41" font-family="Helvetica,sans-Serif" font-size="10.00"> nicks</text>
</g>
</g>
</svg>
