<?xml version="1.0" encoding="UTF-8" standalone="no"?>
<!DOCTYPE svg PUBLIC "-//W3C//DTD SVG 1.1//EN"
 "http://www.w3.org/Graphics/SVG/1.1/DTD/svg11.dtd">
<!-- Generated by graphviz version 2.43.0 (0)
 -->
<!-- Title: discord_guild_scheduled_event_user Pages: 1 -->
<svg width="231pt" height="173pt"
 viewBox="0.00 0.00 231.00 173.00" xmlns="http://www.w3.org/2000/svg" xmlns:xlink="http://www.w3.org/1999/xlink">
<g id="graph0" class="graph" transform="scale(1 1) rotate(0) translate(4 169)">
<title>discord_guild_scheduled_event_user</title>
<!-- Node1 -->
<g id="node1" class="node">
<title>Node1</title>
<g id="a_node1"><a xlink:title=" ">
<polygon fill="#bfbfbf" stroke="black" points="0,-0.5 0,-30.5 136,-30.5 136,-0.5 0,-0.5"/>
<text text-anchor="start" x="8" y="-18.5" font-family="Helvetica,sans-Serif" font-size="10.00">discord_guild_scheduled</text>
<text text-anchor="middle" x="68" y="-7.5" font-family="Helvetica,sans-Serif" font-size="10.00">_event_user</text>
</a>
</g>
</g>
<!-- Node2 -->
<g id="node2" class="node">
<title>Node2</title>
<g id="a_node2"><a xlink:href="structdiscord__user.html" target="_top" xlink:title=" ">
<polygon fill="none" stroke="black" points="29,-145.5 29,-164.5 107,-164.5 107,-145.5 29,-145.5"/>
<text text-anchor="middle" x="68" y="-152.5" font-family="Helvetica,sans-Serif" font-size="10.00">discord_user</text>
</a>
</g>
</g>
<!-- Node2&#45;&gt;Node1 -->
<g id="edge1" class="edge">
<title>Node2&#45;&gt;Node1</title>
<path fill="none" stroke="#9a32cd" stroke-dasharray="5,2" d="M65.07,-135.3C63.52,-124.44 61.78,-110.48 61,-98 59.53,-74.33 62.95,-46.86 65.52,-30.62"/>
<polygon fill="#9a32cd" stroke="#9a32cd" points="61.63,-135.93 66.57,-145.3 68.55,-134.89 61.63,-135.93"/>
<text text-anchor="middle" x="73.5" y="-85.5" font-family="Helvetica,sans-Serif" font-size="10.00"> user</text>
</g>
<!-- Node3 -->
<g id="node3" class="node">
<title>Node3</title>
<g id="a_node3"><a xlink:href="structdiscord__guild__member.html" target="_top" xlink:title=" ">
<polygon fill="none" stroke="red" points="95,-78.5 95,-97.5 223,-97.5 223,-78.5 95,-78.5"/>
<text text-anchor="middle" x="159" y="-85.5" font-family="Helvetica,sans-Serif" font-size="10.00">discord_guild_member</text>
</a>
</g>
</g>
<!-- Node2&#45;&gt;Node3 -->
<g id="edge3" class="edge">
<title>Node2&#45;&gt;Node3</title>
<path fill="none" stroke="#9a32cd" stroke-dasharray="5,2" d="M88.41,-139.42C106.4,-126.57 132.01,-108.28 146.92,-97.63"/>
<polygon fill="#9a32cd" stroke="#9a32cd" points="86.38,-136.57 80.27,-145.23 90.44,-142.27 86.38,-136.57"/>
<text text-anchor="middle" x="130.5" y="-119" font-family="Helvetica,sans-Serif" font-size="10.00"> user</text>
</g>
<!-- Node3&#45;&gt;Node1 -->
<g id="edge2" class="edge">
<title>Node3&#45;&gt;Node1</title>
<path fill="none" stroke="#9a32cd" stroke-dasharray="5,2" d="M139.8,-72.13C123.98,-59.87 101.7,-42.61 86.17,-30.58"/>
<polygon fill="#9a32cd" stroke="#9a32cd" points="137.79,-75 147.84,-78.36 142.08,-69.46 137.79,-75"/>
<text text-anchor="middle" x="143.5" y="-52" font-family="Helvetica,sans-Serif" font-size="10.00"> member</text>
</g>
</g>
</svg>
