<?xml version="1.0" encoding="UTF-8" standalone="no"?>
<!DOCTYPE svg PUBLIC "-//W3C//DTD SVG 1.1//EN"
 "http://www.w3.org/Graphics/SVG/1.1/DTD/svg11.dtd">
<!-- Generated by graphviz version 2.43.0 (0)
 -->
<!-- Title: discord_gateway_payload Pages: 1 -->
<svg width="208pt" height="106pt"
 viewBox="0.00 0.00 207.50 106.00" xmlns="http://www.w3.org/2000/svg" xmlns:xlink="http://www.w3.org/1999/xlink">
<g id="graph0" class="graph" transform="scale(1 1) rotate(0) translate(4 102)">
<title>discord_gateway_payload</title>
<!-- Node1 -->
<g id="node1" class="node">
<title>Node1</title>
<g id="a_node1"><a xlink:title="The handle for storing the Discord response payload.">
<polygon fill="#bfbfbf" stroke="black" points="0,-0.5 0,-19.5 143,-19.5 143,-0.5 0,-0.5"/>
<text text-anchor="middle" x="71.5" y="-7.5" font-family="Helvetica,sans-Serif" font-size="10.00">discord_gateway_payload</text>
</a>
</g>
</g>
<!-- Node2 -->
<g id="node2" class="node">
<title>Node2</title>
<g id="a_node2"><a xlink:href="structjsmntok.html" target="_top" xlink:title=" ">
<polygon fill="none" stroke="black" points="9.5,-78.5 9.5,-97.5 65.5,-97.5 65.5,-78.5 9.5,-78.5"/>
<text text-anchor="middle" x="37.5" y="-85.5" font-family="Helvetica,sans-Serif" font-size="10.00">jsmntok</text>
</a>
</g>
</g>
<!-- Node2&#45;&gt;Node1 -->
<g id="edge1" class="edge">
<title>Node2&#45;&gt;Node1</title>
<path fill="none" stroke="#9a32cd" stroke-dasharray="5,2" d="M39.53,-68.31C41.08,-58.85 43.8,-47.42 48.5,-38 51.91,-31.17 57.41,-24.62 62.18,-19.68"/>
<polygon fill="#9a32cd" stroke="#9a32cd" points="36.05,-67.88 38.19,-78.26 42.99,-68.81 36.05,-67.88"/>
<text text-anchor="middle" x="66.5" y="-46.5" font-family="Helvetica,sans-Serif" font-size="10.00"> tokens</text>
</g>
<!-- Node3 -->
<g id="node3" class="node">
<title>Node3</title>
<g id="a_node3"><a xlink:href="structjsmnf__pair.html" target="_top" xlink:title="JSON object.">
<polygon fill="none" stroke="red" points="83.5,-78.5 83.5,-97.5 151.5,-97.5 151.5,-78.5 83.5,-78.5"/>
<text text-anchor="middle" x="117.5" y="-85.5" font-family="Helvetica,sans-Serif" font-size="10.00">jsmnf_pair</text>
</a>
</g>
</g>
<!-- Node3&#45;&gt;Node1 -->
<g id="edge2" class="edge">
<title>Node3&#45;&gt;Node1</title>
<path fill="none" stroke="#9a32cd" stroke-dasharray="5,2" d="M106.95,-69.57C97.5,-53.95 84.03,-31.7 76.72,-19.62"/>
<polygon fill="#9a32cd" stroke="#9a32cd" points="104.05,-71.54 112.22,-78.28 110.04,-67.91 104.05,-71.54"/>
<text text-anchor="middle" x="112" y="-52" font-family="Helvetica,sans-Serif" font-size="10.00"> data</text>
<text text-anchor="middle" x="112" y="-41" font-family="Helvetica,sans-Serif" font-size="10.00">pairs</text>
</g>
<!-- Node3&#45;&gt;Node3 -->
<g id="edge3" class="edge">
<title>Node3&#45;&gt;Node3</title>
<path fill="none" stroke="#9a32cd" stroke-dasharray="5,2" d="M161.65,-93.96C166.42,-92.82 169.5,-90.83 169.5,-88 169.5,-83.47 161.63,-81.1 151.51,-80.89"/>
<polygon fill="#9a32cd" stroke="#9a32cd" points="161.05,-90.51 151.51,-95.11 161.84,-97.46 161.05,-90.51"/>
<text text-anchor="middle" x="184.5" y="-85.5" font-family="Helvetica,sans-Serif" font-size="10.00"> fields</text>
</g>
</g>
</svg>
