<?xml version="1.0" encoding="UTF-8" standalone="no"?>
<!DOCTYPE svg PUBLIC "-//W3C//DTD SVG 1.1//EN"
 "http://www.w3.org/Graphics/SVG/1.1/DTD/svg11.dtd">
<!-- Generated by graphviz version 2.43.0 (0)
 -->
<!-- Title: discord_thread_list_sync Pages: 1 -->
<svg width="357pt" height="95pt"
 viewBox="0.00 0.00 356.50 95.00" xmlns="http://www.w3.org/2000/svg" xmlns:xlink="http://www.w3.org/1999/xlink">
<g id="graph0" class="graph" transform="scale(1 1) rotate(0) translate(4 91)">
<title>discord_thread_list_sync</title>
<!-- Node1 -->
<g id="node1" class="node">
<title>Node1</title>
<g id="a_node1"><a xlink:title=" ">
<polygon fill="#bfbfbf" stroke="black" points="71,-0.5 71,-19.5 208,-19.5 208,-0.5 71,-0.5"/>
<text text-anchor="middle" x="139.5" y="-7.5" font-family="Helvetica,sans-Serif" font-size="10.00">discord_thread_list_sync</text>
</a>
</g>
</g>
<!-- Node2 -->
<g id="node2" class="node">
<title>Node2</title>
<g id="a_node2"><a xlink:href="structsnowflakes.html" target="_top" xlink:title=" ">
<polygon fill="none" stroke="black" points="0,-67.5 0,-86.5 71,-86.5 71,-67.5 0,-67.5"/>
<text text-anchor="middle" x="35.5" y="-74.5" font-family="Helvetica,sans-Serif" font-size="10.00">snowflakes</text>
</a>
</g>
</g>
<!-- Node2&#45;&gt;Node1 -->
<g id="edge1" class="edge">
<title>Node2&#45;&gt;Node1</title>
<path fill="none" stroke="#9a32cd" stroke-dasharray="5,2" d="M49.25,-60.04C56.25,-52.62 65.23,-44.12 74.5,-38 86.23,-30.26 100.54,-24.03 112.74,-19.51"/>
<polygon fill="#9a32cd" stroke="#9a32cd" points="46.62,-57.73 42.51,-67.49 51.82,-62.42 46.62,-57.73"/>
<text text-anchor="middle" x="105" y="-41" font-family="Helvetica,sans-Serif" font-size="10.00"> channel_ids</text>
</g>
<!-- Node3 -->
<g id="node3" class="node">
<title>Node3</title>
<g id="a_node3"><a xlink:href="structdiscord__channels.html" target="_top" xlink:title=" ">
<polygon fill="none" stroke="red" points="89,-67.5 89,-86.5 190,-86.5 190,-67.5 89,-67.5"/>
<text text-anchor="middle" x="139.5" y="-74.5" font-family="Helvetica,sans-Serif" font-size="10.00">discord_channels</text>
</a>
</g>
</g>
<!-- Node3&#45;&gt;Node1 -->
<g id="edge2" class="edge">
<title>Node3&#45;&gt;Node1</title>
<path fill="none" stroke="#9a32cd" stroke-dasharray="5,2" d="M139.5,-57.04C139.5,-44.67 139.5,-29.12 139.5,-19.63"/>
<polygon fill="#9a32cd" stroke="#9a32cd" points="136,-57.23 139.5,-67.23 143,-57.23 136,-57.23"/>
<text text-anchor="middle" x="159.5" y="-41" font-family="Helvetica,sans-Serif" font-size="10.00"> threads</text>
</g>
<!-- Node11 -->
<g id="node4" class="node">
<title>Node11</title>
<g id="a_node4"><a xlink:href="structdiscord__thread__members.html" target="_top" xlink:title=" ">
<polygon fill="none" stroke="red" points="208.5,-67.5 208.5,-86.5 348.5,-86.5 348.5,-67.5 208.5,-67.5"/>
<text text-anchor="middle" x="278.5" y="-74.5" font-family="Helvetica,sans-Serif" font-size="10.00">discord_thread_members</text>
</a>
</g>
</g>
<!-- Node11&#45;&gt;Node1 -->
<g id="edge3" class="edge">
<title>Node11&#45;&gt;Node1</title>
<path fill="none" stroke="#9a32cd" stroke-dasharray="5,2" d="M250.94,-63.11C223.41,-50.24 181.85,-30.81 158.03,-19.67"/>
<polygon fill="#9a32cd" stroke="#9a32cd" points="249.5,-66.3 260.04,-67.37 252.47,-59.96 249.5,-66.3"/>
<text text-anchor="middle" x="241.5" y="-41" font-family="Helvetica,sans-Serif" font-size="10.00"> members</text>
</g>
</g>
</svg>
