<?xml version="1.0" encoding="UTF-8" standalone="no"?>
<!DOCTYPE svg PUBLIC "-//W3C//DTD SVG 1.1//EN"
 "http://www.w3.org/Graphics/SVG/1.1/DTD/svg11.dtd">
<!-- Generated by graphviz version 2.43.0 (0)
 -->
<!-- Title: discord_bulk_overwrite_guild_application_commands Pages: 1 -->
<svg width="236pt" height="128pt"
 viewBox="0.00 0.00 236.00 128.00" xmlns="http://www.w3.org/2000/svg" xmlns:xlink="http://www.w3.org/1999/xlink">
<g id="graph0" class="graph" transform="scale(1 1) rotate(0) translate(4 124)">
<title>discord_bulk_overwrite_guild_application_commands</title>
<!-- Node1 -->
<g id="node1" class="node">
<title>Node1</title>
<g id="a_node1"><a xlink:title=" ">
<polygon fill="#bfbfbf" stroke="black" points="16,-0.5 16,-30.5 180,-30.5 180,-0.5 16,-0.5"/>
<text text-anchor="start" x="24" y="-18.5" font-family="Helvetica,sans-Serif" font-size="10.00">discord_bulk_overwrite</text>
<text text-anchor="middle" x="98" y="-7.5" font-family="Helvetica,sans-Serif" font-size="10.00">_guild_application_commands</text>
</a>
</g>
</g>
<!-- Node2 -->
<g id="node2" class="node">
<title>Node2</title>
<g id="a_node2"><a xlink:href="structstrings.html" target="_top" xlink:title=" ">
<polygon fill="none" stroke="black" points="0,-95 0,-114 50,-114 50,-95 0,-95"/>
<text text-anchor="middle" x="25" y="-102" font-family="Helvetica,sans-Serif" font-size="10.00">strings</text>
</a>
</g>
</g>
<!-- Node2&#45;&gt;Node1 -->
<g id="edge1" class="edge">
<title>Node2&#45;&gt;Node1</title>
<path fill="none" stroke="#9a32cd" stroke-dasharray="5,2" d="M20.64,-84.87C19.08,-73.6 19.13,-59.43 26,-49 31.21,-41.1 38.84,-35.09 47.21,-30.54"/>
<polygon fill="#9a32cd" stroke="#9a32cd" points="17.25,-85.76 22.55,-94.93 24.12,-84.46 17.25,-85.76"/>
<text text-anchor="middle" x="88" y="-63" font-family="Helvetica,sans-Serif" font-size="10.00"> description_localizations</text>
<text text-anchor="middle" x="88" y="-52" font-family="Helvetica,sans-Serif" font-size="10.00">name_localizations</text>
</g>
<!-- Node3 -->
<g id="node3" class="node">
<title>Node3</title>
<g id="a_node3"><a xlink:href="structdiscord__application__command__options.html" target="_top" xlink:title=" ">
<polygon fill="none" stroke="red" points="116,-89.5 116,-119.5 228,-119.5 228,-89.5 116,-89.5"/>
<text text-anchor="start" x="124" y="-107.5" font-family="Helvetica,sans-Serif" font-size="10.00">discord_application</text>
<text text-anchor="middle" x="172" y="-96.5" font-family="Helvetica,sans-Serif" font-size="10.00">_command_options</text>
</a>
</g>
</g>
<!-- Node3&#45;&gt;Node1 -->
<g id="edge2" class="edge">
<title>Node3&#45;&gt;Node1</title>
<path fill="none" stroke="#9a32cd" stroke-dasharray="5,2" d="M165.97,-79.61C162.52,-69.38 157.38,-57.79 150,-49 143.84,-41.66 135.59,-35.46 127.47,-30.51"/>
<polygon fill="#9a32cd" stroke="#9a32cd" points="162.63,-80.67 168.87,-89.24 169.33,-78.65 162.63,-80.67"/>
<text text-anchor="middle" x="182" y="-57.5" font-family="Helvetica,sans-Serif" font-size="10.00"> options</text>
</g>
</g>
</svg>
