<?xml version="1.0" encoding="UTF-8" standalone="no"?>
<!DOCTYPE svg PUBLIC "-//W3C//DTD SVG 1.1//EN"
 "http://www.w3.org/Graphics/SVG/1.1/DTD/svg11.dtd">
<!-- Generated by graphviz version 2.43.0 (0)
 -->
<!-- Title: discord_guild_member_update Pages: 1 -->
<svg width="176pt" height="106pt"
 viewBox="0.00 0.00 175.50 106.00" xmlns="http://www.w3.org/2000/svg" xmlns:xlink="http://www.w3.org/1999/xlink">
<g id="graph0" class="graph" transform="scale(1 1) rotate(0) translate(4 102)">
<title>discord_guild_member_update</title>
<!-- Node1 -->
<g id="node1" class="node">
<title>Node1</title>
<g id="a_node1"><a xlink:title=" ">
<polygon fill="#bfbfbf" stroke="black" points="17.5,-0.5 17.5,-30.5 145.5,-30.5 145.5,-0.5 17.5,-0.5"/>
<text text-anchor="start" x="25.5" y="-18.5" font-family="Helvetica,sans-Serif" font-size="10.00">discord_guild_member</text>
<text text-anchor="middle" x="81.5" y="-7.5" font-family="Helvetica,sans-Serif" font-size="10.00">_update</text>
</a>
</g>
</g>
<!-- Node2 -->
<g id="node2" class="node">
<title>Node2</title>
<g id="a_node2"><a xlink:href="structsnowflakes.html" target="_top" xlink:title=" ">
<polygon fill="none" stroke="black" points="0,-78.5 0,-97.5 71,-97.5 71,-78.5 0,-78.5"/>
<text text-anchor="middle" x="35.5" y="-85.5" font-family="Helvetica,sans-Serif" font-size="10.00">snowflakes</text>
</a>
</g>
</g>
<!-- Node2&#45;&gt;Node1 -->
<g id="edge1" class="edge">
<title>Node2&#45;&gt;Node1</title>
<path fill="none" stroke="#9a32cd" stroke-dasharray="5,2" d="M46.8,-69.68C54.65,-57.65 64.97,-41.83 72.32,-30.58"/>
<polygon fill="#9a32cd" stroke="#9a32cd" points="43.67,-68.07 41.14,-78.36 49.54,-71.89 43.67,-68.07"/>
<text text-anchor="middle" x="74.5" y="-52" font-family="Helvetica,sans-Serif" font-size="10.00"> roles</text>
</g>
<!-- Node3 -->
<g id="node3" class="node">
<title>Node3</title>
<g id="a_node3"><a xlink:href="structdiscord__user.html" target="_top" xlink:title=" ">
<polygon fill="none" stroke="black" points="89.5,-78.5 89.5,-97.5 167.5,-97.5 167.5,-78.5 89.5,-78.5"/>
<text text-anchor="middle" x="128.5" y="-85.5" font-family="Helvetica,sans-Serif" font-size="10.00">discord_user</text>
</a>
</g>
</g>
<!-- Node3&#45;&gt;Node1 -->
<g id="edge2" class="edge">
<title>Node3&#45;&gt;Node1</title>
<path fill="none" stroke="#9a32cd" stroke-dasharray="5,2" d="M116.96,-69.68C108.94,-57.65 98.39,-41.83 90.88,-30.58"/>
<polygon fill="#9a32cd" stroke="#9a32cd" points="114.28,-71.98 122.74,-78.36 120.1,-68.09 114.28,-71.98"/>
<text text-anchor="middle" x="121" y="-52" font-family="Helvetica,sans-Serif" font-size="10.00"> user</text>
</g>
</g>
</svg>
