<?xml version="1.0" encoding="UTF-8" standalone="no"?>
<!DOCTYPE svg PUBLIC "-//W3C//DTD SVG 1.1//EN"
 "http://www.w3.org/Graphics/SVG/1.1/DTD/svg11.dtd">
<!-- Generated by graphviz version 2.43.0 (0)
 -->
<!-- Title: discord_message Pages: 1 -->
<svg width="1044pt" height="706pt"
 viewBox="0.00 0.00 1043.50 706.14" xmlns="http://www.w3.org/2000/svg" xmlns:xlink="http://www.w3.org/1999/xlink">
<g id="graph0" class="graph" transform="scale(1 1) rotate(0) translate(4 702.14)">
<title>discord_message</title>
<!-- Node1 -->
<g id="node1" class="node">
<title>Node1</title>
<g id="a_node1"><a xlink:title=" ">
<polygon fill="#bfbfbf" stroke="black" points="932,-336.64 932,-355.64 1033,-355.64 1033,-336.64 932,-336.64"/>
<text text-anchor="middle" x="982.5" y="-343.64" font-family="Helvetica,sans-Serif" font-size="10.00">discord_message</text>
</a>
</g>
</g>
<!-- Node1&#45;&gt;Node1 -->
<g id="edge19" class="edge">
<title>Node1&#45;&gt;Node1</title>
<path fill="none" stroke="#9a32cd" stroke-dasharray="5,2" d="M959.43,-365.17C960.69,-370.27 968.38,-374.14 982.5,-374.14 1004.54,-374.14 1010.91,-364.7 1001.61,-355.9"/>
<polygon fill="#9a32cd" stroke="#9a32cd" points="962.69,-366.47 963.39,-355.9 956.25,-363.72 962.69,-366.47"/>
<text text-anchor="middle" x="982.5" y="-377.14" font-family="Helvetica,sans-Serif" font-size="10.00"> referenced_message</text>
</g>
<!-- Node2 -->
<g id="node2" class="node">
<title>Node2</title>
<g id="a_node2"><a xlink:href="structdiscord__user.html" target="_top" xlink:title=" ">
<polygon fill="none" stroke="black" points="0,-586.64 0,-605.64 78,-605.64 78,-586.64 0,-586.64"/>
<text text-anchor="middle" x="39" y="-593.64" font-family="Helvetica,sans-Serif" font-size="10.00">discord_user</text>
</a>
</g>
</g>
<!-- Node2&#45;&gt;Node1 -->
<g id="edge1" class="edge">
<title>Node2&#45;&gt;Node1</title>
<path fill="none" stroke="#9a32cd" stroke-dasharray="5,2" d="M55.07,-613.31C79.99,-639.68 132.6,-687.14 188.5,-687.14 188.5,-687.14 188.5,-687.14 699.5,-687.14 796.02,-687.14 843.76,-719.34 914,-653.14 958.98,-610.75 977.21,-403.05 980.81,-355.74"/>
<polygon fill="#9a32cd" stroke="#9a32cd" points="57.6,-610.88 48.26,-605.88 52.44,-615.61 57.6,-610.88"/>
<text text-anchor="middle" x="442" y="-690.14" font-family="Helvetica,sans-Serif" font-size="10.00"> author</text>
</g>
<!-- Node3 -->
<g id="node3" class="node">
<title>Node3</title>
<g id="a_node3"><a xlink:href="structdiscord__guild__member.html" target="_top" xlink:title=" ">
<polygon fill="none" stroke="black" points="378,-587.64 378,-606.64 506,-606.64 506,-587.64 378,-587.64"/>
<text text-anchor="middle" x="442" y="-594.64" font-family="Helvetica,sans-Serif" font-size="10.00">discord_guild_member</text>
</a>
</g>
</g>
<!-- Node2&#45;&gt;Node3 -->
<g id="edge3" class="edge">
<title>Node2&#45;&gt;Node3</title>
<path fill="none" stroke="#9a32cd" stroke-dasharray="5,2" d="M88.29,-596.26C160.68,-596.44 297.41,-596.78 377.71,-596.98"/>
<polygon fill="#9a32cd" stroke="#9a32cd" points="88.1,-592.76 78.09,-596.23 88.08,-599.76 88.1,-592.76"/>
<text text-anchor="middle" x="189.5" y="-599.14" font-family="Helvetica,sans-Serif" font-size="10.00"> user</text>
</g>
<!-- Node5 -->
<g id="node5" class="node">
<title>Node5</title>
<g id="a_node5"><a xlink:href="structdiscord__users.html" target="_top" xlink:title=" ">
<polygon fill="none" stroke="black" points="148,-471.64 148,-490.64 231,-490.64 231,-471.64 148,-471.64"/>
<text text-anchor="middle" x="189.5" y="-478.64" font-family="Helvetica,sans-Serif" font-size="10.00">discord_users</text>
</a>
</g>
</g>
<!-- Node2&#45;&gt;Node5 -->
<g id="edge6" class="edge">
<title>Node2&#45;&gt;Node5</title>
<path fill="none" stroke="#9a32cd" stroke-dasharray="5,2" d="M60.42,-580.33C91.58,-556.2 150.09,-510.89 175.81,-490.96"/>
<polygon fill="#9a32cd" stroke="#9a32cd" points="58.17,-577.64 52.41,-586.53 62.46,-583.18 58.17,-577.64"/>
<text text-anchor="middle" x="113" y="-555.14" font-family="Helvetica,sans-Serif" font-size="10.00"> array</text>
</g>
<!-- Node32 -->
<g id="node12" class="node">
<title>Node32</title>
<g id="a_node12"><a xlink:href="structdiscord__application.html" target="_top" xlink:title=" ">
<polygon fill="none" stroke="red" points="249,-229.64 249,-248.64 360,-248.64 360,-229.64 249,-229.64"/>
<text text-anchor="middle" x="304.5" y="-236.64" font-family="Helvetica,sans-Serif" font-size="10.00">discord_application</text>
</a>
</g>
</g>
<!-- Node2&#45;&gt;Node32 -->
<g id="edge17" class="edge">
<title>Node2&#45;&gt;Node32</title>
<path fill="none" stroke="#9a32cd" stroke-dasharray="5,2" d="M48.79,-577.32C74.03,-524.71 151.24,-373.55 249,-275.14 259.63,-264.44 273.92,-255.14 285.21,-248.68"/>
<polygon fill="#9a32cd" stroke="#9a32cd" points="45.57,-575.95 44.44,-586.48 51.89,-578.95 45.57,-575.95"/>
<text text-anchor="middle" x="113" y="-489.14" font-family="Helvetica,sans-Serif" font-size="10.00"> owner</text>
</g>
<!-- Node39 -->
<g id="node14" class="node">
<title>Node39</title>
<g id="a_node14"><a xlink:href="structdiscord__message__interaction.html" target="_top" xlink:title=" ">
<polygon fill="none" stroke="black" points="619,-592.64 619,-611.64 778,-611.64 778,-592.64 619,-592.64"/>
<text text-anchor="middle" x="698.5" y="-599.64" font-family="Helvetica,sans-Serif" font-size="10.00">discord_message_interaction</text>
</a>
</g>
</g>
<!-- Node2&#45;&gt;Node39 -->
<g id="edge21" class="edge">
<title>Node2&#45;&gt;Node39</title>
<path fill="none" stroke="#9a32cd" stroke-dasharray="5,2" d="M83,-607.92C87.36,-608.8 91.75,-609.57 96,-610.14 276.63,-634.33 323.88,-622.79 506,-616.14 543.14,-614.78 584.26,-611.95 618.84,-609.19"/>
<polygon fill="#9a32cd" stroke="#9a32cd" points="83.45,-604.43 72.93,-605.67 81.93,-611.26 83.45,-604.43"/>
<text text-anchor="middle" x="304.5" y="-627.14" font-family="Helvetica,sans-Serif" font-size="10.00"> user</text>
</g>
<!-- Node3&#45;&gt;Node1 -->
<g id="edge2" class="edge">
<title>Node3&#45;&gt;Node1</title>
<path fill="none" stroke="#9a32cd" stroke-dasharray="5,2" d="M494.59,-608.89C603.11,-632.31 850.27,-678.42 914,-628.14 958.56,-592.98 976.99,-400.96 980.75,-355.7"/>
<polygon fill="#9a32cd" stroke="#9a32cd" points="495.04,-605.41 484.53,-606.7 493.55,-612.25 495.04,-605.41"/>
<text text-anchor="middle" x="698.5" y="-652.14" font-family="Helvetica,sans-Serif" font-size="10.00"> member</text>
</g>
<!-- Node3&#45;&gt;Node39 -->
<g id="edge22" class="edge">
<title>Node3&#45;&gt;Node39</title>
<path fill="none" stroke="#9a32cd" stroke-dasharray="5,2" d="M516.64,-597.12C542.1,-597.24 570.81,-597.53 597,-598.14 604.07,-598.3 611.42,-598.52 618.78,-598.76"/>
<polygon fill="#9a32cd" stroke="#9a32cd" points="516.33,-593.62 506.32,-597.08 516.3,-600.62 516.33,-593.62"/>
<text text-anchor="middle" x="560.5" y="-601.14" font-family="Helvetica,sans-Serif" font-size="10.00"> member</text>
</g>
<!-- Node4 -->
<g id="node4" class="node">
<title>Node4</title>
<g id="a_node4"><a xlink:href="structsnowflakes.html" target="_top" xlink:title=" ">
<polygon fill="none" stroke="black" points="154,-531.64 154,-550.64 225,-550.64 225,-531.64 154,-531.64"/>
<text text-anchor="middle" x="189.5" y="-538.64" font-family="Helvetica,sans-Serif" font-size="10.00">snowflakes</text>
</a>
</g>
</g>
<!-- Node4&#45;&gt;Node1 -->
<g id="edge7" class="edge">
<title>Node4&#45;&gt;Node1</title>
<path fill="none" stroke="#9a32cd" stroke-dasharray="5,2" d="M235.32,-544.68C384.69,-556.05 859.16,-588.7 914,-549.14 979.06,-502.21 982.39,-389.96 981.84,-356.02"/>
<polygon fill="#9a32cd" stroke="#9a32cd" points="235.38,-541.17 225.14,-543.9 234.84,-548.15 235.38,-541.17"/>
<text text-anchor="middle" x="560.5" y="-568.14" font-family="Helvetica,sans-Serif" font-size="10.00"> mention_roles</text>
</g>
<!-- Node4&#45;&gt;Node3 -->
<g id="edge4" class="edge">
<title>Node4&#45;&gt;Node3</title>
<path fill="none" stroke="#9a32cd" stroke-dasharray="5,2" d="M235.14,-549.74C277.09,-557.89 336.79,-569.67 360,-575.14 375.74,-578.85 393.06,-583.48 407.63,-587.53"/>
<polygon fill="#9a32cd" stroke="#9a32cd" points="235.64,-546.27 225.16,-547.81 234.31,-553.15 235.64,-546.27"/>
<text text-anchor="middle" x="304.5" y="-578.14" font-family="Helvetica,sans-Serif" font-size="10.00"> roles</text>
</g>
<!-- Node7 -->
<g id="node7" class="node">
<title>Node7</title>
<g id="a_node7"><a xlink:href="structdiscord__channel.html" target="_top" xlink:title=" ">
<polygon fill="none" stroke="red" points="394.5,-486.64 394.5,-505.64 489.5,-505.64 489.5,-486.64 394.5,-486.64"/>
<text text-anchor="middle" x="442" y="-493.64" font-family="Helvetica,sans-Serif" font-size="10.00">discord_channel</text>
</a>
</g>
</g>
<!-- Node4&#45;&gt;Node7 -->
<g id="edge11" class="edge">
<title>Node4&#45;&gt;Node7</title>
<path fill="none" stroke="#9a32cd" stroke-dasharray="5,2" d="M218.32,-527.23C227.84,-523.03 238.68,-518.82 249,-516.14 297.5,-503.56 354.83,-498.85 394.14,-497.11"/>
<polygon fill="#9a32cd" stroke="#9a32cd" points="216.58,-524.18 208.96,-531.55 219.51,-530.54 216.58,-524.18"/>
<text text-anchor="middle" x="304.5" y="-519.14" font-family="Helvetica,sans-Serif" font-size="10.00"> applied_tags</text>
</g>
<!-- Node5&#45;&gt;Node1 -->
<g id="edge5" class="edge">
<title>Node5&#45;&gt;Node1</title>
<path fill="none" stroke="#9a32cd" stroke-dasharray="5,2" d="M216.18,-466.5C280.67,-430.7 455.66,-339.36 615,-308.14 745.6,-282.55 784.07,-295.38 914,-324.14 928.2,-327.28 943.65,-332.2 956.18,-336.59"/>
<polygon fill="#9a32cd" stroke="#9a32cd" points="214.16,-463.62 207.14,-471.56 217.58,-469.73 214.16,-463.62"/>
<text text-anchor="middle" x="560.5" y="-333.14" font-family="Helvetica,sans-Serif" font-size="10.00"> mentions</text>
</g>
<!-- Node5&#45;&gt;Node7 -->
<g id="edge10" class="edge">
<title>Node5&#45;&gt;Node7</title>
<path fill="none" stroke="#9a32cd" stroke-dasharray="5,2" d="M241.08,-479.26C274.83,-478.54 320.15,-478.6 360,-482.14 371.23,-483.14 383.24,-484.85 394.49,-486.75"/>
<polygon fill="#9a32cd" stroke="#9a32cd" points="240.91,-475.76 231,-479.5 241.08,-482.76 240.91,-475.76"/>
<text text-anchor="middle" x="304.5" y="-485.14" font-family="Helvetica,sans-Serif" font-size="10.00"> recipients</text>
</g>
<!-- Node6 -->
<g id="node6" class="node">
<title>Node6</title>
<g id="a_node6"><a xlink:href="structdiscord__channels.html" target="_top" xlink:title=" ">
<polygon fill="none" stroke="black" points="648,-516.64 648,-535.64 749,-535.64 749,-516.64 648,-516.64"/>
<text text-anchor="middle" x="698.5" y="-523.64" font-family="Helvetica,sans-Serif" font-size="10.00">discord_channels</text>
</a>
</g>
</g>
<!-- Node6&#45;&gt;Node1 -->
<g id="edge8" class="edge">
<title>Node6&#45;&gt;Node1</title>
<path fill="none" stroke="#9a32cd" stroke-dasharray="5,2" d="M759.52,-534.29C806.08,-537.31 869.9,-533.84 914,-501.14 963.51,-464.43 977.21,-383.64 980.54,-355.8"/>
<polygon fill="#9a32cd" stroke="#9a32cd" points="759.5,-530.78 749.26,-533.51 758.97,-537.76 759.5,-530.78"/>
<text text-anchor="middle" x="857" y="-537.14" font-family="Helvetica,sans-Serif" font-size="10.00"> mention_channels</text>
</g>
<!-- Node7&#45;&gt;Node1 -->
<g id="edge23" class="edge">
<title>Node7&#45;&gt;Node1</title>
<path fill="none" stroke="#9a32cd" stroke-dasharray="5,2" d="M499.72,-496.79C609.4,-497.09 845.79,-492.71 914,-451.14 951.01,-428.58 971.39,-377.18 978.54,-355.78"/>
<polygon fill="#9a32cd" stroke="#9a32cd" points="499.52,-493.29 489.51,-496.75 499.49,-500.29 499.52,-493.29"/>
<text text-anchor="middle" x="698.5" y="-498.14" font-family="Helvetica,sans-Serif" font-size="10.00"> thread</text>
</g>
<!-- Node7&#45;&gt;Node6 -->
<g id="edge9" class="edge">
<title>Node7&#45;&gt;Node6</title>
<path fill="none" stroke="#9a32cd" stroke-dasharray="5,2" d="M499.72,-502.83C544.08,-508.05 605.14,-515.25 647.64,-520.26"/>
<polygon fill="#9a32cd" stroke="#9a32cd" points="500.02,-499.34 489.68,-501.64 499.2,-506.29 500.02,-499.34"/>
<text text-anchor="middle" x="560.5" y="-516.14" font-family="Helvetica,sans-Serif" font-size="10.00"> array</text>
</g>
<!-- Node15 -->
<g id="node8" class="node">
<title>Node15</title>
<g id="a_node8"><a xlink:href="structdiscord__attachments.html" target="_top" xlink:title=" ">
<polygon fill="none" stroke="red" points="639,-431.64 639,-450.64 758,-450.64 758,-431.64 639,-431.64"/>
<text text-anchor="middle" x="698.5" y="-438.64" font-family="Helvetica,sans-Serif" font-size="10.00">discord_attachments</text>
</a>
</g>
</g>
<!-- Node15&#45;&gt;Node1 -->
<g id="edge12" class="edge">
<title>Node15&#45;&gt;Node1</title>
<path fill="none" stroke="#9a32cd" stroke-dasharray="5,2" d="M768.38,-440.17C811.98,-437.2 868.5,-428.9 914,-407.14 939.65,-394.87 962.6,-369.7 973.97,-355.83"/>
<polygon fill="#9a32cd" stroke="#9a32cd" points="767.93,-436.69 758.15,-440.78 768.35,-443.68 767.93,-436.69"/>
<text text-anchor="middle" x="857" y="-439.14" font-family="Helvetica,sans-Serif" font-size="10.00"> attachments</text>
</g>
<!-- Node17 -->
<g id="node9" class="node">
<title>Node17</title>
<g id="a_node9"><a xlink:href="structdiscord__embeds.html" target="_top" xlink:title=" ">
<polygon fill="none" stroke="red" points="650.5,-393.64 650.5,-412.64 746.5,-412.64 746.5,-393.64 650.5,-393.64"/>
<text text-anchor="middle" x="698.5" y="-400.64" font-family="Helvetica,sans-Serif" font-size="10.00">discord_embeds</text>
</a>
</g>
</g>
<!-- Node17&#45;&gt;Node1 -->
<g id="edge13" class="edge">
<title>Node17&#45;&gt;Node1</title>
<path fill="none" stroke="#9a32cd" stroke-dasharray="5,2" d="M756.68,-398.39C800.3,-393.93 861.59,-385.83 914,-372.14 929.92,-367.98 947.22,-361.27 960.32,-355.71"/>
<polygon fill="#9a32cd" stroke="#9a32cd" points="756.15,-394.93 746.55,-399.4 756.84,-401.89 756.15,-394.93"/>
<text text-anchor="middle" x="857" y="-395.14" font-family="Helvetica,sans-Serif" font-size="10.00"> embeds</text>
</g>
<!-- Node27 -->
<g id="node10" class="node">
<title>Node27</title>
<g id="a_node10"><a xlink:href="structdiscord__reactions.html" target="_top" xlink:title=" ">
<polygon fill="none" stroke="red" points="647.5,-355.64 647.5,-374.64 749.5,-374.64 749.5,-355.64 647.5,-355.64"/>
<text text-anchor="middle" x="698.5" y="-362.64" font-family="Helvetica,sans-Serif" font-size="10.00">discord_reactions</text>
</a>
</g>
</g>
<!-- Node27&#45;&gt;Node1 -->
<g id="edge14" class="edge">
<title>Node27&#45;&gt;Node1</title>
<path fill="none" stroke="#9a32cd" stroke-dasharray="5,2" d="M759.87,-361.07C811.17,-357.62 883.91,-352.71 931.88,-349.48"/>
<polygon fill="#9a32cd" stroke="#9a32cd" points="759.33,-357.6 749.59,-361.76 759.8,-364.58 759.33,-357.6"/>
<text text-anchor="middle" x="857" y="-360.14" font-family="Helvetica,sans-Serif" font-size="10.00"> reactions</text>
</g>
<!-- Node31 -->
<g id="node11" class="node">
<title>Node31</title>
<g id="a_node11"><a xlink:href="structdiscord__message__activity.html" target="_top" xlink:title=" ">
<polygon fill="none" stroke="black" points="627,-317.64 627,-336.64 770,-336.64 770,-317.64 627,-317.64"/>
<text text-anchor="middle" x="698.5" y="-324.64" font-family="Helvetica,sans-Serif" font-size="10.00">discord_message_activity</text>
</a>
</g>
</g>
<!-- Node31&#45;&gt;Node1 -->
<g id="edge15" class="edge">
<title>Node31&#45;&gt;Node1</title>
<path fill="none" stroke="#9a32cd" stroke-dasharray="5,2" d="M780.21,-327.78C820.49,-328.7 869.9,-330.74 914,-335.14 919.79,-335.72 925.84,-336.48 931.83,-337.33"/>
<polygon fill="#9a32cd" stroke="#9a32cd" points="780.25,-324.28 770.18,-327.57 780.1,-331.28 780.25,-324.28"/>
<text text-anchor="middle" x="857" y="-338.14" font-family="Helvetica,sans-Serif" font-size="10.00"> activity</text>
</g>
<!-- Node32&#45;&gt;Node1 -->
<g id="edge16" class="edge">
<title>Node32&#45;&gt;Node1</title>
<path fill="none" stroke="#9a32cd" stroke-dasharray="5,2" d="M370.01,-230.8C507.3,-214.33 823.27,-183.55 914,-236.14 953.16,-258.84 972.55,-314.2 978.98,-336.55"/>
<polygon fill="#9a32cd" stroke="#9a32cd" points="369.55,-227.33 360.05,-232.01 370.39,-234.28 369.55,-227.33"/>
<text text-anchor="middle" x="560.5" y="-217.14" font-family="Helvetica,sans-Serif" font-size="10.00"> application</text>
</g>
<!-- Node38 -->
<g id="node13" class="node">
<title>Node38</title>
<g id="a_node13"><a xlink:href="structdiscord__message__reference.html" target="_top" xlink:title=" ">
<polygon fill="none" stroke="black" points="622,-241.64 622,-260.64 775,-260.64 775,-241.64 622,-241.64"/>
<text text-anchor="middle" x="698.5" y="-248.64" font-family="Helvetica,sans-Serif" font-size="10.00">discord_message_reference</text>
</a>
</g>
</g>
<!-- Node38&#45;&gt;Node1 -->
<g id="edge18" class="edge">
<title>Node38&#45;&gt;Node1</title>
<path fill="none" stroke="#9a32cd" stroke-dasharray="5,2" d="M780.53,-241.13C822.49,-239.53 873.31,-243.4 914,-264.14 945.71,-280.3 967.97,-318.7 977.01,-336.62"/>
<polygon fill="#9a32cd" stroke="#9a32cd" points="780.16,-237.64 770.35,-241.63 780.51,-244.63 780.16,-237.64"/>
<text text-anchor="middle" x="857" y="-267.14" font-family="Helvetica,sans-Serif" font-size="10.00"> message_reference</text>
</g>
<!-- Node39&#45;&gt;Node1 -->
<g id="edge20" class="edge">
<title>Node39&#45;&gt;Node1</title>
<path fill="none" stroke="#9a32cd" stroke-dasharray="5,2" d="M765.85,-612.55C812.48,-615.99 873.53,-612.19 914,-578.14 949.63,-548.16 974.22,-395.71 980.13,-355.74"/>
<polygon fill="#9a32cd" stroke="#9a32cd" points="766.1,-609.05 755.83,-611.68 765.49,-616.03 766.1,-609.05"/>
<text text-anchor="middle" x="857" y="-616.14" font-family="Helvetica,sans-Serif" font-size="10.00"> interaction</text>
</g>
<!-- Node40 -->
<g id="node15" class="node">
<title>Node40</title>
<g id="a_node15"><a xlink:href="structdiscord__components.html" target="_top" xlink:title=" ">
<polygon fill="none" stroke="red" points="640,-165.64 640,-184.64 757,-184.64 757,-165.64 640,-165.64"/>
<text text-anchor="middle" x="698.5" y="-172.64" font-family="Helvetica,sans-Serif" font-size="10.00">discord_components</text>
</a>
</g>
</g>
<!-- Node40&#45;&gt;Node1 -->
<g id="edge24" class="edge">
<title>Node40&#45;&gt;Node1</title>
<path fill="none" stroke="#9a32cd" stroke-dasharray="5,2" d="M751.56,-164.01C798.37,-157.08 866.83,-154.91 914,-188.14 965.45,-224.39 977.94,-308.22 980.75,-336.57"/>
<polygon fill="#9a32cd" stroke="#9a32cd" points="750.94,-160.57 741.62,-165.6 752.05,-167.48 750.94,-160.57"/>
<text text-anchor="middle" x="857" y="-191.14" font-family="Helvetica,sans-Serif" font-size="10.00"> components</text>
</g>
<!-- Node47 -->
<g id="node16" class="node">
<title>Node47</title>
<g id="a_node16"><a xlink:href="structdiscord__sticker__items.html" target="_top" xlink:title=" ">
<polygon fill="none" stroke="red" points="637.5,-127.64 637.5,-146.64 759.5,-146.64 759.5,-127.64 637.5,-127.64"/>
<text text-anchor="middle" x="698.5" y="-134.64" font-family="Helvetica,sans-Serif" font-size="10.00">discord_sticker_items</text>
</a>
</g>
</g>
<!-- Node47&#45;&gt;Node1 -->
<g id="edge25" class="edge">
<title>Node47&#45;&gt;Node1</title>
<path fill="none" stroke="#9a32cd" stroke-dasharray="5,2" d="M743.36,-125.39C790.4,-115.59 864.92,-108.44 914,-145.14 977.68,-192.75 981.95,-303.11 981.74,-336.44"/>
<polygon fill="#9a32cd" stroke="#9a32cd" points="742.48,-122 733.47,-127.58 743.99,-128.84 742.48,-122"/>
<text text-anchor="middle" x="857" y="-148.14" font-family="Helvetica,sans-Serif" font-size="10.00"> sticker_items</text>
</g>
<!-- Node49 -->
<g id="node17" class="node">
<title>Node49</title>
<g id="a_node17"><a xlink:href="structdiscord__stickers.html" target="_top" xlink:title=" ">
<polygon fill="none" stroke="red" points="651,-89.64 651,-108.64 746,-108.64 746,-89.64 651,-89.64"/>
<text text-anchor="middle" x="698.5" y="-96.64" font-family="Helvetica,sans-Serif" font-size="10.00">discord_stickers</text>
</a>
</g>
</g>
<!-- Node49&#45;&gt;Node1 -->
<g id="edge26" class="edge">
<title>Node49&#45;&gt;Node1</title>
<path fill="none" stroke="#9a32cd" stroke-dasharray="5,2" d="M756.42,-92.79C811.59,-87.93 890.3,-84.78 914,-103.14 952.59,-133.04 975.17,-295.24 980.35,-336.56"/>
<polygon fill="#9a32cd" stroke="#9a32cd" points="756.05,-89.31 746.41,-93.72 756.69,-96.28 756.05,-89.31"/>
<text text-anchor="middle" x="857" y="-106.14" font-family="Helvetica,sans-Serif" font-size="10.00"> stickers</text>
</g>
<!-- Node51 -->
<g id="node18" class="node">
<title>Node51</title>
<g id="a_node18"><a xlink:href="structdiscord__role__subscription__data.html" target="_top" xlink:title=" ">
<polygon fill="none" stroke="black" points="615,-51.64 615,-70.64 782,-70.64 782,-51.64 615,-51.64"/>
<text text-anchor="middle" x="698.5" y="-58.64" font-family="Helvetica,sans-Serif" font-size="10.00">discord_role_subscription_data</text>
</a>
</g>
</g>
<!-- Node51&#45;&gt;Node1 -->
<g id="edge27" class="edge">
<title>Node51&#45;&gt;Node1</title>
<path fill="none" stroke="#9a32cd" stroke-dasharray="5,2" d="M745.73,-49.57C793.47,-40.58 867.38,-35.34 914,-74.14 955.98,-109.07 976.24,-291.92 980.59,-336.39"/>
<polygon fill="#9a32cd" stroke="#9a32cd" points="744.78,-46.19 735.66,-51.59 746.16,-53.05 744.78,-46.19"/>
<text text-anchor="middle" x="857" y="-77.14" font-family="Helvetica,sans-Serif" font-size="10.00"> role_subscription_data</text>
</g>
<!-- Node52 -->
<g id="node19" class="node">
<title>Node52</title>
<g id="a_node19"><a xlink:href="structdiscord__resolved__data.html" target="_top" xlink:title=" ">
<polygon fill="none" stroke="black" points="635.5,-13.64 635.5,-32.64 761.5,-32.64 761.5,-13.64 635.5,-13.64"/>
<text text-anchor="middle" x="698.5" y="-20.64" font-family="Helvetica,sans-Serif" font-size="10.00">discord_resolved_data</text>
</a>
</g>
</g>
<!-- Node52&#45;&gt;Node1 -->
<g id="edge28" class="edge">
<title>Node52&#45;&gt;Node1</title>
<path fill="none" stroke="#9a32cd" stroke-dasharray="5,2" d="M739.36,-11C786.69,0.74 865.33,11.4 914,-29.14 963.07,-70.01 978.19,-287.65 980.99,-336.43"/>
<polygon fill="#9a32cd" stroke="#9a32cd" points="738.26,-7.67 729.47,-13.58 740.03,-14.44 738.26,-7.67"/>
<text text-anchor="middle" x="857" y="-32.14" font-family="Helvetica,sans-Serif" font-size="10.00"> resolved</text>
</g>
</g>
</svg>
