<?xml version="1.0" encoding="UTF-8" standalone="no"?>
<!DOCTYPE svg PUBLIC "-//W3C//DTD SVG 1.1//EN"
 "http://www.w3.org/Graphics/SVG/1.1/DTD/svg11.dtd">
<!-- Generated by graphviz version 2.43.0 (0)
 -->
<!-- Title: discord Pages: 1 -->
<svg width="672pt" height="162pt"
 viewBox="0.00 0.00 672.00 162.00" xmlns="http://www.w3.org/2000/svg" xmlns:xlink="http://www.w3.org/1999/xlink">
<g id="graph0" class="graph" transform="scale(1 1) rotate(0) translate(4 158)">
<title>discord</title>
<!-- Node1 -->
<g id="node1" class="node">
<title>Node1</title>
<g id="a_node1"><a xlink:title="The Discord client handler.">
<polygon fill="#bfbfbf" stroke="black" points="357,-71.5 357,-90.5 409,-90.5 409,-71.5 357,-71.5"/>
<text text-anchor="middle" x="383" y="-78.5" font-family="Helvetica,sans-Serif" font-size="10.00">discord</text>
</a>
</g>
</g>
<!-- Node1&#45;&gt;Node1 -->
<g id="edge10" class="edge">
<title>Node1&#45;&gt;Node1</title>
<path fill="none" stroke="#9a32cd" stroke-dasharray="5,2" d="M370.11,-100.77C371.12,-105.5 375.42,-109 383,-109 395.44,-109 399.04,-99.57 393.79,-90.76"/>
<polygon fill="#9a32cd" stroke="#9a32cd" points="373.58,-101.26 372.21,-90.76 366.73,-99.82 373.58,-101.26"/>
<text text-anchor="middle" x="383" y="-134" font-family="Helvetica,sans-Serif" font-size="10.00"> cb</text>
<text text-anchor="middle" x="383" y="-123" font-family="Helvetica,sans-Serif" font-size="10.00">on_cycle</text>
<text text-anchor="middle" x="383" y="-112" font-family="Helvetica,sans-Serif" font-size="10.00">on_idle</text>
</g>
<!-- Node2 -->
<g id="node2" class="node">
<title>Node2</title>
<g id="a_node2"><a xlink:href="structdiscord__message__commands.html" target="_top" xlink:title="The handle for storing user&#39;s message commands.">
<polygon fill="none" stroke="red" points="503,-111.5 503,-130.5 664,-130.5 664,-111.5 503,-111.5"/>
<text text-anchor="middle" x="583.5" y="-118.5" font-family="Helvetica,sans-Serif" font-size="10.00">discord_message_commands</text>
</a>
</g>
</g>
<!-- Node1&#45;&gt;Node2 -->
<g id="edge2" class="edge">
<title>Node1&#45;&gt;Node2</title>
<path fill="none" stroke="#9a32cd" stroke-dasharray="5,2" d="M399.71,-97.98C407.22,-104.91 416.8,-112.19 427,-116 450.66,-124.84 477.78,-127.89 502.67,-128.2"/>
<polygon fill="#9a32cd" stroke="#9a32cd" points="401.99,-95.32 392.43,-90.77 397.07,-100.29 401.99,-95.32"/>
<text text-anchor="middle" x="456" y="-130" font-family="Helvetica,sans-Serif" font-size="10.00"> fallback</text>
</g>
<!-- Node17 -->
<g id="node6" class="node">
<title>Node17</title>
<g id="a_node6"><a xlink:href="structdiscord__gateway.html" target="_top" xlink:title="The handle used for interfacing with Discord&#39;s Gateway API.">
<polygon fill="none" stroke="red" points="534,-32.5 534,-51.5 633,-51.5 633,-32.5 534,-32.5"/>
<text text-anchor="middle" x="583.5" y="-39.5" font-family="Helvetica,sans-Serif" font-size="10.00">discord_gateway</text>
</a>
</g>
</g>
<!-- Node1&#45;&gt;Node17 -->
<g id="edge7" class="edge">
<title>Node1&#45;&gt;Node17</title>
<path fill="none" stroke="#9a32cd" stroke-dasharray="5,2" d="M409.28,-66.9C414.97,-64.23 421.07,-61.73 427,-60 461.82,-49.81 502.61,-45.35 533.68,-43.42"/>
<polygon fill="#9a32cd" stroke="#9a32cd" points="407.58,-63.84 400.22,-71.46 410.72,-70.09 407.58,-63.84"/>
<text text-anchor="middle" x="456" y="-74" font-family="Helvetica,sans-Serif" font-size="10.00"> cbs</text>
<text text-anchor="middle" x="456" y="-63" font-family="Helvetica,sans-Serif" font-size="10.00">scheduler</text>
</g>
<!-- Node2&#45;&gt;Node1 -->
<g id="edge1" class="edge">
<title>Node2&#45;&gt;Node1</title>
<path fill="none" stroke="#9a32cd" stroke-dasharray="5,2" d="M525.2,-109.45C486.81,-101.72 438.16,-91.91 409.14,-86.07"/>
<polygon fill="#9a32cd" stroke="#9a32cd" points="524.73,-112.93 535.22,-111.47 526.11,-106.07 524.73,-112.93"/>
<text text-anchor="middle" x="456" y="-104" font-family="Helvetica,sans-Serif" font-size="10.00"> commands</text>
</g>
<!-- Node4 -->
<g id="node3" class="node">
<title>Node4</title>
<g id="a_node3"><a xlink:href="structdiscord__refcounter.html" target="_top" xlink:title="Automatically cleanup user data.">
<polygon fill="none" stroke="black" points="160,-134.5 160,-153.5 267,-153.5 267,-134.5 160,-134.5"/>
<text text-anchor="middle" x="213.5" y="-141.5" font-family="Helvetica,sans-Serif" font-size="10.00">discord_refcounter</text>
</a>
</g>
</g>
<!-- Node4&#45;&gt;Node1 -->
<g id="edge3" class="edge">
<title>Node4&#45;&gt;Node1</title>
<path fill="none" stroke="#9a32cd" stroke-dasharray="5,2" d="M268.47,-131.91C290.8,-126.01 316.65,-118.01 339,-108 349.62,-103.24 360.72,-96.21 368.98,-90.52"/>
<polygon fill="#9a32cd" stroke="#9a32cd" points="267.3,-128.6 258.48,-134.47 269.04,-135.38 267.3,-128.6"/>
<text text-anchor="middle" x="312" y="-130" font-family="Helvetica,sans-Serif" font-size="10.00"> refcounter</text>
</g>
<!-- Node5 -->
<g id="node4" class="node">
<title>Node5</title>
<g id="a_node4"><a xlink:href="structdiscord__rest.html" target="_top" xlink:title="The handle used for interfacing with Discord&#39;s REST API.">
<polygon fill="none" stroke="red" points="175.5,-38.5 175.5,-57.5 251.5,-57.5 251.5,-38.5 175.5,-38.5"/>
<text text-anchor="middle" x="213.5" y="-45.5" font-family="Helvetica,sans-Serif" font-size="10.00">discord_rest</text>
</a>
</g>
</g>
<!-- Node5&#45;&gt;Node1 -->
<g id="edge4" class="edge">
<title>Node5&#45;&gt;Node1</title>
<path fill="none" stroke="#9a32cd" stroke-dasharray="5,2" d="M261.75,-54.77C285.11,-58.42 313.66,-63.34 339,-69 344.75,-70.28 350.87,-71.86 356.65,-73.45"/>
<polygon fill="#9a32cd" stroke="#9a32cd" points="262.16,-51.29 251.74,-53.24 261.1,-58.21 262.16,-51.29"/>
<text text-anchor="middle" x="312" y="-72" font-family="Helvetica,sans-Serif" font-size="10.00"> rest</text>
</g>
<!-- Node15 -->
<g id="node5" class="node">
<title>Node15</title>
<g id="a_node5"><a xlink:href="structdiscord__timers.html" target="_top" xlink:title=" ">
<polygon fill="none" stroke="orangered" points="0,-66.5 0,-85.5 89,-85.5 89,-66.5 0,-66.5"/>
<text text-anchor="middle" x="44.5" y="-73.5" font-family="Helvetica,sans-Serif" font-size="10.00">discord_timers</text>
</a>
</g>
</g>
<!-- Node15&#45;&gt;Node1 -->
<g id="edge9" class="edge">
<title>Node15&#45;&gt;Node1</title>
<path fill="none" stroke="#9a32cd" stroke-dasharray="5,2" d="M99.28,-79.69C101.89,-79.81 104.47,-79.91 107,-80 199.09,-83.16 308.63,-82.12 356.97,-81.42"/>
<polygon fill="#9a32cd" stroke="#9a32cd" points="99.33,-76.19 89.16,-79.17 98.97,-83.18 99.33,-76.19"/>
<text text-anchor="middle" x="213.5" y="-96" font-family="Helvetica,sans-Serif" font-size="10.00"> internal</text>
<text text-anchor="middle" x="213.5" y="-85" font-family="Helvetica,sans-Serif" font-size="10.00">user</text>
</g>
<!-- Node15&#45;&gt;Node5 -->
<g id="edge5" class="edge">
<title>Node15&#45;&gt;Node5</title>
<path fill="none" stroke="#9a32cd" stroke-dasharray="5,2" d="M99.39,-66.97C124.22,-62.8 153.07,-57.96 175.41,-54.22"/>
<polygon fill="#9a32cd" stroke="#9a32cd" points="98.66,-63.54 89.38,-68.64 99.82,-70.44 98.66,-63.54"/>
<text text-anchor="middle" x="124.5" y="-68" font-family="Helvetica,sans-Serif" font-size="10.00"> timers</text>
</g>
<!-- Node17&#45;&gt;Node1 -->
<g id="edge6" class="edge">
<title>Node17&#45;&gt;Node1</title>
<path fill="none" stroke="#9a32cd" stroke-dasharray="5,2" d="M550.29,-29.09C517.56,-18.1 466.24,-6.87 427,-26 407.61,-35.45 394.39,-58.35 388.14,-71.43"/>
<polygon fill="#9a32cd" stroke="#9a32cd" points="549.22,-32.42 559.82,-32.45 551.56,-25.82 549.22,-32.42"/>
<text text-anchor="middle" x="456" y="-29" font-family="Helvetica,sans-Serif" font-size="10.00"> gw</text>
</g>
<!-- Node23 -->
<g id="node7" class="node">
<title>Node23</title>
<g id="a_node7"><a xlink:href="structdiscord__user.html" target="_top" xlink:title=" ">
<polygon fill="none" stroke="black" points="174.5,-0.5 174.5,-19.5 252.5,-19.5 252.5,-0.5 174.5,-0.5"/>
<text text-anchor="middle" x="213.5" y="-7.5" font-family="Helvetica,sans-Serif" font-size="10.00">discord_user</text>
</a>
</g>
</g>
<!-- Node23&#45;&gt;Node1 -->
<g id="edge8" class="edge">
<title>Node23&#45;&gt;Node1</title>
<path fill="none" stroke="#9a32cd" stroke-dasharray="5,2" d="M262.55,-17.92C286.48,-23.14 315.28,-31.39 339,-44 352.39,-51.12 365.23,-63.06 373.34,-71.45"/>
<polygon fill="#9a32cd" stroke="#9a32cd" points="263.13,-14.47 252.62,-15.87 261.71,-21.32 263.13,-14.47"/>
<text text-anchor="middle" x="312" y="-47" font-family="Helvetica,sans-Serif" font-size="10.00"> self</text>
</g>
</g>
</svg>
