<?xml version="1.0" encoding="UTF-8" standalone="no"?>
<!DOCTYPE svg PUBLIC "-//W3C//DTD SVG 1.1//EN"
 "http://www.w3.org/Graphics/SVG/1.1/DTD/svg11.dtd">
<!-- Generated by graphviz version 2.43.0 (0)
 -->
<!-- Title: discord_application_command_interaction_data_options Pages: 1 -->
<svg width="136pt" height="139pt"
 viewBox="0.00 0.00 136.00 139.00" xmlns="http://www.w3.org/2000/svg" xmlns:xlink="http://www.w3.org/1999/xlink">
<g id="graph0" class="graph" transform="scale(1 1) rotate(0) translate(4 135)">
<title>discord_application_command_interaction_data_options</title>
<!-- Node1 -->
<g id="node1" class="node">
<title>Node1</title>
<g id="a_node1"><a xlink:title=" ">
<polygon fill="#bfbfbf" stroke="black" points="0,-89.5 0,-130.5 128,-130.5 128,-89.5 0,-89.5"/>
<text text-anchor="start" x="8" y="-118.5" font-family="Helvetica,sans-Serif" font-size="10.00">discord_application</text>
<text text-anchor="start" x="8" y="-107.5" font-family="Helvetica,sans-Serif" font-size="10.00">_command_interaction</text>
<text text-anchor="middle" x="64" y="-96.5" font-family="Helvetica,sans-Serif" font-size="10.00">_data_options</text>
</a>
</g>
</g>
<!-- Node2 -->
<g id="node2" class="node">
<title>Node2</title>
<g id="a_node2"><a xlink:href="structdiscord__application__command__interaction__data__option.html" target="_top" xlink:title=" ">
<polygon fill="none" stroke="black" points="0,-0.5 0,-41.5 128,-41.5 128,-0.5 0,-0.5"/>
<text text-anchor="start" x="8" y="-29.5" font-family="Helvetica,sans-Serif" font-size="10.00">discord_application</text>
<text text-anchor="start" x="8" y="-18.5" font-family="Helvetica,sans-Serif" font-size="10.00">_command_interaction</text>
<text text-anchor="middle" x="64" y="-7.5" font-family="Helvetica,sans-Serif" font-size="10.00">_data_option</text>
</a>
</g>
</g>
<!-- Node1&#45;&gt;Node2 -->
<g id="edge2" class="edge">
<title>Node1&#45;&gt;Node2</title>
<path fill="none" stroke="#9a32cd" stroke-dasharray="5,2" d="M33.04,-81.28C29.04,-74.64 27.19,-67.34 30,-60 32.53,-53.38 36.8,-47.19 41.47,-41.81"/>
<polygon fill="#9a32cd" stroke="#9a32cd" points="30.24,-83.39 39.05,-89.28 35.84,-79.18 30.24,-83.39"/>
<text text-anchor="middle" x="50" y="-63" font-family="Helvetica,sans-Serif" font-size="10.00"> options</text>
</g>
<!-- Node2&#45;&gt;Node1 -->
<g id="edge1" class="edge">
<title>Node2&#45;&gt;Node1</title>
<path fill="none" stroke="#9a32cd" stroke-dasharray="5,2" d="M73.33,-52.01C74.37,-58.26 74.8,-64.82 74,-71 73.21,-77.09 71.74,-83.59 70.17,-89.47"/>
<polygon fill="#9a32cd" stroke="#9a32cd" points="76.67,-50.94 71.12,-41.92 69.84,-52.43 76.67,-50.94"/>
<text text-anchor="middle" x="88.5" y="-63" font-family="Helvetica,sans-Serif" font-size="10.00"> array</text>
</g>
</g>
</svg>
