<?xml version="1.0" encoding="UTF-8" standalone="no"?>
<!DOCTYPE svg PUBLIC "-//W3C//DTD SVG 1.1//EN"
 "http://www.w3.org/Graphics/SVG/1.1/DTD/svg11.dtd">
<!-- Generated by graphviz version 2.43.0 (0)
 -->
<!-- Title: discord Pages: 1 -->
<svg width="672pt" height="314pt"
 viewBox="0.00 0.00 672.00 313.71" xmlns="http://www.w3.org/2000/svg" xmlns:xlink="http://www.w3.org/1999/xlink">
<g id="graph0" class="graph" transform="scale(1 1) rotate(0) translate(4 309.71)">
<title>discord</title>
<!-- Node1 -->
<g id="node1" class="node">
<title>Node1</title>
<g id="a_node1"><a xlink:title="The Discord client handler.">
<polygon fill="#bfbfbf" stroke="black" points="357,-131.21 357,-150.21 409,-150.21 409,-131.21 357,-131.21"/>
<text text-anchor="middle" x="383" y="-138.21" font-family="Helvetica,sans-Serif" font-size="10.00">discord</text>
</a>
</g>
</g>
<!-- Node7 -->
<g id="node3" class="node">
<title>Node7</title>
<g id="a_node3"><a xlink:href="structdiscord__message__commands.html" target="_top" xlink:title="The handle for storing user&#39;s message commands.">
<polygon fill="none" stroke="red" points="503,-187.21 503,-206.21 664,-206.21 664,-187.21 503,-187.21"/>
<text text-anchor="middle" x="583.5" y="-194.21" font-family="Helvetica,sans-Serif" font-size="10.00">discord_message_commands</text>
</a>
</g>
</g>
<!-- Node1&#45;&gt;Node7 -->
<g id="edge4" class="edge">
<title>Node1&#45;&gt;Node7</title>
<path fill="none" stroke="#9a32cd" stroke-dasharray="5,2" d="M401.06,-157.64C408.45,-164 417.57,-170.67 427,-174.71 450.56,-184.8 477.78,-190.45 502.8,-193.56"/>
<polygon fill="#9a32cd" stroke="#9a32cd" points="403,-154.66 393.26,-150.48 398.26,-159.82 403,-154.66"/>
<text text-anchor="middle" x="456" y="-193.71" font-family="Helvetica,sans-Serif" font-size="10.00"> fallback</text>
</g>
<!-- Node22 -->
<g id="node7" class="node">
<title>Node22</title>
<g id="a_node7"><a xlink:href="structdiscord__gateway.html" target="_top" xlink:title="The handle used for interfacing with Discord&#39;s Gateway API.">
<polygon fill="none" stroke="red" points="534,-74.21 534,-93.21 633,-93.21 633,-74.21 534,-74.21"/>
<text text-anchor="middle" x="583.5" y="-81.21" font-family="Helvetica,sans-Serif" font-size="10.00">discord_gateway</text>
</a>
</g>
</g>
<!-- Node1&#45;&gt;Node22 -->
<g id="edge12" class="edge">
<title>Node1&#45;&gt;Node22</title>
<path fill="none" stroke="#9a32cd" stroke-dasharray="5,2" d="M414.59,-127.25C418.72,-125.62 422.94,-124.06 427,-122.71 463.31,-110.63 505.48,-100.28 536.73,-93.28"/>
<polygon fill="#9a32cd" stroke="#9a32cd" points="413.12,-124.06 405.19,-131.09 415.77,-130.54 413.12,-124.06"/>
<text text-anchor="middle" x="456" y="-136.71" font-family="Helvetica,sans-Serif" font-size="10.00"> cbs</text>
<text text-anchor="middle" x="456" y="-125.71" font-family="Helvetica,sans-Serif" font-size="10.00">scheduler</text>
</g>
<!-- Node2 -->
<g id="node2" class="node">
<title>Node2</title>
<g id="a_node2"><a xlink:href="structlogconf.html" target="_top" xlink:title="A stackful and modularized wrapper over the popular &#39;log.c&#39; facilities.">
<polygon fill="none" stroke="red" points="18,-114.21 18,-133.21 71,-133.21 71,-114.21 18,-114.21"/>
<text text-anchor="middle" x="44.5" y="-121.21" font-family="Helvetica,sans-Serif" font-size="10.00">logconf</text>
</a>
</g>
</g>
<!-- Node2&#45;&gt;Node1 -->
<g id="edge1" class="edge">
<title>Node2&#45;&gt;Node1</title>
<path fill="none" stroke="#9a32cd" stroke-dasharray="5,2" d="M80.79,-111.96C103.19,-105.12 132.96,-97.19 160,-93.71 207.17,-87.63 220.11,-85.8 267,-93.71 303.79,-99.92 343.38,-119.2 365.18,-131.05"/>
<polygon fill="#9a32cd" stroke="#9a32cd" points="79.55,-108.68 71.05,-115 81.64,-115.36 79.55,-108.68"/>
<text text-anchor="middle" x="213.5" y="-96.71" font-family="Helvetica,sans-Serif" font-size="10.00"> conf</text>
</g>
<!-- Node2&#45;&gt;Node7 -->
<g id="edge3" class="edge">
<title>Node2&#45;&gt;Node7</title>
<path fill="none" stroke="#9a32cd" stroke-dasharray="5,2" d="M51.11,-142.99C59.16,-166.66 76.48,-205.74 107,-222.71 260.18,-307.88 485.75,-234.16 558.76,-206.3"/>
<polygon fill="#9a32cd" stroke="#9a32cd" points="54.41,-141.81 48.06,-133.34 47.74,-143.93 54.41,-141.81"/>
<text text-anchor="middle" x="312" y="-264.71" font-family="Helvetica,sans-Serif" font-size="10.00"> conf</text>
</g>
<!-- Node9 -->
<g id="node4" class="node">
<title>Node9</title>
<g id="a_node4"><a xlink:href="structdiscord__refcounter.html" target="_top" xlink:title="Automatically cleanup user data.">
<polygon fill="none" stroke="black" points="160,-114.21 160,-133.21 267,-133.21 267,-114.21 160,-114.21"/>
<text text-anchor="middle" x="213.5" y="-121.21" font-family="Helvetica,sans-Serif" font-size="10.00">discord_refcounter</text>
</a>
</g>
</g>
<!-- Node2&#45;&gt;Node9 -->
<g id="edge6" class="edge">
<title>Node2&#45;&gt;Node9</title>
<path fill="none" stroke="#9a32cd" stroke-dasharray="5,2" d="M81.5,-123.71C104.34,-123.71 134.28,-123.71 159.78,-123.71"/>
<polygon fill="#9a32cd" stroke="#9a32cd" points="81.23,-120.21 71.23,-123.71 81.23,-127.21 81.23,-120.21"/>
<text text-anchor="middle" x="124.5" y="-126.71" font-family="Helvetica,sans-Serif" font-size="10.00"> conf</text>
</g>
<!-- Node10 -->
<g id="node5" class="node">
<title>Node10</title>
<g id="a_node5"><a xlink:href="structdiscord__rest.html" target="_top" xlink:title="The handle used for interfacing with Discord&#39;s REST API.">
<polygon fill="none" stroke="red" points="175.5,-152.21 175.5,-171.21 251.5,-171.21 251.5,-152.21 175.5,-152.21"/>
<text text-anchor="middle" x="213.5" y="-159.21" font-family="Helvetica,sans-Serif" font-size="10.00">discord_rest</text>
</a>
</g>
</g>
<!-- Node2&#45;&gt;Node10 -->
<g id="edge8" class="edge">
<title>Node2&#45;&gt;Node10</title>
<path fill="none" stroke="#9a32cd" stroke-dasharray="5,2" d="M81.28,-131.85C108.98,-138.15 147.21,-146.85 175.27,-153.24"/>
<polygon fill="#9a32cd" stroke="#9a32cd" points="81.76,-128.37 71.23,-129.56 80.2,-135.19 81.76,-128.37"/>
<text text-anchor="middle" x="124.5" y="-147.71" font-family="Helvetica,sans-Serif" font-size="10.00"> conf</text>
</g>
<!-- Node2&#45;&gt;Node22 -->
<g id="edge11" class="edge">
<title>Node2&#45;&gt;Node22</title>
<path fill="none" stroke="#9a32cd" stroke-dasharray="5,2" d="M58.17,-105.85C77.04,-80.98 115.16,-37.03 160,-19.71 307.4,37.24 502,-44.88 563.22,-74.08"/>
<polygon fill="#9a32cd" stroke="#9a32cd" points="55.23,-103.94 52.11,-114.06 60.86,-108.09 55.23,-103.94"/>
<text text-anchor="middle" x="312" y="-7.71" font-family="Helvetica,sans-Serif" font-size="10.00"> conf</text>
</g>
<!-- Node7&#45;&gt;Node1 -->
<g id="edge2" class="edge">
<title>Node7&#45;&gt;Node1</title>
<path fill="none" stroke="#9a32cd" stroke-dasharray="5,2" d="M547.21,-183.79C528.81,-177.3 505.85,-169.59 485,-163.71 459.39,-156.48 429.63,-149.92 409.08,-145.68"/>
<polygon fill="#9a32cd" stroke="#9a32cd" points="546.06,-187.1 556.66,-187.15 548.41,-180.5 546.06,-187.1"/>
<text text-anchor="middle" x="456" y="-166.71" font-family="Helvetica,sans-Serif" font-size="10.00"> commands</text>
</g>
<!-- Node9&#45;&gt;Node1 -->
<g id="edge5" class="edge">
<title>Node9&#45;&gt;Node1</title>
<path fill="none" stroke="#9a32cd" stroke-dasharray="5,2" d="M277.35,-122.54C297.18,-123.02 319.1,-124.44 339,-127.71 344.85,-128.67 351.01,-130.21 356.79,-131.89"/>
<polygon fill="#9a32cd" stroke="#9a32cd" points="277.25,-119.04 267.19,-122.37 277.13,-126.04 277.25,-119.04"/>
<text text-anchor="middle" x="312" y="-130.71" font-family="Helvetica,sans-Serif" font-size="10.00"> refcounter</text>
</g>
<!-- Node10&#45;&gt;Node1 -->
<g id="edge7" class="edge">
<title>Node10&#45;&gt;Node1</title>
<path fill="none" stroke="#9a32cd" stroke-dasharray="5,2" d="M261.8,-155.78C292.69,-151.91 331.8,-147 356.87,-143.86"/>
<polygon fill="#9a32cd" stroke="#9a32cd" points="261.16,-152.33 251.67,-157.05 262.03,-159.28 261.16,-152.33"/>
<text text-anchor="middle" x="312" y="-154.71" font-family="Helvetica,sans-Serif" font-size="10.00"> rest</text>
</g>
<!-- Node20 -->
<g id="node6" class="node">
<title>Node20</title>
<g id="a_node6"><a xlink:href="structdiscord__timers.html" target="_top" xlink:title=" ">
<polygon fill="none" stroke="red" points="0,-239.21 0,-258.21 89,-258.21 89,-239.21 0,-239.21"/>
<text text-anchor="middle" x="44.5" y="-246.21" font-family="Helvetica,sans-Serif" font-size="10.00">discord_timers</text>
</a>
</g>
</g>
<!-- Node20&#45;&gt;Node1 -->
<g id="edge15" class="edge">
<title>Node20&#45;&gt;Node1</title>
<path fill="none" stroke="#9a32cd" stroke-dasharray="5,2" d="M81.59,-261.42C141.05,-279.89 260.79,-306.46 339,-252.71 373.67,-228.88 380.4,-172.92 381.7,-150.38"/>
<polygon fill="#9a32cd" stroke="#9a32cd" points="82.49,-258.03 71.9,-258.31 80.35,-264.69 82.49,-258.03"/>
<text text-anchor="middle" x="213.5" y="-297.71" font-family="Helvetica,sans-Serif" font-size="10.00"> internal</text>
<text text-anchor="middle" x="213.5" y="-286.71" font-family="Helvetica,sans-Serif" font-size="10.00">user</text>
</g>
<!-- Node20&#45;&gt;Node10 -->
<g id="edge9" class="edge">
<title>Node20&#45;&gt;Node10</title>
<path fill="none" stroke="#9a32cd" stroke-dasharray="5,2" d="M68.39,-233.36C91.01,-218.62 126.93,-196.34 160,-180.71 167.27,-177.27 175.35,-174.06 182.94,-171.3"/>
<polygon fill="#9a32cd" stroke="#9a32cd" points="66.26,-230.57 59.83,-238.99 70.11,-236.42 66.26,-230.57"/>
<text text-anchor="middle" x="124.5" y="-210.71" font-family="Helvetica,sans-Serif" font-size="10.00"> timers</text>
</g>
<!-- Node22&#45;&gt;Node1 -->
<g id="edge10" class="edge">
<title>Node22&#45;&gt;Node1</title>
<path fill="none" stroke="#9a32cd" stroke-dasharray="5,2" d="M528.96,-72.79C497.66,-69.08 458.28,-69.17 427,-84.71 407.46,-94.42 394.3,-117.7 388.1,-130.99"/>
<polygon fill="#9a32cd" stroke="#9a32cd" points="528.86,-76.31 539.24,-74.18 529.8,-69.37 528.86,-76.31"/>
<text text-anchor="middle" x="456" y="-87.71" font-family="Helvetica,sans-Serif" font-size="10.00"> gw</text>
</g>
<!-- Node28 -->
<g id="node8" class="node">
<title>Node28</title>
<g id="a_node8"><a xlink:href="structdiscord__user.html" target="_top" xlink:title=" ">
<polygon fill="none" stroke="black" points="174.5,-29.21 174.5,-48.21 252.5,-48.21 252.5,-29.21 174.5,-29.21"/>
<text text-anchor="middle" x="213.5" y="-36.21" font-family="Helvetica,sans-Serif" font-size="10.00">discord_user</text>
</a>
</g>
</g>
<!-- Node28&#45;&gt;Node1 -->
<g id="edge13" class="edge">
<title>Node28&#45;&gt;Node1</title>
<path fill="none" stroke="#9a32cd" stroke-dasharray="5,2" d="M262.99,-37.07C287.78,-38.52 317.22,-44 339,-59.71 363.66,-77.5 375.46,-113.83 379.86,-131.14"/>
<polygon fill="#9a32cd" stroke="#9a32cd" points="262.82,-33.56 252.69,-36.68 262.55,-40.55 262.82,-33.56"/>
<text text-anchor="middle" x="312" y="-62.71" font-family="Helvetica,sans-Serif" font-size="10.00"> self</text>
</g>
<!-- Node43 -->
<g id="node9" class="node">
<title>Node43</title>
<g id="a_node9"><a xlink:href="structdiscord__cache.html" target="_top" xlink:title="The Discord Cache control handler.">
<polygon fill="none" stroke="black" points="170.5,-190.21 170.5,-209.21 256.5,-209.21 256.5,-190.21 170.5,-190.21"/>
<text text-anchor="middle" x="213.5" y="-197.21" font-family="Helvetica,sans-Serif" font-size="10.00">discord_cache</text>
</a>
</g>
</g>
<!-- Node43&#45;&gt;Node1 -->
<g id="edge14" class="edge">
<title>Node43&#45;&gt;Node1</title>
<path fill="none" stroke="#9a32cd" stroke-dasharray="5,2" d="M266.52,-189.41C289.27,-184.03 315.96,-176.49 339,-166.71 349.28,-162.35 360.03,-155.85 368.21,-150.44"/>
<polygon fill="#9a32cd" stroke="#9a32cd" points="265.67,-186.02 256.7,-191.66 267.23,-192.84 265.67,-186.02"/>
<text text-anchor="middle" x="312" y="-186.71" font-family="Helvetica,sans-Serif" font-size="10.00"> cache</text>
</g>
</g>
</svg>
