<?xml version="1.0" encoding="UTF-8" standalone="no"?>
<!DOCTYPE svg PUBLIC "-//W3C//DTD SVG 1.1//EN"
 "http://www.w3.org/Graphics/SVG/1.1/DTD/svg11.dtd">
<!-- Generated by graphviz version 2.43.0 (0)
 -->
<!-- Title: discord_create_message Pages: 1 -->
<svg width="569pt" height="227pt"
 viewBox="0.00 0.00 569.00 227.00" xmlns="http://www.w3.org/2000/svg" xmlns:xlink="http://www.w3.org/1999/xlink">
<g id="graph0" class="graph" transform="scale(1 1) rotate(0) translate(4 223)">
<title>discord_create_message</title>
<!-- Node1 -->
<g id="node1" class="node">
<title>Node1</title>
<g id="a_node1"><a xlink:title=" ">
<polygon fill="#bfbfbf" stroke="black" points="424,-95.5 424,-114.5 561,-114.5 561,-95.5 424,-95.5"/>
<text text-anchor="middle" x="492.5" y="-102.5" font-family="Helvetica,sans-Serif" font-size="10.00">discord_create_message</text>
</a>
</g>
</g>
<!-- Node2 -->
<g id="node2" class="node">
<title>Node2</title>
<g id="a_node2"><a xlink:href="structdiscord__embeds.html" target="_top" xlink:title=" ">
<polygon fill="none" stroke="red" points="163.5,-199.5 163.5,-218.5 259.5,-218.5 259.5,-199.5 163.5,-199.5"/>
<text text-anchor="middle" x="211.5" y="-206.5" font-family="Helvetica,sans-Serif" font-size="10.00">discord_embeds</text>
</a>
</g>
</g>
<!-- Node2&#45;&gt;Node1 -->
<g id="edge1" class="edge">
<title>Node2&#45;&gt;Node1</title>
<path fill="none" stroke="#9a32cd" stroke-dasharray="5,2" d="M269.76,-210.61C309.68,-209.62 363.23,-203.99 406,-184 440.97,-167.66 471.35,-131.72 484.53,-114.53"/>
<polygon fill="#9a32cd" stroke="#9a32cd" points="269.61,-207.11 259.67,-210.77 269.72,-214.11 269.61,-207.11"/>
<text text-anchor="middle" x="356" y="-211" font-family="Helvetica,sans-Serif" font-size="10.00"> embeds</text>
</g>
<!-- Node12 -->
<g id="node3" class="node">
<title>Node12</title>
<g id="a_node3"><a xlink:href="structdiscord__allowed__mention.html" target="_top" xlink:title=" ">
<polygon fill="none" stroke="red" points="141,-114.5 141,-133.5 282,-133.5 282,-114.5 141,-114.5"/>
<text text-anchor="middle" x="211.5" y="-121.5" font-family="Helvetica,sans-Serif" font-size="10.00">discord_allowed_mention</text>
</a>
</g>
</g>
<!-- Node12&#45;&gt;Node1 -->
<g id="edge2" class="edge">
<title>Node12&#45;&gt;Node1</title>
<path fill="none" stroke="#9a32cd" stroke-dasharray="5,2" d="M292.27,-118.57C333.8,-115.74 384.03,-112.32 423.67,-109.62"/>
<polygon fill="#9a32cd" stroke="#9a32cd" points="291.92,-115.08 282.18,-119.25 292.4,-122.07 291.92,-115.08"/>
<text text-anchor="middle" x="356" y="-121" font-family="Helvetica,sans-Serif" font-size="10.00"> allowed_mentions</text>
</g>
<!-- Node14 -->
<g id="node4" class="node">
<title>Node14</title>
<g id="a_node4"><a xlink:href="structsnowflakes.html" target="_top" xlink:title=" ">
<polygon fill="none" stroke="black" points="0,-139.5 0,-158.5 71,-158.5 71,-139.5 0,-139.5"/>
<text text-anchor="middle" x="35.5" y="-146.5" font-family="Helvetica,sans-Serif" font-size="10.00">snowflakes</text>
</a>
</g>
</g>
<!-- Node14&#45;&gt;Node1 -->
<g id="edge6" class="edge">
<title>Node14&#45;&gt;Node1</title>
<path fill="none" stroke="#9a32cd" stroke-dasharray="5,2" d="M81.26,-155.37C83.88,-155.62 86.47,-155.83 89,-156 101.42,-156.82 104.56,-156.47 117,-156 245.76,-151.11 279.73,-158.66 406,-133 427.12,-128.71 450.32,-120.91 467.21,-114.63"/>
<polygon fill="#9a32cd" stroke="#9a32cd" points="81.49,-151.88 71.17,-154.28 80.74,-158.84 81.49,-151.88"/>
<text text-anchor="middle" x="211.5" y="-158" font-family="Helvetica,sans-Serif" font-size="10.00"> sticker_ids</text>
</g>
<!-- Node14&#45;&gt;Node12 -->
<g id="edge3" class="edge">
<title>Node14&#45;&gt;Node12</title>
<path fill="none" stroke="#9a32cd" stroke-dasharray="5,2" d="M75.99,-136.83C80.35,-135.75 84.75,-134.77 89,-134 105.66,-130.97 123.77,-128.85 140.8,-127.38"/>
<polygon fill="#9a32cd" stroke="#9a32cd" points="74.74,-133.54 65.97,-139.48 76.53,-140.3 74.74,-133.54"/>
<text text-anchor="middle" x="103" y="-148" font-family="Helvetica,sans-Serif" font-size="10.00"> roles</text>
<text text-anchor="middle" x="103" y="-137" font-family="Helvetica,sans-Serif" font-size="10.00">users</text>
</g>
<!-- Node15 -->
<g id="node5" class="node">
<title>Node15</title>
<g id="a_node5"><a xlink:href="structdiscord__message__reference.html" target="_top" xlink:title=" ">
<polygon fill="none" stroke="black" points="135,-76.5 135,-95.5 288,-95.5 288,-76.5 135,-76.5"/>
<text text-anchor="middle" x="211.5" y="-83.5" font-family="Helvetica,sans-Serif" font-size="10.00">discord_message_reference</text>
</a>
</g>
</g>
<!-- Node15&#45;&gt;Node1 -->
<g id="edge4" class="edge">
<title>Node15&#45;&gt;Node1</title>
<path fill="none" stroke="#9a32cd" stroke-dasharray="5,2" d="M298.59,-90.22C332.13,-92.04 370.88,-94.36 406,-97 411.8,-97.44 417.81,-97.92 423.85,-98.44"/>
<polygon fill="#9a32cd" stroke="#9a32cd" points="298.53,-86.71 288.36,-89.67 298.16,-93.7 298.53,-86.71"/>
<text text-anchor="middle" x="356" y="-100" font-family="Helvetica,sans-Serif" font-size="10.00"> message_reference</text>
</g>
<!-- Node16 -->
<g id="node6" class="node">
<title>Node16</title>
<g id="a_node6"><a xlink:href="structdiscord__components.html" target="_top" xlink:title=" ">
<polygon fill="none" stroke="red" points="153,-38.5 153,-57.5 270,-57.5 270,-38.5 153,-38.5"/>
<text text-anchor="middle" x="211.5" y="-45.5" font-family="Helvetica,sans-Serif" font-size="10.00">discord_components</text>
</a>
</g>
</g>
<!-- Node16&#45;&gt;Node1 -->
<g id="edge5" class="edge">
<title>Node16&#45;&gt;Node1</title>
<path fill="none" stroke="#9a32cd" stroke-dasharray="5,2" d="M280.45,-54.74C317.81,-59.22 364.82,-66.12 406,-76 427.03,-81.04 450.24,-89.08 467.16,-95.41"/>
<polygon fill="#9a32cd" stroke="#9a32cd" points="280.51,-51.23 270.17,-53.54 279.7,-58.18 280.51,-51.23"/>
<text text-anchor="middle" x="356" y="-79" font-family="Helvetica,sans-Serif" font-size="10.00"> components</text>
</g>
<!-- Node22 -->
<g id="node7" class="node">
<title>Node22</title>
<g id="a_node7"><a xlink:href="structdiscord__attachments.html" target="_top" xlink:title=" ">
<polygon fill="none" stroke="red" points="152,-0.5 152,-19.5 271,-19.5 271,-0.5 152,-0.5"/>
<text text-anchor="middle" x="211.5" y="-7.5" font-family="Helvetica,sans-Serif" font-size="10.00">discord_attachments</text>
</a>
</g>
</g>
<!-- Node22&#45;&gt;Node1 -->
<g id="edge7" class="edge">
<title>Node22&#45;&gt;Node1</title>
<path fill="none" stroke="#9a32cd" stroke-dasharray="5,2" d="M281.07,-14.57C319.05,-18.93 366.44,-27.42 406,-44 436.27,-56.69 466.24,-81.69 481.37,-95.42"/>
<polygon fill="#9a32cd" stroke="#9a32cd" points="281.44,-11.09 271.13,-13.5 280.69,-18.05 281.44,-11.09"/>
<text text-anchor="middle" x="356" y="-47" font-family="Helvetica,sans-Serif" font-size="10.00"> attachments</text>
</g>
</g>
</svg>
