<?xml version="1.0" encoding="UTF-8" standalone="no"?>
<!DOCTYPE svg PUBLIC "-//W3C//DTD SVG 1.1//EN"
 "http://www.w3.org/Graphics/SVG/1.1/DTD/svg11.dtd">
<!-- Generated by graphviz version 2.43.0 (0)
 -->
<!-- Title: discord Pages: 1 -->
<svg width="200pt" height="175pt"
 viewBox="0.00 0.00 199.50 175.00" xmlns="http://www.w3.org/2000/svg" xmlns:xlink="http://www.w3.org/1999/xlink">
<g id="graph0" class="graph" transform="scale(1 1) rotate(0) translate(4 171)">
<title>discord</title>
<!-- Node1 -->
<g id="node1" class="node">
<title>Node1</title>
<g id="a_node1"><a xlink:title="The Discord client handler.">
<polygon fill="#bfbfbf" stroke="black" points="73.5,-74 73.5,-93 125.5,-93 125.5,-74 73.5,-74"/>
<text text-anchor="middle" x="99.5" y="-81" font-family="Helvetica,sans-Serif" font-size="10.00">discord</text>
</a>
</g>
</g>
<!-- Node1&#45;&gt;Node1 -->
<g id="edge5" class="edge">
<title>Node1&#45;&gt;Node1</title>
<path fill="none" stroke="#9a32cd" stroke-dasharray="5,2" d="M135.97,-90.02C140.52,-88.86 143.5,-86.69 143.5,-83.5 143.5,-78.27 135.46,-75.77 125.7,-76.02"/>
<polygon fill="#9a32cd" stroke="#9a32cd" points="135.33,-86.56 125.7,-90.98 135.98,-93.53 135.33,-86.56"/>
<text text-anchor="middle" x="165" y="-92" font-family="Helvetica,sans-Serif" font-size="10.00"> cb</text>
<text text-anchor="middle" x="165" y="-81" font-family="Helvetica,sans-Serif" font-size="10.00">on_cycle</text>
<text text-anchor="middle" x="165" y="-70" font-family="Helvetica,sans-Serif" font-size="10.00">on_idle</text>
</g>
<!-- Node5 -->
<g id="node3" class="node">
<title>Node5</title>
<g id="a_node3"><a xlink:href="structdiscord__gateway.html" target="_top" xlink:title="The handle used for establishing a WebSockets connection.">
<polygon fill="none" stroke="red" points="50,-0.5 50,-19.5 149,-19.5 149,-0.5 50,-0.5"/>
<text text-anchor="middle" x="99.5" y="-7.5" font-family="Helvetica,sans-Serif" font-size="10.00">discord_gateway</text>
</a>
</g>
</g>
<!-- Node1&#45;&gt;Node5 -->
<g id="edge3" class="edge">
<title>Node1&#45;&gt;Node5</title>
<path fill="none" stroke="#9a32cd" stroke-dasharray="5,2" d="M73.82,-68.34C62.7,-60.22 53.44,-49.4 59.5,-38 63.75,-30.01 71.53,-23.96 79.11,-19.63"/>
<polygon fill="#9a32cd" stroke="#9a32cd" points="72.19,-71.45 82.48,-73.98 76.01,-65.59 72.19,-71.45"/>
<text text-anchor="middle" x="85" y="-41" font-family="Helvetica,sans-Serif" font-size="10.00"> scheduler</text>
</g>
<!-- Node2 -->
<g id="node2" class="node">
<title>Node2</title>
<g id="a_node2"><a xlink:href="structdiscord__adapter.html" target="_top" xlink:title="The handle used for performing HTTP Requests.">
<polygon fill="none" stroke="red" points="0,-147.5 0,-166.5 95,-166.5 95,-147.5 0,-147.5"/>
<text text-anchor="middle" x="47.5" y="-154.5" font-family="Helvetica,sans-Serif" font-size="10.00">discord_adapter</text>
</a>
</g>
</g>
<!-- Node2&#45;&gt;Node1 -->
<g id="edge1" class="edge">
<title>Node2&#45;&gt;Node1</title>
<path fill="none" stroke="#9a32cd" stroke-dasharray="5,2" d="M60.04,-138.75C70.46,-124.43 84.86,-104.63 93.07,-93.34"/>
<polygon fill="#9a32cd" stroke="#9a32cd" points="56.93,-137.09 53.88,-147.23 62.59,-141.2 56.93,-137.09"/>
<text text-anchor="middle" x="96" y="-121" font-family="Helvetica,sans-Serif" font-size="10.00"> adapter</text>
</g>
<!-- Node5&#45;&gt;Node1 -->
<g id="edge2" class="edge">
<title>Node5&#45;&gt;Node1</title>
<path fill="none" stroke="#9a32cd" stroke-dasharray="5,2" d="M110.85,-28.47C112.36,-31.54 113.67,-34.78 114.5,-38 117.77,-50.63 111.09,-64.85 105.63,-73.75"/>
<polygon fill="#9a32cd" stroke="#9a32cd" points="113.72,-26.45 105.71,-19.52 107.65,-29.93 113.72,-26.45"/>
<text text-anchor="middle" x="123.5" y="-41" font-family="Helvetica,sans-Serif" font-size="10.00"> gw</text>
</g>
<!-- Node23 -->
<g id="node4" class="node">
<title>Node23</title>
<g id="a_node4"><a xlink:href="structdiscord__user.html" target="_top" xlink:title=" ">
<polygon fill="none" stroke="black" points="113.5,-147.5 113.5,-166.5 191.5,-166.5 191.5,-147.5 113.5,-147.5"/>
<text text-anchor="middle" x="152.5" y="-154.5" font-family="Helvetica,sans-Serif" font-size="10.00">discord_user</text>
</a>
</g>
</g>
<!-- Node23&#45;&gt;Node1 -->
<g id="edge4" class="edge">
<title>Node23&#45;&gt;Node1</title>
<path fill="none" stroke="#9a32cd" stroke-dasharray="5,2" d="M140.02,-139.16C129.38,-124.81 114.5,-104.74 106.05,-93.34"/>
<polygon fill="#9a32cd" stroke="#9a32cd" points="137.23,-141.28 146,-147.23 142.86,-137.11 137.23,-141.28"/>
<text text-anchor="middle" x="142.5" y="-121" font-family="Helvetica,sans-Serif" font-size="10.00"> self</text>
</g>
</g>
</svg>
