<?xml version="1.0" encoding="UTF-8" standalone="no"?>
<!DOCTYPE svg PUBLIC "-//W3C//DTD SVG 1.1//EN"
 "http://www.w3.org/Graphics/SVG/1.1/DTD/svg11.dtd">
<!-- Generated by graphviz version 2.43.0 (0)
 -->
<!-- Title: discord_edit_original_interaction_response Pages: 1 -->
<svg width="536pt" height="106pt"
 viewBox="0.00 0.00 535.50 106.00" xmlns="http://www.w3.org/2000/svg" xmlns:xlink="http://www.w3.org/1999/xlink">
<g id="graph0" class="graph" transform="scale(1 1) rotate(0) translate(4 102)">
<title>discord_edit_original_interaction_response</title>
<!-- Node1 -->
<g id="node1" class="node">
<title>Node1</title>
<g id="a_node1"><a xlink:title=" ">
<polygon fill="#bfbfbf" stroke="black" points="196,-0.5 196,-30.5 320,-30.5 320,-0.5 196,-0.5"/>
<text text-anchor="start" x="204" y="-18.5" font-family="Helvetica,sans-Serif" font-size="10.00">discord_edit_original</text>
<text text-anchor="middle" x="258" y="-7.5" font-family="Helvetica,sans-Serif" font-size="10.00">_interaction_response</text>
</a>
</g>
</g>
<!-- Node2 -->
<g id="node2" class="node">
<title>Node2</title>
<g id="a_node2"><a xlink:href="structdiscord__embeds.html" target="_top" xlink:title=" ">
<polygon fill="none" stroke="red" points="0,-78.5 0,-97.5 96,-97.5 96,-78.5 0,-78.5"/>
<text text-anchor="middle" x="48" y="-85.5" font-family="Helvetica,sans-Serif" font-size="10.00">discord_embeds</text>
</a>
</g>
</g>
<!-- Node2&#45;&gt;Node1 -->
<g id="edge1" class="edge">
<title>Node2&#45;&gt;Node1</title>
<path fill="none" stroke="#9a32cd" stroke-dasharray="5,2" d="M82.19,-75.17C104.12,-67.61 133.21,-57.65 159,-49 177.18,-42.9 197.28,-36.28 214.59,-30.62"/>
<polygon fill="#9a32cd" stroke="#9a32cd" points="80.97,-71.89 72.66,-78.46 83.25,-78.51 80.97,-71.89"/>
<text text-anchor="middle" x="180.5" y="-52" font-family="Helvetica,sans-Serif" font-size="10.00"> embeds</text>
</g>
<!-- Node12 -->
<g id="node3" class="node">
<title>Node12</title>
<g id="a_node3"><a xlink:href="structdiscord__allowed__mention.html" target="_top" xlink:title=" ">
<polygon fill="none" stroke="red" points="114.5,-78.5 114.5,-97.5 255.5,-97.5 255.5,-78.5 114.5,-78.5"/>
<text text-anchor="middle" x="185" y="-85.5" font-family="Helvetica,sans-Serif" font-size="10.00">discord_allowed_mention</text>
</a>
</g>
</g>
<!-- Node12&#45;&gt;Node1 -->
<g id="edge2" class="edge">
<title>Node12&#45;&gt;Node1</title>
<path fill="none" stroke="#9a32cd" stroke-dasharray="5,2" d="M197.76,-70.41C203.37,-63.51 210.21,-55.59 217,-49 223.65,-42.55 231.51,-36.08 238.56,-30.63"/>
<polygon fill="#9a32cd" stroke="#9a32cd" points="194.88,-68.41 191.41,-78.43 200.36,-72.75 194.88,-68.41"/>
<text text-anchor="middle" x="263.5" y="-52" font-family="Helvetica,sans-Serif" font-size="10.00"> allowed_mentions</text>
</g>
<!-- Node15 -->
<g id="node4" class="node">
<title>Node15</title>
<g id="a_node4"><a xlink:href="structdiscord__components.html" target="_top" xlink:title=" ">
<polygon fill="none" stroke="red" points="273.5,-78.5 273.5,-97.5 390.5,-97.5 390.5,-78.5 273.5,-78.5"/>
<text text-anchor="middle" x="332" y="-85.5" font-family="Helvetica,sans-Serif" font-size="10.00">discord_components</text>
</a>
</g>
</g>
<!-- Node15&#45;&gt;Node1 -->
<g id="edge3" class="edge">
<title>Node15&#45;&gt;Node1</title>
<path fill="none" stroke="#9a32cd" stroke-dasharray="5,2" d="M323.99,-69.16C320.37,-62.35 315.62,-54.82 310,-49 303.12,-41.88 294.37,-35.65 286.03,-30.59"/>
<polygon fill="#9a32cd" stroke="#9a32cd" points="320.95,-70.91 328.48,-78.36 327.24,-67.84 320.95,-70.91"/>
<text text-anchor="middle" x="350" y="-52" font-family="Helvetica,sans-Serif" font-size="10.00"> components</text>
</g>
<!-- Node21 -->
<g id="node5" class="node">
<title>Node21</title>
<g id="a_node5"><a xlink:href="structdiscord__attachments.html" target="_top" xlink:title=" ">
<polygon fill="none" stroke="red" points="408.5,-78.5 408.5,-97.5 527.5,-97.5 527.5,-78.5 408.5,-78.5"/>
<text text-anchor="middle" x="468" y="-85.5" font-family="Helvetica,sans-Serif" font-size="10.00">discord_attachments</text>
</a>
</g>
</g>
<!-- Node21&#45;&gt;Node1 -->
<g id="edge4" class="edge">
<title>Node21&#45;&gt;Node1</title>
<path fill="none" stroke="#9a32cd" stroke-dasharray="5,2" d="M442.54,-73.71C426.6,-65.77 405.47,-55.92 386,-49 364.94,-41.52 341.35,-35.02 320.22,-29.84"/>
<polygon fill="#9a32cd" stroke="#9a32cd" points="441.23,-76.97 451.73,-78.36 444.39,-70.72 441.23,-76.97"/>
<text text-anchor="middle" x="443.5" y="-52" font-family="Helvetica,sans-Serif" font-size="10.00"> attachments</text>
</g>
</g>
</svg>
