<?xml version="1.0" encoding="UTF-8" standalone="no"?>
<!DOCTYPE svg PUBLIC "-//W3C//DTD SVG 1.1//EN"
 "http://www.w3.org/Graphics/SVG/1.1/DTD/svg11.dtd">
<!-- Generated by graphviz version 2.43.0 (0)
 -->
<!-- Title: discord_context Pages: 1 -->
<svg width="210pt" height="95pt"
 viewBox="0.00 0.00 209.50 95.00" xmlns="http://www.w3.org/2000/svg" xmlns:xlink="http://www.w3.org/1999/xlink">
<g id="graph0" class="graph" transform="scale(1 1) rotate(0) translate(4 91)">
<title>discord_context</title>
<!-- Node1 -->
<g id="node1" class="node">
<title>Node1</title>
<g id="a_node1"><a xlink:title="Context of individual requests that are scheduled to run asynchronously.">
<polygon fill="#bfbfbf" stroke="black" points="55,-0.5 55,-19.5 149,-19.5 149,-0.5 55,-0.5"/>
<text text-anchor="middle" x="102" y="-7.5" font-family="Helvetica,sans-Serif" font-size="10.00">discord_context</text>
</a>
</g>
</g>
<!-- Node2 -->
<g id="node2" class="node">
<title>Node2</title>
<g id="a_node2"><a xlink:href="structdiscord__request.html" target="_top" xlink:title="Behavior of request return struct.">
<polygon fill="none" stroke="red" points="0,-67.5 0,-86.5 94,-86.5 94,-67.5 0,-67.5"/>
<text text-anchor="middle" x="47" y="-74.5" font-family="Helvetica,sans-Serif" font-size="10.00">discord_request</text>
</a>
</g>
</g>
<!-- Node2&#45;&gt;Node1 -->
<g id="edge1" class="edge">
<title>Node2&#45;&gt;Node1</title>
<path fill="none" stroke="#9a32cd" stroke-dasharray="5,2" d="M61.16,-59.27C71.88,-46.6 86.18,-29.7 94.7,-19.63"/>
<polygon fill="#9a32cd" stroke="#9a32cd" points="58.21,-57.34 54.42,-67.23 63.55,-61.86 58.21,-57.34"/>
<text text-anchor="middle" x="87.5" y="-41" font-family="Helvetica,sans-Serif" font-size="10.00"> req</text>
</g>
<!-- Node7 -->
<g id="node3" class="node">
<title>Node7</title>
<g id="a_node3"><a xlink:href="structdiscord__bucket.html" target="_top" xlink:title="The bucket struct for handling ratelimiting.">
<polygon fill="none" stroke="black" points="112.5,-67.5 112.5,-86.5 201.5,-86.5 201.5,-67.5 112.5,-67.5"/>
<text text-anchor="middle" x="157" y="-74.5" font-family="Helvetica,sans-Serif" font-size="10.00">discord_bucket</text>
</a>
</g>
</g>
<!-- Node7&#45;&gt;Node1 -->
<g id="edge2" class="edge">
<title>Node7&#45;&gt;Node1</title>
<path fill="none" stroke="#9a32cd" stroke-dasharray="5,2" d="M142.84,-59.27C132.12,-46.6 117.82,-29.7 109.3,-19.63"/>
<polygon fill="#9a32cd" stroke="#9a32cd" points="140.45,-61.86 149.58,-67.23 145.79,-57.34 140.45,-61.86"/>
<text text-anchor="middle" x="150" y="-41" font-family="Helvetica,sans-Serif" font-size="10.00"> bucket</text>
</g>
</g>
</svg>
