<?xml version="1.0" encoding="UTF-8" standalone="no"?>
<!DOCTYPE svg PUBLIC "-//W3C//DTD SVG 1.1//EN"
 "http://www.w3.org/Graphics/SVG/1.1/DTD/svg11.dtd">
<!-- Generated by graphviz version 2.43.0 (0)
 -->
<!-- Title: discord Pages: 1 -->
<svg width="674pt" height="429pt"
 viewBox="0.00 0.00 674.00 428.75" xmlns="http://www.w3.org/2000/svg" xmlns:xlink="http://www.w3.org/1999/xlink">
<g id="graph0" class="graph" transform="scale(1 1) rotate(0) translate(4 424.75)">
<title>discord</title>
<!-- Node1 -->
<g id="node1" class="node">
<title>Node1</title>
<g id="a_node1"><a xlink:title="The Discord client handler.">
<polygon fill="#bfbfbf" stroke="black" points="359,-172.25 359,-191.25 411,-191.25 411,-172.25 359,-172.25"/>
<text text-anchor="middle" x="385" y="-179.25" font-family="Helvetica,sans-Serif" font-size="10.00">discord</text>
</a>
</g>
</g>
<!-- Node7 -->
<g id="node5" class="node">
<title>Node7</title>
<g id="a_node5"><a xlink:href="structdiscord__message__commands.html" target="_top" xlink:title="The handle for storing user&#39;s message commands.">
<polygon fill="none" stroke="black" points="505,-46.25 505,-65.25 666,-65.25 666,-46.25 505,-46.25"/>
<text text-anchor="middle" x="585.5" y="-53.25" font-family="Helvetica,sans-Serif" font-size="10.00">discord_message_commands</text>
</a>
</g>
</g>
<!-- Node1&#45;&gt;Node7 -->
<g id="edge8" class="edge">
<title>Node1&#45;&gt;Node7</title>
<path fill="none" stroke="#9a32cd" stroke-dasharray="5,2" d="M392.03,-162.21C398.46,-144.51 410.33,-118.95 429,-103.75 453.54,-83.78 486.37,-72.09 515.54,-65.27"/>
<polygon fill="#9a32cd" stroke="#9a32cd" points="388.59,-161.46 388.72,-172.05 395.23,-163.69 388.59,-161.46"/>
<text text-anchor="middle" x="458" y="-106.75" font-family="Helvetica,sans-Serif" font-size="10.00"> fallback</text>
</g>
<!-- Node20 -->
<g id="node10" class="node">
<title>Node20</title>
<g id="a_node10"><a xlink:href="structdiscord__gateway.html" target="_top" xlink:title="The handle used for interfacing with Discord&#39;s Gateway API.">
<polygon fill="none" stroke="red" points="536,-206.25 536,-225.25 635,-225.25 635,-206.25 536,-206.25"/>
<text text-anchor="middle" x="585.5" y="-213.25" font-family="Helvetica,sans-Serif" font-size="10.00">discord_gateway</text>
</a>
</g>
</g>
<!-- Node1&#45;&gt;Node20 -->
<g id="edge16" class="edge">
<title>Node1&#45;&gt;Node20</title>
<path fill="none" stroke="#9a32cd" stroke-dasharray="5,2" d="M421.28,-192C423.89,-192.63 426.48,-193.23 429,-193.75 464.49,-201.18 505.08,-206.83 535.88,-210.54"/>
<polygon fill="#9a32cd" stroke="#9a32cd" points="421.89,-188.54 411.33,-189.42 420.13,-195.32 421.89,-188.54"/>
<text text-anchor="middle" x="458" y="-216.75" font-family="Helvetica,sans-Serif" font-size="10.00"> cbs</text>
<text text-anchor="middle" x="458" y="-205.75" font-family="Helvetica,sans-Serif" font-size="10.00">scheduler</text>
</g>
<!-- Node2 -->
<g id="node2" class="node">
<title>Node2</title>
<g id="a_node2"><a xlink:href="structlogmod__logger.html" target="_top" xlink:title="Immutable logger structure.">
<polygon fill="none" stroke="red" points="0,-208.25 0,-227.25 89,-227.25 89,-208.25 0,-208.25"/>
<text text-anchor="middle" x="44.5" y="-215.25" font-family="Helvetica,sans-Serif" font-size="10.00">logmod_logger</text>
</a>
</g>
</g>
<!-- Node2&#45;&gt;Node1 -->
<g id="edge1" class="edge">
<title>Node2&#45;&gt;Node1</title>
<path fill="none" stroke="#9a32cd" stroke-dasharray="5,2" d="M99.17,-227.4C144.5,-234.22 211.1,-241.11 269,-234.75 301.58,-231.18 311.69,-233.44 341,-218.75 354.56,-211.96 367.37,-199.95 375.42,-191.46"/>
<polygon fill="#9a32cd" stroke="#9a32cd" points="99.68,-223.94 89.26,-225.86 98.61,-230.86 99.68,-223.94"/>
<text text-anchor="middle" x="215.5" y="-250.75" font-family="Helvetica,sans-Serif" font-size="10.00"> logger</text>
<text text-anchor="middle" x="215.5" y="-239.75" font-family="Helvetica,sans-Serif" font-size="10.00">table</text>
</g>
<!-- Node5 -->
<g id="node3" class="node">
<title>Node5</title>
<g id="a_node3"><a xlink:href="structlogmod.html" target="_top" xlink:title="Main logging context structure.">
<polygon fill="none" stroke="red" points="189,-168.25 189,-187.25 242,-187.25 242,-168.25 189,-168.25"/>
<text text-anchor="middle" x="215.5" y="-175.25" font-family="Helvetica,sans-Serif" font-size="10.00">logmod</text>
</a>
</g>
</g>
<!-- Node2&#45;&gt;Node5 -->
<g id="edge3" class="edge">
<title>Node2&#45;&gt;Node5</title>
<path fill="none" stroke="#9a32cd" stroke-dasharray="5,2" d="M96.04,-205.79C126.59,-198.56 164.25,-189.65 188.79,-183.84"/>
<polygon fill="#9a32cd" stroke="#9a32cd" points="94.9,-202.46 85.98,-208.17 96.52,-209.28 94.9,-202.46"/>
<text text-anchor="middle" x="125.5" y="-215.75" font-family="Helvetica,sans-Serif" font-size="10.00"> lock</text>
<text text-anchor="middle" x="125.5" y="-204.75" font-family="Helvetica,sans-Serif" font-size="10.00">loggers</text>
</g>
<!-- Node2&#45;&gt;Node7 -->
<g id="edge6" class="edge">
<title>Node2&#45;&gt;Node7</title>
<path fill="none" stroke="#9a32cd" stroke-dasharray="5,2" d="M50.97,-198.58C63.29,-159.45 97.32,-71.15 162,-35.75 295.99,37.57 491.16,-21.46 559.64,-46.17"/>
<polygon fill="#9a32cd" stroke="#9a32cd" points="47.6,-197.64 48.06,-208.22 54.3,-199.66 47.6,-197.64"/>
<text text-anchor="middle" x="314" y="-4.75" font-family="Helvetica,sans-Serif" font-size="10.00"> logger</text>
</g>
<!-- Node9 -->
<g id="node7" class="node">
<title>Node9</title>
<g id="a_node7"><a xlink:href="structdiscord__refcounter.html" target="_top" xlink:title="Automatically cleanup user data.">
<polygon fill="none" stroke="black" points="162,-92.25 162,-111.25 269,-111.25 269,-92.25 162,-92.25"/>
<text text-anchor="middle" x="215.5" y="-99.25" font-family="Helvetica,sans-Serif" font-size="10.00">discord_refcounter</text>
</a>
</g>
</g>
<!-- Node2&#45;&gt;Node9 -->
<g id="edge10" class="edge">
<title>Node2&#45;&gt;Node9</title>
<path fill="none" stroke="#9a32cd" stroke-dasharray="5,2" d="M61.88,-200.89C83.23,-179.7 122.53,-143.4 162,-120.75 168.39,-117.09 175.61,-113.92 182.61,-111.29"/>
<polygon fill="#9a32cd" stroke="#9a32cd" points="59.17,-198.64 54.61,-208.21 64.14,-203.58 59.17,-198.64"/>
<text text-anchor="middle" x="125.5" y="-161.75" font-family="Helvetica,sans-Serif" font-size="10.00"> logger</text>
</g>
<!-- Node10 -->
<g id="node8" class="node">
<title>Node10</title>
<g id="a_node8"><a xlink:href="structdiscord__rest.html" target="_top" xlink:title="The handle used for interfacing with Discord&#39;s REST API.">
<polygon fill="none" stroke="red" points="177.5,-302.25 177.5,-321.25 253.5,-321.25 253.5,-302.25 177.5,-302.25"/>
<text text-anchor="middle" x="215.5" y="-309.25" font-family="Helvetica,sans-Serif" font-size="10.00">discord_rest</text>
</a>
</g>
</g>
<!-- Node2&#45;&gt;Node10 -->
<g id="edge12" class="edge">
<title>Node2&#45;&gt;Node10</title>
<path fill="none" stroke="#9a32cd" stroke-dasharray="5,2" d="M63.06,-234.38C74.83,-244.91 91.04,-258.28 107,-267.75 131.8,-282.47 162.44,-294.47 184.65,-302.2"/>
<polygon fill="#9a32cd" stroke="#9a32cd" points="65.41,-231.79 55.68,-227.63 60.69,-236.96 65.41,-231.79"/>
<text text-anchor="middle" x="125.5" y="-288.75" font-family="Helvetica,sans-Serif" font-size="10.00"> logger</text>
</g>
<!-- Node2&#45;&gt;Node20 -->
<g id="edge15" class="edge">
<title>Node2&#45;&gt;Node20</title>
<path fill="none" stroke="#9a32cd" stroke-dasharray="5,2" d="M49.22,-237.4C55.61,-265 71.58,-314.27 107,-335.75 121.06,-344.28 127.56,-336.08 144,-335.75 199.59,-334.64 213.77,-337.19 269,-330.75 388.58,-316.82 520.53,-250.54 567.09,-225.43"/>
<polygon fill="#9a32cd" stroke="#9a32cd" points="52.59,-236.42 47.09,-227.36 45.74,-237.86 52.59,-236.42"/>
<text text-anchor="middle" x="314" y="-330.75" font-family="Helvetica,sans-Serif" font-size="10.00"> logger</text>
</g>
<!-- Node5&#45;&gt;Node1 -->
<g id="edge2" class="edge">
<title>Node5&#45;&gt;Node1</title>
<path fill="none" stroke="#9a32cd" stroke-dasharray="5,2" d="M252.61,-178.62C284.7,-179.38 330.79,-180.48 358.99,-181.16"/>
<polygon fill="#9a32cd" stroke="#9a32cd" points="252.39,-175.11 242.3,-178.37 252.22,-182.11 252.39,-175.11"/>
<text text-anchor="middle" x="314" y="-182.75" font-family="Helvetica,sans-Serif" font-size="10.00"> logmod</text>
</g>
<!-- Node6 -->
<g id="node4" class="node">
<title>Node6</title>
<g id="a_node4"><a xlink:href="structdiscord__config.html" target="_top" xlink:title="The Discord configuration handler.">
<polygon fill="none" stroke="black" points="172.5,-130.25 172.5,-149.25 258.5,-149.25 258.5,-130.25 172.5,-130.25"/>
<text text-anchor="middle" x="215.5" y="-137.25" font-family="Helvetica,sans-Serif" font-size="10.00">discord_config</text>
</a>
</g>
</g>
<!-- Node6&#45;&gt;Node1 -->
<g id="edge4" class="edge">
<title>Node6&#45;&gt;Node1</title>
<path fill="none" stroke="#9a32cd" stroke-dasharray="5,2" d="M268.57,-147.33C291.1,-151.24 317.61,-156.69 341,-163.75 348.44,-166 356.34,-169.09 363.32,-172.08"/>
<polygon fill="#9a32cd" stroke="#9a32cd" points="268.96,-143.85 258.52,-145.64 267.8,-150.75 268.96,-143.85"/>
<text text-anchor="middle" x="314" y="-166.75" font-family="Helvetica,sans-Serif" font-size="10.00"> config</text>
</g>
<!-- Node7&#45;&gt;Node1 -->
<g id="edge5" class="edge">
<title>Node7&#45;&gt;Node1</title>
<path fill="none" stroke="#9a32cd" stroke-dasharray="5,2" d="M560.89,-70.74C519.67,-96.9 435.68,-150.22 401.25,-172.08"/>
<polygon fill="#9a32cd" stroke="#9a32cd" points="562.91,-73.61 569.47,-65.29 559.15,-67.7 562.91,-73.61"/>
<text text-anchor="middle" x="458" y="-153.75" font-family="Helvetica,sans-Serif" font-size="10.00"> commands</text>
</g>
<!-- Node8 -->
<g id="node6" class="node">
<title>Node8</title>
<g id="a_node6"><a xlink:href="structccord__szbuf.html" target="_top" xlink:title="Generic sized buffer.">
<polygon fill="none" stroke="black" points="178.5,-45.25 178.5,-64.25 252.5,-64.25 252.5,-45.25 178.5,-45.25"/>
<text text-anchor="middle" x="215.5" y="-52.25" font-family="Helvetica,sans-Serif" font-size="10.00">ccord_szbuf</text>
</a>
</g>
</g>
<!-- Node8&#45;&gt;Node1 -->
<g id="edge19" class="edge">
<title>Node8&#45;&gt;Node1</title>
<path fill="none" stroke="#9a32cd" stroke-dasharray="5,2" d="M262.41,-62.37C287.95,-68.56 318.94,-79.55 341,-98.75 364.26,-119 376.68,-154.91 381.54,-172.08"/>
<polygon fill="#9a32cd" stroke="#9a32cd" points="263.09,-58.93 252.56,-60.15 261.55,-65.76 263.09,-58.93"/>
<text text-anchor="middle" x="314" y="-101.75" font-family="Helvetica,sans-Serif" font-size="10.00"> file</text>
</g>
<!-- Node8&#45;&gt;Node7 -->
<g id="edge7" class="edge">
<title>Node8&#45;&gt;Node7</title>
<path fill="none" stroke="#9a32cd" stroke-dasharray="5,2" d="M262.84,-54.88C323.53,-55.04 430.88,-55.34 504.76,-55.54"/>
<polygon fill="#9a32cd" stroke="#9a32cd" points="262.8,-51.38 252.79,-54.85 262.78,-58.38 262.8,-51.38"/>
<text text-anchor="middle" x="385" y="-57.75" font-family="Helvetica,sans-Serif" font-size="10.00"> prefix</text>
</g>
<!-- Node9&#45;&gt;Node1 -->
<g id="edge9" class="edge">
<title>Node9&#45;&gt;Node1</title>
<path fill="none" stroke="#9a32cd" stroke-dasharray="5,2" d="M279.04,-111.73C299.76,-116.84 322.29,-124.46 341,-135.75 356.54,-145.13 370.01,-161.69 377.55,-172.17"/>
<polygon fill="#9a32cd" stroke="#9a32cd" points="279.57,-108.26 269.04,-109.42 278,-115.08 279.57,-108.26"/>
<text text-anchor="middle" x="314" y="-138.75" font-family="Helvetica,sans-Serif" font-size="10.00"> refcounter</text>
</g>
<!-- Node10&#45;&gt;Node1 -->
<g id="edge11" class="edge">
<title>Node10&#45;&gt;Node1</title>
<path fill="none" stroke="#9a32cd" stroke-dasharray="5,2" d="M263.79,-307.62C289.19,-303.23 319.58,-294.22 341,-275.75 367.5,-252.9 378.58,-210.32 382.35,-191.33"/>
<polygon fill="#9a32cd" stroke="#9a32cd" points="262.97,-304.21 253.62,-309.19 264.03,-311.13 262.97,-304.21"/>
<text text-anchor="middle" x="314" y="-304.75" font-family="Helvetica,sans-Serif" font-size="10.00"> rest</text>
</g>
<!-- Node18 -->
<g id="node9" class="node">
<title>Node18</title>
<g id="a_node9"><a xlink:href="structdiscord__timers.html" target="_top" xlink:title=" ">
<polygon fill="none" stroke="red" points="0,-350.25 0,-369.25 89,-369.25 89,-350.25 0,-350.25"/>
<text text-anchor="middle" x="44.5" y="-357.25" font-family="Helvetica,sans-Serif" font-size="10.00">discord_timers</text>
</a>
</g>
</g>
<!-- Node18&#45;&gt;Node1 -->
<g id="edge18" class="edge">
<title>Node18&#45;&gt;Node1</title>
<path fill="none" stroke="#9a32cd" stroke-dasharray="5,2" d="M79.5,-372.8C139.44,-393.37 264.77,-425.14 341,-364.75 368.76,-342.76 380.35,-226.56 383.24,-191.67"/>
<polygon fill="#9a32cd" stroke="#9a32cd" points="80.37,-369.4 69.77,-369.36 78.04,-376 80.37,-369.4"/>
<text text-anchor="middle" x="215.5" y="-412.75" font-family="Helvetica,sans-Serif" font-size="10.00"> internal</text>
<text text-anchor="middle" x="215.5" y="-401.75" font-family="Helvetica,sans-Serif" font-size="10.00">user</text>
</g>
<!-- Node18&#45;&gt;Node10 -->
<g id="edge13" class="edge">
<title>Node18&#45;&gt;Node10</title>
<path fill="none" stroke="#9a32cd" stroke-dasharray="5,2" d="M89.02,-347.39C117.6,-339.28 154.41,-328.82 180.77,-321.33"/>
<polygon fill="#9a32cd" stroke="#9a32cd" points="87.96,-344.06 79.29,-350.16 89.87,-350.79 87.96,-344.06"/>
<text text-anchor="middle" x="125.5" y="-343.75" font-family="Helvetica,sans-Serif" font-size="10.00"> timers</text>
</g>
<!-- Node20&#45;&gt;Node1 -->
<g id="edge14" class="edge">
<title>Node20&#45;&gt;Node1</title>
<path fill="none" stroke="#9a32cd" stroke-dasharray="5,2" d="M553.66,-202.51C534.8,-195.13 509.95,-186.65 487,-182.75 461.41,-178.41 431.65,-178.75 411.1,-179.82"/>
<polygon fill="#9a32cd" stroke="#9a32cd" points="552.36,-205.76 562.94,-206.25 554.97,-199.27 552.36,-205.76"/>
<text text-anchor="middle" x="458" y="-185.75" font-family="Helvetica,sans-Serif" font-size="10.00"> gw</text>
</g>
<!-- Node24 -->
<g id="node11" class="node">
<title>Node24</title>
<g id="a_node11"><a xlink:href="structdiscord__cache.html" target="_top" xlink:title="The Discord Cache control handler.">
<polygon fill="none" stroke="black" points="172.5,-206.25 172.5,-225.25 258.5,-225.25 258.5,-206.25 172.5,-206.25"/>
<text text-anchor="middle" x="215.5" y="-213.25" font-family="Helvetica,sans-Serif" font-size="10.00">discord_cache</text>
</a>
</g>
</g>
<!-- Node24&#45;&gt;Node1 -->
<g id="edge17" class="edge">
<title>Node24&#45;&gt;Node1</title>
<path fill="none" stroke="#9a32cd" stroke-dasharray="5,2" d="M268.74,-207.68C291.1,-203.93 317.43,-199.11 341,-193.75 346.74,-192.45 352.87,-190.86 358.64,-189.27"/>
<polygon fill="#9a32cd" stroke="#9a32cd" points="268.07,-204.25 258.77,-209.33 269.21,-211.15 268.07,-204.25"/>
<text text-anchor="middle" x="314" y="-206.75" font-family="Helvetica,sans-Serif" font-size="10.00"> cache</text>
</g>
</g>
</svg>
