<?xml version="1.0" encoding="UTF-8" standalone="no"?>
<!DOCTYPE svg PUBLIC "-//W3C//DTD SVG 1.1//EN"
 "http://www.w3.org/Graphics/SVG/1.1/DTD/svg11.dtd">
<!-- Generated by graphviz version 2.43.0 (0)
 -->
<!-- Title: discord_message_commands Pages: 1 -->
<svg width="176pt" height="175pt"
 viewBox="0.00 0.00 175.50 175.00" xmlns="http://www.w3.org/2000/svg" xmlns:xlink="http://www.w3.org/1999/xlink">
<g id="graph0" class="graph" transform="scale(1 1) rotate(0) translate(4 171)">
<title>discord_message_commands</title>
<!-- Node1 -->
<g id="node1" class="node">
<title>Node1</title>
<g id="a_node1"><a xlink:title="The handle for storing user&#39;s message commands.">
<polygon fill="#bfbfbf" stroke="black" points="0,-80.5 0,-99.5 161,-99.5 161,-80.5 0,-80.5"/>
<text text-anchor="middle" x="80.5" y="-87.5" font-family="Helvetica,sans-Serif" font-size="10.00">discord_message_commands</text>
</a>
</g>
</g>
<!-- Node3 -->
<g id="node3" class="node">
<title>Node3</title>
<g id="a_node3"><a xlink:href="structdiscord.html" target="_top" xlink:title="The Discord client handler.">
<polygon fill="none" stroke="red" points="54.5,-7 54.5,-26 106.5,-26 106.5,-7 54.5,-7"/>
<text text-anchor="middle" x="80.5" y="-14" font-family="Helvetica,sans-Serif" font-size="10.00">discord</text>
</a>
</g>
</g>
<!-- Node1&#45;&gt;Node3 -->
<g id="edge3" class="edge">
<title>Node1&#45;&gt;Node3</title>
<path fill="none" stroke="#9a32cd" stroke-dasharray="5,2" d="M49.66,-75.18C44.78,-71.6 40.4,-67.24 37.5,-62 29.44,-47.43 46.91,-34.19 61.94,-26.01"/>
<polygon fill="#9a32cd" stroke="#9a32cd" points="47.83,-78.16 58.17,-80.48 51.53,-72.22 47.83,-78.16"/>
<text text-anchor="middle" x="66.5" y="-54" font-family="Helvetica,sans-Serif" font-size="10.00"> commands</text>
</g>
<!-- Node2 -->
<g id="node2" class="node">
<title>Node2</title>
<g id="a_node2"><a xlink:href="structccord__szbuf.html" target="_top" xlink:title="Generic sized buffer.">
<polygon fill="none" stroke="black" points="43.5,-147.5 43.5,-166.5 117.5,-166.5 117.5,-147.5 43.5,-147.5"/>
<text text-anchor="middle" x="80.5" y="-154.5" font-family="Helvetica,sans-Serif" font-size="10.00">ccord_szbuf</text>
</a>
</g>
</g>
<!-- Node2&#45;&gt;Node1 -->
<g id="edge1" class="edge">
<title>Node2&#45;&gt;Node1</title>
<path fill="none" stroke="#9a32cd" stroke-dasharray="5,2" d="M80.5,-137.04C80.5,-124.67 80.5,-109.12 80.5,-99.63"/>
<polygon fill="#9a32cd" stroke="#9a32cd" points="77,-137.23 80.5,-147.23 84,-137.23 77,-137.23"/>
<text text-anchor="middle" x="96" y="-121" font-family="Helvetica,sans-Serif" font-size="10.00"> prefix</text>
</g>
<!-- Node3&#45;&gt;Node1 -->
<g id="edge2" class="edge">
<title>Node3&#45;&gt;Node1</title>
<path fill="none" stroke="#9a32cd" stroke-dasharray="5,2" d="M93.94,-34.48C98.8,-42.66 102.45,-52.69 99.5,-62 97.35,-68.78 92.83,-75.32 88.73,-80.27"/>
<polygon fill="#9a32cd" stroke="#9a32cd" points="96.78,-32.43 88.22,-26.17 91.01,-36.4 96.78,-32.43"/>
<text text-anchor="middle" x="122" y="-54" font-family="Helvetica,sans-Serif" font-size="10.00"> fallback</text>
</g>
<!-- Node3&#45;&gt;Node3 -->
<g id="edge4" class="edge">
<title>Node3&#45;&gt;Node3</title>
<path fill="none" stroke="#9a32cd" stroke-dasharray="5,2" d="M116.97,-23.02C121.52,-21.86 124.5,-19.69 124.5,-16.5 124.5,-11.27 116.46,-8.77 106.7,-9.02"/>
<polygon fill="#9a32cd" stroke="#9a32cd" points="116.33,-19.56 106.7,-23.98 116.98,-26.53 116.33,-19.56"/>
<text text-anchor="middle" x="146" y="-25" font-family="Helvetica,sans-Serif" font-size="10.00"> cb</text>
<text text-anchor="middle" x="146" y="-14" font-family="Helvetica,sans-Serif" font-size="10.00">on_cycle</text>
<text text-anchor="middle" x="146" y="-3" font-family="Helvetica,sans-Serif" font-size="10.00">on_idle</text>
</g>
</g>
</svg>
