<?xml version="1.0" encoding="UTF-8" standalone="no"?>
<!DOCTYPE svg PUBLIC "-//W3C//DTD SVG 1.1//EN"
 "http://www.w3.org/Graphics/SVG/1.1/DTD/svg11.dtd">
<!-- Generated by graphviz version 2.43.0 (0)
 -->
<!-- Title: logconf Pages: 1 -->
<svg width="180pt" height="95pt"
 viewBox="0.00 0.00 180.00 95.00" xmlns="http://www.w3.org/2000/svg" xmlns:xlink="http://www.w3.org/1999/xlink">
<g id="graph0" class="graph" transform="scale(1 1) rotate(0) translate(4 91)">
<title>logconf</title>
<!-- Node1 -->
<g id="node1" class="node">
<title>Node1</title>
<g id="a_node1"><a xlink:title="A stackful and modularized wrapper over the popular &#39;log.c&#39; facilities.">
<polygon fill="#bfbfbf" stroke="black" points="62.5,-0.5 62.5,-19.5 115.5,-19.5 115.5,-0.5 62.5,-0.5"/>
<text text-anchor="middle" x="89" y="-7.5" font-family="Helvetica,sans-Serif" font-size="10.00">logconf</text>
</a>
</g>
</g>
<!-- Node2 -->
<g id="node2" class="node">
<title>Node2</title>
<g id="a_node2"><a xlink:href="structlogconf__szbuf.html" target="_top" xlink:title="Generic sized&#45;buffer.">
<polygon fill="none" stroke="black" points="0,-67.5 0,-86.5 84,-86.5 84,-67.5 0,-67.5"/>
<text text-anchor="middle" x="42" y="-74.5" font-family="Helvetica,sans-Serif" font-size="10.00">logconf_szbuf</text>
</a>
</g>
</g>
<!-- Node2&#45;&gt;Node1 -->
<g id="edge1" class="edge">
<title>Node2&#45;&gt;Node1</title>
<path fill="none" stroke="#9a32cd" stroke-dasharray="5,2" d="M54.36,-58.9C63.49,-46.27 75.55,-29.6 82.76,-19.63"/>
<polygon fill="#9a32cd" stroke="#9a32cd" points="51.36,-57.08 48.34,-67.23 57.03,-61.18 51.36,-57.08"/>
<text text-anchor="middle" x="78.5" y="-41" font-family="Helvetica,sans-Serif" font-size="10.00"> file</text>
</g>
<!-- Node3 -->
<g id="node3" class="node">
<title>Node3</title>
<g id="a_node3"><a xlink:href="structlog__Logger.html" target="_top" xlink:title=" ">
<polygon fill="none" stroke="red" points="102,-67.5 102,-86.5 172,-86.5 172,-67.5 102,-67.5"/>
<text text-anchor="middle" x="137" y="-74.5" font-family="Helvetica,sans-Serif" font-size="10.00">log_Logger</text>
</a>
</g>
</g>
<!-- Node3&#45;&gt;Node1 -->
<g id="edge2" class="edge">
<title>Node3&#45;&gt;Node1</title>
<path fill="none" stroke="#9a32cd" stroke-dasharray="5,2" d="M124.38,-58.9C115.05,-46.27 102.74,-29.6 95.37,-19.63"/>
<polygon fill="#9a32cd" stroke="#9a32cd" points="121.77,-61.27 130.53,-67.23 127.4,-57.11 121.77,-61.27"/>
<text text-anchor="middle" x="119.5" y="-41" font-family="Helvetica,sans-Serif" font-size="10.00"> L</text>
</g>
</g>
</svg>
