<?xml version="1.0" encoding="UTF-8" standalone="no"?>
<!DOCTYPE svg PUBLIC "-//W3C//DTD SVG 1.1//EN"
 "http://www.w3.org/Graphics/SVG/1.1/DTD/svg11.dtd">
<!-- Generated by graphviz version 2.43.0 (0)
 -->
<!-- Title: discord_adapter Pages: 1 -->
<svg width="242pt" height="95pt"
 viewBox="0.00 0.00 242.00 95.00" xmlns="http://www.w3.org/2000/svg" xmlns:xlink="http://www.w3.org/1999/xlink">
<g id="graph0" class="graph" transform="scale(1 1) rotate(0) translate(4 91)">
<title>discord_adapter</title>
<!-- Node1 -->
<g id="node1" class="node">
<title>Node1</title>
<g id="a_node1"><a xlink:title="The handle used for performing HTTP Requests.">
<polygon fill="#bfbfbf" stroke="black" points="69,-0.5 69,-19.5 164,-19.5 164,-0.5 69,-0.5"/>
<text text-anchor="middle" x="116.5" y="-7.5" font-family="Helvetica,sans-Serif" font-size="10.00">discord_adapter</text>
</a>
</g>
</g>
<!-- Node2 -->
<g id="node2" class="node">
<title>Node2</title>
<g id="a_node2"><a xlink:href="structdiscord__refcounter.html" target="_top" xlink:title="Automatically cleanup user data.">
<polygon fill="none" stroke="black" points="0,-67.5 0,-86.5 107,-86.5 107,-67.5 0,-67.5"/>
<text text-anchor="middle" x="53.5" y="-74.5" font-family="Helvetica,sans-Serif" font-size="10.00">discord_refcounter</text>
</a>
</g>
</g>
<!-- Node2&#45;&gt;Node1 -->
<g id="edge1" class="edge">
<title>Node2&#45;&gt;Node1</title>
<path fill="none" stroke="#9a32cd" stroke-dasharray="5,2" d="M69.01,-60C81.37,-47.25 98.19,-29.89 108.14,-19.63"/>
<polygon fill="#9a32cd" stroke="#9a32cd" points="66.44,-57.62 62,-67.23 71.47,-62.49 66.44,-57.62"/>
<text text-anchor="middle" x="116.5" y="-41" font-family="Helvetica,sans-Serif" font-size="10.00"> refcounter</text>
</g>
<!-- Node3 -->
<g id="node3" class="node">
<title>Node3</title>
<g id="a_node3"><a xlink:href="structdiscord__ratelimiter.html" target="_top" xlink:title="The ratelimiter struct for handling ratelimiting.">
<polygon fill="none" stroke="red" points="125,-67.5 125,-86.5 234,-86.5 234,-67.5 125,-67.5"/>
<text text-anchor="middle" x="179.5" y="-74.5" font-family="Helvetica,sans-Serif" font-size="10.00">discord_ratelimiter</text>
</a>
</g>
</g>
<!-- Node3&#45;&gt;Node1 -->
<g id="edge2" class="edge">
<title>Node3&#45;&gt;Node1</title>
<path fill="none" stroke="#9a32cd" stroke-dasharray="5,2" d="M166.37,-59.3C160.78,-52.48 154.05,-44.66 147.5,-38 141.09,-31.49 133.34,-24.74 127.2,-19.62"/>
<polygon fill="#9a32cd" stroke="#9a32cd" points="163.75,-61.62 172.74,-67.22 169.21,-57.23 163.75,-61.62"/>
<text text-anchor="middle" x="184" y="-41" font-family="Helvetica,sans-Serif" font-size="10.00"> ratelimiter</text>
</g>
</g>
</svg>
