<?xml version="1.0" encoding="UTF-8" standalone="no"?>
<!DOCTYPE svg PUBLIC "-//W3C//DTD SVG 1.1//EN"
 "http://www.w3.org/Graphics/SVG/1.1/DTD/svg11.dtd">
<!-- Generated by graphviz version 2.43.0 (0)
 -->
<!-- Title: discord_application_command_option Pages: 1 -->
<svg width="566pt" height="78pt"
 viewBox="0.00 0.00 566.00 77.50" xmlns="http://www.w3.org/2000/svg" xmlns:xlink="http://www.w3.org/1999/xlink">
<g id="graph0" class="graph" transform="scale(1 1) rotate(0) translate(4 73.5)">
<title>discord_application_command_option</title>
<!-- Node1 -->
<g id="node1" class="node">
<title>Node1</title>
<g id="a_node1"><a xlink:title=" ">
<polygon fill="#bfbfbf" stroke="black" points="259,-17 259,-47 370,-47 370,-17 259,-17"/>
<text text-anchor="start" x="267" y="-35" font-family="Helvetica,sans-Serif" font-size="10.00">discord_application</text>
<text text-anchor="middle" x="314.5" y="-24" font-family="Helvetica,sans-Serif" font-size="10.00">_command_option</text>
</a>
</g>
</g>
<!-- Node4 -->
<g id="node3" class="node">
<title>Node4</title>
<g id="a_node3"><a xlink:href="structdiscord__application__command__options.html" target="_top" xlink:title=" ">
<polygon fill="none" stroke="#bfbfbf" points="446,-17 446,-47 558,-47 558,-17 446,-17"/>
<text text-anchor="start" x="454" y="-35" font-family="Helvetica,sans-Serif" font-size="10.00">discord_application</text>
<text text-anchor="middle" x="502" y="-24" font-family="Helvetica,sans-Serif" font-size="10.00">_command_options</text>
</a>
</g>
</g>
<!-- Node1&#45;&gt;Node4 -->
<g id="edge3" class="edge">
<title>Node1&#45;&gt;Node4</title>
<path fill="none" stroke="#9a32cd" stroke-dasharray="5,2" d="M380.43,-32C401.75,-32 425.24,-32 445.78,-32"/>
<polygon fill="#9a32cd" stroke="#9a32cd" points="380.15,-28.5 370.15,-32 380.15,-35.5 380.15,-28.5"/>
<text text-anchor="middle" x="408" y="-35" font-family="Helvetica,sans-Serif" font-size="10.00"> array</text>
</g>
<!-- Node2 -->
<g id="node2" class="node">
<title>Node2</title>
<g id="a_node2"><a xlink:href="structdiscord__application__command__option__choices.html" target="_top" xlink:title=" ">
<polygon fill="none" stroke="orangered" points="0,-39 0,-69 149,-69 149,-39 0,-39"/>
<text text-anchor="start" x="8" y="-57" font-family="Helvetica,sans-Serif" font-size="10.00">discord_application</text>
<text text-anchor="middle" x="74.5" y="-46" font-family="Helvetica,sans-Serif" font-size="10.00">_command_option_choices</text>
</a>
</g>
</g>
<!-- Node2&#45;&gt;Node1 -->
<g id="edge1" class="edge">
<title>Node2&#45;&gt;Node1</title>
<path fill="none" stroke="#9a32cd" stroke-dasharray="5,2" d="M159.27,-46.26C192.26,-43.21 229.22,-39.79 258.68,-37.07"/>
<polygon fill="#9a32cd" stroke="#9a32cd" points="158.81,-42.78 149.17,-47.19 159.45,-49.75 158.81,-42.78"/>
<text text-anchor="middle" x="204" y="-47" font-family="Helvetica,sans-Serif" font-size="10.00"> choices</text>
</g>
<!-- Node4&#45;&gt;Node1 -->
<g id="edge2" class="edge">
<title>Node4&#45;&gt;Node1</title>
<path fill="none" stroke="#9a32cd" stroke-dasharray="5,2" d="M435.72,-16.97C433.12,-16.6 430.54,-16.28 428,-16 410.33,-14.09 405.67,-14.07 388,-16 382.23,-16.63 376.25,-17.53 370.32,-18.59"/>
<polygon fill="#9a32cd" stroke="#9a32cd" points="435.38,-20.46 445.8,-18.59 436.48,-13.55 435.38,-20.46"/>
<text text-anchor="middle" x="408" y="-19" font-family="Helvetica,sans-Serif" font-size="10.00"> options</text>
</g>
<!-- Node5 -->
<g id="node4" class="node">
<title>Node5</title>
<g id="a_node4"><a xlink:href="structintegers.html" target="_top" xlink:title=" ">
<polygon fill="none" stroke="black" points="46.5,-0.5 46.5,-19.5 102.5,-19.5 102.5,-0.5 46.5,-0.5"/>
<text text-anchor="middle" x="74.5" y="-7.5" font-family="Helvetica,sans-Serif" font-size="10.00">integers</text>
</a>
</g>
</g>
<!-- Node5&#45;&gt;Node1 -->
<g id="edge4" class="edge">
<title>Node5&#45;&gt;Node1</title>
<path fill="none" stroke="#9a32cd" stroke-dasharray="5,2" d="M113.01,-13.34C146.55,-16.34 197.07,-20.89 241,-25 246.79,-25.54 252.84,-26.12 258.87,-26.69"/>
<polygon fill="#9a32cd" stroke="#9a32cd" points="113.01,-9.82 102.74,-12.42 112.39,-16.8 113.01,-9.82"/>
<text text-anchor="middle" x="204" y="-28" font-family="Helvetica,sans-Serif" font-size="10.00"> channel_types</text>
</g>
</g>
</svg>
