<?xml version="1.0" encoding="UTF-8" standalone="no"?>
<!DOCTYPE svg PUBLIC "-//W3C//DTD SVG 1.1//EN"
 "http://www.w3.org/Graphics/SVG/1.1/DTD/svg11.dtd">
<!-- Generated by graphviz version 2.43.0 (0)
 -->
<!-- Title: discord_invite Pages: 1 -->
<svg width="532pt" height="261pt"
 viewBox="0.00 0.00 532.00 260.50" xmlns="http://www.w3.org/2000/svg" xmlns:xlink="http://www.w3.org/1999/xlink">
<g id="graph0" class="graph" transform="scale(1 1) rotate(0) translate(4 256.5)">
<title>discord_invite</title>
<!-- Node1 -->
<g id="node1" class="node">
<title>Node1</title>
<g id="a_node1"><a xlink:title=" ">
<polygon fill="#bfbfbf" stroke="black" points="439,-132 439,-151 524,-151 524,-132 439,-132"/>
<text text-anchor="middle" x="481.5" y="-139" font-family="Helvetica,sans-Serif" font-size="10.00">discord_invite</text>
</a>
</g>
</g>
<!-- Node2 -->
<g id="node2" class="node">
<title>Node2</title>
<g id="a_node2"><a xlink:href="structdiscord__guild.html" target="_top" xlink:title=" ">
<polygon fill="none" stroke="red" points="179.5,-233 179.5,-252 260.5,-252 260.5,-233 179.5,-233"/>
<text text-anchor="middle" x="220" y="-240" font-family="Helvetica,sans-Serif" font-size="10.00">discord_guild</text>
</a>
</g>
</g>
<!-- Node2&#45;&gt;Node1 -->
<g id="edge1" class="edge">
<title>Node2&#45;&gt;Node1</title>
<path fill="none" stroke="#9a32cd" stroke-dasharray="5,2" d="M270.83,-243.06C313.23,-241.5 374.48,-234.31 421,-208.5 446.03,-194.61 465.82,-166.08 474.97,-151.12"/>
<polygon fill="#9a32cd" stroke="#9a32cd" points="270.64,-239.56 260.74,-243.33 270.83,-246.56 270.64,-239.56"/>
<text text-anchor="middle" x="363.5" y="-243.5" font-family="Helvetica,sans-Serif" font-size="10.00"> guild</text>
</g>
<!-- Node16 -->
<g id="node3" class="node">
<title>Node16</title>
<g id="a_node3"><a xlink:href="structdiscord__channel.html" target="_top" xlink:title=" ">
<polygon fill="none" stroke="red" points="172.5,-195 172.5,-214 267.5,-214 267.5,-195 172.5,-195"/>
<text text-anchor="middle" x="220" y="-202" font-family="Helvetica,sans-Serif" font-size="10.00">discord_channel</text>
</a>
</g>
</g>
<!-- Node16&#45;&gt;Node1 -->
<g id="edge2" class="edge">
<title>Node16&#45;&gt;Node1</title>
<path fill="none" stroke="#9a32cd" stroke-dasharray="5,2" d="M277.82,-198.09C318.35,-192.6 373.8,-183.21 421,-168.5 435.4,-164.01 450.9,-156.9 462.47,-151.1"/>
<polygon fill="#9a32cd" stroke="#9a32cd" points="277.31,-194.63 267.86,-199.4 278.23,-201.57 277.31,-194.63"/>
<text text-anchor="middle" x="363.5" y="-196.5" font-family="Helvetica,sans-Serif" font-size="10.00"> channel</text>
</g>
<!-- Node9 -->
<g id="node4" class="node">
<title>Node9</title>
<g id="a_node4"><a xlink:href="structdiscord__user.html" target="_top" xlink:title=" ">
<polygon fill="none" stroke="black" points="0,-99 0,-118 78,-118 78,-99 0,-99"/>
<text text-anchor="middle" x="39" y="-106" font-family="Helvetica,sans-Serif" font-size="10.00">discord_user</text>
</a>
</g>
</g>
<!-- Node9&#45;&gt;Node1 -->
<g id="edge3" class="edge">
<title>Node9&#45;&gt;Node1</title>
<path fill="none" stroke="#9a32cd" stroke-dasharray="5,2" d="M81.56,-120.52C86.4,-121.66 91.29,-122.69 96,-123.5 219.3,-144.82 367.94,-144.58 438.88,-142.92"/>
<polygon fill="#9a32cd" stroke="#9a32cd" points="82.31,-117.1 71.76,-118.08 80.62,-123.89 82.31,-117.1"/>
<text text-anchor="middle" x="220" y="-155.5" font-family="Helvetica,sans-Serif" font-size="10.00"> inviter</text>
<text text-anchor="middle" x="220" y="-144.5" font-family="Helvetica,sans-Serif" font-size="10.00">target_user</text>
</g>
<!-- Node45 -->
<g id="node5" class="node">
<title>Node45</title>
<g id="a_node5"><a xlink:href="structdiscord__application.html" target="_top" xlink:title=" ">
<polygon fill="none" stroke="red" points="164.5,-99 164.5,-118 275.5,-118 275.5,-99 164.5,-99"/>
<text text-anchor="middle" x="220" y="-106" font-family="Helvetica,sans-Serif" font-size="10.00">discord_application</text>
</a>
</g>
</g>
<!-- Node9&#45;&gt;Node45 -->
<g id="edge5" class="edge">
<title>Node9&#45;&gt;Node45</title>
<path fill="none" stroke="#9a32cd" stroke-dasharray="5,2" d="M88.47,-108.5C111.91,-108.5 140.15,-108.5 164.36,-108.5"/>
<polygon fill="#9a32cd" stroke="#9a32cd" points="88.4,-105 78.4,-108.5 88.4,-112 88.4,-105"/>
<text text-anchor="middle" x="115" y="-111.5" font-family="Helvetica,sans-Serif" font-size="10.00"> owner</text>
</g>
<!-- Node43 -->
<g id="node7" class="node">
<title>Node43</title>
<g id="a_node7"><a xlink:href="structdiscord__guild__scheduled__event.html" target="_top" xlink:title=" ">
<polygon fill="none" stroke="red" points="152,-49.5 152,-79.5 288,-79.5 288,-49.5 152,-49.5"/>
<text text-anchor="start" x="160" y="-67.5" font-family="Helvetica,sans-Serif" font-size="10.00">discord_guild_scheduled</text>
<text text-anchor="middle" x="220" y="-56.5" font-family="Helvetica,sans-Serif" font-size="10.00">_event</text>
</a>
</g>
</g>
<!-- Node9&#45;&gt;Node43 -->
<g id="edge8" class="edge">
<title>Node9&#45;&gt;Node43</title>
<path fill="none" stroke="#9a32cd" stroke-dasharray="5,2" d="M84.84,-96.36C88.61,-95.38 92.37,-94.41 96,-93.5 114.62,-88.81 134.88,-83.94 153.48,-79.56"/>
<polygon fill="#9a32cd" stroke="#9a32cd" points="83.69,-93.05 74.91,-98.98 85.47,-99.81 83.69,-93.05"/>
<text text-anchor="middle" x="115" y="-96.5" font-family="Helvetica,sans-Serif" font-size="10.00"> creator</text>
</g>
<!-- Node45&#45;&gt;Node1 -->
<g id="edge4" class="edge">
<title>Node45&#45;&gt;Node1</title>
<path fill="none" stroke="#9a32cd" stroke-dasharray="5,2" d="M285.48,-113.71C324.77,-117.28 375.92,-122.6 421,-129.5 426.83,-130.39 432.96,-131.47 438.98,-132.61"/>
<polygon fill="#9a32cd" stroke="#9a32cd" points="285.78,-110.23 275.5,-112.82 285.15,-117.2 285.78,-110.23"/>
<text text-anchor="middle" x="363.5" y="-132.5" font-family="Helvetica,sans-Serif" font-size="10.00"> target_application</text>
</g>
<!-- Node50 -->
<g id="node6" class="node">
<title>Node50</title>
<g id="a_node6"><a xlink:href="structdiscord__invite__stage__instance.html" target="_top" xlink:title=" ">
<polygon fill="none" stroke="red" points="161.5,-0.5 161.5,-30.5 278.5,-30.5 278.5,-0.5 161.5,-0.5"/>
<text text-anchor="start" x="169.5" y="-18.5" font-family="Helvetica,sans-Serif" font-size="10.00">discord_invite_stage</text>
<text text-anchor="middle" x="220" y="-7.5" font-family="Helvetica,sans-Serif" font-size="10.00">_instance</text>
</a>
</g>
</g>
<!-- Node50&#45;&gt;Node1 -->
<g id="edge6" class="edge">
<title>Node50&#45;&gt;Node1</title>
<path fill="none" stroke="#9a32cd" stroke-dasharray="5,2" d="M288.95,-16.98C330.08,-20.74 381.94,-30.85 421,-56.5 449.91,-75.49 468.92,-113.81 476.62,-131.78"/>
<polygon fill="#9a32cd" stroke="#9a32cd" points="288.99,-13.47 278.74,-16.15 288.42,-20.44 288.99,-13.47"/>
<text text-anchor="middle" x="363.5" y="-59.5" font-family="Helvetica,sans-Serif" font-size="10.00"> stage_instance</text>
</g>
<!-- Node43&#45;&gt;Node1 -->
<g id="edge7" class="edge">
<title>Node43&#45;&gt;Node1</title>
<path fill="none" stroke="#9a32cd" stroke-dasharray="5,2" d="M298.29,-70.67C336.33,-75.63 382.22,-84.53 421,-100.5 439.56,-108.14 458.16,-122.25 469.5,-131.75"/>
<polygon fill="#9a32cd" stroke="#9a32cd" points="298.65,-67.19 288.3,-69.44 297.79,-74.14 298.65,-67.19"/>
<text text-anchor="middle" x="363.5" y="-103.5" font-family="Helvetica,sans-Serif" font-size="10.00"> guild_scheduled_event</text>
</g>
</g>
</svg>
