<?xml version="1.0" encoding="UTF-8" standalone="no"?>
<!DOCTYPE svg PUBLIC "-//W3C//DTD SVG 1.1//EN"
 "http://www.w3.org/Graphics/SVG/1.1/DTD/svg11.dtd">
<!-- Generated by graphviz version 2.43.0 (0)
 -->
<!-- Title: discord_invite_create Pages: 1 -->
<svg width="238pt" height="164pt"
 viewBox="0.00 0.00 238.00 164.00" xmlns="http://www.w3.org/2000/svg" xmlns:xlink="http://www.w3.org/1999/xlink">
<g id="graph0" class="graph" transform="scale(1 1) rotate(0) translate(4 160)">
<title>discord_invite_create</title>
<!-- Node1 -->
<g id="node1" class="node">
<title>Node1</title>
<g id="a_node1"><a xlink:title=" ">
<polygon fill="#bfbfbf" stroke="black" points="0,-0.5 0,-19.5 121,-19.5 121,-0.5 0,-0.5"/>
<text text-anchor="middle" x="60.5" y="-7.5" font-family="Helvetica,sans-Serif" font-size="10.00">discord_invite_create</text>
</a>
</g>
</g>
<!-- Node2 -->
<g id="node2" class="node">
<title>Node2</title>
<g id="a_node2"><a xlink:href="structdiscord__user.html" target="_top" xlink:title=" ">
<polygon fill="none" stroke="black" points="21.5,-136.5 21.5,-155.5 99.5,-155.5 99.5,-136.5 21.5,-136.5"/>
<text text-anchor="middle" x="60.5" y="-143.5" font-family="Helvetica,sans-Serif" font-size="10.00">discord_user</text>
</a>
</g>
</g>
<!-- Node2&#45;&gt;Node1 -->
<g id="edge1" class="edge">
<title>Node2&#45;&gt;Node1</title>
<path fill="none" stroke="#9a32cd" stroke-dasharray="5,2" d="M57.69,-126.32C55.65,-110.52 53.42,-87.3 54.5,-67 55.4,-50.21 57.8,-30.7 59.28,-19.71"/>
<polygon fill="#9a32cd" stroke="#9a32cd" points="54.25,-126.93 59.1,-136.35 61.18,-125.96 54.25,-126.93"/>
<text text-anchor="middle" x="82.5" y="-81" font-family="Helvetica,sans-Serif" font-size="10.00"> inviter</text>
<text text-anchor="middle" x="82.5" y="-70" font-family="Helvetica,sans-Serif" font-size="10.00">target_user</text>
</g>
<!-- Node3 -->
<g id="node3" class="node">
<title>Node3</title>
<g id="a_node3"><a xlink:href="structdiscord__application.html" target="_top" xlink:title=" ">
<polygon fill="none" stroke="red" points="119,-68.5 119,-87.5 230,-87.5 230,-68.5 119,-68.5"/>
<text text-anchor="middle" x="174.5" y="-75.5" font-family="Helvetica,sans-Serif" font-size="10.00">discord_application</text>
</a>
</g>
</g>
<!-- Node2&#45;&gt;Node3 -->
<g id="edge3" class="edge">
<title>Node2&#45;&gt;Node3</title>
<path fill="none" stroke="#9a32cd" stroke-dasharray="5,2" d="M84.09,-131.34C106.78,-118.2 140.39,-98.75 159.59,-87.63"/>
<polygon fill="#9a32cd" stroke="#9a32cd" points="82.3,-128.33 75.4,-136.37 85.81,-134.39 82.3,-128.33"/>
<text text-anchor="middle" x="140.5" y="-110" font-family="Helvetica,sans-Serif" font-size="10.00"> owner</text>
</g>
<!-- Node3&#45;&gt;Node1 -->
<g id="edge2" class="edge">
<title>Node3&#45;&gt;Node1</title>
<path fill="none" stroke="#9a32cd" stroke-dasharray="5,2" d="M150.91,-63.34C128.22,-50.2 94.61,-30.75 75.41,-19.63"/>
<polygon fill="#9a32cd" stroke="#9a32cd" points="149.19,-66.39 159.6,-68.37 152.7,-60.33 149.19,-66.39"/>
<text text-anchor="middle" x="169.5" y="-41" font-family="Helvetica,sans-Serif" font-size="10.00"> target_application</text>
</g>
</g>
</svg>
