<?xml version="1.0" encoding="UTF-8" standalone="no"?>
<!DOCTYPE svg PUBLIC "-//W3C//DTD SVG 1.1//EN"
 "http://www.w3.org/Graphics/SVG/1.1/DTD/svg11.dtd">
<!-- Generated by graphviz version 2.43.0 (0)
 -->
<!-- Title: discord_create_auto_moderation_rule Pages: 1 -->
<svg width="388pt" height="128pt"
 viewBox="0.00 0.00 388.00 127.50" xmlns="http://www.w3.org/2000/svg" xmlns:xlink="http://www.w3.org/1999/xlink">
<g id="graph0" class="graph" transform="scale(1 1) rotate(0) translate(4 123.5)">
<title>discord_create_auto_moderation_rule</title>
<!-- Node1 -->
<g id="node1" class="node">
<title>Node1</title>
<g id="a_node1"><a xlink:title=" ">
<polygon fill="#bfbfbf" stroke="black" points="265,-40 265,-70 380,-70 380,-40 265,-40"/>
<text text-anchor="start" x="273" y="-58" font-family="Helvetica,sans-Serif" font-size="10.00">discord_create_auto</text>
<text text-anchor="middle" x="322.5" y="-47" font-family="Helvetica,sans-Serif" font-size="10.00">_moderation_rule</text>
</a>
</g>
</g>
<!-- Node2 -->
<g id="node2" class="node">
<title>Node2</title>
<g id="a_node2"><a xlink:href="structdiscord__auto__moderation__actions.html" target="_top" xlink:title=" ">
<polygon fill="none" stroke="red" points="0,-89 0,-119 140,-119 140,-89 0,-89"/>
<text text-anchor="start" x="8" y="-107" font-family="Helvetica,sans-Serif" font-size="10.00">discord_auto_moderation</text>
<text text-anchor="middle" x="70" y="-96" font-family="Helvetica,sans-Serif" font-size="10.00">_actions</text>
</a>
</g>
</g>
<!-- Node2&#45;&gt;Node1 -->
<g id="edge1" class="edge">
<title>Node2&#45;&gt;Node1</title>
<path fill="none" stroke="#9a32cd" stroke-dasharray="5,2" d="M150.47,-88.78C180.7,-82.96 215.45,-76.22 247,-70 252.82,-68.85 258.9,-67.64 264.97,-66.43"/>
<polygon fill="#9a32cd" stroke="#9a32cd" points="149.56,-85.4 140.41,-90.72 150.89,-92.27 149.56,-85.4"/>
<text text-anchor="middle" x="202.5" y="-89" font-family="Helvetica,sans-Serif" font-size="10.00"> actions</text>
</g>
<!-- Node5 -->
<g id="node3" class="node">
<title>Node5</title>
<g id="a_node3"><a xlink:href="structdiscord__auto__moderation__trigger__metadata.html" target="_top" xlink:title=" ">
<polygon fill="none" stroke="red" points="0,-40 0,-70 140,-70 140,-40 0,-40"/>
<text text-anchor="start" x="8" y="-58" font-family="Helvetica,sans-Serif" font-size="10.00">discord_auto_moderation</text>
<text text-anchor="middle" x="70" y="-47" font-family="Helvetica,sans-Serif" font-size="10.00">_trigger_metadata</text>
</a>
</g>
</g>
<!-- Node5&#45;&gt;Node1 -->
<g id="edge2" class="edge">
<title>Node5&#45;&gt;Node1</title>
<path fill="none" stroke="#9a32cd" stroke-dasharray="5,2" d="M150.42,-55C187.61,-55 231.05,-55 264.85,-55"/>
<polygon fill="#9a32cd" stroke="#9a32cd" points="150.11,-51.5 140.11,-55 150.11,-58.5 150.11,-51.5"/>
<text text-anchor="middle" x="202.5" y="-58" font-family="Helvetica,sans-Serif" font-size="10.00"> trigger_metadata</text>
</g>
<!-- Node8 -->
<g id="node4" class="node">
<title>Node8</title>
<g id="a_node4"><a xlink:href="structsnowflakes.html" target="_top" xlink:title=" ">
<polygon fill="none" stroke="black" points="34.5,-0.5 34.5,-19.5 105.5,-19.5 105.5,-0.5 34.5,-0.5"/>
<text text-anchor="middle" x="70" y="-7.5" font-family="Helvetica,sans-Serif" font-size="10.00">snowflakes</text>
</a>
</g>
</g>
<!-- Node8&#45;&gt;Node1 -->
<g id="edge3" class="edge">
<title>Node8&#45;&gt;Node1</title>
<path fill="none" stroke="#9a32cd" stroke-dasharray="5,2" d="M115.92,-12.02C151.76,-14.31 203.07,-19.1 247,-29 259.16,-31.74 272.09,-35.82 283.7,-39.94"/>
<polygon fill="#9a32cd" stroke="#9a32cd" points="115.97,-8.52 105.78,-11.41 115.55,-15.5 115.97,-8.52"/>
<text text-anchor="middle" x="202.5" y="-43" font-family="Helvetica,sans-Serif" font-size="10.00"> exempt_channels</text>
<text text-anchor="middle" x="202.5" y="-32" font-family="Helvetica,sans-Serif" font-size="10.00">exempt_roles</text>
</g>
</g>
</svg>
