<?xml version="1.0" encoding="UTF-8" standalone="no"?>
<!DOCTYPE svg PUBLIC "-//W3C//DTD SVG 1.1//EN"
 "http://www.w3.org/Graphics/SVG/1.1/DTD/svg11.dtd">
<!-- Generated by graphviz version 2.43.0 (0)
 -->
<!-- Title: discord_ready Pages: 1 -->
<svg width="364pt" height="162pt"
 viewBox="0.00 0.00 364.00 162.00" xmlns="http://www.w3.org/2000/svg" xmlns:xlink="http://www.w3.org/1999/xlink">
<g id="graph0" class="graph" transform="scale(1 1) rotate(0) translate(4 158)">
<title>discord_ready</title>
<!-- Node1 -->
<g id="node1" class="node">
<title>Node1</title>
<g id="a_node1"><a xlink:title=" ">
<polygon fill="#bfbfbf" stroke="black" points="155.5,-0.5 155.5,-19.5 240.5,-19.5 240.5,-0.5 155.5,-0.5"/>
<text text-anchor="middle" x="198" y="-7.5" font-family="Helvetica,sans-Serif" font-size="10.00">discord_ready</text>
</a>
</g>
</g>
<!-- Node2 -->
<g id="node2" class="node">
<title>Node2</title>
<g id="a_node2"><a xlink:href="structdiscord__user.html" target="_top" xlink:title=" ">
<polygon fill="none" stroke="black" points="0,-134.5 0,-153.5 78,-153.5 78,-134.5 0,-134.5"/>
<text text-anchor="middle" x="39" y="-141.5" font-family="Helvetica,sans-Serif" font-size="10.00">discord_user</text>
</a>
</g>
</g>
<!-- Node2&#45;&gt;Node1 -->
<g id="edge1" class="edge">
<title>Node2&#45;&gt;Node1</title>
<path fill="none" stroke="#9a32cd" stroke-dasharray="5,2" d="M30.91,-124.38C25.06,-107.78 20.08,-83.6 32,-67 59.85,-28.21 115.98,-15.94 155.22,-12.24"/>
<polygon fill="#9a32cd" stroke="#9a32cd" points="27.79,-126.02 34.71,-134.04 34.31,-123.46 27.79,-126.02"/>
<text text-anchor="middle" x="44.5" y="-74.5" font-family="Helvetica,sans-Serif" font-size="10.00"> user</text>
</g>
<!-- Node46 -->
<g id="node5" class="node">
<title>Node46</title>
<g id="a_node5"><a xlink:href="structdiscord__application.html" target="_top" xlink:title=" ">
<polygon fill="none" stroke="red" points="66.5,-67.5 66.5,-86.5 177.5,-86.5 177.5,-67.5 66.5,-67.5"/>
<text text-anchor="middle" x="122" y="-74.5" font-family="Helvetica,sans-Serif" font-size="10.00">discord_application</text>
</a>
</g>
</g>
<!-- Node2&#45;&gt;Node46 -->
<g id="edge5" class="edge">
<title>Node2&#45;&gt;Node46</title>
<path fill="none" stroke="#9a32cd" stroke-dasharray="5,2" d="M58.07,-128.07C74.45,-115.24 97.5,-97.19 110.98,-86.63"/>
<polygon fill="#9a32cd" stroke="#9a32cd" points="55.91,-125.31 50.19,-134.23 60.22,-130.82 55.91,-125.31"/>
<text text-anchor="middle" x="103" y="-108" font-family="Helvetica,sans-Serif" font-size="10.00"> owner</text>
</g>
<!-- Node3 -->
<g id="node3" class="node">
<title>Node3</title>
<g id="a_node3"><a xlink:href="structdiscord__guilds.html" target="_top" xlink:title=" ">
<polygon fill="none" stroke="red" points="196,-67.5 196,-86.5 282,-86.5 282,-67.5 196,-67.5"/>
<text text-anchor="middle" x="239" y="-74.5" font-family="Helvetica,sans-Serif" font-size="10.00">discord_guilds</text>
</a>
</g>
</g>
<!-- Node3&#45;&gt;Node1 -->
<g id="edge2" class="edge">
<title>Node3&#45;&gt;Node1</title>
<path fill="none" stroke="#9a32cd" stroke-dasharray="5,2" d="M227.98,-58.53C220.05,-45.95 209.67,-29.51 203.44,-19.63"/>
<polygon fill="#9a32cd" stroke="#9a32cd" points="225.18,-60.64 233.47,-67.23 231.1,-56.91 225.18,-60.64"/>
<text text-anchor="middle" x="236.5" y="-41" font-family="Helvetica,sans-Serif" font-size="10.00"> guilds</text>
</g>
<!-- Node31 -->
<g id="node4" class="node">
<title>Node31</title>
<g id="a_node4"><a xlink:href="structintegers.html" target="_top" xlink:title=" ">
<polygon fill="none" stroke="black" points="300,-67.5 300,-86.5 356,-86.5 356,-67.5 300,-67.5"/>
<text text-anchor="middle" x="328" y="-74.5" font-family="Helvetica,sans-Serif" font-size="10.00">integers</text>
</a>
</g>
</g>
<!-- Node31&#45;&gt;Node1 -->
<g id="edge3" class="edge">
<title>Node31&#45;&gt;Node1</title>
<path fill="none" stroke="#9a32cd" stroke-dasharray="5,2" d="M303.86,-62.6C290.21,-55.14 272.77,-45.82 257,-38 243.98,-31.54 229.1,-24.74 217.54,-19.58"/>
<polygon fill="#9a32cd" stroke="#9a32cd" points="302.18,-65.67 312.63,-67.42 305.55,-59.54 302.18,-65.67"/>
<text text-anchor="middle" x="291.5" y="-41" font-family="Helvetica,sans-Serif" font-size="10.00"> shard</text>
</g>
<!-- Node46&#45;&gt;Node1 -->
<g id="edge4" class="edge">
<title>Node46&#45;&gt;Node1</title>
<path fill="none" stroke="#9a32cd" stroke-dasharray="5,2" d="M134.17,-59.27C139.75,-52.23 146.74,-44.25 154,-38 162.29,-30.87 172.67,-24.4 181.27,-19.59"/>
<polygon fill="#9a32cd" stroke="#9a32cd" points="131.2,-57.39 127.94,-67.47 136.78,-61.62 131.2,-57.39"/>
<text text-anchor="middle" x="183" y="-41" font-family="Helvetica,sans-Serif" font-size="10.00"> application</text>
</g>
</g>
</svg>
