<?xml version="1.0" encoding="UTF-8" standalone="no"?>
<!DOCTYPE svg PUBLIC "-//W3C//DTD SVG 1.1//EN"
 "http://www.w3.org/Graphics/SVG/1.1/DTD/svg11.dtd">
<!-- Generated by graphviz version 2.43.0 (0)
 -->
<!-- Title: discord_guild_template Pages: 1 -->
<svg width="242pt" height="95pt"
 viewBox="0.00 0.00 242.00 95.00" xmlns="http://www.w3.org/2000/svg" xmlns:xlink="http://www.w3.org/1999/xlink">
<g id="graph0" class="graph" transform="scale(1 1) rotate(0) translate(4 91)">
<title>discord_guild_template</title>
<!-- Node1 -->
<g id="node1" class="node">
<title>Node1</title>
<g id="a_node1"><a xlink:title=" ">
<polygon fill="#bfbfbf" stroke="black" points="22.5,-0.5 22.5,-19.5 153.5,-19.5 153.5,-0.5 22.5,-0.5"/>
<text text-anchor="middle" x="88" y="-7.5" font-family="Helvetica,sans-Serif" font-size="10.00">discord_guild_template</text>
</a>
</g>
</g>
<!-- Node2 -->
<g id="node2" class="node">
<title>Node2</title>
<g id="a_node2"><a xlink:href="structdiscord__user.html" target="_top" xlink:title=" ">
<polygon fill="none" stroke="black" points="0,-67.5 0,-86.5 78,-86.5 78,-67.5 0,-67.5"/>
<text text-anchor="middle" x="39" y="-74.5" font-family="Helvetica,sans-Serif" font-size="10.00">discord_user</text>
</a>
</g>
</g>
<!-- Node2&#45;&gt;Node1 -->
<g id="edge1" class="edge">
<title>Node2&#45;&gt;Node1</title>
<path fill="none" stroke="#9a32cd" stroke-dasharray="5,2" d="M51.89,-58.9C61.41,-46.27 73.98,-29.6 81.5,-19.63"/>
<polygon fill="#9a32cd" stroke="#9a32cd" points="48.83,-57.14 45.61,-67.23 54.42,-61.36 48.83,-57.14"/>
<text text-anchor="middle" x="86" y="-41" font-family="Helvetica,sans-Serif" font-size="10.00"> creator</text>
</g>
<!-- Node3 -->
<g id="node3" class="node">
<title>Node3</title>
<g id="a_node3"><a xlink:href="structdiscord__guild.html" target="_top" xlink:title=" ">
<polygon fill="none" stroke="red" points="96.5,-67.5 96.5,-86.5 177.5,-86.5 177.5,-67.5 96.5,-67.5"/>
<text text-anchor="middle" x="137" y="-74.5" font-family="Helvetica,sans-Serif" font-size="10.00">discord_guild</text>
</a>
</g>
</g>
<!-- Node3&#45;&gt;Node1 -->
<g id="edge2" class="edge">
<title>Node3&#45;&gt;Node1</title>
<path fill="none" stroke="#9a32cd" stroke-dasharray="5,2" d="M124.62,-59C119.78,-52.41 114.17,-44.83 109,-38 104.41,-31.94 99.16,-25.19 95.06,-19.95"/>
<polygon fill="#9a32cd" stroke="#9a32cd" points="121.89,-61.19 130.61,-67.2 127.54,-57.06 121.89,-61.19"/>
<text text-anchor="middle" x="175" y="-41" font-family="Helvetica,sans-Serif" font-size="10.00"> serialized_source_guild</text>
</g>
</g>
</svg>
