<?xml version="1.0" encoding="UTF-8" standalone="no"?>
<!DOCTYPE svg PUBLIC "-//W3C//DTD SVG 1.1//EN"
 "http://www.w3.org/Graphics/SVG/1.1/DTD/svg11.dtd">
<!-- Generated by graphviz version 2.43.0 (0)
 -->
<!-- Title: discord_gateway Pages: 1 -->
<svg width="465pt" height="189pt"
 viewBox="0.00 0.00 465.00 189.00" xmlns="http://www.w3.org/2000/svg" xmlns:xlink="http://www.w3.org/1999/xlink">
<g id="graph0" class="graph" transform="scale(1 1) rotate(0) translate(4 185)">
<title>discord_gateway</title>
<!-- Node1 -->
<g id="node1" class="node">
<title>Node1</title>
<g id="a_node1"><a xlink:title="The handle used for interfacing with Discord&#39;s Gateway API.">
<polygon fill="#bfbfbf" stroke="black" points="222,-87.5 222,-106.5 321,-106.5 321,-87.5 222,-87.5"/>
<text text-anchor="middle" x="271.5" y="-94.5" font-family="Helvetica,sans-Serif" font-size="10.00">discord_gateway</text>
</a>
</g>
</g>
<!-- Node27 -->
<g id="node7" class="node">
<title>Node27</title>
<g id="a_node7"><a xlink:href="structdiscord.html" target="_top" xlink:title="The Discord client handler.">
<polygon fill="none" stroke="red" points="405,-132.5 405,-151.5 457,-151.5 457,-132.5 405,-132.5"/>
<text text-anchor="middle" x="431" y="-139.5" font-family="Helvetica,sans-Serif" font-size="10.00">discord</text>
</a>
</g>
</g>
<!-- Node1&#45;&gt;Node27 -->
<g id="edge8" class="edge">
<title>Node1&#45;&gt;Node27</title>
<path fill="none" stroke="#9a32cd" stroke-dasharray="5,2" d="M307.84,-109.93C317.85,-113.4 328.8,-117.01 339,-120 360.99,-126.45 386.36,-132.46 404.72,-136.57"/>
<polygon fill="#9a32cd" stroke="#9a32cd" points="308.81,-106.56 298.21,-106.54 306.48,-113.16 308.81,-106.56"/>
<text text-anchor="middle" x="363" y="-135" font-family="Helvetica,sans-Serif" font-size="10.00"> gw</text>
</g>
<!-- Node2 -->
<g id="node2" class="node">
<title>Node2</title>
<g id="a_node2"><a xlink:href="structlogconf.html" target="_top" xlink:title="A stackful and modularized wrapper over the popular &#39;log.c&#39; facilities.">
<polygon fill="none" stroke="red" points="45,-161.5 45,-180.5 98,-180.5 98,-161.5 45,-161.5"/>
<text text-anchor="middle" x="71.5" y="-168.5" font-family="Helvetica,sans-Serif" font-size="10.00">logconf</text>
</a>
</g>
</g>
<!-- Node2&#45;&gt;Node1 -->
<g id="edge1" class="edge">
<title>Node2&#45;&gt;Node1</title>
<path fill="none" stroke="#9a32cd" stroke-dasharray="5,2" d="M108.08,-159.7C134.7,-151.03 171.89,-138.47 204,-126 219.5,-119.98 236.69,-112.46 249.72,-106.58"/>
<polygon fill="#9a32cd" stroke="#9a32cd" points="106.86,-156.41 98.43,-162.82 109.02,-163.07 106.86,-156.41"/>
<text text-anchor="middle" x="182.5" y="-143" font-family="Helvetica,sans-Serif" font-size="10.00"> conf</text>
</g>
<!-- Node2&#45;&gt;Node27 -->
<g id="edge7" class="edge">
<title>Node2&#45;&gt;Node27</title>
<path fill="none" stroke="#9a32cd" stroke-dasharray="5,2" d="M108.4,-168.72C166.84,-164.92 286.17,-156.71 387,-147 392.69,-146.45 398.79,-145.79 404.55,-145.13"/>
<polygon fill="#9a32cd" stroke="#9a32cd" points="107.97,-165.25 98.21,-169.38 108.42,-172.23 107.97,-165.25"/>
<text text-anchor="middle" x="271.5" y="-163" font-family="Helvetica,sans-Serif" font-size="10.00"> conf</text>
</g>
<!-- Node7 -->
<g id="node3" class="node">
<title>Node7</title>
<g id="a_node3"><a xlink:href="structwebsockets.html" target="_top" xlink:title="Opaque handler for WebSockets.">
<polygon fill="none" stroke="black" points="34.5,-114.5 34.5,-133.5 108.5,-133.5 108.5,-114.5 34.5,-114.5"/>
<text text-anchor="middle" x="71.5" y="-121.5" font-family="Helvetica,sans-Serif" font-size="10.00">websockets</text>
</a>
</g>
</g>
<!-- Node7&#45;&gt;Node1 -->
<g id="edge2" class="edge">
<title>Node7&#45;&gt;Node1</title>
<path fill="none" stroke="#9a32cd" stroke-dasharray="5,2" d="M118.9,-117.67C149.81,-113.46 190.35,-107.93 221.73,-103.65"/>
<polygon fill="#9a32cd" stroke="#9a32cd" points="118.25,-114.23 108.82,-119.05 119.2,-121.16 118.25,-114.23"/>
<text text-anchor="middle" x="182.5" y="-114" font-family="Helvetica,sans-Serif" font-size="10.00"> ws</text>
</g>
<!-- Node8 -->
<g id="node4" class="node">
<title>Node8</title>
<g id="a_node4"><a xlink:href="structdiscord__identify.html" target="_top" xlink:title=" ">
<polygon fill="none" stroke="red" points="24.5,-76.5 24.5,-95.5 118.5,-95.5 118.5,-76.5 24.5,-76.5"/>
<text text-anchor="middle" x="71.5" y="-83.5" font-family="Helvetica,sans-Serif" font-size="10.00">discord_identify</text>
</a>
</g>
</g>
<!-- Node8&#45;&gt;Node1 -->
<g id="edge3" class="edge">
<title>Node8&#45;&gt;Node1</title>
<path fill="none" stroke="#9a32cd" stroke-dasharray="5,2" d="M128.6,-84.68C151.95,-84.58 179.32,-85.06 204,-87 209.82,-87.46 215.9,-88.12 221.92,-88.88"/>
<polygon fill="#9a32cd" stroke="#9a32cd" points="128.49,-81.18 118.52,-84.76 128.54,-88.18 128.49,-81.18"/>
<text text-anchor="middle" x="182.5" y="-90" font-family="Helvetica,sans-Serif" font-size="10.00"> id</text>
</g>
<!-- Node23 -->
<g id="node5" class="node">
<title>Node23</title>
<g id="a_node5"><a xlink:href="structdiscord__gateway__session.html" target="_top" xlink:title="The handle for storing the Discord Gateway session.">
<polygon fill="none" stroke="red" points="1,-38.5 1,-57.5 142,-57.5 142,-38.5 1,-38.5"/>
<text text-anchor="middle" x="71.5" y="-45.5" font-family="Helvetica,sans-Serif" font-size="10.00">discord_gateway_session</text>
</a>
</g>
</g>
<!-- Node23&#45;&gt;Node1 -->
<g id="edge4" class="edge">
<title>Node23&#45;&gt;Node1</title>
<path fill="none" stroke="#9a32cd" stroke-dasharray="5,2" d="M152.12,-58.43C169.38,-61.49 187.43,-65.31 204,-70 219.95,-74.51 237.27,-81.62 250.24,-87.42"/>
<polygon fill="#9a32cd" stroke="#9a32cd" points="152.51,-54.94 142.06,-56.71 151.33,-61.84 152.51,-54.94"/>
<text text-anchor="middle" x="182.5" y="-73" font-family="Helvetica,sans-Serif" font-size="10.00"> session</text>
</g>
<!-- Node25 -->
<g id="node6" class="node">
<title>Node25</title>
<g id="a_node6"><a xlink:href="structdiscord__gateway__payload.html" target="_top" xlink:title="The handle for storing the Discord response payload.">
<polygon fill="none" stroke="red" points="0,-0.5 0,-19.5 143,-19.5 143,-0.5 0,-0.5"/>
<text text-anchor="middle" x="71.5" y="-7.5" font-family="Helvetica,sans-Serif" font-size="10.00">discord_gateway_payload</text>
</a>
</g>
</g>
<!-- Node25&#45;&gt;Node1 -->
<g id="edge5" class="edge">
<title>Node25&#45;&gt;Node1</title>
<path fill="none" stroke="#9a32cd" stroke-dasharray="5,2" d="M137.84,-21.89C159.58,-27.27 183.46,-34.77 204,-45 226.3,-56.1 248.31,-75.39 260.58,-87.1"/>
<polygon fill="#9a32cd" stroke="#9a32cd" points="138.57,-18.47 128.03,-19.57 136.95,-25.28 138.57,-18.47"/>
<text text-anchor="middle" x="182.5" y="-48" font-family="Helvetica,sans-Serif" font-size="10.00"> payload</text>
</g>
<!-- Node27&#45;&gt;Node1 -->
<g id="edge6" class="edge">
<title>Node27&#45;&gt;Node1</title>
<path fill="none" stroke="#9a32cd" stroke-dasharray="5,2" d="M418.04,-124.16C410.43,-114.47 399.64,-103.39 387,-98 366.61,-89.31 342.26,-88 321.27,-89.29"/>
<polygon fill="#9a32cd" stroke="#9a32cd" points="415.38,-126.45 424.1,-132.47 421.04,-122.33 415.38,-126.45"/>
<text text-anchor="middle" x="363" y="-112" font-family="Helvetica,sans-Serif" font-size="10.00"> cbs</text>
<text text-anchor="middle" x="363" y="-101" font-family="Helvetica,sans-Serif" font-size="10.00">scheduler</text>
</g>
</g>
</svg>
