<?xml version="1.0" encoding="UTF-8" standalone="no"?>
<!DOCTYPE svg PUBLIC "-//W3C//DTD SVG 1.1//EN"
 "http://www.w3.org/Graphics/SVG/1.1/DTD/svg11.dtd">
<!-- Generated by graphviz version 2.43.0 (0)
 -->
<!-- Title: discord_auto_moderation_rule Pages: 1 -->
<svg width="437pt" height="128pt"
 viewBox="0.00 0.00 437.00 127.50" xmlns="http://www.w3.org/2000/svg" xmlns:xlink="http://www.w3.org/1999/xlink">
<g id="graph0" class="graph" transform="scale(1 1) rotate(0) translate(4 123.5)">
<title>discord_auto_moderation_rule</title>
<!-- Node1 -->
<g id="node1" class="node">
<title>Node1</title>
<g id="a_node1"><a xlink:title=" ">
<polygon fill="#bfbfbf" stroke="black" points="265,-45.5 265,-64.5 429,-64.5 429,-45.5 265,-45.5"/>
<text text-anchor="middle" x="347" y="-52.5" font-family="Helvetica,sans-Serif" font-size="10.00">discord_auto_moderation_rule</text>
</a>
</g>
</g>
<!-- Node2 -->
<g id="node2" class="node">
<title>Node2</title>
<g id="a_node2"><a xlink:href="structdiscord__auto__moderation__actions.html" target="_top" xlink:title=" ">
<polygon fill="none" stroke="red" points="0,-89 0,-119 140,-119 140,-89 0,-89"/>
<text text-anchor="start" x="8" y="-107" font-family="Helvetica,sans-Serif" font-size="10.00">discord_auto_moderation</text>
<text text-anchor="middle" x="70" y="-96" font-family="Helvetica,sans-Serif" font-size="10.00">_actions</text>
</a>
</g>
</g>
<!-- Node2&#45;&gt;Node1 -->
<g id="edge1" class="edge">
<title>Node2&#45;&gt;Node1</title>
<path fill="none" stroke="#9a32cd" stroke-dasharray="5,2" d="M149.92,-89.94C195.65,-81.79 252,-71.75 292.54,-64.52"/>
<polygon fill="#9a32cd" stroke="#9a32cd" points="149.27,-86.5 140.04,-91.7 150.5,-93.39 149.27,-86.5"/>
<text text-anchor="middle" x="202.5" y="-91" font-family="Helvetica,sans-Serif" font-size="10.00"> actions</text>
</g>
<!-- Node5 -->
<g id="node3" class="node">
<title>Node5</title>
<g id="a_node3"><a xlink:href="structdiscord__auto__moderation__trigger__metadata.html" target="_top" xlink:title=" ">
<polygon fill="none" stroke="red" points="0,-40 0,-70 140,-70 140,-40 0,-40"/>
<text text-anchor="start" x="8" y="-58" font-family="Helvetica,sans-Serif" font-size="10.00">discord_auto_moderation</text>
<text text-anchor="middle" x="70" y="-47" font-family="Helvetica,sans-Serif" font-size="10.00">_trigger_metadata</text>
</a>
</g>
</g>
<!-- Node5&#45;&gt;Node1 -->
<g id="edge2" class="edge">
<title>Node5&#45;&gt;Node1</title>
<path fill="none" stroke="#9a32cd" stroke-dasharray="5,2" d="M150.46,-55C186.32,-55 228.63,-55 264.71,-55"/>
<polygon fill="#9a32cd" stroke="#9a32cd" points="150.04,-51.5 140.04,-55 150.04,-58.5 150.04,-51.5"/>
<text text-anchor="middle" x="202.5" y="-58" font-family="Helvetica,sans-Serif" font-size="10.00"> trigger_metadata</text>
</g>
<!-- Node8 -->
<g id="node4" class="node">
<title>Node8</title>
<g id="a_node4"><a xlink:href="structsnowflakes.html" target="_top" xlink:title=" ">
<polygon fill="none" stroke="black" points="34.5,-0.5 34.5,-19.5 105.5,-19.5 105.5,-0.5 34.5,-0.5"/>
<text text-anchor="middle" x="70" y="-7.5" font-family="Helvetica,sans-Serif" font-size="10.00">snowflakes</text>
</a>
</g>
</g>
<!-- Node8&#45;&gt;Node1 -->
<g id="edge3" class="edge">
<title>Node8&#45;&gt;Node1</title>
<path fill="none" stroke="#9a32cd" stroke-dasharray="5,2" d="M115.73,-12.98C151.46,-15.8 202.71,-20.84 247,-29 269.89,-33.22 295.28,-39.93 314.61,-45.47"/>
<polygon fill="#9a32cd" stroke="#9a32cd" points="115.86,-9.48 105.62,-12.2 115.32,-16.46 115.86,-9.48"/>
<text text-anchor="middle" x="202.5" y="-43" font-family="Helvetica,sans-Serif" font-size="10.00"> exempt_channels</text>
<text text-anchor="middle" x="202.5" y="-32" font-family="Helvetica,sans-Serif" font-size="10.00">exempt_roles</text>
</g>
</g>
</svg>
