<?xml version="1.0" encoding="UTF-8" standalone="no"?>
<!DOCTYPE svg PUBLIC "-//W3C//DTD SVG 1.1//EN"
 "http://www.w3.org/Graphics/SVG/1.1/DTD/svg11.dtd">
<!-- Generated by graphviz version 2.43.0 (0)
 -->
<!-- Title: discord_auto_moderation_trigger_metadata Pages: 1 -->
<svg width="157pt" height="106pt"
 viewBox="0.00 0.00 157.00 106.00" xmlns="http://www.w3.org/2000/svg" xmlns:xlink="http://www.w3.org/1999/xlink">
<g id="graph0" class="graph" transform="scale(1 1) rotate(0) translate(4 102)">
<title>discord_auto_moderation_trigger_metadata</title>
<!-- Node1 -->
<g id="node1" class="node">
<title>Node1</title>
<g id="a_node1"><a xlink:title=" ">
<polygon fill="#bfbfbf" stroke="black" points="3,-0.5 3,-30.5 143,-30.5 143,-0.5 3,-0.5"/>
<text text-anchor="start" x="11" y="-18.5" font-family="Helvetica,sans-Serif" font-size="10.00">discord_auto_moderation</text>
<text text-anchor="middle" x="73" y="-7.5" font-family="Helvetica,sans-Serif" font-size="10.00">_trigger_metadata</text>
</a>
</g>
</g>
<!-- Node2 -->
<g id="node2" class="node">
<title>Node2</title>
<g id="a_node2"><a xlink:href="structstrings.html" target="_top" xlink:title=" ">
<polygon fill="none" stroke="black" points="0,-78.5 0,-97.5 50,-97.5 50,-78.5 0,-78.5"/>
<text text-anchor="middle" x="25" y="-85.5" font-family="Helvetica,sans-Serif" font-size="10.00">strings</text>
</a>
</g>
</g>
<!-- Node2&#45;&gt;Node1 -->
<g id="edge1" class="edge">
<title>Node2&#45;&gt;Node1</title>
<path fill="none" stroke="#9a32cd" stroke-dasharray="5,2" d="M22.16,-68.32C22.02,-61.86 22.86,-54.8 26,-49 30.06,-41.5 36.7,-35.37 43.72,-30.53"/>
<polygon fill="#9a32cd" stroke="#9a32cd" points="18.68,-68.65 23.1,-78.28 25.65,-68 18.68,-68.65"/>
<text text-anchor="middle" x="62.5" y="-52" font-family="Helvetica,sans-Serif" font-size="10.00"> keyword_filter</text>
</g>
<!-- Node3 -->
<g id="node3" class="node">
<title>Node3</title>
<g id="a_node3"><a xlink:href="structintegers.html" target="_top" xlink:title=" ">
<polygon fill="none" stroke="black" points="93,-78.5 93,-97.5 149,-97.5 149,-78.5 93,-78.5"/>
<text text-anchor="middle" x="121" y="-85.5" font-family="Helvetica,sans-Serif" font-size="10.00">integers</text>
</a>
</g>
</g>
<!-- Node3&#45;&gt;Node1 -->
<g id="edge2" class="edge">
<title>Node3&#45;&gt;Node1</title>
<path fill="none" stroke="#9a32cd" stroke-dasharray="5,2" d="M111.62,-69.54C107.9,-62.97 103.45,-55.51 99,-49 94.76,-42.8 89.67,-36.27 85.13,-30.71"/>
<polygon fill="#9a32cd" stroke="#9a32cd" points="108.57,-71.26 116.46,-78.32 114.7,-67.88 108.57,-71.26"/>
<text text-anchor="middle" x="125" y="-52" font-family="Helvetica,sans-Serif" font-size="10.00"> presets</text>
</g>
</g>
</svg>
