<?xml version="1.0" encoding="UTF-8" standalone="no"?>
<!DOCTYPE svg PUBLIC "-//W3C//DTD SVG 1.1//EN"
 "http://www.w3.org/Graphics/SVG/1.1/DTD/svg11.dtd">
<!-- Generated by graphviz version 2.43.0 (0)
 -->
<!-- Title: discord_requestor Pages: 1 -->
<svg width="197pt" height="162pt"
 viewBox="0.00 0.00 196.50 162.00" xmlns="http://www.w3.org/2000/svg" xmlns:xlink="http://www.w3.org/1999/xlink">
<g id="graph0" class="graph" transform="scale(1 1) rotate(0) translate(4 158)">
<title>discord_requestor</title>
<!-- Node1 -->
<g id="node1" class="node">
<title>Node1</title>
<g id="a_node1"><a xlink:title="The handle used for handling asynchronous requests.">
<polygon fill="#bfbfbf" stroke="black" points="0,-0.5 0,-19.5 104,-19.5 104,-0.5 0,-0.5"/>
<text text-anchor="middle" x="52" y="-7.5" font-family="Helvetica,sans-Serif" font-size="10.00">discord_requestor</text>
</a>
</g>
</g>
<!-- Node2 -->
<g id="node2" class="node">
<title>Node2</title>
<g id="a_node2"><a xlink:href="structlogconf.html" target="_top" xlink:title="A stackful and modularized wrapper over the popular &#39;log.c&#39; facilities.">
<polygon fill="none" stroke="red" points="25.5,-134.5 25.5,-153.5 78.5,-153.5 78.5,-134.5 25.5,-134.5"/>
<text text-anchor="middle" x="52" y="-141.5" font-family="Helvetica,sans-Serif" font-size="10.00">logconf</text>
</a>
</g>
</g>
<!-- Node2&#45;&gt;Node1 -->
<g id="edge1" class="edge">
<title>Node2&#45;&gt;Node1</title>
<path fill="none" stroke="#9a32cd" stroke-dasharray="5,2" d="M48.6,-123.85C46.26,-108.5 43.79,-86.39 45,-67 46.05,-50.18 48.85,-30.68 50.57,-19.7"/>
<polygon fill="#9a32cd" stroke="#9a32cd" points="45.21,-124.82 50.29,-134.12 52.12,-123.68 45.21,-124.82"/>
<text text-anchor="middle" x="57.5" y="-74.5" font-family="Helvetica,sans-Serif" font-size="10.00"> conf</text>
</g>
<!-- Node7 -->
<g id="node3" class="node">
<title>Node7</title>
<g id="a_node3"><a xlink:href="structdiscord__ratelimiter.html" target="_top" xlink:title="The ratelimiter struct for handling ratelimiting.">
<polygon fill="none" stroke="red" points="79.5,-67.5 79.5,-86.5 188.5,-86.5 188.5,-67.5 79.5,-67.5"/>
<text text-anchor="middle" x="134" y="-74.5" font-family="Helvetica,sans-Serif" font-size="10.00">discord_ratelimiter</text>
</a>
</g>
</g>
<!-- Node2&#45;&gt;Node7 -->
<g id="edge3" class="edge">
<title>Node2&#45;&gt;Node7</title>
<path fill="none" stroke="#9a32cd" stroke-dasharray="5,2" d="M71.28,-127.71C87.44,-114.91 109.92,-97.09 123.12,-86.63"/>
<polygon fill="#9a32cd" stroke="#9a32cd" points="68.72,-125.28 63.06,-134.23 73.07,-130.76 68.72,-125.28"/>
<text text-anchor="middle" x="109.5" y="-108" font-family="Helvetica,sans-Serif" font-size="10.00"> conf</text>
</g>
<!-- Node7&#45;&gt;Node1 -->
<g id="edge2" class="edge">
<title>Node7&#45;&gt;Node1</title>
<path fill="none" stroke="#9a32cd" stroke-dasharray="5,2" d="M114.72,-60.71C98.56,-47.91 76.08,-30.09 62.88,-19.63"/>
<polygon fill="#9a32cd" stroke="#9a32cd" points="112.93,-63.76 122.94,-67.23 117.28,-58.28 112.93,-63.76"/>
<text text-anchor="middle" x="124.5" y="-41" font-family="Helvetica,sans-Serif" font-size="10.00"> ratelimiter</text>
</g>
</g>
</svg>
