<?xml version="1.0" encoding="UTF-8" standalone="no"?>
<!DOCTYPE svg PUBLIC "-//W3C//DTD SVG 1.1//EN"
 "http://www.w3.org/Graphics/SVG/1.1/DTD/svg11.dtd">
<!-- Generated by graphviz version 2.43.0 (0)
 -->
<!-- Title: discord_gateway Pages: 1 -->
<svg width="515pt" height="186pt"
 viewBox="0.00 0.00 514.50 186.00" xmlns="http://www.w3.org/2000/svg" xmlns:xlink="http://www.w3.org/1999/xlink">
<g id="graph0" class="graph" transform="scale(1 1) rotate(0) translate(4 182)">
<title>discord_gateway</title>
<!-- Node1 -->
<g id="node1" class="node">
<title>Node1</title>
<g id="a_node1"><a xlink:title="The handle used for interfacing with Discord&#39;s Gateway API.">
<polygon fill="#bfbfbf" stroke="black" points="157.5,-91.5 157.5,-110.5 256.5,-110.5 256.5,-91.5 157.5,-91.5"/>
<text text-anchor="middle" x="207" y="-98.5" font-family="Helvetica,sans-Serif" font-size="10.00">discord_gateway</text>
</a>
</g>
</g>
<!-- Node21 -->
<g id="node6" class="node">
<title>Node21</title>
<g id="a_node6"><a xlink:href="structdiscord.html" target="_top" xlink:title="The Discord client handler.">
<polygon fill="none" stroke="red" points="181,-7 181,-26 233,-26 233,-7 181,-7"/>
<text text-anchor="middle" x="207" y="-14" font-family="Helvetica,sans-Serif" font-size="10.00">discord</text>
</a>
</g>
</g>
<!-- Node1&#45;&gt;Node21 -->
<g id="edge6" class="edge">
<title>Node1&#45;&gt;Node21</title>
<path fill="none" stroke="#9a32cd" stroke-dasharray="5,2" d="M190.6,-83.33C188.31,-80.13 186.29,-76.63 185,-73 181.72,-63.79 182.2,-60.37 185,-51 187.79,-41.67 194.11,-32.52 199.26,-26.15"/>
<polygon fill="#9a32cd" stroke="#9a32cd" points="187.93,-85.6 197.03,-91.02 193.3,-81.11 187.93,-85.6"/>
<text text-anchor="middle" x="194" y="-59.5" font-family="Helvetica,sans-Serif" font-size="10.00"> gw</text>
</g>
<!-- Node2 -->
<g id="node2" class="node">
<title>Node2</title>
<g id="a_node2"><a xlink:href="structwebsockets.html" target="_top" xlink:title="Opaque handler for WebSockets.">
<polygon fill="none" stroke="black" points="0,-158.5 0,-177.5 74,-177.5 74,-158.5 0,-158.5"/>
<text text-anchor="middle" x="37" y="-165.5" font-family="Helvetica,sans-Serif" font-size="10.00">websockets</text>
</a>
</g>
</g>
<!-- Node2&#45;&gt;Node1 -->
<g id="edge1" class="edge">
<title>Node2&#45;&gt;Node1</title>
<path fill="none" stroke="#9a32cd" stroke-dasharray="5,2" d="M68.98,-154.77C102.72,-141.87 155.02,-121.88 184.6,-110.56"/>
<polygon fill="#9a32cd" stroke="#9a32cd" points="67.67,-151.53 59.57,-158.37 70.17,-158.07 67.67,-151.53"/>
<text text-anchor="middle" x="141.5" y="-132" font-family="Helvetica,sans-Serif" font-size="10.00"> ws</text>
</g>
<!-- Node3 -->
<g id="node3" class="node">
<title>Node3</title>
<g id="a_node3"><a xlink:href="structdiscord__identify.html" target="_top" xlink:title=" ">
<polygon fill="none" stroke="red" points="92,-158.5 92,-177.5 186,-177.5 186,-158.5 92,-158.5"/>
<text text-anchor="middle" x="139" y="-165.5" font-family="Helvetica,sans-Serif" font-size="10.00">discord_identify</text>
</a>
</g>
</g>
<!-- Node3&#45;&gt;Node1 -->
<g id="edge2" class="edge">
<title>Node3&#45;&gt;Node1</title>
<path fill="none" stroke="#9a32cd" stroke-dasharray="5,2" d="M155.74,-151C169.08,-138.25 187.23,-120.89 197.97,-110.63"/>
<polygon fill="#9a32cd" stroke="#9a32cd" points="152.98,-148.79 148.17,-158.23 157.82,-153.85 152.98,-148.79"/>
<text text-anchor="middle" x="184.5" y="-132" font-family="Helvetica,sans-Serif" font-size="10.00"> id</text>
</g>
<!-- Node18 -->
<g id="node4" class="node">
<title>Node18</title>
<g id="a_node4"><a xlink:href="structdiscord__gateway__session.html" target="_top" xlink:title="The handle for storing the Discord Gateway session.">
<polygon fill="none" stroke="red" points="204.5,-158.5 204.5,-177.5 345.5,-177.5 345.5,-158.5 204.5,-158.5"/>
<text text-anchor="middle" x="275" y="-165.5" font-family="Helvetica,sans-Serif" font-size="10.00">discord_gateway_session</text>
</a>
</g>
</g>
<!-- Node18&#45;&gt;Node1 -->
<g id="edge3" class="edge">
<title>Node18&#45;&gt;Node1</title>
<path fill="none" stroke="#9a32cd" stroke-dasharray="5,2" d="M258.26,-151C244.92,-138.25 226.77,-120.89 216.03,-110.63"/>
<polygon fill="#9a32cd" stroke="#9a32cd" points="256.18,-153.85 265.83,-158.23 261.02,-148.79 256.18,-153.85"/>
<text text-anchor="middle" x="266" y="-132" font-family="Helvetica,sans-Serif" font-size="10.00"> session</text>
</g>
<!-- Node20 -->
<g id="node5" class="node">
<title>Node20</title>
<g id="a_node5"><a xlink:href="structdiscord__gateway__payload.html" target="_top" xlink:title="The handle for storing the Discord response payload.">
<polygon fill="none" stroke="black" points="363.5,-158.5 363.5,-177.5 506.5,-177.5 506.5,-158.5 363.5,-158.5"/>
<text text-anchor="middle" x="435" y="-165.5" font-family="Helvetica,sans-Serif" font-size="10.00">discord_gateway_payload</text>
</a>
</g>
</g>
<!-- Node20&#45;&gt;Node1 -->
<g id="edge4" class="edge">
<title>Node20&#45;&gt;Node1</title>
<path fill="none" stroke="#9a32cd" stroke-dasharray="5,2" d="M394.98,-155.59C349.88,-142.73 277.57,-122.12 237.04,-110.56"/>
<polygon fill="#9a32cd" stroke="#9a32cd" points="394.15,-158.99 404.72,-158.37 396.07,-152.26 394.15,-158.99"/>
<text text-anchor="middle" x="355.5" y="-132" font-family="Helvetica,sans-Serif" font-size="10.00"> payload</text>
</g>
<!-- Node21&#45;&gt;Node1 -->
<g id="edge5" class="edge">
<title>Node21&#45;&gt;Node1</title>
<path fill="none" stroke="#9a32cd" stroke-dasharray="5,2" d="M207,-36.17C207,-53.5 207,-78.51 207,-91.48"/>
<polygon fill="#9a32cd" stroke="#9a32cd" points="210.5,-36.1 207,-26.1 203.5,-36.1 210.5,-36.1"/>
<text text-anchor="middle" x="231" y="-65" font-family="Helvetica,sans-Serif" font-size="10.00"> cbs</text>
<text text-anchor="middle" x="231" y="-54" font-family="Helvetica,sans-Serif" font-size="10.00">scheduler</text>
</g>
<!-- Node21&#45;&gt;Node21 -->
<g id="edge7" class="edge">
<title>Node21&#45;&gt;Node21</title>
<path fill="none" stroke="#9a32cd" stroke-dasharray="5,2" d="M243.47,-23.67C248.02,-22.4 251,-20.01 251,-16.5 251,-10.74 242.96,-8 233.2,-8.27"/>
<polygon fill="#9a32cd" stroke="#9a32cd" points="242.79,-20.22 233.2,-24.73 243.51,-27.18 242.79,-20.22"/>
<text text-anchor="middle" x="272.5" y="-25" font-family="Helvetica,sans-Serif" font-size="10.00"> cb</text>
<text text-anchor="middle" x="272.5" y="-14" font-family="Helvetica,sans-Serif" font-size="10.00">on_cycle</text>
<text text-anchor="middle" x="272.5" y="-3" font-family="Helvetica,sans-Serif" font-size="10.00">on_idle</text>
</g>
</g>
</svg>
