<?xml version="1.0" encoding="UTF-8" standalone="no"?>
<!DOCTYPE svg PUBLIC "-//W3C//DTD SVG 1.1//EN"
 "http://www.w3.org/Graphics/SVG/1.1/DTD/svg11.dtd">
<!-- Generated by graphviz version 2.43.0 (0)
 -->
<!-- Title: discord_guild Pages: 1 -->
<svg width="392pt" height="430pt"
 viewBox="0.00 0.00 392.00 429.50" xmlns="http://www.w3.org/2000/svg" xmlns:xlink="http://www.w3.org/1999/xlink">
<g id="graph0" class="graph" transform="scale(1 1) rotate(0) translate(4 425.5)">
<title>discord_guild</title>
<!-- Node1 -->
<g id="node1" class="node">
<title>Node1</title>
<g id="a_node1"><a xlink:title=" ">
<polygon fill="#bfbfbf" stroke="black" points="303,-198 303,-217 384,-217 384,-198 303,-198"/>
<text text-anchor="middle" x="343.5" y="-205" font-family="Helvetica,sans-Serif" font-size="10.00">discord_guild</text>
</a>
</g>
</g>
<!-- Node2 -->
<g id="node2" class="node">
<title>Node2</title>
<g id="a_node2"><a xlink:href="structdiscord__roles.html" target="_top" xlink:title=" ">
<polygon fill="none" stroke="red" points="32.5,-392 32.5,-411 113.5,-411 113.5,-392 32.5,-392"/>
<text text-anchor="middle" x="73" y="-399" font-family="Helvetica,sans-Serif" font-size="10.00">discord_roles</text>
</a>
</g>
</g>
<!-- Node2&#45;&gt;Node1 -->
<g id="edge1" class="edge">
<title>Node2&#45;&gt;Node1</title>
<path fill="none" stroke="#9a32cd" stroke-dasharray="5,2" d="M123.96,-409.51C170.72,-414.08 239.95,-412.96 285,-376.5 336.07,-335.17 341.99,-246.39 342.51,-217.1"/>
<polygon fill="#9a32cd" stroke="#9a32cd" points="124.08,-406 113.75,-408.39 123.31,-412.96 124.08,-406"/>
<text text-anchor="middle" x="224.5" y="-413.5" font-family="Helvetica,sans-Serif" font-size="10.00"> roles</text>
</g>
<!-- Node5 -->
<g id="node3" class="node">
<title>Node5</title>
<g id="a_node3"><a xlink:href="structdiscord__emojis.html" target="_top" xlink:title=" ">
<polygon fill="none" stroke="red" points="28,-354 28,-373 118,-373 118,-354 28,-354"/>
<text text-anchor="middle" x="73" y="-361" font-family="Helvetica,sans-Serif" font-size="10.00">discord_emojis</text>
</a>
</g>
</g>
<!-- Node5&#45;&gt;Node1 -->
<g id="edge2" class="edge">
<title>Node5&#45;&gt;Node1</title>
<path fill="none" stroke="#9a32cd" stroke-dasharray="5,2" d="M128.22,-363.07C182.37,-361.61 260.91,-356.34 285,-338.5 326.11,-308.04 338.29,-241.78 341.48,-217.05"/>
<polygon fill="#9a32cd" stroke="#9a32cd" points="127.99,-359.58 118.07,-363.31 128.15,-366.57 127.99,-359.58"/>
<text text-anchor="middle" x="224.5" y="-364.5" font-family="Helvetica,sans-Serif" font-size="10.00"> emojis</text>
</g>
<!-- Node8 -->
<g id="node4" class="node">
<title>Node8</title>
<g id="a_node4"><a xlink:href="structstrings.html" target="_top" xlink:title=" ">
<polygon fill="none" stroke="black" points="48,-316 48,-335 98,-335 98,-316 48,-316"/>
<text text-anchor="middle" x="73" y="-323" font-family="Helvetica,sans-Serif" font-size="10.00">strings</text>
</a>
</g>
</g>
<!-- Node8&#45;&gt;Node1 -->
<g id="edge3" class="edge">
<title>Node8&#45;&gt;Node1</title>
<path fill="none" stroke="#9a32cd" stroke-dasharray="5,2" d="M108.44,-325.38C160.58,-324.61 256.51,-320.66 285,-302.5 317.03,-282.08 333.81,-236.83 339.85,-217.06"/>
<polygon fill="#9a32cd" stroke="#9a32cd" points="108.28,-321.88 98.32,-325.5 108.36,-328.88 108.28,-321.88"/>
<text text-anchor="middle" x="224.5" y="-326.5" font-family="Helvetica,sans-Serif" font-size="10.00"> features</text>
</g>
<!-- Node9 -->
<g id="node5" class="node">
<title>Node9</title>
<g id="a_node5"><a xlink:href="structdiscord__voice__states.html" target="_top" xlink:title=" ">
<polygon fill="none" stroke="red" points="13.5,-278 13.5,-297 132.5,-297 132.5,-278 13.5,-278"/>
<text text-anchor="middle" x="73" y="-285" font-family="Helvetica,sans-Serif" font-size="10.00">discord_voice_states</text>
</a>
</g>
</g>
<!-- Node9&#45;&gt;Node1 -->
<g id="edge4" class="edge">
<title>Node9&#45;&gt;Node1</title>
<path fill="none" stroke="#9a32cd" stroke-dasharray="5,2" d="M142.68,-289.69C185.46,-288.52 240.6,-282.31 285,-261.5 306.82,-251.27 325.82,-229.58 335.56,-217.03"/>
<polygon fill="#9a32cd" stroke="#9a32cd" points="142.58,-286.19 132.65,-289.87 142.71,-293.19 142.58,-286.19"/>
<text text-anchor="middle" x="224.5" y="-290.5" font-family="Helvetica,sans-Serif" font-size="10.00"> voice_states</text>
</g>
<!-- Node13 -->
<g id="node6" class="node">
<title>Node13</title>
<g id="a_node6"><a xlink:href="structdiscord__guild__members.html" target="_top" xlink:title=" ">
<polygon fill="none" stroke="red" points="6.5,-240 6.5,-259 139.5,-259 139.5,-240 6.5,-240"/>
<text text-anchor="middle" x="73" y="-247" font-family="Helvetica,sans-Serif" font-size="10.00">discord_guild_members</text>
</a>
</g>
</g>
<!-- Node13&#45;&gt;Node1 -->
<g id="edge5" class="edge">
<title>Node13&#45;&gt;Node1</title>
<path fill="none" stroke="#9a32cd" stroke-dasharray="5,2" d="M149.98,-247.98C190.52,-245.84 240.98,-241.05 285,-230.5 297.97,-227.39 311.86,-221.9 322.74,-217.06"/>
<polygon fill="#9a32cd" stroke="#9a32cd" points="149.72,-244.49 139.9,-248.47 150.06,-251.48 149.72,-244.49"/>
<text text-anchor="middle" x="224.5" y="-249.5" font-family="Helvetica,sans-Serif" font-size="10.00"> members</text>
</g>
<!-- Node14 -->
<g id="node7" class="node">
<title>Node14</title>
<g id="a_node7"><a xlink:href="structdiscord__channels.html" target="_top" xlink:title=" ">
<polygon fill="none" stroke="red" points="22.5,-202 22.5,-221 123.5,-221 123.5,-202 22.5,-202"/>
<text text-anchor="middle" x="73" y="-209" font-family="Helvetica,sans-Serif" font-size="10.00">discord_channels</text>
</a>
</g>
</g>
<!-- Node14&#45;&gt;Node1 -->
<g id="edge6" class="edge">
<title>Node14&#45;&gt;Node1</title>
<path fill="none" stroke="#9a32cd" stroke-dasharray="5,2" d="M133.54,-209.28C143.7,-208.97 154.15,-208.69 164,-208.5 211.72,-207.57 266.62,-207.4 302.79,-207.41"/>
<polygon fill="#9a32cd" stroke="#9a32cd" points="133.39,-205.79 123.51,-209.6 133.61,-212.78 133.39,-205.79"/>
<text text-anchor="middle" x="224.5" y="-222.5" font-family="Helvetica,sans-Serif" font-size="10.00"> channels</text>
<text text-anchor="middle" x="224.5" y="-211.5" font-family="Helvetica,sans-Serif" font-size="10.00">threads</text>
</g>
<!-- Node21 -->
<g id="node8" class="node">
<title>Node21</title>
<g id="a_node8"><a xlink:href="structdiscord__presence__updates.html" target="_top" xlink:title=" ">
<polygon fill="none" stroke="red" points="0,-164 0,-183 146,-183 146,-164 0,-164"/>
<text text-anchor="middle" x="73" y="-171" font-family="Helvetica,sans-Serif" font-size="10.00">discord_presence_updates</text>
</a>
</g>
</g>
<!-- Node21&#45;&gt;Node1 -->
<g id="edge7" class="edge">
<title>Node21&#45;&gt;Node1</title>
<path fill="none" stroke="#9a32cd" stroke-dasharray="5,2" d="M156.26,-176.95C195.47,-179.51 242.89,-183.91 285,-191.5 293.97,-193.12 303.57,-195.51 312.31,-197.96"/>
<polygon fill="#9a32cd" stroke="#9a32cd" points="156.42,-173.46 146.22,-176.33 155.98,-180.44 156.42,-173.46"/>
<text text-anchor="middle" x="224.5" y="-194.5" font-family="Helvetica,sans-Serif" font-size="10.00"> presences</text>
</g>
<!-- Node34 -->
<g id="node9" class="node">
<title>Node34</title>
<g id="a_node9"><a xlink:href="structdiscord__welcome__screen.html" target="_top" xlink:title=" ">
<polygon fill="none" stroke="red" points="3.5,-126 3.5,-145 142.5,-145 142.5,-126 3.5,-126"/>
<text text-anchor="middle" x="73" y="-133" font-family="Helvetica,sans-Serif" font-size="10.00">discord_welcome_screen</text>
</a>
</g>
</g>
<!-- Node34&#45;&gt;Node1 -->
<g id="edge8" class="edge">
<title>Node34&#45;&gt;Node1</title>
<path fill="none" stroke="#9a32cd" stroke-dasharray="5,2" d="M153.05,-135.69C193.81,-138.22 243.53,-145.18 285,-162.5 304.42,-170.61 322.83,-187.12 333.38,-197.73"/>
<polygon fill="#9a32cd" stroke="#9a32cd" points="153.07,-132.19 142.9,-135.14 152.69,-139.18 153.07,-132.19"/>
<text text-anchor="middle" x="224.5" y="-165.5" font-family="Helvetica,sans-Serif" font-size="10.00"> welcome_screen</text>
</g>
<!-- Node37 -->
<g id="node10" class="node">
<title>Node37</title>
<g id="a_node10"><a xlink:href="structdiscord__stage__instances.html" target="_top" xlink:title=" ">
<polygon fill="none" stroke="red" points="5,-88 5,-107 141,-107 141,-88 5,-88"/>
<text text-anchor="middle" x="73" y="-95" font-family="Helvetica,sans-Serif" font-size="10.00">discord_stage_instances</text>
</a>
</g>
</g>
<!-- Node37&#45;&gt;Node1 -->
<g id="edge9" class="edge">
<title>Node37&#45;&gt;Node1</title>
<path fill="none" stroke="#9a32cd" stroke-dasharray="5,2" d="M151.65,-91.08C193.89,-91.17 245.45,-97.39 285,-121.5 314.6,-139.54 332.25,-179.26 339.14,-197.72"/>
<polygon fill="#9a32cd" stroke="#9a32cd" points="151.37,-87.58 141.4,-91.18 151.43,-94.58 151.37,-87.58"/>
<text text-anchor="middle" x="224.5" y="-124.5" font-family="Helvetica,sans-Serif" font-size="10.00"> stage_instances</text>
</g>
<!-- Node39 -->
<g id="node11" class="node">
<title>Node39</title>
<g id="a_node11"><a xlink:href="structdiscord__stickers.html" target="_top" xlink:title=" ">
<polygon fill="none" stroke="red" points="25.5,-50 25.5,-69 120.5,-69 120.5,-50 25.5,-50"/>
<text text-anchor="middle" x="73" y="-57" font-family="Helvetica,sans-Serif" font-size="10.00">discord_stickers</text>
</a>
</g>
</g>
<!-- Node39&#45;&gt;Node1 -->
<g id="edge10" class="edge">
<title>Node39&#45;&gt;Node1</title>
<path fill="none" stroke="#9a32cd" stroke-dasharray="5,2" d="M130.62,-48.9C176.44,-43.57 240.46,-43.85 285,-75.5 326.97,-105.33 338.63,-172.62 341.58,-197.77"/>
<polygon fill="#9a32cd" stroke="#9a32cd" points="130.02,-45.45 120.55,-50.2 130.91,-52.39 130.02,-45.45"/>
<text text-anchor="middle" x="224.5" y="-78.5" font-family="Helvetica,sans-Serif" font-size="10.00"> stickers</text>
</g>
<!-- Node41 -->
<g id="node12" class="node">
<title>Node41</title>
<g id="a_node12"><a xlink:href="structdiscord__guild__scheduled__events.html" target="_top" xlink:title=" ">
<polygon fill="none" stroke="red" points="5,-0.5 5,-30.5 141,-30.5 141,-0.5 5,-0.5"/>
<text text-anchor="start" x="13" y="-18.5" font-family="Helvetica,sans-Serif" font-size="10.00">discord_guild_scheduled</text>
<text text-anchor="middle" x="73" y="-7.5" font-family="Helvetica,sans-Serif" font-size="10.00">_events</text>
</a>
</g>
</g>
<!-- Node41&#45;&gt;Node1 -->
<g id="edge11" class="edge">
<title>Node41&#45;&gt;Node1</title>
<path fill="none" stroke="#9a32cd" stroke-dasharray="5,2" d="M151.25,-1.77C194.85,1.56 247.86,-2.36 285,-31.5 338.86,-73.77 342.9,-167.54 342.74,-197.85"/>
<polygon fill="#9a32cd" stroke="#9a32cd" points="150.9,1.72 141.25,-2.67 151.52,-5.26 150.9,1.72"/>
<text text-anchor="middle" x="224.5" y="-34.5" font-family="Helvetica,sans-Serif" font-size="10.00"> guild_scheduled_events</text>
</g>
</g>
</svg>
