<?xml version="1.0" encoding="UTF-8" standalone="no"?>
<!DOCTYPE svg PUBLIC "-//W3C//DTD SVG 1.1//EN"
 "http://www.w3.org/Graphics/SVG/1.1/DTD/svg11.dtd">
<!-- Generated by graphviz version 2.43.0 (0)
 -->
<!-- Title: discord_request Pages: 1 -->
<svg width="498pt" height="142pt"
 viewBox="0.00 0.00 498.00 142.00" xmlns="http://www.w3.org/2000/svg" xmlns:xlink="http://www.w3.org/1999/xlink">
<g id="graph0" class="graph" transform="scale(1 1) rotate(0) translate(4 138)">
<title>discord_request</title>
<!-- Node1 -->
<g id="node1" class="node">
<title>Node1</title>
<g id="a_node1"><a xlink:title="Individual requests that are scheduled to run asynchronously.">
<polygon fill="#bfbfbf" stroke="black" points="223,-57.5 223,-76.5 317,-76.5 317,-57.5 223,-57.5"/>
<text text-anchor="middle" x="270" y="-64.5" font-family="Helvetica,sans-Serif" font-size="10.00">discord_request</text>
</a>
</g>
</g>
<!-- Node6 -->
<g id="node5" class="node">
<title>Node6</title>
<g id="a_node5"><a xlink:href="structdiscord__bucket.html" target="_top" xlink:title="The Discord bucket for handling per&#45;group ratelimits.">
<polygon fill="none" stroke="black" points="401,-57.5 401,-76.5 490,-76.5 490,-57.5 401,-57.5"/>
<text text-anchor="middle" x="445.5" y="-64.5" font-family="Helvetica,sans-Serif" font-size="10.00">discord_bucket</text>
</a>
</g>
</g>
<!-- Node1&#45;&gt;Node6 -->
<g id="edge5" class="edge">
<title>Node1&#45;&gt;Node6</title>
<path fill="none" stroke="#9a32cd" stroke-dasharray="5,2" d="M327.06,-67C351.01,-67 378.55,-67 400.94,-67"/>
<polygon fill="#9a32cd" stroke="#9a32cd" points="327.04,-63.5 317.04,-67 327.04,-70.5 327.04,-63.5"/>
<text text-anchor="middle" x="359" y="-70" font-family="Helvetica,sans-Serif" font-size="10.00"> busy_req</text>
</g>
<!-- Node2 -->
<g id="node2" class="node">
<title>Node2</title>
<g id="a_node2"><a xlink:href="structdiscord__ret__dispatch.html" target="_top" xlink:title="Generic request dispatcher.">
<polygon fill="none" stroke="black" points="2.5,-114.5 2.5,-133.5 119.5,-133.5 119.5,-114.5 2.5,-114.5"/>
<text text-anchor="middle" x="61" y="-121.5" font-family="Helvetica,sans-Serif" font-size="10.00">discord_ret_dispatch</text>
</a>
</g>
</g>
<!-- Node2&#45;&gt;Node1 -->
<g id="edge1" class="edge">
<title>Node2&#45;&gt;Node1</title>
<path fill="none" stroke="#9a32cd" stroke-dasharray="5,2" d="M126.57,-112.46C151.34,-107.4 179.72,-100.81 205,-93 219.67,-88.47 235.67,-81.97 248,-76.6"/>
<polygon fill="#9a32cd" stroke="#9a32cd" points="125.67,-109.07 116.55,-114.47 127.05,-115.94 125.67,-109.07"/>
<text text-anchor="middle" x="172.5" y="-112" font-family="Helvetica,sans-Serif" font-size="10.00"> dispatch</text>
</g>
<!-- Node3 -->
<g id="node3" class="node">
<title>Node3</title>
<g id="a_node3"><a xlink:href="structdiscord__ret__response.html" target="_top" xlink:title="Attributes of response datatype.">
<polygon fill="none" stroke="black" points="1,-76.5 1,-95.5 121,-95.5 121,-76.5 1,-76.5"/>
<text text-anchor="middle" x="61" y="-83.5" font-family="Helvetica,sans-Serif" font-size="10.00">discord_ret_response</text>
</a>
</g>
</g>
<!-- Node3&#45;&gt;Node1 -->
<g id="edge2" class="edge">
<title>Node3&#45;&gt;Node1</title>
<path fill="none" stroke="#9a32cd" stroke-dasharray="5,2" d="M131.07,-79.66C161.21,-76.89 195.74,-73.72 222.71,-71.25"/>
<polygon fill="#9a32cd" stroke="#9a32cd" points="130.68,-76.18 121.04,-80.58 131.32,-83.15 130.68,-76.18"/>
<text text-anchor="middle" x="172.5" y="-81" font-family="Helvetica,sans-Serif" font-size="10.00"> response</text>
</g>
<!-- Node4 -->
<g id="node4" class="node">
<title>Node4</title>
<g id="a_node4"><a xlink:href="structdiscord__attachments.html" target="_top" xlink:title=" ">
<polygon fill="none" stroke="red" points="1.5,-38.5 1.5,-57.5 120.5,-57.5 120.5,-38.5 1.5,-38.5"/>
<text text-anchor="middle" x="61" y="-45.5" font-family="Helvetica,sans-Serif" font-size="10.00">discord_attachments</text>
</a>
</g>
</g>
<!-- Node4&#45;&gt;Node1 -->
<g id="edge3" class="edge">
<title>Node4&#45;&gt;Node1</title>
<path fill="none" stroke="#9a32cd" stroke-dasharray="5,2" d="M130.77,-51.83C154.34,-53.4 180.85,-55.46 205,-58 210.8,-58.61 216.89,-59.34 222.9,-60.13"/>
<polygon fill="#9a32cd" stroke="#9a32cd" points="130.73,-48.32 120.52,-51.17 130.28,-55.31 130.73,-48.32"/>
<text text-anchor="middle" x="172.5" y="-61" font-family="Helvetica,sans-Serif" font-size="10.00"> attachments</text>
</g>
<!-- Node6&#45;&gt;Node1 -->
<g id="edge4" class="edge">
<title>Node6&#45;&gt;Node1</title>
<path fill="none" stroke="#9a32cd" stroke-dasharray="5,2" d="M404.15,-54.95C397.16,-53.31 389.91,-51.88 383,-51 361.84,-48.29 356.17,-48.39 335,-51 324.31,-52.32 312.85,-54.82 302.61,-57.47"/>
<polygon fill="#9a32cd" stroke="#9a32cd" points="403.59,-58.42 414.14,-57.47 405.3,-51.63 403.59,-58.42"/>
<text text-anchor="middle" x="359" y="-54" font-family="Helvetica,sans-Serif" font-size="10.00"> b</text>
</g>
<!-- Node7 -->
<g id="node6" class="node">
<title>Node7</title>
<g id="a_node6"><a xlink:href="structccord__szbuf__reusable.html" target="_top" xlink:title="Reusable generic sized buffer.">
<polygon fill="none" stroke="black" points="0,-0.5 0,-19.5 122,-19.5 122,-0.5 0,-0.5"/>
<text text-anchor="middle" x="61" y="-7.5" font-family="Helvetica,sans-Serif" font-size="10.00">ccord_szbuf_reusable</text>
</a>
</g>
</g>
<!-- Node7&#45;&gt;Node1 -->
<g id="edge6" class="edge">
<title>Node7&#45;&gt;Node1</title>
<path fill="none" stroke="#9a32cd" stroke-dasharray="5,2" d="M132.21,-19.63C155.67,-23.8 181.75,-29.49 205,-37 221.46,-42.32 239.21,-50.88 251.83,-57.5"/>
<polygon fill="#9a32cd" stroke="#9a32cd" points="132.77,-16.18 122.33,-17.93 131.59,-23.08 132.77,-16.18"/>
<text text-anchor="middle" x="172.5" y="-40" font-family="Helvetica,sans-Serif" font-size="10.00"> body</text>
</g>
</g>
</svg>
