<?xml version="1.0" encoding="UTF-8" standalone="no"?>
<!DOCTYPE svg PUBLIC "-//W3C//DTD SVG 1.1//EN"
 "http://www.w3.org/Graphics/SVG/1.1/DTD/svg11.dtd">
<!-- Generated by graphviz version 2.43.0 (0)
 -->
<!-- Title: discord_adapter Pages: 1 -->
<svg width="214pt" height="117pt"
 viewBox="0.00 0.00 213.50 117.00" xmlns="http://www.w3.org/2000/svg" xmlns:xlink="http://www.w3.org/1999/xlink">
<g id="graph0" class="graph" transform="scale(1 1) rotate(0) translate(4 113)">
<title>discord_adapter</title>
<!-- Node1 -->
<g id="node1" class="node">
<title>Node1</title>
<g id="a_node1"><a xlink:title="The handle used for performing HTTP Requests.">
<polygon fill="#bfbfbf" stroke="black" points="57.5,-0.5 57.5,-19.5 152.5,-19.5 152.5,-0.5 57.5,-0.5"/>
<text text-anchor="middle" x="105" y="-7.5" font-family="Helvetica,sans-Serif" font-size="10.00">discord_adapter</text>
</a>
</g>
</g>
<!-- Node2 -->
<g id="node2" class="node">
<title>Node2</title>
<g id="a_node2"><a xlink:href="structdiscord__refcount.html" target="_top" xlink:title="Naive garbage collector to cleanup user arbitrary data.">
<polygon fill="none" stroke="black" points="0,-89.5 0,-108.5 98,-108.5 98,-89.5 0,-89.5"/>
<text text-anchor="middle" x="49" y="-96.5" font-family="Helvetica,sans-Serif" font-size="10.00">discord_refcount</text>
</a>
</g>
</g>
<!-- Node2&#45;&gt;Node1 -->
<g id="edge1" class="edge">
<title>Node2&#45;&gt;Node1</title>
<path fill="none" stroke="#9a32cd" stroke-dasharray="5,2" d="M60.11,-80.74C71.98,-62.3 90.32,-33.8 99.45,-19.62"/>
<polygon fill="#9a32cd" stroke="#9a32cd" points="57.04,-79.04 54.57,-89.34 62.93,-82.83 57.04,-79.04"/>
<text text-anchor="middle" x="111.5" y="-52" font-family="Helvetica,sans-Serif" font-size="10.00"> refcounts</text>
</g>
<!-- Node3 -->
<g id="node3" class="node">
<title>Node3</title>
<g id="a_node3"><a xlink:href="structdiscord__bucket.html" target="_top" xlink:title="The bucket struct for handling ratelimiting.">
<polygon fill="none" stroke="black" points="116.5,-89.5 116.5,-108.5 205.5,-108.5 205.5,-89.5 116.5,-89.5"/>
<text text-anchor="middle" x="161" y="-96.5" font-family="Helvetica,sans-Serif" font-size="10.00">discord_bucket</text>
</a>
</g>
</g>
<!-- Node3&#45;&gt;Node1 -->
<g id="edge2" class="edge">
<title>Node3&#45;&gt;Node1</title>
<path fill="none" stroke="#9a32cd" stroke-dasharray="5,2" d="M156.98,-79.33C153.63,-66.8 147.94,-50.38 139,-38 133.7,-30.67 125.9,-24.28 119.11,-19.56"/>
<polygon fill="#9a32cd" stroke="#9a32cd" points="153.6,-80.24 159.34,-89.14 160.4,-78.6 153.6,-80.24"/>
<text text-anchor="middle" x="173" y="-63" font-family="Helvetica,sans-Serif" font-size="10.00"> b_miss</text>
<text text-anchor="middle" x="173" y="-52" font-family="Helvetica,sans-Serif" font-size="10.00">b_null</text>
<text text-anchor="middle" x="173" y="-41" font-family="Helvetica,sans-Serif" font-size="10.00">buckets</text>
</g>
</g>
</svg>
