<?xml version="1.0" encoding="UTF-8" standalone="no"?>
<!DOCTYPE svg PUBLIC "-//W3C//DTD SVG 1.1//EN"
 "http://www.w3.org/Graphics/SVG/1.1/DTD/svg11.dtd">
<!-- Generated by graphviz version 2.43.0 (0)
 -->
<!-- Title: discord Pages: 1 -->
<svg width="307pt" height="197pt"
 viewBox="0.00 0.00 307.00 197.00" xmlns="http://www.w3.org/2000/svg" xmlns:xlink="http://www.w3.org/1999/xlink">
<g id="graph0" class="graph" transform="scale(1 1) rotate(0) translate(4 193)">
<title>discord</title>
<!-- Node1 -->
<g id="node1" class="node">
<title>Node1</title>
<g id="a_node1"><a xlink:title="The Discord client handler.">
<polygon fill="#bfbfbf" stroke="black" points="126.5,-85 126.5,-104 178.5,-104 178.5,-85 126.5,-85"/>
<text text-anchor="middle" x="152.5" y="-92" font-family="Helvetica,sans-Serif" font-size="10.00">discord</text>
</a>
</g>
</g>
<!-- Node1&#45;&gt;Node1 -->
<g id="edge6" class="edge">
<title>Node1&#45;&gt;Node1</title>
<path fill="none" stroke="#9a32cd" stroke-dasharray="5,2" d="M188.97,-101.67C193.52,-100.4 196.5,-98.01 196.5,-94.5 196.5,-88.74 188.46,-86 178.7,-86.27"/>
<polygon fill="#9a32cd" stroke="#9a32cd" points="188.29,-98.22 178.7,-102.73 189.01,-105.18 188.29,-98.22"/>
<text text-anchor="middle" x="218" y="-103" font-family="Helvetica,sans-Serif" font-size="10.00"> cb</text>
<text text-anchor="middle" x="218" y="-92" font-family="Helvetica,sans-Serif" font-size="10.00">on_cycle</text>
<text text-anchor="middle" x="218" y="-81" font-family="Helvetica,sans-Serif" font-size="10.00">on_idle</text>
</g>
<!-- Node6 -->
<g id="node3" class="node">
<title>Node6</title>
<g id="a_node3"><a xlink:href="structdiscord__gateway.html" target="_top" xlink:title="The handle used for establishing a WebSockets connection.">
<polygon fill="none" stroke="red" points="103,-0.5 103,-19.5 202,-19.5 202,-0.5 103,-0.5"/>
<text text-anchor="middle" x="152.5" y="-7.5" font-family="Helvetica,sans-Serif" font-size="10.00">discord_gateway</text>
</a>
</g>
</g>
<!-- Node1&#45;&gt;Node6 -->
<g id="edge3" class="edge">
<title>Node1&#45;&gt;Node6</title>
<path fill="none" stroke="#9a32cd" stroke-dasharray="5,2" d="M129.55,-78.74C123.52,-73.6 117.78,-67.27 114.5,-60 110.48,-51.09 110.02,-46.69 114.5,-38 118.58,-30.09 126.17,-23.99 133.5,-19.61"/>
<polygon fill="#9a32cd" stroke="#9a32cd" points="127.68,-81.71 137.75,-84.98 131.91,-76.14 127.68,-81.71"/>
<text text-anchor="middle" x="138.5" y="-52" font-family="Helvetica,sans-Serif" font-size="10.00"> cb</text>
<text text-anchor="middle" x="138.5" y="-41" font-family="Helvetica,sans-Serif" font-size="10.00">scheduler</text>
</g>
<!-- Node2 -->
<g id="node2" class="node">
<title>Node2</title>
<g id="a_node2"><a xlink:href="structdiscord__adapter.html" target="_top" xlink:title="The handle used for performing HTTP Requests.">
<polygon fill="none" stroke="red" points="0,-169.5 0,-188.5 95,-188.5 95,-169.5 0,-169.5"/>
<text text-anchor="middle" x="47.5" y="-176.5" font-family="Helvetica,sans-Serif" font-size="10.00">discord_adapter</text>
</a>
</g>
</g>
<!-- Node2&#45;&gt;Node1 -->
<g id="edge1" class="edge">
<title>Node2&#45;&gt;Node1</title>
<path fill="none" stroke="#9a32cd" stroke-dasharray="5,2" d="M65.82,-162.68C77.62,-152.91 93.33,-140.05 107.5,-129 118.56,-120.37 131.42,-110.85 140.55,-104.17"/>
<polygon fill="#9a32cd" stroke="#9a32cd" points="63.46,-160.1 58.01,-169.18 67.93,-165.48 63.46,-160.1"/>
<text text-anchor="middle" x="128" y="-137.5" font-family="Helvetica,sans-Serif" font-size="10.00"> adapter</text>
</g>
<!-- Node6&#45;&gt;Node1 -->
<g id="edge2" class="edge">
<title>Node6&#45;&gt;Node1</title>
<path fill="none" stroke="#9a32cd" stroke-dasharray="5,2" d="M163.1,-28.54C164.5,-31.6 165.72,-34.82 166.5,-38 168.82,-47.5 168.42,-50.41 166.5,-60 164.72,-68.9 160.51,-78.39 157.17,-84.98"/>
<polygon fill="#9a32cd" stroke="#9a32cd" points="166.11,-26.74 158.3,-19.58 159.93,-30.04 166.11,-26.74"/>
<text text-anchor="middle" x="176.5" y="-46.5" font-family="Helvetica,sans-Serif" font-size="10.00"> gw</text>
</g>
<!-- Node23 -->
<g id="node4" class="node">
<title>Node23</title>
<g id="a_node4"><a xlink:href="structdiscord__user.html" target="_top" xlink:title=" ">
<polygon fill="none" stroke="black" points="113.5,-169.5 113.5,-188.5 191.5,-188.5 191.5,-169.5 113.5,-169.5"/>
<text text-anchor="middle" x="152.5" y="-176.5" font-family="Helvetica,sans-Serif" font-size="10.00">discord_user</text>
</a>
</g>
</g>
<!-- Node23&#45;&gt;Node1 -->
<g id="edge4" class="edge">
<title>Node23&#45;&gt;Node1</title>
<path fill="none" stroke="#9a32cd" stroke-dasharray="5,2" d="M152.5,-159.43C152.5,-142.13 152.5,-117.11 152.5,-104.1"/>
<polygon fill="#9a32cd" stroke="#9a32cd" points="149,-159.48 152.5,-169.48 156,-159.48 149,-159.48"/>
<text text-anchor="middle" x="163.5" y="-137.5" font-family="Helvetica,sans-Serif" font-size="10.00"> self</text>
</g>
<!-- Node24 -->
<g id="node5" class="node">
<title>Node24</title>
<g id="a_node5"><a xlink:href="structdiscord__timers.html" target="_top" xlink:title=" ">
<polygon fill="none" stroke="orangered" points="210,-169.5 210,-188.5 299,-188.5 299,-169.5 210,-169.5"/>
<text text-anchor="middle" x="254.5" y="-176.5" font-family="Helvetica,sans-Serif" font-size="10.00">discord_timers</text>
</a>
</g>
</g>
<!-- Node24&#45;&gt;Node1 -->
<g id="edge5" class="edge">
<title>Node24&#45;&gt;Node1</title>
<path fill="none" stroke="#9a32cd" stroke-dasharray="5,2" d="M235.97,-163.01C214.65,-145.77 180.37,-118.04 163.13,-104.1"/>
<polygon fill="#9a32cd" stroke="#9a32cd" points="233.99,-165.91 243.97,-169.48 238.39,-160.47 233.99,-165.91"/>
<text text-anchor="middle" x="239" y="-143" font-family="Helvetica,sans-Serif" font-size="10.00"> internal</text>
<text text-anchor="middle" x="239" y="-132" font-family="Helvetica,sans-Serif" font-size="10.00">user</text>
</g>
</g>
</svg>
