<?xml version="1.0" encoding="UTF-8" standalone="no"?>
<!DOCTYPE svg PUBLIC "-//W3C//DTD SVG 1.1//EN"
 "http://www.w3.org/Graphics/SVG/1.1/DTD/svg11.dtd">
<!-- Generated by graphviz version 2.43.0 (0)
 -->
<!-- Title: discord_components Pages: 1 -->
<svg width="125pt" height="95pt"
 viewBox="0.00 0.00 125.00 95.00" xmlns="http://www.w3.org/2000/svg" xmlns:xlink="http://www.w3.org/1999/xlink">
<g id="graph0" class="graph" transform="scale(1 1) rotate(0) translate(4 91)">
<title>discord_components</title>
<!-- Node1 -->
<g id="node1" class="node">
<title>Node1</title>
<g id="a_node1"><a xlink:title=" ">
<polygon fill="#bfbfbf" stroke="black" points="0,-67.5 0,-86.5 117,-86.5 117,-67.5 0,-67.5"/>
<text text-anchor="middle" x="58.5" y="-74.5" font-family="Helvetica,sans-Serif" font-size="10.00">discord_components</text>
</a>
</g>
</g>
<!-- Node2 -->
<g id="node2" class="node">
<title>Node2</title>
<g id="a_node2"><a xlink:href="structdiscord__component.html" target="_top" xlink:title=" ">
<polygon fill="none" stroke="red" points="2.5,-0.5 2.5,-19.5 114.5,-19.5 114.5,-0.5 2.5,-0.5"/>
<text text-anchor="middle" x="58.5" y="-7.5" font-family="Helvetica,sans-Serif" font-size="10.00">discord_component</text>
</a>
</g>
</g>
<!-- Node1&#45;&gt;Node2 -->
<g id="edge2" class="edge">
<title>Node1&#45;&gt;Node2</title>
<path fill="none" stroke="#9a32cd" stroke-dasharray="5,2" d="M24.96,-62.12C19.98,-58.58 15.51,-54.25 12.5,-49 5.29,-36.41 19.73,-26.23 34.29,-19.58"/>
<polygon fill="#9a32cd" stroke="#9a32cd" points="23.31,-65.2 33.68,-67.34 26.9,-59.2 23.31,-65.2"/>
<text text-anchor="middle" x="44.5" y="-41" font-family="Helvetica,sans-Serif" font-size="10.00"> components</text>
</g>
<!-- Node2&#45;&gt;Node1 -->
<g id="edge1" class="edge">
<title>Node2&#45;&gt;Node1</title>
<path fill="none" stroke="#9a32cd" stroke-dasharray="5,2" d="M75.49,-27.55C80.08,-33.99 83.14,-41.59 80.5,-49 78.07,-55.84 73.08,-62.2 68.47,-67.02"/>
<polygon fill="#9a32cd" stroke="#9a32cd" points="77.84,-24.91 68.66,-19.61 72.53,-29.47 77.84,-24.91"/>
<text text-anchor="middle" x="95" y="-41" font-family="Helvetica,sans-Serif" font-size="10.00"> array</text>
</g>
</g>
</svg>
