<?xml version="1.0" encoding="UTF-8" standalone="no"?>
<!DOCTYPE svg PUBLIC "-//W3C//DTD SVG 1.1//EN"
 "http://www.w3.org/Graphics/SVG/1.1/DTD/svg11.dtd">
<!-- Generated by graphviz version 2.43.0 (0)
 -->
<!-- Title: discord_channel Pages: 1 -->
<svg width="542pt" height="95pt"
 viewBox="0.00 0.00 542.00 95.00" xmlns="http://www.w3.org/2000/svg" xmlns:xlink="http://www.w3.org/1999/xlink">
<g id="graph0" class="graph" transform="scale(1 1) rotate(0) translate(4 91)">
<title>discord_channel</title>
<!-- Node1 -->
<g id="node1" class="node">
<title>Node1</title>
<g id="a_node1"><a xlink:title=" ">
<polygon fill="#bfbfbf" stroke="black" points="198,-0.5 198,-19.5 293,-19.5 293,-0.5 198,-0.5"/>
<text text-anchor="middle" x="245.5" y="-7.5" font-family="Helvetica,sans-Serif" font-size="10.00">discord_channel</text>
</a>
</g>
</g>
<!-- Node2 -->
<g id="node2" class="node">
<title>Node2</title>
<g id="a_node2"><a xlink:href="structdiscord__overwrites.html" target="_top" xlink:title=" ">
<polygon fill="none" stroke="orangered" points="0,-67.5 0,-86.5 109,-86.5 109,-67.5 0,-67.5"/>
<text text-anchor="middle" x="54.5" y="-74.5" font-family="Helvetica,sans-Serif" font-size="10.00">discord_overwrites</text>
</a>
</g>
</g>
<!-- Node2&#45;&gt;Node1 -->
<g id="edge1" class="edge">
<title>Node2&#45;&gt;Node1</title>
<path fill="none" stroke="#9a32cd" stroke-dasharray="5,2" d="M66.19,-58.89C72.26,-51.31 80.33,-43 89.5,-38 122.81,-19.85 165.54,-13.42 197.85,-11.35"/>
<polygon fill="#9a32cd" stroke="#9a32cd" points="63.17,-57.08 60.03,-67.2 68.79,-61.25 63.17,-57.08"/>
<text text-anchor="middle" x="147" y="-41" font-family="Helvetica,sans-Serif" font-size="10.00"> permission_overwrites</text>
</g>
<!-- Node4 -->
<g id="node3" class="node">
<title>Node4</title>
<g id="a_node3"><a xlink:href="structdiscord__users.html" target="_top" xlink:title=" ">
<polygon fill="none" stroke="red" points="139,-67.5 139,-86.5 222,-86.5 222,-67.5 139,-67.5"/>
<text text-anchor="middle" x="180.5" y="-74.5" font-family="Helvetica,sans-Serif" font-size="10.00">discord_users</text>
</a>
</g>
</g>
<!-- Node4&#45;&gt;Node1 -->
<g id="edge2" class="edge">
<title>Node4&#45;&gt;Node1</title>
<path fill="none" stroke="#9a32cd" stroke-dasharray="5,2" d="M196.5,-60C209.25,-47.25 226.61,-29.89 236.87,-19.63"/>
<polygon fill="#9a32cd" stroke="#9a32cd" points="193.86,-57.69 189.27,-67.23 198.81,-62.64 193.86,-57.69"/>
<text text-anchor="middle" x="242.5" y="-41" font-family="Helvetica,sans-Serif" font-size="10.00"> recipients</text>
</g>
<!-- Node6 -->
<g id="node4" class="node">
<title>Node6</title>
<g id="a_node4"><a xlink:href="structdiscord__thread__metadata.html" target="_top" xlink:title=" ">
<polygon fill="none" stroke="#bfbfbf" points="240,-67.5 240,-86.5 381,-86.5 381,-67.5 240,-67.5"/>
<text text-anchor="middle" x="310.5" y="-74.5" font-family="Helvetica,sans-Serif" font-size="10.00">discord_thread_metadata</text>
</a>
</g>
</g>
<!-- Node6&#45;&gt;Node1 -->
<g id="edge3" class="edge">
<title>Node6&#45;&gt;Node1</title>
<path fill="none" stroke="#9a32cd" stroke-dasharray="5,2" d="M294.5,-60C281.75,-47.25 264.39,-29.89 254.13,-19.63"/>
<polygon fill="#9a32cd" stroke="#9a32cd" points="292.19,-62.64 301.73,-67.23 297.14,-57.69 292.19,-62.64"/>
<text text-anchor="middle" x="325.5" y="-41" font-family="Helvetica,sans-Serif" font-size="10.00"> thread_metadata</text>
</g>
<!-- Node7 -->
<g id="node5" class="node">
<title>Node7</title>
<g id="a_node5"><a xlink:href="structdiscord__thread__member.html" target="_top" xlink:title=" ">
<polygon fill="none" stroke="#bfbfbf" points="399,-67.5 399,-86.5 534,-86.5 534,-67.5 399,-67.5"/>
<text text-anchor="middle" x="466.5" y="-74.5" font-family="Helvetica,sans-Serif" font-size="10.00">discord_thread_member</text>
</a>
</g>
</g>
<!-- Node7&#45;&gt;Node1 -->
<g id="edge4" class="edge">
<title>Node7&#45;&gt;Node1</title>
<path fill="none" stroke="#9a32cd" stroke-dasharray="5,2" d="M439.15,-63.3C420.87,-55.19 396.11,-44.94 373.5,-38 347.34,-29.97 317.45,-23.51 293.13,-18.93"/>
<polygon fill="#9a32cd" stroke="#9a32cd" points="437.77,-66.52 448.33,-67.43 440.65,-60.14 437.77,-66.52"/>
<text text-anchor="middle" x="427" y="-41" font-family="Helvetica,sans-Serif" font-size="10.00"> member</text>
</g>
</g>
</svg>
