<?xml version="1.0" encoding="UTF-8" standalone="no"?>
<!DOCTYPE svg PUBLIC "-//W3C//DTD SVG 1.1//EN"
 "http://www.w3.org/Graphics/SVG/1.1/DTD/svg11.dtd">
<!-- Generated by graphviz version 2.43.0 (0)
 -->
<!-- Title: discord_guild_scheduled_event Pages: 1 -->
<svg width="240pt" height="117pt"
 viewBox="0.00 0.00 240.00 117.00" xmlns="http://www.w3.org/2000/svg" xmlns:xlink="http://www.w3.org/1999/xlink">
<g id="graph0" class="graph" transform="scale(1 1) rotate(0) translate(4 113)">
<title>discord_guild_scheduled_event</title>
<!-- Node1 -->
<g id="node1" class="node">
<title>Node1</title>
<g id="a_node1"><a xlink:title=" ">
<polygon fill="#bfbfbf" stroke="black" points="62,-0.5 62,-30.5 198,-30.5 198,-0.5 62,-0.5"/>
<text text-anchor="start" x="70" y="-18.5" font-family="Helvetica,sans-Serif" font-size="10.00">discord_guild_scheduled</text>
<text text-anchor="middle" x="130" y="-7.5" font-family="Helvetica,sans-Serif" font-size="10.00">_event</text>
</a>
</g>
</g>
<!-- Node2 -->
<g id="node2" class="node">
<title>Node2</title>
<g id="a_node2"><a xlink:href="structdiscord__guild__scheduled__event__entity__metadata.html" target="_top" xlink:title=" ">
<polygon fill="none" stroke="black" points="0,-78.5 0,-108.5 136,-108.5 136,-78.5 0,-78.5"/>
<text text-anchor="start" x="8" y="-96.5" font-family="Helvetica,sans-Serif" font-size="10.00">discord_guild_scheduled</text>
<text text-anchor="middle" x="68" y="-85.5" font-family="Helvetica,sans-Serif" font-size="10.00">_event_entity_metadata</text>
</a>
</g>
</g>
<!-- Node2&#45;&gt;Node1 -->
<g id="edge1" class="edge">
<title>Node2&#45;&gt;Node1</title>
<path fill="none" stroke="#9a32cd" stroke-dasharray="5,2" d="M75.17,-68.67C77.9,-61.9 81.47,-54.8 86,-49 91.5,-41.97 98.89,-35.72 106.05,-30.62"/>
<polygon fill="#9a32cd" stroke="#9a32cd" points="71.85,-67.56 71.77,-78.16 78.44,-69.92 71.85,-67.56"/>
<text text-anchor="middle" x="128.5" y="-52" font-family="Helvetica,sans-Serif" font-size="10.00"> entity_metadata</text>
</g>
<!-- Node3 -->
<g id="node3" class="node">
<title>Node3</title>
<g id="a_node3"><a xlink:href="structdiscord__user.html" target="_top" xlink:title=" ">
<polygon fill="none" stroke="black" points="154,-84 154,-103 232,-103 232,-84 154,-84"/>
<text text-anchor="middle" x="193" y="-91" font-family="Helvetica,sans-Serif" font-size="10.00">discord_user</text>
</a>
</g>
</g>
<!-- Node3&#45;&gt;Node1 -->
<g id="edge2" class="edge">
<title>Node3&#45;&gt;Node1</title>
<path fill="none" stroke="#9a32cd" stroke-dasharray="5,2" d="M185.96,-74.38C182.24,-66.14 177.17,-56.56 171,-49 165.49,-42.24 158.34,-35.98 151.57,-30.8"/>
<polygon fill="#9a32cd" stroke="#9a32cd" points="182.83,-75.97 189.92,-83.85 189.29,-73.27 182.83,-75.97"/>
<text text-anchor="middle" x="197" y="-52" font-family="Helvetica,sans-Serif" font-size="10.00"> creator</text>
</g>
</g>
</svg>
