<?xml version="1.0" encoding="UTF-8" standalone="no"?>
<!DOCTYPE svg PUBLIC "-//W3C//DTD SVG 1.1//EN"
 "http://www.w3.org/Graphics/SVG/1.1/DTD/svg11.dtd">
<!-- Generated by graphviz version 2.43.0 (0)
 -->
<!-- Title: discord_channel Pages: 1 -->
<svg width="396pt" height="271pt"
 viewBox="0.00 0.00 396.00 270.50" xmlns="http://www.w3.org/2000/svg" xmlns:xlink="http://www.w3.org/1999/xlink">
<g id="graph0" class="graph" transform="scale(1 1) rotate(0) translate(4 266.5)">
<title>discord_channel</title>
<!-- Node1 -->
<g id="node1" class="node">
<title>Node1</title>
<g id="a_node1"><a xlink:title=" ">
<polygon fill="#bfbfbf" stroke="black" points="293,-126 293,-145 388,-145 388,-126 293,-126"/>
<text text-anchor="middle" x="340.5" y="-133" font-family="Helvetica,sans-Serif" font-size="10.00">discord_channel</text>
</a>
</g>
</g>
<!-- Node2 -->
<g id="node2" class="node">
<title>Node2</title>
<g id="a_node2"><a xlink:href="structdiscord__overwrites.html" target="_top" xlink:title=" ">
<polygon fill="none" stroke="red" points="16,-240 16,-259 125,-259 125,-240 16,-240"/>
<text text-anchor="middle" x="70.5" y="-247" font-family="Helvetica,sans-Serif" font-size="10.00">discord_overwrites</text>
</a>
</g>
</g>
<!-- Node2&#45;&gt;Node1 -->
<g id="edge1" class="edge">
<title>Node2&#45;&gt;Node1</title>
<path fill="none" stroke="#9a32cd" stroke-dasharray="5,2" d="M135.5,-253.04C177.8,-252.54 232.98,-246.23 275,-221.5 306.04,-203.23 326.94,-163.63 335.34,-145.24"/>
<polygon fill="#9a32cd" stroke="#9a32cd" points="135.31,-249.54 125.31,-253.05 135.31,-256.54 135.31,-249.54"/>
<text text-anchor="middle" x="217" y="-254.5" font-family="Helvetica,sans-Serif" font-size="10.00"> permission_overwrites</text>
</g>
<!-- Node4 -->
<g id="node3" class="node">
<title>Node4</title>
<g id="a_node3"><a xlink:href="structdiscord__users.html" target="_top" xlink:title=" ">
<polygon fill="none" stroke="red" points="29,-202 29,-221 112,-221 112,-202 29,-202"/>
<text text-anchor="middle" x="70.5" y="-209" font-family="Helvetica,sans-Serif" font-size="10.00">discord_users</text>
</a>
</g>
</g>
<!-- Node4&#45;&gt;Node1 -->
<g id="edge2" class="edge">
<title>Node4&#45;&gt;Node1</title>
<path fill="none" stroke="#9a32cd" stroke-dasharray="5,2" d="M122.35,-210.15C164.57,-207.54 225.49,-200.29 275,-180.5 296.05,-172.09 316.92,-155.67 328.99,-145.16"/>
<polygon fill="#9a32cd" stroke="#9a32cd" points="122.1,-206.65 112.31,-210.7 122.49,-213.64 122.1,-206.65"/>
<text text-anchor="middle" x="217" y="-209.5" font-family="Helvetica,sans-Serif" font-size="10.00"> recipients</text>
</g>
<!-- Node6 -->
<g id="node4" class="node">
<title>Node6</title>
<g id="a_node4"><a xlink:href="structdiscord__thread__metadata.html" target="_top" xlink:title=" ">
<polygon fill="none" stroke="black" points="0,-164 0,-183 141,-183 141,-164 0,-164"/>
<text text-anchor="middle" x="70.5" y="-171" font-family="Helvetica,sans-Serif" font-size="10.00">discord_thread_metadata</text>
</a>
</g>
</g>
<!-- Node6&#45;&gt;Node1 -->
<g id="edge3" class="edge">
<title>Node6&#45;&gt;Node1</title>
<path fill="none" stroke="#9a32cd" stroke-dasharray="5,2" d="M151.41,-166.63C189.05,-162.84 234.48,-157.48 275,-150.5 283.72,-149 293.04,-147.04 301.79,-145.04"/>
<polygon fill="#9a32cd" stroke="#9a32cd" points="150.62,-163.19 141.01,-167.66 151.31,-170.16 150.62,-163.19"/>
<text text-anchor="middle" x="217" y="-168.5" font-family="Helvetica,sans-Serif" font-size="10.00"> thread_metadata</text>
</g>
<!-- Node7 -->
<g id="node5" class="node">
<title>Node7</title>
<g id="a_node5"><a xlink:href="structdiscord__thread__member.html" target="_top" xlink:title=" ">
<polygon fill="none" stroke="red" points="3,-126 3,-145 138,-145 138,-126 3,-126"/>
<text text-anchor="middle" x="70.5" y="-133" font-family="Helvetica,sans-Serif" font-size="10.00">discord_thread_member</text>
</a>
</g>
</g>
<!-- Node7&#45;&gt;Node1 -->
<g id="edge4" class="edge">
<title>Node7&#45;&gt;Node1</title>
<path fill="none" stroke="#9a32cd" stroke-dasharray="5,2" d="M148.15,-135.5C194.76,-135.5 252.77,-135.5 292.63,-135.5"/>
<polygon fill="#9a32cd" stroke="#9a32cd" points="148.09,-132 138.09,-135.5 148.09,-139 148.09,-132"/>
<text text-anchor="middle" x="217" y="-138.5" font-family="Helvetica,sans-Serif" font-size="10.00"> member</text>
</g>
<!-- Node10 -->
<g id="node6" class="node">
<title>Node10</title>
<g id="a_node6"><a xlink:href="structdiscord__thread__tags.html" target="_top" xlink:title=" ">
<polygon fill="none" stroke="red" points="13,-88 13,-107 128,-107 128,-88 13,-88"/>
<text text-anchor="middle" x="70.5" y="-95" font-family="Helvetica,sans-Serif" font-size="10.00">discord_thread_tags</text>
</a>
</g>
</g>
<!-- Node10&#45;&gt;Node1 -->
<g id="edge5" class="edge">
<title>Node10&#45;&gt;Node1</title>
<path fill="none" stroke="#9a32cd" stroke-dasharray="5,2" d="M138.45,-103.1C178.28,-106.92 229.71,-112.7 275,-120.5 283.72,-122 293.04,-123.96 301.79,-125.96"/>
<polygon fill="#9a32cd" stroke="#9a32cd" points="138.61,-99.6 128.33,-102.14 137.96,-106.57 138.61,-99.6"/>
<text text-anchor="middle" x="217" y="-123.5" font-family="Helvetica,sans-Serif" font-size="10.00"> available_tags</text>
</g>
<!-- Node9 -->
<g id="node7" class="node">
<title>Node9</title>
<g id="a_node7"><a xlink:href="structsnowflakes.html" target="_top" xlink:title=" ">
<polygon fill="none" stroke="black" points="35,-50 35,-69 106,-69 106,-50 35,-50"/>
<text text-anchor="middle" x="70.5" y="-57" font-family="Helvetica,sans-Serif" font-size="10.00">snowflakes</text>
</a>
</g>
</g>
<!-- Node9&#45;&gt;Node1 -->
<g id="edge6" class="edge">
<title>Node9&#45;&gt;Node1</title>
<path fill="none" stroke="#9a32cd" stroke-dasharray="5,2" d="M116.26,-60.11C158.58,-62.05 223.13,-68.61 275,-89.5 296.43,-98.13 317.51,-115.25 329.47,-125.99"/>
<polygon fill="#9a32cd" stroke="#9a32cd" points="116.4,-56.61 106.27,-59.71 116.12,-63.6 116.4,-56.61"/>
<text text-anchor="middle" x="217" y="-92.5" font-family="Helvetica,sans-Serif" font-size="10.00"> applied_tags</text>
</g>
<!-- Node12 -->
<g id="node8" class="node">
<title>Node12</title>
<g id="a_node8"><a xlink:href="structdiscord__thread__default__reaction.html" target="_top" xlink:title=" ">
<polygon fill="none" stroke="black" points="6.5,-0.5 6.5,-30.5 134.5,-30.5 134.5,-0.5 6.5,-0.5"/>
<text text-anchor="start" x="14.5" y="-18.5" font-family="Helvetica,sans-Serif" font-size="10.00">discord_thread_default</text>
<text text-anchor="middle" x="70.5" y="-7.5" font-family="Helvetica,sans-Serif" font-size="10.00">_reaction</text>
</a>
</g>
</g>
<!-- Node12&#45;&gt;Node1 -->
<g id="edge7" class="edge">
<title>Node12&#45;&gt;Node1</title>
<path fill="none" stroke="#9a32cd" stroke-dasharray="5,2" d="M145.1,-14.2C185.98,-16.59 236.25,-24.91 275,-48.5 306,-67.37 326.92,-107.24 335.34,-125.71"/>
<polygon fill="#9a32cd" stroke="#9a32cd" points="145.08,-10.7 134.92,-13.72 144.74,-17.69 145.08,-10.7"/>
<text text-anchor="middle" x="217" y="-51.5" font-family="Helvetica,sans-Serif" font-size="10.00"> default_reaction_emoji</text>
</g>
</g>
</svg>
