<?xml version="1.0" encoding="UTF-8" standalone="no"?>
<!DOCTYPE svg PUBLIC "-//W3C//DTD SVG 1.1//EN"
 "http://www.w3.org/Graphics/SVG/1.1/DTD/svg11.dtd">
<!-- Generated by graphviz version 2.43.0 (0)
 -->
<!-- Title: discord_message_commands Pages: 1 -->
<svg width="218pt" height="162pt"
 viewBox="0.00 0.00 218.00 162.00" xmlns="http://www.w3.org/2000/svg" xmlns:xlink="http://www.w3.org/1999/xlink">
<g id="graph0" class="graph" transform="scale(1 1) rotate(0) translate(4 158)">
<title>discord_message_commands</title>
<!-- Node1 -->
<g id="node1" class="node">
<title>Node1</title>
<g id="a_node1"><a xlink:title="The handle for storing user&#39;s message commands.">
<polygon fill="#bfbfbf" stroke="black" points="49,-67.5 49,-86.5 210,-86.5 210,-67.5 49,-67.5"/>
<text text-anchor="middle" x="129.5" y="-74.5" font-family="Helvetica,sans-Serif" font-size="10.00">discord_message_commands</text>
</a>
</g>
</g>
<!-- Node8 -->
<g id="node4" class="node">
<title>Node8</title>
<g id="a_node4"><a xlink:href="structdiscord.html" target="_top" xlink:title="The Discord client handler.">
<polygon fill="none" stroke="red" points="37.5,-0.5 37.5,-19.5 89.5,-19.5 89.5,-0.5 37.5,-0.5"/>
<text text-anchor="middle" x="63.5" y="-7.5" font-family="Helvetica,sans-Serif" font-size="10.00">discord</text>
</a>
</g>
</g>
<!-- Node1&#45;&gt;Node8 -->
<g id="edge5" class="edge">
<title>Node1&#45;&gt;Node8</title>
<path fill="none" stroke="#9a32cd" stroke-dasharray="5,2" d="M121.52,-58.14C117.9,-51.32 113.15,-43.79 107.5,-38 100.24,-30.56 90.53,-24.31 82.07,-19.71"/>
<polygon fill="#9a32cd" stroke="#9a32cd" points="118.47,-59.88 125.99,-67.35 124.77,-56.83 118.47,-59.88"/>
<text text-anchor="middle" x="145.5" y="-41" font-family="Helvetica,sans-Serif" font-size="10.00"> commands</text>
</g>
<!-- Node2 -->
<g id="node2" class="node">
<title>Node2</title>
<g id="a_node2"><a xlink:href="structlogconf.html" target="_top" xlink:title="A stackful and modularized wrapper over the popular &#39;log.c&#39; facilities.">
<polygon fill="none" stroke="red" points="0,-134.5 0,-153.5 53,-153.5 53,-134.5 0,-134.5"/>
<text text-anchor="middle" x="26.5" y="-141.5" font-family="Helvetica,sans-Serif" font-size="10.00">logconf</text>
</a>
</g>
</g>
<!-- Node2&#45;&gt;Node1 -->
<g id="edge1" class="edge">
<title>Node2&#45;&gt;Node1</title>
<path fill="none" stroke="#9a32cd" stroke-dasharray="5,2" d="M49.05,-128.77C69.44,-115.9 98.79,-97.38 115.83,-86.63"/>
<polygon fill="#9a32cd" stroke="#9a32cd" points="46.98,-125.94 40.39,-134.23 50.72,-131.86 46.98,-125.94"/>
<text text-anchor="middle" x="97" y="-108" font-family="Helvetica,sans-Serif" font-size="10.00"> conf</text>
</g>
<!-- Node2&#45;&gt;Node8 -->
<g id="edge4" class="edge">
<title>Node2&#45;&gt;Node8</title>
<path fill="none" stroke="#9a32cd" stroke-dasharray="5,2" d="M18.53,-124.7C12.86,-108.97 7.4,-85.9 14.5,-67 21.95,-47.17 39.97,-29.76 51.95,-19.81"/>
<polygon fill="#9a32cd" stroke="#9a32cd" points="15.39,-126.28 22.34,-134.28 21.9,-123.69 15.39,-126.28"/>
<text text-anchor="middle" x="27" y="-74.5" font-family="Helvetica,sans-Serif" font-size="10.00"> conf</text>
</g>
<!-- Node7 -->
<g id="node3" class="node">
<title>Node7</title>
<g id="a_node3"><a xlink:href="structccord__szbuf.html" target="_top" xlink:title="Generic sized buffer.">
<polygon fill="none" stroke="black" points="92.5,-134.5 92.5,-153.5 166.5,-153.5 166.5,-134.5 92.5,-134.5"/>
<text text-anchor="middle" x="129.5" y="-141.5" font-family="Helvetica,sans-Serif" font-size="10.00">ccord_szbuf</text>
</a>
</g>
</g>
<!-- Node7&#45;&gt;Node1 -->
<g id="edge2" class="edge">
<title>Node7&#45;&gt;Node1</title>
<path fill="none" stroke="#9a32cd" stroke-dasharray="5,2" d="M129.5,-124.04C129.5,-111.67 129.5,-96.12 129.5,-86.63"/>
<polygon fill="#9a32cd" stroke="#9a32cd" points="126,-124.23 129.5,-134.23 133,-124.23 126,-124.23"/>
<text text-anchor="middle" x="145" y="-108" font-family="Helvetica,sans-Serif" font-size="10.00"> prefix</text>
</g>
<!-- Node8&#45;&gt;Node1 -->
<g id="edge3" class="edge">
<title>Node8&#45;&gt;Node1</title>
<path fill="none" stroke="#9a32cd" stroke-dasharray="5,2" d="M60.01,-29.84C59.77,-36.4 60.72,-43.49 64.5,-49 70.38,-57.56 79.52,-63.42 89.11,-67.41"/>
<polygon fill="#9a32cd" stroke="#9a32cd" points="63.51,-30.01 61.23,-19.66 56.56,-29.17 63.51,-30.01"/>
<text text-anchor="middle" x="86" y="-41" font-family="Helvetica,sans-Serif" font-size="10.00"> fallback</text>
</g>
</g>
</svg>
