<?xml version="1.0" encoding="UTF-8" standalone="no"?>
<!DOCTYPE svg PUBLIC "-//W3C//DTD SVG 1.1//EN"
 "http://www.w3.org/Graphics/SVG/1.1/DTD/svg11.dtd">
<!-- Generated by graphviz version 2.43.0 (0)
 -->
<!-- Title: discord_guild_members_chunk Pages: 1 -->
<svg width="395pt" height="106pt"
 viewBox="0.00 0.00 394.50 106.00" xmlns="http://www.w3.org/2000/svg" xmlns:xlink="http://www.w3.org/1999/xlink">
<g id="graph0" class="graph" transform="scale(1 1) rotate(0) translate(4 102)">
<title>discord_guild_members_chunk</title>
<!-- Node1 -->
<g id="node1" class="node">
<title>Node1</title>
<g id="a_node1"><a xlink:title=" ">
<polygon fill="#bfbfbf" stroke="black" points="120,-0.5 120,-30.5 253,-30.5 253,-0.5 120,-0.5"/>
<text text-anchor="start" x="128" y="-18.5" font-family="Helvetica,sans-Serif" font-size="10.00">discord_guild_members</text>
<text text-anchor="middle" x="186.5" y="-7.5" font-family="Helvetica,sans-Serif" font-size="10.00">_chunk</text>
</a>
</g>
</g>
<!-- Node2 -->
<g id="node2" class="node">
<title>Node2</title>
<g id="a_node2"><a xlink:href="structdiscord__guild__members.html" target="_top" xlink:title=" ">
<polygon fill="none" stroke="red" points="0,-78.5 0,-97.5 133,-97.5 133,-78.5 0,-78.5"/>
<text text-anchor="middle" x="66.5" y="-85.5" font-family="Helvetica,sans-Serif" font-size="10.00">discord_guild_members</text>
</a>
</g>
</g>
<!-- Node2&#45;&gt;Node1 -->
<g id="edge1" class="edge">
<title>Node2&#45;&gt;Node1</title>
<path fill="none" stroke="#9a32cd" stroke-dasharray="5,2" d="M90.1,-73.14C111.04,-60.83 141.49,-42.94 162.54,-30.58"/>
<polygon fill="#9a32cd" stroke="#9a32cd" points="88.06,-70.27 81.21,-78.36 91.61,-76.31 88.06,-70.27"/>
<text text-anchor="middle" x="155.5" y="-52" font-family="Helvetica,sans-Serif" font-size="10.00"> members</text>
</g>
<!-- Node5 -->
<g id="node3" class="node">
<title>Node5</title>
<g id="a_node3"><a xlink:href="structsnowflakes.html" target="_top" xlink:title=" ">
<polygon fill="none" stroke="black" points="151,-78.5 151,-97.5 222,-97.5 222,-78.5 151,-78.5"/>
<text text-anchor="middle" x="186.5" y="-85.5" font-family="Helvetica,sans-Serif" font-size="10.00">snowflakes</text>
</a>
</g>
</g>
<!-- Node5&#45;&gt;Node1 -->
<g id="edge2" class="edge">
<title>Node5&#45;&gt;Node1</title>
<path fill="none" stroke="#9a32cd" stroke-dasharray="5,2" d="M186.5,-68.24C186.5,-56.41 186.5,-41.38 186.5,-30.58"/>
<polygon fill="#9a32cd" stroke="#9a32cd" points="183,-68.36 186.5,-78.36 190,-68.36 183,-68.36"/>
<text text-anchor="middle" x="212.5" y="-52" font-family="Helvetica,sans-Serif" font-size="10.00"> not_found</text>
</g>
<!-- Node6 -->
<g id="node4" class="node">
<title>Node6</title>
<g id="a_node4"><a xlink:href="structdiscord__presence__updates.html" target="_top" xlink:title=" ">
<polygon fill="none" stroke="red" points="240.5,-78.5 240.5,-97.5 386.5,-97.5 386.5,-78.5 240.5,-78.5"/>
<text text-anchor="middle" x="313.5" y="-85.5" font-family="Helvetica,sans-Serif" font-size="10.00">discord_presence_updates</text>
</a>
</g>
</g>
<!-- Node6&#45;&gt;Node1 -->
<g id="edge3" class="edge">
<title>Node6&#45;&gt;Node1</title>
<path fill="none" stroke="#9a32cd" stroke-dasharray="5,2" d="M289.12,-73.47C266.94,-61.16 234.33,-43.05 211.86,-30.58"/>
<polygon fill="#9a32cd" stroke="#9a32cd" points="287.49,-76.56 297.93,-78.36 290.88,-70.44 287.49,-76.56"/>
<text text-anchor="middle" x="287" y="-52" font-family="Helvetica,sans-Serif" font-size="10.00"> presences</text>
</g>
</g>
</svg>
