<?xml version="1.0" encoding="UTF-8" standalone="no"?>
<!DOCTYPE svg PUBLIC "-//W3C//DTD SVG 1.1//EN"
 "http://www.w3.org/Graphics/SVG/1.1/DTD/svg11.dtd">
<!-- Generated by graphviz version 2.43.0 (0)
 -->
<!-- Title: discord_interaction_callback_data Pages: 1 -->
<svg width="368pt" height="154pt"
 viewBox="0.00 0.00 368.00 153.50" xmlns="http://www.w3.org/2000/svg" xmlns:xlink="http://www.w3.org/1999/xlink">
<g id="graph0" class="graph" transform="scale(1 1) rotate(0) translate(4 149.5)">
<title>discord_interaction_callback_data</title>
<!-- Node1 -->
<g id="node1" class="node">
<title>Node1</title>
<g id="a_node1"><a xlink:title=" ">
<polygon fill="#bfbfbf" stroke="black" points="250,-63.5 250,-93.5 360,-93.5 360,-63.5 250,-63.5"/>
<text text-anchor="start" x="258" y="-81.5" font-family="Helvetica,sans-Serif" font-size="10.00">discord_interaction</text>
<text text-anchor="middle" x="305" y="-70.5" font-family="Helvetica,sans-Serif" font-size="10.00">_callback_data</text>
</a>
</g>
</g>
<!-- Node2 -->
<g id="node2" class="node">
<title>Node2</title>
<g id="a_node2"><a xlink:href="structdiscord__components.html" target="_top" xlink:title=" ">
<polygon fill="none" stroke="red" points="16,-126 16,-145 133,-145 133,-126 16,-126"/>
<text text-anchor="middle" x="74.5" y="-133" font-family="Helvetica,sans-Serif" font-size="10.00">discord_components</text>
</a>
</g>
</g>
<!-- Node2&#45;&gt;Node1 -->
<g id="edge1" class="edge">
<title>Node2&#45;&gt;Node1</title>
<path fill="none" stroke="#9a32cd" stroke-dasharray="5,2" d="M143.22,-124.39C170.96,-119.25 203.24,-112.49 232,-104.5 243.01,-101.44 254.75,-97.5 265.49,-93.62"/>
<polygon fill="#9a32cd" stroke="#9a32cd" points="142.43,-120.98 133.22,-126.22 143.69,-127.87 142.43,-120.98"/>
<text text-anchor="middle" x="199.5" y="-122.5" font-family="Helvetica,sans-Serif" font-size="10.00"> components</text>
</g>
<!-- Node9 -->
<g id="node3" class="node">
<title>Node9</title>
<g id="a_node3"><a xlink:href="structdiscord__embeds.html" target="_top" xlink:title=" ">
<polygon fill="none" stroke="red" points="26.5,-88 26.5,-107 122.5,-107 122.5,-88 26.5,-88"/>
<text text-anchor="middle" x="74.5" y="-95" font-family="Helvetica,sans-Serif" font-size="10.00">discord_embeds</text>
</a>
</g>
</g>
<!-- Node9&#45;&gt;Node1 -->
<g id="edge2" class="edge">
<title>Node9&#45;&gt;Node1</title>
<path fill="none" stroke="#9a32cd" stroke-dasharray="5,2" d="M132.87,-92.73C168.7,-89.75 214.55,-85.94 249.77,-83.01"/>
<polygon fill="#9a32cd" stroke="#9a32cd" points="132.24,-89.27 122.57,-93.59 132.82,-96.25 132.24,-89.27"/>
<text text-anchor="middle" x="199.5" y="-92.5" font-family="Helvetica,sans-Serif" font-size="10.00"> embeds</text>
</g>
<!-- Node19 -->
<g id="node4" class="node">
<title>Node19</title>
<g id="a_node4"><a xlink:href="structdiscord__attachments.html" target="_top" xlink:title=" ">
<polygon fill="none" stroke="red" points="15,-50 15,-69 134,-69 134,-50 15,-50"/>
<text text-anchor="middle" x="74.5" y="-57" font-family="Helvetica,sans-Serif" font-size="10.00">discord_attachments</text>
</a>
</g>
</g>
<!-- Node19&#45;&gt;Node1 -->
<g id="edge3" class="edge">
<title>Node19&#45;&gt;Node1</title>
<path fill="none" stroke="#9a32cd" stroke-dasharray="5,2" d="M144.51,-63.01C171.79,-64.63 203.4,-66.8 232,-69.5 237.77,-70.04 243.79,-70.68 249.79,-71.37"/>
<polygon fill="#9a32cd" stroke="#9a32cd" points="144.46,-59.5 134.28,-62.41 144.06,-66.49 144.46,-59.5"/>
<text text-anchor="middle" x="199.5" y="-72.5" font-family="Helvetica,sans-Serif" font-size="10.00"> attachments</text>
</g>
<!-- Node21 -->
<g id="node5" class="node">
<title>Node21</title>
<g id="a_node5"><a xlink:href="structdiscord__application__command__option__choices.html" target="_top" xlink:title=" ">
<polygon fill="none" stroke="red" points="0,-0.5 0,-30.5 149,-30.5 149,-0.5 0,-0.5"/>
<text text-anchor="start" x="8" y="-18.5" font-family="Helvetica,sans-Serif" font-size="10.00">discord_application</text>
<text text-anchor="middle" x="74.5" y="-7.5" font-family="Helvetica,sans-Serif" font-size="10.00">_command_option_choices</text>
</a>
</g>
</g>
<!-- Node21&#45;&gt;Node1 -->
<g id="edge4" class="edge">
<title>Node21&#45;&gt;Node1</title>
<path fill="none" stroke="#9a32cd" stroke-dasharray="5,2" d="M159.14,-30.12C182.92,-35.09 208.68,-41.25 232,-48.5 245.19,-52.6 259.3,-58.19 271.5,-63.44"/>
<polygon fill="#9a32cd" stroke="#9a32cd" points="159.58,-26.64 149.08,-28.07 158.18,-33.5 159.58,-26.64"/>
<text text-anchor="middle" x="199.5" y="-51.5" font-family="Helvetica,sans-Serif" font-size="10.00"> choices</text>
</g>
</g>
</svg>
