<?xml version="1.0" encoding="UTF-8" standalone="no"?>
<!DOCTYPE svg PUBLIC "-//W3C//DTD SVG 1.1//EN"
 "http://www.w3.org/Graphics/SVG/1.1/DTD/svg11.dtd">
<!-- Generated by graphviz version 2.43.0 (0)
 -->
<!-- Title: discord_auth_response Pages: 1 -->
<svg width="213pt" height="162pt"
 viewBox="0.00 0.00 213.12 162.00" xmlns="http://www.w3.org/2000/svg" xmlns:xlink="http://www.w3.org/1999/xlink">
<g id="graph0" class="graph" transform="scale(1 1) rotate(0) translate(4 158)">
<title>discord_auth_response</title>
<!-- Node1 -->
<g id="node1" class="node">
<title>Node1</title>
<g id="a_node1"><a xlink:title=" ">
<polygon fill="#bfbfbf" stroke="black" points="42.12,-0.5 42.12,-19.5 170.12,-19.5 170.12,-0.5 42.12,-0.5"/>
<text text-anchor="middle" x="106.12" y="-7.5" font-family="Helvetica,sans-Serif" font-size="10.00">discord_auth_response</text>
</a>
</g>
</g>
<!-- Node2 -->
<g id="node2" class="node">
<title>Node2</title>
<g id="a_node2"><a xlink:href="structdiscord__application.html" target="_top" xlink:title=" ">
<polygon fill="none" stroke="red" points="50.62,-67.5 50.62,-86.5 161.62,-86.5 161.62,-67.5 50.62,-67.5"/>
<text text-anchor="middle" x="106.12" y="-74.5" font-family="Helvetica,sans-Serif" font-size="10.00">discord_application</text>
</a>
</g>
</g>
<!-- Node2&#45;&gt;Node1 -->
<g id="edge1" class="edge">
<title>Node2&#45;&gt;Node1</title>
<path fill="none" stroke="#9a32cd" stroke-dasharray="5,2" d="M106.12,-57.04C106.12,-44.67 106.12,-29.12 106.12,-19.63"/>
<polygon fill="#9a32cd" stroke="#9a32cd" points="102.62,-57.23 106.12,-67.23 109.62,-57.23 102.62,-57.23"/>
<text text-anchor="middle" x="135.12" y="-41" font-family="Helvetica,sans-Serif" font-size="10.00"> application</text>
</g>
<!-- Node3 -->
<g id="node3" class="node">
<title>Node3</title>
<g id="a_node3"><a xlink:href="structstrings.html" target="_top" xlink:title=" ">
<polygon fill="none" stroke="black" points="18.12,-134.5 18.12,-153.5 68.12,-153.5 68.12,-134.5 18.12,-134.5"/>
<text text-anchor="middle" x="43.12" y="-141.5" font-family="Helvetica,sans-Serif" font-size="10.00">strings</text>
</a>
</g>
</g>
<!-- Node3&#45;&gt;Node1 -->
<g id="edge4" class="edge">
<title>Node3&#45;&gt;Node1</title>
<path fill="none" stroke="#9a32cd" stroke-dasharray="5,2" d="M25.22,-127.1C9.93,-111.51 -7.84,-87.22 4.12,-67 18.84,-42.14 48.94,-27.58 72.65,-19.57"/>
<polygon fill="#9a32cd" stroke="#9a32cd" points="23.18,-129.99 32.82,-134.39 28.03,-124.94 23.18,-129.99"/>
<text text-anchor="middle" x="22.62" y="-74.5" font-family="Helvetica,sans-Serif" font-size="10.00"> scopes</text>
</g>
<!-- Node3&#45;&gt;Node2 -->
<g id="edge2" class="edge">
<title>Node3&#45;&gt;Node2</title>
<path fill="none" stroke="#9a32cd" stroke-dasharray="5,2" d="M48.71,-124.58C51.39,-117.88 55.12,-110.58 60.12,-105 67.04,-97.27 76.71,-91.14 85.4,-86.68"/>
<polygon fill="#9a32cd" stroke="#9a32cd" points="45.31,-123.7 45.34,-134.3 51.92,-125.99 45.31,-123.7"/>
<text text-anchor="middle" x="88.62" y="-108" font-family="Helvetica,sans-Serif" font-size="10.00"> rpc_origins</text>
</g>
<!-- Node4 -->
<g id="node4" class="node">
<title>Node4</title>
<g id="a_node4"><a xlink:href="structdiscord__user.html" target="_top" xlink:title=" ">
<polygon fill="none" stroke="black" points="101.12,-134.5 101.12,-153.5 179.12,-153.5 179.12,-134.5 101.12,-134.5"/>
<text text-anchor="middle" x="140.12" y="-141.5" font-family="Helvetica,sans-Serif" font-size="10.00">discord_user</text>
</a>
</g>
</g>
<!-- Node4&#45;&gt;Node1 -->
<g id="edge5" class="edge">
<title>Node4&#45;&gt;Node1</title>
<path fill="none" stroke="#9a32cd" stroke-dasharray="5,2" d="M156.87,-126.84C159.63,-123.48 162.21,-119.8 164.12,-116 179.7,-84.98 188.14,-66.36 168.12,-38 162.1,-29.46 152.77,-23.6 143.16,-19.58"/>
<polygon fill="#9a32cd" stroke="#9a32cd" points="154.1,-124.68 149.9,-134.41 159.25,-129.42 154.1,-124.68"/>
<text text-anchor="middle" x="192.62" y="-74.5" font-family="Helvetica,sans-Serif" font-size="10.00"> user</text>
</g>
<!-- Node4&#45;&gt;Node2 -->
<g id="edge3" class="edge">
<title>Node4&#45;&gt;Node2</title>
<path fill="none" stroke="#9a32cd" stroke-dasharray="5,2" d="M130.79,-125.16C124.24,-112.63 115.75,-96.41 110.64,-86.63"/>
<polygon fill="#9a32cd" stroke="#9a32cd" points="127.8,-127 135.54,-134.23 134,-123.75 127.8,-127"/>
<text text-anchor="middle" x="143.12" y="-108" font-family="Helvetica,sans-Serif" font-size="10.00"> owner</text>
</g>
</g>
</svg>
