<?xml version="1.0" encoding="UTF-8" standalone="no"?>
<!DOCTYPE svg PUBLIC "-//W3C//DTD SVG 1.1//EN"
 "http://www.w3.org/Graphics/SVG/1.1/DTD/svg11.dtd">
<!-- Generated by graphviz version 2.43.0 (0)
 -->
<!-- Title: discord_thread_members_update Pages: 1 -->
<svg width="300pt" height="106pt"
 viewBox="0.00 0.00 300.00 106.00" xmlns="http://www.w3.org/2000/svg" xmlns:xlink="http://www.w3.org/1999/xlink">
<g id="graph0" class="graph" transform="scale(1 1) rotate(0) translate(4 102)">
<title>discord_thread_members_update</title>
<!-- Node1 -->
<g id="node1" class="node">
<title>Node1</title>
<g id="a_node1"><a xlink:title=" ">
<polygon fill="#bfbfbf" stroke="black" points="62,-0.5 62,-30.5 202,-30.5 202,-0.5 62,-0.5"/>
<text text-anchor="start" x="70" y="-18.5" font-family="Helvetica,sans-Serif" font-size="10.00">discord_thread_members</text>
<text text-anchor="middle" x="132" y="-7.5" font-family="Helvetica,sans-Serif" font-size="10.00">_update</text>
</a>
</g>
</g>
<!-- Node2 -->
<g id="node2" class="node">
<title>Node2</title>
<g id="a_node2"><a xlink:href="structdiscord__thread__members.html" target="_top" xlink:title=" ">
<polygon fill="none" stroke="red" points="0,-78.5 0,-97.5 140,-97.5 140,-78.5 0,-78.5"/>
<text text-anchor="middle" x="70" y="-85.5" font-family="Helvetica,sans-Serif" font-size="10.00">discord_thread_members</text>
</a>
</g>
</g>
<!-- Node2&#45;&gt;Node1 -->
<g id="edge1" class="edge">
<title>Node2&#45;&gt;Node1</title>
<path fill="none" stroke="#9a32cd" stroke-dasharray="5,2" d="M75.87,-68.82C78.58,-62.15 82.27,-54.81 87,-49 92.72,-41.97 100.3,-35.72 107.61,-30.63"/>
<polygon fill="#9a32cd" stroke="#9a32cd" points="72.5,-67.86 72.4,-78.45 79.08,-70.23 72.5,-67.86"/>
<text text-anchor="middle" x="129.5" y="-52" font-family="Helvetica,sans-Serif" font-size="10.00"> added_members</text>
</g>
<!-- Node4 -->
<g id="node3" class="node">
<title>Node4</title>
<g id="a_node3"><a xlink:href="structsnowflakes.html" target="_top" xlink:title=" ">
<polygon fill="none" stroke="black" points="158.5,-78.5 158.5,-97.5 229.5,-97.5 229.5,-78.5 158.5,-78.5"/>
<text text-anchor="middle" x="194" y="-85.5" font-family="Helvetica,sans-Serif" font-size="10.00">snowflakes</text>
</a>
</g>
</g>
<!-- Node4&#45;&gt;Node1 -->
<g id="edge2" class="edge">
<title>Node4&#45;&gt;Node1</title>
<path fill="none" stroke="#9a32cd" stroke-dasharray="5,2" d="M185.47,-69.25C181.82,-62.55 177.19,-55.08 172,-49 166.31,-42.33 159.11,-36.01 152.4,-30.74"/>
<polygon fill="#9a32cd" stroke="#9a32cd" points="182.42,-70.97 190.09,-78.28 188.65,-67.78 182.42,-70.97"/>
<text text-anchor="middle" x="235.5" y="-52" font-family="Helvetica,sans-Serif" font-size="10.00"> removed_member_ids</text>
</g>
</g>
</svg>
