<?xml version="1.0" encoding="UTF-8" standalone="no"?>
<!DOCTYPE svg PUBLIC "-//W3C//DTD SVG 1.1//EN"
 "http://www.w3.org/Graphics/SVG/1.1/DTD/svg11.dtd">
<!-- Generated by graphviz version 2.43.0 (0)
 -->
<!-- Title: discord_list_active_guild_threads Pages: 1 -->
<svg width="268pt" height="106pt"
 viewBox="0.00 0.00 267.50 106.00" xmlns="http://www.w3.org/2000/svg" xmlns:xlink="http://www.w3.org/1999/xlink">
<g id="graph0" class="graph" transform="scale(1 1) rotate(0) translate(4 102)">
<title>discord_list_active_guild_threads</title>
<!-- Node1 -->
<g id="node1" class="node">
<title>Node1</title>
<g id="a_node1"><a xlink:title=" ">
<polygon fill="#bfbfbf" stroke="black" points="66,-0.5 66,-30.5 173,-30.5 173,-0.5 66,-0.5"/>
<text text-anchor="start" x="74" y="-18.5" font-family="Helvetica,sans-Serif" font-size="10.00">discord_list_active</text>
<text text-anchor="middle" x="119.5" y="-7.5" font-family="Helvetica,sans-Serif" font-size="10.00">_guild_threads</text>
</a>
</g>
</g>
<!-- Node2 -->
<g id="node2" class="node">
<title>Node2</title>
<g id="a_node2"><a xlink:href="structdiscord__channels.html" target="_top" xlink:title=" ">
<polygon fill="none" stroke="red" points="0,-78.5 0,-97.5 101,-97.5 101,-78.5 0,-78.5"/>
<text text-anchor="middle" x="50.5" y="-85.5" font-family="Helvetica,sans-Serif" font-size="10.00">discord_channels</text>
</a>
</g>
</g>
<!-- Node2&#45;&gt;Node1 -->
<g id="edge1" class="edge">
<title>Node2&#45;&gt;Node1</title>
<path fill="none" stroke="#9a32cd" stroke-dasharray="5,2" d="M66.07,-71.09C77.99,-58.91 94.27,-42.27 105.72,-30.58"/>
<polygon fill="#9a32cd" stroke="#9a32cd" points="63.45,-68.76 58.96,-78.36 68.46,-73.66 63.45,-68.76"/>
<text text-anchor="middle" x="107.5" y="-52" font-family="Helvetica,sans-Serif" font-size="10.00"> threads</text>
</g>
<!-- Node15 -->
<g id="node3" class="node">
<title>Node15</title>
<g id="a_node3"><a xlink:href="structdiscord__thread__members.html" target="_top" xlink:title=" ">
<polygon fill="none" stroke="red" points="119.5,-78.5 119.5,-97.5 259.5,-97.5 259.5,-78.5 119.5,-78.5"/>
<text text-anchor="middle" x="189.5" y="-85.5" font-family="Helvetica,sans-Serif" font-size="10.00">discord_thread_members</text>
</a>
</g>
</g>
<!-- Node15&#45;&gt;Node1 -->
<g id="edge2" class="edge">
<title>Node15&#45;&gt;Node1</title>
<path fill="none" stroke="#9a32cd" stroke-dasharray="5,2" d="M173.71,-71.09C161.61,-58.91 145.09,-42.27 133.48,-30.58"/>
<polygon fill="#9a32cd" stroke="#9a32cd" points="171.39,-73.73 180.92,-78.36 176.35,-68.79 171.39,-73.73"/>
<text text-anchor="middle" x="185.5" y="-52" font-family="Helvetica,sans-Serif" font-size="10.00"> members</text>
</g>
</g>
</svg>
