<?xml version="1.0" encoding="UTF-8" standalone="no"?>
<!DOCTYPE svg PUBLIC "-//W3C//DTD SVG 1.1//EN"
 "http://www.w3.org/Graphics/SVG/1.1/DTD/svg11.dtd">
<!-- Generated by graphviz version 2.43.0 (0)
 -->
<!-- Title: discord_attributes Pages: 1 -->
<svg width="401pt" height="95pt"
 viewBox="0.00 0.00 401.00 95.00" xmlns="http://www.w3.org/2000/svg" xmlns:xlink="http://www.w3.org/1999/xlink">
<g id="graph0" class="graph" transform="scale(1 1) rotate(0) translate(4 91)">
<title>discord_attributes</title>
<!-- Node1 -->
<g id="node1" class="node">
<title>Node1</title>
<g id="a_node1"><a xlink:title="Request to be performed.">
<polygon fill="#bfbfbf" stroke="black" points="143.5,-0.5 143.5,-19.5 247.5,-19.5 247.5,-0.5 143.5,-0.5"/>
<text text-anchor="middle" x="195.5" y="-7.5" font-family="Helvetica,sans-Serif" font-size="10.00">discord_attributes</text>
</a>
</g>
</g>
<!-- Node2 -->
<g id="node2" class="node">
<title>Node2</title>
<g id="a_node2"><a xlink:href="structdiscord__ret__dispatch.html" target="_top" xlink:title="Generic request dispatcher.">
<polygon fill="none" stroke="black" points="0,-67.5 0,-86.5 117,-86.5 117,-67.5 0,-67.5"/>
<text text-anchor="middle" x="58.5" y="-74.5" font-family="Helvetica,sans-Serif" font-size="10.00">discord_ret_dispatch</text>
</a>
</g>
</g>
<!-- Node2&#45;&gt;Node1 -->
<g id="edge1" class="edge">
<title>Node2&#45;&gt;Node1</title>
<path fill="none" stroke="#9a32cd" stroke-dasharray="5,2" d="M86.02,-62.94C113.15,-50.07 153.86,-30.76 177.23,-19.67"/>
<polygon fill="#9a32cd" stroke="#9a32cd" points="84.23,-59.92 76.69,-67.37 87.23,-66.24 84.23,-59.92"/>
<text text-anchor="middle" x="158" y="-41" font-family="Helvetica,sans-Serif" font-size="10.00"> dispatch</text>
</g>
<!-- Node3 -->
<g id="node3" class="node">
<title>Node3</title>
<g id="a_node3"><a xlink:href="structdiscord__ret__response.html" target="_top" xlink:title="Attributes of response datatype.">
<polygon fill="none" stroke="black" points="135.5,-67.5 135.5,-86.5 255.5,-86.5 255.5,-67.5 135.5,-67.5"/>
<text text-anchor="middle" x="195.5" y="-74.5" font-family="Helvetica,sans-Serif" font-size="10.00">discord_ret_response</text>
</a>
</g>
</g>
<!-- Node3&#45;&gt;Node1 -->
<g id="edge2" class="edge">
<title>Node3&#45;&gt;Node1</title>
<path fill="none" stroke="#9a32cd" stroke-dasharray="5,2" d="M195.5,-57.04C195.5,-44.67 195.5,-29.12 195.5,-19.63"/>
<polygon fill="#9a32cd" stroke="#9a32cd" points="192,-57.23 195.5,-67.23 199,-57.23 192,-57.23"/>
<text text-anchor="middle" x="219.5" y="-41" font-family="Helvetica,sans-Serif" font-size="10.00"> response</text>
</g>
<!-- Node4 -->
<g id="node4" class="node">
<title>Node4</title>
<g id="a_node4"><a xlink:href="structdiscord__attachments.html" target="_top" xlink:title=" ">
<polygon fill="none" stroke="red" points="274,-67.5 274,-86.5 393,-86.5 393,-67.5 274,-67.5"/>
<text text-anchor="middle" x="333.5" y="-74.5" font-family="Helvetica,sans-Serif" font-size="10.00">discord_attachments</text>
</a>
</g>
</g>
<!-- Node4&#45;&gt;Node1 -->
<g id="edge3" class="edge">
<title>Node4&#45;&gt;Node1</title>
<path fill="none" stroke="#9a32cd" stroke-dasharray="5,2" d="M305.78,-62.94C278.45,-50.07 237.45,-30.76 213.9,-19.67"/>
<polygon fill="#9a32cd" stroke="#9a32cd" points="304.64,-66.27 315.17,-67.37 307.62,-59.94 304.64,-66.27"/>
<text text-anchor="middle" x="305" y="-41" font-family="Helvetica,sans-Serif" font-size="10.00"> attachments</text>
</g>
</g>
</svg>
