<?xml version="1.0" encoding="UTF-8" standalone="no"?>
<!DOCTYPE svg PUBLIC "-//W3C//DTD SVG 1.1//EN"
 "http://www.w3.org/Graphics/SVG/1.1/DTD/svg11.dtd">
<!-- Generated by graphviz version 2.43.0 (0)
 -->
<!-- Title: discord_gateway Pages: 1 -->
<svg width="334pt" height="407pt"
 viewBox="0.00 0.00 334.00 407.00" xmlns="http://www.w3.org/2000/svg" xmlns:xlink="http://www.w3.org/1999/xlink">
<g id="graph0" class="graph" transform="scale(1 1) rotate(0) translate(4 403)">
<title>discord_gateway</title>
<!-- Node1 -->
<g id="node1" class="node">
<title>Node1</title>
<g id="a_node1"><a xlink:title="The handle used for establishing a WebSockets connection.">
<polygon fill="#bfbfbf" stroke="black" points="89.5,-301.5 89.5,-320.5 188.5,-320.5 188.5,-301.5 89.5,-301.5"/>
<text text-anchor="middle" x="139" y="-308.5" font-family="Helvetica,sans-Serif" font-size="10.00">discord_gateway</text>
</a>
</g>
</g>
<!-- Node17 -->
<g id="node5" class="node">
<title>Node17</title>
<g id="a_node5"><a xlink:href="structdiscord.html" target="_top" xlink:title="The Discord client handler.">
<polygon fill="none" stroke="red" points="72,-217 72,-236 124,-236 124,-217 72,-217"/>
<text text-anchor="middle" x="98" y="-224" font-family="Helvetica,sans-Serif" font-size="10.00">discord</text>
</a>
</g>
</g>
<!-- Node1&#45;&gt;Node17 -->
<g id="edge5" class="edge">
<title>Node1&#45;&gt;Node17</title>
<path fill="none" stroke="#9a32cd" stroke-dasharray="5,2" d="M107.18,-296.09C102.29,-292.54 97.92,-288.21 95,-283 86.71,-268.18 91.23,-247.5 94.87,-236.03"/>
<polygon fill="#9a32cd" stroke="#9a32cd" points="105.35,-299.08 115.7,-301.35 109.03,-293.12 105.35,-299.08"/>
<text text-anchor="middle" x="104" y="-269.5" font-family="Helvetica,sans-Serif" font-size="10.00"> gw</text>
</g>
<!-- Node2 -->
<g id="node2" class="node">
<title>Node2</title>
<g id="a_node2"><a xlink:href="structwebsockets.html" target="_top" xlink:title="Opaque handler for WebSockets.">
<polygon fill="none" stroke="black" points="0,-374 0,-393 74,-393 74,-374 0,-374"/>
<text text-anchor="middle" x="37" y="-381" font-family="Helvetica,sans-Serif" font-size="10.00">websockets</text>
</a>
</g>
</g>
<!-- Node2&#45;&gt;Node1 -->
<g id="edge1" class="edge">
<title>Node2&#45;&gt;Node1</title>
<path fill="none" stroke="#9a32cd" stroke-dasharray="5,2" d="M57.9,-368.05C78.5,-353.82 109.28,-332.54 126.39,-320.72"/>
<polygon fill="#9a32cd" stroke="#9a32cd" points="55.74,-365.29 49.51,-373.86 59.72,-371.05 55.74,-365.29"/>
<text text-anchor="middle" x="106.5" y="-342" font-family="Helvetica,sans-Serif" font-size="10.00"> ws</text>
</g>
<!-- Node3 -->
<g id="node3" class="node">
<title>Node3</title>
<g id="a_node3"><a xlink:href="structdiscord__identify.html" target="_top" xlink:title=" ">
<polygon fill="none" stroke="red" points="92,-374 92,-393 186,-393 186,-374 92,-374"/>
<text text-anchor="middle" x="139" y="-381" font-family="Helvetica,sans-Serif" font-size="10.00">discord_identify</text>
</a>
</g>
</g>
<!-- Node3&#45;&gt;Node1 -->
<g id="edge2" class="edge">
<title>Node3&#45;&gt;Node1</title>
<path fill="none" stroke="#9a32cd" stroke-dasharray="5,2" d="M139,-363.44C139,-349.53 139,-331.32 139,-320.72"/>
<polygon fill="#9a32cd" stroke="#9a32cd" points="135.5,-363.86 139,-373.86 142.5,-363.86 135.5,-363.86"/>
<text text-anchor="middle" x="145.5" y="-342" font-family="Helvetica,sans-Serif" font-size="10.00"> id</text>
</g>
<!-- Node16 -->
<g id="node4" class="node">
<title>Node16</title>
<g id="a_node4"><a xlink:href="structdiscord__session__start__limit.html" target="_top" xlink:title=" ">
<polygon fill="none" stroke="black" points="204,-368.5 204,-398.5 326,-398.5 326,-368.5 204,-368.5"/>
<text text-anchor="start" x="212" y="-386.5" font-family="Helvetica,sans-Serif" font-size="10.00">discord_session_start</text>
<text text-anchor="middle" x="265" y="-375.5" font-family="Helvetica,sans-Serif" font-size="10.00">_limit</text>
</a>
</g>
</g>
<!-- Node16&#45;&gt;Node1 -->
<g id="edge3" class="edge">
<title>Node16&#45;&gt;Node1</title>
<path fill="none" stroke="#9a32cd" stroke-dasharray="5,2" d="M230.98,-363.47C205.97,-349.47 173.17,-331.12 154.25,-320.53"/>
<polygon fill="#9a32cd" stroke="#9a32cd" points="229.37,-366.57 239.8,-368.4 232.79,-360.47 229.37,-366.57"/>
<text text-anchor="middle" x="232" y="-342" font-family="Helvetica,sans-Serif" font-size="10.00"> start_limit</text>
</g>
<!-- Node17&#45;&gt;Node1 -->
<g id="edge4" class="edge">
<title>Node17&#45;&gt;Node1</title>
<path fill="none" stroke="#9a32cd" stroke-dasharray="5,2" d="M108.4,-245.11C111.28,-250.18 114.35,-255.77 117,-261 124,-274.81 131.17,-291.31 135.35,-301.21"/>
<polygon fill="#9a32cd" stroke="#9a32cd" points="111.27,-243.09 103.23,-236.19 105.22,-246.6 111.27,-243.09"/>
<text text-anchor="middle" x="152" y="-275" font-family="Helvetica,sans-Serif" font-size="10.00"> cb</text>
<text text-anchor="middle" x="152" y="-264" font-family="Helvetica,sans-Serif" font-size="10.00">scheduler</text>
</g>
<!-- Node17&#45;&gt;Node17 -->
<g id="edge6" class="edge">
<title>Node17&#45;&gt;Node17</title>
<path fill="none" stroke="#9a32cd" stroke-dasharray="5,2" d="M134.47,-233.67C139.02,-232.4 142,-230.01 142,-226.5 142,-220.74 133.96,-218 124.2,-218.27"/>
<polygon fill="#9a32cd" stroke="#9a32cd" points="133.79,-230.22 124.2,-234.73 134.51,-237.18 133.79,-230.22"/>
<text text-anchor="middle" x="163.5" y="-235" font-family="Helvetica,sans-Serif" font-size="10.00"> cb</text>
<text text-anchor="middle" x="163.5" y="-224" font-family="Helvetica,sans-Serif" font-size="10.00">on_cycle</text>
<text text-anchor="middle" x="163.5" y="-213" font-family="Helvetica,sans-Serif" font-size="10.00">on_idle</text>
</g>
<!-- Node25 -->
<g id="node6" class="node">
<title>Node25</title>
<g id="a_node6"><a xlink:href="structdiscord__gateway__cbs.html" target="_top" xlink:title=" ">
<polygon fill="none" stroke="#bfbfbf" points="98.5,-0.5 98.5,-19.5 219.5,-19.5 219.5,-0.5 98.5,-0.5"/>
<text text-anchor="middle" x="159" y="-7.5" font-family="Helvetica,sans-Serif" font-size="10.00">discord_gateway_cbs</text>
</a>
</g>
</g>
<!-- Node17&#45;&gt;Node25 -->
<g id="edge8" class="edge">
<title>Node17&#45;&gt;Node25</title>
<path fill="none" stroke="#9a32cd" stroke-dasharray="5,2" d="M90.19,-206.96C76.34,-170.84 52.11,-90.05 88,-38 93.91,-29.42 102.94,-23.57 112.59,-19.57"/>
<polygon fill="#9a32cd" stroke="#9a32cd" points="87.11,-208.68 94.08,-216.65 93.61,-206.07 87.11,-208.68"/>
<text text-anchor="start" x="88" y="-184" font-family="Helvetica,sans-Serif" font-size="10.00"> on_application_command</text>
<text text-anchor="middle" x="152.5" y="-173" font-family="Helvetica,sans-Serif" font-size="10.00">_create</text>
<text text-anchor="start" x="88" y="-162" font-family="Helvetica,sans-Serif" font-size="10.00">on_application_command</text>
<text text-anchor="middle" x="152.5" y="-151" font-family="Helvetica,sans-Serif" font-size="10.00">_delete</text>
<text text-anchor="start" x="88" y="-140" font-family="Helvetica,sans-Serif" font-size="10.00">on_application_command</text>
<text text-anchor="middle" x="152.5" y="-129" font-family="Helvetica,sans-Serif" font-size="10.00">_update</text>
<text text-anchor="middle" x="152.5" y="-118" font-family="Helvetica,sans-Serif" font-size="10.00">on_channel_create</text>
<text text-anchor="middle" x="152.5" y="-107" font-family="Helvetica,sans-Serif" font-size="10.00">on_channel_delete</text>
<text text-anchor="middle" x="152.5" y="-96" font-family="Helvetica,sans-Serif" font-size="10.00">on_channel_pins_update</text>
<text text-anchor="middle" x="152.5" y="-85" font-family="Helvetica,sans-Serif" font-size="10.00">on_channel_update</text>
<text text-anchor="middle" x="152.5" y="-74" font-family="Helvetica,sans-Serif" font-size="10.00">on_guild_ban_add</text>
<text text-anchor="middle" x="152.5" y="-63" font-family="Helvetica,sans-Serif" font-size="10.00">on_guild_ban_remove</text>
<text text-anchor="middle" x="152.5" y="-52" font-family="Helvetica,sans-Serif" font-size="10.00">on_guild_create</text>
<text text-anchor="middle" x="152.5" y="-41" font-family="Helvetica,sans-Serif" font-size="10.00">...</text>
</g>
<!-- Node25&#45;&gt;Node1 -->
<g id="edge7" class="edge">
<title>Node25&#45;&gt;Node1</title>
<path fill="none" stroke="#9a32cd" stroke-dasharray="5,2" d="M202.72,-24.41C208.38,-27.95 213.43,-32.41 217,-38 253.79,-95.71 230.13,-124.83 217,-192 208.62,-234.85 207.7,-249.25 180,-283 173.73,-290.64 164.72,-296.9 156.75,-301.46"/>
<polygon fill="#9a32cd" stroke="#9a32cd" points="203.94,-21.1 193.45,-19.57 200.69,-27.31 203.94,-21.1"/>
<text text-anchor="middle" x="223" y="-224" font-family="Helvetica,sans-Serif" font-size="10.00"> cbs</text>
</g>
</g>
</svg>
