<?xml version="1.0" encoding="UTF-8" standalone="no"?>
<!DOCTYPE svg PUBLIC "-//W3C//DTD SVG 1.1//EN"
 "http://www.w3.org/Graphics/SVG/1.1/DTD/svg11.dtd">
<!-- Generated by graphviz version 2.43.0 (0)
 -->
<!-- Title: discord_presence_update Pages: 1 -->
<svg width="344pt" height="95pt"
 viewBox="0.00 0.00 344.00 95.00" xmlns="http://www.w3.org/2000/svg" xmlns:xlink="http://www.w3.org/1999/xlink">
<g id="graph0" class="graph" transform="scale(1 1) rotate(0) translate(4 91)">
<title>discord_presence_update</title>
<!-- Node1 -->
<g id="node1" class="node">
<title>Node1</title>
<g id="a_node1"><a xlink:title=" ">
<polygon fill="#bfbfbf" stroke="black" points="86,-0.5 86,-19.5 226,-19.5 226,-0.5 86,-0.5"/>
<text text-anchor="middle" x="156" y="-7.5" font-family="Helvetica,sans-Serif" font-size="10.00">discord_presence_update</text>
</a>
</g>
</g>
<!-- Node2 -->
<g id="node2" class="node">
<title>Node2</title>
<g id="a_node2"><a xlink:href="structdiscord__user.html" target="_top" xlink:title=" ">
<polygon fill="none" stroke="black" points="0,-67.5 0,-86.5 78,-86.5 78,-67.5 0,-67.5"/>
<text text-anchor="middle" x="39" y="-74.5" font-family="Helvetica,sans-Serif" font-size="10.00">discord_user</text>
</a>
</g>
</g>
<!-- Node2&#45;&gt;Node1 -->
<g id="edge1" class="edge">
<title>Node2&#45;&gt;Node1</title>
<path fill="none" stroke="#9a32cd" stroke-dasharray="5,2" d="M63.68,-62.29C86.87,-49.4 120.86,-30.52 140.47,-19.63"/>
<polygon fill="#9a32cd" stroke="#9a32cd" points="61.82,-59.32 54.78,-67.23 65.22,-65.44 61.82,-59.32"/>
<text text-anchor="middle" x="117.5" y="-41" font-family="Helvetica,sans-Serif" font-size="10.00"> user</text>
</g>
<!-- Node3 -->
<g id="node3" class="node">
<title>Node3</title>
<g id="a_node3"><a xlink:href="structdiscord__client__status.html" target="_top" xlink:title=" ">
<polygon fill="none" stroke="#bfbfbf" points="96.5,-67.5 96.5,-86.5 215.5,-86.5 215.5,-67.5 96.5,-67.5"/>
<text text-anchor="middle" x="156" y="-74.5" font-family="Helvetica,sans-Serif" font-size="10.00">discord_client_status</text>
</a>
</g>
</g>
<!-- Node3&#45;&gt;Node1 -->
<g id="edge2" class="edge">
<title>Node3&#45;&gt;Node1</title>
<path fill="none" stroke="#9a32cd" stroke-dasharray="5,2" d="M156,-57.04C156,-44.67 156,-29.12 156,-19.63"/>
<polygon fill="#9a32cd" stroke="#9a32cd" points="152.5,-57.23 156,-67.23 159.5,-57.23 152.5,-57.23"/>
<text text-anchor="middle" x="189" y="-41" font-family="Helvetica,sans-Serif" font-size="10.00"> client_status</text>
</g>
<!-- Node4 -->
<g id="node4" class="node">
<title>Node4</title>
<g id="a_node4"><a xlink:href="structdiscord__activities.html" target="_top" xlink:title=" ">
<polygon fill="none" stroke="orangered" points="234,-67.5 234,-86.5 336,-86.5 336,-67.5 234,-67.5"/>
<text text-anchor="middle" x="285" y="-74.5" font-family="Helvetica,sans-Serif" font-size="10.00">discord_activities</text>
</a>
</g>
</g>
<!-- Node4&#45;&gt;Node1 -->
<g id="edge3" class="edge">
<title>Node4&#45;&gt;Node1</title>
<path fill="none" stroke="#9a32cd" stroke-dasharray="5,2" d="M264.71,-61.47C253.6,-53.89 239.41,-44.81 226,-38 211.83,-30.8 195.27,-24.33 181.81,-19.53"/>
<polygon fill="#9a32cd" stroke="#9a32cd" points="263.02,-64.55 273.23,-67.39 267.02,-58.81 263.02,-64.55"/>
<text text-anchor="middle" x="268.5" y="-41" font-family="Helvetica,sans-Serif" font-size="10.00"> activities</text>
</g>
</g>
</svg>
