<?xml version="1.0" encoding="UTF-8" standalone="no"?>
<!DOCTYPE svg PUBLIC "-//W3C//DTD SVG 1.1//EN"
 "http://www.w3.org/Graphics/SVG/1.1/DTD/svg11.dtd">
<!-- Generated by graphviz version 2.43.0 (0)
 -->
<!-- Title: discord_rest Pages: 1 -->
<svg width="220pt" height="95pt"
 viewBox="0.00 0.00 219.50 95.00" xmlns="http://www.w3.org/2000/svg" xmlns:xlink="http://www.w3.org/1999/xlink">
<g id="graph0" class="graph" transform="scale(1 1) rotate(0) translate(4 91)">
<title>discord_rest</title>
<!-- Node1 -->
<g id="node1" class="node">
<title>Node1</title>
<g id="a_node1"><a xlink:title="The handle used for interfacing with Discord&#39;s REST API.">
<polygon fill="#bfbfbf" stroke="black" points="71,-0.5 71,-19.5 147,-19.5 147,-0.5 71,-0.5"/>
<text text-anchor="middle" x="109" y="-7.5" font-family="Helvetica,sans-Serif" font-size="10.00">discord_rest</text>
</a>
</g>
</g>
<!-- Node2 -->
<g id="node2" class="node">
<title>Node2</title>
<g id="a_node2"><a xlink:href="structdiscord__requestor.html" target="_top" xlink:title="The handle used for handling asynchronous requests.">
<polygon fill="none" stroke="red" points="0,-67.5 0,-86.5 104,-86.5 104,-67.5 0,-67.5"/>
<text text-anchor="middle" x="52" y="-74.5" font-family="Helvetica,sans-Serif" font-size="10.00">discord_requestor</text>
</a>
</g>
</g>
<!-- Node2&#45;&gt;Node1 -->
<g id="edge1" class="edge">
<title>Node2&#45;&gt;Node1</title>
<path fill="none" stroke="#9a32cd" stroke-dasharray="5,2" d="M66.35,-59.63C77.5,-46.92 92.52,-29.8 101.43,-19.63"/>
<polygon fill="#9a32cd" stroke="#9a32cd" points="63.65,-57.41 59.69,-67.23 68.91,-62.02 63.65,-57.41"/>
<text text-anchor="middle" x="109" y="-41" font-family="Helvetica,sans-Serif" font-size="10.00"> requestor</text>
</g>
<!-- Node11 -->
<g id="node3" class="node">
<title>Node11</title>
<g id="a_node3"><a xlink:href="structdiscord__timers.html" target="_top" xlink:title=" ">
<polygon fill="none" stroke="orangered" points="122.5,-67.5 122.5,-86.5 211.5,-86.5 211.5,-67.5 122.5,-67.5"/>
<text text-anchor="middle" x="167" y="-74.5" font-family="Helvetica,sans-Serif" font-size="10.00">discord_timers</text>
</a>
</g>
</g>
<!-- Node11&#45;&gt;Node1 -->
<g id="edge2" class="edge">
<title>Node11&#45;&gt;Node1</title>
<path fill="none" stroke="#9a32cd" stroke-dasharray="5,2" d="M154.87,-58.84C149.88,-52.13 143.9,-44.51 138,-38 132.09,-31.48 124.84,-24.73 119.06,-19.61"/>
<polygon fill="#9a32cd" stroke="#9a32cd" points="152.24,-61.18 160.95,-67.22 157.91,-57.07 152.24,-61.18"/>
<text text-anchor="middle" x="163.5" y="-41" font-family="Helvetica,sans-Serif" font-size="10.00"> timers</text>
</g>
</g>
</svg>
