<?xml version="1.0" encoding="UTF-8" standalone="no"?>
<!DOCTYPE svg PUBLIC "-//W3C//DTD SVG 1.1//EN"
 "http://www.w3.org/Graphics/SVG/1.1/DTD/svg11.dtd">
<!-- Generated by graphviz version 2.43.0 (0)
 -->
<!-- Title: discord Pages: 1 -->
<svg width="672pt" height="285pt"
 viewBox="0.00 0.00 672.00 284.72" xmlns="http://www.w3.org/2000/svg" xmlns:xlink="http://www.w3.org/1999/xlink">
<g id="graph0" class="graph" transform="scale(1 1) rotate(0) translate(4 280.72)">
<title>discord</title>
<!-- Node1 -->
<g id="node1" class="node">
<title>Node1</title>
<g id="a_node1"><a xlink:title="The Discord client handler.">
<polygon fill="#bfbfbf" stroke="black" points="357,-115.22 357,-134.22 409,-134.22 409,-115.22 357,-115.22"/>
<text text-anchor="middle" x="383" y="-122.22" font-family="Helvetica,sans-Serif" font-size="10.00">discord</text>
</a>
</g>
</g>
<!-- Node7 -->
<g id="node3" class="node">
<title>Node7</title>
<g id="a_node3"><a xlink:href="structdiscord__message__commands.html" target="_top" xlink:title="The handle for storing user&#39;s message commands.">
<polygon fill="none" stroke="red" points="503,-161.22 503,-180.22 664,-180.22 664,-161.22 503,-161.22"/>
<text text-anchor="middle" x="583.5" y="-168.22" font-family="Helvetica,sans-Serif" font-size="10.00">discord_message_commands</text>
</a>
</g>
</g>
<!-- Node1&#45;&gt;Node7 -->
<g id="edge4" class="edge">
<title>Node1&#45;&gt;Node7</title>
<path fill="none" stroke="#9a32cd" stroke-dasharray="5,2" d="M406.78,-139.48C413.12,-143 420.14,-146.41 427,-148.72 451.03,-156.81 478.12,-161.93 502.88,-165.16"/>
<polygon fill="#9a32cd" stroke="#9a32cd" points="408.49,-136.42 398.11,-134.34 404.93,-142.45 408.49,-136.42"/>
<text text-anchor="middle" x="456" y="-164.72" font-family="Helvetica,sans-Serif" font-size="10.00"> fallback</text>
</g>
<!-- Node22 -->
<g id="node7" class="node">
<title>Node22</title>
<g id="a_node7"><a xlink:href="structdiscord__gateway.html" target="_top" xlink:title="The handle used for interfacing with Discord&#39;s Gateway API.">
<polygon fill="none" stroke="red" points="534,-48.22 534,-67.22 633,-67.22 633,-48.22 534,-48.22"/>
<text text-anchor="middle" x="583.5" y="-55.22" font-family="Helvetica,sans-Serif" font-size="10.00">discord_gateway</text>
</a>
</g>
</g>
<!-- Node1&#45;&gt;Node22 -->
<g id="edge12" class="edge">
<title>Node1&#45;&gt;Node22</title>
<path fill="none" stroke="#9a32cd" stroke-dasharray="5,2" d="M409.12,-110.12C414.89,-107.1 421.06,-104.11 427,-101.72 463.95,-86.81 507.75,-74.91 539.44,-67.26"/>
<polygon fill="#9a32cd" stroke="#9a32cd" points="407.04,-107.27 399.94,-115.13 410.39,-113.41 407.04,-107.27"/>
<text text-anchor="middle" x="456" y="-115.72" font-family="Helvetica,sans-Serif" font-size="10.00"> cbs</text>
<text text-anchor="middle" x="456" y="-104.72" font-family="Helvetica,sans-Serif" font-size="10.00">scheduler</text>
</g>
<!-- Node2 -->
<g id="node2" class="node">
<title>Node2</title>
<g id="a_node2"><a xlink:href="structlogconf.html" target="_top" xlink:title="A stackful and modularized wrapper over the popular &#39;log.c&#39; facilities.">
<polygon fill="none" stroke="red" points="18,-107.22 18,-126.22 71,-126.22 71,-107.22 18,-107.22"/>
<text text-anchor="middle" x="44.5" y="-114.22" font-family="Helvetica,sans-Serif" font-size="10.00">logconf</text>
</a>
</g>
</g>
<!-- Node2&#45;&gt;Node1 -->
<g id="edge1" class="edge">
<title>Node2&#45;&gt;Node1</title>
<path fill="none" stroke="#9a32cd" stroke-dasharray="5,2" d="M81.36,-117.57C149.89,-119.2 297.88,-122.72 356.93,-124.12"/>
<polygon fill="#9a32cd" stroke="#9a32cd" points="81.15,-114.07 71.07,-117.33 80.98,-121.06 81.15,-114.07"/>
<text text-anchor="middle" x="213.5" y="-124.72" font-family="Helvetica,sans-Serif" font-size="10.00"> conf</text>
</g>
<!-- Node2&#45;&gt;Node7 -->
<g id="edge3" class="edge">
<title>Node2&#45;&gt;Node7</title>
<path fill="none" stroke="#9a32cd" stroke-dasharray="5,2" d="M53.92,-135.58C63.63,-154.74 81.59,-183.3 107,-195.72 262.96,-271.96 483.02,-206.29 557.07,-180.24"/>
<polygon fill="#9a32cd" stroke="#9a32cd" points="56.96,-133.83 49.49,-126.32 50.64,-136.85 56.96,-133.83"/>
<text text-anchor="middle" x="312" y="-233.72" font-family="Helvetica,sans-Serif" font-size="10.00"> conf</text>
</g>
<!-- Node9 -->
<g id="node4" class="node">
<title>Node9</title>
<g id="a_node4"><a xlink:href="structdiscord__refcounter.html" target="_top" xlink:title="Automatically cleanup user data.">
<polygon fill="none" stroke="black" points="160,-69.22 160,-88.22 267,-88.22 267,-69.22 160,-69.22"/>
<text text-anchor="middle" x="213.5" y="-76.22" font-family="Helvetica,sans-Serif" font-size="10.00">discord_refcounter</text>
</a>
</g>
</g>
<!-- Node2&#45;&gt;Node9 -->
<g id="edge6" class="edge">
<title>Node2&#45;&gt;Node9</title>
<path fill="none" stroke="#9a32cd" stroke-dasharray="5,2" d="M74.45,-103.12C84.55,-98.87 96.1,-94.55 107,-91.72 123.97,-87.31 142.87,-84.38 159.94,-82.44"/>
<polygon fill="#9a32cd" stroke="#9a32cd" points="73.03,-99.92 65.27,-107.13 75.83,-106.34 73.03,-99.92"/>
<text text-anchor="middle" x="124.5" y="-94.72" font-family="Helvetica,sans-Serif" font-size="10.00"> conf</text>
</g>
<!-- Node10 -->
<g id="node5" class="node">
<title>Node10</title>
<g id="a_node5"><a xlink:href="structdiscord__rest.html" target="_top" xlink:title="The handle used for interfacing with Discord&#39;s REST API.">
<polygon fill="none" stroke="red" points="175.5,-154.22 175.5,-173.22 251.5,-173.22 251.5,-154.22 175.5,-154.22"/>
<text text-anchor="middle" x="213.5" y="-161.22" font-family="Helvetica,sans-Serif" font-size="10.00">discord_rest</text>
</a>
</g>
</g>
<!-- Node2&#45;&gt;Node10 -->
<g id="edge8" class="edge">
<title>Node2&#45;&gt;Node10</title>
<path fill="none" stroke="#9a32cd" stroke-dasharray="5,2" d="M80.91,-126.68C109.76,-134.8 150.23,-146.19 178.65,-154.19"/>
<polygon fill="#9a32cd" stroke="#9a32cd" points="81.8,-123.3 71.23,-123.96 79.91,-130.04 81.8,-123.3"/>
<text text-anchor="middle" x="124.5" y="-145.72" font-family="Helvetica,sans-Serif" font-size="10.00"> conf</text>
</g>
<!-- Node2&#45;&gt;Node22 -->
<g id="edge11" class="edge">
<title>Node2&#45;&gt;Node22</title>
<path fill="none" stroke="#9a32cd" stroke-dasharray="5,2" d="M59.67,-99.04C79.34,-76.07 117.34,-37.11 160,-21.72 302.3,29.63 488.39,-24.66 556.28,-48.08"/>
<polygon fill="#9a32cd" stroke="#9a32cd" points="56.77,-97.05 53.06,-106.97 62.15,-101.53 56.77,-97.05"/>
<text text-anchor="middle" x="312" y="-5.72" font-family="Helvetica,sans-Serif" font-size="10.00"> conf</text>
</g>
<!-- Node7&#45;&gt;Node1 -->
<g id="edge2" class="edge">
<title>Node7&#45;&gt;Node1</title>
<path fill="none" stroke="#9a32cd" stroke-dasharray="5,2" d="M548.96,-157.53C530.37,-150.69 506.7,-142.73 485,-137.72 459.51,-131.83 429.73,-128.4 409.15,-126.56"/>
<polygon fill="#9a32cd" stroke="#9a32cd" points="547.85,-160.85 558.44,-161.08 550.31,-154.3 547.85,-160.85"/>
<text text-anchor="middle" x="456" y="-140.72" font-family="Helvetica,sans-Serif" font-size="10.00"> commands</text>
</g>
<!-- Node9&#45;&gt;Node1 -->
<g id="edge5" class="edge">
<title>Node9&#45;&gt;Node1</title>
<path fill="none" stroke="#9a32cd" stroke-dasharray="5,2" d="M277.08,-84.79C297.24,-87.93 319.43,-92.64 339,-99.72 349.39,-103.48 360.14,-109.73 368.3,-115.04"/>
<polygon fill="#9a32cd" stroke="#9a32cd" points="277.46,-81.31 267.06,-83.34 276.45,-88.24 277.46,-81.31"/>
<text text-anchor="middle" x="312" y="-102.72" font-family="Helvetica,sans-Serif" font-size="10.00"> refcounter</text>
</g>
<!-- Node10&#45;&gt;Node1 -->
<g id="edge7" class="edge">
<title>Node10&#45;&gt;Node1</title>
<path fill="none" stroke="#9a32cd" stroke-dasharray="5,2" d="M261.56,-155.61C284.98,-151.23 313.64,-145.37 339,-138.72 344.77,-137.21 350.91,-135.36 356.68,-133.51"/>
<polygon fill="#9a32cd" stroke="#9a32cd" points="260.73,-152.2 251.53,-157.45 262,-159.09 260.73,-152.2"/>
<text text-anchor="middle" x="312" y="-152.72" font-family="Helvetica,sans-Serif" font-size="10.00"> rest</text>
</g>
<!-- Node20 -->
<g id="node6" class="node">
<title>Node20</title>
<g id="a_node6"><a xlink:href="structdiscord__timers.html" target="_top" xlink:title=" ">
<polygon fill="none" stroke="red" points="0,-210.22 0,-229.22 89,-229.22 89,-210.22 0,-210.22"/>
<text text-anchor="middle" x="44.5" y="-217.22" font-family="Helvetica,sans-Serif" font-size="10.00">discord_timers</text>
</a>
</g>
</g>
<!-- Node20&#45;&gt;Node1 -->
<g id="edge14" class="edge">
<title>Node20&#45;&gt;Node1</title>
<path fill="none" stroke="#9a32cd" stroke-dasharray="5,2" d="M81.81,-232.4C141.08,-250.66 259.94,-276.78 339,-224.72 370.41,-204.04 378.97,-155.08 381.23,-134.31"/>
<polygon fill="#9a32cd" stroke="#9a32cd" points="82.73,-229.02 72.14,-229.33 80.61,-235.69 82.73,-229.02"/>
<text text-anchor="middle" x="213.5" y="-268.72" font-family="Helvetica,sans-Serif" font-size="10.00"> internal</text>
<text text-anchor="middle" x="213.5" y="-257.72" font-family="Helvetica,sans-Serif" font-size="10.00">user</text>
</g>
<!-- Node20&#45;&gt;Node10 -->
<g id="edge9" class="edge">
<title>Node20&#45;&gt;Node10</title>
<path fill="none" stroke="#9a32cd" stroke-dasharray="5,2" d="M83.7,-206.91C114.3,-196.65 156.53,-182.49 184.17,-173.22"/>
<polygon fill="#9a32cd" stroke="#9a32cd" points="82.58,-203.6 74.21,-210.09 84.8,-210.23 82.58,-203.6"/>
<text text-anchor="middle" x="124.5" y="-200.72" font-family="Helvetica,sans-Serif" font-size="10.00"> timers</text>
</g>
<!-- Node22&#45;&gt;Node1 -->
<g id="edge10" class="edge">
<title>Node22&#45;&gt;Node1</title>
<path fill="none" stroke="#9a32cd" stroke-dasharray="5,2" d="M533.13,-46.55C500.97,-41.94 459.18,-41.15 427,-58.72 404.92,-70.78 392.36,-99.6 387.05,-114.86"/>
<polygon fill="#9a32cd" stroke="#9a32cd" points="532.78,-50.04 543.21,-48.17 533.89,-43.13 532.78,-50.04"/>
<text text-anchor="middle" x="456" y="-61.72" font-family="Helvetica,sans-Serif" font-size="10.00"> gw</text>
</g>
<!-- Node28 -->
<g id="node8" class="node">
<title>Node28</title>
<g id="a_node8"><a xlink:href="structdiscord__user.html" target="_top" xlink:title=" ">
<polygon fill="none" stroke="black" points="174.5,-31.22 174.5,-50.22 252.5,-50.22 252.5,-31.22 174.5,-31.22"/>
<text text-anchor="middle" x="213.5" y="-38.22" font-family="Helvetica,sans-Serif" font-size="10.00">discord_user</text>
</a>
</g>
</g>
<!-- Node28&#45;&gt;Node1 -->
<g id="edge13" class="edge">
<title>Node28&#45;&gt;Node1</title>
<path fill="none" stroke="#9a32cd" stroke-dasharray="5,2" d="M262.81,-44.87C287.17,-48.75 316.28,-56.24 339,-70.72 356.59,-81.93 370.13,-102.85 377,-115.1"/>
<polygon fill="#9a32cd" stroke="#9a32cd" points="263.09,-41.37 252.7,-43.42 262.1,-48.3 263.09,-41.37"/>
<text text-anchor="middle" x="312" y="-73.72" font-family="Helvetica,sans-Serif" font-size="10.00"> self</text>
</g>
</g>
</svg>
