<?xml version="1.0" encoding="UTF-8" standalone="no"?>
<!DOCTYPE svg PUBLIC "-//W3C//DTD SVG 1.1//EN"
 "http://www.w3.org/Graphics/SVG/1.1/DTD/svg11.dtd">
<!-- Generated by graphviz version 2.43.0 (0)
 -->
<!-- Title: core/types.h Pages: 1 -->
<svg width="2965pt" height="95pt"
 viewBox="0.00 0.00 2965.00 95.00" xmlns="http://www.w3.org/2000/svg" xmlns:xlink="http://www.w3.org/1999/xlink">
<g id="graph0" class="graph" transform="scale(1 1) rotate(0) translate(4 91)">
<title>core/types.h</title>
<!-- Node1 -->
<g id="node1" class="node">
<title>Node1</title>
<g id="a_node1"><a xlink:title=" ">
<polygon fill="#bfbfbf" stroke="black" points="1417,-67.5 1417,-86.5 1494,-86.5 1494,-67.5 1417,-67.5"/>
<text text-anchor="middle" x="1455.5" y="-74.5" font-family="Helvetica,sans-Serif" font-size="10.00">core/types.h</text>
</a>
</g>
</g>
<!-- Node2 -->
<g id="node2" class="node">
<title>Node2</title>
<g id="a_node2"><a xlink:href="application_8h.html" target="_top" xlink:title="Generated code.">
<polygon fill="none" stroke="black" points="0,-6 0,-25 123,-25 123,-6 0,-6"/>
<text text-anchor="middle" x="61.5" y="-13" font-family="Helvetica,sans-Serif" font-size="10.00">docs/api/application.h</text>
</a>
</g>
</g>
<!-- Node1&#45;&gt;Node2 -->
<g id="edge1" class="edge">
<title>Node1&#45;&gt;Node2</title>
<path fill="none" stroke="midnightblue" d="M1406.52,-75.43C1198.4,-72.85 386.41,-61.03 132.5,-31 121.01,-29.64 108.6,-27.39 97.43,-25.05"/>
<polygon fill="midnightblue" stroke="midnightblue" points="1406.78,-78.94 1416.83,-75.56 1406.87,-71.94 1406.78,-78.94"/>
</g>
<!-- Node3 -->
<g id="node3" class="node">
<title>Node3</title>
<g id="a_node3"><a xlink:href="application__commands_8h.html" target="_top" xlink:title="Generated code.">
<polygon fill="none" stroke="black" points="141.5,-0.5 141.5,-30.5 255.5,-30.5 255.5,-0.5 141.5,-0.5"/>
<text text-anchor="start" x="149.5" y="-18.5" font-family="Helvetica,sans-Serif" font-size="10.00">docs/api/application</text>
<text text-anchor="middle" x="198.5" y="-7.5" font-family="Helvetica,sans-Serif" font-size="10.00">_commands.h</text>
</a>
</g>
</g>
<!-- Node1&#45;&gt;Node3 -->
<g id="edge2" class="edge">
<title>Node1&#45;&gt;Node3</title>
<path fill="none" stroke="midnightblue" d="M1406.7,-75.32C1212.08,-72.42 490.98,-59.92 264.5,-31 261.59,-30.63 258.62,-30.19 255.63,-29.7"/>
<polygon fill="midnightblue" stroke="midnightblue" points="1406.85,-78.82 1416.9,-75.47 1406.95,-71.82 1406.85,-78.82"/>
</g>
<!-- Node4 -->
<g id="node4" class="node">
<title>Node4</title>
<g id="a_node4"><a xlink:href="docs_2api_2audit__log_8h.html" target="_top" xlink:title="Generated code.">
<polygon fill="none" stroke="black" points="273.5,-6 273.5,-25 387.5,-25 387.5,-6 273.5,-6"/>
<text text-anchor="middle" x="330.5" y="-13" font-family="Helvetica,sans-Serif" font-size="10.00">docs/api/audit_log.h</text>
</a>
</g>
</g>
<!-- Node1&#45;&gt;Node4 -->
<g id="edge3" class="edge">
<title>Node1&#45;&gt;Node4</title>
<path fill="none" stroke="midnightblue" d="M1406.57,-75.05C1225.8,-71.37 595.77,-56.92 396.5,-31 385.8,-29.61 374.26,-27.34 363.88,-25.01"/>
<polygon fill="midnightblue" stroke="midnightblue" points="1406.76,-78.56 1416.83,-75.26 1406.9,-71.56 1406.76,-78.56"/>
</g>
<!-- Node5 -->
<g id="node5" class="node">
<title>Node5</title>
<g id="a_node5"><a xlink:href="docs_2api_2channel_8h.html" target="_top" xlink:title="Generated code.">
<polygon fill="none" stroke="black" points="406,-6 406,-25 513,-25 513,-6 406,-6"/>
<text text-anchor="middle" x="459.5" y="-13" font-family="Helvetica,sans-Serif" font-size="10.00">docs/api/channel.h</text>
</a>
</g>
</g>
<!-- Node1&#45;&gt;Node5 -->
<g id="edge4" class="edge">
<title>Node1&#45;&gt;Node5</title>
<path fill="none" stroke="midnightblue" d="M1406.39,-74.81C1239.49,-70.59 694.95,-55.26 521.5,-31 511.54,-29.61 500.82,-27.37 491.15,-25.07"/>
<polygon fill="midnightblue" stroke="midnightblue" points="1406.74,-78.32 1416.82,-75.07 1406.92,-71.32 1406.74,-78.32"/>
</g>
<!-- Node6 -->
<g id="node6" class="node">
<title>Node6</title>
<g id="a_node6"><a xlink:href="custom_8h.html" target="_top" xlink:title="Generated code.">
<polygon fill="none" stroke="black" points="531,-6 531,-25 636,-25 636,-6 531,-6"/>
<text text-anchor="middle" x="583.5" y="-13" font-family="Helvetica,sans-Serif" font-size="10.00">docs/api/custom.h</text>
</a>
</g>
</g>
<!-- Node1&#45;&gt;Node6 -->
<g id="edge5" class="edge">
<title>Node1&#45;&gt;Node6</title>
<path fill="none" stroke="midnightblue" d="M1406.7,-76.31C1280.14,-76.45 931.23,-72.7 644.5,-31 634.7,-29.57 624.16,-27.33 614.64,-25.03"/>
<polygon fill="midnightblue" stroke="midnightblue" points="1406.85,-79.81 1416.84,-76.29 1406.84,-72.81 1406.85,-79.81"/>
</g>
<!-- Node7 -->
<g id="node7" class="node">
<title>Node7</title>
<g id="a_node7"><a xlink:href="docs_2api_2emoji_8h.html" target="_top" xlink:title="Generated code.">
<polygon fill="none" stroke="black" points="654,-6 654,-25 751,-25 751,-6 654,-6"/>
<text text-anchor="middle" x="702.5" y="-13" font-family="Helvetica,sans-Serif" font-size="10.00">docs/api/emoji.h</text>
</a>
</g>
</g>
<!-- Node1&#45;&gt;Node7 -->
<g id="edge6" class="edge">
<title>Node1&#45;&gt;Node7</title>
<path fill="none" stroke="midnightblue" d="M1406.67,-75.85C1292.76,-74.86 1000.89,-68.52 760.5,-31 751.27,-29.56 741.36,-27.34 732.39,-25.07"/>
<polygon fill="midnightblue" stroke="midnightblue" points="1406.78,-79.35 1416.81,-75.93 1406.84,-72.35 1406.78,-79.35"/>
</g>
<!-- Node8 -->
<g id="node8" class="node">
<title>Node8</title>
<g id="a_node8"><a xlink:href="docs_2api_2gateway_8h.html" target="_top" xlink:title="Generated code.">
<polygon fill="none" stroke="black" points="769.5,-6 769.5,-25 879.5,-25 879.5,-6 769.5,-6"/>
<text text-anchor="middle" x="824.5" y="-13" font-family="Helvetica,sans-Serif" font-size="10.00">docs/api/gateway.h</text>
</a>
</g>
</g>
<!-- Node1&#45;&gt;Node8 -->
<g id="edge7" class="edge">
<title>Node1&#45;&gt;Node8</title>
<path fill="none" stroke="midnightblue" d="M1406.53,-74.48C1307.96,-70.9 1078.77,-59.95 888.5,-31 878.48,-29.47 867.69,-27.26 857.88,-25.01"/>
<polygon fill="midnightblue" stroke="midnightblue" points="1406.66,-77.99 1416.78,-74.84 1406.91,-70.99 1406.66,-77.99"/>
</g>
<!-- Node9 -->
<g id="node9" class="node">
<title>Node9</title>
<g id="a_node9"><a xlink:href="docs_2api_2guild_8h.html" target="_top" xlink:title="Generated code.">
<polygon fill="none" stroke="black" points="898,-6 898,-25 991,-25 991,-6 898,-6"/>
<text text-anchor="middle" x="944.5" y="-13" font-family="Helvetica,sans-Serif" font-size="10.00">docs/api/guild.h</text>
</a>
</g>
</g>
<!-- Node1&#45;&gt;Node9 -->
<g id="edge8" class="edge">
<title>Node1&#45;&gt;Node9</title>
<path fill="none" stroke="midnightblue" d="M1406.79,-73.75C1323,-69.3 1146.43,-57.44 999.5,-31 990.95,-29.46 981.78,-27.27 973.42,-25.05"/>
<polygon fill="midnightblue" stroke="midnightblue" points="1406.61,-77.24 1416.78,-74.26 1406.97,-70.25 1406.61,-77.24"/>
</g>
<!-- Node10 -->
<g id="node10" class="node">
<title>Node10</title>
<g id="a_node10"><a xlink:href="guild__scheduled__event_8h.html" target="_top" xlink:title="Generated code.">
<polygon fill="none" stroke="black" points="1009,-0.5 1009,-30.5 1148,-30.5 1148,-0.5 1009,-0.5"/>
<text text-anchor="start" x="1017" y="-18.5" font-family="Helvetica,sans-Serif" font-size="10.00">docs/api/guild_scheduled</text>
<text text-anchor="middle" x="1078.5" y="-7.5" font-family="Helvetica,sans-Serif" font-size="10.00">_event.h</text>
</a>
</g>
</g>
<!-- Node1&#45;&gt;Node10 -->
<g id="edge9" class="edge">
<title>Node1&#45;&gt;Node10</title>
<path fill="none" stroke="midnightblue" d="M1406.53,-69.16C1347.24,-60.75 1244.4,-45.78 1156.5,-31 1153.78,-30.54 1151.02,-30.07 1148.22,-29.58"/>
<polygon fill="midnightblue" stroke="midnightblue" points="1406.34,-72.66 1416.73,-70.6 1407.32,-65.73 1406.34,-72.66"/>
</g>
<!-- Node11 -->
<g id="node11" class="node">
<title>Node11</title>
<g id="a_node11"><a xlink:href="docs_2api_2guild__template_8h.html" target="_top" xlink:title="Generated code.">
<polygon fill="none" stroke="black" points="1166,-6 1166,-25 1309,-25 1309,-6 1166,-6"/>
<text text-anchor="middle" x="1237.5" y="-13" font-family="Helvetica,sans-Serif" font-size="10.00">docs/api/guild_template.h</text>
</a>
</g>
</g>
<!-- Node1&#45;&gt;Node11 -->
<g id="edge10" class="edge">
<title>Node1&#45;&gt;Node11</title>
<path fill="none" stroke="midnightblue" d="M1414.55,-64.82C1372.2,-53.26 1307.02,-35.47 1268.68,-25.01"/>
<polygon fill="midnightblue" stroke="midnightblue" points="1413.7,-68.22 1424.27,-67.48 1415.54,-61.47 1413.7,-68.22"/>
</g>
<!-- Node12 -->
<g id="node12" class="node">
<title>Node12</title>
<g id="a_node12"><a xlink:href="interactions_8h.html" target="_top" xlink:title="Generated code.">
<polygon fill="none" stroke="black" points="1327,-6 1327,-25 1454,-25 1454,-6 1327,-6"/>
<text text-anchor="middle" x="1390.5" y="-13" font-family="Helvetica,sans-Serif" font-size="10.00">docs/api/interactions.h</text>
</a>
</g>
</g>
<!-- Node1&#45;&gt;Node12 -->
<g id="edge11" class="edge">
<title>Node1&#45;&gt;Node12</title>
<path fill="none" stroke="midnightblue" d="M1438.73,-60.65C1426.34,-49.31 1409.92,-34.28 1399.8,-25.01"/>
<polygon fill="midnightblue" stroke="midnightblue" points="1436.45,-63.3 1446.19,-67.48 1441.17,-58.14 1436.45,-63.3"/>
</g>
<!-- Node13 -->
<g id="node13" class="node">
<title>Node13</title>
<g id="a_node13"><a xlink:href="docs_2api_2invite_8h.html" target="_top" xlink:title="Generated code.">
<polygon fill="none" stroke="black" points="1472,-6 1472,-25 1569,-25 1569,-6 1472,-6"/>
<text text-anchor="middle" x="1520.5" y="-13" font-family="Helvetica,sans-Serif" font-size="10.00">docs/api/invite.h</text>
</a>
</g>
</g>
<!-- Node1&#45;&gt;Node13 -->
<g id="edge12" class="edge">
<title>Node1&#45;&gt;Node13</title>
<path fill="none" stroke="midnightblue" d="M1472.27,-60.65C1484.66,-49.31 1501.08,-34.28 1511.2,-25.01"/>
<polygon fill="midnightblue" stroke="midnightblue" points="1469.83,-58.14 1464.81,-67.48 1474.55,-63.3 1469.83,-58.14"/>
</g>
<!-- Node14 -->
<g id="node14" class="node">
<title>Node14</title>
<g id="a_node14"><a xlink:href="message__components_8h.html" target="_top" xlink:title="Generated code.">
<polygon fill="none" stroke="black" points="1587,-6 1587,-25 1766,-25 1766,-6 1587,-6"/>
<text text-anchor="middle" x="1676.5" y="-13" font-family="Helvetica,sans-Serif" font-size="10.00">docs/api/message_components.h</text>
</a>
</g>
</g>
<!-- Node1&#45;&gt;Node14 -->
<g id="edge13" class="edge">
<title>Node1&#45;&gt;Node14</title>
<path fill="none" stroke="midnightblue" d="M1497.02,-64.82C1539.95,-53.26 1606.03,-35.47 1644.89,-25.01"/>
<polygon fill="midnightblue" stroke="midnightblue" points="1495.91,-61.5 1487.16,-67.48 1497.73,-68.25 1495.91,-61.5"/>
</g>
<!-- Node15 -->
<g id="node15" class="node">
<title>Node15</title>
<g id="a_node15"><a xlink:href="permissions_8h.html" target="_top" xlink:title="Generated code.">
<polygon fill="none" stroke="black" points="1784.5,-6 1784.5,-25 1912.5,-25 1912.5,-6 1784.5,-6"/>
<text text-anchor="middle" x="1848.5" y="-13" font-family="Helvetica,sans-Serif" font-size="10.00">docs/api/permissions.h</text>
</a>
</g>
</g>
<!-- Node1&#45;&gt;Node15 -->
<g id="edge14" class="edge">
<title>Node1&#45;&gt;Node15</title>
<path fill="none" stroke="midnightblue" d="M1504.04,-70.04C1566.86,-62.13 1679.61,-47.25 1775.5,-31 1785.95,-29.23 1797.19,-27.11 1807.65,-25.04"/>
<polygon fill="midnightblue" stroke="midnightblue" points="1503.52,-66.58 1494.03,-71.29 1504.39,-73.52 1503.52,-66.58"/>
</g>
<!-- Node16 -->
<g id="node16" class="node">
<title>Node16</title>
<g id="a_node16"><a xlink:href="stage__instance_8h.html" target="_top" xlink:title="Generated code.">
<polygon fill="none" stroke="black" points="1931,-6 1931,-25 2074,-25 2074,-6 1931,-6"/>
<text text-anchor="middle" x="2002.5" y="-13" font-family="Helvetica,sans-Serif" font-size="10.00">docs/api/stage_instance.h</text>
</a>
</g>
</g>
<!-- Node1&#45;&gt;Node16 -->
<g id="edge15" class="edge">
<title>Node1&#45;&gt;Node16</title>
<path fill="none" stroke="midnightblue" d="M1504.42,-72.58C1589.47,-66.35 1770,-51.84 1921.5,-31 1933.53,-29.35 1946.5,-27.19 1958.46,-25.05"/>
<polygon fill="midnightblue" stroke="midnightblue" points="1504.01,-69.11 1494.29,-73.32 1504.51,-76.09 1504.01,-69.11"/>
</g>
<!-- Node17 -->
<g id="node17" class="node">
<title>Node17</title>
<g id="a_node17"><a xlink:href="sticker_8h.html" target="_top" xlink:title="Generated code.">
<polygon fill="none" stroke="black" points="2092,-6 2092,-25 2193,-25 2193,-6 2092,-6"/>
<text text-anchor="middle" x="2142.5" y="-13" font-family="Helvetica,sans-Serif" font-size="10.00">docs/api/sticker.h</text>
</a>
</g>
</g>
<!-- Node1&#45;&gt;Node17 -->
<g id="edge16" class="edge">
<title>Node1&#45;&gt;Node17</title>
<path fill="none" stroke="midnightblue" d="M1504.43,-75.31C1610.56,-73.19 1869.54,-64.71 2083.5,-31 2092.88,-29.52 2102.95,-27.29 2112.08,-25.02"/>
<polygon fill="midnightblue" stroke="midnightblue" points="1504.28,-71.81 1494.35,-75.5 1504.41,-78.81 1504.28,-71.81"/>
</g>
<!-- Node18 -->
<g id="node18" class="node">
<title>Node18</title>
<g id="a_node18"><a xlink:href="teams_8h.html" target="_top" xlink:title="Generated code.">
<polygon fill="none" stroke="black" points="2211.5,-6 2211.5,-25 2311.5,-25 2311.5,-6 2211.5,-6"/>
<text text-anchor="middle" x="2261.5" y="-13" font-family="Helvetica,sans-Serif" font-size="10.00">docs/api/teams.h</text>
</a>
</g>
</g>
<!-- Node1&#45;&gt;Node18 -->
<g id="edge17" class="edge">
<title>Node1&#45;&gt;Node18</title>
<path fill="none" stroke="midnightblue" d="M1504.55,-76.1C1624.44,-75.68 1941.59,-70.59 2202.5,-31 2211.99,-29.56 2222.19,-27.31 2231.39,-25.01"/>
<polygon fill="midnightblue" stroke="midnightblue" points="1504.24,-72.6 1494.25,-76.13 1504.25,-79.6 1504.24,-72.6"/>
</g>
<!-- Node19 -->
<g id="node19" class="node">
<title>Node19</title>
<g id="a_node19"><a xlink:href="docs_2api_2user_8h.html" target="_top" xlink:title="Generated code.">
<polygon fill="none" stroke="black" points="2330,-6 2330,-25 2419,-25 2419,-6 2330,-6"/>
<text text-anchor="middle" x="2374.5" y="-13" font-family="Helvetica,sans-Serif" font-size="10.00">docs/api/user.h</text>
</a>
</g>
</g>
<!-- Node1&#45;&gt;Node19 -->
<g id="edge18" class="edge">
<title>Node1&#45;&gt;Node19</title>
<path fill="none" stroke="midnightblue" d="M1504.7,-74.8C1663.52,-70.72 2161.52,-56.19 2320.5,-31 2329.32,-29.6 2338.78,-27.34 2347.27,-25.01"/>
<polygon fill="midnightblue" stroke="midnightblue" points="1504.2,-71.31 1494.29,-75.07 1504.38,-78.31 1504.2,-71.31"/>
</g>
<!-- Node20 -->
<g id="node20" class="node">
<title>Node20</title>
<g id="a_node20"><a xlink:href="docs_2api_2voice_8h.html" target="_top" xlink:title="Generated code.">
<polygon fill="none" stroke="black" points="2437,-6 2437,-25 2532,-25 2532,-6 2437,-6"/>
<text text-anchor="middle" x="2484.5" y="-13" font-family="Helvetica,sans-Serif" font-size="10.00">docs/api/voice.h</text>
</a>
</g>
</g>
<!-- Node1&#45;&gt;Node20 -->
<g id="edge19" class="edge">
<title>Node1&#45;&gt;Node20</title>
<path fill="none" stroke="midnightblue" d="M1504.41,-75.08C1675.62,-71.64 2247.32,-58.34 2428.5,-31 2437.64,-29.62 2447.44,-27.36 2456.25,-25.03"/>
<polygon fill="midnightblue" stroke="midnightblue" points="1504.12,-71.58 1494.19,-75.28 1504.26,-78.58 1504.12,-71.58"/>
</g>
<!-- Node21 -->
<g id="node21" class="node">
<title>Node21</title>
<g id="a_node21"><a xlink:href="voice__connections_8h.html" target="_top" xlink:title="Generated code.">
<polygon fill="none" stroke="black" points="2550,-6 2550,-25 2709,-25 2709,-6 2550,-6"/>
<text text-anchor="middle" x="2629.5" y="-13" font-family="Helvetica,sans-Serif" font-size="10.00">docs/api/voice_connections.h</text>
</a>
</g>
</g>
<!-- Node1&#45;&gt;Node21 -->
<g id="edge20" class="edge">
<title>Node1&#45;&gt;Node21</title>
<path fill="none" stroke="midnightblue" d="M1504.11,-76.09C1657.13,-75.94 2142.39,-72 2541.5,-31 2555.52,-29.56 2570.69,-27.31 2584.42,-25.01"/>
<polygon fill="midnightblue" stroke="midnightblue" points="1504.09,-72.59 1494.1,-76.1 1504.1,-79.59 1504.09,-72.59"/>
</g>
<!-- Node22 -->
<g id="node22" class="node">
<title>Node22</title>
<g id="a_node22"><a xlink:href="docs_2api_2webhook_8h.html" target="_top" xlink:title="Generated code.">
<polygon fill="none" stroke="black" points="2727,-6 2727,-25 2840,-25 2840,-6 2727,-6"/>
<text text-anchor="middle" x="2783.5" y="-13" font-family="Helvetica,sans-Serif" font-size="10.00">docs/api/webhook.h</text>
</a>
</g>
</g>
<!-- Node1&#45;&gt;Node22 -->
<g id="edge21" class="edge">
<title>Node1&#45;&gt;Node22</title>
<path fill="none" stroke="midnightblue" d="M1504.26,-75.46C1706.15,-73.05 2477.18,-61.95 2718.5,-31 2729.05,-29.65 2740.41,-27.39 2750.64,-25.06"/>
<polygon fill="midnightblue" stroke="midnightblue" points="1504.21,-71.96 1494.25,-75.58 1504.29,-78.96 1504.21,-71.96"/>
</g>
<!-- Node23 -->
<g id="node23" class="node">
<title>Node23</title>
<g id="a_node23"><a xlink:href="discord_8h.html" target="_top" xlink:title="Public functions and datatypes.">
<polygon fill="none" stroke="black" points="2858,-6 2858,-25 2957,-25 2957,-6 2858,-6"/>
<text text-anchor="middle" x="2907.5" y="-13" font-family="Helvetica,sans-Serif" font-size="10.00">include/discord.h</text>
</a>
</g>
</g>
<!-- Node1&#45;&gt;Node23 -->
<g id="edge22" class="edge">
<title>Node1&#45;&gt;Node23</title>
<path fill="none" stroke="midnightblue" d="M1504.34,-75.82C1719.2,-74.79 2581.55,-68.38 2849.5,-31 2859.06,-29.67 2869.33,-27.39 2878.53,-25.03"/>
<polygon fill="midnightblue" stroke="midnightblue" points="1504.29,-72.32 1494.31,-75.86 1504.33,-79.32 1504.29,-72.32"/>
</g>
</g>
</svg>
