<?xml version="1.0" encoding="UTF-8" standalone="no"?>
<!DOCTYPE svg PUBLIC "-//W3C//DTD SVG 1.1//EN"
 "http://www.w3.org/Graphics/SVG/1.1/DTD/svg11.dtd">
<!-- Generated by graphviz version 2.43.0 (0)
 -->
<!-- Title: core/websockets.h Pages: 1 -->
<svg width="219pt" height="84pt"
 viewBox="0.00 0.00 219.00 84.00" xmlns="http://www.w3.org/2000/svg" xmlns:xlink="http://www.w3.org/1999/xlink">
<g id="graph0" class="graph" transform="scale(1 1) rotate(0) translate(4 80)">
<title>core/websockets.h</title>
<!-- Node1 -->
<g id="node1" class="node">
<title>Node1</title>
<g id="a_node1"><a xlink:title=" ">
<polygon fill="#bfbfbf" stroke="black" points="54,-56.5 54,-75.5 161,-75.5 161,-56.5 54,-56.5"/>
<text text-anchor="middle" x="107.5" y="-63.5" font-family="Helvetica,sans-Serif" font-size="10.00">core/websockets.h</text>
</a>
</g>
</g>
<!-- Node2 -->
<g id="node2" class="node">
<title>Node2</title>
<g id="a_node2"><a xlink:title=" ">
<polygon fill="none" stroke="#bfbfbf" points="0,-0.5 0,-19.5 65,-19.5 65,-0.5 0,-0.5"/>
<text text-anchor="middle" x="32.5" y="-7.5" font-family="Helvetica,sans-Serif" font-size="10.00">curl/curl.h</text>
</a>
</g>
</g>
<!-- Node1&#45;&gt;Node2 -->
<g id="edge1" class="edge">
<title>Node1&#45;&gt;Node2</title>
<path fill="none" stroke="midnightblue" d="M95.45,-56.32C84.04,-48.11 66.67,-35.6 53.07,-25.81"/>
<polygon fill="midnightblue" stroke="midnightblue" points="54.93,-22.84 44.77,-19.83 50.84,-28.52 54.93,-22.84"/>
</g>
<!-- Node3 -->
<g id="node3" class="node">
<title>Node3</title>
<g id="a_node3"><a xlink:href="error_8h.html" target="_top" xlink:title=" ">
<polygon fill="none" stroke="black" points="83.5,-0.5 83.5,-19.5 131.5,-19.5 131.5,-0.5 83.5,-0.5"/>
<text text-anchor="middle" x="107.5" y="-7.5" font-family="Helvetica,sans-Serif" font-size="10.00">error.h</text>
</a>
</g>
</g>
<!-- Node1&#45;&gt;Node3 -->
<g id="edge2" class="edge">
<title>Node1&#45;&gt;Node3</title>
<path fill="none" stroke="midnightblue" d="M107.5,-56.08C107.5,-49.01 107.5,-38.86 107.5,-29.99"/>
<polygon fill="midnightblue" stroke="midnightblue" points="111,-29.75 107.5,-19.75 104,-29.75 111,-29.75"/>
</g>
<!-- Node4 -->
<g id="node4" class="node">
<title>Node4</title>
<g id="a_node4"><a xlink:href="logconf_8h.html" target="_top" xlink:title=" ">
<polygon fill="none" stroke="red" points="150,-0.5 150,-19.5 211,-19.5 211,-0.5 150,-0.5"/>
<text text-anchor="middle" x="180.5" y="-7.5" font-family="Helvetica,sans-Serif" font-size="10.00">logconf.h</text>
</a>
</g>
</g>
<!-- Node1&#45;&gt;Node4 -->
<g id="edge3" class="edge">
<title>Node1&#45;&gt;Node4</title>
<path fill="none" stroke="midnightblue" d="M119.23,-56.32C130.34,-48.11 147.24,-35.6 160.48,-25.81"/>
<polygon fill="midnightblue" stroke="midnightblue" points="162.6,-28.59 168.56,-19.83 158.44,-22.97 162.6,-28.59"/>
</g>
</g>
</svg>
