<?xml version="1.0" encoding="UTF-8" standalone="no"?>
<!DOCTYPE svg PUBLIC "-//W3C//DTD SVG 1.1//EN"
 "http://www.w3.org/Graphics/SVG/1.1/DTD/svg11.dtd">
<!-- Generated by graphviz version 2.43.0 (0)
 -->
<!-- Title: discord_gateway Pages: 1 -->
<svg width="773pt" height="238pt"
 viewBox="0.00 0.00 773.00 238.00" xmlns="http://www.w3.org/2000/svg" xmlns:xlink="http://www.w3.org/1999/xlink">
<g id="graph0" class="graph" transform="scale(1 1) rotate(0) translate(4 234)">
<title>discord_gateway</title>
<!-- Node1 -->
<g id="node1" class="node">
<title>Node1</title>
<g id="a_node1"><a xlink:title="The handle used for establishing a WebSockets connection.">
<polygon fill="#bfbfbf" stroke="black" points="212,-76.5 212,-95.5 311,-95.5 311,-76.5 212,-76.5"/>
<text text-anchor="middle" x="261.5" y="-83.5" font-family="Helvetica,sans-Serif" font-size="10.00">discord_gateway</text>
</a>
</g>
</g>
<!-- Node18 -->
<g id="node6" class="node">
<title>Node18</title>
<g id="a_node6"><a xlink:href="../../d5/daf/structdiscord.html" target="_top" xlink:title="The Discord client handler.">
<polygon fill="none" stroke="red" points="399.5,-79.5 399.5,-98.5 451.5,-98.5 451.5,-79.5 399.5,-79.5"/>
<text text-anchor="middle" x="425.5" y="-86.5" font-family="Helvetica,sans-Serif" font-size="10.00">discord</text>
</a>
</g>
</g>
<!-- Node1&#45;&gt;Node18 -->
<g id="edge6" class="edge">
<title>Node1&#45;&gt;Node18</title>
<path fill="none" stroke="#9a32cd" stroke-dasharray="5,2" d="M301.86,-74.05C324.78,-68.72 354.17,-64.72 380,-70 389.05,-71.85 398.54,-75.62 406.42,-79.32"/>
<polygon fill="#9a32cd" stroke="#9a32cd" points="301,-70.65 292.14,-76.47 302.69,-77.45 301,-70.65"/>
<text text-anchor="middle" x="354.5" y="-73" font-family="Helvetica,sans-Serif" font-size="10.00"> gw</text>
</g>
<!-- Node2 -->
<g id="node2" class="node">
<title>Node2</title>
<g id="a_node2"><a xlink:href="../../d1/df9/structwebsockets.html" target="_top" xlink:title="Opaque handler for WebSockets.">
<polygon fill="none" stroke="black" points="24,-114.5 24,-133.5 98,-133.5 98,-114.5 24,-114.5"/>
<text text-anchor="middle" x="61" y="-121.5" font-family="Helvetica,sans-Serif" font-size="10.00">websockets</text>
</a>
</g>
</g>
<!-- Node2&#45;&gt;Node1 -->
<g id="edge1" class="edge">
<title>Node2&#45;&gt;Node1</title>
<path fill="none" stroke="#9a32cd" stroke-dasharray="5,2" d="M108.31,-116.51C133.67,-112.26 165.63,-106.67 194,-101 202.36,-99.33 211.27,-97.41 219.77,-95.52"/>
<polygon fill="#9a32cd" stroke="#9a32cd" points="107.52,-113.09 98.23,-118.18 108.66,-119.99 107.52,-113.09"/>
<text text-anchor="middle" x="167" y="-113" font-family="Helvetica,sans-Serif" font-size="10.00"> ws</text>
</g>
<!-- Node3 -->
<g id="node3" class="node">
<title>Node3</title>
<g id="a_node3"><a xlink:href="../../d9/d96/structdiscord__identify.html" target="_top" xlink:title=" ">
<polygon fill="none" stroke="red" points="14,-76.5 14,-95.5 108,-95.5 108,-76.5 14,-76.5"/>
<text text-anchor="middle" x="61" y="-83.5" font-family="Helvetica,sans-Serif" font-size="10.00">discord_identify</text>
</a>
</g>
</g>
<!-- Node3&#45;&gt;Node1 -->
<g id="edge2" class="edge">
<title>Node3&#45;&gt;Node1</title>
<path fill="none" stroke="#9a32cd" stroke-dasharray="5,2" d="M118.2,-86C147.75,-86 183.61,-86 211.94,-86"/>
<polygon fill="#9a32cd" stroke="#9a32cd" points="118.04,-82.5 108.04,-86 118.04,-89.5 118.04,-82.5"/>
<text text-anchor="middle" x="167" y="-89" font-family="Helvetica,sans-Serif" font-size="10.00"> id</text>
</g>
<!-- Node16 -->
<g id="node4" class="node">
<title>Node16</title>
<g id="a_node4"><a xlink:href="../../d2/dbd/structdiscord__session__start__limit.html" target="_top" xlink:title=" ">
<polygon fill="none" stroke="black" points="0,-27 0,-57 122,-57 122,-27 0,-27"/>
<text text-anchor="start" x="8" y="-45" font-family="Helvetica,sans-Serif" font-size="10.00">discord_session_start</text>
<text text-anchor="middle" x="61" y="-34" font-family="Helvetica,sans-Serif" font-size="10.00">_limit</text>
</a>
</g>
</g>
<!-- Node16&#45;&gt;Node1 -->
<g id="edge3" class="edge">
<title>Node16&#45;&gt;Node1</title>
<path fill="none" stroke="#9a32cd" stroke-dasharray="5,2" d="M132.11,-57.33C152.11,-61.72 173.92,-66.53 194,-71 201.86,-72.75 210.23,-74.63 218.29,-76.44"/>
<polygon fill="#9a32cd" stroke="#9a32cd" points="132.66,-53.86 122.14,-55.14 131.16,-60.7 132.66,-53.86"/>
<text text-anchor="middle" x="167" y="-74" font-family="Helvetica,sans-Serif" font-size="10.00"> start_limit</text>
</g>
<!-- Node17 -->
<g id="node5" class="node">
<title>Node17</title>
<g id="a_node5"><a xlink:href="../../d3/d05/structdiscord__gateway__cmd__cbs.html" target="_top" xlink:title=" ">
<polygon fill="none" stroke="#bfbfbf" points="618,-206.5 618,-225.5 765,-225.5 765,-206.5 618,-206.5"/>
<text text-anchor="middle" x="691.5" y="-213.5" font-family="Helvetica,sans-Serif" font-size="10.00">discord_gateway_cmd_cbs</text>
</a>
</g>
</g>
<!-- Node17&#45;&gt;Node1 -->
<g id="edge4" class="edge">
<title>Node17&#45;&gt;Node1</title>
<path fill="none" stroke="#9a32cd" stroke-dasharray="5,2" d="M607.79,-226.12C566.02,-228.62 514.99,-227.62 471,-215 386.3,-190.71 302.25,-121.36 273.18,-95.7"/>
<polygon fill="#9a32cd" stroke="#9a32cd" points="608.19,-229.6 617.93,-225.44 607.72,-222.62 608.19,-229.6"/>
<text text-anchor="middle" x="425.5" y="-222" font-family="Helvetica,sans-Serif" font-size="10.00"> on_default</text>
<text text-anchor="middle" x="425.5" y="-211" font-family="Helvetica,sans-Serif" font-size="10.00">pool</text>
</g>
<!-- Node18&#45;&gt;Node1 -->
<g id="edge10" class="edge">
<title>Node18&#45;&gt;Node1</title>
<path fill="none" stroke="#9a32cd" stroke-dasharray="5,2" d="M389.15,-88.35C366.28,-87.92 336.21,-87.36 311.11,-86.9"/>
<polygon fill="#9a32cd" stroke="#9a32cd" points="389.36,-91.85 399.42,-88.54 389.49,-84.85 389.36,-91.85"/>
<text text-anchor="middle" x="354.5" y="-91" font-family="Helvetica,sans-Serif" font-size="10.00"> scheduler</text>
</g>
<!-- Node18&#45;&gt;Node17 -->
<g id="edge5" class="edge">
<title>Node18&#45;&gt;Node17</title>
<path fill="none" stroke="#9a32cd" stroke-dasharray="5,2" d="M430.36,-108.58C435.66,-129.94 447.35,-163.42 471,-181 477.11,-185.54 559.04,-197.77 621.02,-206.5"/>
<polygon fill="#9a32cd" stroke="#9a32cd" points="433.74,-107.66 428.15,-98.67 426.91,-109.19 433.74,-107.66"/>
<text text-anchor="middle" x="535.5" y="-206" font-family="Helvetica,sans-Serif" font-size="10.00"> cb</text>
</g>
<!-- Node18&#45;&gt;Node18 -->
<g id="edge7" class="edge">
<title>Node18&#45;&gt;Node18</title>
<path fill="none" stroke="#9a32cd" stroke-dasharray="5,2" d="M412.61,-108.77C413.62,-113.5 417.92,-117 425.5,-117 437.94,-117 441.54,-107.57 436.29,-98.76"/>
<polygon fill="#9a32cd" stroke="#9a32cd" points="416.08,-109.26 414.71,-98.76 409.23,-107.82 416.08,-109.26"/>
<text text-anchor="middle" x="425.5" y="-142" font-family="Helvetica,sans-Serif" font-size="10.00"> cb</text>
<text text-anchor="middle" x="425.5" y="-131" font-family="Helvetica,sans-Serif" font-size="10.00">on_cycle</text>
<text text-anchor="middle" x="425.5" y="-120" font-family="Helvetica,sans-Serif" font-size="10.00">on_idle</text>
</g>
<!-- Node23 -->
<g id="node7" class="node">
<title>Node23</title>
<g id="a_node7"><a xlink:href="../../d0/d7c/structdiscord__gateway__cbs.html" target="_top" xlink:title=" ">
<polygon fill="none" stroke="#bfbfbf" points="631,-0.5 631,-19.5 752,-19.5 752,-0.5 631,-0.5"/>
<text text-anchor="middle" x="691.5" y="-7.5" font-family="Helvetica,sans-Serif" font-size="10.00">discord_gateway_cbs</text>
</a>
</g>
</g>
<!-- Node18&#45;&gt;Node23 -->
<g id="edge9" class="edge">
<title>Node18&#45;&gt;Node23</title>
<path fill="none" stroke="#9a32cd" stroke-dasharray="5,2" d="M434.47,-70.31C441.73,-55.81 453.93,-36.61 471,-27 497.44,-12.12 575.49,-9.15 630.98,-9.05"/>
<polygon fill="#9a32cd" stroke="#9a32cd" points="431.28,-68.88 430.24,-79.42 437.63,-71.83 431.28,-68.88"/>
<text text-anchor="start" x="471" y="-173" font-family="Helvetica,sans-Serif" font-size="10.00"> on_application_command</text>
<text text-anchor="middle" x="535.5" y="-162" font-family="Helvetica,sans-Serif" font-size="10.00">_create</text>
<text text-anchor="start" x="471" y="-151" font-family="Helvetica,sans-Serif" font-size="10.00">on_application_command</text>
<text text-anchor="middle" x="535.5" y="-140" font-family="Helvetica,sans-Serif" font-size="10.00">_delete</text>
<text text-anchor="start" x="471" y="-129" font-family="Helvetica,sans-Serif" font-size="10.00">on_application_command</text>
<text text-anchor="middle" x="535.5" y="-118" font-family="Helvetica,sans-Serif" font-size="10.00">_update</text>
<text text-anchor="middle" x="535.5" y="-107" font-family="Helvetica,sans-Serif" font-size="10.00">on_channel_create</text>
<text text-anchor="middle" x="535.5" y="-96" font-family="Helvetica,sans-Serif" font-size="10.00">on_channel_delete</text>
<text text-anchor="middle" x="535.5" y="-85" font-family="Helvetica,sans-Serif" font-size="10.00">on_channel_pins_update</text>
<text text-anchor="middle" x="535.5" y="-74" font-family="Helvetica,sans-Serif" font-size="10.00">on_channel_update</text>
<text text-anchor="middle" x="535.5" y="-63" font-family="Helvetica,sans-Serif" font-size="10.00">on_guild_ban_add</text>
<text text-anchor="middle" x="535.5" y="-52" font-family="Helvetica,sans-Serif" font-size="10.00">on_guild_ban_remove</text>
<text text-anchor="middle" x="535.5" y="-41" font-family="Helvetica,sans-Serif" font-size="10.00">on_guild_create</text>
<text text-anchor="middle" x="535.5" y="-30" font-family="Helvetica,sans-Serif" font-size="10.00">...</text>
</g>
<!-- Node23&#45;&gt;Node1 -->
<g id="edge8" class="edge">
<title>Node23&#45;&gt;Node1</title>
<path fill="none" stroke="#9a32cd" stroke-dasharray="5,2" d="M620.51,-7.45C613.58,-7.27 606.65,-7.11 600,-7 542.67,-6.05 527.4,3.33 471,-7 397.51,-20.46 316.32,-58.52 280.82,-76.45"/>
<polygon fill="#9a32cd" stroke="#9a32cd" points="620.54,-10.95 630.63,-7.74 620.73,-3.95 620.54,-10.95"/>
<text text-anchor="middle" x="425.5" y="-30" font-family="Helvetica,sans-Serif" font-size="10.00"> cbs</text>
</g>
</g>
</svg>
