<?xml version="1.0" encoding="UTF-8" standalone="no"?>
<!DOCTYPE svg PUBLIC "-//W3C//DTD SVG 1.1//EN"
 "http://www.w3.org/Graphics/SVG/1.1/DTD/svg11.dtd">
<!-- Generated by graphviz version 2.43.0 (0)
 -->
<!-- Title: discord_embed Pages: 1 -->
<svg width="334pt" height="256pt"
 viewBox="0.00 0.00 334.00 256.00" xmlns="http://www.w3.org/2000/svg" xmlns:xlink="http://www.w3.org/1999/xlink">
<g id="graph0" class="graph" transform="scale(1 1) rotate(0) translate(4 252)">
<title>discord_embed</title>
<!-- Node1 -->
<g id="node1" class="node">
<title>Node1</title>
<g id="a_node1"><a xlink:title=" ">
<polygon fill="#bfbfbf" stroke="black" points="235,-114.5 235,-133.5 326,-133.5 326,-114.5 235,-114.5"/>
<text text-anchor="middle" x="280.5" y="-121.5" font-family="Helvetica,sans-Serif" font-size="10.00">discord_embed</text>
</a>
</g>
</g>
<!-- Node2 -->
<g id="node2" class="node">
<title>Node2</title>
<g id="a_node2"><a xlink:href="../../d0/de4/structdiscord__embed__footer.html" target="_top" xlink:title=" ">
<polygon fill="none" stroke="black" points="10.5,-228.5 10.5,-247.5 135.5,-247.5 135.5,-228.5 10.5,-228.5"/>
<text text-anchor="middle" x="73" y="-235.5" font-family="Helvetica,sans-Serif" font-size="10.00">discord_embed_footer</text>
</a>
</g>
</g>
<!-- Node2&#45;&gt;Node1 -->
<g id="edge1" class="edge">
<title>Node2&#45;&gt;Node1</title>
<path fill="none" stroke="#9a32cd" stroke-dasharray="5,2" d="M142.8,-226.03C167.6,-219.54 194.9,-209.71 217,-195 242.15,-178.25 263.43,-148.9 273.42,-133.72"/>
<polygon fill="#9a32cd" stroke="#9a32cd" points="141.93,-222.64 133.07,-228.44 143.62,-229.43 141.93,-222.64"/>
<text text-anchor="middle" x="190.5" y="-222" font-family="Helvetica,sans-Serif" font-size="10.00"> footer</text>
</g>
<!-- Node3 -->
<g id="node3" class="node">
<title>Node3</title>
<g id="a_node3"><a xlink:href="../../df/d88/structdiscord__embed__image.html" target="_top" xlink:title=" ">
<polygon fill="none" stroke="black" points="9.5,-190.5 9.5,-209.5 136.5,-209.5 136.5,-190.5 9.5,-190.5"/>
<text text-anchor="middle" x="73" y="-197.5" font-family="Helvetica,sans-Serif" font-size="10.00">discord_embed_image</text>
</a>
</g>
</g>
<!-- Node3&#45;&gt;Node1 -->
<g id="edge2" class="edge">
<title>Node3&#45;&gt;Node1</title>
<path fill="none" stroke="#9a32cd" stroke-dasharray="5,2" d="M136.19,-188.25C161.8,-182.31 191.41,-173.99 217,-163 235.33,-155.13 254.53,-142.37 266.73,-133.6"/>
<polygon fill="#9a32cd" stroke="#9a32cd" points="135.21,-184.88 126.22,-190.49 136.74,-191.71 135.21,-184.88"/>
<text text-anchor="middle" x="190.5" y="-183" font-family="Helvetica,sans-Serif" font-size="10.00"> image</text>
</g>
<!-- Node4 -->
<g id="node4" class="node">
<title>Node4</title>
<g id="a_node4"><a xlink:href="../../d0/d32/structdiscord__embed__thumbnail.html" target="_top" xlink:title=" ">
<polygon fill="none" stroke="black" points="0,-152.5 0,-171.5 146,-171.5 146,-152.5 0,-152.5"/>
<text text-anchor="middle" x="73" y="-159.5" font-family="Helvetica,sans-Serif" font-size="10.00">discord_embed_thumbnail</text>
</a>
</g>
</g>
<!-- Node4&#45;&gt;Node1 -->
<g id="edge3" class="edge">
<title>Node4&#45;&gt;Node1</title>
<path fill="none" stroke="#9a32cd" stroke-dasharray="5,2" d="M150.17,-150.85C171.83,-147.38 195.4,-143.32 217,-139 225.1,-137.38 233.74,-135.44 241.93,-133.51"/>
<polygon fill="#9a32cd" stroke="#9a32cd" points="149.37,-147.43 140.04,-152.45 150.46,-154.35 149.37,-147.43"/>
<text text-anchor="middle" x="190.5" y="-151" font-family="Helvetica,sans-Serif" font-size="10.00"> thumbnail</text>
</g>
<!-- Node5 -->
<g id="node5" class="node">
<title>Node5</title>
<g id="a_node5"><a xlink:href="../../da/d93/structdiscord__embed__video.html" target="_top" xlink:title=" ">
<polygon fill="none" stroke="black" points="11.5,-114.5 11.5,-133.5 134.5,-133.5 134.5,-114.5 11.5,-114.5"/>
<text text-anchor="middle" x="73" y="-121.5" font-family="Helvetica,sans-Serif" font-size="10.00">discord_embed_video</text>
</a>
</g>
</g>
<!-- Node5&#45;&gt;Node1 -->
<g id="edge4" class="edge">
<title>Node5&#45;&gt;Node1</title>
<path fill="none" stroke="#9a32cd" stroke-dasharray="5,2" d="M144.9,-124C174.7,-124 208.46,-124 234.71,-124"/>
<polygon fill="#9a32cd" stroke="#9a32cd" points="144.55,-120.5 134.55,-124 144.55,-127.5 144.55,-120.5"/>
<text text-anchor="middle" x="190.5" y="-127" font-family="Helvetica,sans-Serif" font-size="10.00"> video</text>
</g>
<!-- Node6 -->
<g id="node6" class="node">
<title>Node6</title>
<g id="a_node6"><a xlink:href="../../d7/d54/structdiscord__embed__provider.html" target="_top" xlink:title=" ">
<polygon fill="none" stroke="black" points="4.5,-76.5 4.5,-95.5 141.5,-95.5 141.5,-76.5 4.5,-76.5"/>
<text text-anchor="middle" x="73" y="-83.5" font-family="Helvetica,sans-Serif" font-size="10.00">discord_embed_provider</text>
</a>
</g>
</g>
<!-- Node6&#45;&gt;Node1 -->
<g id="edge5" class="edge">
<title>Node6&#45;&gt;Node1</title>
<path fill="none" stroke="#9a32cd" stroke-dasharray="5,2" d="M150.17,-97.15C171.83,-100.62 195.4,-104.68 217,-109 225.1,-110.62 233.74,-112.56 241.93,-114.49"/>
<polygon fill="#9a32cd" stroke="#9a32cd" points="150.46,-93.65 140.04,-95.55 149.37,-100.57 150.46,-93.65"/>
<text text-anchor="middle" x="190.5" y="-112" font-family="Helvetica,sans-Serif" font-size="10.00"> provider</text>
</g>
<!-- Node7 -->
<g id="node7" class="node">
<title>Node7</title>
<g id="a_node7"><a xlink:href="../../d1/d6a/structdiscord__embed__author.html" target="_top" xlink:title=" ">
<polygon fill="none" stroke="black" points="9,-38.5 9,-57.5 137,-57.5 137,-38.5 9,-38.5"/>
<text text-anchor="middle" x="73" y="-45.5" font-family="Helvetica,sans-Serif" font-size="10.00">discord_embed_author</text>
</a>
</g>
</g>
<!-- Node7&#45;&gt;Node1 -->
<g id="edge6" class="edge">
<title>Node7&#45;&gt;Node1</title>
<path fill="none" stroke="#9a32cd" stroke-dasharray="5,2" d="M138.77,-59.66C163.81,-65.35 192.31,-73.33 217,-84 235.68,-92.08 255.11,-105.42 267.25,-114.45"/>
<polygon fill="#9a32cd" stroke="#9a32cd" points="139.52,-56.24 129,-57.51 138.02,-63.08 139.52,-56.24"/>
<text text-anchor="middle" x="190.5" y="-87" font-family="Helvetica,sans-Serif" font-size="10.00"> author</text>
</g>
<!-- Node8 -->
<g id="node8" class="node">
<title>Node8</title>
<g id="a_node8"><a xlink:href="../../da/d95/structdiscord__embed__fields.html" target="_top" xlink:title=" ">
<polygon fill="none" stroke="red" points="12,-0.5 12,-19.5 134,-19.5 134,-0.5 12,-0.5"/>
<text text-anchor="middle" x="73" y="-7.5" font-family="Helvetica,sans-Serif" font-size="10.00">discord_embed_fields</text>
</a>
</g>
</g>
<!-- Node8&#45;&gt;Node1 -->
<g id="edge7" class="edge">
<title>Node8&#45;&gt;Node1</title>
<path fill="none" stroke="#9a32cd" stroke-dasharray="5,2" d="M144.08,-21.2C168.54,-27.33 195.28,-36.72 217,-51 242.93,-68.05 264.17,-98.86 273.85,-114.43"/>
<polygon fill="#9a32cd" stroke="#9a32cd" points="144.66,-17.74 134.12,-18.84 143.05,-24.55 144.66,-17.74"/>
<text text-anchor="middle" x="190.5" y="-54" font-family="Helvetica,sans-Serif" font-size="10.00"> fields</text>
</g>
</g>
</svg>
