<?xml version="1.0" encoding="UTF-8" standalone="no"?>
<!DOCTYPE svg PUBLIC "-//W3C//DTD SVG 1.1//EN"
 "http://www.w3.org/Graphics/SVG/1.1/DTD/svg11.dtd">
<!-- Generated by graphviz version 2.43.0 (0)
 -->
<!-- Title: include/discord.h Pages: 1 -->
<svg width="1902pt" height="84pt"
 viewBox="0.00 0.00 1901.50 84.00" xmlns="http://www.w3.org/2000/svg" xmlns:xlink="http://www.w3.org/1999/xlink">
<g id="graph0" class="graph" transform="scale(1 1) rotate(0) translate(4 80)">
<title>include/discord.h</title>
<!-- Node1 -->
<g id="node1" class="node">
<title>Node1</title>
<g id="a_node1"><a xlink:title="Public functions and datatypes.">
<polygon fill="#bfbfbf" stroke="black" points="884,-56.5 884,-75.5 983,-75.5 983,-56.5 884,-56.5"/>
<text text-anchor="middle" x="933.5" y="-63.5" font-family="Helvetica,sans-Serif" font-size="10.00">include/discord.h</text>
</a>
</g>
</g>
<!-- Node2 -->
<g id="node2" class="node">
<title>Node2</title>
<g id="a_node2"><a xlink:title=" ">
<polygon fill="none" stroke="#bfbfbf" points="0,-0.5 0,-19.5 65,-19.5 65,-0.5 0,-0.5"/>
<text text-anchor="middle" x="32.5" y="-7.5" font-family="Helvetica,sans-Serif" font-size="10.00">inttypes.h</text>
</a>
</g>
</g>
<!-- Node1&#45;&gt;Node2 -->
<g id="edge1" class="edge">
<title>Node1&#45;&gt;Node2</title>
<path fill="none" stroke="midnightblue" d="M883.86,-65.15C753.07,-64.94 388.16,-60.6 75.59,-19.91"/>
<polygon fill="midnightblue" stroke="midnightblue" points="75.8,-16.41 65.43,-18.57 74.89,-23.35 75.8,-16.41"/>
</g>
<!-- Node3 -->
<g id="node3" class="node">
<title>Node3</title>
<g id="a_node3"><a xlink:title=" ">
<polygon fill="none" stroke="#bfbfbf" points="83.5,-0.5 83.5,-19.5 145.5,-19.5 145.5,-0.5 83.5,-0.5"/>
<text text-anchor="middle" x="114.5" y="-7.5" font-family="Helvetica,sans-Serif" font-size="10.00">stdbool.h</text>
</a>
</g>
</g>
<!-- Node1&#45;&gt;Node3 -->
<g id="edge2" class="edge">
<title>Node1&#45;&gt;Node3</title>
<path fill="none" stroke="midnightblue" d="M883.55,-64.94C760.99,-64.18 435.58,-58.52 155.79,-19.95"/>
<polygon fill="midnightblue" stroke="midnightblue" points="156.24,-16.48 145.85,-18.56 155.27,-23.41 156.24,-16.48"/>
</g>
<!-- Node4 -->
<g id="node4" class="node">
<title>Node4</title>
<g id="a_node4"><a xlink:title=" ">
<polygon fill="none" stroke="#bfbfbf" points="164,-0.5 164,-19.5 225,-19.5 225,-0.5 164,-0.5"/>
<text text-anchor="middle" x="194.5" y="-7.5" font-family="Helvetica,sans-Serif" font-size="10.00">logconf.h</text>
</a>
</g>
</g>
<!-- Node1&#45;&gt;Node4 -->
<g id="edge3" class="edge">
<title>Node1&#45;&gt;Node4</title>
<path fill="none" stroke="midnightblue" d="M883.64,-64.47C770.16,-62.69 483.82,-54.95 235.36,-19.88"/>
<polygon fill="midnightblue" stroke="midnightblue" points="235.81,-16.41 225.42,-18.46 234.82,-23.34 235.81,-16.41"/>
</g>
<!-- Node5 -->
<g id="node5" class="node">
<title>Node5</title>
<g id="a_node5"><a xlink:href="../../da/d41/error_8h.html" target="_top" xlink:title=" ">
<polygon fill="none" stroke="black" points="243.5,-0.5 243.5,-19.5 291.5,-19.5 291.5,-0.5 243.5,-0.5"/>
<text text-anchor="middle" x="267.5" y="-7.5" font-family="Helvetica,sans-Serif" font-size="10.00">error.h</text>
</a>
</g>
</g>
<!-- Node1&#45;&gt;Node5 -->
<g id="edge4" class="edge">
<title>Node1&#45;&gt;Node5</title>
<path fill="none" stroke="midnightblue" d="M883.86,-64.75C778.18,-63.53 523.16,-56.81 301.4,-19.81"/>
<polygon fill="midnightblue" stroke="midnightblue" points="301.97,-16.35 291.53,-18.14 300.8,-23.26 301.97,-16.35"/>
</g>
<!-- Node6 -->
<g id="node6" class="node">
<title>Node6</title>
<g id="a_node6"><a xlink:href="../../d9/d49/types_8h.html" target="_top" xlink:title=" ">
<polygon fill="none" stroke="black" points="310,-0.5 310,-19.5 363,-19.5 363,-0.5 310,-0.5"/>
<text text-anchor="middle" x="336.5" y="-7.5" font-family="Helvetica,sans-Serif" font-size="10.00">types.h</text>
</a>
</g>
</g>
<!-- Node1&#45;&gt;Node6 -->
<g id="edge5" class="edge">
<title>Node1&#45;&gt;Node6</title>
<path fill="none" stroke="midnightblue" d="M883.91,-63.89C787.23,-61.1 566.73,-51.71 373.22,-20.03"/>
<polygon fill="midnightblue" stroke="midnightblue" points="373.59,-16.54 363.15,-18.36 372.44,-23.45 373.59,-16.54"/>
</g>
<!-- Node7 -->
<g id="node7" class="node">
<title>Node7</title>
<g id="a_node7"><a xlink:href="../../dc/dcf/concord-once_8h.html" target="_top" xlink:title="Initialized once.">
<polygon fill="none" stroke="black" points="381,-0.5 381,-19.5 472,-19.5 472,-0.5 381,-0.5"/>
<text text-anchor="middle" x="426.5" y="-7.5" font-family="Helvetica,sans-Serif" font-size="10.00">concord&#45;once.h</text>
</a>
</g>
</g>
<!-- Node1&#45;&gt;Node7 -->
<g id="edge6" class="edge">
<title>Node1&#45;&gt;Node7</title>
<path fill="none" stroke="midnightblue" d="M883.89,-61.09C802.36,-54.44 634.72,-39.82 482.11,-20"/>
<polygon fill="midnightblue" stroke="midnightblue" points="482.46,-16.51 472.09,-18.69 481.55,-23.45 482.46,-16.51"/>
</g>
<!-- Node8 -->
<g id="node8" class="node">
<title>Node8</title>
<g id="a_node8"><a xlink:title=" ">
<polygon fill="none" stroke="#bfbfbf" points="490.5,-0.5 490.5,-19.5 590.5,-19.5 590.5,-0.5 490.5,-0.5"/>
<text text-anchor="middle" x="540.5" y="-7.5" font-family="Helvetica,sans-Serif" font-size="10.00">discord_codecs.h</text>
</a>
</g>
</g>
<!-- Node1&#45;&gt;Node8 -->
<g id="edge7" class="edge">
<title>Node1&#45;&gt;Node8</title>
<path fill="none" stroke="midnightblue" d="M883.95,-58.6C820.67,-50.36 707.53,-35.43 600.69,-20.15"/>
<polygon fill="midnightblue" stroke="midnightblue" points="601.1,-16.67 590.7,-18.72 600.11,-23.6 601.1,-16.67"/>
</g>
<!-- Node9 -->
<g id="node9" class="node">
<title>Node9</title>
<g id="a_node9"><a xlink:href="../../df/de6/discord-templates_8h.html" target="_top" xlink:title="Macro template for generating type&#45;safe return handles for async requests.">
<polygon fill="none" stroke="black" points="608.5,-0.5 608.5,-19.5 722.5,-19.5 722.5,-0.5 608.5,-0.5"/>
<text text-anchor="middle" x="665.5" y="-7.5" font-family="Helvetica,sans-Serif" font-size="10.00">discord&#45;templates.h</text>
</a>
</g>
</g>
<!-- Node1&#45;&gt;Node9 -->
<g id="edge8" class="edge">
<title>Node1&#45;&gt;Node9</title>
<path fill="none" stroke="midnightblue" d="M891.03,-56.44C844.09,-46.98 768.42,-31.74 717.85,-21.55"/>
<polygon fill="midnightblue" stroke="midnightblue" points="718.26,-18.06 707.77,-19.52 716.88,-24.92 718.26,-18.06"/>
</g>
<!-- Node10 -->
<g id="node10" class="node">
<title>Node10</title>
<g id="a_node10"><a xlink:href="../../d3/d30/include_2audit__log_8h.html" target="_top" xlink:title="Audit Log public functions and datatypes.">
<polygon fill="none" stroke="black" points="741,-0.5 741,-19.5 812,-19.5 812,-0.5 741,-0.5"/>
<text text-anchor="middle" x="776.5" y="-7.5" font-family="Helvetica,sans-Serif" font-size="10.00">audit_log.h</text>
</a>
</g>
</g>
<!-- Node1&#45;&gt;Node10 -->
<g id="edge9" class="edge">
<title>Node1&#45;&gt;Node10</title>
<path fill="none" stroke="midnightblue" d="M908.62,-56.44C882.21,-47.36 840.28,-32.94 810.76,-22.78"/>
<polygon fill="midnightblue" stroke="midnightblue" points="811.86,-19.46 801.26,-19.52 809.58,-26.08 811.86,-19.46"/>
</g>
<!-- Node11 -->
<g id="node11" class="node">
<title>Node11</title>
<g id="a_node11"><a xlink:href="../../de/d7e/include_2invite_8h.html" target="_top" xlink:title="Invite public functions and datatypes.">
<polygon fill="none" stroke="black" points="830,-0.5 830,-19.5 883,-19.5 883,-0.5 830,-0.5"/>
<text text-anchor="middle" x="856.5" y="-7.5" font-family="Helvetica,sans-Serif" font-size="10.00">invite.h</text>
</a>
</g>
</g>
<!-- Node1&#45;&gt;Node11 -->
<g id="edge10" class="edge">
<title>Node1&#45;&gt;Node11</title>
<path fill="none" stroke="midnightblue" d="M921.13,-56.32C909.34,-48.06 891.37,-35.45 877.36,-25.63"/>
<polygon fill="midnightblue" stroke="midnightblue" points="879.04,-22.53 868.84,-19.65 875.02,-28.26 879.04,-22.53"/>
</g>
<!-- Node12 -->
<g id="node12" class="node">
<title>Node12</title>
<g id="a_node12"><a xlink:href="../../dc/df8/include_2channel_8h.html" target="_top" xlink:title="Channel public functions and datatypes.">
<polygon fill="none" stroke="black" points="901.5,-0.5 901.5,-19.5 965.5,-19.5 965.5,-0.5 901.5,-0.5"/>
<text text-anchor="middle" x="933.5" y="-7.5" font-family="Helvetica,sans-Serif" font-size="10.00">channel.h</text>
</a>
</g>
</g>
<!-- Node1&#45;&gt;Node12 -->
<g id="edge11" class="edge">
<title>Node1&#45;&gt;Node12</title>
<path fill="none" stroke="midnightblue" d="M933.5,-56.08C933.5,-49.01 933.5,-38.86 933.5,-29.99"/>
<polygon fill="midnightblue" stroke="midnightblue" points="937,-29.75 933.5,-19.75 930,-29.75 937,-29.75"/>
</g>
<!-- Node13 -->
<g id="node13" class="node">
<title>Node13</title>
<g id="a_node13"><a xlink:href="../../d9/de7/include_2emoji_8h.html" target="_top" xlink:title="Emoji public functions and datatypes.">
<polygon fill="none" stroke="black" points="984,-0.5 984,-19.5 1037,-19.5 1037,-0.5 984,-0.5"/>
<text text-anchor="middle" x="1010.5" y="-7.5" font-family="Helvetica,sans-Serif" font-size="10.00">emoji.h</text>
</a>
</g>
</g>
<!-- Node1&#45;&gt;Node13 -->
<g id="edge12" class="edge">
<title>Node1&#45;&gt;Node13</title>
<path fill="none" stroke="midnightblue" d="M945.87,-56.32C957.66,-48.06 975.63,-35.45 989.64,-25.63"/>
<polygon fill="midnightblue" stroke="midnightblue" points="991.98,-28.26 998.16,-19.65 987.96,-22.53 991.98,-28.26"/>
</g>
<!-- Node14 -->
<g id="node14" class="node">
<title>Node14</title>
<g id="a_node14"><a xlink:href="../../dd/d16/include_2guild_8h.html" target="_top" xlink:title="Guild public functions and datatypes.">
<polygon fill="none" stroke="black" points="1055.5,-0.5 1055.5,-19.5 1105.5,-19.5 1105.5,-0.5 1055.5,-0.5"/>
<text text-anchor="middle" x="1080.5" y="-7.5" font-family="Helvetica,sans-Serif" font-size="10.00">guild.h</text>
</a>
</g>
</g>
<!-- Node1&#45;&gt;Node14 -->
<g id="edge13" class="edge">
<title>Node1&#45;&gt;Node14</title>
<path fill="none" stroke="midnightblue" d="M956.79,-56.44C981.31,-47.44 1020.1,-33.19 1047.7,-23.05"/>
<polygon fill="midnightblue" stroke="midnightblue" points="1049.14,-26.25 1057.32,-19.52 1046.72,-19.68 1049.14,-26.25"/>
</g>
<!-- Node15 -->
<g id="node15" class="node">
<title>Node15</title>
<g id="a_node15"><a xlink:href="../../d2/d27/include_2guild__template_8h.html" target="_top" xlink:title="Guild Template public functions and datatypes.">
<polygon fill="none" stroke="black" points="1124,-0.5 1124,-19.5 1223,-19.5 1223,-0.5 1124,-0.5"/>
<text text-anchor="middle" x="1173.5" y="-7.5" font-family="Helvetica,sans-Serif" font-size="10.00">guild_template.h</text>
</a>
</g>
</g>
<!-- Node1&#45;&gt;Node15 -->
<g id="edge14" class="edge">
<title>Node1&#45;&gt;Node15</title>
<path fill="none" stroke="midnightblue" d="M971.53,-56.44C1013.31,-47.04 1080.48,-31.93 1125.77,-21.74"/>
<polygon fill="midnightblue" stroke="midnightblue" points="1126.66,-25.13 1135.65,-19.52 1125.12,-18.3 1126.66,-25.13"/>
</g>
<!-- Node16 -->
<g id="node16" class="node">
<title>Node16</title>
<g id="a_node16"><a xlink:href="../../df/df5/include_2user_8h.html" target="_top" xlink:title="User public functions and datatypes.">
<polygon fill="none" stroke="black" points="1241.5,-0.5 1241.5,-19.5 1287.5,-19.5 1287.5,-0.5 1241.5,-0.5"/>
<text text-anchor="middle" x="1264.5" y="-7.5" font-family="Helvetica,sans-Serif" font-size="10.00">user.h</text>
</a>
</g>
</g>
<!-- Node1&#45;&gt;Node16 -->
<g id="edge15" class="edge">
<title>Node1&#45;&gt;Node16</title>
<path fill="none" stroke="midnightblue" d="M983.05,-59.46C1040.6,-52.61 1138.53,-39.63 1231.33,-20.03"/>
<polygon fill="midnightblue" stroke="midnightblue" points="1232.12,-23.44 1241.17,-17.93 1230.65,-16.6 1232.12,-23.44"/>
</g>
<!-- Node17 -->
<g id="node17" class="node">
<title>Node17</title>
<g id="a_node17"><a xlink:href="../../dc/dd9/include_2voice_8h.html" target="_top" xlink:title="Voice public functions and datatypes.">
<polygon fill="none" stroke="black" points="1305.5,-0.5 1305.5,-19.5 1357.5,-19.5 1357.5,-0.5 1305.5,-0.5"/>
<text text-anchor="middle" x="1331.5" y="-7.5" font-family="Helvetica,sans-Serif" font-size="10.00">voice.h</text>
</a>
</g>
</g>
<!-- Node1&#45;&gt;Node17 -->
<g id="edge16" class="edge">
<title>Node1&#45;&gt;Node17</title>
<path fill="none" stroke="midnightblue" d="M983.13,-60.88C1051.41,-54.77 1178.27,-41.81 1295.36,-20.01"/>
<polygon fill="midnightblue" stroke="midnightblue" points="1296.03,-23.44 1305.21,-18.15 1294.73,-16.56 1296.03,-23.44"/>
</g>
<!-- Node18 -->
<g id="node18" class="node">
<title>Node18</title>
<g id="a_node18"><a xlink:href="../../d5/d89/include_2webhook_8h.html" target="_top" xlink:title="Webhook public functions and datatypes.">
<polygon fill="none" stroke="black" points="1375.5,-0.5 1375.5,-19.5 1445.5,-19.5 1445.5,-0.5 1375.5,-0.5"/>
<text text-anchor="middle" x="1410.5" y="-7.5" font-family="Helvetica,sans-Serif" font-size="10.00">webhook.h</text>
</a>
</g>
</g>
<!-- Node1&#45;&gt;Node18 -->
<g id="edge17" class="edge">
<title>Node1&#45;&gt;Node18</title>
<path fill="none" stroke="midnightblue" d="M983.05,-61.44C1061.91,-55.43 1220.95,-41.89 1365.55,-20.01"/>
<polygon fill="midnightblue" stroke="midnightblue" points="1366.14,-23.46 1375.49,-18.48 1365.08,-16.54 1366.14,-23.46"/>
</g>
<!-- Node19 -->
<g id="node19" class="node">
<title>Node19</title>
<g id="a_node19"><a xlink:href="../../dd/d7f/include_2gateway_8h.html" target="_top" xlink:title="Gateway public functions and datatypes.">
<polygon fill="none" stroke="black" points="1463.5,-0.5 1463.5,-19.5 1529.5,-19.5 1529.5,-0.5 1463.5,-0.5"/>
<text text-anchor="middle" x="1496.5" y="-7.5" font-family="Helvetica,sans-Serif" font-size="10.00">gateway.h</text>
</a>
</g>
</g>
<!-- Node1&#45;&gt;Node19 -->
<g id="edge18" class="edge">
<title>Node1&#45;&gt;Node19</title>
<path fill="none" stroke="midnightblue" d="M983.31,-62.77C1074.59,-58.24 1274.94,-46.2 1453.02,-20.05"/>
<polygon fill="midnightblue" stroke="midnightblue" points="1453.72,-23.48 1463.1,-18.55 1452.69,-16.56 1453.72,-23.48"/>
</g>
<!-- Node20 -->
<g id="node20" class="node">
<title>Node20</title>
<g id="a_node20"><a xlink:href="../../d3/d1c/application__command_8h.html" target="_top" xlink:title="Application Command public functions and datatypes.">
<polygon fill="none" stroke="black" points="1547.5,-0.5 1547.5,-19.5 1681.5,-19.5 1681.5,-0.5 1547.5,-0.5"/>
<text text-anchor="middle" x="1614.5" y="-7.5" font-family="Helvetica,sans-Serif" font-size="10.00">application_command.h</text>
</a>
</g>
</g>
<!-- Node1&#45;&gt;Node20 -->
<g id="edge19" class="edge">
<title>Node1&#45;&gt;Node20</title>
<path fill="none" stroke="midnightblue" d="M983.36,-62.03C1085.29,-55.8 1325.11,-40.32 1537.3,-20.08"/>
<polygon fill="midnightblue" stroke="midnightblue" points="1537.76,-23.55 1547.38,-19.11 1537.09,-16.58 1537.76,-23.55"/>
</g>
<!-- Node21 -->
<g id="node21" class="node">
<title>Node21</title>
<g id="a_node21"><a xlink:href="../../da/d85/interaction_8h.html" target="_top" xlink:title="Interaciton public functions and datatypes.">
<polygon fill="none" stroke="black" points="1699.5,-0.5 1699.5,-19.5 1777.5,-19.5 1777.5,-0.5 1699.5,-0.5"/>
<text text-anchor="middle" x="1738.5" y="-7.5" font-family="Helvetica,sans-Serif" font-size="10.00">interaction.h</text>
</a>
</g>
</g>
<!-- Node1&#45;&gt;Node21 -->
<g id="edge20" class="edge">
<title>Node1&#45;&gt;Node21</title>
<path fill="none" stroke="midnightblue" d="M983.3,-64.21C1103.18,-61.83 1417.44,-52.84 1689.21,-20"/>
<polygon fill="midnightblue" stroke="midnightblue" points="1689.77,-23.46 1699.27,-18.77 1688.92,-16.51 1689.77,-23.46"/>
</g>
<!-- Node22 -->
<g id="node22" class="node">
<title>Node22</title>
<g id="a_node22"><a xlink:href="../../da/d3a/discord-events_8h.html" target="_top" xlink:title="Listen and react to Discord events.">
<polygon fill="none" stroke="black" points="1795.5,-0.5 1795.5,-19.5 1893.5,-19.5 1893.5,-0.5 1795.5,-0.5"/>
<text text-anchor="middle" x="1844.5" y="-7.5" font-family="Helvetica,sans-Serif" font-size="10.00">discord&#45;events.h</text>
</a>
</g>
</g>
<!-- Node1&#45;&gt;Node22 -->
<g id="edge21" class="edge">
<title>Node1&#45;&gt;Node22</title>
<path fill="none" stroke="midnightblue" d="M983.15,-64.14C1113.17,-61.5 1474.4,-51.76 1785.38,-20"/>
<polygon fill="midnightblue" stroke="midnightblue" points="1785.91,-23.47 1795.5,-18.96 1785.19,-16.5 1785.91,-23.47"/>
</g>
</g>
</svg>
