<?xml version="1.0" encoding="UTF-8" standalone="no"?>
<!DOCTYPE svg PUBLIC "-//W3C//DTD SVG 1.1//EN"
 "http://www.w3.org/Graphics/SVG/1.1/DTD/svg11.dtd">
<!-- Generated by graphviz version 2.43.0 (0)
 -->
<!-- Title: include/discord.h Pages: 1 -->
<svg width="1900pt" height="84pt"
 viewBox="0.00 0.00 1899.50 84.00" xmlns="http://www.w3.org/2000/svg" xmlns:xlink="http://www.w3.org/1999/xlink">
<g id="graph0" class="graph" transform="scale(1 1) rotate(0) translate(4 80)">
<title>include/discord.h</title>
<!-- Node1 -->
<g id="node1" class="node">
<title>Node1</title>
<g id="a_node1"><a xlink:title="Public functions and datatypes.">
<polygon fill="#bfbfbf" stroke="black" points="882,-56.5 882,-75.5 981,-75.5 981,-56.5 882,-56.5"/>
<text text-anchor="middle" x="931.5" y="-63.5" font-family="Helvetica,sans-Serif" font-size="10.00">include/discord.h</text>
</a>
</g>
</g>
<!-- Node2 -->
<g id="node2" class="node">
<title>Node2</title>
<g id="a_node2"><a xlink:title=" ">
<polygon fill="none" stroke="#bfbfbf" points="0,-0.5 0,-19.5 65,-19.5 65,-0.5 0,-0.5"/>
<text text-anchor="middle" x="32.5" y="-7.5" font-family="Helvetica,sans-Serif" font-size="10.00">inttypes.h</text>
</a>
</g>
</g>
<!-- Node1&#45;&gt;Node2 -->
<g id="edge1" class="edge">
<title>Node1&#45;&gt;Node2</title>
<path fill="none" stroke="midnightblue" d="M881.98,-65.14C751.49,-64.92 387.43,-60.52 75.57,-19.91"/>
<polygon fill="midnightblue" stroke="midnightblue" points="75.8,-16.41 65.43,-18.57 74.89,-23.35 75.8,-16.41"/>
</g>
<!-- Node3 -->
<g id="node3" class="node">
<title>Node3</title>
<g id="a_node3"><a xlink:title=" ">
<polygon fill="none" stroke="#bfbfbf" points="83.5,-0.5 83.5,-19.5 145.5,-19.5 145.5,-0.5 83.5,-0.5"/>
<text text-anchor="middle" x="114.5" y="-7.5" font-family="Helvetica,sans-Serif" font-size="10.00">stdbool.h</text>
</a>
</g>
</g>
<!-- Node1&#45;&gt;Node3 -->
<g id="edge2" class="edge">
<title>Node1&#45;&gt;Node3</title>
<path fill="none" stroke="midnightblue" d="M881.68,-64.93C759.43,-64.15 434.86,-58.44 155.76,-19.95"/>
<polygon fill="midnightblue" stroke="midnightblue" points="156.24,-16.48 145.85,-18.56 155.27,-23.41 156.24,-16.48"/>
</g>
<!-- Node4 -->
<g id="node4" class="node">
<title>Node4</title>
<g id="a_node4"><a xlink:title=" ">
<polygon fill="none" stroke="#bfbfbf" points="164,-0.5 164,-19.5 225,-19.5 225,-0.5 164,-0.5"/>
<text text-anchor="middle" x="194.5" y="-7.5" font-family="Helvetica,sans-Serif" font-size="10.00">logconf.h</text>
</a>
</g>
</g>
<!-- Node1&#45;&gt;Node4 -->
<g id="edge3" class="edge">
<title>Node1&#45;&gt;Node4</title>
<path fill="none" stroke="midnightblue" d="M881.79,-64.46C768.63,-62.66 483.11,-54.88 235.33,-19.88"/>
<polygon fill="midnightblue" stroke="midnightblue" points="235.81,-16.41 225.42,-18.46 234.82,-23.34 235.81,-16.41"/>
</g>
<!-- Node5 -->
<g id="node5" class="node">
<title>Node5</title>
<g id="a_node5"><a xlink:href="../../da/d41/error_8h.html" target="_top" xlink:title=" ">
<polygon fill="none" stroke="black" points="243.5,-0.5 243.5,-19.5 291.5,-19.5 291.5,-0.5 243.5,-0.5"/>
<text text-anchor="middle" x="267.5" y="-7.5" font-family="Helvetica,sans-Serif" font-size="10.00">error.h</text>
</a>
</g>
</g>
<!-- Node1&#45;&gt;Node5 -->
<g id="edge4" class="edge">
<title>Node1&#45;&gt;Node5</title>
<path fill="none" stroke="midnightblue" d="M881.61,-64.74C776.07,-63.47 522.43,-56.68 301.68,-19.85"/>
<polygon fill="midnightblue" stroke="midnightblue" points="301.97,-16.35 291.53,-18.14 300.8,-23.26 301.97,-16.35"/>
</g>
<!-- Node6 -->
<g id="node6" class="node">
<title>Node6</title>
<g id="a_node6"><a xlink:href="../../d9/d49/types_8h.html" target="_top" xlink:title=" ">
<polygon fill="none" stroke="black" points="310,-0.5 310,-19.5 363,-19.5 363,-0.5 310,-0.5"/>
<text text-anchor="middle" x="336.5" y="-7.5" font-family="Helvetica,sans-Serif" font-size="10.00">types.h</text>
</a>
</g>
</g>
<!-- Node1&#45;&gt;Node6 -->
<g id="edge5" class="edge">
<title>Node1&#45;&gt;Node6</title>
<path fill="none" stroke="midnightblue" d="M881.71,-63.86C785.17,-61.03 565.79,-51.59 373.17,-20.02"/>
<polygon fill="midnightblue" stroke="midnightblue" points="373.59,-16.54 363.15,-18.36 372.44,-23.45 373.59,-16.54"/>
</g>
<!-- Node7 -->
<g id="node7" class="node">
<title>Node7</title>
<g id="a_node7"><a xlink:href="../../dc/dcf/concord-once_8h.html" target="_top" xlink:title="Initialized once.">
<polygon fill="none" stroke="black" points="381,-0.5 381,-19.5 472,-19.5 472,-0.5 381,-0.5"/>
<text text-anchor="middle" x="426.5" y="-7.5" font-family="Helvetica,sans-Serif" font-size="10.00">concord&#45;once.h</text>
</a>
</g>
</g>
<!-- Node1&#45;&gt;Node7 -->
<g id="edge6" class="edge">
<title>Node1&#45;&gt;Node7</title>
<path fill="none" stroke="midnightblue" d="M881.77,-61.05C800.48,-54.37 633.84,-39.74 482.06,-19.99"/>
<polygon fill="midnightblue" stroke="midnightblue" points="482.46,-16.51 472.09,-18.68 481.55,-23.46 482.46,-16.51"/>
</g>
<!-- Node8 -->
<g id="node8" class="node">
<title>Node8</title>
<g id="a_node8"><a xlink:title=" ">
<polygon fill="none" stroke="#bfbfbf" points="490.5,-0.5 490.5,-19.5 588.5,-19.5 588.5,-0.5 490.5,-0.5"/>
<text text-anchor="middle" x="539.5" y="-7.5" font-family="Helvetica,sans-Serif" font-size="10.00">discord&#45;codecs.h</text>
</a>
</g>
</g>
<!-- Node1&#45;&gt;Node8 -->
<g id="edge7" class="edge">
<title>Node1&#45;&gt;Node8</title>
<path fill="none" stroke="midnightblue" d="M881.94,-58.64C818.66,-50.44 705.51,-35.56 598.54,-20.13"/>
<polygon fill="midnightblue" stroke="midnightblue" points="598.94,-16.65 588.54,-18.68 597.93,-23.58 598.94,-16.65"/>
</g>
<!-- Node9 -->
<g id="node9" class="node">
<title>Node9</title>
<g id="a_node9"><a xlink:href="../../df/de6/discord-templates_8h.html" target="_top" xlink:title="Macro template for generating type&#45;safe return handles for async requests.">
<polygon fill="none" stroke="black" points="606.5,-0.5 606.5,-19.5 720.5,-19.5 720.5,-0.5 606.5,-0.5"/>
<text text-anchor="middle" x="663.5" y="-7.5" font-family="Helvetica,sans-Serif" font-size="10.00">discord&#45;templates.h</text>
</a>
</g>
</g>
<!-- Node1&#45;&gt;Node9 -->
<g id="edge8" class="edge">
<title>Node1&#45;&gt;Node9</title>
<path fill="none" stroke="midnightblue" d="M889.03,-56.44C842.09,-46.98 766.42,-31.74 715.85,-21.55"/>
<polygon fill="midnightblue" stroke="midnightblue" points="716.26,-18.06 705.77,-19.52 714.88,-24.92 716.26,-18.06"/>
</g>
<!-- Node10 -->
<g id="node10" class="node">
<title>Node10</title>
<g id="a_node10"><a xlink:href="../../d3/d30/include_2audit__log_8h.html" target="_top" xlink:title="Audit Log public functions and datatypes.">
<polygon fill="none" stroke="black" points="739,-0.5 739,-19.5 810,-19.5 810,-0.5 739,-0.5"/>
<text text-anchor="middle" x="774.5" y="-7.5" font-family="Helvetica,sans-Serif" font-size="10.00">audit_log.h</text>
</a>
</g>
</g>
<!-- Node1&#45;&gt;Node10 -->
<g id="edge9" class="edge">
<title>Node1&#45;&gt;Node10</title>
<path fill="none" stroke="midnightblue" d="M906.62,-56.44C880.21,-47.36 838.28,-32.94 808.76,-22.78"/>
<polygon fill="midnightblue" stroke="midnightblue" points="809.86,-19.46 799.26,-19.52 807.58,-26.08 809.86,-19.46"/>
</g>
<!-- Node11 -->
<g id="node11" class="node">
<title>Node11</title>
<g id="a_node11"><a xlink:href="../../de/d7e/include_2invite_8h.html" target="_top" xlink:title="Invite public functions and datatypes.">
<polygon fill="none" stroke="black" points="828,-0.5 828,-19.5 881,-19.5 881,-0.5 828,-0.5"/>
<text text-anchor="middle" x="854.5" y="-7.5" font-family="Helvetica,sans-Serif" font-size="10.00">invite.h</text>
</a>
</g>
</g>
<!-- Node1&#45;&gt;Node11 -->
<g id="edge10" class="edge">
<title>Node1&#45;&gt;Node11</title>
<path fill="none" stroke="midnightblue" d="M919.13,-56.32C907.34,-48.06 889.37,-35.45 875.36,-25.63"/>
<polygon fill="midnightblue" stroke="midnightblue" points="877.04,-22.53 866.84,-19.65 873.02,-28.26 877.04,-22.53"/>
</g>
<!-- Node12 -->
<g id="node12" class="node">
<title>Node12</title>
<g id="a_node12"><a xlink:href="../../dc/df8/include_2channel_8h.html" target="_top" xlink:title="Channel public functions and datatypes.">
<polygon fill="none" stroke="black" points="899.5,-0.5 899.5,-19.5 963.5,-19.5 963.5,-0.5 899.5,-0.5"/>
<text text-anchor="middle" x="931.5" y="-7.5" font-family="Helvetica,sans-Serif" font-size="10.00">channel.h</text>
</a>
</g>
</g>
<!-- Node1&#45;&gt;Node12 -->
<g id="edge11" class="edge">
<title>Node1&#45;&gt;Node12</title>
<path fill="none" stroke="midnightblue" d="M931.5,-56.08C931.5,-49.01 931.5,-38.86 931.5,-29.99"/>
<polygon fill="midnightblue" stroke="midnightblue" points="935,-29.75 931.5,-19.75 928,-29.75 935,-29.75"/>
</g>
<!-- Node13 -->
<g id="node13" class="node">
<title>Node13</title>
<g id="a_node13"><a xlink:href="../../d9/de7/include_2emoji_8h.html" target="_top" xlink:title="Emoji public functions and datatypes.">
<polygon fill="none" stroke="black" points="982,-0.5 982,-19.5 1035,-19.5 1035,-0.5 982,-0.5"/>
<text text-anchor="middle" x="1008.5" y="-7.5" font-family="Helvetica,sans-Serif" font-size="10.00">emoji.h</text>
</a>
</g>
</g>
<!-- Node1&#45;&gt;Node13 -->
<g id="edge12" class="edge">
<title>Node1&#45;&gt;Node13</title>
<path fill="none" stroke="midnightblue" d="M943.87,-56.32C955.66,-48.06 973.63,-35.45 987.64,-25.63"/>
<polygon fill="midnightblue" stroke="midnightblue" points="989.98,-28.26 996.16,-19.65 985.96,-22.53 989.98,-28.26"/>
</g>
<!-- Node14 -->
<g id="node14" class="node">
<title>Node14</title>
<g id="a_node14"><a xlink:href="../../dd/d16/include_2guild_8h.html" target="_top" xlink:title="Guild public functions and datatypes.">
<polygon fill="none" stroke="black" points="1053.5,-0.5 1053.5,-19.5 1103.5,-19.5 1103.5,-0.5 1053.5,-0.5"/>
<text text-anchor="middle" x="1078.5" y="-7.5" font-family="Helvetica,sans-Serif" font-size="10.00">guild.h</text>
</a>
</g>
</g>
<!-- Node1&#45;&gt;Node14 -->
<g id="edge13" class="edge">
<title>Node1&#45;&gt;Node14</title>
<path fill="none" stroke="midnightblue" d="M954.79,-56.44C979.31,-47.44 1018.1,-33.19 1045.7,-23.05"/>
<polygon fill="midnightblue" stroke="midnightblue" points="1047.14,-26.25 1055.32,-19.52 1044.72,-19.68 1047.14,-26.25"/>
</g>
<!-- Node15 -->
<g id="node15" class="node">
<title>Node15</title>
<g id="a_node15"><a xlink:href="../../d2/d27/include_2guild__template_8h.html" target="_top" xlink:title="Guild Template public functions and datatypes.">
<polygon fill="none" stroke="black" points="1122,-0.5 1122,-19.5 1221,-19.5 1221,-0.5 1122,-0.5"/>
<text text-anchor="middle" x="1171.5" y="-7.5" font-family="Helvetica,sans-Serif" font-size="10.00">guild_template.h</text>
</a>
</g>
</g>
<!-- Node1&#45;&gt;Node15 -->
<g id="edge14" class="edge">
<title>Node1&#45;&gt;Node15</title>
<path fill="none" stroke="midnightblue" d="M969.53,-56.44C1011.31,-47.04 1078.48,-31.93 1123.77,-21.74"/>
<polygon fill="midnightblue" stroke="midnightblue" points="1124.66,-25.13 1133.65,-19.52 1123.12,-18.3 1124.66,-25.13"/>
</g>
<!-- Node16 -->
<g id="node16" class="node">
<title>Node16</title>
<g id="a_node16"><a xlink:href="../../df/df5/include_2user_8h.html" target="_top" xlink:title="User public functions and datatypes.">
<polygon fill="none" stroke="black" points="1239.5,-0.5 1239.5,-19.5 1285.5,-19.5 1285.5,-0.5 1239.5,-0.5"/>
<text text-anchor="middle" x="1262.5" y="-7.5" font-family="Helvetica,sans-Serif" font-size="10.00">user.h</text>
</a>
</g>
</g>
<!-- Node1&#45;&gt;Node16 -->
<g id="edge15" class="edge">
<title>Node1&#45;&gt;Node16</title>
<path fill="none" stroke="midnightblue" d="M981.05,-59.46C1038.6,-52.61 1136.53,-39.63 1229.33,-20.03"/>
<polygon fill="midnightblue" stroke="midnightblue" points="1230.12,-23.44 1239.17,-17.93 1228.65,-16.6 1230.12,-23.44"/>
</g>
<!-- Node17 -->
<g id="node17" class="node">
<title>Node17</title>
<g id="a_node17"><a xlink:href="../../dc/dd9/include_2voice_8h.html" target="_top" xlink:title="Voice public functions and datatypes.">
<polygon fill="none" stroke="black" points="1303.5,-0.5 1303.5,-19.5 1355.5,-19.5 1355.5,-0.5 1303.5,-0.5"/>
<text text-anchor="middle" x="1329.5" y="-7.5" font-family="Helvetica,sans-Serif" font-size="10.00">voice.h</text>
</a>
</g>
</g>
<!-- Node1&#45;&gt;Node17 -->
<g id="edge16" class="edge">
<title>Node1&#45;&gt;Node17</title>
<path fill="none" stroke="midnightblue" d="M981.13,-60.88C1049.41,-54.77 1176.27,-41.81 1293.36,-20.01"/>
<polygon fill="midnightblue" stroke="midnightblue" points="1294.03,-23.44 1303.21,-18.15 1292.73,-16.56 1294.03,-23.44"/>
</g>
<!-- Node18 -->
<g id="node18" class="node">
<title>Node18</title>
<g id="a_node18"><a xlink:href="../../d5/d89/include_2webhook_8h.html" target="_top" xlink:title="Webhook public functions and datatypes.">
<polygon fill="none" stroke="black" points="1373.5,-0.5 1373.5,-19.5 1443.5,-19.5 1443.5,-0.5 1373.5,-0.5"/>
<text text-anchor="middle" x="1408.5" y="-7.5" font-family="Helvetica,sans-Serif" font-size="10.00">webhook.h</text>
</a>
</g>
</g>
<!-- Node1&#45;&gt;Node18 -->
<g id="edge17" class="edge">
<title>Node1&#45;&gt;Node18</title>
<path fill="none" stroke="midnightblue" d="M981.05,-61.44C1059.91,-55.43 1218.95,-41.89 1363.55,-20.01"/>
<polygon fill="midnightblue" stroke="midnightblue" points="1364.14,-23.46 1373.49,-18.48 1363.08,-16.54 1364.14,-23.46"/>
</g>
<!-- Node19 -->
<g id="node19" class="node">
<title>Node19</title>
<g id="a_node19"><a xlink:href="../../dd/d7f/include_2gateway_8h.html" target="_top" xlink:title="Gateway public functions and datatypes.">
<polygon fill="none" stroke="black" points="1461.5,-0.5 1461.5,-19.5 1527.5,-19.5 1527.5,-0.5 1461.5,-0.5"/>
<text text-anchor="middle" x="1494.5" y="-7.5" font-family="Helvetica,sans-Serif" font-size="10.00">gateway.h</text>
</a>
</g>
</g>
<!-- Node1&#45;&gt;Node19 -->
<g id="edge18" class="edge">
<title>Node1&#45;&gt;Node19</title>
<path fill="none" stroke="midnightblue" d="M981.31,-62.77C1072.59,-58.24 1272.94,-46.2 1451.02,-20.05"/>
<polygon fill="midnightblue" stroke="midnightblue" points="1451.72,-23.48 1461.1,-18.55 1450.69,-16.56 1451.72,-23.48"/>
</g>
<!-- Node20 -->
<g id="node20" class="node">
<title>Node20</title>
<g id="a_node20"><a xlink:href="../../d3/d1c/application__command_8h.html" target="_top" xlink:title="Application Command public functions and datatypes.">
<polygon fill="none" stroke="black" points="1545.5,-0.5 1545.5,-19.5 1679.5,-19.5 1679.5,-0.5 1545.5,-0.5"/>
<text text-anchor="middle" x="1612.5" y="-7.5" font-family="Helvetica,sans-Serif" font-size="10.00">application_command.h</text>
</a>
</g>
</g>
<!-- Node1&#45;&gt;Node20 -->
<g id="edge19" class="edge">
<title>Node1&#45;&gt;Node20</title>
<path fill="none" stroke="midnightblue" d="M981.36,-62.03C1083.29,-55.8 1323.11,-40.32 1535.3,-20.08"/>
<polygon fill="midnightblue" stroke="midnightblue" points="1535.76,-23.55 1545.38,-19.11 1535.09,-16.58 1535.76,-23.55"/>
</g>
<!-- Node21 -->
<g id="node21" class="node">
<title>Node21</title>
<g id="a_node21"><a xlink:href="../../da/d85/interaction_8h.html" target="_top" xlink:title="Interaciton public functions and datatypes.">
<polygon fill="none" stroke="black" points="1697.5,-0.5 1697.5,-19.5 1775.5,-19.5 1775.5,-0.5 1697.5,-0.5"/>
<text text-anchor="middle" x="1736.5" y="-7.5" font-family="Helvetica,sans-Serif" font-size="10.00">interaction.h</text>
</a>
</g>
</g>
<!-- Node1&#45;&gt;Node21 -->
<g id="edge20" class="edge">
<title>Node1&#45;&gt;Node21</title>
<path fill="none" stroke="midnightblue" d="M981.3,-64.21C1101.18,-61.83 1415.44,-52.84 1687.21,-20"/>
<polygon fill="midnightblue" stroke="midnightblue" points="1687.77,-23.46 1697.27,-18.77 1686.92,-16.51 1687.77,-23.46"/>
</g>
<!-- Node22 -->
<g id="node22" class="node">
<title>Node22</title>
<g id="a_node22"><a xlink:href="../../da/d3a/discord-events_8h.html" target="_top" xlink:title="Listen and react to Discord events.">
<polygon fill="none" stroke="black" points="1793.5,-0.5 1793.5,-19.5 1891.5,-19.5 1891.5,-0.5 1793.5,-0.5"/>
<text text-anchor="middle" x="1842.5" y="-7.5" font-family="Helvetica,sans-Serif" font-size="10.00">discord&#45;events.h</text>
</a>
</g>
</g>
<!-- Node1&#45;&gt;Node22 -->
<g id="edge21" class="edge">
<title>Node1&#45;&gt;Node22</title>
<path fill="none" stroke="midnightblue" d="M981.15,-64.14C1111.17,-61.5 1472.4,-51.76 1783.38,-20"/>
<polygon fill="midnightblue" stroke="midnightblue" points="1783.91,-23.47 1793.5,-18.96 1783.19,-16.5 1783.91,-23.47"/>
</g>
</g>
</svg>
