<?xml version="1.0" encoding="UTF-8" standalone="no"?>
<!DOCTYPE svg PUBLIC "-//W3C//DTD SVG 1.1//EN"
 "http://www.w3.org/Graphics/SVG/1.1/DTD/svg11.dtd">
<!-- Generated by graphviz version 2.43.0 (0)
 -->
<!-- Title: discord_application_command_options Pages: 1 -->
<svg width="120pt" height="117pt"
 viewBox="0.00 0.00 120.00 117.00" xmlns="http://www.w3.org/2000/svg" xmlns:xlink="http://www.w3.org/1999/xlink">
<g id="graph0" class="graph" transform="scale(1 1) rotate(0) translate(4 113)">
<title>discord_application_command_options</title>
<!-- Node1 -->
<g id="node1" class="node">
<title>Node1</title>
<g id="a_node1"><a xlink:title=" ">
<polygon fill="#bfbfbf" stroke="black" points="0,-78.5 0,-108.5 112,-108.5 112,-78.5 0,-78.5"/>
<text text-anchor="start" x="8" y="-96.5" font-family="Helvetica,sans-Serif" font-size="10.00">discord_application</text>
<text text-anchor="middle" x="56" y="-85.5" font-family="Helvetica,sans-Serif" font-size="10.00">_command_options</text>
</a>
</g>
</g>
<!-- Node2 -->
<g id="node2" class="node">
<title>Node2</title>
<g id="a_node2"><a xlink:href="../../dd/d82/structdiscord__application__command__option.html" target="_top" xlink:title=" ">
<polygon fill="none" stroke="orangered" points="0.5,-0.5 0.5,-30.5 111.5,-30.5 111.5,-0.5 0.5,-0.5"/>
<text text-anchor="start" x="8.5" y="-18.5" font-family="Helvetica,sans-Serif" font-size="10.00">discord_application</text>
<text text-anchor="middle" x="56" y="-7.5" font-family="Helvetica,sans-Serif" font-size="10.00">_command_option</text>
</a>
</g>
</g>
<!-- Node1&#45;&gt;Node2 -->
<g id="edge2" class="edge">
<title>Node1&#45;&gt;Node2</title>
<path fill="none" stroke="#9a32cd" stroke-dasharray="5,2" d="M28.96,-71.09C26.14,-67.69 23.7,-63.97 22,-60 17.33,-49.07 25.16,-38.52 34.48,-30.55"/>
<polygon fill="#9a32cd" stroke="#9a32cd" points="26.55,-73.63 36.01,-78.41 31.59,-68.78 26.55,-73.63"/>
<text text-anchor="middle" x="42" y="-52" font-family="Helvetica,sans-Serif" font-size="10.00"> options</text>
</g>
<!-- Node2&#45;&gt;Node1 -->
<g id="edge1" class="edge">
<title>Node2&#45;&gt;Node1</title>
<path fill="none" stroke="#9a32cd" stroke-dasharray="5,2" d="M64.17,-40.15C64.92,-43.1 65.56,-46.1 66,-49 67.5,-58.96 64.9,-70.02 61.97,-78.5"/>
<polygon fill="#9a32cd" stroke="#9a32cd" points="67.51,-39.12 61.32,-30.52 60.8,-41.11 67.51,-39.12"/>
<text text-anchor="middle" x="80.5" y="-52" font-family="Helvetica,sans-Serif" font-size="10.00"> array</text>
</g>
</g>
</svg>
