<?xml version="1.0" encoding="UTF-8" standalone="no"?>
<!DOCTYPE svg PUBLIC "-//W3C//DTD SVG 1.1//EN"
 "http://www.w3.org/Graphics/SVG/1.1/DTD/svg11.dtd">
<!-- Generated by graphviz version 2.43.0 (0)
 -->
<!-- Title: discord_gateway_cmd_cbs Pages: 1 -->
<svg width="169pt" height="108pt"
 viewBox="0.00 0.00 168.50 108.00" xmlns="http://www.w3.org/2000/svg" xmlns:xlink="http://www.w3.org/1999/xlink">
<g id="graph0" class="graph" transform="scale(1 1) rotate(0) translate(4 104)">
<title>discord_gateway_cmd_cbs</title>
<!-- Node1 -->
<g id="node1" class="node">
<title>Node1</title>
<g id="a_node1"><a xlink:title=" ">
<polygon fill="#bfbfbf" stroke="black" points="0,-0.5 0,-19.5 147,-19.5 147,-0.5 0,-0.5"/>
<text text-anchor="middle" x="73.5" y="-7.5" font-family="Helvetica,sans-Serif" font-size="10.00">discord_gateway_cmd_cbs</text>
</a>
</g>
</g>
<!-- Node2 -->
<g id="node2" class="node">
<title>Node2</title>
<g id="a_node2"><a xlink:href="../../d5/daf/structdiscord.html" target="_top" xlink:title="The Discord client handler.">
<polygon fill="none" stroke="red" points="47.5,-74 47.5,-93 99.5,-93 99.5,-74 47.5,-74"/>
<text text-anchor="middle" x="73.5" y="-81" font-family="Helvetica,sans-Serif" font-size="10.00">discord</text>
</a>
</g>
</g>
<!-- Node2&#45;&gt;Node1 -->
<g id="edge1" class="edge">
<title>Node2&#45;&gt;Node1</title>
<path fill="none" stroke="#9a32cd" stroke-dasharray="5,2" d="M73.5,-63.59C73.5,-49.43 73.5,-30.7 73.5,-19.84"/>
<polygon fill="#9a32cd" stroke="#9a32cd" points="70,-63.73 73.5,-73.73 77,-63.73 70,-63.73"/>
<text text-anchor="middle" x="81" y="-41" font-family="Helvetica,sans-Serif" font-size="10.00"> cb</text>
</g>
<!-- Node2&#45;&gt;Node2 -->
<g id="edge2" class="edge">
<title>Node2&#45;&gt;Node2</title>
<path fill="none" stroke="#9a32cd" stroke-dasharray="5,2" d="M109.97,-90.02C114.52,-88.86 117.5,-86.69 117.5,-83.5 117.5,-78.27 109.46,-75.77 99.7,-76.02"/>
<polygon fill="#9a32cd" stroke="#9a32cd" points="109.33,-86.56 99.7,-90.98 109.98,-93.53 109.33,-86.56"/>
<text text-anchor="middle" x="139" y="-92" font-family="Helvetica,sans-Serif" font-size="10.00"> cb</text>
<text text-anchor="middle" x="139" y="-81" font-family="Helvetica,sans-Serif" font-size="10.00">on_cycle</text>
<text text-anchor="middle" x="139" y="-70" font-family="Helvetica,sans-Serif" font-size="10.00">on_idle</text>
</g>
</g>
</svg>
