<?xml version="1.0" encoding="UTF-8" standalone="no"?>
<!DOCTYPE svg PUBLIC "-//W3C//DTD SVG 1.1//EN"
 "http://www.w3.org/Graphics/SVG/1.1/DTD/svg11.dtd">
<!-- Generated by graphviz version 2.43.0 (0)
 -->
<!-- Title: Internal implementation details Pages: 1 -->
<svg width="309pt" height="101pt"
 viewBox="0.00 0.00 309.00 101.00" xmlns="http://www.w3.org/2000/svg" xmlns:xlink="http://www.w3.org/1999/xlink">
<g id="graph0" class="graph" transform="scale(1 1) rotate(0) translate(4 97)">
<title>Internal implementation details</title>
<!-- Node4 -->
<g id="node1" class="node">
<title>Node4</title>
<g id="a_node1"><a xlink:href="../../d2/de5/group__Discord.html" target="_top" xlink:title="Functions and datatypes for the client.">
<polygon fill="none" stroke="black" points="276.5,-93 231.5,-93 231.5,-74 276.5,-74 276.5,-93"/>
<text text-anchor="middle" x="254" y="-81" font-family="Helvetica,sans-Serif" font-size="10.00">Client</text>
</a>
</g>
</g>
<!-- Node1 -->
<g id="node2" class="node">
<title>Node1</title>
<g id="a_node2"><a xlink:title="Documentation useful when developing or debugging Concord itself.">
<polygon fill="#bfbfbf" stroke="black" points="135,-61.5 0,-61.5 0,-31.5 135,-31.5 135,-61.5"/>
<text text-anchor="start" x="8" y="-49.5" font-family="Helvetica,sans-Serif" font-size="10.00">Internal implementation</text>
<text text-anchor="middle" x="67.5" y="-38.5" font-family="Helvetica,sans-Serif" font-size="10.00"> details</text>
</a>
</g>
</g>
<!-- Node1&#45;&gt;Node4 -->
<g id="edge3" class="edge">
<title>Node1&#45;&gt;Node4</title>
<path fill="none" stroke="orange" stroke-dasharray="5,2" d="M135.11,-59.86C168.96,-66.65 207.83,-74.44 231.38,-79.17"/>
<text text-anchor="middle" x="171" y="-72.5" font-family="Helvetica,sans-Serif" font-size="10.00">discord</text>
</g>
<!-- Node2 -->
<g id="node3" class="node">
<title>Node2</title>
<g id="a_node3"><a xlink:href="../../d2/deb/group__DiscordInternalAdapter.html" target="_top" xlink:title="Wrapper to the Discord REST API.">
<polygon fill="none" stroke="black" points="284,-56 224,-56 224,-37 284,-37 284,-56"/>
<text text-anchor="middle" x="254" y="-44" font-family="Helvetica,sans-Serif" font-size="10.00">REST API</text>
</a>
</g>
</g>
<!-- Node1&#45;&gt;Node2 -->
<g id="edge1" class="edge">
<title>Node1&#45;&gt;Node2</title>
<path fill="none" stroke="black" d="M145.19,-46.5C172.85,-46.5 202.42,-46.5 223.59,-46.5"/>
<polygon fill="black" stroke="black" points="145.11,-43 135.11,-46.5 145.11,-50 145.11,-43"/>
</g>
<!-- Node3 -->
<g id="node4" class="node">
<title>Node3</title>
<g id="a_node4"><a xlink:href="../../d4/df3/group__DiscordInternalGateway.html" target="_top" xlink:title="Wrapper to the Discord Gateway API.">
<polygon fill="none" stroke="black" points="301,-19 207,-19 207,0 301,0 301,-19"/>
<text text-anchor="middle" x="254" y="-7" font-family="Helvetica,sans-Serif" font-size="10.00">WebSockets API</text>
</a>
</g>
</g>
<!-- Node1&#45;&gt;Node3 -->
<g id="edge2" class="edge">
<title>Node1&#45;&gt;Node3</title>
<path fill="none" stroke="black" d="M145.01,-31.16C166.06,-26.93 188.25,-22.49 206.99,-18.73"/>
<polygon fill="black" stroke="black" points="144.23,-27.74 135.11,-33.14 145.6,-34.61 144.23,-27.74"/>
</g>
</g>
</svg>
