<?xml version="1.0" encoding="UTF-8" standalone="no"?>
<!DOCTYPE svg PUBLIC "-//W3C//DTD SVG 1.1//EN"
 "http://www.w3.org/Graphics/SVG/1.1/DTD/svg11.dtd">
<!-- Generated by graphviz version 2.43.0 (0)
 -->
<!-- Title: discord_allowed_mention Pages: 1 -->
<svg width="154pt" height="106pt"
 viewBox="0.00 0.00 154.00 106.00" xmlns="http://www.w3.org/2000/svg" xmlns:xlink="http://www.w3.org/1999/xlink">
<g id="graph0" class="graph" transform="scale(1 1) rotate(0) translate(4 102)">
<title>discord_allowed_mention</title>
<!-- Node1 -->
<g id="node1" class="node">
<title>Node1</title>
<g id="a_node1"><a xlink:title=" ">
<polygon fill="#bfbfbf" stroke="black" points="0,-0.5 0,-19.5 141,-19.5 141,-0.5 0,-0.5"/>
<text text-anchor="middle" x="70.5" y="-7.5" font-family="Helvetica,sans-Serif" font-size="10.00">discord_allowed_mention</text>
</a>
</g>
</g>
<!-- Node2 -->
<g id="node2" class="node">
<title>Node2</title>
<g id="a_node2"><a xlink:href="../../d0/dbd/structstrings.html" target="_top" xlink:title=" ">
<polygon fill="none" stroke="black" points="6.5,-78.5 6.5,-97.5 56.5,-97.5 56.5,-78.5 6.5,-78.5"/>
<text text-anchor="middle" x="31.5" y="-85.5" font-family="Helvetica,sans-Serif" font-size="10.00">strings</text>
</a>
</g>
</g>
<!-- Node2&#45;&gt;Node1 -->
<g id="edge1" class="edge">
<title>Node2&#45;&gt;Node1</title>
<path fill="none" stroke="#9a32cd" stroke-dasharray="5,2" d="M40.67,-69.12C48.68,-53.53 59.94,-31.59 66.08,-19.62"/>
<polygon fill="#9a32cd" stroke="#9a32cd" points="37.43,-67.79 35.97,-78.28 43.65,-70.98 37.43,-67.79"/>
<text text-anchor="middle" x="71" y="-46.5" font-family="Helvetica,sans-Serif" font-size="10.00"> parse</text>
</g>
<!-- Node3 -->
<g id="node3" class="node">
<title>Node3</title>
<g id="a_node3"><a xlink:href="../../d6/dea/structsnowflakes.html" target="_top" xlink:title=" ">
<polygon fill="none" stroke="black" points="75,-78.5 75,-97.5 146,-97.5 146,-78.5 75,-78.5"/>
<text text-anchor="middle" x="110.5" y="-85.5" font-family="Helvetica,sans-Serif" font-size="10.00">snowflakes</text>
</a>
</g>
</g>
<!-- Node3&#45;&gt;Node1 -->
<g id="edge2" class="edge">
<title>Node3&#45;&gt;Node1</title>
<path fill="none" stroke="#9a32cd" stroke-dasharray="5,2" d="M103.26,-68.98C99.26,-59.56 94.01,-47.96 88.5,-38 85.01,-31.69 80.51,-24.94 76.88,-19.77"/>
<polygon fill="#9a32cd" stroke="#9a32cd" points="100.13,-70.56 107.18,-78.47 106.6,-67.89 100.13,-70.56"/>
<text text-anchor="middle" x="112.5" y="-52" font-family="Helvetica,sans-Serif" font-size="10.00"> roles</text>
<text text-anchor="middle" x="112.5" y="-41" font-family="Helvetica,sans-Serif" font-size="10.00">users</text>
</g>
</g>
</svg>
