<?xml version="1.0" encoding="UTF-8" standalone="no"?>
<!DOCTYPE svg PUBLIC "-//W3C//DTD SVG 1.1//EN"
 "http://www.w3.org/Graphics/SVG/1.1/DTD/svg11.dtd">
<!-- Generated by graphviz version 2.43.0 (0)
 -->
<!-- Title: discord_request Pages: 1 -->
<svg width="369pt" height="95pt"
 viewBox="0.00 0.00 369.00 95.00" xmlns="http://www.w3.org/2000/svg" xmlns:xlink="http://www.w3.org/1999/xlink">
<g id="graph0" class="graph" transform="scale(1 1) rotate(0) translate(4 91)">
<title>discord_request</title>
<!-- Node1 -->
<g id="node1" class="node">
<title>Node1</title>
<g id="a_node1"><a xlink:title="Behavior of request return struct.">
<polygon fill="#bfbfbf" stroke="black" points="120.5,-0.5 120.5,-19.5 214.5,-19.5 214.5,-0.5 120.5,-0.5"/>
<text text-anchor="middle" x="167.5" y="-7.5" font-family="Helvetica,sans-Serif" font-size="10.00">discord_request</text>
</a>
</g>
</g>
<!-- Node2 -->
<g id="node2" class="node">
<title>Node2</title>
<g id="a_node2"><a xlink:href="../../d6/d47/structdiscord__generic.html" target="_top" xlink:title="Attributes of response datatype.">
<polygon fill="none" stroke="black" points="0,-67.5 0,-86.5 93,-86.5 93,-67.5 0,-67.5"/>
<text text-anchor="middle" x="46.5" y="-74.5" font-family="Helvetica,sans-Serif" font-size="10.00">discord_generic</text>
</a>
</g>
</g>
<!-- Node2&#45;&gt;Node1 -->
<g id="edge1" class="edge">
<title>Node2&#45;&gt;Node1</title>
<path fill="none" stroke="#9a32cd" stroke-dasharray="5,2" d="M71.71,-62.46C95.7,-49.57 131.06,-30.57 151.44,-19.63"/>
<polygon fill="#9a32cd" stroke="#9a32cd" points="69.97,-59.42 62.82,-67.23 73.28,-65.58 69.97,-59.42"/>
<text text-anchor="middle" x="127" y="-41" font-family="Helvetica,sans-Serif" font-size="10.00"> gnrc</text>
</g>
<!-- Node3 -->
<g id="node3" class="node">
<title>Node3</title>
<g id="a_node3"><a xlink:href="../../d1/d9c/structdiscord__ret__generic.html" target="_top" xlink:title="Request&#39;s return context.">
<polygon fill="none" stroke="black" points="111.5,-67.5 111.5,-86.5 223.5,-86.5 223.5,-67.5 111.5,-67.5"/>
<text text-anchor="middle" x="167.5" y="-74.5" font-family="Helvetica,sans-Serif" font-size="10.00">discord_ret_generic</text>
</a>
</g>
</g>
<!-- Node3&#45;&gt;Node1 -->
<g id="edge2" class="edge">
<title>Node3&#45;&gt;Node1</title>
<path fill="none" stroke="#9a32cd" stroke-dasharray="5,2" d="M167.5,-57.04C167.5,-44.67 167.5,-29.12 167.5,-19.63"/>
<polygon fill="#9a32cd" stroke="#9a32cd" points="164,-57.23 167.5,-67.23 171,-57.23 164,-57.23"/>
<text text-anchor="middle" x="176" y="-41" font-family="Helvetica,sans-Serif" font-size="10.00"> ret</text>
</g>
<!-- Node4 -->
<g id="node4" class="node">
<title>Node4</title>
<g id="a_node4"><a xlink:href="../../d3/d41/structdiscord__attachments.html" target="_top" xlink:title=" ">
<polygon fill="none" stroke="red" points="242,-67.5 242,-86.5 361,-86.5 361,-67.5 242,-67.5"/>
<text text-anchor="middle" x="301.5" y="-74.5" font-family="Helvetica,sans-Serif" font-size="10.00">discord_attachments</text>
</a>
</g>
</g>
<!-- Node4&#45;&gt;Node1 -->
<g id="edge3" class="edge">
<title>Node4&#45;&gt;Node1</title>
<path fill="none" stroke="#9a32cd" stroke-dasharray="5,2" d="M274.58,-62.94C248.04,-50.07 208.23,-30.76 185.37,-19.67"/>
<polygon fill="#9a32cd" stroke="#9a32cd" points="273.18,-66.15 283.71,-67.37 276.24,-59.85 273.18,-66.15"/>
<text text-anchor="middle" x="275" y="-41" font-family="Helvetica,sans-Serif" font-size="10.00"> attachments</text>
</g>
</g>
</svg>
