<?xml version="1.0" encoding="UTF-8" standalone="no"?>
<svg
   xmlns:dc="http://purl.org/dc/elements/1.1/"
   xmlns:cc="http://creativecommons.org/ns#"
   xmlns:rdf="http://www.w3.org/1999/02/22-rdf-syntax-ns#"
   xmlns:svg="http://www.w3.org/2000/svg"
   xmlns="http://www.w3.org/2000/svg"
   xmlns:sodipodi="http://sodipodi.sourceforge.net/DTD/sodipodi-0.dtd"
   xmlns:inkscape="http://www.inkscape.org/namespaces/inkscape"
   width="157.47479mm"
   height="180.91731mm"
   viewBox="0 0 157.47479 180.91732"
   version="1.1"
   id="svg2895"
   inkscape:version="1.0.1 (3bc2e813f5, 2020-09-07)"
   sodipodi:docname="Concord Logo3.svg"
   inkscape:export-filename="C:\Users\WEC\Desktop\bitmap.png"
   inkscape:export-xdpi="1200"
   inkscape:export-ydpi="1200">
  <defs
     id="defs2889" />
  <sodipodi:namedview
     id="base"
     pagecolor="#ffffff"
     bordercolor="#666666"
     borderopacity="1.0"
     inkscape:pageopacity="0.0"
     inkscape:pageshadow="2"
     inkscape:zoom="0.49497475"
     inkscape:cx="314.60817"
     inkscape:cy="416.60802"
     inkscape:document-units="mm"
     inkscape:current-layer="layer1"
     inkscape:document-rotation="0"
     showgrid="false"
     fit-margin-top="0"
     fit-margin-left="0"
     fit-margin-right="0"
     fit-margin-bottom="0"
     inkscape:window-width="1346"
     inkscape:window-height="1040"
     inkscape:window-x="26"
     inkscape:window-y="0"
     inkscape:window-maximized="0" />
  <metadata
     id="metadata2892">
    <rdf:RDF>
      <cc:Work
         rdf:about="">
        <dc:format>image/svg+xml</dc:format>
        <dc:type
           rdf:resource="http://purl.org/dc/dcmitype/StillImage" />
        <dc:title></dc:title>
      </cc:Work>
    </rdf:RDF>
  </metadata>
  <g
     inkscape:label="Layer 1"
     inkscape:groupmode="layer"
     id="layer1"
     transform="translate(-406.90814,-128.18754)">
    <path
       sodipodi:type="star"
       style="fill:#003380;fill-opacity:1;stroke:#000000;stroke-width:2.55196;stroke-miterlimit:4;stroke-dasharray:none"
       id="path2269-7"
       sodipodi:sides="3"
       sodipodi:cx="485.56583"
       sodipodi:cy="265.65903"
       sodipodi:r1="40.894543"
       sodipodi:r2="20.447271"
       sodipodi:arg1="1.5651784"
       sodipodi:arg2="2.612376"
       inkscape:flatsided="true"
       inkscape:rounded="0"
       inkscape:randomized="0"
       d="m 485.79557,306.55292 -35.75977,-61.14188 70.83031,-0.39792 z"
       inkscape:transform-center-x="0.11487521"
       inkscape:transform-center-y="10.124001" />
    <path
       style="fill:#3771c8;stroke:#000000;stroke-width:2.552;stroke-linecap:butt;stroke-linejoin:miter;stroke-miterlimit:4;stroke-dasharray:none;stroke-opacity:1"
       d="m 409.11535,173.76691 9.5303,16.52511 133.65339,-0.0463 9.84714,-16.6806 z"
       id="path3474-8"
       sodipodi:nodetypes="ccccc" />
    <path
       style="fill:#3771c8;stroke:#000000;stroke-width:2.552;stroke-linecap:butt;stroke-linejoin:miter;stroke-miterlimit:4;stroke-dasharray:none;stroke-opacity:1"
       d="m 428.7819,209.59975 9.72867,16.65736 93.35255,-0.0132 8.9925,-16.56538 z"
       id="path3474-7-0"
       sodipodi:nodetypes="ccccc" />
    <path
       style="fill:#666666;stroke:#000000;stroke-width:1.83519;stroke-miterlimit:4;stroke-dasharray:none"
       d="m 491.65113,217.44887 -2.36397,-3.52407 -3.5748,-0.0308 c -2.89121,-0.0248 -3.92609,-0.0784 -5.41195,-0.27989 -1.01044,-0.13703 -1.87121,-0.20927 -1.91283,-0.16053 -0.0935,0.10951 -4.82769,5.96346 -5.08417,6.2867 -0.23229,0.29276 -0.51142,0.24815 -2.44566,-0.39085 -3.60341,-1.19046 -6.73988,-2.67436 -10.25543,-4.85198 -1.1246,-0.69662 -1.47027,-0.96743 -1.47027,-1.15193 0,-0.13266 0.33729,-1.95004 0.74955,-4.0386 0.41226,-2.08857 0.74954,-3.91006 0.7495,-4.04775 -3e-5,-0.17107 -0.46359,-0.68864 -1.4636,-1.63416 -1.60767,-1.52005 -3.52033,-3.64986 -4.84133,-5.39101 -0.46916,-0.61839 -0.90467,-1.12433 -0.9678,-1.12433 -0.0631,0 -1.52719,0.15873 -3.25347,0.35274 -1.72627,0.194 -3.62639,0.36265 -4.22246,0.37477 l -1.08379,0.022 -0.96061,-1.90271 c -1.20377,-2.38431 -1.88391,-3.9802 -2.60471,-6.11174 -0.55521,-1.64187 -1.37611,-4.74365 -1.5339,-5.79588 -0.0942,-0.62834 -0.5761,-0.22866 3.96159,-3.28586 l 3.03718,-2.04625 0.0295,-3.69011 c 0.0219,-2.73675 0.0804,-4.04405 0.22655,-5.0601 0.31199,-2.16875 0.39283,-1.97862 -1.48712,-3.49822 -4.40256,-3.55869 -4.77687,-3.88634 -4.78011,-4.18409 -0.004,-0.41686 1.13478,-3.75195 1.89621,-5.55072 1.41205,-3.33584 4.18251,-8.17187 4.68149,-8.17187 0.12011,0 1.93967,0.3373 4.04345,0.74955 2.1038,0.41226 3.92088,0.74956 4.03797,0.74956 0.12301,0 1.14983,-0.94001 2.43184,-2.22622 1.35425,-1.35868 2.82067,-2.69556 3.76305,-3.43065 0.84924,-0.66244 1.63976,-1.28227 1.7567,-1.3774 0.20582,-0.16746 0.198,-0.30545 -0.24513,-4.32435 -0.25176,-2.28326 -0.45848,-4.21071 -0.45939,-4.28323 -0.002,-0.19806 3.60836,-1.99667 5.70666,-2.84255 2.78289,-1.12186 7.00513,-2.34854 8.31956,-2.41708 l 0.54397,-0.0284 2.37178,3.49579 2.37178,3.4958 3.74777,0.035 c 2.66355,0.0249 4.08137,0.0868 4.90092,0.21424 2.15993,0.3358 2.10573,0.3435 2.68978,-0.3821 4.02948,-5.00593 4.78322,-5.8785 5.07793,-5.8785 0.3911,0 3.74989,1.14423 5.31524,1.81073 3.54874,1.511 8.42485,4.25822 8.42258,4.7453 -5.3e-4,0.10447 -0.3594,1.99961 -0.79758,4.21142 l -0.79669,4.02146 2.21917,2.20559 c 1.89581,1.88422 3.25821,3.44559 4.71434,5.40289 0.29892,0.40178 0.35129,0.42596 0.80599,0.37211 2.20453,-0.26111 8.06717,-0.86915 8.09273,-0.83935 0.16954,0.19779 1.69364,3.25527 2.23178,4.47719 1.15962,2.63303 2.31628,6.27917 2.85181,8.98979 l 0.19269,0.97531 -0.29539,0.2355 c -0.16247,0.12951 -1.76376,1.21801 -3.55844,2.41886 l -3.26307,2.18336 -7.9e-4,3.46712 c -5.3e-4,2.79773 -0.044,3.7788 -0.22453,5.08152 -0.3413,2.46167 -0.48169,2.09464 1.37839,3.60375 4.53338,3.67804 4.90092,3.99599 4.90092,4.2398 0,0.71937 -1.78943,5.45497 -3.01196,7.97097 -0.8577,1.76515 -2.82737,5.11674 -3.27119,5.56627 l -0.27444,0.27796 -2.45817,-0.48744 c -1.352,-0.26808 -3.21062,-0.63377 -4.13026,-0.81263 l -1.67207,-0.32519 -1.84506,1.87452 c -1.83732,1.86664 -3.24069,3.11844 -5.1604,4.60304 -0.55496,0.42918 -1.00901,0.80292 -1.00901,0.83053 0,0.0724 0.78771,7.39126 0.85701,7.96289 0.0367,0.30272 0.006,0.52011 -0.0824,0.59055 -0.30636,0.24324 -2.64388,1.42052 -4.05116,2.04034 -1.9735,0.86922 -3.83734,1.55633 -5.76721,2.1261 -1.44387,0.42628 -4.13317,1.0538 -4.47891,1.04509 -0.0783,-0.002 -1.2061,-1.58942 -2.50629,-3.52767 z m -3.8297,-19.19132 c 5.61159,-0.60463 10.39725,-2.86435 14.26843,-6.7374 3.43368,-3.43533 5.66061,-7.73866 6.53606,-12.63034 0.36442,-2.03629 0.36231,-5.75945 -0.004,-7.76684 -1.632,-8.93335 -7.76968,-15.86849 -16.3439,-18.46746 -1.89085,-0.57313 -3.73456,-0.86673 -5.931,-0.94444 -2.93642,-0.10385 -5.2933,0.2354 -8.13835,1.17161 -8.68739,2.85873 -14.79869,10.48151 -15.8557,19.77726 -0.18559,1.63201 -0.0786,4.6513 0.2249,6.34519 1.32957,7.42151 5.94588,13.5877 12.69052,16.95124 3.77522,1.88271 8.46262,2.74195 12.55345,2.30118 z"
       id="path3517" />
  </g>
</svg>
