<?xml version="1.0" encoding="UTF-8" standalone="no"?>
<!-- Created with Inkscape (http://www.inkscape.org/) -->

<svg
   version="1.1"
   id="svg2"
   width="1036"
   height="597.33301"
   viewBox="0 0 1036 117.99164"
   sodipodi:docname="logo.svg"
   inkscape:version="1.1 (1:1.1+202105261517+ce6663b3b7)"
   inkscape:export-filename="/home/lucasmull/Pictures/orca.jpg.png"
   inkscape:export-xdpi="96"
   inkscape:export-ydpi="96"
   xmlns:inkscape="http://www.inkscape.org/namespaces/inkscape"
   xmlns:sodipodi="http://sodipodi.sourceforge.net/DTD/sodipodi-0.dtd"
   xmlns="http://www.w3.org/2000/svg"
   xmlns:svg="http://www.w3.org/2000/svg">
  <defs
     id="defs6">
    <inkscape:path-effect
       effect="line_segment"
       id="path-effect1300"
       is_visible="true"
       lpeversion="1"
       end_type="open_both" />
    <rect
       x="3329.0002"
       y="1896.2725"
       width="344.15814"
       height="413.88086"
       id="rect14768" />
    <clipPath
       clipPathUnits="userSpaceOnUse"
       id="clipPath82106">
      <g
         inkscape:label="Clip"
         id="use82108">
        <path
           style="color:#000000;opacity:0.81;fill:#ff0000;fill-opacity:1;stroke:#000000;stroke-opacity:1;-inkscape-stroke:none"
           d="m 2697.1919,2263.0098 c 0,244.1555 -55.8966,355.0302 -268.9113,527.6742 -213.0148,172.644 -564.8421,169.8212 -866.0905,169.8212 -301.2484,0 -344.0413,-50.5171 -557.056,-223.1611 -213.01481,-172.644 -345.21871,-530.2951 -345.21872,-774.4506 -3e-5,-244.1555 -40.18699,-391.157 94.61562,-512.7652 144.72696,-130.5611 287.1973,-41.8791 532.3664,-313.3588 196.5199,-217.60964 851.0404,249.4618 1090.8746,477.0314 198.9021,188.7306 319.4199,405.0534 319.4199,649.2089 z"
           id="path83133"
           sodipodi:nodetypes="sssssssss"
           clip-path="none" />
        <path
           style="fill:#ff0000;stroke:#000000;stroke-width:1px;stroke-linecap:butt;stroke-linejoin:miter;stroke-opacity:1"
           d="m 1292.0354,1135.1859 c 371.513,64.3927 630.2464,173.9285 630.2464,173.9285 0,0 204.9542,99.4361 289.5445,168.8162 84.5902,69.3802 377.9705,113.2137 377.9705,113.2137 L 2462.8433,1248.733 1889.4971,1037.0965 1285.7327,979.10691 1159.3244,1101.4456 Z"
           id="path83135" />
      </g>
    </clipPath>
    <filter
       style="color-interpolation-filters:sRGB"
       inkscape:label="Drop Shadow"
       id="filter46132"
       x="-0.029764667"
       y="-0.033569854"
       width="1.0607685"
       height="1.0714743">
      <feFlood
         flood-opacity="0.498039"
         flood-color="rgb(0,0,0)"
         result="flood"
         id="feFlood46122" />
      <feComposite
         in="flood"
         in2="SourceGraphic"
         operator="in"
         result="composite1"
         id="feComposite46124" />
      <feGaussianBlur
         in="composite1"
         stdDeviation="11.0091"
         result="blur"
         id="feGaussianBlur46126" />
      <feOffset
         dx="1.1"
         dy="3.41166"
         result="offset"
         id="feOffset46128" />
      <feComposite
         in="SourceGraphic"
         in2="offset"
         operator="over"
         result="composite2"
         id="feComposite46130" />
    </filter>
    <filter
       style="color-interpolation-filters:sRGB"
       inkscape:label="Drop Shadow"
       id="filter46552"
       x="-0.01771841"
       y="-0.055943687"
       width="1.0355731"
       height="1.1292642">
      <feFlood
         flood-opacity="0.498039"
         flood-color="rgb(0,0,0)"
         result="flood"
         id="feFlood46542" />
      <feComposite
         in="flood"
         in2="SourceGraphic"
         operator="in"
         result="composite1"
         id="feComposite46544" />
      <feGaussianBlur
         in="composite1"
         stdDeviation="13.1613"
         result="blur"
         id="feGaussianBlur46546" />
      <feOffset
         dx="0.242932"
         dy="9.81137"
         result="offset"
         id="feOffset46548" />
      <feComposite
         in="SourceGraphic"
         in2="offset"
         operator="over"
         result="composite2"
         id="feComposite46550" />
    </filter>
  </defs>
  <sodipodi:namedview
     id="namedview4"
     pagecolor="#ffffff"
     bordercolor="#666666"
     borderopacity="1.0"
     inkscape:pageshadow="2"
     inkscape:pageopacity="0.0"
     inkscape:pagecheckerboard="true"
     showgrid="false"
     inkscape:snap-nodes="true"
     inkscape:snap-midpoints="false"
     inkscape:lockguides="false"
     inkscape:zoom="0.35355339"
     inkscape:cx="441.23463"
     inkscape:cy="271.529"
     inkscape:window-width="1366"
     inkscape:window-height="704"
     inkscape:window-x="0"
     inkscape:window-y="0"
     inkscape:window-maximized="1"
     inkscape:current-layer="g8"
     showguides="false"
     inkscape:guide-bbox="true"
     showborder="true"
     inkscape:snap-smooth-nodes="true"
     borderlayer="false"
     inkscape:showpageshadow="true">
    <inkscape:grid
       type="xygrid"
       id="grid24947" />
  </sodipodi:namedview>
  <g
     inkscape:groupmode="layer"
     id="layer1"
     inkscape:label="Background"
     style="display:inline" />
  <g
     inkscape:groupmode="layer"
     inkscape:label="Image"
     id="g8"
     style="display:inline">
    <g
       aria-label="orca"
       id="text5724"
       style="font-size:251.867px;line-height:1.25;font-family:Baumans;-inkscape-font-specification:Baumans;letter-spacing:11.055px;fill:#1a1a1a;stroke-width:1.62592">
      <path
         id="path109"
         sodipodi:type="inkscape:offset"
         inkscape:radius="0"
         inkscape:original="M 518.73242 9.7324219 C 501.10174 9.7324219 486.41004 15.861613 474.65625 28.119141 C 462.90245 40.040846 457.02539 54.900617 457.02539 72.699219 C 457.02539 81.430608 458.53619 89.65889 461.55859 97.382812 C 464.74891 104.93882 469.11517 111.57031 474.65625 117.2793 C 480.19732 122.98828 486.66073 127.52263 494.04883 130.88086 C 501.60484 134.07117 509.83312 135.66602 518.73242 135.66602 C 527.46382 135.66602 535.60806 134.07117 543.16406 130.88086 C 550.72008 127.52263 557.26752 122.98828 562.80859 117.2793 C 568.34967 111.57031 572.6319 104.93882 575.6543 97.382812 C 578.84462 89.65889 580.43945 81.430608 580.43945 72.699219 C 580.43945 63.967829 578.84462 55.823588 575.6543 48.267578 C 572.46398 40.543656 568.01367 33.828126 562.30469 28.119141 C 556.76361 22.410155 550.21616 17.959847 542.66016 14.769531 C 535.27206 11.411305 527.2959 9.7324219 518.73242 9.7324219 z M 774.07031 9.7324219 C 756.60753 9.7324219 741.91585 15.861613 729.99414 28.119141 C 718.24035 40.208757 712.36328 55.068529 712.36328 72.699219 C 712.36328 90.665732 717.98822 105.69359 729.23828 117.7832 C 740.48834 129.7049 755.43215 135.66602 774.07031 135.66602 C 789.01442 135.66602 802.27935 130.96358 813.86523 121.56055 L 798.75391 106.70117 C 792.03745 111.90643 783.80917 114.50977 774.07031 114.50977 C 762.48443 114.50977 753.24959 110.73179 746.36523 103.17578 C 739.64878 95.45186 736.29102 85.292569 736.29102 72.699219 C 736.29102 60.105869 739.64878 50.030619 746.36523 42.474609 C 753.24959 34.750687 762.48443 30.888672 774.07031 30.888672 C 783.64126 30.888672 791.95359 33.576056 799.00586 38.949219 L 813.86523 23.837891 C 802.27935 14.434856 789.01442 9.7324219 774.07031 9.7324219 z M 666.55078 12.251953 C 660.00224 12.251953 654.79751 12.420037 650.93555 12.755859 C 647.24149 13.091682 642.87523 14.182272 637.83789 16.029297 C 632.80055 17.876322 628.51833 20.645794 624.99219 24.339844 C 617.772 31.727942 614.16211 45.076915 614.16211 64.386719 L 614.16211 133.14648 L 636.32812 133.14648 L 636.32812 64.386719 C 636.32812 52.297103 637.92297 44.238856 641.11328 40.208984 C 642.96031 38.026136 645.14344 36.431296 647.66211 35.423828 C 650.18078 34.41636 652.36196 33.828068 654.20898 33.660156 C 656.056 33.492245 658.65935 33.408203 662.01758 33.408203 L 688.71484 33.408203 L 688.71484 12.251953 L 666.55078 12.251953 z M 853.13086 12.251953 L 853.13086 33.408203 L 893.42773 33.408203 C 913.24127 33.408203 923.14844 43.567494 923.14844 63.884766 L 923.14844 111.99023 L 889.90234 111.99023 C 873.44703 111.99023 865.21875 106.44934 865.21875 95.367188 C 865.21875 89.658202 867.40188 85.291935 871.76758 82.269531 C 876.13327 79.079216 882.26246 77.484375 890.1543 77.484375 C 899.38942 77.484375 907.19749 79.919634 913.57812 84.789062 L 913.57812 62.121094 C 905.01465 59.434512 896.95444 58.091797 889.39844 58.091797 C 875.96553 58.091797 864.79969 61.281479 855.90039 67.662109 C 847.00108 74.04274 842.55078 83.361613 842.55078 95.619141 C 842.55078 107.87667 846.74896 117.19554 855.14453 123.57617 C 863.5401 129.9568 874.87402 133.14648 889.14648 133.14648 L 945.3125 133.14648 L 945.3125 59.097656 C 945.3125 43.985636 940.94818 32.399588 932.2168 24.339844 C 923.4854 16.2801 910.9749 12.251953 894.6875 12.251953 L 853.13086 12.251953 z M 518.73242 30.888672 C 530.65413 30.888672 540.14109 34.834729 547.19336 42.726562 C 554.24564 50.450484 557.77148 60.441691 557.77148 72.699219 C 557.77148 84.956746 554.24564 95.031997 547.19336 102.92383 C 540.14109 110.64775 530.65413 114.50977 518.73242 114.50977 C 506.97863 114.50977 497.49167 110.64775 490.27148 102.92383 C 483.21921 95.199909 479.69336 85.124657 479.69336 72.699219 C 479.69336 60.27378 483.21921 50.198531 490.27148 42.474609 C 497.49167 34.750687 506.97863 30.888672 518.73242 30.888672 z "
         d="m 518.73242,9.7324219 c -17.63068,0 -32.32238,6.1291911 -44.07617,18.3867191 -11.7538,11.921705 -17.63086,26.781476 -17.63086,44.580078 0,8.731389 1.5108,16.959671 4.5332,24.683593 3.19032,7.556008 7.55658,14.187498 13.09766,19.896488 5.54107,5.70898 12.00448,10.24333 19.39258,13.60156 7.55601,3.19031 15.78429,4.78516 24.68359,4.78516 8.7314,0 16.87564,-1.59485 24.43164,-4.78516 7.55602,-3.35823 14.10346,-7.89258 19.64453,-13.60156 5.54108,-5.70899 9.82331,-12.34048 12.84571,-19.896488 3.19032,-7.723922 4.78515,-15.952204 4.78515,-24.683593 0,-8.73139 -1.59483,-16.875631 -4.78515,-24.431641 -3.19032,-7.723922 -7.64063,-14.439452 -13.34961,-20.148437 -5.54108,-5.708986 -12.08853,-10.159294 -19.64453,-13.34961 -7.3881,-3.358226 -15.36426,-5.0371091 -23.92774,-5.0371091 z m 255.33789,0 c -17.46278,0 -32.15446,6.1291911 -44.07617,18.3867191 -11.75379,12.089616 -17.63086,26.949388 -17.63086,44.580078 0,17.966513 5.62494,32.994371 16.875,45.083981 11.25006,11.9217 26.19387,17.88282 44.83203,17.88282 14.94411,0 28.20904,-4.70244 39.79492,-14.10547 l -15.11132,-14.85938 c -6.71646,5.20526 -14.94474,7.8086 -24.6836,7.8086 -11.58588,0 -20.82072,-3.77798 -27.70508,-11.33399 -6.71645,-7.72392 -10.07421,-17.883211 -10.07421,-30.476561 0,-12.59335 3.35776,-22.6686 10.07421,-30.22461 6.88436,-7.723922 16.1192,-11.585937 27.70508,-11.585937 9.57095,0 17.88328,2.687384 24.93555,8.060547 L 813.86523,23.837891 C 802.27935,14.434856 789.01442,9.7324219 774.07031,9.7324219 Z M 666.55078,12.251953 c -6.54854,0 -11.75327,0.168084 -15.61523,0.503906 -3.69406,0.335823 -8.06032,1.426413 -13.09766,3.273438 -5.03734,1.847025 -9.31956,4.616497 -12.8457,8.310547 -7.22019,7.388098 -10.83008,20.737071 -10.83008,40.046875 v 68.759761 h 22.16601 V 64.386719 c 0,-12.089616 1.59485,-20.147863 4.78516,-24.177735 1.84703,-2.182848 4.03016,-3.777688 6.54883,-4.785156 2.51867,-1.007468 4.69985,-1.59576 6.54687,-1.763672 1.84702,-0.167911 4.45037,-0.251953 7.8086,-0.251953 h 26.69726 v -21.15625 z m 186.58008,0 v 21.15625 h 40.29687 c 19.81354,0 29.72071,10.159291 29.72071,30.476563 v 48.105464 h -33.2461 c -16.45531,0 -24.68359,-5.54089 -24.68359,-16.623042 0,-5.708986 2.18313,-10.075253 6.54883,-13.097657 4.36569,-3.190315 10.49488,-4.785156 18.38672,-4.785156 9.23512,0 17.04319,2.435259 23.42382,7.304687 V 62.121094 c -8.56347,-2.686582 -16.62368,-4.029297 -24.17968,-4.029297 -13.43291,0 -24.59875,3.189682 -33.49805,9.570312 -8.89931,6.380631 -13.34961,15.699504 -13.34961,27.957032 0,12.257529 4.19818,21.576399 12.59375,27.957029 8.39557,6.38063 19.72949,9.57031 34.00195,9.57031 H 945.3125 V 59.097656 c 0,-15.11202 -4.36432,-26.698068 -13.0957,-34.757812 C 923.4854,16.2801 910.9749,12.251953 894.6875,12.251953 Z M 518.73242,30.888672 c 11.92171,0 21.40867,3.946057 28.46094,11.83789 7.05228,7.723922 10.57812,17.715129 10.57812,29.972657 0,12.257527 -3.52584,22.332778 -10.57812,30.224611 -7.05227,7.72392 -16.53923,11.58594 -28.46094,11.58594 -11.75379,0 -21.24075,-3.86202 -28.46094,-11.58594 -7.05227,-7.723921 -10.57812,-17.799173 -10.57812,-30.224611 0,-12.425439 3.52585,-22.500688 10.57812,-30.22461 7.22019,-7.723922 16.70715,-11.585937 28.46094,-11.585937 z" />
    </g>
    <g
       aria-label="bot framework"
       id="text46540"
       style="font-size:51.6983px;line-height:1.25;font-family:Baumans;-inkscape-font-specification:Baumans;fill:#483737;stroke-width:1.29246">
      <path
         id="path173"
         sodipodi:type="inkscape:offset"
         inkscape:radius="0"
         inkscape:original="M 732.7832 146.49023 C 729.09539 146.49023 726.06171 147.52387 723.68359 149.5918 C 721.30547 151.62526 720.11719 154.39858 720.11719 157.91406 L 718.66992 157.91406 L 716.60156 162.25781 L 720.11719 162.25781 L 720.11719 182.73047 L 724.76953 182.73047 L 724.76953 162.25781 L 730.71484 162.25781 L 730.71484 157.91406 L 724.76953 157.91406 C 724.76953 153.19228 727.44104 150.83203 732.7832 150.83203 L 732.7832 146.49023 z M 627.16406 146.54102 L 627.16406 170.32227 C 627.16406 174.25134 628.28318 177.38682 630.52344 179.73047 C 632.7637 182.07413 635.69362 183.24609 639.3125 183.24609 C 643.10371 183.24609 646.24114 182.12698 648.72266 179.88672 C 651.23864 177.61199 652.49609 174.42367 652.49609 170.32227 C 652.49609 166.42766 651.28954 163.3085 648.87695 160.96484 C 646.49883 158.58672 643.48342 157.39844 639.83008 157.39844 C 637.62428 157.39844 635.57333 157.91525 633.67773 158.94922 L 633.67773 163.60156 C 635.26315 162.3608 637.14117 161.74023 639.3125 161.74023 C 641.86295 161.74023 643.91389 162.51545 645.46484 164.06641 C 647.05026 165.58289 647.84375 167.66842 647.84375 170.32227 C 647.84375 173.11397 647.11943 175.2504 645.67188 176.73242 C 644.22432 178.17998 642.22623 178.9043 639.67578 178.9043 C 637.22873 178.9043 635.29785 178.16366 633.88477 176.68164 C 632.50615 175.16516 631.81641 173.04505 631.81641 170.32227 L 631.81641 146.54102 L 627.16406 146.54102 z M 926.59961 146.54102 L 926.59961 182.73047 L 931.14844 182.73047 L 931.14844 171.87305 C 931.9756 171.76965 932.78736 171.71875 933.58008 171.71875 C 936.09606 171.71875 938.02499 172.35564 939.36914 173.63086 C 940.74777 174.87162 941.4375 176.64588 941.4375 178.95508 L 941.4375 182.73047 L 945.98633 182.73047 L 945.98633 179.00781 C 945.98633 173.28653 943.86621 169.85612 939.62695 168.71875 L 945.88281 157.91406 L 940.86914 157.91406 L 935.49219 167.78906 C 934.04463 167.58227 932.59598 167.58227 931.14844 167.78906 L 931.14844 146.54102 L 926.59961 146.54102 z M 694.57812 153.00391 L 685.32422 162.25781 L 689.92578 162.25781 L 689.92578 172.90625 C 689.92578 176.42173 690.87392 178.93859 692.76953 180.45508 C 694.66514 181.97156 697.59506 182.73047 701.55859 182.73047 L 701.55859 178.38672 C 700.55909 178.38672 699.7147 178.33582 699.02539 178.23242 C 698.37055 178.12903 697.66254 177.92152 696.9043 177.61133 C 696.14606 177.26667 695.56007 176.69896 695.14648 175.90625 C 694.76736 175.11354 694.57812 174.11254 694.57812 172.90625 L 694.57812 162.25781 L 701.55859 162.25781 L 701.55859 157.91406 L 694.57812 157.91406 L 694.57812 153.00391 z M 669.81445 157.39844 C 666.19557 157.39844 663.18016 158.6559 660.76758 161.17188 C 658.35499 163.61893 657.14844 166.66892 657.14844 170.32227 C 657.14844 172.11447 657.4597 173.80326 658.08008 175.38867 C 658.73492 176.93963 659.63021 178.30083 660.76758 179.47266 C 661.90494 180.64448 663.23156 181.57436 664.74805 182.26367 C 666.29899 182.91852 667.98778 183.24609 669.81445 183.24609 C 671.60666 183.24609 673.27912 182.91852 674.83008 182.26367 C 676.38102 181.57436 677.72397 180.64448 678.86133 179.47266 C 679.99869 178.30083 680.87767 176.93963 681.49805 175.38867 C 682.15289 173.80326 682.48047 172.11447 682.48047 170.32227 C 682.48047 168.53006 682.15289 166.85759 681.49805 165.30664 C 680.8432 163.72122 679.92964 162.3437 678.75781 161.17188 C 677.62045 160.00005 676.27751 159.08649 674.72656 158.43164 C 673.21008 157.74233 671.57219 157.39844 669.81445 157.39844 z M 829.61328 157.39844 C 825.61528 157.26057 822.46349 158.44886 820.1543 160.96484 C 817.84511 163.48082 816.68945 166.77291 816.68945 170.83984 C 816.68945 174.49319 817.86142 177.47401 820.20508 179.7832 C 822.54874 182.0924 825.68421 183.24609 829.61328 183.24609 C 832.85304 183.24609 835.66289 182.28164 838.04102 180.35156 L 834.93945 177.30078 C 833.56083 178.36921 831.78461 178.9043 829.61328 178.9043 C 827.20069 178.9043 825.23718 178.1108 823.7207 176.52539 C 822.23868 174.93998 821.49805 172.87272 821.49805 170.32227 C 821.49805 167.90968 822.18779 165.84241 823.56641 164.11914 C 824.97949 162.39586 826.90842 161.5332 829.35547 161.5332 C 830.59623 161.5332 831.61354 161.80988 832.40625 162.36133 C 833.19896 162.87831 833.5957 163.66985 833.5957 164.73828 C 833.5957 166.39263 833.1461 167.58286 832.25 168.30664 C 831.35389 168.99595 829.75255 169.33984 827.44336 169.33984 L 824.96094 169.33984 L 824.96094 173.32031 L 827.08008 173.32031 C 834.62802 173.32031 838.40234 170.44324 838.40234 164.6875 C 838.40234 160.06911 835.47242 157.63969 829.61328 157.39844 z M 890.61719 157.39844 C 886.99831 157.39844 883.9829 158.6559 881.57031 161.17188 C 879.15773 163.61893 877.95117 166.66892 877.95117 170.32227 C 877.95117 172.11447 878.26243 173.80326 878.88281 175.38867 C 879.53765 176.93963 880.43295 178.30083 881.57031 179.47266 C 882.70767 180.64448 884.03429 181.57436 885.55078 182.26367 C 887.10173 182.91852 888.79051 183.24609 890.61719 183.24609 C 892.40939 183.24609 894.08186 182.91852 895.63281 182.26367 C 897.18376 181.57436 898.52866 180.64448 899.66602 179.47266 C 900.80338 178.30083 901.68235 176.93963 902.30273 175.38867 C 902.95757 173.80326 903.2832 172.11447 903.2832 170.32227 C 903.2832 168.53006 902.95757 166.85759 902.30273 165.30664 C 901.64789 163.72122 900.73433 162.3437 899.5625 161.17188 C 898.42513 160.00005 897.08024 159.08649 895.5293 158.43164 C 894.01281 157.74233 892.37493 157.39844 890.61719 157.39844 z M 744.83008 157.91406 C 743.48592 157.91406 742.41575 157.94864 741.62305 158.01758 C 740.8648 158.0865 739.96951 158.31033 738.93555 158.68945 C 737.90159 159.06858 737.02261 159.63824 736.29883 160.39648 C 734.81681 161.91296 734.07617 164.65169 734.07617 168.61523 L 734.07617 182.73047 L 738.625 182.73047 L 738.625 168.61719 C 738.625 166.13567 738.95258 164.47952 739.60742 163.65234 C 739.98654 163.20429 740.43419 162.87867 740.95117 162.67188 C 741.46815 162.46508 741.91776 162.34306 742.29688 162.30859 C 742.676 162.27413 743.20913 162.25781 743.89844 162.25781 L 749.37891 162.25781 L 749.37891 157.91406 L 744.83008 157.91406 z M 754.13477 157.91406 L 754.13477 162.25781 L 762.40625 162.25781 C 766.47318 162.25781 768.50781 164.34335 768.50781 168.51367 L 768.50781 178.38672 L 761.68359 178.38672 C 758.30597 178.38672 756.61719 177.24934 756.61719 174.97461 C 756.61719 173.80278 757.06483 172.90749 757.96094 172.28711 C 758.85704 171.63226 760.1145 171.30469 761.73438 171.30469 C 763.62998 171.30469 765.23328 171.80519 766.54297 172.80469 L 766.54297 168.15039 C 764.78522 167.59894 763.13102 167.32422 761.58008 167.32422 C 758.82283 167.32422 756.5298 167.97937 754.70312 169.28906 C 752.87646 170.59875 751.96289 172.51136 751.96289 175.02734 C 751.96289 177.54332 752.82555 179.45593 754.54883 180.76562 C 756.2721 182.07531 758.59777 182.73047 761.52734 182.73047 L 773.05664 182.73047 L 773.05664 167.53125 C 773.05664 164.42936 772.15939 162.05083 770.36719 160.39648 C 768.57498 158.74214 766.00722 157.91406 762.66406 157.91406 L 754.13477 157.91406 z M 779.00195 157.91406 L 779.00195 182.73047 L 783.55078 182.73047 L 783.55078 162.25781 L 792.59766 162.25781 L 792.59766 182.73047 L 797.14844 182.73047 L 797.14844 162.25781 L 799.26758 162.25781 C 801.78356 162.25781 803.45408 162.48164 804.28125 162.92969 C 805.90113 163.79133 806.71094 165.56559 806.71094 168.25391 L 806.71094 182.73047 L 811.26172 182.73047 L 811.26172 168.25391 C 811.26172 166.18597 811.01963 164.41171 810.53711 162.92969 C 810.08906 161.44767 809.12459 160.24112 807.64258 159.31055 C 806.19502 158.37998 804.24783 157.91406 801.80078 157.91406 L 779.00195 157.91406 z M 842.2793 157.91406 L 842.64258 165.51367 C 842.88384 170.02866 843.69365 173.82124 845.07227 176.88867 C 846.48535 179.9561 848.37969 182.07426 850.75781 183.24609 C 853.30826 181.28155 855.01531 179.29978 855.87695 177.30078 C 856.73859 175.30178 857.37548 172.35554 857.78906 168.46094 L 858.30664 168.46094 C 858.72023 172.35554 859.35712 175.30178 860.21875 177.30078 C 861.08039 179.29978 862.78744 181.28155 865.33789 183.24609 C 867.71601 182.07426 869.59404 179.9561 870.97266 176.88867 C 872.38574 173.82124 873.21382 170.02866 873.45508 165.51367 L 873.81641 157.91406 L 869.21484 157.91406 L 868.80078 165.30664 C 868.49059 170.95899 867.37148 175.06088 865.44141 177.61133 C 864.92443 177.02541 864.44219 176.37026 863.99414 175.64648 C 863.54609 174.9227 863.16566 174.13117 862.85547 173.26953 C 862.54528 172.37343 862.27056 171.59821 862.0293 170.94336 C 861.8225 170.25405 861.615 169.39138 861.4082 168.35742 C 861.23588 167.28899 861.1158 166.51377 861.04688 166.03125 C 860.97794 165.54874 860.87419 164.77351 860.73633 163.70508 C 860.63293 162.63664 860.56376 162.03239 860.5293 161.89453 L 855.56641 161.89453 C 855.53194 162.03239 855.44645 162.63664 855.30859 163.70508 C 855.20519 164.77351 855.11776 165.54874 855.04883 166.03125 C 854.9799 166.51377 854.84351 167.28899 854.63672 168.35742 C 854.46439 169.39138 854.25688 170.25405 854.01562 170.94336 C 853.80883 171.59821 853.55043 172.37343 853.24023 173.26953 C 852.93005 174.13117 852.55157 174.9227 852.10352 175.64648 C 851.65546 176.37026 851.17323 177.02541 850.65625 177.61133 C 848.72618 175.06088 847.60511 170.95899 847.29492 165.30664 L 846.88086 157.91406 L 842.2793 157.91406 z M 918.68945 157.91406 C 917.3453 157.91406 916.27708 157.94864 915.48438 158.01758 C 914.72614 158.0865 913.83084 158.31033 912.79688 158.68945 C 911.76291 159.06858 910.88394 159.63824 910.16016 160.39648 C 908.67814 161.91296 907.9375 164.65169 907.9375 168.61523 L 907.9375 182.73047 L 912.48633 182.73047 L 912.48633 168.61719 C 912.48633 166.13567 912.8139 164.47952 913.46875 163.65234 C 913.84787 163.20429 914.29552 162.87867 914.8125 162.67188 C 915.32949 162.46508 915.77713 162.34306 916.15625 162.30859 C 916.53537 162.27413 917.07046 162.25781 917.75977 162.25781 L 923.24023 162.25781 L 923.24023 157.91406 L 918.68945 157.91406 z M 669.81445 161.74023 C 672.26151 161.74023 674.2087 162.55004 675.65625 164.16992 C 677.1038 165.75534 677.82813 167.80629 677.82812 170.32227 C 677.82813 172.83825 677.1038 174.90551 675.65625 176.52539 C 674.2087 178.1108 672.26151 178.9043 669.81445 178.9043 C 667.40187 178.9043 665.45468 178.1108 663.97266 176.52539 C 662.5251 174.93998 661.80078 172.87272 661.80078 170.32227 C 661.80078 167.77182 662.5251 165.70455 663.97266 164.11914 C 665.45468 162.53372 667.40187 161.74023 669.81445 161.74023 z M 890.61719 161.74023 C 893.06424 161.74023 895.01143 162.55004 896.45898 164.16992 C 897.90654 165.75534 898.63086 167.80629 898.63086 170.32227 C 898.63086 172.83825 897.90654 174.90551 896.45898 176.52539 C 895.01143 178.1108 893.06424 178.9043 890.61719 178.9043 C 888.2046 178.9043 886.25741 178.1108 884.77539 176.52539 C 883.32784 174.93998 882.60547 172.87272 882.60547 170.32227 C 882.60547 167.77182 883.32784 165.70455 884.77539 164.11914 C 886.25741 162.53372 888.2046 161.74023 890.61719 161.74023 z "
         d="m 732.7832,146.49023 c -3.68781,0 -6.72149,1.03364 -9.09961,3.10157 -2.37812,2.03346 -3.5664,4.80678 -3.5664,8.32226 h -1.44727 l -2.06836,4.34375 h 3.51563 v 20.47266 h 4.65234 v -20.47266 h 5.94531 v -4.34375 h -5.94531 c 0,-4.72178 2.67151,-7.08203 8.01367,-7.08203 z m -105.61914,0.0508 v 23.78125 c 0,3.92907 1.11912,7.06455 3.35938,9.4082 2.24026,2.34366 5.17018,3.51562 8.78906,3.51562 3.79121,0 6.92864,-1.11911 9.41016,-3.35937 2.51598,-2.27473 3.77343,-5.46305 3.77343,-9.56445 0,-3.89461 -1.20655,-7.01377 -3.61914,-9.35743 -2.37812,-2.37812 -5.39353,-3.5664 -9.04687,-3.5664 -2.2058,0 -4.25675,0.51681 -6.15235,1.55078 v 4.65234 c 1.58542,-1.24076 3.46344,-1.86133 5.63477,-1.86133 2.55045,0 4.60139,0.77522 6.15234,2.32618 1.58542,1.51648 2.37891,3.60201 2.37891,6.25586 0,2.7917 -0.72432,4.92813 -2.17187,6.41015 -1.44756,1.44756 -3.44565,2.17188 -5.9961,2.17188 -2.44705,0 -4.37793,-0.74064 -5.79101,-2.22266 -1.37862,-1.51648 -2.06836,-3.63659 -2.06836,-6.35937 v -23.78125 z m 299.43555,0 v 36.18945 h 4.54883 v -10.85742 c 0.82716,-0.1034 1.63892,-0.1543 2.43164,-0.1543 2.51598,0 4.44491,0.63689 5.78906,1.91211 1.37863,1.24076 2.06836,3.01502 2.06836,5.32422 v 3.77539 h 4.54883 v -3.72266 c 0,-5.72128 -2.12012,-9.15169 -6.35938,-10.28906 l 6.25586,-10.80469 h -5.01367 l -5.37695,9.875 c -1.44756,-0.20679 -2.89621,-0.20679 -4.34375,0 v -21.24804 z m -232.02149,6.46289 -9.2539,9.2539 h 4.60156 v 10.64844 c 0,3.51548 0.94814,6.03234 2.84375,7.54883 1.89561,1.51648 4.82553,2.27539 8.78906,2.27539 v -4.34375 c -0.9995,0 -1.84389,-0.0509 -2.5332,-0.1543 -0.65484,-0.10339 -1.36285,-0.3109 -2.12109,-0.62109 -0.75824,-0.34466 -1.34423,-0.91237 -1.75782,-1.70508 -0.37912,-0.79271 -0.56836,-1.79371 -0.56836,-3 v -10.64844 h 6.98047 v -4.34375 h -6.98047 z m -24.76367,4.39453 c -3.61888,0 -6.63429,1.25746 -9.04687,3.77344 -2.41259,2.44705 -3.61914,5.49704 -3.61914,9.15039 0,1.7922 0.31126,3.48099 0.93164,5.0664 0.65484,1.55096 1.55013,2.91216 2.6875,4.08399 1.13736,1.17182 2.46398,2.1017 3.98047,2.79101 1.55094,0.65485 3.23973,0.98242 5.0664,0.98242 1.79221,0 3.46467,-0.32757 5.01563,-0.98242 1.55094,-0.68931 2.89389,-1.61919 4.03125,-2.79101 1.13736,-1.17183 2.01634,-2.53303 2.63672,-4.08399 0.65484,-1.58541 0.98242,-3.2742 0.98242,-5.0664 0,-1.79221 -0.32758,-3.46468 -0.98242,-5.01563 -0.65485,-1.58542 -1.56841,-2.96294 -2.74024,-4.13476 -1.13736,-1.17183 -2.4803,-2.08539 -4.03125,-2.74024 -1.51648,-0.68931 -3.15437,-1.0332 -4.91211,-1.0332 z m 159.79883,0 c -3.998,-0.13787 -7.14979,1.05042 -9.45898,3.5664 -2.30919,2.51598 -3.46485,5.80807 -3.46485,9.875 0,3.65335 1.17197,6.63417 3.51563,8.94336 2.34366,2.3092 5.47913,3.46289 9.4082,3.46289 3.23976,0 6.04961,-0.96445 8.42774,-2.89453 l -3.10157,-3.05078 c -1.37862,1.06843 -3.15484,1.60352 -5.32617,1.60352 -2.41259,0 -4.3761,-0.7935 -5.89258,-2.37891 -1.48202,-1.58541 -2.22265,-3.65267 -2.22265,-6.20312 0,-2.41259 0.68974,-4.47986 2.06836,-6.20313 1.41308,-1.72328 3.34201,-2.58594 5.78906,-2.58594 1.24076,0 2.25807,0.27668 3.05078,0.82813 0.79271,0.51698 1.18945,1.30852 1.18945,2.37695 0,1.65435 -0.4496,2.84458 -1.3457,3.56836 -0.89611,0.68931 -2.49745,1.0332 -4.80664,1.0332 h -2.48242 v 3.98047 h 2.11914 c 7.54794,0 11.32226,-2.87707 11.32226,-8.63281 0,-4.61839 -2.92992,-7.04781 -8.78906,-7.28906 z m 61.00391,0 c -3.61888,0 -6.63429,1.25746 -9.04688,3.77344 -2.41258,2.44705 -3.61914,5.49704 -3.61914,9.15039 0,1.7922 0.31126,3.48099 0.93164,5.0664 0.65484,1.55096 1.55014,2.91216 2.6875,4.08399 1.13736,1.17182 2.46398,2.1017 3.98047,2.79101 1.55095,0.65485 3.23973,0.98242 5.06641,0.98242 1.7922,0 3.46467,-0.32757 5.01562,-0.98242 1.55095,-0.68931 2.89585,-1.61919 4.03321,-2.79101 1.13736,-1.17183 2.01633,-2.53303 2.63671,-4.08399 0.65484,-1.58541 0.98047,-3.2742 0.98047,-5.0664 0,-1.79221 -0.32563,-3.46468 -0.98047,-5.01563 -0.65484,-1.58542 -1.5684,-2.96294 -2.74023,-4.13476 -1.13737,-1.17183 -2.48226,-2.08539 -4.0332,-2.74024 -1.51649,-0.68931 -3.15437,-1.0332 -4.91211,-1.0332 z m -145.78711,0.51562 c -1.34416,0 -2.41433,0.0346 -3.20703,0.10352 -0.75825,0.0689 -1.65354,0.29275 -2.6875,0.67187 -1.03396,0.37913 -1.91294,0.94879 -2.63672,1.70703 -1.48202,1.51648 -2.22266,4.25521 -2.22266,8.21875 v 14.11524 h 4.54883 v -14.11328 c 0,-2.48152 0.32758,-4.13767 0.98242,-4.96485 0.37912,-0.44805 0.82677,-0.77367 1.34375,-0.98046 0.51698,-0.2068 0.96659,-0.32882 1.34571,-0.36329 0.37912,-0.0345 0.91225,-0.0508 1.60156,-0.0508 h 5.48047 v -4.34375 z m 9.30469,0 v 4.34375 h 8.27148 c 4.06693,0 6.10156,2.08554 6.10156,6.25586 v 9.87305 h -6.82422 c -3.37762,0 -5.0664,-1.13738 -5.0664,-3.41211 0,-1.17183 0.44764,-2.06712 1.34375,-2.6875 0.8961,-0.65485 2.15356,-0.98242 3.77344,-0.98242 1.8956,0 3.4989,0.5005 4.80859,1.5 v -4.6543 c -1.75775,-0.55145 -3.41195,-0.82617 -4.96289,-0.82617 -2.75725,0 -5.05028,0.65515 -6.87696,1.96484 -1.82666,1.30969 -2.74023,3.2223 -2.74023,5.73828 0,2.51598 0.86266,4.42859 2.58594,5.73828 1.72327,1.30969 4.04894,1.96485 6.97851,1.96485 h 11.5293 v -15.19922 c 0,-3.10189 -0.89725,-5.48042 -2.68945,-7.13477 -1.79221,-1.65434 -4.35997,-2.48242 -7.70313,-2.48242 z m 24.86718,0 v 24.81641 h 4.54883 v -20.47266 h 9.04688 v 20.47266 h 4.55078 v -20.47266 h 2.11914 c 2.51598,0 4.1865,0.22383 5.01367,0.67188 1.61988,0.86164 2.42969,2.6359 2.42969,5.32422 v 14.47656 h 4.55078 v -14.47656 c 0,-2.06794 -0.24209,-3.8422 -0.72461,-5.32422 -0.44805,-1.48202 -1.41252,-2.68857 -2.89453,-3.61914 -1.44756,-0.93057 -3.39475,-1.39649 -5.8418,-1.39649 z m 63.27735,0 0.36328,7.59961 c 0.24126,4.51499 1.05107,8.30757 2.42969,11.375 1.41308,3.06743 3.30742,5.18559 5.68554,6.35742 2.55045,-1.96454 4.2575,-3.94631 5.11914,-5.94531 0.86164,-1.999 1.49853,-4.94524 1.91211,-8.83984 h 0.51758 c 0.41359,3.8946 1.05048,6.84084 1.91211,8.83984 0.86164,1.999 2.56869,3.98077 5.11914,5.94531 2.37812,-1.17183 4.25615,-3.28999 5.63477,-6.35742 1.41308,-3.06743 2.24116,-6.86001 2.48242,-11.375 l 0.36133,-7.59961 h -4.60157 l -0.41406,7.39258 c -0.31019,5.65235 -1.4293,9.75424 -3.35937,12.30469 -0.51698,-0.58592 -0.99922,-1.24107 -1.44727,-1.96485 -0.44805,-0.72378 -0.82848,-1.51531 -1.13867,-2.37695 -0.31019,-0.8961 -0.58491,-1.67132 -0.82617,-2.32617 -0.2068,-0.68931 -0.4143,-1.55198 -0.6211,-2.58594 -0.17232,-1.06843 -0.2924,-1.84365 -0.36132,-2.32617 -0.0689,-0.48251 -0.17269,-1.25774 -0.31055,-2.32617 -0.1034,-1.06844 -0.17257,-1.67269 -0.20703,-1.81055 h -4.96289 c -0.0345,0.13786 -0.11996,0.74211 -0.25782,1.81055 -0.1034,1.06843 -0.19083,1.84366 -0.25976,2.32617 -0.0689,0.48252 -0.20532,1.25774 -0.41211,2.32617 -0.17233,1.03396 -0.37984,1.89663 -0.6211,2.58594 -0.20679,0.65485 -0.46519,1.43007 -0.77539,2.32617 -0.31018,0.86164 -0.68866,1.65317 -1.13671,2.37695 -0.44806,0.72378 -0.93029,1.37893 -1.44727,1.96485 -1.93007,-2.55045 -3.05114,-6.65234 -3.36133,-12.30469 l -0.41406,-7.39258 z m 76.41015,0 c -1.34415,0 -2.41237,0.0346 -3.20507,0.10352 -0.75824,0.0689 -1.65354,0.29275 -2.6875,0.67187 -1.03397,0.37913 -1.91294,0.94879 -2.63672,1.70703 -1.48202,1.51648 -2.22266,4.25521 -2.22266,8.21875 v 14.11524 h 4.54883 v -14.11328 c 0,-2.48152 0.32757,-4.13767 0.98242,-4.96485 0.37912,-0.44805 0.82677,-0.77367 1.34375,-0.98046 0.51699,-0.2068 0.96463,-0.32882 1.34375,-0.36329 0.37912,-0.0345 0.91421,-0.0508 1.60352,-0.0508 h 5.48046 v -4.34375 z m -248.875,3.82617 c 2.44706,0 4.39425,0.80981 5.8418,2.42969 1.44755,1.58542 2.17188,3.63637 2.17187,6.15235 10e-6,2.51598 -0.72432,4.58324 -2.17187,6.20312 -1.44755,1.58541 -3.39474,2.37891 -5.8418,2.37891 -2.41258,0 -4.35977,-0.7935 -5.84179,-2.37891 -1.44756,-1.58541 -2.17188,-3.65267 -2.17188,-6.20312 0,-2.55045 0.72432,-4.61772 2.17188,-6.20313 1.48202,-1.58542 3.42921,-2.37891 5.84179,-2.37891 z m 220.80274,0 c 2.44705,0 4.39424,0.80981 5.84179,2.42969 1.44756,1.58542 2.17188,3.63637 2.17188,6.15235 0,2.51598 -0.72432,4.58324 -2.17188,6.20312 -1.44755,1.58541 -3.39474,2.37891 -5.84179,2.37891 -2.41259,0 -4.35978,-0.7935 -5.8418,-2.37891 -1.44755,-1.58541 -2.16992,-3.65267 -2.16992,-6.20312 0,-2.55045 0.72237,-4.61772 2.16992,-6.20313 1.48202,-1.58542 3.42921,-2.37891 5.8418,-2.37891 z" />
    </g>
    <text
       xml:space="preserve"
       id="text14766"
       style="font-style:normal;font-weight:normal;font-size:40px;line-height:1.25;font-family:sans-serif;white-space:pre;shape-inside:url(#rect14768);fill:#000000;fill-opacity:1;stroke:none" />
  </g>
  <g
     inkscape:groupmode="layer"
     id="layer2"
     inkscape:label="White"
     style="display:inline" />
  <g
     inkscape:groupmode="layer"
     id="layer3"
     inkscape:label="Eye">
    <g
       id="g171924"
       transform="matrix(0.27637592,0,0,0.27637592,2045.6265,-1720.0733)">
      <path
         id="path13325"
         style="display:inline;fill:#000000;fill-opacity:0.497268;stroke:none;stroke-width:6.3;stroke-miterlimit:4;stroke-dasharray:none;stroke-opacity:1"
         d="m -6301.4916,6694.8952 a 113.45831,113.59309 0 0 1 2.2891,1.5313 113.45831,113.59309 0 0 1 0.6465,0.9687 227.45477,226.91762 0 0 1 -2.2578,-1.8242 227.45477,226.91762 0 0 1 -0.6778,-0.6758 z" />
      <path
         id="path13327"
         style="display:inline;fill:#000000;fill-opacity:0.497268;stroke:none;stroke-width:6.3;stroke-miterlimit:4;stroke-dasharray:none;stroke-opacity:1"
         d="m -6301.4916,6694.8952 a 227.45477,226.91762 0 0 0 0.6778,0.6758 227.45477,226.91762 0 0 0 2.2578,1.8242 113.45831,113.59309 0 0 0 -0.6465,-0.9687 113.45831,113.59309 0 0 0 -2.2891,-1.5313 z" />
      <path
         id="path13329"
         style="display:inline;fill:#000000;fill-opacity:0.497268;stroke:none;stroke-width:6.3;stroke-miterlimit:4;stroke-dasharray:none;stroke-opacity:1"
         d="m -6323.3607,6438.2195 a 113.45831,113.59309 0 0 1 2.2891,1.5312 113.45831,113.59309 0 0 1 0.6465,0.9688 227.45477,226.91762 0 0 1 -2.2579,-1.8242 227.45477,226.91762 0 0 1 -0.6777,-0.6758 z" />
      <path
         id="path13331"
         style="display:inline;fill:#000000;fill-opacity:0.497268;stroke:none;stroke-width:6.3;stroke-miterlimit:4;stroke-dasharray:none;stroke-opacity:1"
         d="m -6323.3607,6438.2195 a 227.45477,226.91762 0 0 0 0.6777,0.6758 227.45477,226.91762 0 0 0 2.2579,1.8242 113.45831,113.59309 0 0 0 -0.6465,-0.9688 113.45831,113.59309 0 0 0 -2.2891,-1.5312 z" />
      <path
         id="path13333"
         style="display:inline;fill:#afafe9;fill-opacity:1;stroke:none;stroke-width:6.3;stroke-miterlimit:4;stroke-dasharray:none;stroke-opacity:1"
         d="m -6891.5375,6617.1471 a 568.50165,565.01081 0 0 1 -0.8653,-3.1094 568.50165,565.01081 0 0 1 -6.1133,-27.0586 568.50165,565.01081 0 0 1 -4.7695,-27.3242 568.50165,565.01081 0 0 1 -3.416,-27.5235 568.50165,565.01081 0 0 1 -2.0527,-27.6562 568.50165,565.01081 0 0 1 -0.6856,-27.7246 568.50165,565.01081 0 0 1 5.7871,-80.4082 568.50165,565.01081 0 0 1 17.2422,-78.7734 568.50165,565.01081 0 0 1 28.3457,-75.5313 568.50165,565.01081 0 0 1 38.8731,-70.7539 568.50165,565.01081 0 0 1 48.6093,-64.5351 568.50165,565.01081 0 0 1 57.3555,-57.004 568.50165,565.01081 0 0 1 64.9336,-48.3105 568.50165,565.01081 0 0 1 51.8633,-28.1464 568.50165,565.01081 0 0 1 45.0508,33.6171 568.50165,565.01081 0 0 1 24.9238,24.7715 568.50165,565.01081 0 0 0 -35.0059,34.7891 568.50165,565.01081 0 0 0 -56.8379,80.6757 568.50165,565.01081 0 0 0 -41.8808,89.2618 568.50165,565.01081 0 0 0 -25.6485,95.1308 568.50165,565.01081 0 0 0 -1.6328,18.5469 568.50165,565.01081 0 0 0 -7.0039,79.5664 568.50165,565.01081 0 0 0 1.0371,34.1152 568.50165,565.01081 0 0 0 3.1094,33.9902 568.50165,565.01081 0 0 0 5.166,33.7404 568.50165,565.01081 0 0 0 7.207,33.371 568.50165,565.01081 0 0 0 9.2227,32.875 568.50165,565.01081 0 0 0 11.2012,32.2637 568.50165,565.01081 0 0 0 13.1426,31.5332 568.50165,565.01081 0 0 0 1.4043,2.8653 568.50165,565.01081 0 0 0 13.6289,27.8203 568.50165,565.01081 0 0 0 16.8691,29.7265 568.50165,565.01081 0 0 0 12.5156,19.2383 568.50165,565.01081 0 0 1 -33.8769,-5.125 568.50165,565.01081 0 0 1 -33.5762,-7.1621 568.50165,565.01081 0 0 1 -33.0781,-9.166 568.50165,565.01081 0 0 1 -32.2617,-11.0645 568.50165,565.01081 0 0 1 -0.2012,-0.068 568.50165,565.01081 0 0 1 -31.7266,-13.0605 568.50165,565.01081 0 0 1 -30.8769,-14.9414 568.50165,565.01081 0 0 1 -29.9102,-16.7656 568.50165,565.01081 0 0 1 -28.8398,-18.5313 568.50165,565.01081 0 0 1 -27.6582,-20.2285 568.50165,565.01081 0 0 1 -9.5703,-7.9258 z" />
      <path
         id="path13335"
         style="display:inline;fill:#212178;fill-opacity:1;stroke:none;stroke-width:6.3;stroke-miterlimit:4;stroke-dasharray:none;stroke-opacity:1"
         d="m -6309.2084,6964.2352 a 568.50165,565.01081 0 0 1 -18.3496,-6.293 568.50165,565.01081 0 0 1 -31.7265,-13.0606 568.50165,565.01081 0 0 1 -30.875,-14.9414 568.50165,565.01081 0 0 1 -29.9121,-16.7675 568.50165,565.01081 0 0 1 -28.8379,-18.5313 568.50165,565.01081 0 0 1 -27.6602,-20.2266 568.50165,565.01081 0 0 1 -26.3808,-21.8515 568.50165,565.01081 0 0 1 -14.586,-13.6465 568.50165,565.01081 0 0 0 36.2285,-36.0059 568.50165,565.01081 0 0 0 46.4922,-65.9882 568.50165,565.01081 0 0 0 2.1719,-0.1895 568.50165,565.01081 0 0 0 95.7188,-25.4902 568.50165,565.01081 0 0 0 7.0546,-3.2696 568.50165,565.01081 0 0 0 12.9063,4.4258 568.50165,565.01081 0 0 0 33.0801,9.1641 568.50165,565.01081 0 0 0 33.5761,7.164 568.50165,565.01081 0 0 0 33.9493,5.1348 568.50165,565.01081 0 0 0 34.1992,3.0898 568.50165,565.01081 0 0 0 34.3261,1.0313 568.50165,565.01081 0 0 0 98.7188,-8.584 568.50165,565.01081 0 0 0 29.3379,-7.8125 568.50165,565.01081 0 0 1 -289.4317,242.6485 z m 0,0 a 568.50165,565.01081 0 0 1 -200.2851,37.7578 568.50165,565.01081 0 0 1 -201.1992,-36.7383 568.50165,565.01081 0 0 0 78.1386,-36.211 568.50165,565.01081 0 0 0 81.1739,-56.4903 568.50165,565.01081 0 0 0 33.8437,-33.6367 568.50165,565.01081 0 0 0 14.586,13.6465 568.50165,565.01081 0 0 0 26.3808,21.8515 568.50165,565.01081 0 0 0 27.6602,20.2266 568.50165,565.01081 0 0 0 28.8379,18.5313 568.50165,565.01081 0 0 0 29.9121,16.7675 568.50165,565.01081 0 0 0 30.875,14.9414 568.50165,565.01081 0 0 0 31.7265,13.0606 568.50165,565.01081 0 0 0 18.3496,6.2931 z" />
      <path
         style="display:inline;fill:#e6e6e6;fill-opacity:1;stroke:none;stroke-width:0.4;stroke-miterlimit:4;stroke-dasharray:none;stroke-opacity:1"
         d="m -6687.434,6254.6412 a 227.45477,226.91762 0 0 1 70.2871,11.1055 227.45477,226.91762 0 0 1 24.7656,12.5898 227.45477,226.91762 0 0 1 38.6406,19.6407 227.45477,226.91762 0 0 1 21.3985,21.3476 568.50165,565.01081 0 0 0 -8.877,16.5039 568.50165,565.01081 0 0 0 -0.9004,1.6758 568.50165,565.01081 0 0 0 -22.2988,66.1113 568.50165,565.01081 0 0 1 -251.9941,-108.5234 227.45477,226.91762 0 0 1 58.6914,-29.3457 227.45477,226.91762 0 0 1 4.5058,-0.7129 227.45477,226.91762 0 0 1 7.9219,-1.25 227.45477,226.91762 0 0 1 57.8594,-9.1426 z"
         id="path13337" />
      <path
         id="path13339"
         style="display:inline;opacity:1;fill:#e6e6e6;fill-opacity:1;stroke-width:13.3542"
         d="m -6322.2719,6464.7955 a 568.50165,565.01081 0 0 0 5.4922,-62.3945 568.50165,565.01081 0 0 0 -7.1309,-81.0176 568.50165,565.01081 0 0 1 6.2871,-1.6738 568.50165,565.01081 0 0 1 98.7207,-8.584 568.50165,565.01081 0 0 1 98.7188,8.584 568.50165,565.01081 0 0 1 95.7187,25.4902 568.50165,565.01081 0 0 1 67.4785,31.2715 568.50165,565.01081 0 0 1 -8.6406,16.0664 568.50165,565.01081 0 0 1 -13.7988,25.6582 568.50165,565.01081 0 0 1 -49.3692,59.7891 568.50165,565.01081 0 0 1 -10.8183,3.2617 568.50165,565.01081 0 0 1 -110.9082,10.8574 568.50165,565.01081 0 0 1 -110.9082,-10.8574 568.50165,565.01081 0 0 1 -60.8418,-16.4512 z" />
      <path
         id="path13341"
         style="display:inline;opacity:1;fill:#1a1a1a;stroke-width:13.3542"
         d="m -7055.5356,5791.9498 a 340.51014,339.16576 0 0 1 88.1309,11.5567 340.51014,339.16576 0 0 1 27.2675,11.25 340.51014,339.16576 0 0 1 54.8575,22.6329 568.50165,565.01081 0 0 0 -98.7207,8.5839 568.50165,565.01081 0 0 0 -54.8868,14.6172 340.51014,339.16576 0 0 0 -19.5507,-22.2071 340.51014,339.16576 0 0 0 -54.336,-41.5293 340.51014,339.16576 0 0 1 27.5606,-3.6152 340.51014,339.16576 0 0 1 29.6777,-1.2891 z m 16.6484,68.6407 a 568.50165,565.01081 0 0 1 54.8868,-14.6172 568.50165,565.01081 0 0 1 98.7207,-8.5839 340.51014,339.16576 0 0 1 70.5215,53.8984 340.51014,339.16576 0 0 1 37.8359,49.037 568.50165,565.01081 0 0 1 17.0371,-7.9023 568.50165,565.01081 0 0 1 32.8359,-17.4434 568.50165,565.01081 0 0 1 9.5098,-2.8671 568.50165,565.01081 0 0 1 67.457,-21.7579 568.50165,565.01081 0 0 1 49.0528,22.7324 568.50165,565.01081 0 0 1 81.1757,56.4904 568.50165,565.01081 0 0 1 70.0704,69.6405 568.50165,565.01081 0 0 1 56.8398,80.6777 568.50165,565.01081 0 0 1 41.8809,89.2598 568.50165,565.01081 0 0 1 25.6464,95.1329 568.50165,565.01081 0 0 1 1.5059,17.0956 568.50165,565.01081 0 0 0 -89.4316,23.8164 568.50165,565.01081 0 0 0 -89.8125,41.6231 568.50165,565.01081 0 0 0 -69.1602,48.1289 568.50165,565.01081 0 0 1 30.1953,-97.4473 568.50165,565.01081 0 0 1 0.9004,-1.6758 568.50165,565.01081 0 0 1 8.877,-16.5039 227.45477,226.91762 0 0 0 -21.3985,-21.3476 227.45477,226.91762 0 0 0 -38.6406,-19.6407 227.45477,226.91762 0 0 0 -24.7656,-12.5898 227.45477,226.91762 0 0 0 -70.2871,-11.1054 227.45477,226.91762 0 0 0 -57.8594,9.1426 227.45477,226.91762 0 0 0 -7.9219,1.25 227.45477,226.91762 0 0 0 -4.5058,0.7129 227.45477,226.91762 0 0 0 -63.4082,32.2305 227.45477,226.91762 0 0 0 -50.3204,50.2011 227.45477,226.91762 0 0 0 -32.3066,63.2579 227.45477,226.91762 0 0 0 -3.5723,22.5019 227.45477,226.91762 0 0 0 -0.7226,4.5508 568.50165,565.01081 0 0 1 -0.012,-0.016 568.50165,565.01081 0 0 0 -1.377,38.2773 568.50165,565.01081 0 0 0 0.6856,27.7246 568.50165,565.01081 0 0 0 2.0527,27.6562 568.50165,565.01081 0 0 0 3.416,27.5235 568.50165,565.01081 0 0 0 4.7695,27.3242 568.50165,565.01081 0 0 0 6.1133,27.0586 568.50165,565.01081 0 0 0 0.8653,3.1093 568.50165,565.01081 0 0 1 -16.8106,-13.9238 568.50165,565.01081 0 0 1 -25.0059,-23.3945 568.50165,565.01081 0 0 1 -23.539,-24.8516 568.50165,565.01081 0 0 1 -21.9844,-26.2187 568.50165,565.01081 0 0 1 -20.3535,-27.4903 568.50165,565.01081 0 0 1 -18.6445,-28.6601 568.50165,565.01081 0 0 1 -2.6192,-4.6172 340.51014,339.16576 0 0 1 -35.041,2.2891 340.51014,339.16576 0 0 1 -21.4121,-2.8086 568.50165,565.01081 0 0 1 -1.0469,-30.4902 568.50165,565.01081 0 0 1 6.543,-80.8867 568.50165,565.01081 0 0 1 -0.3984,-1.1505 568.50165,565.01081 0 0 1 1.7968,-8.211 568.50165,565.01081 0 0 1 2.9824,-19.9804 568.50165,565.01081 0 0 1 0.8438,-2.7637 568.50165,565.01081 0 0 1 8.4355,-33.2891 568.50165,565.01081 0 0 1 2.7598,-10.8945 568.50165,565.01081 0 0 1 20.3106,-59.0449 568.50165,565.01081 0 0 1 3.3027,-6.1407 568.50165,565.01081 0 0 1 41.5664,-77.2871 568.50165,565.01081 0 0 1 7.666,-14.2539 568.50165,565.01081 0 0 1 15.3828,-18.6289 568.50165,565.01081 0 0 1 5.7071,-8.1426 340.51014,339.16576 0 0 0 2.3925,-18.0976 340.51014,339.16576 0 0 0 -11.6035,-87.7813 340.51014,339.16576 0 0 0 -23.5019,-56.5117 340.51014,339.16576 0 0 0 -10.5157,-25.2889 340.51014,339.16576 0 0 0 -34.5625,-48.0371 z m 466.5723,574.3613 a 568.50165,565.01081 0 0 1 69.1602,-48.1289 568.50165,565.01081 0 0 1 89.8125,-41.6231 568.50165,565.01081 0 0 1 89.4316,-23.8164 568.50165,565.01081 0 0 1 7.1309,81.0177 568.50165,565.01081 0 0 1 -5.4922,62.3945 568.50165,565.01081 0 0 1 -37.8301,-13.2968 227.45477,226.91762 0 0 1 -4.3223,4.3144 227.45477,226.91762 0 0 1 -34.1992,34.1172 227.45477,226.91762 0 0 1 -63.4082,32.2304 227.45477,226.91762 0 0 1 -4.5058,0.7129 227.45477,226.91762 0 0 1 -65.7813,10.3945 227.45477,226.91762 0 0 1 -23.7754,-1.2441 227.45477,226.91762 0 0 1 -23.5156,-3.7148 227.45477,226.91762 0 0 1 -3.1797,-0.8496 568.50165,565.01081 0 0 1 8.3203,-83.9629 568.50165,565.01081 0 0 1 2.1543,-8.545 z m 615.3281,-58.4805 a 568.50165,565.01081 0 0 0 -67.4785,-31.2715 568.50165,565.01081 0 0 0 -95.7187,-25.4902 568.50165,565.01081 0 0 0 -98.7188,-8.584 568.50165,565.01081 0 0 0 -98.7207,8.584 568.50165,565.01081 0 0 0 -6.2871,1.6738 568.50165,565.01081 0 0 0 -1.5059,-17.0957 568.50165,565.01081 0 0 0 -25.6464,-95.1328 568.50165,565.01081 0 0 0 -41.8809,-89.2598 568.50165,565.01081 0 0 0 -56.8398,-80.6777 568.50165,565.01081 0 0 0 -70.0704,-69.6406 568.50165,565.01081 0 0 0 -81.1757,-56.4903 568.50165,565.01081 0 0 0 -49.0528,-22.7324 568.50165,565.01081 0 0 1 29.6797,-7.5273 568.50165,565.01081 0 0 1 110.9102,-10.8555 568.50165,565.01081 0 0 1 110.9082,10.8555 568.50165,565.01081 0 0 1 106.6465,32.1523 568.50165,565.01081 0 0 1 98.2871,52.2129 568.50165,565.01081 0 0 1 46.7558,38.1348 568.50165,565.01081 0 0 1 39.3926,32.1308 568.50165,565.01081 0 0 1 70.7012,85.6211 568.50165,565.01081 0 0 1 52.5351,97.6817 568.50165,565.01081 0 0 1 32.3516,105.9922 568.50165,565.01081 0 0 1 3.3711,34.0195 568.50165,565.01081 0 0 1 -8.4434,15.6992 z" />
      <path
         id="path13343"
         style="display:inline;fill:#3737c8;fill-opacity:0.997123;stroke:none;stroke-width:6.3;stroke-miterlimit:4;stroke-dasharray:none;stroke-opacity:1"
         d="m -6517.5365,6838.9167 a 568.50165,565.01081 0 0 1 -10.4179,-9.7461 568.50165,565.01081 0 0 1 -23.5391,-24.8516 568.50165,565.01081 0 0 1 -21.9863,-26.2187 568.50165,565.01081 0 0 1 -20.3516,-27.4902 568.50165,565.01081 0 0 1 -6.1309,-9.4239 568.50165,565.01081 0 0 0 0.074,0.012 568.50165,565.01081 0 0 0 34.1992,3.0879 568.50165,565.01081 0 0 0 34.3262,1.0313 568.50165,565.01081 0 0 0 96.5468,-8.3946 568.50165,565.01081 0 0 1 -46.4922,65.9883 568.50165,565.01081 0 0 1 -36.2285,36.0059 z m 0,0 a 568.50165,565.01081 0 0 1 -33.8437,33.6367 568.50165,565.01081 0 0 1 -81.1739,56.4903 568.50165,565.01081 0 0 1 -78.1386,36.211 568.50165,565.01081 0 0 1 -274.6582,-219.336 568.50165,565.01081 0 0 0 12.3496,1.1153 568.50165,565.01081 0 0 0 34.3262,1.0293 568.50165,565.01081 0 0 0 98.7187,-8.5821 568.50165,565.01081 0 0 0 95.7207,-25.4921 568.50165,565.01081 0 0 0 11.4805,-5.3204 568.50165,565.01081 0 0 0 32.2617,11.0645 568.50165,565.01081 0 0 0 33.0781,9.166 568.50165,565.01081 0 0 0 33.5762,7.1621 568.50165,565.01081 0 0 0 33.8769,5.125 568.50165,565.01081 0 0 0 6.1309,9.4239 568.50165,565.01081 0 0 0 20.3516,27.4902 568.50165,565.01081 0 0 0 21.9863,26.2187 568.50165,565.01081 0 0 0 23.5391,24.8516 568.50165,565.01081 0 0 0 10.4179,9.746 z m -554.3144,-483.9726 a 568.50165,565.01081 0 0 0 8.9297,25.7188 568.50165,565.01081 0 0 0 13.1406,31.5312 568.50165,565.01081 0 0 0 15.0332,30.6855 568.50165,565.01081 0 0 0 16.8711,29.7285 568.50165,565.01081 0 0 0 18.6445,28.6602 568.50165,565.01081 0 0 0 20.3535,27.4903 568.50165,565.01081 0 0 0 21.9844,26.2187 568.50165,565.01081 0 0 0 23.5391,24.8516 568.50165,565.01081 0 0 0 25.0058,23.3945 568.50165,565.01081 0 0 0 26.3809,21.8496 568.50165,565.01081 0 0 0 27.6582,20.2286 568.50165,565.01081 0 0 0 28.8398,18.5312 568.50165,565.01081 0 0 0 29.9102,16.7656 568.50165,565.01081 0 0 0 30.8769,14.9414 568.50165,565.01081 0 0 0 31.7266,13.0606 568.50165,565.01081 0 0 0 0.2012,0.068 568.50165,565.01081 0 0 1 -11.4805,5.3203 568.50165,565.01081 0 0 1 -95.7207,25.4922 568.50165,565.01081 0 0 1 -98.7187,8.582 568.50165,565.01081 0 0 1 -34.3262,-1.0293 568.50165,565.01081 0 0 1 -12.3496,-1.1152 568.50165,565.01081 0 0 1 -92.6446,-308.9355 568.50165,565.01081 0 0 1 6.1446,-82.0391 z" />
      <path
         id="path13345"
         style="display:inline;fill:#e6e6e6;fill-opacity:1"
         d="m -6342.0604,6129.7516 a 227.45477,226.91762 0 0 0 2.5371,9.4454 227.45477,226.91762 0 0 0 16.7559,35.8477 227.45477,226.91762 0 0 0 22.7402,32.4004 227.45477,226.91762 0 0 0 28.0352,27.9707 227.45477,226.91762 0 0 0 32.4785,22.6875 227.45477,226.91762 0 0 0 35.9336,16.7148 227.45477,226.91762 0 0 0 16.873,4.5118 113.45831,113.59309 0 0 0 2.3535,-0.9766 113.45831,113.59309 0 0 0 23.4981,-18.0527 113.45831,113.59309 0 0 0 18.0293,-23.5254 113.45831,113.59309 0 0 0 7.9492,-19.213 227.45477,226.91762 0 0 0 -13.5352,-19.2852 227.45477,226.91762 0 0 0 -28.0351,-27.9707 227.45477,226.91762 0 0 0 -32.4785,-22.6875 227.45477,226.91762 0 0 0 -35.9336,-16.7148 227.45477,226.91762 0 0 0 -38.2969,-10.2383 227.45477,226.91762 0 0 0 -39.4961,-3.4473 227.45477,226.91762 0 0 0 -12.9883,1.1329 113.45831,113.59309 0 0 0 -3.7011,4.8301 113.45831,113.59309 0 0 0 -2.7188,6.5702 z" />
    </g>
  </g>
</svg>
