<?xml version="1.0" encoding="UTF-8" standalone="no"?>
<!DOCTYPE svg PUBLIC "-//W3C//DTD SVG 1.1//EN"
 "http://www.w3.org/Graphics/SVG/1.1/DTD/svg11.dtd">
<!-- Generated by graphviz version 2.43.0 (0)
 -->
<!-- Title: include/discord&#45;internal.h Pages: 1 -->
<svg width="1196pt" height="140pt"
 viewBox="0.00 0.00 1195.50 140.00" xmlns="http://www.w3.org/2000/svg" xmlns:xlink="http://www.w3.org/1999/xlink">
<g id="graph0" class="graph" transform="scale(1 1) rotate(0) translate(4 136)">
<title>include/discord&#45;internal.h</title>
<!-- Node1 -->
<g id="node1" class="node">
<title>Node1</title>
<g id="a_node1"><a xlink:title="Internal functions and datatypes.">
<polygon fill="#bfbfbf" stroke="black" points="520.5,-112.5 520.5,-131.5 660.5,-131.5 660.5,-112.5 520.5,-112.5"/>
<text text-anchor="middle" x="590.5" y="-119.5" font-family="Helvetica,sans-Serif" font-size="10.00">include/discord&#45;internal.h</text>
</a>
</g>
</g>
<!-- Node2 -->
<g id="node2" class="node">
<title>Node2</title>
<g id="a_node2"><a xlink:title=" ">
<polygon fill="none" stroke="#bfbfbf" points="0,-56.5 0,-75.5 65,-75.5 65,-56.5 0,-56.5"/>
<text text-anchor="middle" x="32.5" y="-63.5" font-family="Helvetica,sans-Serif" font-size="10.00">inttypes.h</text>
</a>
</g>
</g>
<!-- Node1&#45;&gt;Node2 -->
<g id="edge1" class="edge">
<title>Node1&#45;&gt;Node2</title>
<path fill="none" stroke="midnightblue" d="M520.33,-117.77C422.63,-112.64 239.95,-100.73 75.41,-76.12"/>
<polygon fill="midnightblue" stroke="midnightblue" points="75.51,-72.59 65.1,-74.56 74.47,-79.51 75.51,-72.59"/>
</g>
<!-- Node3 -->
<g id="node3" class="node">
<title>Node3</title>
<g id="a_node3"><a xlink:title=" ">
<polygon fill="none" stroke="#bfbfbf" points="83,-56.5 83,-75.5 146,-75.5 146,-56.5 83,-56.5"/>
<text text-anchor="middle" x="114.5" y="-63.5" font-family="Helvetica,sans-Serif" font-size="10.00">pthread.h</text>
</a>
</g>
</g>
<!-- Node1&#45;&gt;Node3 -->
<g id="edge2" class="edge">
<title>Node1&#45;&gt;Node3</title>
<path fill="none" stroke="midnightblue" d="M520.49,-116.21C436.37,-109.9 290.82,-97.24 156.29,-75.95"/>
<polygon fill="midnightblue" stroke="midnightblue" points="156.64,-72.46 146.22,-74.33 155.54,-79.37 156.64,-72.46"/>
</g>
<!-- Node4 -->
<g id="node4" class="node">
<title>Node4</title>
<g id="a_node4"><a xlink:title=" ">
<polygon fill="none" stroke="#bfbfbf" points="164.5,-56.5 164.5,-75.5 238.5,-75.5 238.5,-56.5 164.5,-56.5"/>
<text text-anchor="middle" x="201.5" y="-63.5" font-family="Helvetica,sans-Serif" font-size="10.00">json&#45;build.h</text>
</a>
</g>
</g>
<!-- Node1&#45;&gt;Node4 -->
<g id="edge3" class="edge">
<title>Node1&#45;&gt;Node4</title>
<path fill="none" stroke="midnightblue" d="M520.35,-113.1C453.13,-105.24 348.6,-92.23 248.59,-76.09"/>
<polygon fill="midnightblue" stroke="midnightblue" points="249.05,-72.62 238.62,-74.47 247.93,-79.53 249.05,-72.62"/>
</g>
<!-- Node5 -->
<g id="node5" class="node">
<title>Node5</title>
<g id="a_node5"><a xlink:title=" ">
<polygon fill="none" stroke="#bfbfbf" points="256.5,-56.5 256.5,-75.5 306.5,-75.5 306.5,-56.5 256.5,-56.5"/>
<text text-anchor="middle" x="281.5" y="-63.5" font-family="Helvetica,sans-Serif" font-size="10.00">jsmn.h</text>
</a>
</g>
</g>
<!-- Node1&#45;&gt;Node5 -->
<g id="edge4" class="edge">
<title>Node1&#45;&gt;Node5</title>
<path fill="none" stroke="midnightblue" d="M529,-112.5C473.27,-104.41 389.03,-91.25 316.5,-76 316.4,-75.98 316.3,-75.96 316.2,-75.94"/>
<polygon fill="midnightblue" stroke="midnightblue" points="317.2,-72.58 306.67,-73.76 315.64,-79.4 317.2,-72.58"/>
</g>
<!-- Node6 -->
<g id="node6" class="node">
<title>Node6</title>
<g id="a_node6"><a xlink:title=" ">
<polygon fill="none" stroke="#bfbfbf" points="325,-56.5 325,-75.5 396,-75.5 396,-56.5 325,-56.5"/>
<text text-anchor="middle" x="360.5" y="-63.5" font-family="Helvetica,sans-Serif" font-size="10.00">jsmn&#45;find.h</text>
</a>
</g>
</g>
<!-- Node1&#45;&gt;Node6 -->
<g id="edge5" class="edge">
<title>Node1&#45;&gt;Node6</title>
<path fill="none" stroke="midnightblue" d="M554.06,-112.44C513.95,-103.03 449.43,-87.88 406.03,-77.69"/>
<polygon fill="midnightblue" stroke="midnightblue" points="406.55,-74.22 396.02,-75.34 404.95,-81.03 406.55,-74.22"/>
</g>
<!-- Node7 -->
<g id="node7" class="node">
<title>Node7</title>
<g id="a_node7"><a xlink:title=" ">
<polygon fill="none" stroke="#bfbfbf" points="477,-0.5 477,-19.5 538,-19.5 538,-0.5 477,-0.5"/>
<text text-anchor="middle" x="507.5" y="-7.5" font-family="Helvetica,sans-Serif" font-size="10.00">logconf.h</text>
</a>
</g>
</g>
<!-- Node1&#45;&gt;Node7 -->
<g id="edge6" class="edge">
<title>Node1&#45;&gt;Node7</title>
<path fill="none" stroke="midnightblue" d="M520.16,-117.12C491.64,-111.65 461.28,-100.03 443.5,-76 428.87,-56.22 455.57,-36.5 478.83,-24.06"/>
<polygon fill="midnightblue" stroke="midnightblue" points="480.47,-27.16 487.8,-19.51 477.3,-20.91 480.47,-27.16"/>
</g>
<!-- Node8 -->
<g id="node8" class="node">
<title>Node8</title>
<g id="a_node8"><a xlink:title=" ">
<polygon fill="none" stroke="#bfbfbf" points="452.5,-56.5 452.5,-75.5 530.5,-75.5 530.5,-56.5 452.5,-56.5"/>
<text text-anchor="middle" x="491.5" y="-63.5" font-family="Helvetica,sans-Serif" font-size="10.00">user&#45;agent.h</text>
</a>
</g>
</g>
<!-- Node1&#45;&gt;Node8 -->
<g id="edge7" class="edge">
<title>Node1&#45;&gt;Node8</title>
<path fill="none" stroke="midnightblue" d="M574.59,-112.32C558.86,-103.74 534.56,-90.49 516.29,-80.52"/>
<polygon fill="midnightblue" stroke="midnightblue" points="517.82,-77.37 507.37,-75.65 514.47,-83.52 517.82,-77.37"/>
</g>
<!-- Node9 -->
<g id="node9" class="node">
<title>Node9</title>
<g id="a_node9"><a xlink:href="../../da/dc5/websockets_8h.html" target="_top" xlink:title=" ">
<polygon fill="none" stroke="red" points="549,-56.5 549,-75.5 632,-75.5 632,-56.5 549,-56.5"/>
<text text-anchor="middle" x="590.5" y="-63.5" font-family="Helvetica,sans-Serif" font-size="10.00">websockets.h</text>
</a>
</g>
</g>
<!-- Node1&#45;&gt;Node9 -->
<g id="edge8" class="edge">
<title>Node1&#45;&gt;Node9</title>
<path fill="none" stroke="midnightblue" d="M590.5,-112.08C590.5,-105.01 590.5,-94.86 590.5,-85.99"/>
<polygon fill="midnightblue" stroke="midnightblue" points="594,-85.75 590.5,-75.75 587,-85.75 594,-85.75"/>
</g>
<!-- Node12 -->
<g id="node10" class="node">
<title>Node12</title>
<g id="a_node10"><a xlink:href="../../d5/d62/work_8h.html" target="_top" xlink:title=" ">
<polygon fill="none" stroke="black" points="650.5,-56.5 650.5,-75.5 700.5,-75.5 700.5,-56.5 650.5,-56.5"/>
<text text-anchor="middle" x="675.5" y="-63.5" font-family="Helvetica,sans-Serif" font-size="10.00">work.h</text>
</a>
</g>
</g>
<!-- Node1&#45;&gt;Node12 -->
<g id="edge10" class="edge">
<title>Node1&#45;&gt;Node12</title>
<path fill="none" stroke="midnightblue" d="M604.16,-112.32C617.42,-103.9 637.77,-90.97 653.35,-81.07"/>
<polygon fill="midnightblue" stroke="midnightblue" points="655.31,-83.97 661.88,-75.65 651.56,-78.06 655.31,-83.97"/>
</g>
<!-- Node13 -->
<g id="node11" class="node">
<title>Node13</title>
<g id="a_node11"><a xlink:title=" ">
<polygon fill="none" stroke="#bfbfbf" points="718.5,-56.5 718.5,-75.5 786.5,-75.5 786.5,-56.5 718.5,-56.5"/>
<text text-anchor="middle" x="752.5" y="-63.5" font-family="Helvetica,sans-Serif" font-size="10.00">cog&#45;utils.h</text>
</a>
</g>
</g>
<!-- Node1&#45;&gt;Node13 -->
<g id="edge11" class="edge">
<title>Node1&#45;&gt;Node13</title>
<path fill="none" stroke="midnightblue" d="M616.17,-112.44C643.42,-103.36 686.68,-88.94 717.15,-78.78"/>
<polygon fill="midnightblue" stroke="midnightblue" points="718.57,-82 726.95,-75.52 716.36,-75.36 718.57,-82"/>
</g>
<!-- Node14 -->
<g id="node12" class="node">
<title>Node14</title>
<g id="a_node12"><a xlink:href="../../d4/dd6/io__poller_8h_source.html" target="_top" xlink:title=" ">
<polygon fill="none" stroke="red" points="805,-56.5 805,-75.5 872,-75.5 872,-56.5 805,-56.5"/>
<text text-anchor="middle" x="838.5" y="-63.5" font-family="Helvetica,sans-Serif" font-size="10.00">io_poller.h</text>
</a>
</g>
</g>
<!-- Node1&#45;&gt;Node14 -->
<g id="edge12" class="edge">
<title>Node1&#45;&gt;Node14</title>
<path fill="none" stroke="midnightblue" d="M629.8,-112.44C674.84,-102.64 748.45,-86.61 795.14,-76.44"/>
<polygon fill="midnightblue" stroke="midnightblue" points="795.93,-79.85 804.95,-74.3 794.44,-73.01 795.93,-79.85"/>
</g>
<!-- Node16 -->
<g id="node13" class="node">
<title>Node16</title>
<g id="a_node13"><a xlink:title=" ">
<polygon fill="none" stroke="#bfbfbf" points="890,-56.5 890,-75.5 949,-75.5 949,-56.5 890,-56.5"/>
<text text-anchor="middle" x="919.5" y="-63.5" font-family="Helvetica,sans-Serif" font-size="10.00">uthash.h</text>
</a>
</g>
</g>
<!-- Node1&#45;&gt;Node16 -->
<g id="edge13" class="edge">
<title>Node1&#45;&gt;Node16</title>
<path fill="none" stroke="midnightblue" d="M655.19,-112.49C712.02,-104.68 797.14,-92.15 879.63,-76.25"/>
<polygon fill="midnightblue" stroke="midnightblue" points="880.53,-79.64 889.68,-74.3 879.19,-72.77 880.53,-79.64"/>
</g>
<!-- Node17 -->
<g id="node14" class="node">
<title>Node17</title>
<g id="a_node14"><a xlink:title=" ">
<polygon fill="none" stroke="#bfbfbf" points="967.5,-56.5 967.5,-75.5 1023.5,-75.5 1023.5,-56.5 967.5,-56.5"/>
<text text-anchor="middle" x="995.5" y="-63.5" font-family="Helvetica,sans-Serif" font-size="10.00">queue.h</text>
</a>
</g>
</g>
<!-- Node1&#45;&gt;Node17 -->
<g id="edge14" class="edge">
<title>Node1&#45;&gt;Node17</title>
<path fill="none" stroke="midnightblue" d="M660.73,-114.88C732.81,-108.03 848.34,-95.53 957.12,-76.06"/>
<polygon fill="midnightblue" stroke="midnightblue" points="958.08,-79.45 967.29,-74.22 956.83,-72.56 958.08,-79.45"/>
</g>
<!-- Node18 -->
<g id="node15" class="node">
<title>Node18</title>
<g id="a_node15"><a xlink:title=" ">
<polygon fill="none" stroke="#bfbfbf" points="1042,-56.5 1042,-75.5 1107,-75.5 1107,-56.5 1042,-56.5"/>
<text text-anchor="middle" x="1074.5" y="-63.5" font-family="Helvetica,sans-Serif" font-size="10.00">heap&#45;inl.h</text>
</a>
</g>
</g>
<!-- Node1&#45;&gt;Node18 -->
<g id="edge15" class="edge">
<title>Node1&#45;&gt;Node18</title>
<path fill="none" stroke="midnightblue" d="M660.85,-116.23C746.18,-109.91 894.55,-97.2 1031.31,-76.02"/>
<polygon fill="midnightblue" stroke="midnightblue" points="1032.21,-79.42 1041.55,-74.42 1031.13,-72.51 1032.21,-79.42"/>
</g>
<!-- Node19 -->
<g id="node16" class="node">
<title>Node19</title>
<g id="a_node16"><a xlink:title=" ">
<polygon fill="none" stroke="#bfbfbf" points="1125.5,-56.5 1125.5,-75.5 1187.5,-75.5 1187.5,-56.5 1125.5,-56.5"/>
<text text-anchor="middle" x="1156.5" y="-63.5" font-family="Helvetica,sans-Serif" font-size="10.00">banned.h</text>
</a>
</g>
</g>
<!-- Node1&#45;&gt;Node19 -->
<g id="edge16" class="edge">
<title>Node1&#45;&gt;Node19</title>
<path fill="none" stroke="midnightblue" d="M660.63,-118.04C759.83,-113.17 946.88,-101.52 1115.1,-76.02"/>
<polygon fill="midnightblue" stroke="midnightblue" points="1115.78,-79.46 1125.13,-74.48 1114.72,-72.54 1115.78,-79.46"/>
</g>
<!-- Node9&#45;&gt;Node7 -->
<g id="edge9" class="edge">
<title>Node9&#45;&gt;Node7</title>
<path fill="none" stroke="midnightblue" d="M577.16,-56.32C564.34,-47.98 544.72,-35.21 529.56,-25.35"/>
<polygon fill="midnightblue" stroke="midnightblue" points="531.09,-22.17 520.8,-19.65 527.28,-28.04 531.09,-22.17"/>
</g>
</g>
</svg>
