<?xml version="1.0" encoding="UTF-8" standalone="no"?>
<!DOCTYPE svg PUBLIC "-//W3C//DTD SVG 1.1//EN"
 "http://www.w3.org/Graphics/SVG/1.1/DTD/svg11.dtd">
<!-- Generated by graphviz version 2.43.0 (0)
 -->
<!-- Title: include/discord&#45;internal.h Pages: 1 -->
<svg width="1157pt" height="140pt"
 viewBox="0.00 0.00 1156.50 140.00" xmlns="http://www.w3.org/2000/svg" xmlns:xlink="http://www.w3.org/1999/xlink">
<g id="graph0" class="graph" transform="scale(1 1) rotate(0) translate(4 136)">
<title>include/discord&#45;internal.h</title>
<!-- Node1 -->
<g id="node1" class="node">
<title>Node1</title>
<g id="a_node1"><a xlink:title="Internal functions and datatypes.">
<polygon fill="#bfbfbf" stroke="black" points="459.5,-112.5 459.5,-131.5 599.5,-131.5 599.5,-112.5 459.5,-112.5"/>
<text text-anchor="middle" x="529.5" y="-119.5" font-family="Helvetica,sans-Serif" font-size="10.00">include/discord&#45;internal.h</text>
</a>
</g>
</g>
<!-- Node2 -->
<g id="node2" class="node">
<title>Node2</title>
<g id="a_node2"><a xlink:title=" ">
<polygon fill="none" stroke="#bfbfbf" points="0,-56.5 0,-75.5 65,-75.5 65,-56.5 0,-56.5"/>
<text text-anchor="middle" x="32.5" y="-63.5" font-family="Helvetica,sans-Serif" font-size="10.00">inttypes.h</text>
</a>
</g>
</g>
<!-- Node1&#45;&gt;Node2 -->
<g id="edge1" class="edge">
<title>Node1&#45;&gt;Node2</title>
<path fill="none" stroke="midnightblue" d="M459.26,-116.65C371.53,-110.63 216.7,-98.12 75.27,-76.12"/>
<polygon fill="midnightblue" stroke="midnightblue" points="75.53,-72.62 65.11,-74.52 74.44,-79.53 75.53,-72.62"/>
</g>
<!-- Node3 -->
<g id="node3" class="node">
<title>Node3</title>
<g id="a_node3"><a xlink:title=" ">
<polygon fill="none" stroke="#bfbfbf" points="83,-56.5 83,-75.5 146,-75.5 146,-56.5 83,-56.5"/>
<text text-anchor="middle" x="114.5" y="-63.5" font-family="Helvetica,sans-Serif" font-size="10.00">pthread.h</text>
</a>
</g>
</g>
<!-- Node1&#45;&gt;Node3 -->
<g id="edge2" class="edge">
<title>Node1&#45;&gt;Node3</title>
<path fill="none" stroke="midnightblue" d="M459.25,-114.59C386.07,-107.44 267.93,-94.62 156.31,-75.98"/>
<polygon fill="midnightblue" stroke="midnightblue" points="156.67,-72.49 146.23,-74.28 155.5,-79.4 156.67,-72.49"/>
</g>
<!-- Node4 -->
<g id="node4" class="node">
<title>Node4</title>
<g id="a_node4"><a xlink:href="../../d9/df4/json-build_8h_source.html" target="_top" xlink:title=" ">
<polygon fill="none" stroke="red" points="164.5,-56.5 164.5,-75.5 238.5,-75.5 238.5,-56.5 164.5,-56.5"/>
<text text-anchor="middle" x="201.5" y="-63.5" font-family="Helvetica,sans-Serif" font-size="10.00">json&#45;build.h</text>
</a>
</g>
</g>
<!-- Node1&#45;&gt;Node4 -->
<g id="edge3" class="edge">
<title>Node1&#45;&gt;Node4</title>
<path fill="none" stroke="midnightblue" d="M472.42,-112.49C417.56,-104.18 332.06,-90.86 248.54,-76.14"/>
<polygon fill="midnightblue" stroke="midnightblue" points="249.09,-72.68 238.64,-74.38 247.87,-79.57 249.09,-72.68"/>
</g>
<!-- Node7 -->
<g id="node5" class="node">
<title>Node7</title>
<g id="a_node5"><a xlink:title=" ">
<polygon fill="none" stroke="#bfbfbf" points="256.5,-56.5 256.5,-75.5 306.5,-75.5 306.5,-56.5 256.5,-56.5"/>
<text text-anchor="middle" x="281.5" y="-63.5" font-family="Helvetica,sans-Serif" font-size="10.00">jsmn.h</text>
</a>
</g>
</g>
<!-- Node1&#45;&gt;Node7 -->
<g id="edge4" class="edge">
<title>Node1&#45;&gt;Node7</title>
<path fill="none" stroke="midnightblue" d="M485.5,-112.44C444.25,-104.25 380.64,-91.24 316.58,-76.17"/>
<polygon fill="midnightblue" stroke="midnightblue" points="317.25,-72.73 306.71,-73.83 315.64,-79.54 317.25,-72.73"/>
</g>
<!-- Node8 -->
<g id="node6" class="node">
<title>Node8</title>
<g id="a_node6"><a xlink:href="../../d3/d60/jsmn-find_8h_source.html" target="_top" xlink:title=" ">
<polygon fill="none" stroke="red" points="325,-56.5 325,-75.5 396,-75.5 396,-56.5 325,-56.5"/>
<text text-anchor="middle" x="360.5" y="-63.5" font-family="Helvetica,sans-Serif" font-size="10.00">jsmn&#45;find.h</text>
</a>
</g>
</g>
<!-- Node1&#45;&gt;Node8 -->
<g id="edge5" class="edge">
<title>Node1&#45;&gt;Node8</title>
<path fill="none" stroke="midnightblue" d="M502.72,-112.44C474.17,-103.32 428.77,-88.81 396.96,-78.65"/>
<polygon fill="midnightblue" stroke="midnightblue" points="397.74,-75.23 387.15,-75.52 395.61,-81.89 397.74,-75.23"/>
</g>
<!-- Node9 -->
<g id="node7" class="node">
<title>Node9</title>
<g id="a_node7"><a xlink:title=" ">
<polygon fill="none" stroke="#bfbfbf" points="369,-0.5 369,-19.5 428,-19.5 428,-0.5 369,-0.5"/>
<text text-anchor="middle" x="398.5" y="-7.5" font-family="Helvetica,sans-Serif" font-size="10.00">uthash.h</text>
</a>
</g>
</g>
<!-- Node1&#45;&gt;Node9 -->
<g id="edge14" class="edge">
<title>Node1&#45;&gt;Node9</title>
<path fill="none" stroke="midnightblue" d="M518.9,-112.44C507.78,-103.44 489.83,-88.82 474.5,-76 454.5,-59.27 431.81,-39.8 416.47,-26.56"/>
<polygon fill="midnightblue" stroke="midnightblue" points="418.62,-23.79 408.77,-19.9 414.04,-29.09 418.62,-23.79"/>
</g>
<!-- Node12 -->
<g id="node8" class="node">
<title>Node12</title>
<g id="a_node8"><a xlink:title=" ">
<polygon fill="none" stroke="#bfbfbf" points="458,-0.5 458,-19.5 519,-19.5 519,-0.5 458,-0.5"/>
<text text-anchor="middle" x="488.5" y="-7.5" font-family="Helvetica,sans-Serif" font-size="10.00">logconf.h</text>
</a>
</g>
</g>
<!-- Node1&#45;&gt;Node12 -->
<g id="edge7" class="edge">
<title>Node1&#45;&gt;Node12</title>
<path fill="none" stroke="midnightblue" d="M515.13,-112.33C503.62,-104.47 488.31,-91.72 481.5,-76 475.09,-61.21 477.95,-42.82 481.76,-29.38"/>
<polygon fill="midnightblue" stroke="midnightblue" points="485.11,-30.42 484.87,-19.83 478.45,-28.26 485.11,-30.42"/>
</g>
<!-- Node13 -->
<g id="node9" class="node">
<title>Node13</title>
<g id="a_node9"><a xlink:title=" ">
<polygon fill="none" stroke="#bfbfbf" points="490.5,-56.5 490.5,-75.5 568.5,-75.5 568.5,-56.5 490.5,-56.5"/>
<text text-anchor="middle" x="529.5" y="-63.5" font-family="Helvetica,sans-Serif" font-size="10.00">user&#45;agent.h</text>
</a>
</g>
</g>
<!-- Node1&#45;&gt;Node13 -->
<g id="edge8" class="edge">
<title>Node1&#45;&gt;Node13</title>
<path fill="none" stroke="midnightblue" d="M529.5,-112.08C529.5,-105.01 529.5,-94.86 529.5,-85.99"/>
<polygon fill="midnightblue" stroke="midnightblue" points="533,-85.75 529.5,-75.75 526,-85.75 533,-85.75"/>
</g>
<!-- Node14 -->
<g id="node10" class="node">
<title>Node14</title>
<g id="a_node10"><a xlink:href="../../da/dc5/websockets_8h.html" target="_top" xlink:title=" ">
<polygon fill="none" stroke="red" points="587,-56.5 587,-75.5 670,-75.5 670,-56.5 587,-56.5"/>
<text text-anchor="middle" x="628.5" y="-63.5" font-family="Helvetica,sans-Serif" font-size="10.00">websockets.h</text>
</a>
</g>
</g>
<!-- Node1&#45;&gt;Node14 -->
<g id="edge9" class="edge">
<title>Node1&#45;&gt;Node14</title>
<path fill="none" stroke="midnightblue" d="M545.41,-112.32C561.14,-103.74 585.44,-90.49 603.71,-80.52"/>
<polygon fill="midnightblue" stroke="midnightblue" points="605.53,-83.52 612.63,-75.65 602.18,-77.37 605.53,-83.52"/>
</g>
<!-- Node17 -->
<g id="node11" class="node">
<title>Node17</title>
<g id="a_node11"><a xlink:href="../../d5/d62/work_8h.html" target="_top" xlink:title=" ">
<polygon fill="none" stroke="black" points="688.5,-56.5 688.5,-75.5 738.5,-75.5 738.5,-56.5 688.5,-56.5"/>
<text text-anchor="middle" x="713.5" y="-63.5" font-family="Helvetica,sans-Serif" font-size="10.00">work.h</text>
</a>
</g>
</g>
<!-- Node1&#45;&gt;Node17 -->
<g id="edge11" class="edge">
<title>Node1&#45;&gt;Node17</title>
<path fill="none" stroke="midnightblue" d="M558.66,-112.44C591.21,-102.89 643.88,-87.43 678.6,-77.24"/>
<polygon fill="midnightblue" stroke="midnightblue" points="679.71,-80.56 688.32,-74.39 677.74,-73.85 679.71,-80.56"/>
</g>
<!-- Node18 -->
<g id="node12" class="node">
<title>Node18</title>
<g id="a_node12"><a xlink:title=" ">
<polygon fill="none" stroke="#bfbfbf" points="756.5,-56.5 756.5,-75.5 824.5,-75.5 824.5,-56.5 756.5,-56.5"/>
<text text-anchor="middle" x="790.5" y="-63.5" font-family="Helvetica,sans-Serif" font-size="10.00">cog&#45;utils.h</text>
</a>
</g>
</g>
<!-- Node1&#45;&gt;Node18 -->
<g id="edge12" class="edge">
<title>Node1&#45;&gt;Node18</title>
<path fill="none" stroke="midnightblue" d="M570.89,-112.49C612.69,-103.89 679.39,-90.14 746.36,-76.23"/>
<polygon fill="midnightblue" stroke="midnightblue" points="747.16,-79.64 756.23,-74.18 745.73,-72.79 747.16,-79.64"/>
</g>
<!-- Node19 -->
<g id="node13" class="node">
<title>Node19</title>
<g id="a_node13"><a xlink:href="../../d4/dd6/io__poller_8h_source.html" target="_top" xlink:title=" ">
<polygon fill="none" stroke="red" points="843,-56.5 843,-75.5 910,-75.5 910,-56.5 843,-56.5"/>
<text text-anchor="middle" x="876.5" y="-63.5" font-family="Helvetica,sans-Serif" font-size="10.00">io_poller.h</text>
</a>
</g>
</g>
<!-- Node1&#45;&gt;Node19 -->
<g id="edge13" class="edge">
<title>Node1&#45;&gt;Node19</title>
<path fill="none" stroke="midnightblue" d="M594.91,-112.46C654.37,-104.44 744.75,-91.6 832.84,-76.03"/>
<polygon fill="midnightblue" stroke="midnightblue" points="833.5,-79.46 842.74,-74.26 832.28,-72.57 833.5,-79.46"/>
</g>
<!-- Node21 -->
<g id="node14" class="node">
<title>Node21</title>
<g id="a_node14"><a xlink:title=" ">
<polygon fill="none" stroke="#bfbfbf" points="928.5,-56.5 928.5,-75.5 984.5,-75.5 984.5,-56.5 928.5,-56.5"/>
<text text-anchor="middle" x="956.5" y="-63.5" font-family="Helvetica,sans-Serif" font-size="10.00">queue.h</text>
</a>
</g>
</g>
<!-- Node1&#45;&gt;Node21 -->
<g id="edge15" class="edge">
<title>Node1&#45;&gt;Node21</title>
<path fill="none" stroke="midnightblue" d="M599.63,-115.54C675.85,-109.01 801.36,-96.54 918.44,-75.99"/>
<polygon fill="midnightblue" stroke="midnightblue" points="919.06,-79.44 928.29,-74.24 917.84,-72.55 919.06,-79.44"/>
</g>
<!-- Node22 -->
<g id="node15" class="node">
<title>Node22</title>
<g id="a_node15"><a xlink:title=" ">
<polygon fill="none" stroke="#bfbfbf" points="1003,-56.5 1003,-75.5 1068,-75.5 1068,-56.5 1003,-56.5"/>
<text text-anchor="middle" x="1035.5" y="-63.5" font-family="Helvetica,sans-Serif" font-size="10.00">heap&#45;inl.h</text>
</a>
</g>
</g>
<!-- Node1&#45;&gt;Node22 -->
<g id="edge16" class="edge">
<title>Node1&#45;&gt;Node22</title>
<path fill="none" stroke="midnightblue" d="M599.77,-116.7C688.89,-110.68 847.42,-98.1 992.57,-75.97"/>
<polygon fill="midnightblue" stroke="midnightblue" points="993.2,-79.42 1002.55,-74.43 992.13,-72.5 993.2,-79.42"/>
</g>
<!-- Node23 -->
<g id="node16" class="node">
<title>Node23</title>
<g id="a_node16"><a xlink:title=" ">
<polygon fill="none" stroke="#bfbfbf" points="1086.5,-56.5 1086.5,-75.5 1148.5,-75.5 1148.5,-56.5 1086.5,-56.5"/>
<text text-anchor="middle" x="1117.5" y="-63.5" font-family="Helvetica,sans-Serif" font-size="10.00">banned.h</text>
</a>
</g>
</g>
<!-- Node1&#45;&gt;Node23 -->
<g id="edge17" class="edge">
<title>Node1&#45;&gt;Node23</title>
<path fill="none" stroke="midnightblue" d="M599.93,-118.36C702.66,-113.81 899.69,-102.46 1076.15,-76.01"/>
<polygon fill="midnightblue" stroke="midnightblue" points="1076.77,-79.45 1086.14,-74.49 1075.72,-72.53 1076.77,-79.45"/>
</g>
<!-- Node8&#45;&gt;Node9 -->
<g id="edge6" class="edge">
<title>Node8&#45;&gt;Node9</title>
<path fill="none" stroke="midnightblue" d="M366.77,-56.08C372.14,-48.46 380.02,-37.26 386.58,-27.94"/>
<polygon fill="midnightblue" stroke="midnightblue" points="389.45,-29.94 392.34,-19.75 383.72,-25.91 389.45,-29.94"/>
</g>
<!-- Node14&#45;&gt;Node12 -->
<g id="edge10" class="edge">
<title>Node14&#45;&gt;Node12</title>
<path fill="none" stroke="midnightblue" d="M606.32,-56.44C583.07,-47.48 546.35,-33.31 520.08,-23.18"/>
<polygon fill="midnightblue" stroke="midnightblue" points="521.17,-19.85 510.58,-19.52 518.65,-26.38 521.17,-19.85"/>
</g>
</g>
</svg>
