<?xml version="1.0" encoding="UTF-8" standalone="no"?>
<!DOCTYPE svg PUBLIC "-//W3C//DTD SVG 1.1//EN"
 "http://www.w3.org/Graphics/SVG/1.1/DTD/svg11.dtd">
<!-- Generated by graphviz version 2.43.0 (0)
 -->
<!-- Title: docs/api/application_commands.h Pages: 1 -->
<svg width="709pt" height="95pt"
 viewBox="0.00 0.00 709.00 95.00" xmlns="http://www.w3.org/2000/svg" xmlns:xlink="http://www.w3.org/1999/xlink">
<g id="graph0" class="graph" transform="scale(1 1) rotate(0) translate(4 91)">
<title>docs/api/application_commands.h</title>
<!-- Node1 -->
<g id="node1" class="node">
<title>Node1</title>
<g id="a_node1"><a xlink:title="Generated code.">
<polygon fill="#bfbfbf" stroke="black" points="288,-56.5 288,-86.5 402,-86.5 402,-56.5 288,-56.5"/>
<text text-anchor="start" x="296" y="-74.5" font-family="Helvetica,sans-Serif" font-size="10.00">docs/api/application</text>
<text text-anchor="middle" x="345" y="-63.5" font-family="Helvetica,sans-Serif" font-size="10.00">_commands.h</text>
</a>
</g>
</g>
<!-- Node2 -->
<g id="node2" class="node">
<title>Node2</title>
<g id="a_node2"><a xlink:title=" ">
<polygon fill="none" stroke="#bfbfbf" points="0,-0.5 0,-19.5 56,-19.5 56,-0.5 0,-0.5"/>
<text text-anchor="middle" x="28" y="-7.5" font-family="Helvetica,sans-Serif" font-size="10.00">stddef.h</text>
</a>
</g>
</g>
<!-- Node1&#45;&gt;Node2 -->
<g id="edge1" class="edge">
<title>Node1&#45;&gt;Node2</title>
<path fill="none" stroke="midnightblue" d="M287.96,-61.25C233.4,-52.16 148.6,-37.43 66.04,-20.12"/>
<polygon fill="midnightblue" stroke="midnightblue" points="66.75,-16.7 56.24,-18.05 65.3,-23.55 66.75,-16.7"/>
</g>
<!-- Node3 -->
<g id="node3" class="node">
<title>Node3</title>
<g id="a_node3"><a xlink:title=" ">
<polygon fill="none" stroke="#bfbfbf" points="74,-0.5 74,-19.5 136,-19.5 136,-0.5 74,-0.5"/>
<text text-anchor="middle" x="105" y="-7.5" font-family="Helvetica,sans-Serif" font-size="10.00">stdbool.h</text>
</a>
</g>
</g>
<!-- Node1&#45;&gt;Node3 -->
<g id="edge2" class="edge">
<title>Node1&#45;&gt;Node3</title>
<path fill="none" stroke="midnightblue" d="M288.43,-56.47C244.7,-45.63 185.2,-30.88 145.98,-21.16"/>
<polygon fill="midnightblue" stroke="midnightblue" points="146.77,-17.75 136.22,-18.74 145.09,-24.54 146.77,-17.75"/>
</g>
<!-- Node4 -->
<g id="node4" class="node">
<title>Node4</title>
<g id="a_node4"><a xlink:title=" ">
<polygon fill="none" stroke="#bfbfbf" points="154.5,-0.5 154.5,-19.5 219.5,-19.5 219.5,-0.5 154.5,-0.5"/>
<text text-anchor="middle" x="187" y="-7.5" font-family="Helvetica,sans-Serif" font-size="10.00">inttypes.h</text>
</a>
</g>
</g>
<!-- Node1&#45;&gt;Node4 -->
<g id="edge3" class="edge">
<title>Node1&#45;&gt;Node4</title>
<path fill="none" stroke="midnightblue" d="M307.56,-56.4C280.81,-46.33 245.18,-32.91 219.6,-23.28"/>
<polygon fill="midnightblue" stroke="midnightblue" points="220.58,-19.91 209.99,-19.66 218.12,-26.46 220.58,-19.91"/>
</g>
<!-- Node5 -->
<g id="node5" class="node">
<title>Node5</title>
<g id="a_node5"><a xlink:title=" ">
<polygon fill="none" stroke="#bfbfbf" points="237.5,-0.5 237.5,-19.5 292.5,-19.5 292.5,-0.5 237.5,-0.5"/>
<text text-anchor="middle" x="265" y="-7.5" font-family="Helvetica,sans-Serif" font-size="10.00">carray.h</text>
</a>
</g>
</g>
<!-- Node1&#45;&gt;Node5 -->
<g id="edge4" class="edge">
<title>Node1&#45;&gt;Node5</title>
<path fill="none" stroke="midnightblue" d="M326.04,-56.4C313.58,-47.13 297.3,-35.03 284.69,-25.65"/>
<polygon fill="midnightblue" stroke="midnightblue" points="286.75,-22.82 276.64,-19.66 282.58,-28.43 286.75,-22.82"/>
</g>
<!-- Node6 -->
<g id="node6" class="node">
<title>Node6</title>
<g id="a_node6"><a xlink:title=" ">
<polygon fill="none" stroke="#bfbfbf" points="311,-0.5 311,-19.5 379,-19.5 379,-0.5 311,-0.5"/>
<text text-anchor="middle" x="345" y="-7.5" font-family="Helvetica,sans-Serif" font-size="10.00">cog&#45;utils.h</text>
</a>
</g>
</g>
<!-- Node1&#45;&gt;Node6 -->
<g id="edge5" class="edge">
<title>Node1&#45;&gt;Node6</title>
<path fill="none" stroke="midnightblue" d="M345,-56.4C345,-48.47 345,-38.46 345,-29.86"/>
<polygon fill="midnightblue" stroke="midnightblue" points="348.5,-29.66 345,-19.66 341.5,-29.66 348.5,-29.66"/>
</g>
<!-- Node7 -->
<g id="node7" class="node">
<title>Node7</title>
<g id="a_node7"><a xlink:href="../../d9/d49/types_8h.html" target="_top" xlink:title=" ">
<polygon fill="none" stroke="black" points="397.5,-0.5 397.5,-19.5 450.5,-19.5 450.5,-0.5 397.5,-0.5"/>
<text text-anchor="middle" x="424" y="-7.5" font-family="Helvetica,sans-Serif" font-size="10.00">types.h</text>
</a>
</g>
</g>
<!-- Node1&#45;&gt;Node7 -->
<g id="edge6" class="edge">
<title>Node1&#45;&gt;Node7</title>
<path fill="none" stroke="midnightblue" d="M363.72,-56.4C375.91,-47.22 391.79,-35.26 404.19,-25.92"/>
<polygon fill="midnightblue" stroke="midnightblue" points="406.62,-28.47 412.5,-19.66 402.41,-22.88 406.62,-28.47"/>
</g>
<!-- Node8 -->
<g id="node8" class="node">
<title>Node8</title>
<g id="a_node8"><a xlink:title=" ">
<polygon fill="none" stroke="#bfbfbf" points="469,-0.5 469,-19.5 519,-19.5 519,-0.5 469,-0.5"/>
<text text-anchor="middle" x="494" y="-7.5" font-family="Helvetica,sans-Serif" font-size="10.00">jsmn.h</text>
</a>
</g>
</g>
<!-- Node1&#45;&gt;Node8 -->
<g id="edge7" class="edge">
<title>Node1&#45;&gt;Node8</title>
<path fill="none" stroke="midnightblue" d="M380.31,-56.4C405.42,-46.37 438.84,-33.03 462.94,-23.4"/>
<polygon fill="midnightblue" stroke="midnightblue" points="464.33,-26.62 472.32,-19.66 461.73,-20.12 464.33,-26.62"/>
</g>
<!-- Node9 -->
<g id="node9" class="node">
<title>Node9</title>
<g id="a_node9"><a xlink:title=" ">
<polygon fill="none" stroke="#bfbfbf" points="537.5,-0.5 537.5,-19.5 608.5,-19.5 608.5,-0.5 537.5,-0.5"/>
<text text-anchor="middle" x="573" y="-7.5" font-family="Helvetica,sans-Serif" font-size="10.00">jsmn&#45;find.h</text>
</a>
</g>
</g>
<!-- Node1&#45;&gt;Node9 -->
<g id="edge8" class="edge">
<title>Node1&#45;&gt;Node9</title>
<path fill="none" stroke="midnightblue" d="M398.74,-56.47C438.94,-45.99 493.15,-31.84 530.38,-22.12"/>
<polygon fill="midnightblue" stroke="midnightblue" points="531.61,-25.42 540.4,-19.51 529.84,-18.64 531.61,-25.42"/>
</g>
<!-- Node10 -->
<g id="node10" class="node">
<title>Node10</title>
<g id="a_node10"><a xlink:title=" ">
<polygon fill="none" stroke="#bfbfbf" points="627,-0.5 627,-19.5 701,-19.5 701,-0.5 627,-0.5"/>
<text text-anchor="middle" x="664" y="-7.5" font-family="Helvetica,sans-Serif" font-size="10.00">json&#45;build.h</text>
</a>
</g>
</g>
<!-- Node1&#45;&gt;Node10 -->
<g id="edge9" class="edge">
<title>Node1&#45;&gt;Node10</title>
<path fill="none" stroke="midnightblue" d="M402.03,-60.13C455.01,-50.45 536.41,-35.48 616.57,-20.26"/>
<polygon fill="midnightblue" stroke="midnightblue" points="617.68,-23.61 626.85,-18.3 616.37,-16.73 617.68,-23.61"/>
</g>
</g>
</svg>
