<?xml version="1.0" encoding="UTF-8" standalone="no"?>
<!DOCTYPE svg PUBLIC "-//W3C//DTD SVG 1.1//EN"
 "http://www.w3.org/Graphics/SVG/1.1/DTD/svg11.dtd">
<!-- Generated by graphviz version 2.43.0 (0)
 -->
<!-- Title: discord_interaction Pages: 1 -->
<svg width="508pt" height="229pt"
 viewBox="0.00 0.00 508.00 229.00" xmlns="http://www.w3.org/2000/svg" xmlns:xlink="http://www.w3.org/1999/xlink">
<g id="graph0" class="graph" transform="scale(1 1) rotate(0) translate(4 225)">
<title>discord_interaction</title>
<!-- Node1 -->
<g id="node1" class="node">
<title>Node1</title>
<g id="a_node1"><a xlink:title=" ">
<polygon fill="#bfbfbf" stroke="black" points="133.5,-0.5 133.5,-19.5 243.5,-19.5 243.5,-0.5 133.5,-0.5"/>
<text text-anchor="middle" x="188.5" y="-7.5" font-family="Helvetica,sans-Serif" font-size="10.00">discord_interaction</text>
</a>
</g>
</g>
<!-- Node2 -->
<g id="node2" class="node">
<title>Node2</title>
<g id="a_node2"><a xlink:href="../../dc/d19/structdiscord__interaction__data.html" target="_top" xlink:title=" ">
<polygon fill="none" stroke="orangered" points="0,-67.5 0,-86.5 137,-86.5 137,-67.5 0,-67.5"/>
<text text-anchor="middle" x="68.5" y="-74.5" font-family="Helvetica,sans-Serif" font-size="10.00">discord_interaction_data</text>
</a>
</g>
</g>
<!-- Node2&#45;&gt;Node1 -->
<g id="edge1" class="edge">
<title>Node2&#45;&gt;Node1</title>
<path fill="none" stroke="#9a32cd" stroke-dasharray="5,2" d="M88.95,-61.38C99.83,-53.92 113.59,-44.97 126.5,-38 139.31,-31.08 154.25,-24.53 166.26,-19.61"/>
<polygon fill="#9a32cd" stroke="#9a32cd" points="86.77,-58.63 80.57,-67.22 90.78,-64.37 86.77,-58.63"/>
<text text-anchor="middle" x="139" y="-41" font-family="Helvetica,sans-Serif" font-size="10.00"> data</text>
</g>
<!-- Node17 -->
<g id="node3" class="node">
<title>Node17</title>
<g id="a_node3"><a xlink:href="../../d5/de1/structdiscord__guild__member.html" target="_top" xlink:title=" ">
<polygon fill="none" stroke="red" points="193.5,-134.5 193.5,-153.5 321.5,-153.5 321.5,-134.5 193.5,-134.5"/>
<text text-anchor="middle" x="257.5" y="-141.5" font-family="Helvetica,sans-Serif" font-size="10.00">discord_guild_member</text>
</a>
</g>
</g>
<!-- Node17&#45;&gt;Node1 -->
<g id="edge2" class="edge">
<title>Node17&#45;&gt;Node1</title>
<path fill="none" stroke="#9a32cd" stroke-dasharray="5,2" d="M245.11,-126.06C237.48,-115.21 227.8,-100.65 220.5,-87 207.94,-63.52 196.74,-34.04 191.55,-19.67"/>
<polygon fill="#9a32cd" stroke="#9a32cd" points="242.28,-128.11 250.94,-134.2 247.97,-124.03 242.28,-128.11"/>
<text text-anchor="middle" x="243" y="-74.5" font-family="Helvetica,sans-Serif" font-size="10.00"> member</text>
</g>
<!-- Node18 -->
<g id="node5" class="node">
<title>Node18</title>
<g id="a_node5"><a xlink:href="../../d6/d66/structdiscord__message.html" target="_top" xlink:title=" ">
<polygon fill="none" stroke="red" points="275,-67.5 275,-86.5 376,-86.5 376,-67.5 275,-67.5"/>
<text text-anchor="middle" x="325.5" y="-74.5" font-family="Helvetica,sans-Serif" font-size="10.00">discord_message</text>
</a>
</g>
</g>
<!-- Node17&#45;&gt;Node18 -->
<g id="edge7" class="edge">
<title>Node17&#45;&gt;Node18</title>
<path fill="none" stroke="#9a32cd" stroke-dasharray="5,2" d="M274.24,-127C287.58,-114.25 305.73,-96.89 316.47,-86.63"/>
<polygon fill="#9a32cd" stroke="#9a32cd" points="271.48,-124.79 266.67,-134.23 276.32,-129.85 271.48,-124.79"/>
<text text-anchor="middle" x="319" y="-108" font-family="Helvetica,sans-Serif" font-size="10.00"> member</text>
</g>
<!-- Node14 -->
<g id="node4" class="node">
<title>Node14</title>
<g id="a_node4"><a xlink:href="../../db/de3/structdiscord__user.html" target="_top" xlink:title=" ">
<polygon fill="none" stroke="black" points="218.5,-201.5 218.5,-220.5 296.5,-220.5 296.5,-201.5 218.5,-201.5"/>
<text text-anchor="middle" x="257.5" y="-208.5" font-family="Helvetica,sans-Serif" font-size="10.00">discord_user</text>
</a>
</g>
</g>
<!-- Node14&#45;&gt;Node1 -->
<g id="edge4" class="edge">
<title>Node14&#45;&gt;Node1</title>
<path fill="none" stroke="#9a32cd" stroke-dasharray="5,2" d="M228.99,-196.46C212.72,-187.04 193.77,-172.8 184.5,-154 161.76,-107.89 178.41,-42.85 185.62,-19.64"/>
<polygon fill="#9a32cd" stroke="#9a32cd" points="227.71,-199.75 238.17,-201.44 231.05,-193.59 227.71,-199.75"/>
<text text-anchor="middle" x="187" y="-108" font-family="Helvetica,sans-Serif" font-size="10.00"> user</text>
</g>
<!-- Node14&#45;&gt;Node17 -->
<g id="edge3" class="edge">
<title>Node14&#45;&gt;Node17</title>
<path fill="none" stroke="#9a32cd" stroke-dasharray="5,2" d="M257.5,-191.04C257.5,-178.67 257.5,-163.12 257.5,-153.63"/>
<polygon fill="#9a32cd" stroke="#9a32cd" points="254,-191.23 257.5,-201.23 261,-191.23 254,-191.23"/>
<text text-anchor="middle" x="270" y="-175" font-family="Helvetica,sans-Serif" font-size="10.00"> user</text>
</g>
<!-- Node14&#45;&gt;Node18 -->
<g id="edge6" class="edge">
<title>Node14&#45;&gt;Node18</title>
<path fill="none" stroke="#9a32cd" stroke-dasharray="5,2" d="M282.43,-196.12C298.18,-186.22 317.88,-171.57 330.5,-154 343.65,-135.7 350.03,-126.56 343.5,-105 341.48,-98.31 337.19,-91.77 333.31,-86.8"/>
<polygon fill="#9a32cd" stroke="#9a32cd" points="280.45,-193.23 273.69,-201.39 284.06,-199.23 280.45,-193.23"/>
<text text-anchor="middle" x="360" y="-141.5" font-family="Helvetica,sans-Serif" font-size="10.00"> author</text>
</g>
<!-- Node18&#45;&gt;Node1 -->
<g id="edge5" class="edge">
<title>Node18&#45;&gt;Node1</title>
<path fill="none" stroke="#9a32cd" stroke-dasharray="5,2" d="M297.98,-62.94C270.85,-50.07 230.14,-30.76 206.77,-19.67"/>
<polygon fill="#9a32cd" stroke="#9a32cd" points="296.77,-66.24 307.31,-67.37 299.77,-59.92 296.77,-66.24"/>
<text text-anchor="middle" x="289.5" y="-41" font-family="Helvetica,sans-Serif" font-size="10.00"> message</text>
</g>
<!-- Node18&#45;&gt;Node18 -->
<g id="edge8" class="edge">
<title>Node18&#45;&gt;Node18</title>
<path fill="none" stroke="#9a32cd" stroke-dasharray="5,2" d="M386.43,-81.52C391.11,-80.52 394,-79.01 394,-77 394,-73.78 386.61,-71.86 376.28,-71.23"/>
<polygon fill="#9a32cd" stroke="#9a32cd" points="385.78,-78.07 376.28,-82.77 386.64,-85.02 385.78,-78.07"/>
<text text-anchor="middle" x="447" y="-74.5" font-family="Helvetica,sans-Serif" font-size="10.00"> referenced_message</text>
</g>
</g>
</svg>
