<?xml version="1.0" encoding="UTF-8" standalone="no"?>
<!DOCTYPE svg PUBLIC "-//W3C//DTD SVG 1.1//EN"
 "http://www.w3.org/Graphics/SVG/1.1/DTD/svg11.dtd">
<!-- Generated by graphviz version 2.43.0 (0)
 -->
<!-- Title: discord_integration Pages: 1 -->
<svg width="312pt" height="173pt"
 viewBox="0.00 0.00 312.00 173.00" xmlns="http://www.w3.org/2000/svg" xmlns:xlink="http://www.w3.org/1999/xlink">
<g id="graph0" class="graph" transform="scale(1 1) rotate(0) translate(4 169)">
<title>discord_integration</title>
<!-- Node1 -->
<g id="node1" class="node">
<title>Node1</title>
<g id="a_node1"><a xlink:title=" ">
<polygon fill="#bfbfbf" stroke="black" points="66,-0.5 66,-19.5 176,-19.5 176,-0.5 66,-0.5"/>
<text text-anchor="middle" x="121" y="-7.5" font-family="Helvetica,sans-Serif" font-size="10.00">discord_integration</text>
</a>
</g>
</g>
<!-- Node2 -->
<g id="node2" class="node">
<title>Node2</title>
<g id="a_node2"><a xlink:href="../../db/de3/structdiscord__user.html" target="_top" xlink:title=" ">
<polygon fill="none" stroke="black" points="0,-145.5 0,-164.5 78,-164.5 78,-145.5 0,-145.5"/>
<text text-anchor="middle" x="39" y="-152.5" font-family="Helvetica,sans-Serif" font-size="10.00">discord_user</text>
</a>
</g>
</g>
<!-- Node2&#45;&gt;Node1 -->
<g id="edge1" class="edge">
<title>Node2&#45;&gt;Node1</title>
<path fill="none" stroke="#9a32cd" stroke-dasharray="5,2" d="M31.9,-135.6C25.98,-117.08 20.24,-88.29 32,-67 45.24,-43.03 73.52,-27.92 94.67,-19.52"/>
<polygon fill="#9a32cd" stroke="#9a32cd" points="28.65,-136.91 35.27,-145.18 35.25,-134.59 28.65,-136.91"/>
<text text-anchor="middle" x="44.5" y="-80" font-family="Helvetica,sans-Serif" font-size="10.00"> user</text>
</g>
<!-- Node4 -->
<g id="node4" class="node">
<title>Node4</title>
<g id="a_node4"><a xlink:href="../../d7/d32/structdiscord__integration__application.html" target="_top" xlink:title=" ">
<polygon fill="none" stroke="#bfbfbf" points="66,-67.5 66,-97.5 176,-97.5 176,-67.5 66,-67.5"/>
<text text-anchor="start" x="74" y="-85.5" font-family="Helvetica,sans-Serif" font-size="10.00">discord_integration</text>
<text text-anchor="middle" x="121" y="-74.5" font-family="Helvetica,sans-Serif" font-size="10.00">_application</text>
</a>
</g>
</g>
<!-- Node2&#45;&gt;Node4 -->
<g id="edge4" class="edge">
<title>Node2&#45;&gt;Node4</title>
<path fill="none" stroke="#9a32cd" stroke-dasharray="5,2" d="M56.7,-138.78C70.93,-126.55 90.76,-109.5 104.63,-97.58"/>
<polygon fill="#9a32cd" stroke="#9a32cd" points="54.36,-136.18 49.05,-145.36 58.92,-141.49 54.36,-136.18"/>
<text text-anchor="middle" x="92.5" y="-119" font-family="Helvetica,sans-Serif" font-size="10.00"> bot</text>
</g>
<!-- Node3 -->
<g id="node3" class="node">
<title>Node3</title>
<g id="a_node3"><a xlink:href="../../d4/d88/structdiscord__integration__account.html" target="_top" xlink:title=" ">
<polygon fill="none" stroke="#bfbfbf" points="194,-67.5 194,-97.5 304,-97.5 304,-67.5 194,-67.5"/>
<text text-anchor="start" x="202" y="-85.5" font-family="Helvetica,sans-Serif" font-size="10.00">discord_integration</text>
<text text-anchor="middle" x="249" y="-74.5" font-family="Helvetica,sans-Serif" font-size="10.00">_account</text>
</a>
</g>
</g>
<!-- Node3&#45;&gt;Node1 -->
<g id="edge2" class="edge">
<title>Node3&#45;&gt;Node1</title>
<path fill="none" stroke="#9a32cd" stroke-dasharray="5,2" d="M221.26,-61.68C209.7,-53.84 195.98,-45.04 183,-38 170.2,-31.06 155.26,-24.51 143.24,-19.6"/>
<polygon fill="#9a32cd" stroke="#9a32cd" points="219.4,-64.65 229.62,-67.45 223.37,-58.89 219.4,-64.65"/>
<text text-anchor="middle" x="222" y="-41" font-family="Helvetica,sans-Serif" font-size="10.00"> account</text>
</g>
<!-- Node4&#45;&gt;Node1 -->
<g id="edge3" class="edge">
<title>Node4&#45;&gt;Node1</title>
<path fill="none" stroke="#9a32cd" stroke-dasharray="5,2" d="M121,-57.09C121,-44.21 121,-29.2 121,-19.89"/>
<polygon fill="#9a32cd" stroke="#9a32cd" points="117.5,-57.23 121,-67.23 124.5,-57.23 117.5,-57.23"/>
<text text-anchor="middle" x="150" y="-41" font-family="Helvetica,sans-Serif" font-size="10.00"> application</text>
</g>
</g>
</svg>
