<?xml version="1.0" encoding="UTF-8" standalone="no"?>
<!DOCTYPE svg PUBLIC "-//W3C//DTD SVG 1.1//EN"
 "http://www.w3.org/Graphics/SVG/1.1/DTD/svg11.dtd">
<!-- Generated by graphviz version 2.43.0 (0)
 -->
<!-- Title: discord_guild_preview Pages: 1 -->
<svg width="280pt" height="95pt"
 viewBox="0.00 0.00 279.50 95.00" xmlns="http://www.w3.org/2000/svg" xmlns:xlink="http://www.w3.org/1999/xlink">
<g id="graph0" class="graph" transform="scale(1 1) rotate(0) translate(4 91)">
<title>discord_guild_preview</title>
<!-- Node1 -->
<g id="node1" class="node">
<title>Node1</title>
<g id="a_node1"><a xlink:title=" ">
<polygon fill="#bfbfbf" stroke="black" points="70.5,-0.5 70.5,-19.5 195.5,-19.5 195.5,-0.5 70.5,-0.5"/>
<text text-anchor="middle" x="133" y="-7.5" font-family="Helvetica,sans-Serif" font-size="10.00">discord_guild_preview</text>
</a>
</g>
</g>
<!-- Node2 -->
<g id="node2" class="node">
<title>Node2</title>
<g id="a_node2"><a xlink:href="../../df/d70/structdiscord__emojis.html" target="_top" xlink:title=" ">
<polygon fill="none" stroke="red" points="0,-67.5 0,-86.5 90,-86.5 90,-67.5 0,-67.5"/>
<text text-anchor="middle" x="45" y="-74.5" font-family="Helvetica,sans-Serif" font-size="10.00">discord_emojis</text>
</a>
</g>
</g>
<!-- Node2&#45;&gt;Node1 -->
<g id="edge1" class="edge">
<title>Node2&#45;&gt;Node1</title>
<path fill="none" stroke="#9a32cd" stroke-dasharray="5,2" d="M63.09,-60.69C71.69,-53.58 82.22,-45.15 92,-38 100.81,-31.56 111.06,-24.81 119.11,-19.67"/>
<polygon fill="#9a32cd" stroke="#9a32cd" points="60.66,-58.16 55.22,-67.25 65.15,-63.53 60.66,-58.16"/>
<text text-anchor="middle" x="110.5" y="-41" font-family="Helvetica,sans-Serif" font-size="10.00"> emojis</text>
</g>
<!-- Node8 -->
<g id="node3" class="node">
<title>Node8</title>
<g id="a_node3"><a xlink:href="../../d0/dbd/structstrings.html" target="_top" xlink:title=" ">
<polygon fill="none" stroke="black" points="108,-67.5 108,-86.5 158,-86.5 158,-67.5 108,-67.5"/>
<text text-anchor="middle" x="133" y="-74.5" font-family="Helvetica,sans-Serif" font-size="10.00">strings</text>
</a>
</g>
</g>
<!-- Node8&#45;&gt;Node1 -->
<g id="edge2" class="edge">
<title>Node8&#45;&gt;Node1</title>
<path fill="none" stroke="#9a32cd" stroke-dasharray="5,2" d="M133,-57.04C133,-44.67 133,-29.12 133,-19.63"/>
<polygon fill="#9a32cd" stroke="#9a32cd" points="129.5,-57.23 133,-67.23 136.5,-57.23 129.5,-57.23"/>
<text text-anchor="middle" x="155" y="-41" font-family="Helvetica,sans-Serif" font-size="10.00"> features</text>
</g>
<!-- Node9 -->
<g id="node4" class="node">
<title>Node9</title>
<g id="a_node4"><a xlink:href="../../dc/da2/structdiscord__stickers.html" target="_top" xlink:title=" ">
<polygon fill="none" stroke="orangered" points="176.5,-67.5 176.5,-86.5 271.5,-86.5 271.5,-67.5 176.5,-67.5"/>
<text text-anchor="middle" x="224" y="-74.5" font-family="Helvetica,sans-Serif" font-size="10.00">discord_stickers</text>
</a>
</g>
</g>
<!-- Node9&#45;&gt;Node1 -->
<g id="edge3" class="edge">
<title>Node9&#45;&gt;Node1</title>
<path fill="none" stroke="#9a32cd" stroke-dasharray="5,2" d="M207.64,-60.08C199.89,-52.92 190.3,-44.61 181,-38 171.34,-31.13 159.77,-24.58 150.42,-19.65"/>
<polygon fill="#9a32cd" stroke="#9a32cd" points="205.57,-62.93 215.24,-67.26 210.38,-57.84 205.57,-62.93"/>
<text text-anchor="middle" x="214.5" y="-41" font-family="Helvetica,sans-Serif" font-size="10.00"> stickers</text>
</g>
</g>
</svg>
