<?xml version="1.0" encoding="UTF-8" standalone="no"?>
<!DOCTYPE svg PUBLIC "-//W3C//DTD SVG 1.1//EN"
 "http://www.w3.org/Graphics/SVG/1.1/DTD/svg11.dtd">
<!-- Generated by graphviz version 2.43.0 (0)
 -->
<!-- Title: discord_guild_member Pages: 1 -->
<svg width="176pt" height="95pt"
 viewBox="0.00 0.00 175.50 95.00" xmlns="http://www.w3.org/2000/svg" xmlns:xlink="http://www.w3.org/1999/xlink">
<g id="graph0" class="graph" transform="scale(1 1) rotate(0) translate(4 91)">
<title>discord_guild_member</title>
<!-- Node1 -->
<g id="node1" class="node">
<title>Node1</title>
<g id="a_node1"><a xlink:title=" ">
<polygon fill="#bfbfbf" stroke="black" points="21,-0.5 21,-19.5 149,-19.5 149,-0.5 21,-0.5"/>
<text text-anchor="middle" x="85" y="-7.5" font-family="Helvetica,sans-Serif" font-size="10.00">discord_guild_member</text>
</a>
</g>
</g>
<!-- Node2 -->
<g id="node2" class="node">
<title>Node2</title>
<g id="a_node2"><a xlink:href="../../db/de3/structdiscord__user.html" target="_top" xlink:title=" ">
<polygon fill="none" stroke="black" points="0,-67.5 0,-86.5 78,-86.5 78,-67.5 0,-67.5"/>
<text text-anchor="middle" x="39" y="-74.5" font-family="Helvetica,sans-Serif" font-size="10.00">discord_user</text>
</a>
</g>
</g>
<!-- Node2&#45;&gt;Node1 -->
<g id="edge1" class="edge">
<title>Node2&#45;&gt;Node1</title>
<path fill="none" stroke="#9a32cd" stroke-dasharray="5,2" d="M51.1,-58.9C60.04,-46.27 71.83,-29.6 78.89,-19.63"/>
<polygon fill="#9a32cd" stroke="#9a32cd" points="48.12,-57.05 45.2,-67.23 53.84,-61.09 48.12,-57.05"/>
<text text-anchor="middle" x="77.5" y="-41" font-family="Helvetica,sans-Serif" font-size="10.00"> user</text>
</g>
<!-- Node3 -->
<g id="node3" class="node">
<title>Node3</title>
<g id="a_node3"><a xlink:href="../../d6/dea/structsnowflakes.html" target="_top" xlink:title=" ">
<polygon fill="none" stroke="black" points="96.5,-67.5 96.5,-86.5 167.5,-86.5 167.5,-67.5 96.5,-67.5"/>
<text text-anchor="middle" x="132" y="-74.5" font-family="Helvetica,sans-Serif" font-size="10.00">snowflakes</text>
</a>
</g>
</g>
<!-- Node3&#45;&gt;Node1 -->
<g id="edge2" class="edge">
<title>Node3&#45;&gt;Node1</title>
<path fill="none" stroke="#9a32cd" stroke-dasharray="5,2" d="M119.64,-58.9C110.51,-46.27 98.45,-29.6 91.24,-19.63"/>
<polygon fill="#9a32cd" stroke="#9a32cd" points="116.97,-61.18 125.66,-67.23 122.64,-57.08 116.97,-61.18"/>
<text text-anchor="middle" x="125" y="-41" font-family="Helvetica,sans-Serif" font-size="10.00"> roles</text>
</g>
</g>
</svg>
