<?xml version="1.0" encoding="UTF-8" standalone="no"?>
<!DOCTYPE svg PUBLIC "-//W3C//DTD SVG 1.1//EN"
 "http://www.w3.org/Graphics/SVG/1.1/DTD/svg11.dtd">
<!-- Generated by graphviz version 2.43.0 (0)
 -->
<!-- Title: discord_activity Pages: 1 -->
<svg width="358pt" height="218pt"
 viewBox="0.00 0.00 358.00 218.00" xmlns="http://www.w3.org/2000/svg" xmlns:xlink="http://www.w3.org/1999/xlink">
<g id="graph0" class="graph" transform="scale(1 1) rotate(0) translate(4 214)">
<title>discord_activity</title>
<!-- Node1 -->
<g id="node1" class="node">
<title>Node1</title>
<g id="a_node1"><a xlink:title=" ">
<polygon fill="#bfbfbf" stroke="black" points="256,-95.5 256,-114.5 350,-114.5 350,-95.5 256,-95.5"/>
<text text-anchor="middle" x="303" y="-102.5" font-family="Helvetica,sans-Serif" font-size="10.00">discord_activity</text>
</a>
</g>
</g>
<!-- Node2 -->
<g id="node2" class="node">
<title>Node2</title>
<g id="a_node2"><a xlink:href="../../d8/d24/structdiscord__activity__timestamps.html" target="_top" xlink:title=" ">
<polygon fill="none" stroke="#bfbfbf" points="0,-190.5 0,-209.5 158,-209.5 158,-190.5 0,-190.5"/>
<text text-anchor="middle" x="79" y="-197.5" font-family="Helvetica,sans-Serif" font-size="10.00">discord_activity_timestamps</text>
</a>
</g>
</g>
<!-- Node2&#45;&gt;Node1 -->
<g id="edge1" class="edge">
<title>Node2&#45;&gt;Node1</title>
<path fill="none" stroke="#9a32cd" stroke-dasharray="5,2" d="M153.57,-188.28C181.1,-182.03 211.98,-172.7 238,-159 260.13,-147.35 281.41,-126.98 293,-114.86"/>
<polygon fill="#9a32cd" stroke="#9a32cd" points="152.62,-184.9 143.59,-190.45 154.11,-191.74 152.62,-184.9"/>
<text text-anchor="middle" x="207" y="-184" font-family="Helvetica,sans-Serif" font-size="10.00"> timestamps</text>
</g>
<!-- Node3 -->
<g id="node3" class="node">
<title>Node3</title>
<g id="a_node3"><a xlink:href="../../df/d9c/structdiscord__activity__emoji.html" target="_top" xlink:title=" ">
<polygon fill="none" stroke="#bfbfbf" points="15.5,-152.5 15.5,-171.5 142.5,-171.5 142.5,-152.5 15.5,-152.5"/>
<text text-anchor="middle" x="79" y="-159.5" font-family="Helvetica,sans-Serif" font-size="10.00">discord_activity_emoji</text>
</a>
</g>
</g>
<!-- Node3&#45;&gt;Node1 -->
<g id="edge2" class="edge">
<title>Node3&#45;&gt;Node1</title>
<path fill="none" stroke="#9a32cd" stroke-dasharray="5,2" d="M149.52,-150.6C177.3,-145.35 209.42,-138.41 238,-130 252.42,-125.76 268.15,-119.64 280.41,-114.51"/>
<polygon fill="#9a32cd" stroke="#9a32cd" points="148.69,-147.2 139.49,-152.46 149.96,-154.08 148.69,-147.2"/>
<text text-anchor="middle" x="207" y="-147" font-family="Helvetica,sans-Serif" font-size="10.00"> emoji</text>
</g>
<!-- Node4 -->
<g id="node4" class="node">
<title>Node4</title>
<g id="a_node4"><a xlink:href="../../dd/d4c/structdiscord__activity__party.html" target="_top" xlink:title=" ">
<polygon fill="none" stroke="orangered" points="16.5,-114.5 16.5,-133.5 141.5,-133.5 141.5,-114.5 16.5,-114.5"/>
<text text-anchor="middle" x="79" y="-121.5" font-family="Helvetica,sans-Serif" font-size="10.00">discord_activity_party</text>
</a>
</g>
</g>
<!-- Node4&#45;&gt;Node1 -->
<g id="edge3" class="edge">
<title>Node4&#45;&gt;Node1</title>
<path fill="none" stroke="#9a32cd" stroke-dasharray="5,2" d="M151.94,-117.84C186.06,-114.92 225.84,-111.52 255.86,-108.95"/>
<polygon fill="#9a32cd" stroke="#9a32cd" points="151.21,-114.39 141.54,-118.73 151.81,-121.37 151.21,-114.39"/>
<text text-anchor="middle" x="207" y="-118" font-family="Helvetica,sans-Serif" font-size="10.00"> party</text>
</g>
<!-- Node6 -->
<g id="node5" class="node">
<title>Node6</title>
<g id="a_node5"><a xlink:href="../../d2/dfe/structdiscord__activity__assets.html" target="_top" xlink:title=" ">
<polygon fill="none" stroke="#bfbfbf" points="13.5,-76.5 13.5,-95.5 144.5,-95.5 144.5,-76.5 13.5,-76.5"/>
<text text-anchor="middle" x="79" y="-83.5" font-family="Helvetica,sans-Serif" font-size="10.00">discord_activity_assets</text>
</a>
</g>
</g>
<!-- Node6&#45;&gt;Node1 -->
<g id="edge4" class="edge">
<title>Node6&#45;&gt;Node1</title>
<path fill="none" stroke="#9a32cd" stroke-dasharray="5,2" d="M154.97,-88.76C181.27,-90.13 210.99,-92.13 238,-95 243.82,-95.62 249.91,-96.4 255.93,-97.25"/>
<polygon fill="#9a32cd" stroke="#9a32cd" points="154.85,-85.25 144.69,-88.25 154.5,-92.24 154.85,-85.25"/>
<text text-anchor="middle" x="207" y="-98" font-family="Helvetica,sans-Serif" font-size="10.00"> assets</text>
</g>
<!-- Node7 -->
<g id="node6" class="node">
<title>Node7</title>
<g id="a_node6"><a xlink:href="../../df/d1e/structdiscord__activity__secrets.html" target="_top" xlink:title=" ">
<polygon fill="none" stroke="#bfbfbf" points="12,-38.5 12,-57.5 146,-57.5 146,-38.5 12,-38.5"/>
<text text-anchor="middle" x="79" y="-45.5" font-family="Helvetica,sans-Serif" font-size="10.00">discord_activity_secrets</text>
</a>
</g>
</g>
<!-- Node7&#45;&gt;Node1 -->
<g id="edge5" class="edge">
<title>Node7&#45;&gt;Node1</title>
<path fill="none" stroke="#9a32cd" stroke-dasharray="5,2" d="M156.19,-56.78C182.47,-60.92 211.86,-66.81 238,-75 254.51,-80.18 272.25,-88.75 284.85,-95.41"/>
<polygon fill="#9a32cd" stroke="#9a32cd" points="156.69,-53.32 146.28,-55.28 155.64,-60.24 156.69,-53.32"/>
<text text-anchor="middle" x="207" y="-78" font-family="Helvetica,sans-Serif" font-size="10.00"> secrets</text>
</g>
<!-- Node8 -->
<g id="node7" class="node">
<title>Node8</title>
<g id="a_node7"><a xlink:href="../../d8/d17/structdiscord__activity__buttons.html" target="_top" xlink:title=" ">
<polygon fill="none" stroke="orangered" points="11,-0.5 11,-19.5 147,-19.5 147,-0.5 11,-0.5"/>
<text text-anchor="middle" x="79" y="-7.5" font-family="Helvetica,sans-Serif" font-size="10.00">discord_activity_buttons</text>
</a>
</g>
</g>
<!-- Node8&#45;&gt;Node1 -->
<g id="edge6" class="edge">
<title>Node8&#45;&gt;Node1</title>
<path fill="none" stroke="#9a32cd" stroke-dasharray="5,2" d="M157.38,-18.65C184.01,-23.79 213.32,-31.98 238,-45 261.98,-57.65 283.55,-81.72 294.47,-95.21"/>
<polygon fill="#9a32cd" stroke="#9a32cd" points="157.78,-15.17 147.32,-16.82 156.53,-22.05 157.78,-15.17"/>
<text text-anchor="middle" x="207" y="-48" font-family="Helvetica,sans-Serif" font-size="10.00"> buttons</text>
</g>
</g>
</svg>
