<?xml version="1.0" encoding="UTF-8" standalone="no"?>
<!DOCTYPE svg PUBLIC "-//W3C//DTD SVG 1.1//EN"
 "http://www.w3.org/Graphics/SVG/1.1/DTD/svg11.dtd">
<!-- Generated by graphviz version 2.43.0 (0)
 -->
<!-- Title: Constants Pages: 1 -->
<svg width="210pt" height="101pt"
 viewBox="0.00 0.00 210.00 101.00" xmlns="http://www.w3.org/2000/svg" xmlns:xlink="http://www.w3.org/1999/xlink">
<g id="graph0" class="graph" transform="scale(1 1) rotate(0) translate(4 97)">
<title>Constants</title>
<!-- Node1 -->
<g id="node1" class="node">
<title>Node1</title>
<g id="a_node1"><a xlink:title="Macros for constants defined by Discord.">
<polygon fill="#bfbfbf" stroke="black" points="65,-56 0,-56 0,-37 65,-37 65,-56"/>
<text text-anchor="middle" x="32.5" y="-44" font-family="Helvetica,sans-Serif" font-size="10.00">Constants</text>
</a>
</g>
</g>
<!-- Node3 -->
<g id="node2" class="node">
<title>Node3</title>
<g id="a_node2"><a xlink:href="../../db/def/group__DiscordConstantsEmbed.html" target="_top" xlink:title="Max length for embed fields.">
<polygon fill="none" stroke="black" points="196,-93 107,-93 107,-74 196,-74 196,-93"/>
<text text-anchor="middle" x="151.5" y="-81" font-family="Helvetica,sans-Serif" font-size="10.00">Embed lengths</text>
</a>
</g>
</g>
<!-- Node1&#45;&gt;Node3 -->
<g id="edge2" class="edge">
<title>Node1&#45;&gt;Node3</title>
<path fill="none" stroke="black" d="M73.35,-59.1C88.63,-63.93 105.8,-69.37 120.07,-73.88"/>
<polygon fill="black" stroke="black" points="74.22,-55.71 63.63,-56.03 72.11,-62.38 74.22,-55.71"/>
</g>
<!-- Node2 -->
<g id="node3" class="node">
<title>Node2</title>
<g id="a_node3"><a xlink:href="../../df/dcb/group__DiscordConstantsGeneral.html" target="_top" xlink:title="Max length for general fields.">
<polygon fill="none" stroke="black" points="198.5,-56 104.5,-56 104.5,-37 198.5,-37 198.5,-56"/>
<text text-anchor="middle" x="151.5" y="-44" font-family="Helvetica,sans-Serif" font-size="10.00">General lengths</text>
</a>
</g>
</g>
<!-- Node1&#45;&gt;Node2 -->
<g id="edge1" class="edge">
<title>Node1&#45;&gt;Node2</title>
<path fill="none" stroke="black" d="M75.42,-46.5C84.79,-46.5 94.78,-46.5 104.31,-46.5"/>
<polygon fill="black" stroke="black" points="75.16,-43 65.16,-46.5 75.16,-50 75.16,-43"/>
</g>
<!-- Node4 -->
<g id="node4" class="node">
<title>Node4</title>
<g id="a_node4"><a xlink:href="../../d6/d1a/group__DiscordConstantsWebhook.html" target="_top" xlink:title="Max length for embed fields.">
<polygon fill="none" stroke="black" points="202,-19 101,-19 101,0 202,0 202,-19"/>
<text text-anchor="middle" x="151.5" y="-7" font-family="Helvetica,sans-Serif" font-size="10.00">Webhook lengths</text>
</a>
</g>
</g>
<!-- Node1&#45;&gt;Node4 -->
<g id="edge3" class="edge">
<title>Node1&#45;&gt;Node4</title>
<path fill="none" stroke="black" d="M73.35,-33.9C88.63,-29.07 105.8,-23.63 120.07,-19.12"/>
<polygon fill="black" stroke="black" points="72.11,-30.62 63.63,-36.97 74.22,-37.29 72.11,-30.62"/>
</g>
</g>
</svg>
