<?xml version="1.0" encoding="UTF-8" standalone="no"?>
<!DOCTYPE svg PUBLIC "-//W3C//DTD SVG 1.1//EN"
 "http://www.w3.org/Graphics/SVG/1.1/DTD/svg11.dtd">
<!-- Generated by graphviz version 2.43.0 (0)
 -->
<!-- Title: discord_audit_log Pages: 1 -->
<svg width="408pt" height="230pt"
 viewBox="0.00 0.00 408.00 230.00" xmlns="http://www.w3.org/2000/svg" xmlns:xlink="http://www.w3.org/1999/xlink">
<g id="graph0" class="graph" transform="scale(1 1) rotate(0) translate(4 226)">
<title>discord_audit_log</title>
<!-- Node1 -->
<g id="node1" class="node">
<title>Node1</title>
<g id="a_node1"><a xlink:title=" ">
<polygon fill="#bfbfbf" stroke="black" points="298,-95.5 298,-114.5 400,-114.5 400,-95.5 298,-95.5"/>
<text text-anchor="middle" x="349" y="-102.5" font-family="Helvetica,sans-Serif" font-size="10.00">discord_audit_log</text>
</a>
</g>
</g>
<!-- Node2 -->
<g id="node2" class="node">
<title>Node2</title>
<g id="a_node2"><a xlink:href="../../d7/d14/structdiscord__audit__log__entries.html" target="_top" xlink:title=" ">
<polygon fill="none" stroke="orangered" points="0,-202.5 0,-221.5 141,-221.5 141,-202.5 0,-202.5"/>
<text text-anchor="middle" x="70.5" y="-209.5" font-family="Helvetica,sans-Serif" font-size="10.00">discord_audit_log_entries</text>
</a>
</g>
</g>
<!-- Node2&#45;&gt;Node1 -->
<g id="edge1" class="edge">
<title>Node2&#45;&gt;Node1</title>
<path fill="none" stroke="#9a32cd" stroke-dasharray="5,2" d="M151.54,-207.06C191.9,-201.96 240.53,-191.66 280,-171 306.53,-157.11 329.71,-129.61 340.89,-114.87"/>
<polygon fill="#9a32cd" stroke="#9a32cd" points="150.98,-203.6 141.46,-208.25 151.8,-210.56 150.98,-203.6"/>
<text text-anchor="middle" x="219.5" y="-208" font-family="Helvetica,sans-Serif" font-size="10.00"> audit_log_entries</text>
</g>
<!-- Node8 -->
<g id="node3" class="node">
<title>Node8</title>
<g id="a_node3"><a xlink:href="../../d3/d7d/structdiscord__guild__scheduled__events.html" target="_top" xlink:title=" ">
<polygon fill="none" stroke="red" points="2.5,-153 2.5,-183 138.5,-183 138.5,-153 2.5,-153"/>
<text text-anchor="start" x="10.5" y="-171" font-family="Helvetica,sans-Serif" font-size="10.00">discord_guild_scheduled</text>
<text text-anchor="middle" x="70.5" y="-160" font-family="Helvetica,sans-Serif" font-size="10.00">_events</text>
</a>
</g>
</g>
<!-- Node8&#45;&gt;Node1 -->
<g id="edge2" class="edge">
<title>Node8&#45;&gt;Node1</title>
<path fill="none" stroke="#9a32cd" stroke-dasharray="5,2" d="M149.08,-158.5C188.69,-152.68 237.39,-144 280,-132 296.26,-127.42 313.98,-120.31 327.25,-114.54"/>
<polygon fill="#9a32cd" stroke="#9a32cd" points="148.35,-155.07 138.96,-159.96 149.35,-162 148.35,-155.07"/>
<text text-anchor="middle" x="219.5" y="-159" font-family="Helvetica,sans-Serif" font-size="10.00"> guild_scheduled_events</text>
</g>
<!-- Node12 -->
<g id="node4" class="node">
<title>Node12</title>
<g id="a_node4"><a xlink:href="../../d7/dd4/structdiscord__integrations.html" target="_top" xlink:title=" ">
<polygon fill="none" stroke="orangered" points="12.5,-114.5 12.5,-133.5 128.5,-133.5 128.5,-114.5 12.5,-114.5"/>
<text text-anchor="middle" x="70.5" y="-121.5" font-family="Helvetica,sans-Serif" font-size="10.00">discord_integrations</text>
</a>
</g>
</g>
<!-- Node12&#45;&gt;Node1 -->
<g id="edge3" class="edge">
<title>Node12&#45;&gt;Node1</title>
<path fill="none" stroke="#9a32cd" stroke-dasharray="5,2" d="M138.99,-119.36C188.01,-115.99 253.27,-111.51 297.75,-108.45"/>
<polygon fill="#9a32cd" stroke="#9a32cd" points="138.53,-115.89 128.79,-120.06 139.01,-122.87 138.53,-115.89"/>
<text text-anchor="middle" x="219.5" y="-120" font-family="Helvetica,sans-Serif" font-size="10.00"> integrations</text>
</g>
<!-- Node16 -->
<g id="node5" class="node">
<title>Node16</title>
<g id="a_node5"><a xlink:href="../../d9/d43/structdiscord__channels.html" target="_top" xlink:title=" ">
<polygon fill="none" stroke="red" points="20,-76.5 20,-95.5 121,-95.5 121,-76.5 20,-76.5"/>
<text text-anchor="middle" x="70.5" y="-83.5" font-family="Helvetica,sans-Serif" font-size="10.00">discord_channels</text>
</a>
</g>
</g>
<!-- Node16&#45;&gt;Node1 -->
<g id="edge4" class="edge">
<title>Node16&#45;&gt;Node1</title>
<path fill="none" stroke="#9a32cd" stroke-dasharray="5,2" d="M131.31,-86.95C173.05,-88.01 230.02,-90.26 280,-95 285.82,-95.55 291.9,-96.26 297.94,-97.04"/>
<polygon fill="#9a32cd" stroke="#9a32cd" points="131.39,-83.45 121.31,-86.71 131.22,-90.45 131.39,-83.45"/>
<text text-anchor="middle" x="219.5" y="-98" font-family="Helvetica,sans-Serif" font-size="10.00"> threads</text>
</g>
<!-- Node20 -->
<g id="node6" class="node">
<title>Node20</title>
<g id="a_node6"><a xlink:href="../../d7/d99/structdiscord__users.html" target="_top" xlink:title=" ">
<polygon fill="none" stroke="red" points="29,-38.5 29,-57.5 112,-57.5 112,-38.5 29,-38.5"/>
<text text-anchor="middle" x="70.5" y="-45.5" font-family="Helvetica,sans-Serif" font-size="10.00">discord_users</text>
</a>
</g>
</g>
<!-- Node20&#45;&gt;Node1 -->
<g id="edge5" class="edge">
<title>Node20&#45;&gt;Node1</title>
<path fill="none" stroke="#9a32cd" stroke-dasharray="5,2" d="M122.44,-49.1C165.24,-51.14 227.64,-56.76 280,-72 298.77,-77.46 318.73,-87.75 332.13,-95.39"/>
<polygon fill="#9a32cd" stroke="#9a32cd" points="122.41,-45.59 112.27,-48.66 122.11,-52.58 122.41,-45.59"/>
<text text-anchor="middle" x="219.5" y="-75" font-family="Helvetica,sans-Serif" font-size="10.00"> users</text>
</g>
<!-- Node23 -->
<g id="node7" class="node">
<title>Node23</title>
<g id="a_node7"><a xlink:href="../../d3/d6e/structdiscord__webhooks.html" target="_top" xlink:title=" ">
<polygon fill="none" stroke="red" points="17,-0.5 17,-19.5 124,-19.5 124,-0.5 17,-0.5"/>
<text text-anchor="middle" x="70.5" y="-7.5" font-family="Helvetica,sans-Serif" font-size="10.00">discord_webhooks</text>
</a>
</g>
</g>
<!-- Node23&#45;&gt;Node1 -->
<g id="edge6" class="edge">
<title>Node23&#45;&gt;Node1</title>
<path fill="none" stroke="#9a32cd" stroke-dasharray="5,2" d="M134.41,-7.28C177.46,-7.88 234.72,-13.66 280,-36 308.05,-49.84 331.24,-79.99 341.82,-95.45"/>
<polygon fill="#9a32cd" stroke="#9a32cd" points="134.36,-3.78 124.34,-7.23 134.32,-10.78 134.36,-3.78"/>
<text text-anchor="middle" x="219.5" y="-39" font-family="Helvetica,sans-Serif" font-size="10.00"> webhooks</text>
</g>
</g>
</svg>
