<?xml version="1.0" encoding="UTF-8" standalone="no"?>
<svg
   xmlns:dc="http://purl.org/dc/elements/1.1/"
   xmlns:cc="http://creativecommons.org/ns#"
   xmlns:rdf="http://www.w3.org/1999/02/22-rdf-syntax-ns#"
   xmlns:svg="http://www.w3.org/2000/svg"
   xmlns="http://www.w3.org/2000/svg"
   xmlns:sodipodi="http://sodipodi.sourceforge.net/DTD/sodipodi-0.dtd"
   xmlns:inkscape="http://www.inkscape.org/namespaces/inkscape"
   width="260.09482mm"
   height="138.39806mm"
   viewBox="0 0 260.09482 138.39806"
   version="1.1"
   id="svg2752"
   inkscape:version="1.0.1 (3bc2e813f5, 2020-09-07)"
   sodipodi:docname="Cogmasters Logo Unrotated.svg">
  <defs
     id="defs2746" />
  <sodipodi:namedview
     id="base"
     pagecolor="#ffffff"
     bordercolor="#666666"
     borderopacity="1.0"
     inkscape:pageopacity="0.0"
     inkscape:pageshadow="2"
     inkscape:zoom="0.35"
     inkscape:cx="174.37492"
     inkscape:cy="801.53964"
     inkscape:document-units="mm"
     inkscape:current-layer="layer1"
     inkscape:document-rotation="0"
     showgrid="false"
     fit-margin-top="0"
     fit-margin-left="0"
     fit-margin-right="0"
     fit-margin-bottom="0"
     inkscape:window-width="1346"
     inkscape:window-height="1040"
     inkscape:window-x="78"
     inkscape:window-y="0"
     inkscape:window-maximized="0" />
  <metadata
     id="metadata2749">
    <rdf:RDF>
      <cc:Work
         rdf:about="">
        <dc:format>image/svg+xml</dc:format>
        <dc:type
           rdf:resource="http://purl.org/dc/dcmitype/StillImage" />
        <dc:title></dc:title>
      </cc:Work>
    </rdf:RDF>
  </metadata>
  <g
     inkscape:label="Layer 1"
     inkscape:groupmode="layer"
     id="layer1"
     transform="translate(-59.696636,63.907364)">
    <path
       sodipodi:type="star"
       style="fill:#003380;fill-opacity:1;stroke:#000000;stroke-width:2.55196;stroke-miterlimit:4;stroke-dasharray:none"
       id="path2269-7-8-9"
       sodipodi:sides="3"
       sodipodi:cx="138.35435"
       sodipodi:cy="29.465492"
       sodipodi:r1="40.894543"
       sodipodi:r2="20.447271"
       sodipodi:arg1="1.5651784"
       sodipodi:arg2="2.612376"
       inkscape:flatsided="true"
       inkscape:rounded="0"
       inkscape:randomized="0"
       d="M 138.5841,70.35939 102.82433,9.2175054 173.65464,8.8195817 Z"
       inkscape:transform-center-x="0.11487521"
       inkscape:transform-center-y="10.124001" />
    <path
       style="fill:#3771c8;stroke:#000000;stroke-width:2.552;stroke-linecap:butt;stroke-linejoin:miter;stroke-miterlimit:4;stroke-dasharray:none;stroke-opacity:1"
       d="m 61.903842,-62.426623 9.5303,16.525109 133.653418,-0.0463 9.84714,-16.680599 z"
       id="path3474-8-1-8"
       sodipodi:nodetypes="ccccc" />
    <path
       style="fill:#3771c8;stroke:#000000;stroke-width:2.552;stroke-linecap:butt;stroke-linejoin:miter;stroke-miterlimit:4;stroke-dasharray:none;stroke-opacity:1"
       d="m 81.570392,-26.593793 9.72867,16.6573704 93.352578,-0.0132 8.9925,-16.5653804 z"
       id="path3474-7-0-5-1"
       sodipodi:nodetypes="ccccc" />
    <path
       style="fill:#3771c8;fill-opacity:1;stroke:#000000;stroke-width:2.552;stroke-linecap:butt;stroke-linejoin:miter;stroke-miterlimit:4;stroke-dasharray:none;stroke-opacity:1"
       d="m 164.52386,73.009956 153.03084,0.20179 -9.84716,-16.6806 -115.58312,-0.19773 31.20917,-54.7483006 52.94106,0.178642 L 241.20413,-59.77606 164.52386,73.009956"
       id="path3726" />
    <path
       style="fill:#003380;fill-opacity:1;stroke:#000000;stroke-width:2.552;stroke-linecap:butt;stroke-linejoin:miter;stroke-miterlimit:4;stroke-dasharray:none;stroke-opacity:1"
       d="m 231.8894,38.025896 0.11136,-16.331461 56.4022,-0.125687 8.9925,16.565378 z"
       id="path3474-7-0-5-1-4"
       sodipodi:nodetypes="ccccc" />
    <path
       style="fill:#666666;stroke:#000000;stroke-width:2.20384;stroke-miterlimit:4;stroke-dasharray:none"
       d="m 198.39582,50.995426 -3.00915,-4.11262 -4.29084,0.13821 c -3.47031,0.11192 -4.71468,0.0983 -6.50739,-0.0706 -1.21913,-0.11493 -2.25548,-0.1594 -2.30304,-0.099 -0.10688,0.13598 -5.50042,7.39199 -5.79233,7.79241 -0.26437,0.36266 -0.60147,0.32282 -2.95364,-0.34911 -4.38199,-1.25185 -8.21808,-2.87866 -12.54302,-5.31927 -1.38353,-0.78076 -1.81156,-1.08876 -1.8206,-1.31014 -0.006,-0.15917 0.30915,-2.35635 0.70147,-4.88256 0.39232,-2.52622 0.70777,-4.72832 0.70097,-4.89353 -0.008,-0.20525 -0.59,-0.80357 -1.83622,-1.889069 -2.0035,-1.745099 -4.40282,-4.206881 -6.07318,-6.231321 -0.59324,-0.719008 -1.1406,-1.30473 -1.21633,-1.301629 -0.0757,0.003 -1.82467,0.265279 -3.88649,0.58265 -2.06182,0.317389 -4.33345,0.612838 -5.04808,0.65659 l -1.29934,0.0795 -1.24585,-2.235949 c -1.56121,-2.801871 -2.45549,-4.683432 -3.42481,-7.205702 -0.74664,-1.942827 -1.88362,-5.624369 -2.1245,-6.879198 -0.14382,-0.749311 -0.70246,-0.246132 4.59241,-4.1367496 l 3.54397,-2.60408 -0.14543,-4.429111 c -0.10784,-3.28486103 -0.10171,-4.856319 0.0239,-6.08262 0.26809,-2.617521 0.3744,-2.39335 -1.95577,-4.124569 -5.45691,-4.0542604 -5.9221,-4.4290514 -5.94058,-4.7861514 -0.0252,-0.499991 1.17775,-4.557501 2.00324,-6.753111 1.53082,-4.07179 4.61806,-10.01021 5.21677,-10.03466 0.14411,-0.006 2.3439,0.309679 4.88837,0.701241 2.54452,0.39157 4.74132,0.70725 4.88181,0.701508 0.14761,-0.006 1.3336,-1.18424 2.80884,-2.790359 1.55835,-1.696609 3.25237,-3.37257 4.34709,-4.30076 0.98652,-0.836461 1.90468,-1.618919 2.04033,-1.738799 0.23875,-0.21101 0.22261,-0.3762 -0.50603,-5.176671 -0.41396,-2.7273 -0.75644,-5.02987 -0.7611,-5.11684 -0.0121,-0.23756 4.23177,-2.57258 6.70801,-3.69036 3.28417,-1.48246 8.29023,-3.16123 9.86403,-3.30787 l 0.65131,-0.0606 3.01715,4.0783 3.01713,4.07831 4.49859,-0.14171 c 3.19716,-0.10075 4.90139,-0.0958 5.89101,0.0169 2.6081,0.29709 2.54344,0.30898 3.20868,-0.59028 4.58959,-6.20395 5.45122,-7.28786 5.80484,-7.30231 0.46927,-0.0192 4.55549,1.18919 6.46637,1.91221 4.33211,1.63912 10.31748,4.69651 10.33862,5.28106 0.005,0.12538 -0.33324,2.41689 -0.75062,5.09227 l -0.75888,4.864301 2.77081,2.537709 c 2.36707,2.16794 4.0783,3.974631 5.92139,6.251802 0.37835,0.46744 0.44238,0.493879 0.98531,0.406988 2.63238,-0.421328 9.63704,-1.43818 9.66917,-1.403668 0.21312,0.229018 2.19167,3.822928 2.89726,5.262708 1.52042,3.102502 3.08694,7.42075 3.86234,10.64691 l 0.27899,1.16082 -0.34289,0.297042 c -0.1886,0.163359 -2.05661,1.5479 -4.15118,3.0767184 l -3.80829,2.779662 0.16895,4.160169 c 0.13645,3.356951 0.13237,4.536241 -0.0204,6.108192 -0.28888,2.970429 -0.47532,2.536917 1.8305,4.256539 5.61974,4.1910396 6.07632,4.5545296 6.08827,4.8470896 0.0353,0.863129 -1.8798,6.63297 -3.2234,9.71177 -0.94263,2.16001 -3.14176,6.27803 -3.65227,6.83914 l -0.31567,0.34698 -2.97339,-0.464431 c -1.63539,-0.255421 -3.88342,-0.60311 -4.99563,-0.77266 l -2.02223,-0.308261 -2.12199,2.339631 c -2.11308,2.32976 -3.73562,3.90053 -5.9663,5.775929 -0.64485,0.54217 -1.17136,1.01285 -1.16998,1.04598 0.003,0.0868 1.30733,8.83002 1.4185,9.51251 0.0589,0.36142 0.0327,0.62378 -0.0699,0.71262 -0.35567,0.30687 -3.10273,1.83401 -4.76092,2.64668 -2.32538,1.13966 -4.52809,2.05544 -6.81577,2.83366 -1.71159,0.58225 -4.90767,1.46696 -5.32294,1.47347 -0.094,10e-4 -1.52506,-1.84801 -3.18011,-4.10997 z m -5.53556,-22.83959 c 6.70359,-1.000459 12.33506,-3.946359 16.79022,-8.783238 3.95167,-4.29024 6.41286,-9.5628306 7.22359,-15.4751506 0.33748,-2.461171 0.15251,-6.928401 -0.38539,-9.31907 -2.39595,-10.6389624 -10.10026,-18.6595314 -20.51563,-21.3578314 -2.29688,-0.595029 -4.52349,-0.856969 -7.16276,-0.842589 -3.52843,0.01939 -6.33978,0.54184 -9.70762,1.804588 -10.28372,3.855831 -17.24301,13.301702 -18.05579,24.5072614 -0.14271,1.96730997 0.13362,5.58486 0.58078,7.602429 1.95898,8.8397716 7.80016,16.0122416 16.05772,19.7175696 4.62206,2.074043 10.28847,2.875331 15.17537,2.146012 z"
       id="path3517-0-9" />
  </g>
</svg>
