<?xml version="1.0" encoding="UTF-8" standalone="no"?>
<svg
   xmlns:dc="http://purl.org/dc/elements/1.1/"
   xmlns:cc="http://creativecommons.org/ns#"
   xmlns:rdf="http://www.w3.org/1999/02/22-rdf-syntax-ns#"
   xmlns:svg="http://www.w3.org/2000/svg"
   xmlns="http://www.w3.org/2000/svg"
   xmlns:sodipodi="http://sodipodi.sourceforge.net/DTD/sodipodi-0.dtd"
   xmlns:inkscape="http://www.inkscape.org/namespaces/inkscape"
   width="157.2077mm"
   height="250.34738mm"
   viewBox="0 0 157.2077 250.34738"
   version="1.1"
   id="svg3749"
   inkscape:export-filename="C:\Users\WEC\desktop\cogmasters.png"
   inkscape:export-xdpi="200"
   inkscape:export-ydpi="200"
   inkscape:version="1.0.1 (3bc2e813f5, 2020-09-07)"
   sodipodi:docname="Cogmasters Logo.svg">
  <defs
     id="defs3743" />
  <sodipodi:namedview
     id="base"
     pagecolor="#ffffff"
     bordercolor="#666666"
     borderopacity="1.0"
     inkscape:pageopacity="0.0"
     inkscape:pageshadow="2"
     inkscape:zoom="0.49497475"
     inkscape:cx="246.04783"
     inkscape:cy="430.36653"
     inkscape:document-units="mm"
     inkscape:current-layer="layer1"
     inkscape:document-rotation="0"
     showgrid="false"
     inkscape:window-width="1346"
     inkscape:window-height="1040"
     inkscape:window-x="208"
     inkscape:window-y="0"
     inkscape:window-maximized="0"
     fit-margin-top="0"
     fit-margin-left="0"
     fit-margin-right="0"
     fit-margin-bottom="0" />
  <metadata
     id="metadata3746">
    <rdf:RDF>
      <cc:Work
         rdf:about="">
        <dc:format>image/svg+xml</dc:format>
        <dc:type
           rdf:resource="http://purl.org/dc/dcmitype/StillImage" />
        <dc:title></dc:title>
      </cc:Work>
    </rdf:RDF>
  </metadata>
  <g
     inkscape:label="Layer 1"
     inkscape:groupmode="layer"
     id="layer1"
     transform="translate(-27.442979,-23.299095)">
    <path
       sodipodi:type="star"
       style="fill:#003380;fill-opacity:1;stroke:#000000;stroke-width:2.55196;stroke-miterlimit:4;stroke-dasharray:none"
       id="path2269-7-8-9"
       sodipodi:sides="3"
       sodipodi:cx="50.628586"
       sodipodi:cy="162.64012"
       sodipodi:r1="40.894543"
       sodipodi:r2="20.447271"
       sodipodi:arg1="1.5651784"
       sodipodi:arg2="2.612376"
       inkscape:flatsided="true"
       inkscape:rounded="0"
       inkscape:randomized="0"
       d="M 50.858327,203.53402 15.098561,142.39213 85.928869,141.99421 Z"
       inkscape:transform-center-x="-10.195072"
       inkscape:transform-center-y="0.032960153"
       transform="rotate(30.229536,85.717158,151.03935)" />
    <path
       style="fill:#3771c8;stroke:#000000;stroke-width:2.552;stroke-linecap:butt;stroke-linejoin:miter;stroke-miterlimit:4;stroke-dasharray:none;stroke-opacity:1"
       d="m 29.769595,25.510316 -0.0855,19.076126 115.501915,67.249858 16.90619,-9.4546 z"
       id="path3474-8-1-8"
       sodipodi:nodetypes="ccccc" />
    <path
       style="fill:#3771c8;stroke:#000000;stroke-width:2.552;stroke-linecap:butt;stroke-linejoin:miter;stroke-miterlimit:4;stroke-dasharray:none;stroke-opacity:1"
       d="m 28.721205,66.371863 0.01931,19.290271 80.664705,46.988386 16.10975,-9.78533 z"
       id="path3474-7-0-5-1"
       sodipodi:nodetypes="ccccc" />
    <path
       style="fill:#3771c8;fill-opacity:1;stroke:#000000;stroke-width:2.552;stroke-linecap:butt;stroke-linejoin:miter;stroke-miterlimit:4;stroke-dasharray:none;stroke-opacity:1"
       d="m 50.247231,194.19523 132.119399,77.22008 -0.10999,-19.36999 -99.766041,-58.36295 54.529081,-31.59064 45.65195,26.80835 0.6817,-70.82815 -133.106099,76.1233"
       id="path3726" />
    <path
       style="fill:#003380;fill-opacity:1;stroke:#000000;stroke-width:2.552;stroke-linecap:butt;stroke-linejoin:miter;stroke-miterlimit:4;stroke-dasharray:none;stroke-opacity:1"
       d="m 126.06535,197.88468 8.31855,-14.05456 48.79565,28.28796 -0.57044,18.84015 z"
       id="path3474-7-0-5-1-4"
       sodipodi:nodetypes="ccccc" />
    <path
       style="fill:#666666;stroke:#000000;stroke-width:2.20384;stroke-miterlimit:4;stroke-dasharray:none"
       d="m 90.596679,192.2277 -0.52939,-5.06837 -3.776936,-2.04088 c -3.054748,-1.65048 -4.123046,-2.28874 -5.586939,-3.33724 -0.995484,-0.71309 -1.868517,-1.27328 -1.940019,-1.24504 -0.160807,0.0637 -8.474059,3.61752 -8.927871,3.81653 -0.411007,0.18024 -0.682208,-0.0239 -2.376226,-1.7887 -3.155844,-3.28779 -5.651242,-6.62472 -8.159294,-10.9109 -0.802299,-1.37115 -1.017055,-1.85276 -0.91341,-2.04859 0.07495,-0.14055 1.45345,-1.88028 3.064275,-3.86545 1.610835,-1.98517 2.99207,-3.729 3.069372,-3.87517 0.09642,-0.18136 -0.105199,-0.99134 -0.635434,-2.55665 -0.852459,-2.51649 -1.686086,-5.85148 -2.110067,-8.44159 -0.150573,-0.91992 -0.328609,-1.70156 -0.395604,-1.73701 -0.06692,-0.0355 -1.710102,-0.68946 -3.651329,-1.4533 -1.941241,-0.76382 -4.052713,-1.65224 -4.69219,-1.97423 l -1.162676,-0.58548 0.04929,-2.55914 c 0.06174,-3.20687 0.236363,-5.28281 0.668733,-7.95011 0.333038,-2.05454 1.2042,-5.80788 1.627837,-7.01335 0.252989,-0.71982 -0.483016,-0.56632 6.050624,-1.26209 l 4.37311,-0.4657 2.104249,-3.90004 c 1.560637,-2.89246 2.35711,-4.24714 3.08303,-5.24345 1.549464,-2.1266 1.528456,-1.87939 0.386763,-4.54835 -2.673675,-6.25031 -2.886912,-6.80834 -2.72309,-7.12618 0.229963,-0.44469 3.312137,-3.3448 5.130786,-4.82623 3.372659,-2.747376 9.029864,-6.323946 9.559475,-6.043636 0.127534,0.0674 1.869245,1.44764 3.870577,3.06701 2.001354,1.61939 3.740497,2.998156 3.864765,3.063926 0.130559,0.0691 1.748475,-0.351776 3.831731,-0.996756 2.200623,-0.68132 4.508071,-1.2765 5.921241,-1.52731 1.273488,-0.22604 2.460738,-0.43984 2.638298,-0.47512 0.31252,-0.0621 0.38174,-0.21297 2.16906,-4.72749 1.01543,-2.56485 1.87879,-4.72673 1.91855,-4.80421 0.10916,-0.21135 4.95152,-0.0922 7.65379,0.18872 3.58394,0.37259 8.75445,1.44249 10.18807,2.10814 l 0.59325,0.27556 0.55358,5.04274 0.55356,5.042736 3.9582,2.14245 c 2.81312,1.52261 4.28311,2.38491 5.08141,2.98052 2.10387,1.56978 2.04201,1.5475 3.06954,1.10545 7.08895,-3.04961 8.37912,-3.55232 8.69193,-3.38677 0.41512,0.21967 3.3373,3.32101 4.62431,4.90777 2.91777,3.59729 6.54993,9.25235 6.2739,9.76805 -0.0588,0.11085 -1.50475,1.92046 -3.21233,4.02189 l -3.10469,3.82076 1.11637,3.58763 c 0.9537,3.06487 1.52262,5.48743 1.9686,8.38287 0.0916,0.59436 0.13358,0.64944 0.64642,0.84771 2.48654,0.96128 9.05063,3.60931 9.06101,3.6553 0.0688,0.30518 -0.0311,4.4065 -0.14631,6.00574 -0.24834,3.44608 -1.06893,7.96581 -2.02323,11.14364 l -0.34338,1.14343 -0.44581,0.084 c -0.2452,0.0462 -2.55626,0.30197 -5.13571,0.56835 l -4.68988,0.48433 -1.94853,3.67951 c -1.57221,2.96916 -2.16947,3.98603 -3.09289,5.2673 -1.7451,2.42106 -1.68793,1.95263 -0.56144,4.59931 2.7455,6.45047 2.95699,6.9944 2.82002,7.2532 -0.40406,0.76353 -4.96365,4.78457 -7.67461,6.76824 -1.90194,1.3917 -5.8753,3.84255 -6.59889,4.07033 l -0.44743,0.14087 -2.33523,-1.89827 c -1.28441,-1.04405 -3.05169,-2.47627 -3.9273,-3.18272 l -1.59204,-1.28446 -3.01135,0.95312 c -2.99869,0.94909 -5.19142,1.48937 -8.06296,1.98667 -0.83012,0.14378 -1.52201,0.28538 -1.53749,0.3147 -0.0411,0.0765 -3.31606,8.28747 -3.56362,8.93312 -0.13107,0.34193 -0.2858,0.55542 -0.41917,0.58052 -0.4618,0.0861 -3.60417,0.0225 -5.44602,-0.11018 -2.58294,-0.18607 -4.947178,-0.50381 -7.315579,-0.98318 -1.771983,-0.35866 -4.978866,-1.20337 -5.340943,-1.40682 -0.08172,-0.0465 -0.387266,-2.36452 -0.678436,-5.15215 z m 6.716134,-22.52072 c 6.295697,2.51061 12.644537,2.80056 18.929067,0.86444 5.57429,-1.71731 10.35536,-5.03378 14.03249,-9.73394 1.5307,-1.95658 3.61998,-5.90946 4.35885,-8.24585 3.28621,-10.3985 0.66765,-21.20725 -6.97289,-28.78241 -1.68496,-1.67051 -3.47691,-3.01785 -5.76452,-4.33421 -3.05839,-1.75968 -5.75047,-2.7237 -9.29608,-3.32825 -10.82657,-1.84601 -21.595172,2.81161 -27.939038,12.08418 -1.113777,1.62794 -2.696335,4.89268 -3.325758,6.86102 -2.75793,8.62397 -1.322151,17.76193 3.947002,25.12079 2.949324,4.11905 7.441767,7.66422 12.031311,9.49446 z"
       id="path3517-0-9" />
  </g>
</svg>
