<?xml version="1.0" encoding="UTF-8" standalone="no"?>
<svg
   xmlns:dc="http://purl.org/dc/elements/1.1/"
   xmlns:cc="http://creativecommons.org/ns#"
   xmlns:rdf="http://www.w3.org/1999/02/22-rdf-syntax-ns#"
   xmlns:svg="http://www.w3.org/2000/svg"
   xmlns="http://www.w3.org/2000/svg"
   xmlns:sodipodi="http://sodipodi.sourceforge.net/DTD/sodipodi-0.dtd"
   xmlns:inkscape="http://www.inkscape.org/namespaces/inkscape"
   width="157.47481mm"
   height="180.73808mm"
   viewBox="0 0 157.47481 180.73809"
   version="1.1"
   id="svg2895"
   inkscape:version="1.0.1 (3bc2e813f5, 2020-09-07)"
   sodipodi:docname="Concord Logo3.svg"
   inkscape:export-filename="C:\Users\WEC\Desktop\bitmap.png"
   inkscape:export-xdpi="1200"
   inkscape:export-ydpi="1200">
  <defs
     id="defs2889" />
  <sodipodi:namedview
     id="base"
     pagecolor="#ffffff"
     bordercolor="#666666"
     borderopacity="1.0"
     inkscape:pageopacity="0.0"
     inkscape:pageshadow="2"
     inkscape:zoom="0.7"
     inkscape:cx="273.51804"
     inkscape:cy="464.09976"
     inkscape:document-units="mm"
     inkscape:current-layer="layer1"
     inkscape:document-rotation="0"
     showgrid="false"
     fit-margin-top="0"
     fit-margin-left="0"
     fit-margin-right="0"
     fit-margin-bottom="0"
     inkscape:window-width="1920"
     inkscape:window-height="1017"
     inkscape:window-x="-8"
     inkscape:window-y="-8"
     inkscape:window-maximized="1" />
  <metadata
     id="metadata2892">
    <rdf:RDF>
      <cc:Work
         rdf:about="">
        <dc:format>image/svg+xml</dc:format>
        <dc:type
           rdf:resource="http://purl.org/dc/dcmitype/StillImage" />
        <dc:title />
      </cc:Work>
    </rdf:RDF>
  </metadata>
  <g
     inkscape:label="Layer 1"
     inkscape:groupmode="layer"
     id="layer1"
     transform="translate(-459.40007,-58.398254)">
    <path
       sodipodi:type="star"
       style="fill:#003380;fill-opacity:1;stroke:#000000;stroke-width:2.55196;stroke-miterlimit:4;stroke-dasharray:none"
       id="path2269-7-8"
       sodipodi:sides="3"
       sodipodi:cx="538.0578"
       sodipodi:cy="195.69052"
       sodipodi:r1="40.894543"
       sodipodi:r2="20.447271"
       sodipodi:arg1="1.5651784"
       sodipodi:arg2="2.612376"
       inkscape:flatsided="true"
       inkscape:rounded="0"
       inkscape:randomized="0"
       d="m 538.28754,236.58442 -35.75976,-61.14189 70.8303,-0.39792 z"
       inkscape:transform-center-x="0.11487521"
       inkscape:transform-center-y="10.124001"
       inkscape:export-filename="C:\Users\WEC\Desktop\concordSmall.png"
       inkscape:export-xdpi="19.95595"
       inkscape:export-ydpi="19.95595" />
    <path
       style="fill:#3771c8;stroke:#000000;stroke-width:2.552;stroke-linecap:butt;stroke-linejoin:miter;stroke-miterlimit:4;stroke-dasharray:none;stroke-opacity:1"
       d="m 461.60728,103.79842 9.5303,16.52511 133.6534,-0.0463 9.84714,-16.68059 z"
       id="path3474-8-1"
       sodipodi:nodetypes="ccccc"
       inkscape:export-filename="C:\Users\WEC\Desktop\concordSmall.png"
       inkscape:export-xdpi="19.95595"
       inkscape:export-ydpi="19.95595" />
    <path
       style="fill:#3771c8;stroke:#000000;stroke-width:2.552;stroke-linecap:butt;stroke-linejoin:miter;stroke-miterlimit:4;stroke-dasharray:none;stroke-opacity:1"
       d="m 481.27383,139.63125 9.72867,16.65737 93.35256,-0.0132 8.9925,-16.56538 z"
       id="path3474-7-0-5"
       sodipodi:nodetypes="ccccc"
       inkscape:export-filename="C:\Users\WEC\Desktop\concordSmall.png"
       inkscape:export-xdpi="19.95595"
       inkscape:export-ydpi="19.95595" />
    <path
       style="fill:#666666;stroke:#000000;stroke-width:1.83519;stroke-miterlimit:4;stroke-dasharray:none"
       d="m 545.68148,147.01312 -2.5058,-3.42467 -3.57308,0.11509 c -2.88982,0.0932 -3.92602,0.0819 -5.41887,-0.0588 -1.01519,-0.0957 -1.87819,-0.13274 -1.91779,-0.0824 -0.0889,0.11324 -4.58032,6.15549 -4.8234,6.48893 -0.22015,0.30199 -0.50087,0.26881 -2.45957,-0.29073 -3.64899,-1.04244 -6.8434,-2.39712 -10.44488,-4.42947 -1.15209,-0.65015 -1.50852,-0.90663 -1.51605,-1.09099 -0.005,-0.13254 0.25744,-1.96218 0.58413,-4.06582 0.32669,-2.10364 0.58937,-3.93738 0.58371,-4.07495 -0.007,-0.17093 -0.4913,-0.66915 -1.52906,-1.57308 -1.66836,-1.45318 -3.66633,-3.50317 -5.05728,-5.18897 -0.494,-0.59873 -0.94979,-1.08648 -1.01287,-1.0839 -0.0631,0.003 -1.51944,0.22091 -3.23637,0.48519 -1.71691,0.26429 -3.60857,0.51033 -4.20365,0.54676 l -1.08199,0.0662 -1.03745,-1.86193 c -1.30006,-2.3332 -2.04475,-3.90002 -2.85192,-6.00036 -0.62175,-1.61785 -1.56853,-4.68355 -1.76913,-5.72847 -0.11976,-0.62397 -0.58495,-0.20496 3.82421,-3.44477 l 2.95116,-2.16848 -0.1211,-3.68824 c -0.0898,-2.73537 -0.0847,-4.04397 0.0199,-5.06514 0.22323,-2.179673 0.31176,-1.992993 -1.62863,-3.434623 -4.5441,-3.37608 -4.93147,-3.68818 -4.94686,-3.98555 -0.021,-0.41635 0.98074,-3.79513 1.66814,-5.62347 1.27475,-3.39068 3.84557,-8.33573 4.34414,-8.35609 0.12001,-0.005 1.95181,0.25787 4.07066,0.58393 2.11887,0.32607 3.9482,0.58894 4.0652,0.58417 0.1229,-0.005 1.11051,-0.98615 2.33897,-2.3236 1.29768,-1.41281 2.70833,-2.80842 3.61993,-3.58134 0.8215,-0.69655 1.58607,-1.34812 1.69903,-1.44794 0.19882,-0.17572 0.18537,-0.31328 -0.42138,-4.31075 -0.34472,-2.27108 -0.62991,-4.18849 -0.63378,-4.26091 -0.0101,-0.19782 3.52388,-2.14225 5.58592,-3.07305 2.73479,-1.23448 6.90346,-2.63243 8.214,-2.75454 l 0.54236,-0.0505 2.51245,3.3961 2.51245,3.3961 3.74607,-0.118 c 2.66235,-0.0839 4.08152,-0.0798 4.90559,0.0141 2.17183,0.24739 2.11799,0.25729 2.67194,-0.49154 3.82186,-5.16618 4.53937,-6.06878 4.83383,-6.08081 0.39078,-0.016 3.79347,0.99027 5.38471,1.59235 3.60745,1.36493 8.5916,3.91089 8.6092,4.39766 0.004,0.1044 -0.2775,2.0126 -0.62506,4.24045 l -0.63194,4.05062 2.30732,2.11321 c 1.97112,1.80529 3.3961,3.30977 4.93088,5.20602 0.31507,0.38925 0.36838,0.41127 0.8205,0.33891 2.19204,-0.35084 8.02499,-1.1976 8.05174,-1.16887 0.17747,0.19071 1.82506,3.18345 2.41262,4.38239 1.26609,2.58352 2.57057,6.17943 3.21626,8.86593 l 0.23232,0.96665 -0.28553,0.24735 c -0.15705,0.13603 -1.71259,1.28897 -3.45678,2.56205 l -3.17126,2.31469 0.14069,3.464273 c 0.11363,2.79542 0.11023,3.77745 -0.017,5.08645 -0.24056,2.47355 -0.39581,2.11255 1.5243,3.54451 4.67969,3.48999 5.05989,3.79267 5.06984,4.03628 0.0294,0.71877 -1.56535,5.52345 -2.6842,8.08723 -0.78495,1.79869 -2.61622,5.22786 -3.04133,5.69512 l -0.26287,0.28893 -2.47601,-0.38673 c -1.36182,-0.21269 -3.23382,-0.50223 -4.15998,-0.64342 l -1.68396,-0.25669 -1.76703,1.94825 c -1.75961,1.94005 -3.11074,3.24807 -4.96828,4.80977 -0.53698,0.45147 -0.97541,0.84343 -0.97427,0.87101 0.003,0.0723 1.08865,7.35296 1.18122,7.92129 0.049,0.30097 0.0272,0.51943 -0.0582,0.59342 -0.29618,0.25554 -2.58372,1.52722 -3.96453,2.20395 -1.93639,0.94902 -3.77064,1.71161 -5.67566,2.35966 -1.42527,0.48484 -4.08673,1.22157 -4.43254,1.22698 -0.0783,0.001 -1.26995,-1.53888 -2.64815,-3.42247 z m -4.60961,-19.01907 c 5.58225,-0.8331 10.27171,-3.28622 13.98163,-7.31401 3.29064,-3.57258 5.34013,-7.96319 6.01524,-12.88652 0.28103,-2.04947 0.127,-5.76944 -0.32092,-7.76021 -1.99516,-8.859323 -8.41072,-15.538243 -17.08385,-17.785173 -1.91266,-0.4955 -3.76682,-0.71362 -5.9646,-0.70164 -2.93821,0.0161 -5.27928,0.45119 -8.08376,1.50271 -8.56351,3.21084 -14.35867,11.07664 -15.03549,20.407783 -0.11884,1.63823 0.11126,4.65064 0.48363,6.33073 1.63129,7.36108 6.49537,13.33377 13.37164,16.41929 3.8489,1.7271 8.56746,2.39435 12.6369,1.78703 z"
       id="path3517-0"
       inkscape:export-filename="C:\Users\WEC\Desktop\concordSmall.png"
       inkscape:export-xdpi="19.95595"
       inkscape:export-ydpi="19.95595" />
  </g>
</svg>
