<?xml version="1.0" encoding="UTF-8" standalone="no"?>
<!DOCTYPE svg PUBLIC "-//W3C//DTD SVG 1.1//EN"
 "http://www.w3.org/Graphics/SVG/1.1/DTD/svg11.dtd">
<!-- Generated by graphviz version 2.43.0 (0)
 -->
<!-- Title: Interactions API Pages: 1 -->
<svg width="332pt" height="64pt"
 viewBox="0.00 0.00 332.00 64.00" xmlns="http://www.w3.org/2000/svg" xmlns:xlink="http://www.w3.org/1999/xlink">
<g id="graph0" class="graph" transform="scale(1 1) rotate(0) translate(4 60)">
<title>Interactions API</title>
<!-- Node2 -->
<g id="node1" class="node">
<title>Node2</title>
<g id="a_node1"><a xlink:href="../../d3/de3/group__DiscordAPI.html" target="_top" xlink:title="The Discord public API supported by Concord.">
<polygon fill="none" stroke="black" points="32,-37 0,-37 0,-18 32,-18 32,-37"/>
<text text-anchor="middle" x="16" y="-25" font-family="Helvetica,sans-Serif" font-size="10.00">API</text>
</a>
</g>
</g>
<!-- Node1 -->
<g id="node2" class="node">
<title>Node1</title>
<g id="a_node2"><a xlink:title="Interactions public API supported by Concord.">
<polygon fill="#bfbfbf" stroke="black" points="161,-37 68,-37 68,-18 161,-18 161,-37"/>
<text text-anchor="middle" x="114.5" y="-25" font-family="Helvetica,sans-Serif" font-size="10.00">Interactions API</text>
</a>
</g>
</g>
<!-- Node2&#45;&gt;Node1 -->
<g id="edge1" class="edge">
<title>Node2&#45;&gt;Node1</title>
<path fill="none" stroke="black" d="M42.28,-27.5C50.08,-27.5 58.92,-27.5 67.65,-27.5"/>
<polygon fill="black" stroke="black" points="42.08,-24 32.08,-27.5 42.08,-31 42.08,-24"/>
</g>
<!-- Node3 -->
<g id="node3" class="node">
<title>Node3</title>
<g id="a_node3"><a xlink:href="../../de/d05/group__DiscordAPIInteractionsApplicationCommand.html" target="_top" xlink:title="Receiving and registering slash commands.">
<polygon fill="none" stroke="black" points="310.5,-56 210.5,-56 210.5,-37 310.5,-37 310.5,-56"/>
<text text-anchor="middle" x="260.5" y="-44" font-family="Helvetica,sans-Serif" font-size="10.00">Slash commands</text>
</a>
</g>
</g>
<!-- Node1&#45;&gt;Node3 -->
<g id="edge2" class="edge">
<title>Node1&#45;&gt;Node3</title>
<path fill="none" stroke="black" d="M171.25,-34.86C184.19,-36.56 197.87,-38.37 210.5,-40.03"/>
<polygon fill="black" stroke="black" points="171.43,-31.35 161.06,-33.51 170.52,-38.29 171.43,-31.35"/>
</g>
<!-- Node4 -->
<g id="node4" class="node">
<title>Node4</title>
<g id="a_node4"><a xlink:href="../../d1/dc0/group__DiscordAPIInteractionsReact.html" target="_top" xlink:title="Receiving and sending interactions.">
<polygon fill="none" stroke="black" points="324,-19 197,-19 197,0 324,0 324,-19"/>
<text text-anchor="middle" x="260.5" y="-7" font-family="Helvetica,sans-Serif" font-size="10.00">Receiving and sending</text>
</a>
</g>
</g>
<!-- Node1&#45;&gt;Node4 -->
<g id="edge3" class="edge">
<title>Node1&#45;&gt;Node4</title>
<path fill="none" stroke="black" d="M171.15,-20.54C179.57,-19.49 188.31,-18.4 196.86,-17.33"/>
<polygon fill="black" stroke="black" points="170.55,-17.09 161.06,-21.8 171.42,-24.04 170.55,-17.09"/>
</g>
</g>
</svg>
