<?xml version="1.0" encoding="UTF-8" standalone="no"?>
<!-- Created with Inkscape (http://www.inkscape.org/) -->

<svg
   version="1.1"
   id="svg2"
   width="597.33301"
   height="597.33301"
   viewBox="0 0 597.33301 117.99164"
   sodipodi:docname="icon.svg"
   inkscape:version="1.1 (1:1.1+202105261517+ce6663b3b7)"
   inkscape:export-filename="/home/lucasmull/Pictures/orca.jpg.png"
   inkscape:export-xdpi="96"
   inkscape:export-ydpi="96"
   xmlns:inkscape="http://www.inkscape.org/namespaces/inkscape"
   xmlns:sodipodi="http://sodipodi.sourceforge.net/DTD/sodipodi-0.dtd"
   xmlns="http://www.w3.org/2000/svg"
   xmlns:svg="http://www.w3.org/2000/svg">
  <defs
     id="defs6">
    <inkscape:path-effect
       effect="line_segment"
       id="path-effect1300"
       is_visible="true"
       lpeversion="1"
       end_type="open_both" />
    <rect
       x="3329.0002"
       y="1896.2725"
       width="344.15814"
       height="413.88086"
       id="rect14768" />
    <clipPath
       clipPathUnits="userSpaceOnUse"
       id="clipPath82106">
      <g
         inkscape:label="Clip"
         id="use82108">
        <path
           style="color:#000000;opacity:0.81;fill:#ff0000;fill-opacity:1;stroke:#000000;stroke-opacity:1;-inkscape-stroke:none"
           d="m 2697.1919,2263.0098 c 0,244.1555 -55.8966,355.0302 -268.9113,527.6742 -213.0148,172.644 -564.8421,169.8212 -866.0905,169.8212 -301.2484,0 -344.0413,-50.5171 -557.056,-223.1611 -213.01481,-172.644 -345.21871,-530.2951 -345.21872,-774.4506 -3e-5,-244.1555 -40.18699,-391.157 94.61562,-512.7652 144.72696,-130.5611 287.1973,-41.8791 532.3664,-313.3588 196.5199,-217.60964 851.0404,249.4618 1090.8746,477.0314 198.9021,188.7306 319.4199,405.0534 319.4199,649.2089 z"
           id="path83133"
           sodipodi:nodetypes="sssssssss"
           clip-path="none" />
        <path
           style="fill:#ff0000;stroke:#000000;stroke-width:1px;stroke-linecap:butt;stroke-linejoin:miter;stroke-opacity:1"
           d="m 1292.0354,1135.1859 c 371.513,64.3927 630.2464,173.9285 630.2464,173.9285 0,0 204.9542,99.4361 289.5445,168.8162 84.5902,69.3802 377.9705,113.2137 377.9705,113.2137 L 2462.8433,1248.733 1889.4971,1037.0965 1285.7327,979.10691 1159.3244,1101.4456 Z"
           id="path83135" />
      </g>
    </clipPath>
    <filter
       style="color-interpolation-filters:sRGB"
       inkscape:label="Drop Shadow"
       id="filter46132"
       x="-0.029764667"
       y="-0.033569854"
       width="1.0607685"
       height="1.0714743">
      <feFlood
         flood-opacity="0.498039"
         flood-color="rgb(0,0,0)"
         result="flood"
         id="feFlood46122" />
      <feComposite
         in="flood"
         in2="SourceGraphic"
         operator="in"
         result="composite1"
         id="feComposite46124" />
      <feGaussianBlur
         in="composite1"
         stdDeviation="11.0091"
         result="blur"
         id="feGaussianBlur46126" />
      <feOffset
         dx="1.1"
         dy="3.41166"
         result="offset"
         id="feOffset46128" />
      <feComposite
         in="SourceGraphic"
         in2="offset"
         operator="over"
         result="composite2"
         id="feComposite46130" />
    </filter>
    <filter
       style="color-interpolation-filters:sRGB"
       inkscape:label="Drop Shadow"
       id="filter46552"
       x="-0.01771841"
       y="-0.055943687"
       width="1.0355731"
       height="1.1292642">
      <feFlood
         flood-opacity="0.498039"
         flood-color="rgb(0,0,0)"
         result="flood"
         id="feFlood46542" />
      <feComposite
         in="flood"
         in2="SourceGraphic"
         operator="in"
         result="composite1"
         id="feComposite46544" />
      <feGaussianBlur
         in="composite1"
         stdDeviation="13.1613"
         result="blur"
         id="feGaussianBlur46546" />
      <feOffset
         dx="0.242932"
         dy="9.81137"
         result="offset"
         id="feOffset46548" />
      <feComposite
         in="SourceGraphic"
         in2="offset"
         operator="over"
         result="composite2"
         id="feComposite46550" />
    </filter>
  </defs>
  <sodipodi:namedview
     id="namedview4"
     pagecolor="#ffffff"
     bordercolor="#666666"
     borderopacity="1.0"
     inkscape:pageshadow="2"
     inkscape:pageopacity="0.0"
     inkscape:pagecheckerboard="true"
     showgrid="false"
     inkscape:snap-nodes="true"
     inkscape:snap-midpoints="false"
     inkscape:lockguides="false"
     inkscape:zoom="0.35355339"
     inkscape:cx="439.82042"
     inkscape:cy="271.529"
     inkscape:window-width="1366"
     inkscape:window-height="704"
     inkscape:window-x="0"
     inkscape:window-y="0"
     inkscape:window-maximized="1"
     inkscape:current-layer="layer3"
     showguides="false"
     inkscape:guide-bbox="true"
     showborder="true"
     inkscape:snap-smooth-nodes="true"
     borderlayer="false"
     inkscape:showpageshadow="true">
    <inkscape:grid
       type="xygrid"
       id="grid24947" />
  </sodipodi:namedview>
  <g
     inkscape:groupmode="layer"
     id="layer1"
     inkscape:label="Background"
     style="display:inline" />
  <g
     inkscape:groupmode="layer"
     inkscape:label="Image"
     id="g8"
     style="display:inline">
    <text
       xml:space="preserve"
       id="text14766"
       style="font-style:normal;font-weight:normal;font-size:40px;line-height:1.25;font-family:sans-serif;white-space:pre;shape-inside:url(#rect14768);fill:#000000;fill-opacity:1;stroke:none" />
  </g>
  <g
     inkscape:groupmode="layer"
     id="layer2"
     inkscape:label="White"
     style="display:inline" />
  <g
     inkscape:groupmode="layer"
     id="layer3"
     inkscape:label="Eye">
    <g
       id="g171924"
       transform="matrix(0.41431272,0,0,0.41431272,3001.7654,-2598.9418)">
      <path
         id="path13325"
         style="display:inline;fill:#000000;fill-opacity:0.497268;stroke:none;stroke-width:6.3;stroke-miterlimit:4;stroke-dasharray:none;stroke-opacity:1"
         d="m -6301.4916,6694.8952 a 113.45831,113.59309 0 0 1 2.2891,1.5313 113.45831,113.59309 0 0 1 0.6465,0.9687 227.45477,226.91762 0 0 1 -2.2578,-1.8242 227.45477,226.91762 0 0 1 -0.6778,-0.6758 z" />
      <path
         id="path13327"
         style="display:inline;fill:#000000;fill-opacity:0.497268;stroke:none;stroke-width:6.3;stroke-miterlimit:4;stroke-dasharray:none;stroke-opacity:1"
         d="m -6301.4916,6694.8952 a 227.45477,226.91762 0 0 0 0.6778,0.6758 227.45477,226.91762 0 0 0 2.2578,1.8242 113.45831,113.59309 0 0 0 -0.6465,-0.9687 113.45831,113.59309 0 0 0 -2.2891,-1.5313 z" />
      <path
         id="path13329"
         style="display:inline;fill:#000000;fill-opacity:0.497268;stroke:none;stroke-width:6.3;stroke-miterlimit:4;stroke-dasharray:none;stroke-opacity:1"
         d="m -6323.3607,6438.2195 a 113.45831,113.59309 0 0 1 2.2891,1.5312 113.45831,113.59309 0 0 1 0.6465,0.9688 227.45477,226.91762 0 0 1 -2.2579,-1.8242 227.45477,226.91762 0 0 1 -0.6777,-0.6758 z" />
      <path
         id="path13331"
         style="display:inline;fill:#000000;fill-opacity:0.497268;stroke:none;stroke-width:6.3;stroke-miterlimit:4;stroke-dasharray:none;stroke-opacity:1"
         d="m -6323.3607,6438.2195 a 227.45477,226.91762 0 0 0 0.6777,0.6758 227.45477,226.91762 0 0 0 2.2579,1.8242 113.45831,113.59309 0 0 0 -0.6465,-0.9688 113.45831,113.59309 0 0 0 -2.2891,-1.5312 z" />
      <path
         id="path13333"
         style="display:inline;fill:#afafe9;fill-opacity:1;stroke:none;stroke-width:6.3;stroke-miterlimit:4;stroke-dasharray:none;stroke-opacity:1"
         d="m -6891.5375,6617.1471 a 568.50165,565.01081 0 0 1 -0.8653,-3.1094 568.50165,565.01081 0 0 1 -6.1133,-27.0586 568.50165,565.01081 0 0 1 -4.7695,-27.3242 568.50165,565.01081 0 0 1 -3.416,-27.5235 568.50165,565.01081 0 0 1 -2.0527,-27.6562 568.50165,565.01081 0 0 1 -0.6856,-27.7246 568.50165,565.01081 0 0 1 5.7871,-80.4082 568.50165,565.01081 0 0 1 17.2422,-78.7734 568.50165,565.01081 0 0 1 28.3457,-75.5313 568.50165,565.01081 0 0 1 38.8731,-70.7539 568.50165,565.01081 0 0 1 48.6093,-64.5351 568.50165,565.01081 0 0 1 57.3555,-57.004 568.50165,565.01081 0 0 1 64.9336,-48.3105 568.50165,565.01081 0 0 1 51.8633,-28.1464 568.50165,565.01081 0 0 1 45.0508,33.6171 568.50165,565.01081 0 0 1 24.9238,24.7715 568.50165,565.01081 0 0 0 -35.0059,34.7891 568.50165,565.01081 0 0 0 -56.8379,80.6757 568.50165,565.01081 0 0 0 -41.8808,89.2618 568.50165,565.01081 0 0 0 -25.6485,95.1308 568.50165,565.01081 0 0 0 -1.6328,18.5469 568.50165,565.01081 0 0 0 -7.0039,79.5664 568.50165,565.01081 0 0 0 1.0371,34.1152 568.50165,565.01081 0 0 0 3.1094,33.9902 568.50165,565.01081 0 0 0 5.166,33.7404 568.50165,565.01081 0 0 0 7.207,33.371 568.50165,565.01081 0 0 0 9.2227,32.875 568.50165,565.01081 0 0 0 11.2012,32.2637 568.50165,565.01081 0 0 0 13.1426,31.5332 568.50165,565.01081 0 0 0 1.4043,2.8653 568.50165,565.01081 0 0 0 13.6289,27.8203 568.50165,565.01081 0 0 0 16.8691,29.7265 568.50165,565.01081 0 0 0 12.5156,19.2383 568.50165,565.01081 0 0 1 -33.8769,-5.125 568.50165,565.01081 0 0 1 -33.5762,-7.1621 568.50165,565.01081 0 0 1 -33.0781,-9.166 568.50165,565.01081 0 0 1 -32.2617,-11.0645 568.50165,565.01081 0 0 1 -0.2012,-0.068 568.50165,565.01081 0 0 1 -31.7266,-13.0605 568.50165,565.01081 0 0 1 -30.8769,-14.9414 568.50165,565.01081 0 0 1 -29.9102,-16.7656 568.50165,565.01081 0 0 1 -28.8398,-18.5313 568.50165,565.01081 0 0 1 -27.6582,-20.2285 568.50165,565.01081 0 0 1 -9.5703,-7.9258 z" />
      <path
         id="path13335"
         style="display:inline;fill:#212178;fill-opacity:1;stroke:none;stroke-width:6.3;stroke-miterlimit:4;stroke-dasharray:none;stroke-opacity:1"
         d="m -6309.2084,6964.2352 a 568.50165,565.01081 0 0 1 -18.3496,-6.293 568.50165,565.01081 0 0 1 -31.7265,-13.0606 568.50165,565.01081 0 0 1 -30.875,-14.9414 568.50165,565.01081 0 0 1 -29.9121,-16.7675 568.50165,565.01081 0 0 1 -28.8379,-18.5313 568.50165,565.01081 0 0 1 -27.6602,-20.2266 568.50165,565.01081 0 0 1 -26.3808,-21.8515 568.50165,565.01081 0 0 1 -14.586,-13.6465 568.50165,565.01081 0 0 0 36.2285,-36.0059 568.50165,565.01081 0 0 0 46.4922,-65.9882 568.50165,565.01081 0 0 0 2.1719,-0.1895 568.50165,565.01081 0 0 0 95.7188,-25.4902 568.50165,565.01081 0 0 0 7.0546,-3.2696 568.50165,565.01081 0 0 0 12.9063,4.4258 568.50165,565.01081 0 0 0 33.0801,9.1641 568.50165,565.01081 0 0 0 33.5761,7.164 568.50165,565.01081 0 0 0 33.9493,5.1348 568.50165,565.01081 0 0 0 34.1992,3.0898 568.50165,565.01081 0 0 0 34.3261,1.0313 568.50165,565.01081 0 0 0 98.7188,-8.584 568.50165,565.01081 0 0 0 29.3379,-7.8125 568.50165,565.01081 0 0 1 -289.4317,242.6485 z m 0,0 a 568.50165,565.01081 0 0 1 -200.2851,37.7578 568.50165,565.01081 0 0 1 -201.1992,-36.7383 568.50165,565.01081 0 0 0 78.1386,-36.211 568.50165,565.01081 0 0 0 81.1739,-56.4903 568.50165,565.01081 0 0 0 33.8437,-33.6367 568.50165,565.01081 0 0 0 14.586,13.6465 568.50165,565.01081 0 0 0 26.3808,21.8515 568.50165,565.01081 0 0 0 27.6602,20.2266 568.50165,565.01081 0 0 0 28.8379,18.5313 568.50165,565.01081 0 0 0 29.9121,16.7675 568.50165,565.01081 0 0 0 30.875,14.9414 568.50165,565.01081 0 0 0 31.7265,13.0606 568.50165,565.01081 0 0 0 18.3496,6.2931 z" />
      <path
         style="display:inline;fill:#e6e6e6;fill-opacity:1;stroke:none;stroke-width:0.4;stroke-miterlimit:4;stroke-dasharray:none;stroke-opacity:1"
         d="m -6687.434,6254.6412 a 227.45477,226.91762 0 0 1 70.2871,11.1055 227.45477,226.91762 0 0 1 24.7656,12.5898 227.45477,226.91762 0 0 1 38.6406,19.6407 227.45477,226.91762 0 0 1 21.3985,21.3476 568.50165,565.01081 0 0 0 -8.877,16.5039 568.50165,565.01081 0 0 0 -0.9004,1.6758 568.50165,565.01081 0 0 0 -22.2988,66.1113 568.50165,565.01081 0 0 1 -251.9941,-108.5234 227.45477,226.91762 0 0 1 58.6914,-29.3457 227.45477,226.91762 0 0 1 4.5058,-0.7129 227.45477,226.91762 0 0 1 7.9219,-1.25 227.45477,226.91762 0 0 1 57.8594,-9.1426 z"
         id="path13337" />
      <path
         id="path13339"
         style="display:inline;opacity:1;fill:#e6e6e6;fill-opacity:1;stroke-width:13.3542"
         d="m -6322.2719,6464.7955 a 568.50165,565.01081 0 0 0 5.4922,-62.3945 568.50165,565.01081 0 0 0 -7.1309,-81.0176 568.50165,565.01081 0 0 1 6.2871,-1.6738 568.50165,565.01081 0 0 1 98.7207,-8.584 568.50165,565.01081 0 0 1 98.7188,8.584 568.50165,565.01081 0 0 1 95.7187,25.4902 568.50165,565.01081 0 0 1 67.4785,31.2715 568.50165,565.01081 0 0 1 -8.6406,16.0664 568.50165,565.01081 0 0 1 -13.7988,25.6582 568.50165,565.01081 0 0 1 -49.3692,59.7891 568.50165,565.01081 0 0 1 -10.8183,3.2617 568.50165,565.01081 0 0 1 -110.9082,10.8574 568.50165,565.01081 0 0 1 -110.9082,-10.8574 568.50165,565.01081 0 0 1 -60.8418,-16.4512 z" />
      <path
         id="path13341"
         style="display:inline;opacity:1;fill:#1a1a1a;stroke-width:13.3542"
         d="m -7055.5356,5791.9498 a 340.51014,339.16576 0 0 1 88.1309,11.5567 340.51014,339.16576 0 0 1 27.2675,11.25 340.51014,339.16576 0 0 1 54.8575,22.6329 568.50165,565.01081 0 0 0 -98.7207,8.5839 568.50165,565.01081 0 0 0 -54.8868,14.6172 340.51014,339.16576 0 0 0 -19.5507,-22.2071 340.51014,339.16576 0 0 0 -54.336,-41.5293 340.51014,339.16576 0 0 1 27.5606,-3.6152 340.51014,339.16576 0 0 1 29.6777,-1.2891 z m 16.6484,68.6407 a 568.50165,565.01081 0 0 1 54.8868,-14.6172 568.50165,565.01081 0 0 1 98.7207,-8.5839 340.51014,339.16576 0 0 1 70.5215,53.8984 340.51014,339.16576 0 0 1 37.8359,49.037 568.50165,565.01081 0 0 1 17.0371,-7.9023 568.50165,565.01081 0 0 1 32.8359,-17.4434 568.50165,565.01081 0 0 1 9.5098,-2.8671 568.50165,565.01081 0 0 1 67.457,-21.7579 568.50165,565.01081 0 0 1 49.0528,22.7324 568.50165,565.01081 0 0 1 81.1757,56.4904 568.50165,565.01081 0 0 1 70.0704,69.6405 568.50165,565.01081 0 0 1 56.8398,80.6777 568.50165,565.01081 0 0 1 41.8809,89.2598 568.50165,565.01081 0 0 1 25.6464,95.1329 568.50165,565.01081 0 0 1 1.5059,17.0956 568.50165,565.01081 0 0 0 -89.4316,23.8164 568.50165,565.01081 0 0 0 -89.8125,41.6231 568.50165,565.01081 0 0 0 -69.1602,48.1289 568.50165,565.01081 0 0 1 30.1953,-97.4473 568.50165,565.01081 0 0 1 0.9004,-1.6758 568.50165,565.01081 0 0 1 8.877,-16.5039 227.45477,226.91762 0 0 0 -21.3985,-21.3476 227.45477,226.91762 0 0 0 -38.6406,-19.6407 227.45477,226.91762 0 0 0 -24.7656,-12.5898 227.45477,226.91762 0 0 0 -70.2871,-11.1054 227.45477,226.91762 0 0 0 -57.8594,9.1426 227.45477,226.91762 0 0 0 -7.9219,1.25 227.45477,226.91762 0 0 0 -4.5058,0.7129 227.45477,226.91762 0 0 0 -63.4082,32.2305 227.45477,226.91762 0 0 0 -50.3204,50.2011 227.45477,226.91762 0 0 0 -32.3066,63.2579 227.45477,226.91762 0 0 0 -3.5723,22.5019 227.45477,226.91762 0 0 0 -0.7226,4.5508 568.50165,565.01081 0 0 1 -0.012,-0.016 568.50165,565.01081 0 0 0 -1.377,38.2773 568.50165,565.01081 0 0 0 0.6856,27.7246 568.50165,565.01081 0 0 0 2.0527,27.6562 568.50165,565.01081 0 0 0 3.416,27.5235 568.50165,565.01081 0 0 0 4.7695,27.3242 568.50165,565.01081 0 0 0 6.1133,27.0586 568.50165,565.01081 0 0 0 0.8653,3.1093 568.50165,565.01081 0 0 1 -16.8106,-13.9238 568.50165,565.01081 0 0 1 -25.0059,-23.3945 568.50165,565.01081 0 0 1 -23.539,-24.8516 568.50165,565.01081 0 0 1 -21.9844,-26.2187 568.50165,565.01081 0 0 1 -20.3535,-27.4903 568.50165,565.01081 0 0 1 -18.6445,-28.6601 568.50165,565.01081 0 0 1 -2.6192,-4.6172 340.51014,339.16576 0 0 1 -35.041,2.2891 340.51014,339.16576 0 0 1 -21.4121,-2.8086 568.50165,565.01081 0 0 1 -1.0469,-30.4902 568.50165,565.01081 0 0 1 6.543,-80.8867 568.50165,565.01081 0 0 1 -0.3984,-1.1505 568.50165,565.01081 0 0 1 1.7968,-8.211 568.50165,565.01081 0 0 1 2.9824,-19.9804 568.50165,565.01081 0 0 1 0.8438,-2.7637 568.50165,565.01081 0 0 1 8.4355,-33.2891 568.50165,565.01081 0 0 1 2.7598,-10.8945 568.50165,565.01081 0 0 1 20.3106,-59.0449 568.50165,565.01081 0 0 1 3.3027,-6.1407 568.50165,565.01081 0 0 1 41.5664,-77.2871 568.50165,565.01081 0 0 1 7.666,-14.2539 568.50165,565.01081 0 0 1 15.3828,-18.6289 568.50165,565.01081 0 0 1 5.7071,-8.1426 340.51014,339.16576 0 0 0 2.3925,-18.0976 340.51014,339.16576 0 0 0 -11.6035,-87.7813 340.51014,339.16576 0 0 0 -23.5019,-56.5117 340.51014,339.16576 0 0 0 -10.5157,-25.2889 340.51014,339.16576 0 0 0 -34.5625,-48.0371 z m 466.5723,574.3613 a 568.50165,565.01081 0 0 1 69.1602,-48.1289 568.50165,565.01081 0 0 1 89.8125,-41.6231 568.50165,565.01081 0 0 1 89.4316,-23.8164 568.50165,565.01081 0 0 1 7.1309,81.0177 568.50165,565.01081 0 0 1 -5.4922,62.3945 568.50165,565.01081 0 0 1 -37.8301,-13.2968 227.45477,226.91762 0 0 1 -4.3223,4.3144 227.45477,226.91762 0 0 1 -34.1992,34.1172 227.45477,226.91762 0 0 1 -63.4082,32.2304 227.45477,226.91762 0 0 1 -4.5058,0.7129 227.45477,226.91762 0 0 1 -65.7813,10.3945 227.45477,226.91762 0 0 1 -23.7754,-1.2441 227.45477,226.91762 0 0 1 -23.5156,-3.7148 227.45477,226.91762 0 0 1 -3.1797,-0.8496 568.50165,565.01081 0 0 1 8.3203,-83.9629 568.50165,565.01081 0 0 1 2.1543,-8.545 z m 615.3281,-58.4805 a 568.50165,565.01081 0 0 0 -67.4785,-31.2715 568.50165,565.01081 0 0 0 -95.7187,-25.4902 568.50165,565.01081 0 0 0 -98.7188,-8.584 568.50165,565.01081 0 0 0 -98.7207,8.584 568.50165,565.01081 0 0 0 -6.2871,1.6738 568.50165,565.01081 0 0 0 -1.5059,-17.0957 568.50165,565.01081 0 0 0 -25.6464,-95.1328 568.50165,565.01081 0 0 0 -41.8809,-89.2598 568.50165,565.01081 0 0 0 -56.8398,-80.6777 568.50165,565.01081 0 0 0 -70.0704,-69.6406 568.50165,565.01081 0 0 0 -81.1757,-56.4903 568.50165,565.01081 0 0 0 -49.0528,-22.7324 568.50165,565.01081 0 0 1 29.6797,-7.5273 568.50165,565.01081 0 0 1 110.9102,-10.8555 568.50165,565.01081 0 0 1 110.9082,10.8555 568.50165,565.01081 0 0 1 106.6465,32.1523 568.50165,565.01081 0 0 1 98.2871,52.2129 568.50165,565.01081 0 0 1 46.7558,38.1348 568.50165,565.01081 0 0 1 39.3926,32.1308 568.50165,565.01081 0 0 1 70.7012,85.6211 568.50165,565.01081 0 0 1 52.5351,97.6817 568.50165,565.01081 0 0 1 32.3516,105.9922 568.50165,565.01081 0 0 1 3.3711,34.0195 568.50165,565.01081 0 0 1 -8.4434,15.6992 z" />
      <path
         id="path13343"
         style="display:inline;fill:#3737c8;fill-opacity:0.997123;stroke:none;stroke-width:6.3;stroke-miterlimit:4;stroke-dasharray:none;stroke-opacity:1"
         d="m -6517.5365,6838.9167 a 568.50165,565.01081 0 0 1 -10.4179,-9.7461 568.50165,565.01081 0 0 1 -23.5391,-24.8516 568.50165,565.01081 0 0 1 -21.9863,-26.2187 568.50165,565.01081 0 0 1 -20.3516,-27.4902 568.50165,565.01081 0 0 1 -6.1309,-9.4239 568.50165,565.01081 0 0 0 0.074,0.012 568.50165,565.01081 0 0 0 34.1992,3.0879 568.50165,565.01081 0 0 0 34.3262,1.0313 568.50165,565.01081 0 0 0 96.5468,-8.3946 568.50165,565.01081 0 0 1 -46.4922,65.9883 568.50165,565.01081 0 0 1 -36.2285,36.0059 z m 0,0 a 568.50165,565.01081 0 0 1 -33.8437,33.6367 568.50165,565.01081 0 0 1 -81.1739,56.4903 568.50165,565.01081 0 0 1 -78.1386,36.211 568.50165,565.01081 0 0 1 -274.6582,-219.336 568.50165,565.01081 0 0 0 12.3496,1.1153 568.50165,565.01081 0 0 0 34.3262,1.0293 568.50165,565.01081 0 0 0 98.7187,-8.5821 568.50165,565.01081 0 0 0 95.7207,-25.4921 568.50165,565.01081 0 0 0 11.4805,-5.3204 568.50165,565.01081 0 0 0 32.2617,11.0645 568.50165,565.01081 0 0 0 33.0781,9.166 568.50165,565.01081 0 0 0 33.5762,7.1621 568.50165,565.01081 0 0 0 33.8769,5.125 568.50165,565.01081 0 0 0 6.1309,9.4239 568.50165,565.01081 0 0 0 20.3516,27.4902 568.50165,565.01081 0 0 0 21.9863,26.2187 568.50165,565.01081 0 0 0 23.5391,24.8516 568.50165,565.01081 0 0 0 10.4179,9.746 z m -554.3144,-483.9726 a 568.50165,565.01081 0 0 0 8.9297,25.7188 568.50165,565.01081 0 0 0 13.1406,31.5312 568.50165,565.01081 0 0 0 15.0332,30.6855 568.50165,565.01081 0 0 0 16.8711,29.7285 568.50165,565.01081 0 0 0 18.6445,28.6602 568.50165,565.01081 0 0 0 20.3535,27.4903 568.50165,565.01081 0 0 0 21.9844,26.2187 568.50165,565.01081 0 0 0 23.5391,24.8516 568.50165,565.01081 0 0 0 25.0058,23.3945 568.50165,565.01081 0 0 0 26.3809,21.8496 568.50165,565.01081 0 0 0 27.6582,20.2286 568.50165,565.01081 0 0 0 28.8398,18.5312 568.50165,565.01081 0 0 0 29.9102,16.7656 568.50165,565.01081 0 0 0 30.8769,14.9414 568.50165,565.01081 0 0 0 31.7266,13.0606 568.50165,565.01081 0 0 0 0.2012,0.068 568.50165,565.01081 0 0 1 -11.4805,5.3203 568.50165,565.01081 0 0 1 -95.7207,25.4922 568.50165,565.01081 0 0 1 -98.7187,8.582 568.50165,565.01081 0 0 1 -34.3262,-1.0293 568.50165,565.01081 0 0 1 -12.3496,-1.1152 568.50165,565.01081 0 0 1 -92.6446,-308.9355 568.50165,565.01081 0 0 1 6.1446,-82.0391 z" />
      <path
         id="path13345"
         style="display:inline;fill:#e6e6e6;fill-opacity:1"
         d="m -6342.0604,6129.7516 a 227.45477,226.91762 0 0 0 2.5371,9.4454 227.45477,226.91762 0 0 0 16.7559,35.8477 227.45477,226.91762 0 0 0 22.7402,32.4004 227.45477,226.91762 0 0 0 28.0352,27.9707 227.45477,226.91762 0 0 0 32.4785,22.6875 227.45477,226.91762 0 0 0 35.9336,16.7148 227.45477,226.91762 0 0 0 16.873,4.5118 113.45831,113.59309 0 0 0 2.3535,-0.9766 113.45831,113.59309 0 0 0 23.4981,-18.0527 113.45831,113.59309 0 0 0 18.0293,-23.5254 113.45831,113.59309 0 0 0 7.9492,-19.213 227.45477,226.91762 0 0 0 -13.5352,-19.2852 227.45477,226.91762 0 0 0 -28.0351,-27.9707 227.45477,226.91762 0 0 0 -32.4785,-22.6875 227.45477,226.91762 0 0 0 -35.9336,-16.7148 227.45477,226.91762 0 0 0 -38.2969,-10.2383 227.45477,226.91762 0 0 0 -39.4961,-3.4473 227.45477,226.91762 0 0 0 -12.9883,1.1329 113.45831,113.59309 0 0 0 -3.7011,4.8301 113.45831,113.59309 0 0 0 -2.7188,6.5702 z" />
    </g>
  </g>
</svg>
