<?xml version="1.0" encoding="UTF-8" standalone="no"?>
<!-- Created with Inkscape (http://www.inkscape.org/) -->

<svg
   version="1.1"
   id="svg2"
   width="400"
   height="400"
   viewBox="0 0 400 400"
   sodipodi:docname="icon.svg"
   inkscape:version="1.1 (1:1.1+202105261517+ce6663b3b7)"
   inkscape:export-filename="/home/lucasmull/Pictures/orca.jpg.png"
   inkscape:export-xdpi="96"
   inkscape:export-ydpi="96"
   xmlns:inkscape="http://www.inkscape.org/namespaces/inkscape"
   xmlns:sodipodi="http://sodipodi.sourceforge.net/DTD/sodipodi-0.dtd"
   xmlns="http://www.w3.org/2000/svg"
   xmlns:svg="http://www.w3.org/2000/svg">
  <defs
     id="defs6">
    <inkscape:path-effect
       effect="line_segment"
       id="path-effect1300"
       is_visible="true"
       lpeversion="1"
       end_type="open_both" />
    <rect
       x="3329.0002"
       y="1896.2725"
       width="344.15814"
       height="413.88086"
       id="rect14768" />
    <clipPath
       clipPathUnits="userSpaceOnUse"
       id="clipPath82106">
      <g
         inkscape:label="Clip"
         id="use82108">
        <path
           style="color:#000000;opacity:0.81;fill:#ff0000;fill-opacity:1;stroke:#000000;stroke-opacity:1;-inkscape-stroke:none"
           d="m 2697.1919,2263.0098 c 0,244.1555 -55.8966,355.0302 -268.9113,527.6742 -213.0148,172.644 -564.8421,169.8212 -866.0905,169.8212 -301.2484,0 -344.0413,-50.5171 -557.056,-223.1611 -213.01481,-172.644 -345.21871,-530.2951 -345.21872,-774.4506 -3e-5,-244.1555 -40.18699,-391.157 94.61562,-512.7652 144.72696,-130.5611 287.1973,-41.8791 532.3664,-313.3588 196.5199,-217.60964 851.0404,249.4618 1090.8746,477.0314 198.9021,188.7306 319.4199,405.0534 319.4199,649.2089 z"
           id="path83133"
           sodipodi:nodetypes="sssssssss"
           clip-path="none" />
        <path
           style="fill:#ff0000;stroke:#000000;stroke-width:1px;stroke-linecap:butt;stroke-linejoin:miter;stroke-opacity:1"
           d="m 1292.0354,1135.1859 c 371.513,64.3927 630.2464,173.9285 630.2464,173.9285 0,0 204.9542,99.4361 289.5445,168.8162 84.5902,69.3802 377.9705,113.2137 377.9705,113.2137 L 2462.8433,1248.733 1889.4971,1037.0965 1285.7327,979.10691 1159.3244,1101.4456 Z"
           id="path83135" />
      </g>
    </clipPath>
    <filter
       style="color-interpolation-filters:sRGB"
       inkscape:label="Drop Shadow"
       id="filter46132"
       x="-0.029764668"
       y="-0.033569852"
       width="1.0607685"
       height="1.0714743">
      <feFlood
         flood-opacity="0.498039"
         flood-color="rgb(0,0,0)"
         result="flood"
         id="feFlood46122" />
      <feComposite
         in="flood"
         in2="SourceGraphic"
         operator="in"
         result="composite1"
         id="feComposite46124" />
      <feGaussianBlur
         in="composite1"
         stdDeviation="11.0091"
         result="blur"
         id="feGaussianBlur46126" />
      <feOffset
         dx="1.1"
         dy="3.41166"
         result="offset"
         id="feOffset46128" />
      <feComposite
         in="SourceGraphic"
         in2="offset"
         operator="over"
         result="composite2"
         id="feComposite46130" />
    </filter>
    <filter
       style="color-interpolation-filters:sRGB"
       inkscape:label="Drop Shadow"
       id="filter46552"
       x="-0.01771841"
       y="-0.055943685"
       width="1.0355731"
       height="1.1292642">
      <feFlood
         flood-opacity="0.498039"
         flood-color="rgb(0,0,0)"
         result="flood"
         id="feFlood46542" />
      <feComposite
         in="flood"
         in2="SourceGraphic"
         operator="in"
         result="composite1"
         id="feComposite46544" />
      <feGaussianBlur
         in="composite1"
         stdDeviation="13.1613"
         result="blur"
         id="feGaussianBlur46546" />
      <feOffset
         dx="0.242932"
         dy="9.81137"
         result="offset"
         id="feOffset46548" />
      <feComposite
         in="SourceGraphic"
         in2="offset"
         operator="over"
         result="composite2"
         id="feComposite46550" />
    </filter>
  </defs>
  <sodipodi:namedview
     id="namedview4"
     pagecolor="#ffffff"
     bordercolor="#666666"
     borderopacity="1.0"
     inkscape:pageshadow="2"
     inkscape:pageopacity="0.0"
     inkscape:pagecheckerboard="true"
     showgrid="false"
     inkscape:snap-nodes="true"
     inkscape:snap-midpoints="false"
     inkscape:lockguides="false"
     inkscape:zoom="0.3535534"
     inkscape:cx="-101.82337"
     inkscape:cy="326.68332"
     inkscape:window-width="1366"
     inkscape:window-height="704"
     inkscape:window-x="0"
     inkscape:window-y="0"
     inkscape:window-maximized="1"
     inkscape:current-layer="g8"
     showguides="true"
     inkscape:guide-bbox="true"
     showborder="true"
     inkscape:snap-smooth-nodes="true"
     width="320px">
    <inkscape:grid
       type="xygrid"
       id="grid24947" />
  </sodipodi:namedview>
  <g
     inkscape:groupmode="layer"
     id="layer1"
     inkscape:label="Background"
     style="display:inline">
    <path
       style="display:inline;opacity:1;fill:#ffffff;fill-opacity:1;stroke:#ffffff;stroke-width:6.40907;stroke-miterlimit:4;stroke-dasharray:none;paint-order:stroke fill markers"
       d="m 27.237809,6.794597 a 109.11772,108.68691 0 0 0 -9.5103,0.41309 109.11772,108.68691 0 0 0 -8.8318997,1.15851 109.11772,108.68691 0 0 1 17.4121997,13.308206 109.11772,108.68691 0 0 1 6.2651,7.11636 109.11772,108.68691 0 0 1 11.075704,15.39366 109.11772,108.68691 0 0 1 3.3697,8.10396 109.11772,108.68691 0 0 1 7.5313,18.10941 109.11772,108.68691 0 0 1 3.7184,28.12981 109.11772,108.68691 0 0 1 -0.7667,5.799467 182.17843,181.05978 0 0 0 -1.8288,2.60929 182.17843,181.05978 0 0 0 -4.9295,5.9697 182.17843,181.05978 0 0 0 -2.4566,4.56772 182.17843,181.05978 0 0 0 -13.320104,24.76696 182.17843,181.05978 0 0 0 -1.0584,1.96778 182.17843,181.05978 0 0 0 -6.5086,18.92115 182.17843,181.05978 0 0 0 -0.8844,3.49119 182.17843,181.05978 0 0 0 -2.7032,10.66761 182.17843,181.05978 0 0 0 -0.2703,0.88564 182.17843,181.05978 0 0 0 -0.9558,6.40279 182.17843,181.05978 0 0 0 -0.5758,2.63125 182.17843,181.05978 0 0 0 -1.969,26.28533 182.17843,181.05978 0 0 0 0,0.004 182.17843,181.05978 0 0 0 0.3354,9.76884 109.11772,108.68691 0 0 0 0.1434,0.0189 182.17843,181.05978 0 0 0 29.209404,89.21068 182.17843,181.05978 0 0 0 3.9575,0.35737 182.17843,181.05978 0 0 0 11,0.32984 182.17843,181.05978 0 0 0 15.8775,-0.68846 182.17843,181.05978 0 0 1 -15.8775,0.6891 182.17843,181.05978 0 0 1 -11,-0.32984 182.17843,181.05978 0 0 1 -3.9575,-0.35801 182.17843,181.05978 0 0 0 88.015297,70.28763 182.17843,181.05978 0 0 0 64.475,11.77293 182.17843,181.05978 0 0 0 64.1821,-12.09966 182.17843,181.05978 0 0 0 92.7494,-77.75818 182.17843,181.05978 0 0 1 -9.4014,2.50355 182.17843,181.05978 0 0 1 -31.6348,2.75074 182.17843,181.05978 0 0 1 -10.9999,-0.33045 182.17843,181.05978 0 0 1 -10.9593,-0.99017 182.17843,181.05978 0 0 1 -10.8791,-1.64544 182.17843,181.05978 0 0 1 -10.7596,-2.29512 182.17843,181.05978 0 0 1 -10.6007,-2.93728 182.17843,181.05978 0 0 1 -4.1358,-1.41826 182.17843,181.05978 0 0 1 -2.2607,1.04836 182.17843,181.05978 0 0 1 -30.6735,8.16779 182.17843,181.05978 0 0 1 -0.6959,0.0613 182.17843,181.05978 0 0 1 -7.07,10.83723 182.17843,181.05978 0 0 0 7.0693,-10.83723 182.17843,181.05978 0 0 1 -30.9388,2.69008 182.17843,181.05978 0 0 1 -10.9999,-0.33049 182.17843,181.05978 0 0 1 -10.9593,-0.98953 182.17843,181.05978 0 0 1 -0.023,-0.004 182.17843,181.05978 0 0 1 -4.0107,-6.16499 182.17843,181.05978 0 0 1 -5.4057,-9.52599 182.17843,181.05978 0 0 1 -4.3675,-8.91512 182.17843,181.05978 0 0 1 -0.45,-0.91816 182.17843,181.05978 0 0 1 -4.2116,-10.10493 182.17843,181.05978 0 0 1 -3.5894,-10.33902 182.17843,181.05978 0 0 1 -2.9554,-10.53492 182.17843,181.05978 0 0 1 -2.3096,-10.69389 182.17843,181.05978 0 0 1 -1.6554,-10.81217 182.17843,181.05978 0 0 1 -0.9964,-10.89231 182.17843,181.05978 0 0 1 -0.3324,-10.93235 182.17843,181.05978 0 0 1 1.546,-19.86562 182.17843,181.05978 0 0 0 3.4693,1.37131 182.17843,181.05978 0 0 0 0.7354,0.29043 182.17843,181.05978 0 0 0 2.4146,0.95383 182.17843,181.05978 0 0 0 14.7346,4.71231 182.17843,181.05978 0 0 0 3.2571,0.84929 182.17843,181.05978 0 0 0 15.5126,3.34599 182.17843,181.05978 0 0 1 0.6247,-2.06039 182.17843,181.05978 0 0 0 -3.1551,12.10212 182.17843,181.05978 0 0 0 -0.6904,2.73825 182.17843,181.05978 0 0 0 -2.6663,26.90622 72.888712,72.716581 0 0 0 1.019,0.27225 72.888712,72.716581 0 0 0 7.5357,1.19046 72.888712,72.716581 0 0 0 7.6188,0.39867 72.888712,72.716581 0 0 0 21.0799,-3.33095 72.888712,72.716581 0 0 0 1.4439,-0.22845 72.888712,72.716581 0 0 0 20.3194,-10.32838 72.888712,72.716581 0 0 0 10.9593,-10.93299 72.888712,72.716581 0 0 0 1.3851,-1.38256 182.17843,181.05978 0 0 0 12.1227,4.26101 182.17843,181.05978 0 0 0 19.497,5.27184 182.17843,181.05978 0 0 0 15.7185,2.31765 182.17843,181.05978 0 0 0 3.9475,0.38682 182.17843,181.05978 0 0 0 15.8737,0.77483 182.17843,181.05978 0 0 0 11.915,-0.38743 182.17843,181.05978 0 0 0 3.9587,-0.3874 182.17843,181.05978 0 0 0 1.9828,-0.097 182.17843,181.05978 0 0 0 1.9647,-0.28979 182.17843,181.05978 0 0 0 15.7197,-2.31765 182.17843,181.05978 0 0 0 3.4668,-1.04522 182.17843,181.05978 0 0 0 15.8205,-19.15964 182.17843,181.05978 0 0 0 4.4219,-8.22226 182.17843,181.05978 0 0 0 2.769,-5.14854 182.17843,181.05978 0 0 0 2.7056,-5.03086 182.17843,181.05978 0 0 0 -1.0802,-10.90167 182.17843,181.05978 0 0 0 -10.3672,-33.96559 182.17843,181.05978 0 0 0 -16.8351,-31.30246 182.17843,181.05978 0 0 0 -22.6564,-27.437587 182.17843,181.05978 0 0 0 -12.6235,-10.29644 182.17843,181.05978 0 0 0 -14.9831,-12.22043 182.17843,181.05978 0 0 0 -31.4965,-16.73182 182.17843,181.05978 0 0 0 -34.1752,-10.30332 182.17843,181.05978 0 0 0 -35.541,-3.47868 182.17843,181.05978 0 0 0 -35.5415,3.47868 182.17843,181.05978 0 0 0 -9.511,2.41215 182.17843,181.05978 0 0 0 -21.6169,6.97237 182.17843,181.05978 0 0 0 -3.0474,0.9188 182.17843,181.05978 0 0 0 -10.5224,5.5898 182.17843,181.05978 0 0 0 -5.4596,2.53232 109.11772,108.68691 0 0 0 -12.1247,-15.71411 109.11772,108.68691 0 0 0 -22.598797,-17.27195 109.11772,108.68691 0 0 0 -17.5793,-7.25277 109.11772,108.68691 0 0 0 -8.738,-3.6051 109.11772,108.68691 0 0 0 -28.241804,-3.703386 z"
       id="rect33723" />
    <path
       style="display:inline;opacity:1;fill:#ffffff;fill-opacity:1;stroke:#ffffff;stroke-width:6.40907;stroke-miterlimit:4;stroke-dasharray:none;paint-order:stroke fill markers"
       d="m 27.237809,6.794597 a 109.11772,108.68691 0 0 0 -9.5103,0.41309 109.11772,108.68691 0 0 0 -8.8318997,1.15851 109.11772,108.68691 0 0 1 17.4121997,13.308206 109.11772,108.68691 0 0 1 6.2651,7.11636 109.11772,108.68691 0 0 1 11.075704,15.39366 109.11772,108.68691 0 0 1 3.3697,8.10396 109.11772,108.68691 0 0 1 7.5313,18.10941 109.11772,108.68691 0 0 1 3.7184,28.12981 109.11772,108.68691 0 0 1 -0.7667,5.799467 182.17843,181.05978 0 0 0 -1.8288,2.60929 182.17843,181.05978 0 0 0 -4.9295,5.9697 182.17843,181.05978 0 0 0 -2.4566,4.56772 182.17843,181.05978 0 0 0 -13.320104,24.76696 182.17843,181.05978 0 0 0 -1.0584,1.96778 182.17843,181.05978 0 0 0 -6.5086,18.92115 182.17843,181.05978 0 0 0 -0.8844,3.49119 182.17843,181.05978 0 0 0 -2.7032,10.66761 182.17843,181.05978 0 0 0 -0.2703,0.88564 182.17843,181.05978 0 0 0 -0.9558,6.40279 182.17843,181.05978 0 0 0 -0.5758,2.63125 182.17843,181.05978 0 0 0 -1.969,26.28533 182.17843,181.05978 0 0 0 0,0.004 182.17843,181.05978 0 0 0 0.3354,9.76884 109.11772,108.68691 0 0 0 0.1434,0.0189 182.17843,181.05978 0 0 0 29.209404,89.21068 182.17843,181.05978 0 0 0 3.9575,0.35737 182.17843,181.05978 0 0 0 11,0.32984 182.17843,181.05978 0 0 0 15.8775,-0.68846 182.17843,181.05978 0 0 1 -15.8775,0.6891 182.17843,181.05978 0 0 1 -11,-0.32984 182.17843,181.05978 0 0 1 -3.9575,-0.35801 182.17843,181.05978 0 0 0 88.015297,70.28763 182.17843,181.05978 0 0 0 64.475,11.77293 182.17843,181.05978 0 0 0 64.1821,-12.09966 182.17843,181.05978 0 0 0 92.7494,-77.75818 182.17843,181.05978 0 0 1 -9.4014,2.50355 182.17843,181.05978 0 0 1 -31.6348,2.75074 182.17843,181.05978 0 0 1 -10.9999,-0.33045 182.17843,181.05978 0 0 1 -10.9593,-0.99017 182.17843,181.05978 0 0 1 -10.8791,-1.64544 182.17843,181.05978 0 0 1 -10.7596,-2.29512 182.17843,181.05978 0 0 1 -10.6007,-2.93728 182.17843,181.05978 0 0 1 -4.1358,-1.41826 182.17843,181.05978 0 0 1 -2.2607,1.04836 182.17843,181.05978 0 0 1 -30.6735,8.16779 182.17843,181.05978 0 0 1 -0.6959,0.0613 182.17843,181.05978 0 0 1 -7.07,10.83723 182.17843,181.05978 0 0 0 7.0693,-10.83723 182.17843,181.05978 0 0 1 -30.9388,2.69008 182.17843,181.05978 0 0 1 -10.9999,-0.33049 182.17843,181.05978 0 0 1 -10.9593,-0.98953 182.17843,181.05978 0 0 1 -0.023,-0.004 182.17843,181.05978 0 0 1 -4.0107,-6.16499 182.17843,181.05978 0 0 1 -5.4057,-9.52599 182.17843,181.05978 0 0 1 -4.3675,-8.91512 182.17843,181.05978 0 0 1 -0.45,-0.91816 182.17843,181.05978 0 0 1 -4.2116,-10.10493 182.17843,181.05978 0 0 1 -3.5894,-10.33902 182.17843,181.05978 0 0 1 -2.9554,-10.53492 182.17843,181.05978 0 0 1 -2.3096,-10.69389 182.17843,181.05978 0 0 1 -1.6554,-10.81217 182.17843,181.05978 0 0 1 -0.9964,-10.89231 182.17843,181.05978 0 0 1 -0.3324,-10.93235 182.17843,181.05978 0 0 1 1.546,-19.86562 182.17843,181.05978 0 0 0 3.4693,1.37131 182.17843,181.05978 0 0 0 0.7354,0.29043 182.17843,181.05978 0 0 0 2.4146,0.95383 182.17843,181.05978 0 0 0 14.7346,4.71231 182.17843,181.05978 0 0 0 3.2571,0.84929 182.17843,181.05978 0 0 0 15.5126,3.34599 182.17843,181.05978 0 0 1 0.6247,-2.06039 182.17843,181.05978 0 0 0 -3.1551,12.10212 182.17843,181.05978 0 0 0 -0.6904,2.73825 182.17843,181.05978 0 0 0 -2.6663,26.90622 72.888712,72.716581 0 0 0 1.019,0.27225 72.888712,72.716581 0 0 0 7.5357,1.19046 72.888712,72.716581 0 0 0 7.6188,0.39867 72.888712,72.716581 0 0 0 21.0799,-3.33095 72.888712,72.716581 0 0 0 1.4439,-0.22845 72.888712,72.716581 0 0 0 20.3194,-10.32838 72.888712,72.716581 0 0 0 10.9593,-10.93299 72.888712,72.716581 0 0 0 1.3851,-1.38256 182.17843,181.05978 0 0 0 12.1227,4.26101 182.17843,181.05978 0 0 0 19.497,5.27184 182.17843,181.05978 0 0 0 15.7185,2.31765 182.17843,181.05978 0 0 0 3.9475,0.38682 182.17843,181.05978 0 0 0 15.8737,0.77483 182.17843,181.05978 0 0 0 11.915,-0.38743 182.17843,181.05978 0 0 0 3.9587,-0.3874 182.17843,181.05978 0 0 0 1.9828,-0.097 182.17843,181.05978 0 0 0 1.9647,-0.28979 182.17843,181.05978 0 0 0 15.7197,-2.31765 182.17843,181.05978 0 0 0 3.4668,-1.04522 182.17843,181.05978 0 0 0 15.8205,-19.15964 182.17843,181.05978 0 0 0 4.4219,-8.22226 182.17843,181.05978 0 0 0 2.769,-5.14854 182.17843,181.05978 0 0 0 2.7056,-5.03086 182.17843,181.05978 0 0 0 -1.0802,-10.90167 182.17843,181.05978 0 0 0 -10.3672,-33.96559 182.17843,181.05978 0 0 0 -16.8351,-31.30246 182.17843,181.05978 0 0 0 -22.6564,-27.437587 182.17843,181.05978 0 0 0 -12.6235,-10.29644 182.17843,181.05978 0 0 0 -14.9831,-12.22043 182.17843,181.05978 0 0 0 -31.4965,-16.73182 182.17843,181.05978 0 0 0 -34.1752,-10.30332 182.17843,181.05978 0 0 0 -35.541,-3.47868 182.17843,181.05978 0 0 0 -35.5415,3.47868 182.17843,181.05978 0 0 0 -9.511,2.41215 182.17843,181.05978 0 0 0 -21.6169,6.97237 182.17843,181.05978 0 0 0 -3.0474,0.9188 182.17843,181.05978 0 0 0 -10.5224,5.5898 182.17843,181.05978 0 0 0 -5.4596,2.53232 109.11772,108.68691 0 0 0 -12.1247,-15.71411 109.11772,108.68691 0 0 0 -22.598797,-17.27195 109.11772,108.68691 0 0 0 -17.5793,-7.25277 109.11772,108.68691 0 0 0 -8.738,-3.6051 109.11772,108.68691 0 0 0 -28.241804,-3.703386 z"
       id="path45500" />
  </g>
  <g
     inkscape:groupmode="layer"
     inkscape:label="Body"
     id="g8"
     style="display:inline">
    <path
       id="path3812"
       style="fill:none;fill-opacity:0.497268;stroke:#000000;stroke-width:6.3;stroke-miterlimit:4;stroke-dasharray:none;stroke-opacity:1"
       d="m -2573.9558,126.80552 a 908.47551,904.44639 0 0 1 -908.4755,904.44638 908.47551,904.44639 0 0 1 -908.4755,-904.44638 908.47551,904.44639 0 0 1 908.4755,-904.44639 908.47551,904.44639 0 0 1 908.4755,904.44639 z" />
    <path
       id="path3814"
       style="fill:none;fill-opacity:0.497268;stroke:#000000;stroke-width:6.3;stroke-miterlimit:4;stroke-dasharray:none;stroke-opacity:1"
       d="m -3254.9765,126.80551 a 227.45477,226.91762 0 0 1 -227.4548,226.91765 227.45477,226.91762 0 0 1 -227.4547,-226.91761 227.45477,226.91762 0 0 1 227.4547,-226.91765 227.45477,226.91762 0 0 1 227.4548,226.91761 z" />
    <path
       id="path3816"
       style="fill:none;fill-opacity:0.497268;stroke:#000000;stroke-width:6.3;stroke-miterlimit:4;stroke-dasharray:none;stroke-opacity:1"
       d="m -3141.9211,126.80557 a 340.51014,339.16576 0 0 1 -340.5102,339.16573 340.51014,339.16576 0 0 1 -340.5101,-339.16572 340.51014,339.16576 0 0 1 340.5101,-339.16579 340.51014,339.16576 0 0 1 340.5102,339.16578 z" />
    <path
       id="path3820"
       style="fill:none;fill-opacity:0.497268;stroke:#000000;stroke-width:6.3;stroke-miterlimit:4;stroke-dasharray:none;stroke-opacity:1"
       d="m -3368.973,126.80554 a 113.45831,113.59309 0 0 1 -113.4583,113.59309 113.45831,113.59309 0 0 1 -113.4583,-113.59309 113.45831,113.59309 0 0 1 113.4583,-113.59305 113.45831,113.59309 0 0 1 113.4583,113.59305 z" />
    <path
       id="path3822"
       style="fill:none;fill-opacity:0.497268;stroke:#000000;stroke-width:6.3;stroke-miterlimit:4;stroke-dasharray:none;stroke-opacity:1"
       d="m -2913.9296,126.80555 a 568.50165,565.01081 0 0 1 -568.5017,565.01082 568.50165,565.01081 0 0 1 -568.5016,-565.01082 568.50165,565.01081 0 0 1 568.5016,-565.0108 568.50165,565.01081 0 0 1 568.5017,565.0108 z" />
    <text
       xml:space="preserve"
       id="text14766"
       style="font-style:normal;font-weight:normal;font-size:40px;line-height:1.25;font-family:sans-serif;white-space:pre;shape-inside:url(#rect14768);fill:#000000;fill-opacity:1;stroke:none" />
    <path
       id="path36209"
       style="display:inline;opacity:1;fill:#000000;fill-opacity:1;stroke:none;stroke-width:2.90476;stroke-miterlimit:4;stroke-dasharray:none;filter:url(#filter46132)"
       d="m -4083.8675,-3124.3451 a 412.19963,410.37151 0 0 0 -24.8867,0.75 412.19963,410.37151 0 0 0 -24.7989,2.2442 412.19963,410.37151 0 0 0 -24.6152,3.7285 412.19963,410.37151 0 0 0 -24.3438,5.2031 412.19963,410.37151 0 0 0 -23.9863,6.6563 412.19963,410.37151 0 0 0 -22.0957,7.5918 412.19963,410.37151 0 0 0 -53.457,-4.6563 412.19963,410.37151 0 0 0 -71.5762,6.2344 412.19963,410.37151 0 0 0 -69.4043,18.5137 412.19963,410.37151 0 0 0 -38.5,17.873 412.19963,410.37151 0 0 0 -5.8945,2.7363 412.19963,410.37151 0 0 0 -20.7227,9.6231 412.19963,410.37151 0 0 0 -58.8574,41.0273 412.19963,410.37151 0 0 0 -29.8125,29.6797 412.19963,410.37151 0 0 0 -20.9941,20.9023 412.19963,410.37151 0 0 0 -2.2129,3.1465 412.19963,410.37151 0 0 0 -14.4278,20.5137 257.9444,256.36051 0 0 0 -3.5722,3.5508 257.9444,256.36051 0 0 0 -9.5567,15.1152 412.19963,410.37151 0 0 0 -11.4433,16.2696 412.19963,410.37151 0 0 0 -3.3086,7.0644 257.9444,256.36051 0 0 0 -6.4219,10.1582 257.9444,256.36051 0 0 0 -5.0371,14.3086 257.9444,256.36051 0 0 0 -2.1992,6.2422 412.19963,410.37151 0 0 0 0,0.01 256.36051,257.9444 89.999961 0 0 -11.8379,33.625 256.36051,257.9444 89.999961 0 0 -3.7754,33.2988 256.36051,257.9444 89.999961 0 0 -1.8359,16.1972 256.36051,257.9444 89.999961 0 0 -0.8555,7.5489 256.36051,257.9444 89.999961 0 0 0.795,20.1133 256.36051,257.9444 89.999961 0 0 2.3808,19.9902 256.36051,257.9444 89.999961 0 0 2.3535,11.7617 256.36051,257.9444 89.999961 0 0 1.5977,7.9805 256.36051,257.9444 89.999961 0 0 5.4961,19.375 256.36051,257.9444 89.999961 0 0 7.0117,18.8847 256.36051,257.9444 89.999961 0 0 8.4785,18.2793 256.36051,257.9444 89.999961 0 0 9.8965,17.5625 256.36051,257.9444 89.999961 0 0 11.252,16.7383 256.36051,257.9444 89.999961 0 0 11.8574,14.9473 256.36051,257.9444 89.999961 0 0 6.5293,11.5879 256.36051,257.9444 89.999961 0 0 11.2519,16.7363 256.36051,257.9444 89.999961 0 0 5.0977,6.4258 153.88857,154.49855 89.999986 0 0 -0.709,1.1797 256.36051,257.9444 89.999961 0 0 1.9531,0.3867 256.36051,257.9444 89.999961 0 0 6.1973,7.8145 256.36051,257.9444 89.999961 0 0 13.748,14.7812 256.36051,257.9444 89.999961 0 0 14.8731,13.6641 256.36051,257.9444 89.999961 0 0 6.4258,5.0351 256.36051,257.9444 89.999961 0 0 9.4785,7.4278 256.36051,257.9444 89.999961 0 0 16.8418,11.1835 256.36051,257.9444 89.999961 0 0 17.6699,9.836 256.36051,257.9444 89.999961 0 0 4.1934,1.9199 256.36051,257.9444 89.999961 0 0 1.2519,0.5742 256.36051,257.9444 89.999961 0 0 12.9492,5.9317 256.36051,257.9444 89.999961 0 0 0.7696,0.2832 256.36051,257.9444 89.999961 0 0 9.1601,-5.7207 257.9444,256.36051 0 0 0 7.9453,-4.961 257.9444,256.36051 0 0 0 3.4121,-3.3926 257.9444,256.36051 0 0 0 12.5899,-12.5117 257.9444,256.36051 0 0 0 5.1973,-5.166 257.9444,256.36051 0 0 0 5.2539,-5.2207 154.49855,153.88857 0 0 1 -3.6211,8.707 154.49855,153.88857 0 0 1 -0.8203,1.9727 154.49855,153.88857 0 0 1 -0.293,0.3809 154.49855,153.88857 0 0 1 -12.3848,16.0761 154.49855,153.88857 0 0 1 -11.7344,15.2324 154.49855,153.88857 0 0 1 -0.1406,0.1817 154.49855,153.88857 0 0 1 -4.2851,3.2754 154.49855,153.88857 0 0 1 -11.1328,8.5078 154.49855,153.88857 0 0 1 -11.6758,8.9238 154.49855,153.88857 0 0 1 -4.9043,3.7481 154.49855,153.88857 0 0 1 -8.4961,3.5058 154.49855,153.88857 0 0 1 -28.7656,11.8672 154.49855,153.88857 0 0 1 -39.9864,5.2442 154.49855,153.88857 0 0 1 -22.7656,-2.9864 154.49855,153.88857 0 0 0 5.8066,13.9649 412.19963,410.37151 0 0 0 21.8946,21.7968 412.19963,410.37151 0 0 0 27.3945,27.2735 412.19963,410.37151 0 0 0 43.666,30.4394 412.19963,410.37151 0 0 0 7.6211,5.3145 154.49855,153.88857 0 0 0 26.6817,3.498 154.49855,153.88857 0 0 0 11.9238,1.5625 154.49855,153.88857 0 0 0 39.9863,-5.2422 154.49855,153.88857 0 0 0 0.9785,-0.4042 154.49855,153.88857 0 0 0 9.3711,-3.8672 154.49855,153.88857 0 0 0 25.8574,-10.668 154.49855,153.88857 0 0 0 1.0547,-0.4356 154.49855,153.88857 0 0 0 0.8828,-0.6738 154.49855,153.88857 0 0 0 5.3497,-4.0879 154.49855,153.88857 0 0 0 25.7656,-19.6933 154.49855,153.88857 0 0 0 8.3164,-10.795 154.49855,153.88857 0 0 0 16.2363,-21.0761 154.49855,153.88857 0 0 0 4.7246,-11.3594 412.19963,410.37151 0 0 0 48.2031,12.8594 412.19963,410.37151 0 0 0 71.5762,6.2343 412.19963,410.37151 0 0 0 57.6582,-5.0234 412.19963,410.37151 0 0 0 7.9024,-0.6875 412.19963,410.37151 0 0 1 -4.252,-48.3808 412.19963,410.37151 0 0 1 0.8145,-25.7676 412.19963,410.37151 0 0 1 2.4355,-25.6641 412.19963,410.37151 0 0 1 4.0508,-25.4629 412.19963,410.37151 0 0 1 2.7598,-12.289 412.19963,410.37151 0 0 1 2.8906,-12.8711 412.19963,410.37151 0 0 1 7.2226,-24.7559 412.19963,410.37151 0 0 1 8.7735,-24.2559 412.19963,410.37151 0 0 1 10.2832,-23.6601 412.19963,410.37151 0 0 1 11.7558,-22.9707 412.19963,410.37151 0 0 1 13.1817,-22.1895 412.19963,410.37151 0 0 1 14.5566,-21.3222 412.19963,410.37151 0 0 1 3.1328,-4.0235 412.19963,410.37151 0 0 1 12.7364,-16.3476 412.19963,410.37151 0 0 1 17.125,-19.3379 412.19963,410.37151 0 0 1 18.3105,-18.2305 412.19963,410.37151 0 0 1 19.4238,-17.0469 412.19963,410.37151 0 0 1 20.461,-15.8007 412.19963,410.37151 0 0 1 21.4179,-14.4922 412.19963,410.37151 0 0 1 22.2891,-13.1231 412.19963,410.37151 0 0 1 23.0723,-11.7031 412.19963,410.37151 0 0 1 23.7656,-10.2383 412.19963,410.37151 0 0 1 24.3633,-8.7344 412.19963,410.37151 0 0 1 1.6719,-0.4824 412.19963,410.37151 3.0159178e-5 0 0 -1.6661,0.4844 412.19963,410.37151 3.0159178e-5 0 0 -24.3632,8.7324 412.19963,410.37151 3.0159178e-5 0 0 -23.7657,10.2383 412.19963,410.37151 3.0159178e-5 0 0 -23.0722,11.7031 412.19963,410.37151 3.0159178e-5 0 0 -22.2891,13.125 412.19963,410.37151 3.0159178e-5 0 0 -21.418,14.4903 412.19963,410.37151 3.0159178e-5 0 0 -20.4609,15.8007 412.19963,410.37151 3.0159178e-5 0 0 -19.4238,17.0489 412.19963,410.37151 3.0159178e-5 0 0 -18.3106,18.2285 412.19963,410.37151 3.0159178e-5 0 0 -17.125,19.3379 412.19963,410.37151 3.0159178e-5 0 0 -12.7363,16.3476 412.19963,410.37151 3.0159178e-5 0 0 -3.1348,4.0235 412.19963,410.37151 3.0159178e-5 0 0 -14.5547,21.3222 412.19963,410.37151 3.0159178e-5 0 0 -13.1816,22.1895 412.19963,410.37151 3.0159178e-5 0 0 -11.7559,22.9707 412.19963,410.37151 3.0159178e-5 0 0 -10.2851,23.6601 412.19963,410.37151 3.0159178e-5 0 0 -8.7715,24.2559 412.19963,410.37151 3.0159178e-5 0 0 -7.2246,24.7559 412.19963,410.37151 3.0159178e-5 0 0 -2.8887,12.8711 412.19963,410.37151 3.0159178e-5 0 0 -2.7597,12.289 412.19963,410.37151 3.0159178e-5 0 0 -4.0508,25.4629 412.19963,410.37151 3.0159178e-5 0 0 -2.4375,25.666 412.19963,410.37151 3.0159178e-5 0 0 -0.8125,25.7657 412.19963,410.37151 3.0159178e-5 0 0 4.2519,48.3808 412.19963,410.37151 3.0159178e-5 0 0 6.0176,-0.5234 412.19963,410.37151 3.0159178e-5 0 0 47.1777,-12.586 412.19963,410.37151 3.0159178e-5 0 0 22.2266,-5.9277 412.19963,410.37151 3.0159178e-5 0 0 20.8594,-9.6855 412.19963,410.37151 3.0159178e-5 0 0 44.2578,-20.5469 412.19963,410.37151 3.0159178e-5 0 0 29.5801,-18.7598 412.19963,410.37151 3.0159178e-5 0 0 29.2773,-22.2676 412.19963,410.37151 3.0159178e-5 0 0 29.8125,-29.6816 412.19963,410.37151 3.0159178e-5 0 0 20.9941,-20.9004 412.19963,410.37151 3.0159178e-5 0 0 41.2129,-58.5957 412.19963,410.37151 3.0159178e-5 0 0 30.3652,-64.8301 412.19963,410.37151 3.0159178e-5 0 0 18.5957,-69.0957 412.19963,410.37151 3.0159178e-5 0 0 2.4942,-28.3828 412.19963,410.37151 3.0159178e-5 0 0 3.7695,-42.8789 412.19963,410.37151 3.0159178e-5 0 0 -2.0098,-22.8574 412.19963,410.37151 3.0159178e-5 0 0 -2.2675,-25.8008 412.19963,410.37151 3.0159178e-5 0 0 -11.6543,1.8379 412.19963,410.37151 3.0159178e-5 0 0 -25.2715,5.623 412.19963,410.37151 3.0159178e-5 0 0 -23.1972,6.709 412.19963,410.37151 0 0 1 23.1914,-6.709 412.19963,410.37151 0 0 1 25.2714,-5.623 412.19963,410.37151 0 0 1 0.01,0 412.19963,410.37151 0 0 1 11.6504,-1.8399 412.19963,410.37151 0 0 0 -12.5743,-5.8359 412.19963,410.37151 0 0 0 -41.0155,-19.043 412.19963,410.37151 0 0 0 -10.4317,-4.8418 412.19963,410.37151 0 0 0 -69.4043,-18.5156 412.19963,410.37151 0 0 0 -12.9238,-1.125 412.19963,410.37151 0 0 0 -58.6524,-5.1074 412.19963,410.37151 0 0 0 -71.5781,6.2324 412.19963,410.37151 0 0 0 -29.9668,7.9961 412.19963,410.37151 0 0 0 -17.8691,4.7656 412.19963,410.37151 0 0 0 -21.9278,1.9844 412.19963,410.37151 0 0 0 -12.9824,1.9668 412.19963,410.37151 0 0 0 -11.6328,1.7617 412.19963,410.37151 0 0 0 -24.3457,5.2031 412.19963,410.37151 0 0 0 -2.5508,0.709 412.19963,410.37151 0 0 0 -0.7715,0.2129 257.9444,256.36051 0 0 0 -1.6679,-2.6406 257.9444,256.36051 0 0 0 -11.2637,-17.8125 257.9444,256.36051 0 0 0 -12.2383,-19.3594 257.9444,256.36051 0 0 0 -40.8437,-40.5918 257.9444,256.36051 0 0 0 -16.2696,-10.1602 257.9444,256.36051 0 0 0 -2.4726,-1.5429 103.20231,102.95859 0 0 0 -2.7598,-2.7559 103.20231,102.95859 0 0 0 -8.8691,-4.5078 103.20231,102.95859 0 0 0 -19.9004,-10.1152 103.20231,102.95859 0 0 0 -31.8926,-5.0391 103.20231,102.95859 0 0 0 -27.5762,4.3574 257.9444,256.36051 0 0 0 -7.3535,-7.3086 412.19963,410.37151 0 0 1 13.3067,-12.4707 412.19963,410.37151 0 0 1 2.1113,-1.9785 412.19963,410.37151 0 0 1 16.6074,-13.7773 412.19963,410.37151 0 0 1 5.3711,1.4316 412.19963,410.37151 0 0 1 65.1191,30.2324 412.19963,410.37151 0 0 1 26.8282,18.7012 412.19963,410.37151 0 0 1 32.0293,22.3281 412.19963,410.37151 0 0 1 38.2832,38.1133 412.19963,410.37151 0 0 1 20.3789,-8.4043 412.19963,410.37151 0 0 1 23.5371,-8.0879 412.19963,410.37151 0 0 1 3.9121,-1.084 412.19963,410.37151 0 0 1 20.0742,-5.5722 412.19963,410.37151 0 0 1 24.3438,-5.2012 412.19963,410.37151 0 0 1 24.6152,-3.7305 412.19963,410.37151 0 0 1 24.7969,-2.2441 412.19963,410.37151 0 0 1 24.8886,-0.7481 412.19963,410.37151 0 0 1 40.5469,3.5313 412.19963,410.37151 0 0 1 31.0313,2.7031 412.19963,410.37151 0 0 1 69.4023,18.5137 412.19963,410.37151 0 0 1 23.8535,11.0722 412.19963,410.37151 0 0 0 0.4825,-5.4921 412.19963,410.37151 0 0 0 -9.0684,-12.8907 412.19963,410.37151 0 0 0 -50.8066,-50.582 412.19963,410.37151 0 0 0 -13.25,-9.2363 412.19963,410.37151 0 0 0 -45.6075,-31.793 412.19963,410.37151 0 0 0 -21.707,-10.0781 412.19963,410.37151 0 0 0 -43.4121,-20.1524 412.19963,410.37151 0 0 0 -69.4024,-18.5136 412.19963,410.37151 0 0 0 -71.5781,-6.2364 412.19963,410.37151 0 0 0 -10.2402,0.8926 412.19963,410.37151 0 0 0 -13.0899,-3.4922 412.19963,410.37151 0 0 1 5.5743,-0.8437 412.19963,410.37151 0 0 1 24.7968,-2.2442 412.19963,410.37151 0 0 1 24.8887,-0.748 412.19963,410.37151 0 0 1 71.5781,6.2344 412.19963,410.37151 0 0 1 69.4024,18.5136 412.19963,410.37151 0 0 1 14.1347,6.5625 51.479068,51.540222 0 0 1 2.8907,-10.8007 51.479068,51.540222 0 0 1 18.8437,-18.8653 51.479068,51.540222 0 0 1 17.8731,-4.7949 412.19963,410.37151 0 0 0 -3.6016,-1.6719 412.19963,410.37151 0 0 0 -69.4023,-18.5136 412.19963,410.37151 0 0 0 -71.5782,-6.2344 z m -244.0977,172.5215 v 0 a 257.9444,256.36051 0 0 1 12.8926,20.3945 257.9444,256.36051 0 0 1 19.0781,54.1836 257.9444,256.36051 0 0 1 3.375,29.7793 412.19963,410.37151 0 0 0 -8.1719,4.5899 412.19963,410.37151 0 0 0 -20.9102,13.459 412.19963,410.37151 0 0 0 -6.9179,5.0683 412.19963,410.37151 0 0 0 -13.1367,9.6231 412.19963,410.37151 0 0 0 -7.5235,6.2402 412.19963,410.37151 0 0 0 -1.8515,-0.8594 412.19963,410.37151 0 0 0 -33.875,-9.0351 412.19963,410.37151 0 0 0 -18.7012,-4.9903 412.19963,410.37151 0 0 0 -2.8281,-0.7539 412.19963,410.37151 0 0 0 -13.9981,-3.7343 412.19963,410.37151 0 0 0 -57.7539,-5.0293 412.19963,410.37151 0 0 0 -13.8242,-1.2051 412.19963,410.37151 0 0 0 -24.8867,0.748 412.19963,410.37151 0 0 0 -1.0332,0.094 412.19963,410.37151 0 0 0 -23.7657,2.1504 412.19963,410.37151 0 0 0 -5.9101,0.8965 412.19963,410.37151 0 0 0 -9.3008,1.4082 412.19963,410.37151 0 0 1 9.8848,-2.7422 412.19963,410.37151 0 0 1 0.045,-0.012 412.19963,410.37151 0 0 1 24.2988,-5.1915 412.19963,410.37151 0 0 1 6.6172,-1.0039 412.19963,410.37151 0 0 1 18,-2.7265 412.19963,410.37151 0 0 1 23.0137,-2.0821 412.19963,410.37151 0 0 1 1.7832,-0.1601 412.19963,410.37151 0 0 1 24.8887,-0.75 412.19963,410.37151 0 0 1 26.7656,2.332 412.19963,410.37151 0 0 1 7.1679,0.6231 412.19963,410.37151 0 0 1 28.1797,2.455 154.49855,153.88857 0 0 1 0.4063,-8.2343 154.49855,153.88857 0 0 1 2.2246,-14.9395 154.49855,153.88857 0 0 1 3.6855,-14.6484 154.49855,153.88857 0 0 1 5.1055,-14.2188 154.49855,153.88857 0 0 1 6.4824,-13.6523 154.49855,153.88857 0 0 1 7.795,-12.9531 154.49855,153.88857 0 0 1 9.0332,-12.1309 154.49855,153.88857 0 0 1 10.1816,-11.1895 154.49855,153.88857 0 0 1 11.2344,-10.1406 154.49855,153.88857 0 0 1 2.248,-1.6621 z" />
    <path
       id="path36123"
       style="fill:#007a79;fill-opacity:1;stroke:none;stroke-width:11.062;stroke-miterlimit:4;stroke-dasharray:none;stroke-dashoffset:0;stroke-opacity:1;paint-order:normal;filter:url(#filter46552)"
       d="m -2187.5292,-2427.0626 c -10.822,-0.729 -19.6763,-2.7884 -19.6763,-4.5765 0,-1.7882 -1.9248,-3.2598 -4.2774,-3.2703 -9.8598,-0.044 -29.499,-7.3487 -36.8136,-13.6927 -4.325,-3.751 -9.6768,-6.82 -11.8928,-6.82 -2.2161,0 -9.2402,-7.3144 -15.6091,-16.2543 -6.369,-8.9399 -13.5439,-18.2736 -15.9443,-20.7416 -11.566,-11.8914 -16.4105,-42.3883 -16.4105,-103.3044 0,-63.0902 4.4024,-89.0286 17.8801,-105.3469 3.3405,-4.0446 10.6036,-13.5636 16.1404,-21.1536 5.5367,-7.5899 11.8456,-13.7998 14.0197,-13.7998 2.1741,0 7.5523,-3.1217 11.9515,-6.9371 4.3992,-3.8154 11.9492,-7.9022 16.7779,-9.0818 4.8286,-1.1796 9.6627,-3.4839 10.7423,-5.1208 3.856,-5.846 60.9968,-9.6064 146.3631,-9.632 l 86.7308,-0.026 -1.1965,-62.4508 c -1.0342,-53.982 -2.0599,-63.7268 -7.5638,-71.8611 l -6.3674,-9.4104 h -129.6409 -129.6408 v -39.3525 -39.3525 l 113.7801,0.02 c 107.2038,0.019 151.7703,2.7667 156.3025,9.638 1.0797,1.6369 5.9138,3.9413 10.7424,5.1209 4.8287,1.1796 12.3787,5.2664 16.778,9.0818 4.3992,3.8154 9.8899,6.9371 12.2017,6.9371 2.3117,0 8.4753,5.7746 13.6967,12.8323 5.2214,7.0578 12.2271,15.1422 15.5681,17.9653 3.3411,2.8231 9.646,15.1422 14.0109,27.3757 l 7.9362,22.2427 0.9933,226.7048 0.9933,226.7047 h -44.4994 -44.4993 l -0.9794,-33.3641 -0.9794,-33.3641 -8.6424,16.7921 c -4.7534,9.2356 -11.5477,18.4749 -15.0986,20.5318 -3.5508,2.0568 -9.2001,6.3486 -12.5539,9.5372 -3.3538,3.1887 -11.9583,6.8755 -19.121,8.193 -7.1628,1.3175 -13.7932,3.4938 -14.7342,4.8362 -2.0463,2.9191 -99.5081,6.2832 -127.468,4.3998 z m 178.7973,-79.6889 c 0,-1.8821 2.2892,-3.4219 5.087,-3.4219 2.7979,0 7.4176,-5.5777 10.2659,-12.3948 4.1003,-9.8134 5.1789,-28.3427 5.1789,-88.9709 v -76.5762 h -102.6588 c -61.042,0 -102.6587,1.2908 -102.6587,3.184 0,1.7512 -3.4504,3.676 -7.6674,4.2774 -15.0426,2.1453 -17.9973,16.0889 -17.9973,84.9315 0,68.8426 2.9547,82.7861 17.9973,84.9315 4.217,0.6014 7.6674,2.5262 7.6674,4.2774 0,1.8854 37.6831,3.184 92.3929,3.184 59.3139,0 92.3928,-1.2251 92.3928,-3.422 z m -640.7617,79.5982 c -10.822,-0.6791 -19.6763,-2.6977 -19.6763,-4.4858 0,-1.7882 -3.0486,-3.2512 -6.7746,-3.2512 -8.747,0 -34.2889,-10.1966 -34.2889,-13.6885 0,-1.4737 -3.6342,-3.5916 -8.0761,-4.7064 -4.4419,-1.1148 -11.7563,-7.4308 -16.2543,-14.0354 -4.498,-6.6046 -9.4039,-12.019 -10.9021,-12.0318 -4.3978,-0.038 -19.1584,-34.6362 -21.5334,-50.4738 -1.2015,-8.0118 -3.5495,-14.5668 -5.2179,-14.5668 -1.7206,0 -3.0334,-70.3421 -3.0334,-162.5431 0,-106.0807 1.1887,-162.543 3.422,-162.543 1.8821,0 3.4219,-3.0474 3.4219,-6.772 0,-3.7247 3.2227,-16.589 7.1615,-28.5874 6.181,-18.8286 11.6227,-28.0806 26.5008,-45.0566 8.1384,-9.286 21.5363,-18.5395 32.6744,-22.5671 6.8026,-2.4599 12.3684,-5.5449 12.3684,-6.8557 0,-6.7476 52.4527,-9.9297 163.6788,-9.9297 h 120.3437 v 39.3525 39.3525 h -128.1849 -128.185 l -8.6934,9.3754 c -4.9458,5.3338 -8.6933,13.4472 -8.6933,18.8208 0,5.1949 -1.5399,9.4454 -3.422,9.4454 -2.2338,0 -3.422,57.0326 -3.422,164.254 0,90.3397 1.2441,164.254 2.7648,164.254 1.5206,0 4.2154,6.5445 5.9884,14.5433 2.1997,9.924 5.6692,15.6162 10.9231,17.9212 4.2347,1.8579 7.6994,4.5527 7.6994,5.9885 0,1.4358 56.9756,2.6105 126.6125,2.6105 h 126.6124 v 39.3525 39.3525 l -112.0691,-0.647 c -61.638,-0.3559 -120.9235,-1.2027 -131.7454,-1.8818 z m -471.3748,-279.7828 v -282.3115 h 44.4854 44.4855 v 30.9995 c 0,30.2567 3.8996,38.1034 8.5083,17.1203 1.2049,-5.4863 6.046,-12.5011 10.7579,-15.5884 4.7119,-3.0874 11.5439,-8.5902 15.1822,-12.2285 3.6383,-3.6383 8.7966,-6.6151 11.4629,-6.6151 2.6663,0 5.3611,-1.4961 5.9884,-3.3247 1.7895,-5.2158 45.1827,-10.2211 89.2561,-10.2954 l 40.208,-0.068 v 39.3525 39.3525 h -80.4386 -80.4387 l -7.6768,8.7771 c -4.2222,4.8274 -8.6782,12.1418 -9.9021,16.2543 -1.224,4.1125 -2.3789,109.4944 -2.5665,234.182 l -0.3411,226.7047 h -44.4855 -44.4854 z m -438.8662,280.0059 c -10.8219,-0.8018 -19.6762,-2.9208 -19.6762,-4.7089 0,-1.7882 -3.0487,-3.2512 -6.7747,-3.2512 -8.747,0 -34.2888,-10.1966 -34.2888,-13.6885 0,-1.4737 -3.6343,-3.5916 -8.0762,-4.7064 -4.4419,-1.1148 -11.7563,-7.4308 -16.2543,-14.0354 -4.498,-6.6046 -9.3018,-12.019 -10.6751,-12.0318 -4.6239,-0.043 -16.3479,-27.0782 -21.6416,-49.9043 -4.4189,-19.0538 -5.0927,-48.8193 -4.243,-187.4252 0.9981,-162.8137 1.1055,-165.0429 9.025,-187.373 6.9188,-19.5088 12.5557,-28.9552 27.3541,-45.8402 7.344,-8.3796 20.2598,-17.6493 30.4995,-21.8896 6.1167,-2.533 11.1214,-5.7328 11.1214,-7.1107 0,-6.2336 53.8819,-10.3522 135.4319,-10.3522 81.5187,0 131.4808,3.968 131.4808,10.4422 0,1.3284 5.0046,4.4876 11.1214,7.0205 11.0939,4.5938 16.4894,8.3511 32.3939,22.5582 11.704,10.455 28.1963,43.4817 30.649,61.3764 1.127,8.2221 3.3796,14.9493 5.0059,14.9493 1.6262,0 2.9568,73.9143 2.9568,164.254 0,107.2213 -1.1882,164.254 -3.4219,164.254 -1.8821,0 -3.422,3.0474 -3.422,6.772 0,3.7247 -3.2441,16.6542 -7.2091,28.7324 -12.3739,37.6937 -54.3255,73.9983 -85.5082,73.9983 -3.2721,0 -6.5463,1.7912 -7.276,3.9805 -1.3539,4.0617 -155.7096,7.1552 -198.5726,3.9796 z m 189.0632,-79.4222 c 0,-1.6625 3.072,-3.8262 6.8267,-4.808 3.7546,-0.9819 7.877,-4.6262 9.1608,-8.0985 1.2837,-3.4724 3.9863,-7.4121 6.0056,-8.755 2.5362,-1.6866 3.6716,-57.7717 3.6716,-181.3638 v -178.9222 l -10.7833,-11.1213 -10.7833,-11.1214 h -102.8583 -102.8584 l -8.6933,9.3754 c -4.9458,5.3338 -8.6934,13.4472 -8.6934,18.8208 0,5.1949 -1.5399,9.4454 -3.422,9.4454 -2.2338,0 -3.4219,57.0326 -3.4219,164.254 0,90.3397 1.2441,164.254 2.7647,164.254 1.5206,0 4.2154,6.5445 5.9884,14.5433 2.1998,9.924 5.6692,15.6162 10.9231,17.9212 4.2347,1.8579 7.6994,4.5527 7.6994,5.9885 0,1.4358 44.6566,2.6105 99.2368,2.6105 55.1418,0 99.2368,-1.3432 99.2368,-3.0229 z" />
    <path
       id="path41181"
       style="display:inline;opacity:1;fill:#000000;fill-opacity:1;stroke:none;stroke-width:2.90476;stroke-miterlimit:4;stroke-dasharray:none"
       d="m -4130.5531,-2535.224 a 340.51014,339.16576 0 0 0 22.6758,-30.1719 340.51014,339.16576 0 0 0 23.2832,-42.4726 340.51014,339.16576 0 0 0 16.9785,-45.3399 340.51014,339.16576 0 0 0 10.3282,-47.2871 340.51014,339.16576 0 0 0 0.2539,-3.5254 412.19963,410.37151 3.0159178e-5 0 0 -1.7403,2.2325 412.19963,410.37151 3.0159178e-5 0 0 -14.5547,21.3222 412.19963,410.37151 3.0159178e-5 0 0 -13.1816,22.1895 412.19963,410.37151 3.0159178e-5 0 0 -11.7559,22.9707 412.19963,410.37151 3.0159178e-5 0 0 -10.2851,23.6601 412.19963,410.37151 3.0159178e-5 0 0 -8.7715,24.2559 412.19963,410.37151 3.0159178e-5 0 0 -7.2246,24.7559 412.19963,410.37151 3.0159178e-5 0 0 -2.8887,12.8711 412.19963,410.37151 3.0159178e-5 0 0 -2.7597,12.289 412.19963,410.37151 3.0159178e-5 0 0 -0.3575,2.25 z" />
    <path
       id="path47930"
       style="display:inline;opacity:1;fill:#000000;fill-opacity:1;stroke:none;stroke-width:2.90476;stroke-miterlimit:4;stroke-dasharray:none;filter:url(#filter46132)"
       d="m 729.6084,3809.8005 a 412.19963,410.37151 0 0 0 -24.88672,0.75 412.19963,410.37151 0 0 0 -24.79883,2.2442 412.19963,410.37151 0 0 0 -24.61523,3.7285 412.19963,410.37151 0 0 0 -24.34375,5.2031 412.19963,410.37151 0 0 0 -23.98633,6.6563 412.19963,410.37151 0 0 0 -22.0957,7.5918 412.19963,410.37151 0 0 0 -53.45703,-4.6563 412.19963,410.37151 0 0 0 -71.57617,6.2344 412.19963,410.37151 0 0 0 -69.4043,18.5137 412.19963,410.37151 0 0 0 -38.5,17.873 412.19963,410.37151 0 0 0 -5.89453,2.7363 412.19963,410.37151 0 0 0 -20.72266,9.6231 412.19963,410.37151 0 0 0 -58.85742,41.0273 412.19963,410.37151 0 0 0 -29.8125,29.6797 412.19963,410.37151 0 0 0 -20.99414,20.9023 412.19963,410.37151 0 0 0 -2.21289,3.1465 412.19963,410.37151 0 0 0 -14.42774,20.5137 257.9444,256.36051 0 0 0 -3.57226,3.5508 257.9444,256.36051 0 0 0 -9.55664,15.1152 412.19963,410.37151 0 0 0 -11.44336,16.2696 412.19963,410.37151 0 0 0 -3.3086,7.0644 257.9444,256.36051 0 0 0 -6.42187,10.1582 257.9444,256.36051 0 0 0 -5.03711,14.3086 257.9444,256.36051 0 0 0 -2.19922,6.2422 412.19963,410.37151 0 0 0 0.002,0.01 256.36051,257.9444 89.999961 0 0 -11.83789,33.625 256.36051,257.9444 89.999961 0 0 -3.77539,33.2988 256.36051,257.9444 89.999961 0 0 -1.83593,16.1972 256.36051,257.9444 89.999961 0 0 -0.85547,7.5489 256.36051,257.9444 89.999961 0 0 0.79492,20.1133 256.36051,257.9444 89.999961 0 0 2.38086,19.9902 256.36051,257.9444 89.999961 0 0 2.35351,11.7617 256.36051,257.9444 89.999961 0 0 1.59766,7.9805 256.36051,257.9444 89.999961 0 0 5.49609,19.375 256.36051,257.9444 89.999961 0 0 7.01172,18.8847 256.36051,257.9444 89.999961 0 0 8.47852,18.2793 256.36051,257.9444 89.999961 0 0 9.89648,17.5625 256.36051,257.9444 89.999961 0 0 11.25195,16.7383 256.36051,257.9444 89.999961 0 0 11.85743,14.9473 256.36051,257.9444 89.999961 0 0 6.52929,11.5879 256.36051,257.9444 89.999961 0 0 11.25196,16.7363 256.36051,257.9444 89.999961 0 0 5.09765,6.4258 153.88857,154.49855 89.999986 0 0 -0.70898,1.1797 256.36051,257.9444 89.999961 0 0 1.95312,0.3867 256.36051,257.9444 89.999961 0 0 6.19727,7.8145 256.36051,257.9444 89.999961 0 0 13.74805,14.7812 256.36051,257.9444 89.999961 0 0 14.87304,13.6641 256.36051,257.9444 89.999961 0 0 6.42578,5.0351 256.36051,257.9444 89.999961 0 0 9.47852,7.4278 256.36051,257.9444 89.999961 0 0 16.8418,11.1835 256.36051,257.9444 89.999961 0 0 17.66992,9.836 256.36051,257.9444 89.999961 0 0 4.19336,1.9199 256.36051,257.9444 89.999961 0 0 1.25195,0.5742 256.36051,257.9444 89.999961 0 0 12.94922,5.9317 256.36051,257.9444 89.999961 0 0 0.76953,0.2832 256.36051,257.9444 89.999961 0 0 9.16016,-5.7207 257.9444,256.36051 0 0 0 7.94531,-4.961 257.9444,256.36051 0 0 0 3.41211,-3.3926 257.9444,256.36051 0 0 0 12.58984,-12.5117 257.9444,256.36051 0 0 0 5.19727,-5.166 257.9444,256.36051 0 0 0 5.2539,-5.2207 154.49855,153.88857 0 0 1 -3.62109,8.707 154.49855,153.88857 0 0 1 -0.82031,1.9727 154.49855,153.88857 0 0 1 -0.29297,0.3809 154.49855,153.88857 0 0 1 -12.38477,16.0761 154.49855,153.88857 0 0 1 -11.73437,15.2324 154.49855,153.88857 0 0 1 -0.14063,0.1817 154.49855,153.88857 0 0 1 -4.28515,3.2754 154.49855,153.88857 0 0 1 -11.13281,8.5078 154.49855,153.88857 0 0 1 -11.67579,8.9238 154.49855,153.88857 0 0 1 -4.90429,3.7481 154.49855,153.88857 0 0 1 -8.4961,3.5058 154.49855,153.88857 0 0 1 -28.76562,11.8672 154.49855,153.88857 0 0 1 -39.98633,5.2442 154.49855,153.88857 0 0 1 -22.76562,-2.9864 154.49855,153.88857 0 0 0 5.80664,13.9649 412.19963,410.37151 0 0 0 21.89453,21.7968 412.19963,410.37151 0 0 0 27.39453,27.2735 412.19963,410.37151 0 0 0 43.66601,30.4394 412.19963,410.37151 0 0 0 7.6211,5.3145 154.49855,153.88857 0 0 0 26.68164,3.498 154.49855,153.88857 0 0 0 11.92383,1.5625 154.49855,153.88857 0 0 0 39.98633,-5.2422 154.49855,153.88857 0 0 0 0.97851,-0.4042 154.49855,153.88857 0 0 0 9.37109,-3.8672 154.49855,153.88857 0 0 0 25.85743,-10.668 154.49855,153.88857 0 0 0 1.05468,-0.4356 154.49855,153.88857 0 0 0 0.88282,-0.6738 154.49855,153.88857 0 0 0 5.34961,-4.0879 154.49855,153.88857 0 0 0 25.76562,-19.6933 154.49855,153.88857 0 0 0 8.31641,-10.795 154.49855,153.88857 0 0 0 16.23633,-21.0761 154.49855,153.88857 0 0 0 4.7246,-11.3594 412.19963,410.37151 0 0 0 48.20313,12.8594 412.19963,410.37151 0 0 0 71.57617,6.2343 412.19963,410.37151 0 0 0 57.6582,-5.0234 412.19963,410.37151 0 0 0 7.90235,-0.6875 412.19963,410.37151 0 0 1 -4.25195,-48.3808 412.19963,410.37151 0 0 1 0.81445,-25.7676 412.19963,410.37151 0 0 1 2.43555,-25.6641 412.19963,410.37151 0 0 1 4.05078,-25.4629 412.19963,410.37151 0 0 1 2.75976,-12.289 412.19963,410.37151 0 0 1 2.89063,-12.8711 412.19963,410.37151 0 0 1 7.22265,-24.7559 412.19963,410.37151 0 0 1 8.77344,-24.2559 412.19963,410.37151 0 0 1 10.2832,-23.6601 412.19963,410.37151 0 0 1 11.75586,-22.9707 412.19963,410.37151 0 0 1 13.18164,-22.1895 412.19963,410.37151 0 0 1 14.55664,-21.3222 412.19963,410.37151 0 0 1 3.13282,-4.0235 412.19963,410.37151 0 0 1 12.73632,-16.3476 412.19963,410.37151 0 0 1 17.125,-19.3379 412.19963,410.37151 0 0 1 18.31055,-18.2305 412.19963,410.37151 0 0 1 19.42383,-17.0469 412.19963,410.37151 0 0 1 20.46094,-15.8007 412.19963,410.37151 0 0 1 21.41797,-14.4922 412.19963,410.37151 0 0 1 22.28906,-13.1231 412.19963,410.37151 0 0 1 23.07226,-11.7031 412.19963,410.37151 0 0 1 23.76563,-10.2383 412.19963,410.37151 0 0 1 24.36328,-8.7344 412.19963,410.37151 0 0 1 1.67188,-0.4824 412.19963,410.37151 3.0159178e-5 0 0 -1.66602,0.4844 412.19963,410.37151 3.0159178e-5 0 0 -24.36328,8.7324 412.19963,410.37151 3.0159178e-5 0 0 -23.76563,10.2383 412.19963,410.37151 3.0159178e-5 0 0 -23.07226,11.7031 412.19963,410.37151 3.0159178e-5 0 0 -22.28906,13.125 412.19963,410.37151 3.0159178e-5 0 0 -21.41797,14.4903 412.19963,410.37151 3.0159178e-5 0 0 -20.46094,15.8007 412.19963,410.37151 3.0159178e-5 0 0 -19.42383,17.0489 412.19963,410.37151 3.0159178e-5 0 0 -18.31055,18.2285 412.19963,410.37151 3.0159178e-5 0 0 -17.125,19.3379 412.19963,410.37151 3.0159178e-5 0 0 -12.73632,16.3476 412.19963,410.37151 3.0159178e-5 0 0 -3.13477,4.0235 412.19963,410.37151 3.0159178e-5 0 0 -14.55469,21.3222 412.19963,410.37151 3.0159178e-5 0 0 -13.18164,22.1895 412.19963,410.37151 3.0159178e-5 0 0 -11.75586,22.9707 412.19963,410.37151 3.0159178e-5 0 0 -10.28515,23.6601 412.19963,410.37151 3.0159178e-5 0 0 -8.77149,24.2559 412.19963,410.37151 3.0159178e-5 0 0 -7.22461,24.7559 412.19963,410.37151 3.0159178e-5 0 0 -2.88867,12.8711 412.19963,410.37151 3.0159178e-5 0 0 -2.75976,12.289 412.19963,410.37151 3.0159178e-5 0 0 -4.05079,25.4629 412.19963,410.37151 3.0159178e-5 0 0 -2.4375,25.666 412.19963,410.37151 3.0159178e-5 0 0 -0.8125,25.7657 412.19963,410.37151 3.0159178e-5 0 0 4.25196,48.3808 412.19963,410.37151 3.0159178e-5 0 0 6.01758,-0.5234 412.19963,410.37151 3.0159178e-5 0 0 47.17773,-12.586 412.19963,410.37151 3.0159178e-5 0 0 22.22656,-5.9277 412.19963,410.37151 3.0159178e-5 0 0 20.85938,-9.6855 412.19963,410.37151 3.0159178e-5 0 0 44.25781,-20.5469 412.19963,410.37151 3.0159178e-5 0 0 29.58008,-18.7598 412.19963,410.37151 3.0159178e-5 0 0 29.27734,-22.2676 412.19963,410.37151 3.0159178e-5 0 0 29.8125,-29.6816 412.19963,410.37151 3.0159178e-5 0 0 20.99414,-20.9004 412.19963,410.37151 3.0159178e-5 0 0 41.21289,-58.5957 412.19963,410.37151 3.0159178e-5 0 0 30.36519,-64.8301 412.19963,410.37151 3.0159178e-5 0 0 18.5957,-69.0957 412.19963,410.37151 3.0159178e-5 0 0 2.4942,-28.3828 412.19963,410.37151 3.0159178e-5 0 0 3.7696,-42.8789 412.19963,410.37151 3.0159178e-5 0 0 -2.0099,-22.8574 412.19963,410.37151 3.0159178e-5 0 0 -2.2675,-25.8008 412.19963,410.37151 3.0159178e-5 0 0 -11.6543,1.8379 412.19963,410.37151 3.0159178e-5 0 0 -25.2715,5.623 412.19963,410.37151 3.0159178e-5 0 0 -23.19727,6.709 412.19963,410.37151 0 0 1 23.19141,-6.709 412.19963,410.37151 0 0 1 25.27146,-5.623 412.19963,410.37151 0 0 1 0.01,0 412.19963,410.37151 0 0 1 11.6504,-1.8399 412.19963,410.37151 0 0 0 -12.5743,-5.8359 412.19963,410.37151 0 0 0 -41.01557,-19.043 412.19963,410.37151 0 0 0 -10.43164,-4.8418 412.19963,410.37151 0 0 0 -69.4043,-18.5156 412.19963,410.37151 0 0 0 -12.92383,-1.125 412.19963,410.37151 0 0 0 -58.65234,-5.1074 412.19963,410.37151 0 0 0 -71.57813,6.2324 412.19963,410.37151 0 0 0 -29.96679,7.9961 412.19963,410.37151 0 0 0 -17.86914,4.7656 412.19963,410.37151 0 0 0 -21.92774,1.9844 412.19963,410.37151 0 0 0 -12.98242,1.9668 412.19963,410.37151 0 0 0 -11.63281,1.7617 412.19963,410.37151 0 0 0 -24.3457,5.2031 412.19963,410.37151 0 0 0 -2.55079,0.709 412.19963,410.37151 0 0 0 -0.77148,0.2129 257.9444,256.36051 0 0 0 -1.66797,-2.6406 257.9444,256.36051 0 0 0 -11.26367,-17.8125 257.9444,256.36051 0 0 0 -12.23828,-19.3594 257.9444,256.36051 0 0 0 -40.84375,-40.5918 257.9444,256.36051 0 0 0 -16.26953,-10.1602 257.9444,256.36051 0 0 0 -2.47266,-1.5429 103.20231,102.95859 0 0 0 -2.75977,-2.7559 103.20231,102.95859 0 0 0 -8.86914,-4.5078 103.20231,102.95859 0 0 0 -19.90039,-10.1152 103.20231,102.95859 0 0 0 -31.89257,-5.0391 103.20231,102.95859 0 0 0 -27.57618,4.3574 257.9444,256.36051 0 0 0 -7.35351,-7.3086 412.19963,410.37151 0 0 1 13.30664,-12.4707 412.19963,410.37151 0 0 1 2.11133,-1.9785 412.19963,410.37151 0 0 1 16.60742,-13.7773 412.19963,410.37151 0 0 1 5.37109,1.4316 412.19963,410.37151 0 0 1 65.11914,30.2324 412.19963,410.37151 0 0 1 26.82813,18.7012 412.19963,410.37151 0 0 1 32.02929,22.3281 412.19963,410.37151 0 0 1 38.28321,38.1133 412.19963,410.37151 0 0 1 20.3789,-8.4043 412.19963,410.37151 0 0 1 23.53711,-8.0879 412.19963,410.37151 0 0 1 3.91211,-1.084 412.19963,410.37151 0 0 1 20.07422,-5.5722 412.19963,410.37151 0 0 1 24.34375,-5.2012 412.19963,410.37151 0 0 1 24.61524,-3.7305 412.19963,410.37151 0 0 1 24.79687,-2.2441 412.19963,410.37151 0 0 1 24.88867,-0.7481 412.19963,410.37151 0 0 1 40.54688,3.5313 412.19963,410.37151 0 0 1 31.03125,2.7031 412.19963,410.37151 0 0 1 69.40234,18.5137 412.19963,410.37151 0 0 1 23.85352,11.0722 412.19963,410.37151 0 0 0 0.48242,-5.4921 412.19963,410.37151 0 0 0 -9.06836,-12.8907 412.19963,410.37151 0 0 0 -50.80664,-50.582 412.19963,410.37151 0 0 0 -13.25,-9.2363 412.19963,410.37151 0 0 0 -45.60742,-31.793 412.19963,410.37151 0 0 0 -21.70703,-10.0781 412.19963,410.37151 0 0 0 -43.41211,-20.1524 412.19963,410.37151 0 0 0 -69.40235,-18.5136 412.19963,410.37151 0 0 0 -71.57812,-6.2364 412.19963,410.37151 0 0 0 -10.24024,0.8926 412.19963,410.37151 0 0 0 -13.08984,-3.4922 412.19963,410.37151 0 0 1 5.57422,-0.8437 412.19963,410.37151 0 0 1 24.79687,-2.2442 412.19963,410.37151 0 0 1 24.88868,-0.748 412.19963,410.37151 0 0 1 71.57812,6.2344 412.19963,410.37151 0 0 1 69.40234,18.5136 412.19963,410.37151 0 0 1 14.13477,6.5625 51.479068,51.540222 0 0 1 2.89062,-10.8007 51.479068,51.540222 0 0 1 18.84375,-18.8653 51.479068,51.540222 0 0 1 17.87305,-4.7949 412.19963,410.37151 0 0 0 -3.60156,-1.6719 412.19963,410.37151 0 0 0 -69.40235,-18.5136 412.19963,410.37151 0 0 0 -71.57812,-6.2344 z M 485.51074,3982.322 h 0.002 a 257.9444,256.36051 0 0 1 12.89258,20.3945 257.9444,256.36051 0 0 1 19.07812,54.1836 257.9444,256.36051 0 0 1 3.375,29.7793 412.19963,410.37151 0 0 0 -8.17187,4.5899 412.19963,410.37151 0 0 0 -20.91016,13.459 412.19963,410.37151 0 0 0 -6.91797,5.0683 412.19963,410.37151 0 0 0 -13.13672,9.6231 412.19963,410.37151 0 0 0 -7.52344,6.2402 412.19963,410.37151 0 0 0 -1.85156,-0.8594 412.19963,410.37151 0 0 0 -33.875,-9.0351 412.19963,410.37151 0 0 0 -18.70117,-4.9903 412.19963,410.37151 0 0 0 -2.82813,-0.7539 412.19963,410.37151 0 0 0 -13.99804,-3.7343 412.19963,410.37151 0 0 0 -57.75391,-5.0293 412.19963,410.37151 0 0 0 -13.82422,-1.2051 412.19963,410.37151 0 0 0 -24.88672,0.748 412.19963,410.37151 0 0 0 -1.0332,0.094 412.19963,410.37151 0 0 0 -23.76562,2.1504 412.19963,410.37151 0 0 0 -5.91016,0.8965 412.19963,410.37151 0 0 0 -9.30078,1.4082 412.19963,410.37151 0 0 1 9.88476,-2.7422 412.19963,410.37151 0 0 1 0.0449,-0.012 412.19963,410.37151 0 0 1 24.29882,-5.1915 412.19963,410.37151 0 0 1 6.61719,-1.0039 412.19963,410.37151 0 0 1 18,-2.7265 412.19963,410.37151 0 0 1 23.01367,-2.0821 412.19963,410.37151 0 0 1 1.78321,-0.1601 412.19963,410.37151 0 0 1 24.88867,-0.75 412.19963,410.37151 0 0 1 26.76562,2.332 412.19963,410.37151 0 0 1 7.16797,0.6231 412.19963,410.37151 0 0 1 28.17969,2.455 154.49855,153.88857 0 0 1 0.40625,-8.2343 154.49855,153.88857 0 0 1 2.22461,-14.9395 154.49855,153.88857 0 0 1 3.68555,-14.6484 154.49855,153.88857 0 0 1 5.10547,-14.2188 154.49855,153.88857 0 0 1 6.48242,-13.6523 154.49855,153.88857 0 0 1 7.79492,-12.9531 154.49855,153.88857 0 0 1 9.0332,-12.1309 154.49855,153.88857 0 0 1 10.18164,-11.1895 154.49855,153.88857 0 0 1 11.23438,-10.1406 154.49855,153.88857 0 0 1 2.24804,-1.6621 z"
       transform="rotate(26.311327,10914.818,-9078.7123)" />
    <path
       id="path47932"
       style="fill:#002a29;fill-opacity:1;stroke:none;stroke-width:11.062;stroke-miterlimit:4;stroke-dasharray:none;stroke-dashoffset:0;stroke-opacity:1;paint-order:normal;filter:url(#filter46552)"
       d="m 2625.9468,4507.083 c -10.822,-0.729 -19.6763,-2.7884 -19.6763,-4.5765 0,-1.7882 -1.9248,-3.2598 -4.2774,-3.2703 -9.8598,-0.044 -29.499,-7.3487 -36.8136,-13.6927 -4.325,-3.751 -9.6768,-6.82 -11.8928,-6.82 -2.2161,0 -9.2402,-7.3144 -15.6091,-16.2543 -6.369,-8.9399 -13.5439,-18.2736 -15.9443,-20.7416 -11.566,-11.8914 -16.4105,-42.3883 -16.4105,-103.3044 0,-63.0902 4.4024,-89.0286 17.8801,-105.3469 3.3405,-4.0446 10.6036,-13.5636 16.1404,-21.1536 5.5367,-7.5899 11.8456,-13.7998 14.0197,-13.7998 2.1741,0 7.5523,-3.1217 11.9515,-6.9371 4.3992,-3.8154 11.9492,-7.9022 16.7779,-9.0818 4.8286,-1.1796 9.6627,-3.4839 10.7423,-5.1208 3.856,-5.846 60.9968,-9.6064 146.3631,-9.632 l 86.7308,-0.026 -1.1965,-62.4508 c -1.0342,-53.982 -2.0599,-63.7268 -7.5638,-71.8611 l -6.3674,-9.4104 H 2681.16 2551.5192 v -39.3525 -39.3525 l 113.7801,0.02 c 107.2038,0.019 151.7703,2.7667 156.3025,9.638 1.0797,1.6369 5.9138,3.9413 10.7424,5.1209 4.8287,1.1796 12.3787,5.2664 16.778,9.0818 4.3992,3.8154 9.8899,6.9371 12.2017,6.9371 2.3117,0 8.4753,5.7746 13.6967,12.8323 5.2214,7.0578 12.2271,15.1422 15.5681,17.9653 3.3411,2.8231 9.646,15.1422 14.0109,27.3757 l 7.9362,22.2427 0.9933,226.7048 0.9933,226.7047 h -44.4994 -44.4993 l -0.9794,-33.3641 -0.9794,-33.3641 -8.6424,16.7921 c -4.7534,9.2356 -11.5477,18.4749 -15.0986,20.5318 -3.5508,2.0568 -9.2001,6.3486 -12.5539,9.5372 -3.3538,3.1887 -11.9583,6.8755 -19.121,8.193 -7.1628,1.3175 -13.7932,3.4938 -14.7342,4.8362 -2.0463,2.9191 -99.5081,6.2832 -127.468,4.3998 z m 178.7973,-79.6889 c 0,-1.8821 2.2892,-3.4219 5.087,-3.4219 2.7979,0 7.4176,-5.5777 10.2659,-12.3948 4.1003,-9.8134 5.1789,-28.3427 5.1789,-88.9709 v -76.5762 h -102.6588 c -61.042,0 -102.6587,1.2908 -102.6587,3.184 0,1.7512 -3.4504,3.676 -7.6674,4.2774 -15.0426,2.1453 -17.9973,16.0889 -17.9973,84.9315 0,68.8426 2.9547,82.7861 17.9973,84.9315 4.217,0.6014 7.6674,2.5262 7.6674,4.2774 0,1.8854 37.6831,3.184 92.3929,3.184 59.3139,0 92.3928,-1.2251 92.3928,-3.422 z m -640.7617,79.5982 c -10.822,-0.6791 -19.6763,-2.6977 -19.6763,-4.4858 0,-1.7882 -3.0486,-3.2512 -6.7746,-3.2512 -8.747,0 -34.2889,-10.1966 -34.2889,-13.6885 0,-1.4737 -3.6342,-3.5916 -8.0761,-4.7064 -4.4419,-1.1148 -11.7563,-7.4308 -16.2543,-14.0354 -4.498,-6.6046 -9.4039,-12.019 -10.9021,-12.0318 -4.3978,-0.038 -19.1584,-34.6362 -21.5334,-50.4738 -1.2015,-8.0118 -3.5495,-14.5668 -5.2179,-14.5668 -1.7206,0 -3.0334,-70.3421 -3.0334,-162.5431 0,-106.0807 1.1887,-162.543 3.422,-162.543 1.8821,0 3.4219,-3.0474 3.4219,-6.772 0,-3.7247 3.2227,-16.589 7.1615,-28.5874 6.181,-18.8286 11.6227,-28.0806 26.5008,-45.0566 8.1384,-9.286 21.5363,-18.5395 32.6744,-22.5671 6.8026,-2.4599 12.3684,-5.5449 12.3684,-6.8557 0,-6.7476 52.4527,-9.9297 163.6788,-9.9297 h 120.3437 v 39.3525 39.3525 H 2279.612 2151.427 l -8.6934,9.3754 c -4.9458,5.3338 -8.6933,13.4472 -8.6933,18.8208 0,5.1949 -1.5399,9.4454 -3.422,9.4454 -2.2338,0 -3.422,57.0326 -3.422,164.254 0,90.3397 1.2441,164.254 2.7648,164.254 1.5206,0 4.2154,6.5445 5.9884,14.5433 2.1997,9.924 5.6692,15.6162 10.9231,17.9212 4.2347,1.8579 7.6994,4.5527 7.6994,5.9885 0,1.4358 56.9756,2.6105 126.6125,2.6105 h 126.6124 v 39.3525 39.3525 l -112.0691,-0.647 c -61.638,-0.3559 -120.9235,-1.2027 -131.7454,-1.8818 z M 1692.6076,4227.2095 V 3944.898 h 44.4854 44.4855 v 30.9995 c 0,30.2567 3.8996,38.1034 8.5083,17.1203 1.2049,-5.4863 6.046,-12.5011 10.7579,-15.5884 4.7119,-3.0874 11.5439,-8.5902 15.1822,-12.2285 3.6383,-3.6383 8.7966,-6.6151 11.4629,-6.6151 2.6663,0 5.3611,-1.4961 5.9884,-3.3247 1.7895,-5.2158 45.1827,-10.2211 89.2561,-10.2954 l 40.208,-0.068 v 39.3525 39.3525 h -80.4386 -80.4387 l -7.6768,8.7771 c -4.2222,4.8274 -8.6782,12.1418 -9.9021,16.2543 -1.224,4.1125 -2.3789,109.4944 -2.5665,234.182 l -0.3411,226.7047 h -44.4855 -44.4854 z m -438.8662,280.0059 c -10.8219,-0.8018 -19.6762,-2.9208 -19.6762,-4.7089 0,-1.7882 -3.0487,-3.2512 -6.7747,-3.2512 -8.747,0 -34.2888,-10.1966 -34.2888,-13.6885 0,-1.4737 -3.6343,-3.5916 -8.0762,-4.7064 -4.4419,-1.1148 -11.7563,-7.4308 -16.2543,-14.0354 -4.498,-6.6046 -9.3018,-12.019 -10.6751,-12.0318 -4.6239,-0.043 -16.3479,-27.0782 -21.6416,-49.9043 -4.4189,-19.0538 -5.0927,-48.8193 -4.243,-187.4252 0.9981,-162.8137 1.1055,-165.0429 9.025,-187.373 6.9188,-19.5088 12.5557,-28.9552 27.3541,-45.8402 7.344,-8.3796 20.2598,-17.6493 30.4995,-21.8896 6.1167,-2.533 11.1214,-5.7328 11.1214,-7.1107 0,-6.2336 53.8819,-10.3522 135.4319,-10.3522 81.5187,0 131.4808,3.968 131.4808,10.4422 0,1.3284 5.0046,4.4876 11.1214,7.0205 11.0939,4.5938 16.4894,8.3511 32.3939,22.5582 11.704,10.455 28.1963,43.4817 30.649,61.3764 1.127,8.2221 3.3796,14.9493 5.0059,14.9493 1.6262,0 2.9568,73.9143 2.9568,164.254 0,107.2213 -1.1882,164.254 -3.4219,164.254 -1.8821,0 -3.422,3.0474 -3.422,6.772 0,3.7247 -3.2441,16.6542 -7.2091,28.7324 -12.3739,37.6937 -54.3255,73.9983 -85.5082,73.9983 -3.2721,0 -6.5463,1.7912 -7.276,3.9805 -1.3539,4.0617 -155.7096,7.1552 -198.5726,3.9796 z m 189.0632,-79.4222 c 0,-1.6625 3.072,-3.8262 6.8267,-4.808 3.7546,-0.9819 7.877,-4.6262 9.1608,-8.0985 1.2837,-3.4724 3.9863,-7.4121 6.0056,-8.755 2.5362,-1.6866 3.6716,-57.7717 3.6716,-181.3638 v -178.9222 l -10.7833,-11.1213 -10.7833,-11.1214 H 1344.0444 1241.186 l -8.6933,9.3754 c -4.9458,5.3338 -8.6934,13.4472 -8.6934,18.8208 0,5.1949 -1.5399,9.4454 -3.422,9.4454 -2.2338,0 -3.4219,57.0326 -3.4219,164.254 0,90.3397 1.2441,164.254 2.7647,164.254 1.5206,0 4.2154,6.5445 5.9884,14.5433 2.1998,9.924 5.6692,15.6162 10.9231,17.9212 4.2347,1.8579 7.6994,4.5527 7.6994,5.9885 0,1.4358 44.6566,2.6105 99.2368,2.6105 55.1418,0 99.2368,-1.3432 99.2368,-3.0229 z"
       transform="matrix(0.70069183,0,0,0.70069183,-4486.9179,-4673.7848)" />
    <g
       id="g42017"
       transform="translate(-2248.9841,-1381.726)">
      <rect
         style="fill:#212178;fill-opacity:1;stroke:none"
         id="rect63576"
         width="349.56152"
         height="349.56152"
         x="855.68945"
         y="1071.5688" />
      <rect
         style="fill:#3737c8;fill-opacity:1;stroke:none"
         id="rect74188"
         width="349.56152"
         height="349.56152"
         x="1205.251"
         y="1071.5688" />
      <rect
         style="fill:#afafe9;fill-opacity:1;stroke:none"
         id="rect74190"
         width="349.56152"
         height="349.56152"
         x="1554.8125"
         y="1071.5688" />
      <rect
         style="fill:#e6e6e6;fill-opacity:1;stroke:none"
         id="rect80748"
         width="349.56152"
         height="349.56152"
         x="506.12796"
         y="1071.5688" />
      <rect
         style="fill:#1a1a1a;fill-opacity:1;stroke:none"
         id="rect84847"
         width="349.56152"
         height="349.56152"
         x="156.56644"
         y="1071.5688" />
    </g>
    <path
       id="path13341"
       style="display:inline;fill:#1a1a1a;stroke:none;stroke-width:4.2794;paint-order:stroke fill markers"
       d="m 27.237809,6.794847 a 109.11772,108.68691 0 0 0 -9.5103,0.4131 109.11772,108.68691 0 0 0 -8.8318997,1.1585 109.11772,108.68691 0 0 1 17.4121997,13.308216 109.11772,108.68691 0 0 1 6.2651,7.11572 109.11772,108.68691 0 0 1 11.075704,15.39366 109.11772,108.68691 0 0 1 3.3697,8.10398 109.11772,108.68691 0 0 1 7.5313,18.10939 109.11772,108.68691 0 0 1 3.7184,28.12983 109.11772,108.68691 0 0 1 -0.7667,5.799447 182.17843,181.05978 0 0 0 -1.8288,2.60932 182.17843,181.05978 0 0 0 -4.9295,5.9697 182.17843,181.05978 0 0 0 -2.4566,4.56771 182.17843,181.05978 0 0 0 -13.320104,24.76694 182.17843,181.05978 0 0 0 -1.0584,1.96778 182.17843,181.05978 0 0 0 -6.5086,18.92118 182.17843,181.05978 0 0 0 -0.8844,3.49118 182.17843,181.05978 0 0 0 -2.7032,10.66759 182.17843,181.05978 0 0 0 -0.2703,0.88563 182.17843,181.05978 0 0 0 -0.9558,6.40283 182.17843,181.05978 0 0 0 -0.5758,2.63121 182.17843,181.05978 0 0 0 0.088,0.25348 182.17843,181.05978 0 0 0 0.039,0.11453 182.17843,181.05978 0 0 0 2.7339,7.87364 182.17843,181.05978 0 0 0 4.2109,10.10432 182.17843,181.05978 0 0 0 4.8175,9.83328 182.17843,181.05978 0 0 0 5.4064,9.52661 182.17843,181.05978 0 0 0 1.405104,2.15995 h 6e-4 a 182.17843,181.05978 0 0 0 4.569,7.02367 182.17843,181.05978 0 0 0 6.5224,8.80873 182.17843,181.05978 0 0 0 7.0449,8.40127 182.17843,181.05978 0 0 0 7.5432,7.96315 182.17843,181.05978 0 0 0 8.0132,7.49685 182.17843,181.05978 0 0 0 5.387,4.46193 182.17843,181.05978 0 0 1 -0.2772,-0.99639 182.17843,181.05978 0 0 1 -1.9591,-8.67102 182.17843,181.05978 0 0 1 -1.5284,-8.75614 182.17843,181.05978 0 0 1 -1.0947,-8.82001 182.17843,181.05978 0 0 1 -0.6578,-8.86253 182.17843,181.05978 0 0 1 -0.2196,-8.88445 182.17843,181.05978 0 0 1 0.4412,-12.26613 182.17843,181.05978 0 0 0 0,0.006 72.888712,72.716581 0 0 1 0.2315,-1.45832 72.888712,72.716581 0 0 1 1.1448,-7.21082 72.888712,72.716581 0 0 1 10.3528,-20.27119 72.888712,72.716581 0 0 1 16.125297,-16.08716 72.888712,72.716581 0 0 1 20.3194,-10.32838 72.888712,72.716581 0 0 1 1.4439,-0.22845 72.888712,72.716581 0 0 1 2.5386,-0.40057 72.888712,72.716581 0 0 1 18.5412,-2.92978 72.888712,72.716581 0 0 1 22.5238,3.5588 72.888712,72.716581 0 0 1 7.9362,4.03448 72.888712,72.716581 0 0 1 12.3826,6.2939 72.888712,72.716581 0 0 1 6.8572,6.84092 182.17843,181.05978 0 0 0 -2.8447,5.28873 182.17843,181.05978 0 0 0 -0.2885,0.53702 182.17843,181.05978 0 0 0 -9.6762,31.22734 182.17843,181.05978 0 0 0 -0.6904,2.73825 182.17843,181.05978 0 0 0 -2.6662,26.90621 72.888712,72.716581 0 0 0 1.0189,0.27226 72.888712,72.716581 0 0 0 7.5357,1.19045 72.888712,72.716581 0 0 0 7.6189,0.39868 72.888712,72.716581 0 0 0 21.0798,-3.33096 72.888712,72.716581 0 0 0 1.4439,-0.22845 72.888712,72.716581 0 0 0 20.3194,-10.32838 72.888712,72.716581 0 0 0 10.9593,-10.93298 72.888712,72.716581 0 0 0 1.3851,-1.38256 182.17843,181.05978 0 0 0 12.1228,4.261 182.17843,181.05978 0 0 0 1.76,-19.99454 182.17843,181.05978 0 0 0 -2.2851,-25.96239 182.17843,181.05978 0 0 1 2.0147,-0.53637 182.17843,181.05978 0 0 1 31.6354,-2.75078 182.17843,181.05978 0 0 1 31.6348,2.75078 182.17843,181.05978 0 0 1 30.6734,8.16842 182.17843,181.05978 0 0 1 21.6237,10.02107 182.17843,181.05978 0 0 0 2.7057,-5.03087 182.17843,181.05978 0 0 0 -1.0802,-10.90167 182.17843,181.05978 0 0 0 -10.3672,-33.96559 182.17843,181.05978 0 0 0 -16.8351,-31.30245 182.17843,181.05978 0 0 0 -22.6565,-27.437567 182.17843,181.05978 0 0 0 -12.6234,-10.29646 182.17843,181.05978 0 0 0 -14.9831,-12.22044 182.17843,181.05978 0 0 0 -31.4965,-16.73181 182.17843,181.05978 0 0 0 -34.1752,-10.30332 182.17843,181.05978 0 0 0 -35.541,-3.47869 182.17843,181.05978 0 0 0 -35.5416,3.47869 182.17843,181.05978 0 0 0 -9.5109,2.41215 182.17843,181.05978 0 0 0 -21.6169,6.97236 182.17843,181.05978 0 0 0 -3.0474,0.91881 182.17843,181.05978 0 0 0 -10.5224,5.5898 182.17843,181.05978 0 0 0 -5.4596,2.53232 109.11772,108.68691 0 0 0 -12.1247,-15.71412 109.11772,108.68691 0 0 0 -22.598797,-17.27195 109.11772,108.68691 0 0 0 -17.5793,-7.25276 109.11772,108.68691 0 0 0 -8.738,-3.6051 109.11772,108.68691 0 0 0 -28.241904,-3.703386 z m -7.197,206.706393 a 182.17843,181.05978 0 0 0 0.3355,9.76634 109.11772,108.68691 0 0 0 0.1433,0.0189 182.17843,181.05978 0 0 1 -0.4788,-9.78511 z" />
    <path
       id="path45502"
       style="display:inline;fill:#1a1a1a;stroke:none;stroke-width:4.2794;paint-order:stroke fill markers"
       d="m 27.237809,6.794847 a 109.11772,108.68691 0 0 0 -9.5103,0.4131 109.11772,108.68691 0 0 0 -8.8318997,1.1585 109.11772,108.68691 0 0 1 17.4121997,13.308216 109.11772,108.68691 0 0 1 6.2651,7.11572 109.11772,108.68691 0 0 1 11.075704,15.39366 109.11772,108.68691 0 0 1 3.3697,8.10398 109.11772,108.68691 0 0 1 7.5313,18.10939 109.11772,108.68691 0 0 1 3.7184,28.12983 109.11772,108.68691 0 0 1 -0.7667,5.799447 182.17843,181.05978 0 0 0 -1.8288,2.60932 182.17843,181.05978 0 0 0 -4.9295,5.9697 182.17843,181.05978 0 0 0 -2.4566,4.56771 182.17843,181.05978 0 0 0 -13.320104,24.76694 182.17843,181.05978 0 0 0 -1.0584,1.96778 182.17843,181.05978 0 0 0 -6.5086,18.92118 182.17843,181.05978 0 0 0 -0.8844,3.49118 182.17843,181.05978 0 0 0 -2.7032,10.66759 182.17843,181.05978 0 0 0 -0.2703,0.88563 182.17843,181.05978 0 0 0 -0.9558,6.40283 182.17843,181.05978 0 0 0 -0.5758,2.63121 182.17843,181.05978 0 0 0 0.088,0.25348 182.17843,181.05978 0 0 0 0.039,0.11453 182.17843,181.05978 0 0 0 2.7339,7.87364 182.17843,181.05978 0 0 0 4.2109,10.10432 182.17843,181.05978 0 0 0 4.8175,9.83328 182.17843,181.05978 0 0 0 5.4064,9.52661 182.17843,181.05978 0 0 0 1.405104,2.15995 h 6e-4 a 182.17843,181.05978 0 0 0 4.569,7.02367 182.17843,181.05978 0 0 0 6.5224,8.80873 182.17843,181.05978 0 0 0 7.0449,8.40127 182.17843,181.05978 0 0 0 7.5432,7.96315 182.17843,181.05978 0 0 0 8.0132,7.49685 182.17843,181.05978 0 0 0 5.387,4.46193 182.17843,181.05978 0 0 1 -0.2772,-0.99639 182.17843,181.05978 0 0 1 -1.9591,-8.67102 182.17843,181.05978 0 0 1 -1.5284,-8.75614 182.17843,181.05978 0 0 1 -1.0947,-8.82001 182.17843,181.05978 0 0 1 -0.6578,-8.86253 182.17843,181.05978 0 0 1 -0.2196,-8.88445 182.17843,181.05978 0 0 1 0.4412,-12.26613 182.17843,181.05978 0 0 0 0,0.006 72.888712,72.716581 0 0 1 0.2315,-1.45832 72.888712,72.716581 0 0 1 1.1448,-7.21082 72.888712,72.716581 0 0 1 10.3528,-20.27119 72.888712,72.716581 0 0 1 16.125297,-16.08716 72.888712,72.716581 0 0 1 20.3194,-10.32838 72.888712,72.716581 0 0 1 1.4439,-0.22845 72.888712,72.716581 0 0 1 2.5386,-0.40057 72.888712,72.716581 0 0 1 18.5412,-2.92978 72.888712,72.716581 0 0 1 22.5238,3.5588 72.888712,72.716581 0 0 1 7.9362,4.03448 72.888712,72.716581 0 0 1 12.3826,6.2939 72.888712,72.716581 0 0 1 6.8572,6.84092 182.17843,181.05978 0 0 0 -2.8447,5.28873 182.17843,181.05978 0 0 0 -0.2885,0.53702 182.17843,181.05978 0 0 0 -9.6762,31.22734 182.17843,181.05978 0 0 0 -0.6904,2.73825 182.17843,181.05978 0 0 0 -2.6662,26.90621 72.888712,72.716581 0 0 0 1.0189,0.27226 72.888712,72.716581 0 0 0 7.5357,1.19045 72.888712,72.716581 0 0 0 7.6189,0.39868 72.888712,72.716581 0 0 0 21.0798,-3.33096 72.888712,72.716581 0 0 0 1.4439,-0.22845 72.888712,72.716581 0 0 0 20.3194,-10.32838 72.888712,72.716581 0 0 0 10.9593,-10.93298 72.888712,72.716581 0 0 0 1.3851,-1.38256 182.17843,181.05978 0 0 0 12.1228,4.261 182.17843,181.05978 0 0 0 1.76,-19.99454 182.17843,181.05978 0 0 0 -2.2851,-25.96239 182.17843,181.05978 0 0 1 2.0147,-0.53637 182.17843,181.05978 0 0 1 31.6354,-2.75078 182.17843,181.05978 0 0 1 31.6348,2.75078 182.17843,181.05978 0 0 1 30.6734,8.16842 182.17843,181.05978 0 0 1 21.6237,10.02107 182.17843,181.05978 0 0 0 2.7057,-5.03087 182.17843,181.05978 0 0 0 -1.0802,-10.90167 182.17843,181.05978 0 0 0 -10.3672,-33.96559 182.17843,181.05978 0 0 0 -16.8351,-31.30245 182.17843,181.05978 0 0 0 -22.6565,-27.437567 182.17843,181.05978 0 0 0 -12.6234,-10.29646 182.17843,181.05978 0 0 0 -14.9831,-12.22044 182.17843,181.05978 0 0 0 -31.4965,-16.73181 182.17843,181.05978 0 0 0 -34.1752,-10.30332 182.17843,181.05978 0 0 0 -35.541,-3.47869 182.17843,181.05978 0 0 0 -35.5416,3.47869 182.17843,181.05978 0 0 0 -9.5109,2.41215 182.17843,181.05978 0 0 0 -21.6169,6.97236 182.17843,181.05978 0 0 0 -3.0474,0.91881 182.17843,181.05978 0 0 0 -10.5224,5.5898 182.17843,181.05978 0 0 0 -5.4596,2.53232 109.11772,108.68691 0 0 0 -12.1247,-15.71412 109.11772,108.68691 0 0 0 -22.598797,-17.27195 109.11772,108.68691 0 0 0 -17.5793,-7.25276 109.11772,108.68691 0 0 0 -8.738,-3.6051 109.11772,108.68691 0 0 0 -28.241904,-3.703386 z m -7.197,206.706393 a 182.17843,181.05978 0 0 0 0.3355,9.76634 109.11772,108.68691 0 0 0 0.1433,0.0189 182.17843,181.05978 0 0 1 -0.4788,-9.78511 z" />
  </g>
  <g
     inkscape:groupmode="layer"
     id="layer3"
     inkscape:label="Wave">
    <g
       id="g44839"
       transform="matrix(0.32045365,0,0,0.32045365,129.22661,-577.57991)">
      <path
         id="path13333"
         style="display:inline;fill:#212178;fill-opacity:1;stroke:none;stroke-width:6.3;stroke-miterlimit:4;stroke-dasharray:none;stroke-opacity:1;paint-order:stroke fill markers"
         d="m 49.837891,2286.2773 a 227.45477,226.91762 0 0 0 -57.8593754,9.1426 227.45477,226.91762 0 0 0 -7.9218746,1.25 227.45477,226.91762 0 0 0 -4.50586,0.7129 227.45477,226.91762 0 0 0 -63.408203,32.2305 227.45477,226.91762 0 0 0 -50.320308,50.2012 227.45477,226.91762 0 0 0 -32.30665,63.2578 227.45477,226.91762 0 0 0 -3.57226,22.5019 227.45477,226.91762 0 0 0 -0.72266,4.5508 568.50165,565.01081 0 0 1 -0.0117,-0.018 568.50165,565.01081 0 0 0 -1.25,34.7598 568.50165,565.01081 0 0 0 -0.12695,3.5176 568.50165,565.01081 0 0 0 0.68555,27.7246 568.50165,565.01081 0 0 0 2.05273,27.6543 568.50165,565.01081 0 0 0 3.41602,27.5215 568.50165,565.01081 0 0 0 4.76953,27.3223 568.50165,565.01081 0 0 0 6.11328,27.0567 568.50165,565.01081 0 0 0 0.86524,3.1074 568.50165,565.01081 0 0 0 9.57031,7.9258 568.50165,565.01081 0 0 0 27.6582,20.2285 568.50165,565.01081 0 0 0 28.839844,18.5313 568.50165,565.01081 0 0 0 29.910157,16.7656 568.50165,565.01081 0 0 0 30.876953,14.9414 568.50165,565.01081 0 0 0 31.7265622,13.0605 568.50165,565.01081 0 0 0 0.2011719,0.068 568.50165,565.01081 0 0 0 32.2617189,11.0644 568.50165,565.01081 0 0 0 33.078125,9.1661 568.50165,565.01081 0 0 0 33.576168,7.1621 568.50165,565.01081 0 0 0 33.87696,5.125 568.50165,565.01081 0 0 1 -12.51563,-19.2383 568.50165,565.01081 0 0 1 -16.86914,-29.7266 568.50165,565.01081 0 0 1 -13.628905,-27.8203 568.50165,565.01081 0 0 1 -1.404297,-2.8652 A 568.50165,565.01081 0 0 1 79.75,2661.6387 568.50165,565.01081 0 0 1 68.548828,2629.375 568.50165,565.01081 0 0 1 59.326172,2596.5 a 568.50165,565.01081 0 0 1 -7.207031,-33.3711 568.50165,565.01081 0 0 1 -5.166016,-33.7402 568.50165,565.01081 0 0 1 -3.109375,-33.9903 568.50165,565.01081 0 0 1 -1.037109,-34.1152 568.50165,565.01081 0 0 1 7.003906,-79.5664 568.50165,565.01081 0 0 1 1.632812,-18.5469 568.50165,565.01081 0 0 1 19.339844,-75.248 227.45477,226.91762 0 0 0 -20.945312,-1.6446 z" />
      <path
         id="path13335"
         style="display:inline;fill:#afafe9;fill-opacity:1;stroke:none;stroke-width:6.3;stroke-miterlimit:4;stroke-dasharray:none;stroke-opacity:1;paint-order:stroke fill markers"
         d="m 428.0636,2995.8705 a 568.50165,565.01081 0 0 1 -18.3496,-6.293 568.50165,565.01081 0 0 1 -31.7265,-13.0606 568.50165,565.01081 0 0 1 -30.875,-14.9414 568.50165,565.01081 0 0 1 -29.9121,-16.7675 568.50165,565.01081 0 0 1 -28.8379,-18.5313 568.50165,565.01081 0 0 1 -27.6602,-20.2266 568.50165,565.01081 0 0 1 -26.3808,-21.8515 568.50165,565.01081 0 0 1 -14.586,-13.6465 568.50165,565.01081 0 0 0 36.2285,-36.0059 568.50165,565.01081 0 0 0 46.4922,-65.9882 568.50165,565.01081 0 0 0 2.1719,-0.1895 568.50165,565.01081 0 0 0 95.7188,-25.4902 568.50165,565.01081 0 0 0 7.0546,-3.2696 568.50165,565.01081 0 0 0 12.9063,4.4258 568.50165,565.01081 0 0 0 33.0801,9.1641 568.50165,565.01081 0 0 0 33.5761,7.164 568.50165,565.01081 0 0 0 33.9493,5.1348 568.50165,565.01081 0 0 0 34.1992,3.0898 568.50165,565.01081 0 0 0 34.3261,1.0313 568.50165,565.01081 0 0 0 98.7188,-8.584 568.50165,565.01081 0 0 0 29.3379,-7.8125 568.50165,565.01081 0 0 1 -289.4317,242.6485 z m 0,0 a 568.50165,565.01081 0 0 1 -200.2851,37.7578 568.50165,565.01081 0 0 1 -201.1992,-36.7383 568.50165,565.01081 0 0 0 78.1386,-36.211 568.50165,565.01081 0 0 0 81.1739,-56.4903 568.50165,565.01081 0 0 0 33.8437,-33.6367 568.50165,565.01081 0 0 0 14.586,13.6465 568.50165,565.01081 0 0 0 26.3808,21.8515 568.50165,565.01081 0 0 0 27.6602,20.2266 568.50165,565.01081 0 0 0 28.8379,18.5313 568.50165,565.01081 0 0 0 29.9121,16.7675 568.50165,565.01081 0 0 0 30.875,14.9414 568.50165,565.01081 0 0 0 31.7265,13.0606 568.50165,565.01081 0 0 0 18.3496,6.2931 z" />
      <path
         id="path13343"
         style="display:inline;fill:#3737c8;fill-opacity:0.997123;stroke:none;stroke-width:6.3;stroke-miterlimit:4;stroke-dasharray:none;stroke-opacity:1;paint-order:stroke fill markers"
         d="m 219.7355,2870.552 a 568.50165,565.01081 0 0 1 -10.4179,-9.7461 568.50165,565.01081 0 0 1 -23.5391,-24.8516 568.50165,565.01081 0 0 1 -21.9863,-26.2187 568.50165,565.01081 0 0 1 -20.3516,-27.4902 568.50165,565.01081 0 0 1 -6.1309,-9.4239 568.50165,565.01081 0 0 0 0.074,0.012 568.50165,565.01081 0 0 0 34.1992,3.0879 568.50165,565.01081 0 0 0 34.3262,1.0313 568.50165,565.01081 0 0 0 96.5468,-8.3946 568.50165,565.01081 0 0 1 -46.4922,65.9883 568.50165,565.01081 0 0 1 -36.2285,36.0059 z m 0,0 a 568.50165,565.01081 0 0 1 -33.8437,33.6367 568.50165,565.01081 0 0 1 -81.1739,56.4903 568.50165,565.01081 0 0 1 -78.1386,36.211 568.50165,565.01081 0 0 1 -274.6582,-219.336 568.50165,565.01081 0 0 0 12.3496,1.1153 568.50165,565.01081 0 0 0 34.3262,1.0293 568.50165,565.01081 0 0 0 98.7187,-8.5821 568.50165,565.01081 0 0 0 95.7207,-25.4921 568.50165,565.01081 0 0 0 11.4805,-5.3204 568.50165,565.01081 0 0 0 32.2617,11.0645 568.50165,565.01081 0 0 0 33.0781,9.166 568.50165,565.01081 0 0 0 33.5762,7.1621 568.50165,565.01081 0 0 0 33.8769,5.125 568.50165,565.01081 0 0 0 6.1309,9.4239 568.50165,565.01081 0 0 0 20.3516,27.4902 568.50165,565.01081 0 0 0 21.9863,26.2187 568.50165,565.01081 0 0 0 23.5391,24.8516 568.50165,565.01081 0 0 0 10.4179,9.746 z m -554.3144,-483.9726 a 568.50165,565.01081 0 0 0 8.9297,25.7188 568.50165,565.01081 0 0 0 13.1406,31.5312 568.50165,565.01081 0 0 0 15.0332,30.6855 568.50165,565.01081 0 0 0 16.8711,29.7285 568.50165,565.01081 0 0 0 18.6445,28.6602 568.50165,565.01081 0 0 0 20.3535,27.4903 568.50165,565.01081 0 0 0 21.9844,26.2187 568.50165,565.01081 0 0 0 23.5391,24.8516 568.50165,565.01081 0 0 0 25.0058,23.3945 568.50165,565.01081 0 0 0 26.3809,21.8496 568.50165,565.01081 0 0 0 27.6582,20.2286 568.50165,565.01081 0 0 0 28.8398,18.5312 568.50165,565.01081 0 0 0 29.9102,16.7656 568.50165,565.01081 0 0 0 30.8769,14.9414 568.50165,565.01081 0 0 0 31.7266,13.0606 568.50165,565.01081 0 0 0 0.2012,0.068 568.50165,565.01081 0 0 1 -11.4805,5.3203 568.50165,565.01081 0 0 1 -95.7207,25.4922 568.50165,565.01081 0 0 1 -98.7187,8.582 568.50165,565.01081 0 0 1 -34.3262,-1.0293 568.50165,565.01081 0 0 1 -12.3496,-1.1152 568.50165,565.01081 0 0 1 -92.6446,-308.9355 568.50165,565.01081 0 0 1 6.1446,-82.0391 z" />
    </g>
    <g
       id="g45510"
       transform="matrix(0.32045365,0,0,0.32045365,129.22661,-577.57991)">
      <path
         id="path45504"
         style="display:inline;fill:#212178;fill-opacity:1;stroke:none;stroke-width:6.3;stroke-miterlimit:4;stroke-dasharray:none;stroke-opacity:1;paint-order:stroke fill markers"
         d="m 49.837891,2286.2773 a 227.45477,226.91762 0 0 0 -57.8593754,9.1426 227.45477,226.91762 0 0 0 -7.9218746,1.25 227.45477,226.91762 0 0 0 -4.50586,0.7129 227.45477,226.91762 0 0 0 -63.408203,32.2305 227.45477,226.91762 0 0 0 -50.320308,50.2012 227.45477,226.91762 0 0 0 -32.30665,63.2578 227.45477,226.91762 0 0 0 -3.57226,22.5019 227.45477,226.91762 0 0 0 -0.72266,4.5508 568.50165,565.01081 0 0 1 -0.0117,-0.018 568.50165,565.01081 0 0 0 -1.25,34.7598 568.50165,565.01081 0 0 0 -0.12695,3.5176 568.50165,565.01081 0 0 0 0.68555,27.7246 568.50165,565.01081 0 0 0 2.05273,27.6543 568.50165,565.01081 0 0 0 3.41602,27.5215 568.50165,565.01081 0 0 0 4.76953,27.3223 568.50165,565.01081 0 0 0 6.11328,27.0567 568.50165,565.01081 0 0 0 0.86524,3.1074 568.50165,565.01081 0 0 0 9.57031,7.9258 568.50165,565.01081 0 0 0 27.6582,20.2285 568.50165,565.01081 0 0 0 28.839844,18.5313 568.50165,565.01081 0 0 0 29.910157,16.7656 568.50165,565.01081 0 0 0 30.876953,14.9414 568.50165,565.01081 0 0 0 31.7265622,13.0605 568.50165,565.01081 0 0 0 0.2011719,0.068 568.50165,565.01081 0 0 0 32.2617189,11.0644 568.50165,565.01081 0 0 0 33.078125,9.1661 568.50165,565.01081 0 0 0 33.576168,7.1621 568.50165,565.01081 0 0 0 33.87696,5.125 568.50165,565.01081 0 0 1 -12.51563,-19.2383 568.50165,565.01081 0 0 1 -16.86914,-29.7266 568.50165,565.01081 0 0 1 -13.628905,-27.8203 568.50165,565.01081 0 0 1 -1.404297,-2.8652 A 568.50165,565.01081 0 0 1 79.75,2661.6387 568.50165,565.01081 0 0 1 68.548828,2629.375 568.50165,565.01081 0 0 1 59.326172,2596.5 a 568.50165,565.01081 0 0 1 -7.207031,-33.3711 568.50165,565.01081 0 0 1 -5.166016,-33.7402 568.50165,565.01081 0 0 1 -3.109375,-33.9903 568.50165,565.01081 0 0 1 -1.037109,-34.1152 568.50165,565.01081 0 0 1 7.003906,-79.5664 568.50165,565.01081 0 0 1 1.632812,-18.5469 568.50165,565.01081 0 0 1 19.339844,-75.248 227.45477,226.91762 0 0 0 -20.945312,-1.6446 z" />
      <path
         id="path45506"
         style="display:inline;fill:#afafe9;fill-opacity:1;stroke:none;stroke-width:6.3;stroke-miterlimit:4;stroke-dasharray:none;stroke-opacity:1;paint-order:stroke fill markers"
         d="m 428.0636,2995.8705 a 568.50165,565.01081 0 0 1 -18.3496,-6.293 568.50165,565.01081 0 0 1 -31.7265,-13.0606 568.50165,565.01081 0 0 1 -30.875,-14.9414 568.50165,565.01081 0 0 1 -29.9121,-16.7675 568.50165,565.01081 0 0 1 -28.8379,-18.5313 568.50165,565.01081 0 0 1 -27.6602,-20.2266 568.50165,565.01081 0 0 1 -26.3808,-21.8515 568.50165,565.01081 0 0 1 -14.586,-13.6465 568.50165,565.01081 0 0 0 36.2285,-36.0059 568.50165,565.01081 0 0 0 46.4922,-65.9882 568.50165,565.01081 0 0 0 2.1719,-0.1895 568.50165,565.01081 0 0 0 95.7188,-25.4902 568.50165,565.01081 0 0 0 7.0546,-3.2696 568.50165,565.01081 0 0 0 12.9063,4.4258 568.50165,565.01081 0 0 0 33.0801,9.1641 568.50165,565.01081 0 0 0 33.5761,7.164 568.50165,565.01081 0 0 0 33.9493,5.1348 568.50165,565.01081 0 0 0 34.1992,3.0898 568.50165,565.01081 0 0 0 34.3261,1.0313 568.50165,565.01081 0 0 0 98.7188,-8.584 568.50165,565.01081 0 0 0 29.3379,-7.8125 568.50165,565.01081 0 0 1 -289.4317,242.6485 z m 0,0 a 568.50165,565.01081 0 0 1 -200.2851,37.7578 568.50165,565.01081 0 0 1 -201.1992,-36.7383 568.50165,565.01081 0 0 0 78.1386,-36.211 568.50165,565.01081 0 0 0 81.1739,-56.4903 568.50165,565.01081 0 0 0 33.8437,-33.6367 568.50165,565.01081 0 0 0 14.586,13.6465 568.50165,565.01081 0 0 0 26.3808,21.8515 568.50165,565.01081 0 0 0 27.6602,20.2266 568.50165,565.01081 0 0 0 28.8379,18.5313 568.50165,565.01081 0 0 0 29.9121,16.7675 568.50165,565.01081 0 0 0 30.875,14.9414 568.50165,565.01081 0 0 0 31.7265,13.0606 568.50165,565.01081 0 0 0 18.3496,6.2931 z" />
      <path
         id="path45508"
         style="display:inline;fill:#3737c8;fill-opacity:0.997123;stroke:none;stroke-width:6.3;stroke-miterlimit:4;stroke-dasharray:none;stroke-opacity:1;paint-order:stroke fill markers"
         d="m 219.7355,2870.552 a 568.50165,565.01081 0 0 1 -10.4179,-9.7461 568.50165,565.01081 0 0 1 -23.5391,-24.8516 568.50165,565.01081 0 0 1 -21.9863,-26.2187 568.50165,565.01081 0 0 1 -20.3516,-27.4902 568.50165,565.01081 0 0 1 -6.1309,-9.4239 568.50165,565.01081 0 0 0 0.074,0.012 568.50165,565.01081 0 0 0 34.1992,3.0879 568.50165,565.01081 0 0 0 34.3262,1.0313 568.50165,565.01081 0 0 0 96.5468,-8.3946 568.50165,565.01081 0 0 1 -46.4922,65.9883 568.50165,565.01081 0 0 1 -36.2285,36.0059 z m 0,0 a 568.50165,565.01081 0 0 1 -33.8437,33.6367 568.50165,565.01081 0 0 1 -81.1739,56.4903 568.50165,565.01081 0 0 1 -78.1386,36.211 568.50165,565.01081 0 0 1 -274.6582,-219.336 568.50165,565.01081 0 0 0 12.3496,1.1153 568.50165,565.01081 0 0 0 34.3262,1.0293 568.50165,565.01081 0 0 0 98.7187,-8.5821 568.50165,565.01081 0 0 0 95.7207,-25.4921 568.50165,565.01081 0 0 0 11.4805,-5.3204 568.50165,565.01081 0 0 0 32.2617,11.0645 568.50165,565.01081 0 0 0 33.0781,9.166 568.50165,565.01081 0 0 0 33.5762,7.1621 568.50165,565.01081 0 0 0 33.8769,5.125 568.50165,565.01081 0 0 0 6.1309,9.4239 568.50165,565.01081 0 0 0 20.3516,27.4902 568.50165,565.01081 0 0 0 21.9863,26.2187 568.50165,565.01081 0 0 0 23.5391,24.8516 568.50165,565.01081 0 0 0 10.4179,9.746 z m -554.3144,-483.9726 a 568.50165,565.01081 0 0 0 8.9297,25.7188 568.50165,565.01081 0 0 0 13.1406,31.5312 568.50165,565.01081 0 0 0 15.0332,30.6855 568.50165,565.01081 0 0 0 16.8711,29.7285 568.50165,565.01081 0 0 0 18.6445,28.6602 568.50165,565.01081 0 0 0 20.3535,27.4903 568.50165,565.01081 0 0 0 21.9844,26.2187 568.50165,565.01081 0 0 0 23.5391,24.8516 568.50165,565.01081 0 0 0 25.0058,23.3945 568.50165,565.01081 0 0 0 26.3809,21.8496 568.50165,565.01081 0 0 0 27.6582,20.2286 568.50165,565.01081 0 0 0 28.8398,18.5312 568.50165,565.01081 0 0 0 29.9102,16.7656 568.50165,565.01081 0 0 0 30.8769,14.9414 568.50165,565.01081 0 0 0 31.7266,13.0606 568.50165,565.01081 0 0 0 0.2012,0.068 568.50165,565.01081 0 0 1 -11.4805,5.3203 568.50165,565.01081 0 0 1 -95.7207,25.4922 568.50165,565.01081 0 0 1 -98.7187,8.582 568.50165,565.01081 0 0 1 -34.3262,-1.0293 568.50165,565.01081 0 0 1 -12.3496,-1.1152 568.50165,565.01081 0 0 1 -92.6446,-308.9355 568.50165,565.01081 0 0 1 6.1446,-82.0391 z" />
    </g>
  </g>
  <g
     inkscape:groupmode="layer"
     id="layer2"
     inkscape:label="White"
     style="display:inline">
    <path
       style="display:inline;opacity:1;fill:#ffffff;fill-opacity:1;stroke:none;stroke-width:2.90476;stroke-miterlimit:4;stroke-dasharray:none"
       d="m -4461.6019,-2586.4792 a 256.36051,257.9444 89.999961 0 0 -7.9172,22.4861 256.36051,257.9444 89.999961 0 0 -6.4673,57.0455 256.36051,257.9444 89.999961 0 0 0.4918,12.4385 256.36051,257.9444 89.999961 0 1 -9.1596,5.7203 256.36051,257.9444 89.999961 0 1 -0.7701,-0.2828 256.36051,257.9444 89.999961 0 1 -12.9489,-5.932 256.36051,257.9444 89.999961 0 1 -1.2512,-0.5734 256.36051,257.9444 89.999961 0 1 -4.1936,-1.9212 256.36051,257.9444 89.999961 0 1 -17.6714,-9.8358 256.36051,257.9444 89.999961 0 1 -16.8401,-11.1836 256.36051,257.9444 89.999961 0 1 -9.4787,-7.4263 256.36051,257.9444 89.999961 0 1 -6.4266,-5.0353 256.36051,257.9444 89.999961 0 1 -14.8728,-13.6641 256.36051,257.9444 89.999961 0 1 -13.7483,-14.7815 256.36051,257.9444 89.999961 0 1 -6.198,-7.8144 256.36051,257.9444 89.999961 0 1 -1.9531,-0.3864 153.88857,154.49855 89.999986 0 1 0.7099,-1.1804 256.36051,257.9444 89.999961 0 1 -5.0974,-6.4266 256.36051,257.9444 89.999961 0 1 -11.2528,-16.7365 256.36051,257.9444 89.999961 0 1 -6.5286,-11.586 256.36051,257.9444 89.999961 0 1 -11.8571,-14.9482 256.36051,257.9444 89.999961 0 1 -11.2519,-16.7373 256.36051,257.9444 89.999961 0 1 -9.897,-17.5625 256.36051,257.9444 89.999961 0 1 -8.4789,-18.2802 256.36051,257.9444 89.999961 0 1 -7.0106,-18.8855 256.36051,257.9444 89.999961 0 1 -5.497,-19.3737 256.36051,257.9444 89.999961 0 1 -1.5978,-7.9819 256.36051,257.9444 89.999961 0 1 -2.3537,-11.7606 256.36051,257.9444 89.999961 0 1 -2.3803,-19.9896 256.36051,257.9444 89.999961 0 1 -0.7959,-20.1138 256.36051,257.9444 89.999961 0 1 0.856,-7.5494 256.36051,257.9444 89.999961 0 1 1.8363,-16.1977 256.36051,257.9444 89.999961 0 1 3.7752,-33.2984 256.36051,257.9444 89.999961 0 1 11.842,-33.6343 412.19963,410.37151 3.0159178e-5 0 0 16.297,60.5513 412.19963,410.37151 3.0159178e-5 0 0 30.3651,64.8306 412.19963,410.37151 3.0159178e-5 0 0 41.2121,58.5955 412.19963,410.37151 3.0159178e-5 0 0 50.8068,50.5816 412.19963,410.37151 3.0159178e-5 0 0 55.7037,38.83 z"
       id="path41988" />
    <path
       id="path41986"
       style="display:inline;opacity:1;fill:#ffffff;fill-opacity:1;stroke:none;stroke-width:2.90476;stroke-miterlimit:4;stroke-dasharray:none"
       d="m -3790.8812,-2865.5189 a 412.19963,410.37151 3.0159178e-5 0 0 -11.6543,1.8379 412.19963,410.37151 3.0159178e-5 0 0 -25.2715,5.623 412.19963,410.37151 3.0159178e-5 0 0 -23.1972,6.709 412.19963,410.37151 3.0159178e-5 0 0 -1.67,0.4844 412.19963,410.37151 3.0159178e-5 0 0 -24.3632,8.7324 412.19963,410.37151 3.0159178e-5 0 0 -23.7657,10.2383 412.19963,410.37151 3.0159178e-5 0 0 -23.0722,11.7031 412.19963,410.37151 3.0159178e-5 0 0 -22.2891,13.125 412.19963,410.37151 3.0159178e-5 0 0 -21.418,14.4903 412.19963,410.37151 3.0159178e-5 0 0 -20.4609,15.8007 412.19963,410.37151 3.0159178e-5 0 0 -19.4238,17.0489 412.19963,410.37151 3.0159178e-5 0 0 -18.3106,18.2285 412.19963,410.37151 3.0159178e-5 0 0 -17.125,19.3379 412.19963,410.37151 3.0159178e-5 0 0 -12.7363,16.3476 412.19963,410.37151 3.0159178e-5 0 0 -3.1348,4.0235 412.19963,410.37151 3.0159178e-5 0 0 -14.5547,21.3222 412.19963,410.37151 3.0159178e-5 0 0 -13.1816,22.1895 412.19963,410.37151 3.0159178e-5 0 0 -11.7559,22.9707 412.19963,410.37151 3.0159178e-5 0 0 -10.2851,23.6601 412.19963,410.37151 3.0159178e-5 0 0 -8.7715,24.2559 412.19963,410.37151 3.0159178e-5 0 0 -7.2246,24.7559 412.19963,410.37151 3.0159178e-5 0 0 -2.8887,12.8711 412.19963,410.37151 3.0159178e-5 0 0 -2.7597,12.289 412.19963,410.37151 3.0159178e-5 0 0 -4.0508,25.4629 412.19963,410.37151 3.0159178e-5 0 0 -2.4375,25.666 412.19963,410.37151 3.0159178e-5 0 0 -0.8125,25.7657 412.19963,410.37151 3.0159178e-5 0 0 4.2519,48.3808 412.19963,410.37151 3.0159178e-5 0 0 6.0176,-0.5234 412.19963,410.37151 3.0159178e-5 0 0 47.1777,-12.586 412.19963,410.37151 3.0159178e-5 0 0 22.2266,-5.9277 412.19963,410.37151 3.0159178e-5 0 0 20.8594,-9.6855 412.19963,410.37151 3.0159178e-5 0 0 44.2578,-20.5469 412.19963,410.37151 3.0159178e-5 0 0 29.5801,-18.7598 412.19963,410.37151 3.0159178e-5 0 0 29.2773,-22.2676 412.19963,410.37151 3.0159178e-5 0 0 29.8125,-29.6816 412.19963,410.37151 3.0159178e-5 0 0 20.9941,-20.9004 412.19963,410.37151 3.0159178e-5 0 0 41.2129,-58.5957 412.19963,410.37151 3.0159178e-5 0 0 30.3652,-64.8301 412.19963,410.37151 3.0159178e-5 0 0 18.5957,-69.0957 412.19963,410.37151 3.0159178e-5 0 0 2.4942,-28.3828 412.19963,410.37151 3.0159178e-5 0 0 3.7695,-42.8789 412.19963,410.37151 3.0159178e-5 0 0 -2.0098,-22.8574 412.19963,410.37151 3.0159178e-5 0 0 -2.2675,-25.8008 z m -86.3672,95.6211 a 412.19963,410.37151 3.0159178e-5 0 1 -3.3633,7.1777 412.19963,410.37151 3.0159178e-5 0 0 3.3633,-7.1777 z m -35.2969,62.2441 a 412.19963,410.37151 3.0159178e-5 0 1 -4.5937,6.5313 412.19963,410.37151 3.0159178e-5 0 0 4.5937,-6.5313 z m -45.625,55.2149 a 412.19963,410.37151 3.0159178e-5 0 1 -5.6699,5.6445 412.19963,410.37151 3.0159178e-5 0 0 5.6699,-5.6445 z m -31.1367,28.4648 a 412.19963,410.37151 3.0159178e-5 0 1 -18.2207,14.2851 412.19963,410.37151 3.0159178e-5 0 0 18.2207,-14.2871 z m 13.5039,29.4024 a 256.36051,257.9444 89.999961 0 1 2.1192,6.0215 256.36051,257.9444 89.999961 0 0 -2.1192,-6.0215 z m 13.543,55.7617 a 256.36051,257.9444 89.999961 0 1 0.7207,6.3555 256.36051,257.9444 89.999961 0 0 -0.7207,-6.3555 z m -168.3008,3.5957 a 340.51014,339.16576 0 0 1 -6.4316,8.5566 340.51014,339.16576 0 0 1 -34.3535,34.2188 340.51014,339.16576 0 0 1 -38.8926,29 340.51014,339.16576 0 0 1 -42.6406,23.1914 340.51014,339.16576 0 0 1 -45.5196,16.9121 340.51014,339.16576 0 0 1 -6.4961,1.4082 412.19963,410.37151 0 0 0 34.5078,9.2051 412.19963,410.37151 0 0 0 71.5762,6.2343 412.19963,410.37151 0 0 0 57.6582,-5.0234 412.19963,410.37151 0 0 0 7.9024,-0.6875 412.19963,410.37151 0 0 1 -4.252,-48.3808 412.19963,410.37151 0 0 1 0.8145,-25.7676 412.19963,410.37151 0 0 1 2.4355,-25.6641 412.19963,410.37151 0 0 1 3.6914,-23.2031 z" />
    <path
       id="path43832"
       style="display:inline;opacity:1;fill:#ffffff;fill-opacity:1;stroke:#000000;stroke-width:0.26533;stroke-miterlimit:4;stroke-dasharray:none"
       d="m -4174.6029,-2776.5753 a 234.04534,268.38622 1.1330843 0 1 36.7421,-20.5652 234.04534,268.38622 1.1330843 0 1 25.4717,-8.405 93.73865,107.67535 0.4294921 0 1 10.6791,9.0965 93.73865,107.67535 0.4294921 0 1 15.1878,22.0033 93.73865,107.67535 0.4294921 0 1 8.3966,22.3056 234.04534,268.38622 1.1330843 0 1 -5.4597,9.2349 234.04534,268.38622 1.1330843 0 1 -28.4605,33.6962 234.04534,268.38622 1.1330843 0 1 -33.1039,27.5493 234.04534,268.38622 1.1330843 0 1 -12.3611,7.9451 234.04534,268.38622 1.1330843 0 1 -12.7535,7.0785 234.04534,268.38622 1.1330843 0 1 -9.9516,4.6981 234.04534,268.38622 1.1330843 0 1 -3.1469,1.4856 234.04534,268.38622 1.1330843 0 1 -13.3958,5.2687 234.04534,268.38622 1.1330843 0 1 -13.645,4.3327 234.04534,268.38622 1.1330843 0 1 -13.8434,3.3821 234.04534,268.38622 1.1330843 0 1 -11.2688,1.9477 234.04534,268.38622 1.1330843 0 1 -2.7226,0.4709 234.04534,268.38622 1.1330843 0 1 -14.0888,1.4458 234.04534,268.38622 1.1330843 0 1 -14.1347,0.469 234.04534,268.38622 1.1330843 0 1 -5.3213,-0.192 53.850542,46.802587 89.786919 0 1 -0.1455,-0.4687 234.04534,268.38622 1.1330843 0 1 12.8107,-32.7146 234.04534,268.38622 1.1330843 0 1 4.1559,-7.0283 234.04534,268.38622 1.1330843 0 1 11.9385,-20.1921 234.04534,268.38622 1.1330843 0 1 6.8568,-11.5977 234.04534,268.38622 1.1330843 0 1 28.4601,-33.6971 234.04534,268.38622 1.1330843 0 1 33.1038,-27.5493 z" />
    <path
       style="display:inline;opacity:1;fill:#ffffff;fill-opacity:1;stroke:none;stroke-width:2.90476;stroke-miterlimit:4;stroke-dasharray:none"
       d="m -4505.0137,-1725.3303 a 257.9444,256.36051 26.311288 0 0 -17.0639,16.6472 257.9444,256.36051 26.311288 0 0 -31.0826,48.2689 257.9444,256.36051 26.311288 0 0 -5.0725,11.3679 257.9444,256.36051 26.311288 0 1 -10.7462,1.0677 257.9444,256.36051 26.311288 0 1 -0.5649,-0.5949 257.9444,256.36051 26.311288 0 1 -8.9781,-11.057 257.9444,256.36051 26.311288 0 1 -0.8674,-1.0686 257.9444,256.36051 26.311288 0 1 -2.9076,-3.581 257.9444,256.36051 26.311288 0 1 -11.4809,-16.6496 257.9444,256.36051 26.311288 0 1 -10.1383,-17.4893 257.9444,256.36051 26.311288 0 1 -5.205,-10.8583 257.9444,256.36051 26.311288 0 1 -3.5289,-7.3623 257.9444,256.36051 26.311288 0 1 -7.2754,-18.8408 257.9444,256.36051 26.311288 0 1 -5.7721,-19.344 257.9444,256.36051 26.311288 0 1 -2.0922,-9.7521 257.9444,256.36051 26.311288 0 1 -1.5794,-1.2121 154.49855,153.88857 26.311313 0 1 1.1595,-0.7434 257.9444,256.36051 26.311288 0 1 -1.7207,-8.0203 257.9444,256.36051 26.311288 0 1 -2.6685,-19.9903 257.9444,256.36051 26.311288 0 1 -0.7168,-13.2795 257.9444,256.36051 26.311288 0 1 -4.0029,-18.6551 257.9444,256.36051 26.311288 0 1 -2.6675,-19.9908 257.9444,256.36051 26.311288 0 1 -1.087,-20.1298 257.9444,256.36051 26.311288 0 1 0.5022,-20.1446 257.9444,256.36051 26.311288 0 1 2.0866,-20.0364 257.9444,256.36051 26.311288 0 1 3.6598,-19.8031 257.9444,256.36051 26.311288 0 1 2.1058,-7.8631 257.9444,256.36051 26.311288 0 1 3.103,-11.5855 257.9444,256.36051 26.311288 0 1 6.7266,-18.9737 257.9444,256.36051 26.311288 0 1 8.202,-18.3828 257.9444,256.36051 26.311288 0 1 4.1136,-6.3878 257.9444,256.36051 26.311288 0 1 8.8256,-13.7057 257.9444,256.36051 26.311288 0 1 18.1436,-28.1753 257.9444,256.36051 26.311288 0 1 25.5235,-24.9008 412.19963,410.37151 26.311358 0 0 -12.2307,61.5017 412.19963,410.37151 26.311358 0 0 -1.5168,71.5734 412.19963,410.37151 26.311358 0 0 10.9701,70.7921 412.19963,410.37151 26.311358 0 0 23.1229,67.8613 412.19963,410.37151 26.311358 0 0 32.7215,59.4978 z"
       id="path47936" />
    <path
       id="path47938"
       style="display:inline;opacity:1;fill:#ffffff;fill-opacity:1;stroke:none;stroke-width:2.90476;stroke-miterlimit:4;stroke-dasharray:none"
       d="m -3780.0965,-1678.1653 a 412.19963,410.37151 26.311358 0 0 -11.2616,-3.5182 412.19963,410.37151 26.311358 0 0 -25.1458,-6.1611 412.19963,410.37151 26.311358 0 0 -23.7677,-4.2683 412.19963,410.37151 26.311358 0 0 -1.7116,-0.3059 412.19963,410.37151 26.311358 0 0 -25.7099,-2.9713 412.19963,410.37151 26.311358 0 0 -25.8415,-1.3565 412.19963,410.37151 26.311358 0 0 -25.8694,0.2639 412.19963,410.37151 26.311358 0 0 -25.7975,1.8857 412.19963,410.37151 26.311358 0 0 -25.6218,3.4956 412.19963,410.37151 26.311358 0 0 -25.3448,5.0944 412.19963,410.37151 26.311358 0 0 -24.9684,6.6731 412.19963,410.37151 26.311358 0 0 -24.4933,8.2238 412.19963,410.37151 26.311358 0 0 -23.9224,9.7439 412.19963,410.37151 26.311358 0 0 -18.6628,9.0086 412.19963,410.37151 26.311358 0 0 -4.5934,2.2172 412.19963,410.37151 26.311358 0 0 -22.4979,12.6618 412.19963,410.37151 26.311358 0 0 -21.6515,14.0479 412.19963,410.37151 26.311358 0 0 -20.7196,15.3802 412.19963,410.37151 26.311358 0 0 -19.7069,16.65 412.19963,410.37151 26.311358 0 0 -18.6142,17.855 412.19963,410.37151 26.311358 0 0 -17.4491,18.9889 412.19963,410.37151 26.311358 0 0 -8.2945,10.2572 412.19963,410.37151 26.311358 0 0 -7.9209,9.7926 412.19963,410.37151 26.311358 0 0 -14.9175,21.0294 412.19963,410.37151 26.311358 0 0 -13.5614,21.9265 412.19963,410.37151 26.311358 0 0 -12.149,22.7362 412.19963,410.37151 26.311358 0 0 -17.6332,45.2532 412.19963,410.37151 26.311358 0 0 5.6261,2.1981 412.19963,410.37151 26.311358 0 0 47.8688,9.6294 412.19963,410.37151 26.311358 0 0 22.5513,4.5383 412.19963,410.37151 26.311358 0 0 22.9914,0.5638 412.19963,410.37151 26.311358 0 0 48.7801,1.199 412.19963,410.37151 26.311358 0 0 34.8308,-3.7049 412.19963,410.37151 26.311358 0 0 36.1142,-6.9836 412.19963,410.37151 26.311358 0 0 39.8802,-13.3922 412.19963,410.37151 26.311358 0 0 28.0832,-9.4294 412.19963,410.37151 26.311358 0 0 62.9157,-34.2576 412.19963,410.37151 26.311358 0 0 55.9552,-44.6543 412.19963,410.37151 26.311358 0 0 47.2957,-53.6948 412.19963,410.37151 26.311358 0 0 14.8164,-24.3367 412.19963,410.37151 26.311358 0 0 22.385,-36.7658 412.19963,410.37151 26.311358 0 0 8.3299,-21.3802 412.19963,410.37151 26.311358 0 0 9.4036,-24.1329 z m -119.8034,47.4325 a 412.19963,410.37151 26.311358 0 1 -6.1964,4.9433 412.19963,410.37151 26.311358 0 0 6.1964,-4.9433 z m -59.2297,40.1503 a 412.19963,410.37151 26.311358 0 1 -7.0128,3.8185 412.19963,410.37151 26.311358 0 0 7.0128,-3.8185 z m -65.3721,29.2713 a 412.19963,410.37151 26.311358 0 1 -7.5844,2.5466 412.19963,410.37151 26.311358 0 0 7.5844,-2.5466 z m -40.5279,11.7146 a 412.19963,410.37151 26.311358 0 1 -22.6649,4.7288 412.19963,410.37151 26.311358 0 0 22.6658,-4.7306 z m -0.9277,32.3418 a 257.9444,256.36051 26.311288 0 1 -0.7694,6.337 257.9444,256.36051 26.311288 0 0 0.7694,-6.337 z m -12.5764,55.9876 a 257.9444,256.36051 26.311288 0 1 -2.171,6.0166 257.9444,256.36051 26.311288 0 0 2.171,-6.0166 z m -152.4584,-71.3758 a 340.51014,339.16576 26.311327 0 1 -9.558,4.8193 340.51014,339.16576 26.311327 0 1 -45.9619,15.4465 340.51014,339.16576 26.311327 0 1 -47.7174,8.7565 340.51014,339.16576 26.311327 0 1 -48.5026,1.8884 340.51014,339.16576 26.311327 0 1 -48.2999,-5.0165 340.51014,339.16576 26.311327 0 1 -6.4473,-1.6171 412.19963,410.37151 26.311327 0 0 26.8526,23.547 412.19963,410.37151 26.311327 0 0 61.3975,37.3144 412.19963,410.37151 26.311327 0 0 53.9113,21.054 412.19963,410.37151 26.311327 0 0 7.3884,2.8864 412.19963,410.37151 26.311327 0 1 17.6333,-45.2531 412.19963,410.37151 26.311327 0 1 12.1515,-22.7371 412.19963,410.37151 26.311327 0 1 13.5588,-21.9257 412.19963,410.37151 26.311327 0 1 13.5937,-19.163 z" />
    <path
       id="path47940"
       style="display:inline;opacity:1;fill:#ffffff;fill-opacity:1;stroke:#000000;stroke-width:0.26533;stroke-miterlimit:4;stroke-dasharray:none"
       d="m -4163.4883,-1768.5204 a 234.04534,268.38622 27.444412 0 1 42.051,-2.1487 234.04534,268.38622 27.444412 0 1 26.5583,3.756 93.73865,107.67535 26.74082 0 1 5.5407,12.8876 93.73865,107.67535 26.74082 0 1 3.8614,26.4557 93.73865,107.67535 26.74082 0 1 -2.3602,23.7165 234.04534,268.38622 27.444412 0 1 -8.9874,5.8581 234.04534,268.38622 27.444412 0 1 -40.4478,17.5902 234.04534,268.38622 27.444412 0 1 -41.8854,10.0219 234.04534,268.38622 27.444412 0 1 -14.6022,1.643 234.04534,268.38622 27.444412 0 1 -14.5697,0.6922 234.04534,268.38622 27.444412 0 1 -11.003,-0.1997 234.04534,268.38622 27.444412 0 1 -3.4794,-0.063 234.04534,268.38622 27.444412 0 1 -14.3433,-1.2148 234.04534,268.38622 27.444412 0 1 -14.1518,-2.1643 234.04534,268.38622 27.444412 0 1 -13.9084,-3.1043 234.04534,268.38622 27.444412 0 1 -10.9647,-3.249 234.04534,268.38622 27.444412 0 1 -2.6492,-0.7847 234.04534,268.38622 27.444412 0 1 -13.27,-4.9488 234.04534,268.38622 27.444412 0 1 -12.8783,-5.8448 234.04534,268.38622 27.444412 0 1 -4.6848,-2.5307 46.802587,53.850542 26.098246 0 1 0.077,-0.4847 234.04534,268.38622 27.444412 0 1 25.9842,-23.647 234.04534,268.38622 27.444412 0 1 6.8406,-4.458 234.04534,268.38622 27.444412 0 1 19.6518,-12.8085 234.04534,268.38622 27.444412 0 1 11.2871,-7.3569 234.04534,268.38622 27.444412 0 1 40.4478,-17.5911 234.04534,268.38622 27.444412 0 1 41.8854,-10.022 z" />
    <g
       id="g44844"
       transform="matrix(0.32045365,0,0,0.32045365,129.22661,-577.57991)">
      <path
         style="display:inline;fill:#e6e6e6;fill-opacity:1;stroke:none;stroke-width:0.4;stroke-miterlimit:4;stroke-dasharray:none;stroke-opacity:1;paint-order:stroke fill markers"
         d="m 49.838,2286.2765 a 227.45477,226.91762 0 0 1 70.2871,11.1055 227.45477,226.91762 0 0 1 24.7656,12.5898 227.45477,226.91762 0 0 1 38.6406,19.6407 227.45477,226.91762 0 0 1 21.3985,21.3476 568.50165,565.01081 0 0 0 -8.877,16.5039 568.50165,565.01081 0 0 0 -0.9004,1.6758 568.50165,565.01081 0 0 0 -22.2988,66.1113 568.50165,565.01081 0 0 1 -251.9941,-108.5234 227.45477,226.91762 0 0 1 58.6914,-29.3457 227.45477,226.91762 0 0 1 4.5058,-0.7129 227.45477,226.91762 0 0 1 7.9219,-1.25 227.45477,226.91762 0 0 1 57.8594,-9.1426 z"
         id="path13337" />
      <path
         id="path13339"
         style="display:inline;fill:#e6e6e6;fill-opacity:1;stroke:none;stroke-width:13.3542;paint-order:stroke fill markers"
         d="m 415.0001,2496.4308 a 568.50165,565.01081 0 0 0 5.4922,-62.3945 568.50165,565.01081 0 0 0 -7.1309,-81.0176 568.50165,565.01081 0 0 1 6.2871,-1.6738 568.50165,565.01081 0 0 1 98.7207,-8.584 568.50165,565.01081 0 0 1 98.7188,8.584 568.50165,565.01081 0 0 1 95.7187,25.4902 568.50165,565.01081 0 0 1 67.4785,31.2715 568.50165,565.01081 0 0 1 -8.6406,16.0664 568.50165,565.01081 0 0 1 -13.7988,25.6582 568.50165,565.01081 0 0 1 -49.3692,59.7891 568.50165,565.01081 0 0 1 -10.8183,3.2617 568.50165,565.01081 0 0 1 -110.9082,10.8574 568.50165,565.01081 0 0 1 -110.9082,-10.8574 568.50165,565.01081 0 0 1 -60.8418,-16.4512 z" />
      <path
         id="path13345"
         style="display:inline;fill:#e6e6e6;fill-opacity:1;stroke:none;paint-order:stroke fill markers"
         d="m 395.2116,2161.3869 a 227.45477,226.91762 0 0 0 2.5371,9.4454 227.45477,226.91762 0 0 0 16.7559,35.8477 227.45477,226.91762 0 0 0 22.7402,32.4004 227.45477,226.91762 0 0 0 28.0352,27.9707 227.45477,226.91762 0 0 0 32.4785,22.6875 227.45477,226.91762 0 0 0 35.9336,16.7148 227.45477,226.91762 0 0 0 16.873,4.5118 113.45831,113.59309 0 0 0 2.3535,-0.9766 113.45831,113.59309 0 0 0 23.4981,-18.0527 113.45831,113.59309 0 0 0 18.0293,-23.5254 113.45831,113.59309 0 0 0 7.9492,-19.213 227.45477,226.91762 0 0 0 -13.5352,-19.2852 227.45477,226.91762 0 0 0 -28.0351,-27.9707 227.45477,226.91762 0 0 0 -32.4785,-22.6875 227.45477,226.91762 0 0 0 -35.9336,-16.7148 227.45477,226.91762 0 0 0 -38.2969,-10.2383 227.45477,226.91762 0 0 0 -39.4961,-3.4473 227.45477,226.91762 0 0 0 -12.9883,1.1329 113.45831,113.59309 0 0 0 -3.7011,4.8301 113.45831,113.59309 0 0 0 -2.7188,6.5702 z" />
    </g>
    <g
       id="g45518"
       transform="matrix(0.32045365,0,0,0.32045365,129.22661,-577.57991)">
      <path
         style="display:inline;fill:#e6e6e6;fill-opacity:1;stroke:none;stroke-width:0.4;stroke-miterlimit:4;stroke-dasharray:none;stroke-opacity:1;paint-order:stroke fill markers"
         d="m 49.838,2286.2765 a 227.45477,226.91762 0 0 1 70.2871,11.1055 227.45477,226.91762 0 0 1 24.7656,12.5898 227.45477,226.91762 0 0 1 38.6406,19.6407 227.45477,226.91762 0 0 1 21.3985,21.3476 568.50165,565.01081 0 0 0 -8.877,16.5039 568.50165,565.01081 0 0 0 -0.9004,1.6758 568.50165,565.01081 0 0 0 -22.2988,66.1113 568.50165,565.01081 0 0 1 -251.9941,-108.5234 227.45477,226.91762 0 0 1 58.6914,-29.3457 227.45477,226.91762 0 0 1 4.5058,-0.7129 227.45477,226.91762 0 0 1 7.9219,-1.25 227.45477,226.91762 0 0 1 57.8594,-9.1426 z"
         id="path45512" />
      <path
         id="path45514"
         style="display:inline;fill:#e6e6e6;fill-opacity:1;stroke:none;stroke-width:13.3542;paint-order:stroke fill markers"
         d="m 415.0001,2496.4308 a 568.50165,565.01081 0 0 0 5.4922,-62.3945 568.50165,565.01081 0 0 0 -7.1309,-81.0176 568.50165,565.01081 0 0 1 6.2871,-1.6738 568.50165,565.01081 0 0 1 98.7207,-8.584 568.50165,565.01081 0 0 1 98.7188,8.584 568.50165,565.01081 0 0 1 95.7187,25.4902 568.50165,565.01081 0 0 1 67.4785,31.2715 568.50165,565.01081 0 0 1 -8.6406,16.0664 568.50165,565.01081 0 0 1 -13.7988,25.6582 568.50165,565.01081 0 0 1 -49.3692,59.7891 568.50165,565.01081 0 0 1 -10.8183,3.2617 568.50165,565.01081 0 0 1 -110.9082,10.8574 568.50165,565.01081 0 0 1 -110.9082,-10.8574 568.50165,565.01081 0 0 1 -60.8418,-16.4512 z" />
      <path
         id="path45516"
         style="display:inline;fill:#e6e6e6;fill-opacity:1;stroke:none;paint-order:stroke fill markers"
         d="m 395.2116,2161.3869 a 227.45477,226.91762 0 0 0 2.5371,9.4454 227.45477,226.91762 0 0 0 16.7559,35.8477 227.45477,226.91762 0 0 0 22.7402,32.4004 227.45477,226.91762 0 0 0 28.0352,27.9707 227.45477,226.91762 0 0 0 32.4785,22.6875 227.45477,226.91762 0 0 0 35.9336,16.7148 227.45477,226.91762 0 0 0 16.873,4.5118 113.45831,113.59309 0 0 0 2.3535,-0.9766 113.45831,113.59309 0 0 0 23.4981,-18.0527 113.45831,113.59309 0 0 0 18.0293,-23.5254 113.45831,113.59309 0 0 0 7.9492,-19.213 227.45477,226.91762 0 0 0 -13.5352,-19.2852 227.45477,226.91762 0 0 0 -28.0351,-27.9707 227.45477,226.91762 0 0 0 -32.4785,-22.6875 227.45477,226.91762 0 0 0 -35.9336,-16.7148 227.45477,226.91762 0 0 0 -38.2969,-10.2383 227.45477,226.91762 0 0 0 -39.4961,-3.4473 227.45477,226.91762 0 0 0 -12.9883,1.1329 113.45831,113.59309 0 0 0 -3.7011,4.8301 113.45831,113.59309 0 0 0 -2.7188,6.5702 z" />
    </g>
  </g>
  <g
     inkscape:groupmode="layer"
     id="layer4"
     inkscape:label="Copy" />
</svg>
